G04 #@! TF.FileFunction,Legend,Top*
%FSLAX46Y46*%
G04 Gerber Fmt 4.6, Leading zero omitted, Abs format (unit mm)*
G04 Created by KiCad (PCBNEW 4.0.6+dfsg1-1) date Mon Mar  5 09:48:27 2018*
%MOMM*%
%LPD*%
G01*
G04 APERTURE LIST*
%ADD10C,0.100000*%
%ADD11C,0.150000*%
%ADD12C,0.381000*%
%ADD13C,0.120000*%
%ADD14C,0.200000*%
%ADD15C,0.203200*%
G04 APERTURE END LIST*
D10*
D11*
X136525000Y-87630000D02*
X136525000Y-88900000D01*
X136525000Y-88900000D02*
X128905000Y-88900000D01*
X128905000Y-88900000D02*
X128905000Y-87630000D01*
X137795000Y-76200000D02*
X137795000Y-72390000D01*
X137795000Y-72390000D02*
X135255000Y-72390000D01*
X135255000Y-72390000D02*
X135255000Y-76200000D01*
X135255000Y-76200000D02*
X137795000Y-76200000D01*
X136525000Y-82550000D02*
X128905000Y-82550000D01*
X128905000Y-82550000D02*
X128905000Y-87630000D01*
X136525000Y-82550000D02*
X136525000Y-87630000D01*
X137795000Y-81280000D02*
X137795000Y-78740000D01*
X137795000Y-78740000D02*
X135255000Y-78740000D01*
X135255000Y-78740000D02*
X135255000Y-81280000D01*
X135255000Y-81280000D02*
X137795000Y-81280000D01*
X130175000Y-54610000D02*
X135255000Y-54610000D01*
X135255000Y-54610000D02*
X135255000Y-57150000D01*
X135255000Y-57150000D02*
X130175000Y-57150000D01*
X130175000Y-57150000D02*
X130175000Y-54610000D01*
X137795000Y-60960000D02*
X127635000Y-60960000D01*
X127635000Y-69850000D02*
X137795000Y-69850000D01*
X127635000Y-60960000D02*
X127635000Y-69850000D01*
X137795000Y-60960000D02*
X137795000Y-69850000D01*
X123825000Y-87630000D02*
X123825000Y-52070000D01*
X123825000Y-52070000D02*
X141605000Y-52070000D01*
X141605000Y-52070000D02*
X141605000Y-87630000D01*
X141605000Y-87630000D02*
X123825000Y-87630000D01*
D12*
X100965000Y-86995000D02*
X99187000Y-86995000D01*
X90043000Y-86995000D02*
X88265000Y-86995000D01*
X88265000Y-86995000D02*
X88265000Y-85217000D01*
X88265000Y-76073000D02*
X88265000Y-74295000D01*
X88265000Y-74295000D02*
X90043000Y-74295000D01*
X99187000Y-74295000D02*
X100965000Y-74295000D01*
X100965000Y-74295000D02*
X100965000Y-76073000D01*
X100965000Y-85217000D02*
X100965000Y-86995000D01*
X120015000Y-86995000D02*
X118237000Y-86995000D01*
X109093000Y-86995000D02*
X107315000Y-86995000D01*
X107315000Y-86995000D02*
X107315000Y-85217000D01*
X107315000Y-76073000D02*
X107315000Y-74295000D01*
X107315000Y-74295000D02*
X109093000Y-74295000D01*
X118237000Y-74295000D02*
X120015000Y-74295000D01*
X120015000Y-74295000D02*
X120015000Y-76073000D01*
X120015000Y-85217000D02*
X120015000Y-86995000D01*
X139065000Y-86995000D02*
X137287000Y-86995000D01*
X128143000Y-86995000D02*
X126365000Y-86995000D01*
X126365000Y-86995000D02*
X126365000Y-85217000D01*
X126365000Y-76073000D02*
X126365000Y-74295000D01*
X126365000Y-74295000D02*
X128143000Y-74295000D01*
X137287000Y-74295000D02*
X139065000Y-74295000D01*
X139065000Y-74295000D02*
X139065000Y-76073000D01*
X139065000Y-85217000D02*
X139065000Y-86995000D01*
X158115000Y-86995000D02*
X156337000Y-86995000D01*
X147193000Y-86995000D02*
X145415000Y-86995000D01*
X145415000Y-86995000D02*
X145415000Y-85217000D01*
X145415000Y-76073000D02*
X145415000Y-74295000D01*
X145415000Y-74295000D02*
X147193000Y-74295000D01*
X156337000Y-74295000D02*
X158115000Y-74295000D01*
X158115000Y-74295000D02*
X158115000Y-76073000D01*
X158115000Y-85217000D02*
X158115000Y-86995000D01*
X177165000Y-86995000D02*
X175387000Y-86995000D01*
X166243000Y-86995000D02*
X164465000Y-86995000D01*
X164465000Y-86995000D02*
X164465000Y-85217000D01*
X164465000Y-76073000D02*
X164465000Y-74295000D01*
X164465000Y-74295000D02*
X166243000Y-74295000D01*
X175387000Y-74295000D02*
X177165000Y-74295000D01*
X177165000Y-74295000D02*
X177165000Y-76073000D01*
X177165000Y-85217000D02*
X177165000Y-86995000D01*
X196215000Y-86995000D02*
X194437000Y-86995000D01*
X185293000Y-86995000D02*
X183515000Y-86995000D01*
X183515000Y-86995000D02*
X183515000Y-85217000D01*
X183515000Y-76073000D02*
X183515000Y-74295000D01*
X183515000Y-74295000D02*
X185293000Y-74295000D01*
X194437000Y-74295000D02*
X196215000Y-74295000D01*
X196215000Y-74295000D02*
X196215000Y-76073000D01*
X196215000Y-85217000D02*
X196215000Y-86995000D01*
X215265000Y-86995000D02*
X213487000Y-86995000D01*
X204343000Y-86995000D02*
X202565000Y-86995000D01*
X202565000Y-86995000D02*
X202565000Y-85217000D01*
X202565000Y-76073000D02*
X202565000Y-74295000D01*
X202565000Y-74295000D02*
X204343000Y-74295000D01*
X213487000Y-74295000D02*
X215265000Y-74295000D01*
X215265000Y-74295000D02*
X215265000Y-76073000D01*
X215265000Y-85217000D02*
X215265000Y-86995000D01*
X100965000Y-67945000D02*
X99187000Y-67945000D01*
X90043000Y-67945000D02*
X88265000Y-67945000D01*
X88265000Y-67945000D02*
X88265000Y-66167000D01*
X88265000Y-57023000D02*
X88265000Y-55245000D01*
X88265000Y-55245000D02*
X90043000Y-55245000D01*
X99187000Y-55245000D02*
X100965000Y-55245000D01*
X100965000Y-55245000D02*
X100965000Y-57023000D01*
X100965000Y-66167000D02*
X100965000Y-67945000D01*
X120015000Y-67945000D02*
X118237000Y-67945000D01*
X109093000Y-67945000D02*
X107315000Y-67945000D01*
X107315000Y-67945000D02*
X107315000Y-66167000D01*
X107315000Y-57023000D02*
X107315000Y-55245000D01*
X107315000Y-55245000D02*
X109093000Y-55245000D01*
X118237000Y-55245000D02*
X120015000Y-55245000D01*
X120015000Y-55245000D02*
X120015000Y-57023000D01*
X120015000Y-66167000D02*
X120015000Y-67945000D01*
X139065000Y-67945000D02*
X137287000Y-67945000D01*
X128143000Y-67945000D02*
X126365000Y-67945000D01*
X126365000Y-67945000D02*
X126365000Y-66167000D01*
X126365000Y-57023000D02*
X126365000Y-55245000D01*
X126365000Y-55245000D02*
X128143000Y-55245000D01*
X137287000Y-55245000D02*
X139065000Y-55245000D01*
X139065000Y-55245000D02*
X139065000Y-57023000D01*
X139065000Y-66167000D02*
X139065000Y-67945000D01*
X158115000Y-67945000D02*
X156337000Y-67945000D01*
X147193000Y-67945000D02*
X145415000Y-67945000D01*
X145415000Y-67945000D02*
X145415000Y-66167000D01*
X145415000Y-57023000D02*
X145415000Y-55245000D01*
X145415000Y-55245000D02*
X147193000Y-55245000D01*
X156337000Y-55245000D02*
X158115000Y-55245000D01*
X158115000Y-55245000D02*
X158115000Y-57023000D01*
X158115000Y-66167000D02*
X158115000Y-67945000D01*
X177165000Y-67945000D02*
X175387000Y-67945000D01*
X166243000Y-67945000D02*
X164465000Y-67945000D01*
X164465000Y-67945000D02*
X164465000Y-66167000D01*
X164465000Y-57023000D02*
X164465000Y-55245000D01*
X164465000Y-55245000D02*
X166243000Y-55245000D01*
X175387000Y-55245000D02*
X177165000Y-55245000D01*
X177165000Y-55245000D02*
X177165000Y-57023000D01*
X177165000Y-66167000D02*
X177165000Y-67945000D01*
X196215000Y-67945000D02*
X194437000Y-67945000D01*
X185293000Y-67945000D02*
X183515000Y-67945000D01*
X183515000Y-67945000D02*
X183515000Y-66167000D01*
X183515000Y-57023000D02*
X183515000Y-55245000D01*
X183515000Y-55245000D02*
X185293000Y-55245000D01*
X194437000Y-55245000D02*
X196215000Y-55245000D01*
X196215000Y-55245000D02*
X196215000Y-57023000D01*
X196215000Y-66167000D02*
X196215000Y-67945000D01*
X215265000Y-67945000D02*
X213487000Y-67945000D01*
X204343000Y-67945000D02*
X202565000Y-67945000D01*
X202565000Y-67945000D02*
X202565000Y-66167000D01*
X202565000Y-57023000D02*
X202565000Y-55245000D01*
X202565000Y-55245000D02*
X204343000Y-55245000D01*
X213487000Y-55245000D02*
X215265000Y-55245000D01*
X215265000Y-55245000D02*
X215265000Y-57023000D01*
X215265000Y-66167000D02*
X215265000Y-67945000D01*
X196215000Y-38735000D02*
X194437000Y-38735000D01*
X185293000Y-38735000D02*
X183515000Y-38735000D01*
X183515000Y-38735000D02*
X183515000Y-36957000D01*
X183515000Y-27813000D02*
X183515000Y-26035000D01*
X183515000Y-26035000D02*
X185293000Y-26035000D01*
X194437000Y-26035000D02*
X196215000Y-26035000D01*
X196215000Y-26035000D02*
X196215000Y-27813000D01*
X196215000Y-36957000D02*
X196215000Y-38735000D01*
X215265000Y-38735000D02*
X213487000Y-38735000D01*
X204343000Y-38735000D02*
X202565000Y-38735000D01*
X202565000Y-38735000D02*
X202565000Y-36957000D01*
X202565000Y-27813000D02*
X202565000Y-26035000D01*
X202565000Y-26035000D02*
X204343000Y-26035000D01*
X213487000Y-26035000D02*
X215265000Y-26035000D01*
X215265000Y-26035000D02*
X215265000Y-27813000D01*
X215265000Y-36957000D02*
X215265000Y-38735000D01*
D13*
X95445000Y-74305000D02*
X98865000Y-74305000D01*
X95445000Y-76825000D02*
X98865000Y-76825000D01*
X95445000Y-74305000D02*
X95445000Y-74485000D01*
X95445000Y-76645000D02*
X95445000Y-76825000D01*
X98865000Y-74305000D02*
X98865000Y-74470000D01*
X98865000Y-76660000D02*
X98865000Y-76825000D01*
X95565000Y-74305000D02*
X95565000Y-74485000D01*
X95565000Y-76645000D02*
X95565000Y-76825000D01*
X95685000Y-74305000D02*
X95685000Y-74485000D01*
X95685000Y-76645000D02*
X95685000Y-76825000D01*
X114495000Y-74305000D02*
X117915000Y-74305000D01*
X114495000Y-76825000D02*
X117915000Y-76825000D01*
X114495000Y-74305000D02*
X114495000Y-74485000D01*
X114495000Y-76645000D02*
X114495000Y-76825000D01*
X117915000Y-74305000D02*
X117915000Y-74470000D01*
X117915000Y-76660000D02*
X117915000Y-76825000D01*
X114615000Y-74305000D02*
X114615000Y-74485000D01*
X114615000Y-76645000D02*
X114615000Y-76825000D01*
X114735000Y-74305000D02*
X114735000Y-74485000D01*
X114735000Y-76645000D02*
X114735000Y-76825000D01*
X133545000Y-74305000D02*
X136965000Y-74305000D01*
X133545000Y-76825000D02*
X136965000Y-76825000D01*
X133545000Y-74305000D02*
X133545000Y-74485000D01*
X133545000Y-76645000D02*
X133545000Y-76825000D01*
X136965000Y-74305000D02*
X136965000Y-74470000D01*
X136965000Y-76660000D02*
X136965000Y-76825000D01*
X133665000Y-74305000D02*
X133665000Y-74485000D01*
X133665000Y-76645000D02*
X133665000Y-76825000D01*
X133785000Y-74305000D02*
X133785000Y-74485000D01*
X133785000Y-76645000D02*
X133785000Y-76825000D01*
X152595000Y-74305000D02*
X156015000Y-74305000D01*
X152595000Y-76825000D02*
X156015000Y-76825000D01*
X152595000Y-74305000D02*
X152595000Y-74485000D01*
X152595000Y-76645000D02*
X152595000Y-76825000D01*
X156015000Y-74305000D02*
X156015000Y-74470000D01*
X156015000Y-76660000D02*
X156015000Y-76825000D01*
X152715000Y-74305000D02*
X152715000Y-74485000D01*
X152715000Y-76645000D02*
X152715000Y-76825000D01*
X152835000Y-74305000D02*
X152835000Y-74485000D01*
X152835000Y-76645000D02*
X152835000Y-76825000D01*
X171645000Y-74305000D02*
X175065000Y-74305000D01*
X171645000Y-76825000D02*
X175065000Y-76825000D01*
X171645000Y-74305000D02*
X171645000Y-74485000D01*
X171645000Y-76645000D02*
X171645000Y-76825000D01*
X175065000Y-74305000D02*
X175065000Y-74470000D01*
X175065000Y-76660000D02*
X175065000Y-76825000D01*
X171765000Y-74305000D02*
X171765000Y-74485000D01*
X171765000Y-76645000D02*
X171765000Y-76825000D01*
X171885000Y-74305000D02*
X171885000Y-74485000D01*
X171885000Y-76645000D02*
X171885000Y-76825000D01*
X190695000Y-74305000D02*
X194115000Y-74305000D01*
X190695000Y-76825000D02*
X194115000Y-76825000D01*
X190695000Y-74305000D02*
X190695000Y-74485000D01*
X190695000Y-76645000D02*
X190695000Y-76825000D01*
X194115000Y-74305000D02*
X194115000Y-74470000D01*
X194115000Y-76660000D02*
X194115000Y-76825000D01*
X190815000Y-74305000D02*
X190815000Y-74485000D01*
X190815000Y-76645000D02*
X190815000Y-76825000D01*
X190935000Y-74305000D02*
X190935000Y-74485000D01*
X190935000Y-76645000D02*
X190935000Y-76825000D01*
X209745000Y-74305000D02*
X213165000Y-74305000D01*
X209745000Y-76825000D02*
X213165000Y-76825000D01*
X209745000Y-74305000D02*
X209745000Y-74485000D01*
X209745000Y-76645000D02*
X209745000Y-76825000D01*
X213165000Y-74305000D02*
X213165000Y-74470000D01*
X213165000Y-76660000D02*
X213165000Y-76825000D01*
X209865000Y-74305000D02*
X209865000Y-74485000D01*
X209865000Y-76645000D02*
X209865000Y-76825000D01*
X209985000Y-74305000D02*
X209985000Y-74485000D01*
X209985000Y-76645000D02*
X209985000Y-76825000D01*
X95445000Y-55255000D02*
X98865000Y-55255000D01*
X95445000Y-57775000D02*
X98865000Y-57775000D01*
X95445000Y-55255000D02*
X95445000Y-55435000D01*
X95445000Y-57595000D02*
X95445000Y-57775000D01*
X98865000Y-55255000D02*
X98865000Y-55420000D01*
X98865000Y-57610000D02*
X98865000Y-57775000D01*
X95565000Y-55255000D02*
X95565000Y-55435000D01*
X95565000Y-57595000D02*
X95565000Y-57775000D01*
X95685000Y-55255000D02*
X95685000Y-55435000D01*
X95685000Y-57595000D02*
X95685000Y-57775000D01*
X114495000Y-55255000D02*
X117915000Y-55255000D01*
X114495000Y-57775000D02*
X117915000Y-57775000D01*
X114495000Y-55255000D02*
X114495000Y-55435000D01*
X114495000Y-57595000D02*
X114495000Y-57775000D01*
X117915000Y-55255000D02*
X117915000Y-55420000D01*
X117915000Y-57610000D02*
X117915000Y-57775000D01*
X114615000Y-55255000D02*
X114615000Y-55435000D01*
X114615000Y-57595000D02*
X114615000Y-57775000D01*
X114735000Y-55255000D02*
X114735000Y-55435000D01*
X114735000Y-57595000D02*
X114735000Y-57775000D01*
X133545000Y-55255000D02*
X136965000Y-55255000D01*
X133545000Y-57775000D02*
X136965000Y-57775000D01*
X133545000Y-55255000D02*
X133545000Y-55435000D01*
X133545000Y-57595000D02*
X133545000Y-57775000D01*
X136965000Y-55255000D02*
X136965000Y-55420000D01*
X136965000Y-57610000D02*
X136965000Y-57775000D01*
X133665000Y-55255000D02*
X133665000Y-55435000D01*
X133665000Y-57595000D02*
X133665000Y-57775000D01*
X133785000Y-55255000D02*
X133785000Y-55435000D01*
X133785000Y-57595000D02*
X133785000Y-57775000D01*
X152595000Y-55255000D02*
X156015000Y-55255000D01*
X152595000Y-57775000D02*
X156015000Y-57775000D01*
X152595000Y-55255000D02*
X152595000Y-55435000D01*
X152595000Y-57595000D02*
X152595000Y-57775000D01*
X156015000Y-55255000D02*
X156015000Y-55420000D01*
X156015000Y-57610000D02*
X156015000Y-57775000D01*
X152715000Y-55255000D02*
X152715000Y-55435000D01*
X152715000Y-57595000D02*
X152715000Y-57775000D01*
X152835000Y-55255000D02*
X152835000Y-55435000D01*
X152835000Y-57595000D02*
X152835000Y-57775000D01*
X171645000Y-55255000D02*
X175065000Y-55255000D01*
X171645000Y-57775000D02*
X175065000Y-57775000D01*
X171645000Y-55255000D02*
X171645000Y-55435000D01*
X171645000Y-57595000D02*
X171645000Y-57775000D01*
X175065000Y-55255000D02*
X175065000Y-55420000D01*
X175065000Y-57610000D02*
X175065000Y-57775000D01*
X171765000Y-55255000D02*
X171765000Y-55435000D01*
X171765000Y-57595000D02*
X171765000Y-57775000D01*
X171885000Y-55255000D02*
X171885000Y-55435000D01*
X171885000Y-57595000D02*
X171885000Y-57775000D01*
X190695000Y-55255000D02*
X194115000Y-55255000D01*
X190695000Y-57775000D02*
X194115000Y-57775000D01*
X190695000Y-55255000D02*
X190695000Y-55435000D01*
X190695000Y-57595000D02*
X190695000Y-57775000D01*
X194115000Y-55255000D02*
X194115000Y-55420000D01*
X194115000Y-57610000D02*
X194115000Y-57775000D01*
X190815000Y-55255000D02*
X190815000Y-55435000D01*
X190815000Y-57595000D02*
X190815000Y-57775000D01*
X190935000Y-55255000D02*
X190935000Y-55435000D01*
X190935000Y-57595000D02*
X190935000Y-57775000D01*
X209745000Y-55255000D02*
X213165000Y-55255000D01*
X209745000Y-57775000D02*
X213165000Y-57775000D01*
X209745000Y-55255000D02*
X209745000Y-55435000D01*
X209745000Y-57595000D02*
X209745000Y-57775000D01*
X213165000Y-55255000D02*
X213165000Y-55420000D01*
X213165000Y-57610000D02*
X213165000Y-57775000D01*
X209865000Y-55255000D02*
X209865000Y-55435000D01*
X209865000Y-57595000D02*
X209865000Y-57775000D01*
X209985000Y-55255000D02*
X209985000Y-55435000D01*
X209985000Y-57595000D02*
X209985000Y-57775000D01*
X190695000Y-26045000D02*
X194115000Y-26045000D01*
X190695000Y-28565000D02*
X194115000Y-28565000D01*
X190695000Y-26045000D02*
X190695000Y-26225000D01*
X190695000Y-28385000D02*
X190695000Y-28565000D01*
X194115000Y-26045000D02*
X194115000Y-26210000D01*
X194115000Y-28400000D02*
X194115000Y-28565000D01*
X190815000Y-26045000D02*
X190815000Y-26225000D01*
X190815000Y-28385000D02*
X190815000Y-28565000D01*
X190935000Y-26045000D02*
X190935000Y-26225000D01*
X190935000Y-28385000D02*
X190935000Y-28565000D01*
X209745000Y-26045000D02*
X213165000Y-26045000D01*
X209745000Y-28565000D02*
X213165000Y-28565000D01*
X209745000Y-26045000D02*
X209745000Y-26225000D01*
X209745000Y-28385000D02*
X209745000Y-28565000D01*
X213165000Y-26045000D02*
X213165000Y-26210000D01*
X213165000Y-28400000D02*
X213165000Y-28565000D01*
X209865000Y-26045000D02*
X209865000Y-26225000D01*
X209865000Y-28385000D02*
X209865000Y-28565000D01*
X209985000Y-26045000D02*
X209985000Y-26225000D01*
X209985000Y-28385000D02*
X209985000Y-28565000D01*
X128280000Y-34730000D02*
X128280000Y-31310000D01*
X130800000Y-34730000D02*
X130800000Y-31310000D01*
X128280000Y-34730000D02*
X128460000Y-34730000D01*
X130620000Y-34730000D02*
X130800000Y-34730000D01*
X128280000Y-31310000D02*
X128445000Y-31310000D01*
X130635000Y-31310000D02*
X130800000Y-31310000D01*
X128280000Y-34610000D02*
X128460000Y-34610000D01*
X130620000Y-34610000D02*
X130800000Y-34610000D01*
X128280000Y-34490000D02*
X128460000Y-34490000D01*
X130620000Y-34490000D02*
X130800000Y-34490000D01*
X130185000Y-29650000D02*
X130185000Y-26230000D01*
X132705000Y-29650000D02*
X132705000Y-26230000D01*
X130185000Y-29650000D02*
X130365000Y-29650000D01*
X132525000Y-29650000D02*
X132705000Y-29650000D01*
X130185000Y-26230000D02*
X130350000Y-26230000D01*
X132540000Y-26230000D02*
X132705000Y-26230000D01*
X130185000Y-29530000D02*
X130365000Y-29530000D01*
X132525000Y-29530000D02*
X132705000Y-29530000D01*
X130185000Y-29410000D02*
X130365000Y-29410000D01*
X132525000Y-29410000D02*
X132705000Y-29410000D01*
X132090000Y-34730000D02*
X132090000Y-31310000D01*
X134610000Y-34730000D02*
X134610000Y-31310000D01*
X132090000Y-34730000D02*
X132270000Y-34730000D01*
X134430000Y-34730000D02*
X134610000Y-34730000D01*
X132090000Y-31310000D02*
X132255000Y-31310000D01*
X134445000Y-31310000D02*
X134610000Y-31310000D01*
X132090000Y-34610000D02*
X132270000Y-34610000D01*
X134430000Y-34610000D02*
X134610000Y-34610000D01*
X132090000Y-34490000D02*
X132270000Y-34490000D01*
X134430000Y-34490000D02*
X134610000Y-34490000D01*
X133995000Y-29650000D02*
X133995000Y-26230000D01*
X136515000Y-29650000D02*
X136515000Y-26230000D01*
X133995000Y-29650000D02*
X134175000Y-29650000D01*
X136335000Y-29650000D02*
X136515000Y-29650000D01*
X133995000Y-26230000D02*
X134160000Y-26230000D01*
X136350000Y-26230000D02*
X136515000Y-26230000D01*
X133995000Y-29530000D02*
X134175000Y-29530000D01*
X136335000Y-29530000D02*
X136515000Y-29530000D01*
X133995000Y-29410000D02*
X134175000Y-29410000D01*
X136335000Y-29410000D02*
X136515000Y-29410000D01*
X135900000Y-34730000D02*
X135900000Y-31310000D01*
X138420000Y-34730000D02*
X138420000Y-31310000D01*
X135900000Y-34730000D02*
X136080000Y-34730000D01*
X138240000Y-34730000D02*
X138420000Y-34730000D01*
X135900000Y-31310000D02*
X136065000Y-31310000D01*
X138255000Y-31310000D02*
X138420000Y-31310000D01*
X135900000Y-34610000D02*
X136080000Y-34610000D01*
X138240000Y-34610000D02*
X138420000Y-34610000D01*
X135900000Y-34490000D02*
X136080000Y-34490000D01*
X138240000Y-34490000D02*
X138420000Y-34490000D01*
X139710000Y-34730000D02*
X139710000Y-31310000D01*
X142230000Y-34730000D02*
X142230000Y-31310000D01*
X139710000Y-34730000D02*
X139890000Y-34730000D01*
X142050000Y-34730000D02*
X142230000Y-34730000D01*
X139710000Y-31310000D02*
X139875000Y-31310000D01*
X142065000Y-31310000D02*
X142230000Y-31310000D01*
X139710000Y-34610000D02*
X139890000Y-34610000D01*
X142050000Y-34610000D02*
X142230000Y-34610000D01*
X139710000Y-34490000D02*
X139890000Y-34490000D01*
X142050000Y-34490000D02*
X142230000Y-34490000D01*
X141615000Y-29650000D02*
X141615000Y-26230000D01*
X144135000Y-29650000D02*
X144135000Y-26230000D01*
X141615000Y-29650000D02*
X141795000Y-29650000D01*
X143955000Y-29650000D02*
X144135000Y-29650000D01*
X141615000Y-26230000D02*
X141780000Y-26230000D01*
X143970000Y-26230000D02*
X144135000Y-26230000D01*
X141615000Y-29530000D02*
X141795000Y-29530000D01*
X143955000Y-29530000D02*
X144135000Y-29530000D01*
X141615000Y-29410000D02*
X141795000Y-29410000D01*
X143955000Y-29410000D02*
X144135000Y-29410000D01*
X143520000Y-34730000D02*
X143520000Y-31310000D01*
X146040000Y-34730000D02*
X146040000Y-31310000D01*
X143520000Y-34730000D02*
X143700000Y-34730000D01*
X145860000Y-34730000D02*
X146040000Y-34730000D01*
X143520000Y-31310000D02*
X143685000Y-31310000D01*
X145875000Y-31310000D02*
X146040000Y-31310000D01*
X143520000Y-34610000D02*
X143700000Y-34610000D01*
X145860000Y-34610000D02*
X146040000Y-34610000D01*
X143520000Y-34490000D02*
X143700000Y-34490000D01*
X145860000Y-34490000D02*
X146040000Y-34490000D01*
X145425000Y-29650000D02*
X145425000Y-26230000D01*
X147945000Y-29650000D02*
X147945000Y-26230000D01*
X145425000Y-29650000D02*
X145605000Y-29650000D01*
X147765000Y-29650000D02*
X147945000Y-29650000D01*
X145425000Y-26230000D02*
X145590000Y-26230000D01*
X147780000Y-26230000D02*
X147945000Y-26230000D01*
X145425000Y-29530000D02*
X145605000Y-29530000D01*
X147765000Y-29530000D02*
X147945000Y-29530000D01*
X145425000Y-29410000D02*
X145605000Y-29410000D01*
X147765000Y-29410000D02*
X147945000Y-29410000D01*
X147330000Y-34730000D02*
X147330000Y-31310000D01*
X149850000Y-34730000D02*
X149850000Y-31310000D01*
X147330000Y-34730000D02*
X147510000Y-34730000D01*
X149670000Y-34730000D02*
X149850000Y-34730000D01*
X147330000Y-31310000D02*
X147495000Y-31310000D01*
X149685000Y-31310000D02*
X149850000Y-31310000D01*
X147330000Y-34610000D02*
X147510000Y-34610000D01*
X149670000Y-34610000D02*
X149850000Y-34610000D01*
X147330000Y-34490000D02*
X147510000Y-34490000D01*
X149670000Y-34490000D02*
X149850000Y-34490000D01*
X149235000Y-29650000D02*
X149235000Y-26230000D01*
X151755000Y-29650000D02*
X151755000Y-26230000D01*
X149235000Y-29650000D02*
X149415000Y-29650000D01*
X151575000Y-29650000D02*
X151755000Y-29650000D01*
X149235000Y-26230000D02*
X149400000Y-26230000D01*
X151590000Y-26230000D02*
X151755000Y-26230000D01*
X149235000Y-29530000D02*
X149415000Y-29530000D01*
X151575000Y-29530000D02*
X151755000Y-29530000D01*
X149235000Y-29410000D02*
X149415000Y-29410000D01*
X151575000Y-29410000D02*
X151755000Y-29410000D01*
X151140000Y-34730000D02*
X151140000Y-31310000D01*
X153660000Y-34730000D02*
X153660000Y-31310000D01*
X151140000Y-34730000D02*
X151320000Y-34730000D01*
X153480000Y-34730000D02*
X153660000Y-34730000D01*
X151140000Y-31310000D02*
X151305000Y-31310000D01*
X153495000Y-31310000D02*
X153660000Y-31310000D01*
X151140000Y-34610000D02*
X151320000Y-34610000D01*
X153480000Y-34610000D02*
X153660000Y-34610000D01*
X151140000Y-34490000D02*
X151320000Y-34490000D01*
X153480000Y-34490000D02*
X153660000Y-34490000D01*
X90365000Y-74305000D02*
X93785000Y-74305000D01*
X90365000Y-76825000D02*
X93785000Y-76825000D01*
X90365000Y-74305000D02*
X90365000Y-74485000D01*
X90365000Y-76645000D02*
X90365000Y-76825000D01*
X93785000Y-74305000D02*
X93785000Y-74470000D01*
X93785000Y-76660000D02*
X93785000Y-76825000D01*
X90485000Y-74305000D02*
X90485000Y-74485000D01*
X90485000Y-76645000D02*
X90485000Y-76825000D01*
X90605000Y-74305000D02*
X90605000Y-74485000D01*
X90605000Y-76645000D02*
X90605000Y-76825000D01*
X109415000Y-74305000D02*
X112835000Y-74305000D01*
X109415000Y-76825000D02*
X112835000Y-76825000D01*
X109415000Y-74305000D02*
X109415000Y-74485000D01*
X109415000Y-76645000D02*
X109415000Y-76825000D01*
X112835000Y-74305000D02*
X112835000Y-74470000D01*
X112835000Y-76660000D02*
X112835000Y-76825000D01*
X109535000Y-74305000D02*
X109535000Y-74485000D01*
X109535000Y-76645000D02*
X109535000Y-76825000D01*
X109655000Y-74305000D02*
X109655000Y-74485000D01*
X109655000Y-76645000D02*
X109655000Y-76825000D01*
X128465000Y-74305000D02*
X131885000Y-74305000D01*
X128465000Y-76825000D02*
X131885000Y-76825000D01*
X128465000Y-74305000D02*
X128465000Y-74485000D01*
X128465000Y-76645000D02*
X128465000Y-76825000D01*
X131885000Y-74305000D02*
X131885000Y-74470000D01*
X131885000Y-76660000D02*
X131885000Y-76825000D01*
X128585000Y-74305000D02*
X128585000Y-74485000D01*
X128585000Y-76645000D02*
X128585000Y-76825000D01*
X128705000Y-74305000D02*
X128705000Y-74485000D01*
X128705000Y-76645000D02*
X128705000Y-76825000D01*
X147515000Y-74305000D02*
X150935000Y-74305000D01*
X147515000Y-76825000D02*
X150935000Y-76825000D01*
X147515000Y-74305000D02*
X147515000Y-74485000D01*
X147515000Y-76645000D02*
X147515000Y-76825000D01*
X150935000Y-74305000D02*
X150935000Y-74470000D01*
X150935000Y-76660000D02*
X150935000Y-76825000D01*
X147635000Y-74305000D02*
X147635000Y-74485000D01*
X147635000Y-76645000D02*
X147635000Y-76825000D01*
X147755000Y-74305000D02*
X147755000Y-74485000D01*
X147755000Y-76645000D02*
X147755000Y-76825000D01*
X166565000Y-74305000D02*
X169985000Y-74305000D01*
X166565000Y-76825000D02*
X169985000Y-76825000D01*
X166565000Y-74305000D02*
X166565000Y-74485000D01*
X166565000Y-76645000D02*
X166565000Y-76825000D01*
X169985000Y-74305000D02*
X169985000Y-74470000D01*
X169985000Y-76660000D02*
X169985000Y-76825000D01*
X166685000Y-74305000D02*
X166685000Y-74485000D01*
X166685000Y-76645000D02*
X166685000Y-76825000D01*
X166805000Y-74305000D02*
X166805000Y-74485000D01*
X166805000Y-76645000D02*
X166805000Y-76825000D01*
X185615000Y-74305000D02*
X189035000Y-74305000D01*
X185615000Y-76825000D02*
X189035000Y-76825000D01*
X185615000Y-74305000D02*
X185615000Y-74485000D01*
X185615000Y-76645000D02*
X185615000Y-76825000D01*
X189035000Y-74305000D02*
X189035000Y-74470000D01*
X189035000Y-76660000D02*
X189035000Y-76825000D01*
X185735000Y-74305000D02*
X185735000Y-74485000D01*
X185735000Y-76645000D02*
X185735000Y-76825000D01*
X185855000Y-74305000D02*
X185855000Y-74485000D01*
X185855000Y-76645000D02*
X185855000Y-76825000D01*
X204665000Y-74305000D02*
X208085000Y-74305000D01*
X204665000Y-76825000D02*
X208085000Y-76825000D01*
X204665000Y-74305000D02*
X204665000Y-74485000D01*
X204665000Y-76645000D02*
X204665000Y-76825000D01*
X208085000Y-74305000D02*
X208085000Y-74470000D01*
X208085000Y-76660000D02*
X208085000Y-76825000D01*
X204785000Y-74305000D02*
X204785000Y-74485000D01*
X204785000Y-76645000D02*
X204785000Y-76825000D01*
X204905000Y-74305000D02*
X204905000Y-74485000D01*
X204905000Y-76645000D02*
X204905000Y-76825000D01*
X90365000Y-55255000D02*
X93785000Y-55255000D01*
X90365000Y-57775000D02*
X93785000Y-57775000D01*
X90365000Y-55255000D02*
X90365000Y-55435000D01*
X90365000Y-57595000D02*
X90365000Y-57775000D01*
X93785000Y-55255000D02*
X93785000Y-55420000D01*
X93785000Y-57610000D02*
X93785000Y-57775000D01*
X90485000Y-55255000D02*
X90485000Y-55435000D01*
X90485000Y-57595000D02*
X90485000Y-57775000D01*
X90605000Y-55255000D02*
X90605000Y-55435000D01*
X90605000Y-57595000D02*
X90605000Y-57775000D01*
X109415000Y-55255000D02*
X112835000Y-55255000D01*
X109415000Y-57775000D02*
X112835000Y-57775000D01*
X109415000Y-55255000D02*
X109415000Y-55435000D01*
X109415000Y-57595000D02*
X109415000Y-57775000D01*
X112835000Y-55255000D02*
X112835000Y-55420000D01*
X112835000Y-57610000D02*
X112835000Y-57775000D01*
X109535000Y-55255000D02*
X109535000Y-55435000D01*
X109535000Y-57595000D02*
X109535000Y-57775000D01*
X109655000Y-55255000D02*
X109655000Y-55435000D01*
X109655000Y-57595000D02*
X109655000Y-57775000D01*
X128465000Y-55255000D02*
X131885000Y-55255000D01*
X128465000Y-57775000D02*
X131885000Y-57775000D01*
X128465000Y-55255000D02*
X128465000Y-55435000D01*
X128465000Y-57595000D02*
X128465000Y-57775000D01*
X131885000Y-55255000D02*
X131885000Y-55420000D01*
X131885000Y-57610000D02*
X131885000Y-57775000D01*
X128585000Y-55255000D02*
X128585000Y-55435000D01*
X128585000Y-57595000D02*
X128585000Y-57775000D01*
X128705000Y-55255000D02*
X128705000Y-55435000D01*
X128705000Y-57595000D02*
X128705000Y-57775000D01*
X147515000Y-55255000D02*
X150935000Y-55255000D01*
X147515000Y-57775000D02*
X150935000Y-57775000D01*
X147515000Y-55255000D02*
X147515000Y-55435000D01*
X147515000Y-57595000D02*
X147515000Y-57775000D01*
X150935000Y-55255000D02*
X150935000Y-55420000D01*
X150935000Y-57610000D02*
X150935000Y-57775000D01*
X147635000Y-55255000D02*
X147635000Y-55435000D01*
X147635000Y-57595000D02*
X147635000Y-57775000D01*
X147755000Y-55255000D02*
X147755000Y-55435000D01*
X147755000Y-57595000D02*
X147755000Y-57775000D01*
X166565000Y-55255000D02*
X169985000Y-55255000D01*
X166565000Y-57775000D02*
X169985000Y-57775000D01*
X166565000Y-55255000D02*
X166565000Y-55435000D01*
X166565000Y-57595000D02*
X166565000Y-57775000D01*
X169985000Y-55255000D02*
X169985000Y-55420000D01*
X169985000Y-57610000D02*
X169985000Y-57775000D01*
X166685000Y-55255000D02*
X166685000Y-55435000D01*
X166685000Y-57595000D02*
X166685000Y-57775000D01*
X166805000Y-55255000D02*
X166805000Y-55435000D01*
X166805000Y-57595000D02*
X166805000Y-57775000D01*
X185615000Y-55255000D02*
X189035000Y-55255000D01*
X185615000Y-57775000D02*
X189035000Y-57775000D01*
X185615000Y-55255000D02*
X185615000Y-55435000D01*
X185615000Y-57595000D02*
X185615000Y-57775000D01*
X189035000Y-55255000D02*
X189035000Y-55420000D01*
X189035000Y-57610000D02*
X189035000Y-57775000D01*
X185735000Y-55255000D02*
X185735000Y-55435000D01*
X185735000Y-57595000D02*
X185735000Y-57775000D01*
X185855000Y-55255000D02*
X185855000Y-55435000D01*
X185855000Y-57595000D02*
X185855000Y-57775000D01*
X204665000Y-55255000D02*
X208085000Y-55255000D01*
X204665000Y-57775000D02*
X208085000Y-57775000D01*
X204665000Y-55255000D02*
X204665000Y-55435000D01*
X204665000Y-57595000D02*
X204665000Y-57775000D01*
X208085000Y-55255000D02*
X208085000Y-55420000D01*
X208085000Y-57610000D02*
X208085000Y-57775000D01*
X204785000Y-55255000D02*
X204785000Y-55435000D01*
X204785000Y-57595000D02*
X204785000Y-57775000D01*
X204905000Y-55255000D02*
X204905000Y-55435000D01*
X204905000Y-57595000D02*
X204905000Y-57775000D01*
X185615000Y-26045000D02*
X189035000Y-26045000D01*
X185615000Y-28565000D02*
X189035000Y-28565000D01*
X185615000Y-26045000D02*
X185615000Y-26225000D01*
X185615000Y-28385000D02*
X185615000Y-28565000D01*
X189035000Y-26045000D02*
X189035000Y-26210000D01*
X189035000Y-28400000D02*
X189035000Y-28565000D01*
X185735000Y-26045000D02*
X185735000Y-26225000D01*
X185735000Y-28385000D02*
X185735000Y-28565000D01*
X185855000Y-26045000D02*
X185855000Y-26225000D01*
X185855000Y-28385000D02*
X185855000Y-28565000D01*
X204665000Y-26045000D02*
X208085000Y-26045000D01*
X204665000Y-28565000D02*
X208085000Y-28565000D01*
X204665000Y-26045000D02*
X204665000Y-26225000D01*
X204665000Y-28385000D02*
X204665000Y-28565000D01*
X208085000Y-26045000D02*
X208085000Y-26210000D01*
X208085000Y-28400000D02*
X208085000Y-28565000D01*
X204785000Y-26045000D02*
X204785000Y-26225000D01*
X204785000Y-28385000D02*
X204785000Y-28565000D01*
X204905000Y-26045000D02*
X204905000Y-26225000D01*
X204905000Y-28385000D02*
X204905000Y-28565000D01*
D14*
X175415000Y-27235000D02*
G75*
G03X175415000Y-27235000I-500000J0D01*
G01*
X167215000Y-27235000D02*
G75*
G03X167215000Y-27235000I-500000J0D01*
G01*
X167215000Y-37435000D02*
G75*
G03X167215000Y-37435000I-500000J0D01*
G01*
X175415000Y-37435000D02*
G75*
G03X175415000Y-37435000I-500000J0D01*
G01*
X177015000Y-26585000D02*
X177015000Y-38185000D01*
X164615000Y-38185000D02*
X164615000Y-26585000D01*
X176215000Y-38985000D02*
X165415000Y-38985000D01*
X176215000Y-25785000D02*
X165415000Y-25785000D01*
X176215000Y-38985000D02*
G75*
G03X177015000Y-38185000I0J800000D01*
G01*
X177015000Y-26585000D02*
G75*
G03X176215000Y-25785000I-800000J0D01*
G01*
X165415000Y-25785000D02*
G75*
G03X164615000Y-26585000I0J-800000D01*
G01*
X164615000Y-38185000D02*
G75*
G03X165415000Y-38985000I800000J0D01*
G01*
X173415000Y-33885000D02*
X168215000Y-33885000D01*
X173815000Y-32385000D02*
G75*
G03X173815000Y-32385000I-3000000J0D01*
G01*
D11*
X187690000Y-49950000D02*
X192190000Y-49950000D01*
X186440000Y-45950000D02*
X186440000Y-47450000D01*
X192190000Y-43450000D02*
X187690000Y-43450000D01*
X193440000Y-47450000D02*
X193440000Y-45950000D01*
X206740000Y-49950000D02*
X211240000Y-49950000D01*
X205490000Y-45950000D02*
X205490000Y-47450000D01*
X211240000Y-43450000D02*
X206740000Y-43450000D01*
X212490000Y-47450000D02*
X212490000Y-45950000D01*
D13*
X90505000Y-50620000D02*
X90735000Y-50620000D01*
X86835000Y-51140000D02*
X86835000Y-43420000D01*
X86835000Y-43420000D02*
X90735000Y-43420000D01*
X93845000Y-51140000D02*
X93845000Y-50620000D01*
X86835000Y-51140000D02*
X90735000Y-51140000D01*
X90505000Y-43940000D02*
X90735000Y-43940000D01*
X93335000Y-50620000D02*
X93845000Y-50620000D01*
X93335000Y-51140000D02*
X93845000Y-51140000D01*
X90505000Y-44480000D02*
X90505000Y-43940000D01*
X93335000Y-43940000D02*
X93845000Y-43940000D01*
X93845000Y-43940000D02*
X93845000Y-43420000D01*
X93335000Y-43420000D02*
X93845000Y-43420000D01*
X90505000Y-50620000D02*
X90505000Y-50080000D01*
X90505000Y-48980000D02*
X90505000Y-45580000D01*
D14*
X118265000Y-27235000D02*
G75*
G03X118265000Y-27235000I-500000J0D01*
G01*
X110065000Y-27235000D02*
G75*
G03X110065000Y-27235000I-500000J0D01*
G01*
X110065000Y-37435000D02*
G75*
G03X110065000Y-37435000I-500000J0D01*
G01*
X118265000Y-37435000D02*
G75*
G03X118265000Y-37435000I-500000J0D01*
G01*
X119865000Y-26585000D02*
X119865000Y-38185000D01*
X107465000Y-38185000D02*
X107465000Y-26585000D01*
X119065000Y-38985000D02*
X108265000Y-38985000D01*
X119065000Y-25785000D02*
X108265000Y-25785000D01*
X119065000Y-38985000D02*
G75*
G03X119865000Y-38185000I0J800000D01*
G01*
X119865000Y-26585000D02*
G75*
G03X119065000Y-25785000I-800000J0D01*
G01*
X108265000Y-25785000D02*
G75*
G03X107465000Y-26585000I0J-800000D01*
G01*
X107465000Y-38185000D02*
G75*
G03X108265000Y-38985000I800000J0D01*
G01*
X116265000Y-33885000D02*
X111065000Y-33885000D01*
X116665000Y-32385000D02*
G75*
G03X116665000Y-32385000I-3000000J0D01*
G01*
X99215000Y-27235000D02*
G75*
G03X99215000Y-27235000I-500000J0D01*
G01*
X91015000Y-27235000D02*
G75*
G03X91015000Y-27235000I-500000J0D01*
G01*
X91015000Y-37435000D02*
G75*
G03X91015000Y-37435000I-500000J0D01*
G01*
X99215000Y-37435000D02*
G75*
G03X99215000Y-37435000I-500000J0D01*
G01*
X100815000Y-26585000D02*
X100815000Y-38185000D01*
X88415000Y-38185000D02*
X88415000Y-26585000D01*
X100015000Y-38985000D02*
X89215000Y-38985000D01*
X100015000Y-25785000D02*
X89215000Y-25785000D01*
X100015000Y-38985000D02*
G75*
G03X100815000Y-38185000I0J800000D01*
G01*
X100815000Y-26585000D02*
G75*
G03X100015000Y-25785000I-800000J0D01*
G01*
X89215000Y-25785000D02*
G75*
G03X88415000Y-26585000I0J-800000D01*
G01*
X88415000Y-38185000D02*
G75*
G03X89215000Y-38985000I800000J0D01*
G01*
X97215000Y-33885000D02*
X92015000Y-33885000D01*
X97615000Y-32385000D02*
G75*
G03X97615000Y-32385000I-3000000J0D01*
G01*
D13*
X215145000Y-38100000D02*
X215145000Y-45840000D01*
X215145000Y-45840000D02*
X217925000Y-45840000D01*
X217925000Y-45840000D02*
X217925000Y-38100000D01*
X217925000Y-38100000D02*
X215145000Y-38100000D01*
X215145000Y-36830000D02*
X215145000Y-35440000D01*
X215145000Y-35440000D02*
X216535000Y-35440000D01*
X215145000Y-51435000D02*
X215145000Y-59175000D01*
X215145000Y-59175000D02*
X217925000Y-59175000D01*
X217925000Y-59175000D02*
X217925000Y-51435000D01*
X217925000Y-51435000D02*
X215145000Y-51435000D01*
X215145000Y-50165000D02*
X215145000Y-48775000D01*
X215145000Y-48775000D02*
X216535000Y-48775000D01*
X215145000Y-69215000D02*
X215145000Y-76955000D01*
X215145000Y-76955000D02*
X217925000Y-76955000D01*
X217925000Y-76955000D02*
X217925000Y-69215000D01*
X217925000Y-69215000D02*
X215145000Y-69215000D01*
X215145000Y-67945000D02*
X215145000Y-66555000D01*
X215145000Y-66555000D02*
X216535000Y-66555000D01*
D11*
X122007381Y-70611905D02*
X122816905Y-70611905D01*
X122912143Y-70564286D01*
X122959762Y-70516667D01*
X123007381Y-70421429D01*
X123007381Y-70230952D01*
X122959762Y-70135714D01*
X122912143Y-70088095D01*
X122816905Y-70040476D01*
X122007381Y-70040476D01*
X122007381Y-69659524D02*
X122007381Y-69040476D01*
X122388333Y-69373810D01*
X122388333Y-69230952D01*
X122435952Y-69135714D01*
X122483571Y-69088095D01*
X122578810Y-69040476D01*
X122816905Y-69040476D01*
X122912143Y-69088095D01*
X122959762Y-69135714D01*
X123007381Y-69230952D01*
X123007381Y-69516667D01*
X122959762Y-69611905D01*
X122912143Y-69659524D01*
D15*
X93490143Y-78044524D02*
X93490143Y-76774524D01*
X94361000Y-78044524D02*
X93707857Y-77318810D01*
X94361000Y-76774524D02*
X93490143Y-77500238D01*
X95812429Y-78044524D02*
X94941572Y-78044524D01*
X95377000Y-78044524D02*
X95377000Y-76774524D01*
X95231857Y-76955952D01*
X95086715Y-77076905D01*
X94941572Y-77137381D01*
X112540143Y-78044524D02*
X112540143Y-76774524D01*
X113411000Y-78044524D02*
X112757857Y-77318810D01*
X113411000Y-76774524D02*
X112540143Y-77500238D01*
X113991572Y-76895476D02*
X114064143Y-76835000D01*
X114209286Y-76774524D01*
X114572143Y-76774524D01*
X114717286Y-76835000D01*
X114789857Y-76895476D01*
X114862429Y-77016429D01*
X114862429Y-77137381D01*
X114789857Y-77318810D01*
X113919000Y-78044524D01*
X114862429Y-78044524D01*
X131590143Y-78044524D02*
X131590143Y-76774524D01*
X132461000Y-78044524D02*
X131807857Y-77318810D01*
X132461000Y-76774524D02*
X131590143Y-77500238D01*
X132969000Y-76774524D02*
X133912429Y-76774524D01*
X133404429Y-77258333D01*
X133622143Y-77258333D01*
X133767286Y-77318810D01*
X133839857Y-77379286D01*
X133912429Y-77500238D01*
X133912429Y-77802619D01*
X133839857Y-77923571D01*
X133767286Y-77984048D01*
X133622143Y-78044524D01*
X133186715Y-78044524D01*
X133041572Y-77984048D01*
X132969000Y-77923571D01*
X150640143Y-78044524D02*
X150640143Y-76774524D01*
X151511000Y-78044524D02*
X150857857Y-77318810D01*
X151511000Y-76774524D02*
X150640143Y-77500238D01*
X152817286Y-77197857D02*
X152817286Y-78044524D01*
X152454429Y-76714048D02*
X152091572Y-77621190D01*
X153035000Y-77621190D01*
X169690143Y-78044524D02*
X169690143Y-76774524D01*
X170561000Y-78044524D02*
X169907857Y-77318810D01*
X170561000Y-76774524D02*
X169690143Y-77500238D01*
X171939857Y-76774524D02*
X171214143Y-76774524D01*
X171141572Y-77379286D01*
X171214143Y-77318810D01*
X171359286Y-77258333D01*
X171722143Y-77258333D01*
X171867286Y-77318810D01*
X171939857Y-77379286D01*
X172012429Y-77500238D01*
X172012429Y-77802619D01*
X171939857Y-77923571D01*
X171867286Y-77984048D01*
X171722143Y-78044524D01*
X171359286Y-78044524D01*
X171214143Y-77984048D01*
X171141572Y-77923571D01*
X188740143Y-78044524D02*
X188740143Y-76774524D01*
X189611000Y-78044524D02*
X188957857Y-77318810D01*
X189611000Y-76774524D02*
X188740143Y-77500238D01*
X190917286Y-76774524D02*
X190627000Y-76774524D01*
X190481857Y-76835000D01*
X190409286Y-76895476D01*
X190264143Y-77076905D01*
X190191572Y-77318810D01*
X190191572Y-77802619D01*
X190264143Y-77923571D01*
X190336715Y-77984048D01*
X190481857Y-78044524D01*
X190772143Y-78044524D01*
X190917286Y-77984048D01*
X190989857Y-77923571D01*
X191062429Y-77802619D01*
X191062429Y-77500238D01*
X190989857Y-77379286D01*
X190917286Y-77318810D01*
X190772143Y-77258333D01*
X190481857Y-77258333D01*
X190336715Y-77318810D01*
X190264143Y-77379286D01*
X190191572Y-77500238D01*
X207790143Y-78044524D02*
X207790143Y-76774524D01*
X208661000Y-78044524D02*
X208007857Y-77318810D01*
X208661000Y-76774524D02*
X207790143Y-77500238D01*
X209169000Y-76774524D02*
X210185000Y-76774524D01*
X209531857Y-78044524D01*
X93490143Y-58994524D02*
X93490143Y-57724524D01*
X94361000Y-58994524D02*
X93707857Y-58268810D01*
X94361000Y-57724524D02*
X93490143Y-58450238D01*
X95231857Y-58268810D02*
X95086715Y-58208333D01*
X95014143Y-58147857D01*
X94941572Y-58026905D01*
X94941572Y-57966429D01*
X95014143Y-57845476D01*
X95086715Y-57785000D01*
X95231857Y-57724524D01*
X95522143Y-57724524D01*
X95667286Y-57785000D01*
X95739857Y-57845476D01*
X95812429Y-57966429D01*
X95812429Y-58026905D01*
X95739857Y-58147857D01*
X95667286Y-58208333D01*
X95522143Y-58268810D01*
X95231857Y-58268810D01*
X95086715Y-58329286D01*
X95014143Y-58389762D01*
X94941572Y-58510714D01*
X94941572Y-58752619D01*
X95014143Y-58873571D01*
X95086715Y-58934048D01*
X95231857Y-58994524D01*
X95522143Y-58994524D01*
X95667286Y-58934048D01*
X95739857Y-58873571D01*
X95812429Y-58752619D01*
X95812429Y-58510714D01*
X95739857Y-58389762D01*
X95667286Y-58329286D01*
X95522143Y-58268810D01*
X112540143Y-58994524D02*
X112540143Y-57724524D01*
X113411000Y-58994524D02*
X112757857Y-58268810D01*
X113411000Y-57724524D02*
X112540143Y-58450238D01*
X114136715Y-58994524D02*
X114427000Y-58994524D01*
X114572143Y-58934048D01*
X114644715Y-58873571D01*
X114789857Y-58692143D01*
X114862429Y-58450238D01*
X114862429Y-57966429D01*
X114789857Y-57845476D01*
X114717286Y-57785000D01*
X114572143Y-57724524D01*
X114281857Y-57724524D01*
X114136715Y-57785000D01*
X114064143Y-57845476D01*
X113991572Y-57966429D01*
X113991572Y-58268810D01*
X114064143Y-58389762D01*
X114136715Y-58450238D01*
X114281857Y-58510714D01*
X114572143Y-58510714D01*
X114717286Y-58450238D01*
X114789857Y-58389762D01*
X114862429Y-58268810D01*
X130864428Y-58994524D02*
X130864428Y-57724524D01*
X131735285Y-58994524D02*
X131082142Y-58268810D01*
X131735285Y-57724524D02*
X130864428Y-58450238D01*
X133186714Y-58994524D02*
X132315857Y-58994524D01*
X132751285Y-58994524D02*
X132751285Y-57724524D01*
X132606142Y-57905952D01*
X132461000Y-58026905D01*
X132315857Y-58087381D01*
X134130143Y-57724524D02*
X134275286Y-57724524D01*
X134420429Y-57785000D01*
X134493000Y-57845476D01*
X134565571Y-57966429D01*
X134638143Y-58208333D01*
X134638143Y-58510714D01*
X134565571Y-58752619D01*
X134493000Y-58873571D01*
X134420429Y-58934048D01*
X134275286Y-58994524D01*
X134130143Y-58994524D01*
X133985000Y-58934048D01*
X133912429Y-58873571D01*
X133839857Y-58752619D01*
X133767286Y-58510714D01*
X133767286Y-58208333D01*
X133839857Y-57966429D01*
X133912429Y-57845476D01*
X133985000Y-57785000D01*
X134130143Y-57724524D01*
X149914428Y-58994524D02*
X149914428Y-57724524D01*
X150785285Y-58994524D02*
X150132142Y-58268810D01*
X150785285Y-57724524D02*
X149914428Y-58450238D01*
X152236714Y-58994524D02*
X151365857Y-58994524D01*
X151801285Y-58994524D02*
X151801285Y-57724524D01*
X151656142Y-57905952D01*
X151511000Y-58026905D01*
X151365857Y-58087381D01*
X153688143Y-58994524D02*
X152817286Y-58994524D01*
X153252714Y-58994524D02*
X153252714Y-57724524D01*
X153107571Y-57905952D01*
X152962429Y-58026905D01*
X152817286Y-58087381D01*
X168964428Y-58994524D02*
X168964428Y-57724524D01*
X169835285Y-58994524D02*
X169182142Y-58268810D01*
X169835285Y-57724524D02*
X168964428Y-58450238D01*
X171286714Y-58994524D02*
X170415857Y-58994524D01*
X170851285Y-58994524D02*
X170851285Y-57724524D01*
X170706142Y-57905952D01*
X170561000Y-58026905D01*
X170415857Y-58087381D01*
X171867286Y-57845476D02*
X171939857Y-57785000D01*
X172085000Y-57724524D01*
X172447857Y-57724524D01*
X172593000Y-57785000D01*
X172665571Y-57845476D01*
X172738143Y-57966429D01*
X172738143Y-58087381D01*
X172665571Y-58268810D01*
X171794714Y-58994524D01*
X172738143Y-58994524D01*
X188014428Y-58994524D02*
X188014428Y-57724524D01*
X188885285Y-58994524D02*
X188232142Y-58268810D01*
X188885285Y-57724524D02*
X188014428Y-58450238D01*
X190336714Y-58994524D02*
X189465857Y-58994524D01*
X189901285Y-58994524D02*
X189901285Y-57724524D01*
X189756142Y-57905952D01*
X189611000Y-58026905D01*
X189465857Y-58087381D01*
X190844714Y-57724524D02*
X191788143Y-57724524D01*
X191280143Y-58208333D01*
X191497857Y-58208333D01*
X191643000Y-58268810D01*
X191715571Y-58329286D01*
X191788143Y-58450238D01*
X191788143Y-58752619D01*
X191715571Y-58873571D01*
X191643000Y-58934048D01*
X191497857Y-58994524D01*
X191062429Y-58994524D01*
X190917286Y-58934048D01*
X190844714Y-58873571D01*
X207064428Y-58994524D02*
X207064428Y-57724524D01*
X207935285Y-58994524D02*
X207282142Y-58268810D01*
X207935285Y-57724524D02*
X207064428Y-58450238D01*
X209386714Y-58994524D02*
X208515857Y-58994524D01*
X208951285Y-58994524D02*
X208951285Y-57724524D01*
X208806142Y-57905952D01*
X208661000Y-58026905D01*
X208515857Y-58087381D01*
X210693000Y-58147857D02*
X210693000Y-58994524D01*
X210330143Y-57664048D02*
X209967286Y-58571190D01*
X210910714Y-58571190D01*
X188014428Y-29784524D02*
X188014428Y-28514524D01*
X188885285Y-29784524D02*
X188232142Y-29058810D01*
X188885285Y-28514524D02*
X188014428Y-29240238D01*
X190336714Y-29784524D02*
X189465857Y-29784524D01*
X189901285Y-29784524D02*
X189901285Y-28514524D01*
X189756142Y-28695952D01*
X189611000Y-28816905D01*
X189465857Y-28877381D01*
X191715571Y-28514524D02*
X190989857Y-28514524D01*
X190917286Y-29119286D01*
X190989857Y-29058810D01*
X191135000Y-28998333D01*
X191497857Y-28998333D01*
X191643000Y-29058810D01*
X191715571Y-29119286D01*
X191788143Y-29240238D01*
X191788143Y-29542619D01*
X191715571Y-29663571D01*
X191643000Y-29724048D01*
X191497857Y-29784524D01*
X191135000Y-29784524D01*
X190989857Y-29724048D01*
X190917286Y-29663571D01*
X207064428Y-29784524D02*
X207064428Y-28514524D01*
X207935285Y-29784524D02*
X207282142Y-29058810D01*
X207935285Y-28514524D02*
X207064428Y-29240238D01*
X209386714Y-29784524D02*
X208515857Y-29784524D01*
X208951285Y-29784524D02*
X208951285Y-28514524D01*
X208806142Y-28695952D01*
X208661000Y-28816905D01*
X208515857Y-28877381D01*
X210693000Y-28514524D02*
X210402714Y-28514524D01*
X210257571Y-28575000D01*
X210185000Y-28635476D01*
X210039857Y-28816905D01*
X209967286Y-29058810D01*
X209967286Y-29542619D01*
X210039857Y-29663571D01*
X210112429Y-29724048D01*
X210257571Y-29784524D01*
X210547857Y-29784524D01*
X210693000Y-29724048D01*
X210765571Y-29663571D01*
X210838143Y-29542619D01*
X210838143Y-29240238D01*
X210765571Y-29119286D01*
X210693000Y-29058810D01*
X210547857Y-28998333D01*
X210257571Y-28998333D01*
X210112429Y-29058810D01*
X210039857Y-29119286D01*
X209967286Y-29240238D01*
D11*
X95535953Y-73757381D02*
X95059762Y-73757381D01*
X95059762Y-72757381D01*
X95869286Y-73233571D02*
X96202620Y-73233571D01*
X96345477Y-73757381D02*
X95869286Y-73757381D01*
X95869286Y-72757381D01*
X96345477Y-72757381D01*
X96774048Y-73757381D02*
X96774048Y-72757381D01*
X97012143Y-72757381D01*
X97155001Y-72805000D01*
X97250239Y-72900238D01*
X97297858Y-72995476D01*
X97345477Y-73185952D01*
X97345477Y-73328810D01*
X97297858Y-73519286D01*
X97250239Y-73614524D01*
X97155001Y-73709762D01*
X97012143Y-73757381D01*
X96774048Y-73757381D01*
X98297858Y-72805000D02*
X98202620Y-72757381D01*
X98059763Y-72757381D01*
X97916905Y-72805000D01*
X97821667Y-72900238D01*
X97774048Y-72995476D01*
X97726429Y-73185952D01*
X97726429Y-73328810D01*
X97774048Y-73519286D01*
X97821667Y-73614524D01*
X97916905Y-73709762D01*
X98059763Y-73757381D01*
X98155001Y-73757381D01*
X98297858Y-73709762D01*
X98345477Y-73662143D01*
X98345477Y-73328810D01*
X98155001Y-73328810D01*
X99297858Y-73757381D02*
X98726429Y-73757381D01*
X99012143Y-73757381D02*
X99012143Y-72757381D01*
X98916905Y-72900238D01*
X98821667Y-72995476D01*
X98726429Y-73043095D01*
X114585953Y-73757381D02*
X114109762Y-73757381D01*
X114109762Y-72757381D01*
X114919286Y-73233571D02*
X115252620Y-73233571D01*
X115395477Y-73757381D02*
X114919286Y-73757381D01*
X114919286Y-72757381D01*
X115395477Y-72757381D01*
X115824048Y-73757381D02*
X115824048Y-72757381D01*
X116062143Y-72757381D01*
X116205001Y-72805000D01*
X116300239Y-72900238D01*
X116347858Y-72995476D01*
X116395477Y-73185952D01*
X116395477Y-73328810D01*
X116347858Y-73519286D01*
X116300239Y-73614524D01*
X116205001Y-73709762D01*
X116062143Y-73757381D01*
X115824048Y-73757381D01*
X117347858Y-72805000D02*
X117252620Y-72757381D01*
X117109763Y-72757381D01*
X116966905Y-72805000D01*
X116871667Y-72900238D01*
X116824048Y-72995476D01*
X116776429Y-73185952D01*
X116776429Y-73328810D01*
X116824048Y-73519286D01*
X116871667Y-73614524D01*
X116966905Y-73709762D01*
X117109763Y-73757381D01*
X117205001Y-73757381D01*
X117347858Y-73709762D01*
X117395477Y-73662143D01*
X117395477Y-73328810D01*
X117205001Y-73328810D01*
X117776429Y-72852619D02*
X117824048Y-72805000D01*
X117919286Y-72757381D01*
X118157382Y-72757381D01*
X118252620Y-72805000D01*
X118300239Y-72852619D01*
X118347858Y-72947857D01*
X118347858Y-73043095D01*
X118300239Y-73185952D01*
X117728810Y-73757381D01*
X118347858Y-73757381D01*
X133635953Y-73757381D02*
X133159762Y-73757381D01*
X133159762Y-72757381D01*
X133969286Y-73233571D02*
X134302620Y-73233571D01*
X134445477Y-73757381D02*
X133969286Y-73757381D01*
X133969286Y-72757381D01*
X134445477Y-72757381D01*
X134874048Y-73757381D02*
X134874048Y-72757381D01*
X135112143Y-72757381D01*
X135255001Y-72805000D01*
X135350239Y-72900238D01*
X135397858Y-72995476D01*
X135445477Y-73185952D01*
X135445477Y-73328810D01*
X135397858Y-73519286D01*
X135350239Y-73614524D01*
X135255001Y-73709762D01*
X135112143Y-73757381D01*
X134874048Y-73757381D01*
X136397858Y-72805000D02*
X136302620Y-72757381D01*
X136159763Y-72757381D01*
X136016905Y-72805000D01*
X135921667Y-72900238D01*
X135874048Y-72995476D01*
X135826429Y-73185952D01*
X135826429Y-73328810D01*
X135874048Y-73519286D01*
X135921667Y-73614524D01*
X136016905Y-73709762D01*
X136159763Y-73757381D01*
X136255001Y-73757381D01*
X136397858Y-73709762D01*
X136445477Y-73662143D01*
X136445477Y-73328810D01*
X136255001Y-73328810D01*
X136778810Y-72757381D02*
X137397858Y-72757381D01*
X137064524Y-73138333D01*
X137207382Y-73138333D01*
X137302620Y-73185952D01*
X137350239Y-73233571D01*
X137397858Y-73328810D01*
X137397858Y-73566905D01*
X137350239Y-73662143D01*
X137302620Y-73709762D01*
X137207382Y-73757381D01*
X136921667Y-73757381D01*
X136826429Y-73709762D01*
X136778810Y-73662143D01*
X152685953Y-73757381D02*
X152209762Y-73757381D01*
X152209762Y-72757381D01*
X153019286Y-73233571D02*
X153352620Y-73233571D01*
X153495477Y-73757381D02*
X153019286Y-73757381D01*
X153019286Y-72757381D01*
X153495477Y-72757381D01*
X153924048Y-73757381D02*
X153924048Y-72757381D01*
X154162143Y-72757381D01*
X154305001Y-72805000D01*
X154400239Y-72900238D01*
X154447858Y-72995476D01*
X154495477Y-73185952D01*
X154495477Y-73328810D01*
X154447858Y-73519286D01*
X154400239Y-73614524D01*
X154305001Y-73709762D01*
X154162143Y-73757381D01*
X153924048Y-73757381D01*
X155447858Y-72805000D02*
X155352620Y-72757381D01*
X155209763Y-72757381D01*
X155066905Y-72805000D01*
X154971667Y-72900238D01*
X154924048Y-72995476D01*
X154876429Y-73185952D01*
X154876429Y-73328810D01*
X154924048Y-73519286D01*
X154971667Y-73614524D01*
X155066905Y-73709762D01*
X155209763Y-73757381D01*
X155305001Y-73757381D01*
X155447858Y-73709762D01*
X155495477Y-73662143D01*
X155495477Y-73328810D01*
X155305001Y-73328810D01*
X156352620Y-73090714D02*
X156352620Y-73757381D01*
X156114524Y-72709762D02*
X155876429Y-73424048D01*
X156495477Y-73424048D01*
X171735953Y-73757381D02*
X171259762Y-73757381D01*
X171259762Y-72757381D01*
X172069286Y-73233571D02*
X172402620Y-73233571D01*
X172545477Y-73757381D02*
X172069286Y-73757381D01*
X172069286Y-72757381D01*
X172545477Y-72757381D01*
X172974048Y-73757381D02*
X172974048Y-72757381D01*
X173212143Y-72757381D01*
X173355001Y-72805000D01*
X173450239Y-72900238D01*
X173497858Y-72995476D01*
X173545477Y-73185952D01*
X173545477Y-73328810D01*
X173497858Y-73519286D01*
X173450239Y-73614524D01*
X173355001Y-73709762D01*
X173212143Y-73757381D01*
X172974048Y-73757381D01*
X174497858Y-72805000D02*
X174402620Y-72757381D01*
X174259763Y-72757381D01*
X174116905Y-72805000D01*
X174021667Y-72900238D01*
X173974048Y-72995476D01*
X173926429Y-73185952D01*
X173926429Y-73328810D01*
X173974048Y-73519286D01*
X174021667Y-73614524D01*
X174116905Y-73709762D01*
X174259763Y-73757381D01*
X174355001Y-73757381D01*
X174497858Y-73709762D01*
X174545477Y-73662143D01*
X174545477Y-73328810D01*
X174355001Y-73328810D01*
X175450239Y-72757381D02*
X174974048Y-72757381D01*
X174926429Y-73233571D01*
X174974048Y-73185952D01*
X175069286Y-73138333D01*
X175307382Y-73138333D01*
X175402620Y-73185952D01*
X175450239Y-73233571D01*
X175497858Y-73328810D01*
X175497858Y-73566905D01*
X175450239Y-73662143D01*
X175402620Y-73709762D01*
X175307382Y-73757381D01*
X175069286Y-73757381D01*
X174974048Y-73709762D01*
X174926429Y-73662143D01*
X190785953Y-73757381D02*
X190309762Y-73757381D01*
X190309762Y-72757381D01*
X191119286Y-73233571D02*
X191452620Y-73233571D01*
X191595477Y-73757381D02*
X191119286Y-73757381D01*
X191119286Y-72757381D01*
X191595477Y-72757381D01*
X192024048Y-73757381D02*
X192024048Y-72757381D01*
X192262143Y-72757381D01*
X192405001Y-72805000D01*
X192500239Y-72900238D01*
X192547858Y-72995476D01*
X192595477Y-73185952D01*
X192595477Y-73328810D01*
X192547858Y-73519286D01*
X192500239Y-73614524D01*
X192405001Y-73709762D01*
X192262143Y-73757381D01*
X192024048Y-73757381D01*
X193547858Y-72805000D02*
X193452620Y-72757381D01*
X193309763Y-72757381D01*
X193166905Y-72805000D01*
X193071667Y-72900238D01*
X193024048Y-72995476D01*
X192976429Y-73185952D01*
X192976429Y-73328810D01*
X193024048Y-73519286D01*
X193071667Y-73614524D01*
X193166905Y-73709762D01*
X193309763Y-73757381D01*
X193405001Y-73757381D01*
X193547858Y-73709762D01*
X193595477Y-73662143D01*
X193595477Y-73328810D01*
X193405001Y-73328810D01*
X194452620Y-72757381D02*
X194262143Y-72757381D01*
X194166905Y-72805000D01*
X194119286Y-72852619D01*
X194024048Y-72995476D01*
X193976429Y-73185952D01*
X193976429Y-73566905D01*
X194024048Y-73662143D01*
X194071667Y-73709762D01*
X194166905Y-73757381D01*
X194357382Y-73757381D01*
X194452620Y-73709762D01*
X194500239Y-73662143D01*
X194547858Y-73566905D01*
X194547858Y-73328810D01*
X194500239Y-73233571D01*
X194452620Y-73185952D01*
X194357382Y-73138333D01*
X194166905Y-73138333D01*
X194071667Y-73185952D01*
X194024048Y-73233571D01*
X193976429Y-73328810D01*
X209835953Y-73757381D02*
X209359762Y-73757381D01*
X209359762Y-72757381D01*
X210169286Y-73233571D02*
X210502620Y-73233571D01*
X210645477Y-73757381D02*
X210169286Y-73757381D01*
X210169286Y-72757381D01*
X210645477Y-72757381D01*
X211074048Y-73757381D02*
X211074048Y-72757381D01*
X211312143Y-72757381D01*
X211455001Y-72805000D01*
X211550239Y-72900238D01*
X211597858Y-72995476D01*
X211645477Y-73185952D01*
X211645477Y-73328810D01*
X211597858Y-73519286D01*
X211550239Y-73614524D01*
X211455001Y-73709762D01*
X211312143Y-73757381D01*
X211074048Y-73757381D01*
X212597858Y-72805000D02*
X212502620Y-72757381D01*
X212359763Y-72757381D01*
X212216905Y-72805000D01*
X212121667Y-72900238D01*
X212074048Y-72995476D01*
X212026429Y-73185952D01*
X212026429Y-73328810D01*
X212074048Y-73519286D01*
X212121667Y-73614524D01*
X212216905Y-73709762D01*
X212359763Y-73757381D01*
X212455001Y-73757381D01*
X212597858Y-73709762D01*
X212645477Y-73662143D01*
X212645477Y-73328810D01*
X212455001Y-73328810D01*
X212978810Y-72757381D02*
X213645477Y-72757381D01*
X213216905Y-73757381D01*
X95535953Y-54707381D02*
X95059762Y-54707381D01*
X95059762Y-53707381D01*
X95869286Y-54183571D02*
X96202620Y-54183571D01*
X96345477Y-54707381D02*
X95869286Y-54707381D01*
X95869286Y-53707381D01*
X96345477Y-53707381D01*
X96774048Y-54707381D02*
X96774048Y-53707381D01*
X97012143Y-53707381D01*
X97155001Y-53755000D01*
X97250239Y-53850238D01*
X97297858Y-53945476D01*
X97345477Y-54135952D01*
X97345477Y-54278810D01*
X97297858Y-54469286D01*
X97250239Y-54564524D01*
X97155001Y-54659762D01*
X97012143Y-54707381D01*
X96774048Y-54707381D01*
X98297858Y-53755000D02*
X98202620Y-53707381D01*
X98059763Y-53707381D01*
X97916905Y-53755000D01*
X97821667Y-53850238D01*
X97774048Y-53945476D01*
X97726429Y-54135952D01*
X97726429Y-54278810D01*
X97774048Y-54469286D01*
X97821667Y-54564524D01*
X97916905Y-54659762D01*
X98059763Y-54707381D01*
X98155001Y-54707381D01*
X98297858Y-54659762D01*
X98345477Y-54612143D01*
X98345477Y-54278810D01*
X98155001Y-54278810D01*
X98916905Y-54135952D02*
X98821667Y-54088333D01*
X98774048Y-54040714D01*
X98726429Y-53945476D01*
X98726429Y-53897857D01*
X98774048Y-53802619D01*
X98821667Y-53755000D01*
X98916905Y-53707381D01*
X99107382Y-53707381D01*
X99202620Y-53755000D01*
X99250239Y-53802619D01*
X99297858Y-53897857D01*
X99297858Y-53945476D01*
X99250239Y-54040714D01*
X99202620Y-54088333D01*
X99107382Y-54135952D01*
X98916905Y-54135952D01*
X98821667Y-54183571D01*
X98774048Y-54231190D01*
X98726429Y-54326429D01*
X98726429Y-54516905D01*
X98774048Y-54612143D01*
X98821667Y-54659762D01*
X98916905Y-54707381D01*
X99107382Y-54707381D01*
X99202620Y-54659762D01*
X99250239Y-54612143D01*
X99297858Y-54516905D01*
X99297858Y-54326429D01*
X99250239Y-54231190D01*
X99202620Y-54183571D01*
X99107382Y-54135952D01*
X114585953Y-54707381D02*
X114109762Y-54707381D01*
X114109762Y-53707381D01*
X114919286Y-54183571D02*
X115252620Y-54183571D01*
X115395477Y-54707381D02*
X114919286Y-54707381D01*
X114919286Y-53707381D01*
X115395477Y-53707381D01*
X115824048Y-54707381D02*
X115824048Y-53707381D01*
X116062143Y-53707381D01*
X116205001Y-53755000D01*
X116300239Y-53850238D01*
X116347858Y-53945476D01*
X116395477Y-54135952D01*
X116395477Y-54278810D01*
X116347858Y-54469286D01*
X116300239Y-54564524D01*
X116205001Y-54659762D01*
X116062143Y-54707381D01*
X115824048Y-54707381D01*
X117347858Y-53755000D02*
X117252620Y-53707381D01*
X117109763Y-53707381D01*
X116966905Y-53755000D01*
X116871667Y-53850238D01*
X116824048Y-53945476D01*
X116776429Y-54135952D01*
X116776429Y-54278810D01*
X116824048Y-54469286D01*
X116871667Y-54564524D01*
X116966905Y-54659762D01*
X117109763Y-54707381D01*
X117205001Y-54707381D01*
X117347858Y-54659762D01*
X117395477Y-54612143D01*
X117395477Y-54278810D01*
X117205001Y-54278810D01*
X117871667Y-54707381D02*
X118062143Y-54707381D01*
X118157382Y-54659762D01*
X118205001Y-54612143D01*
X118300239Y-54469286D01*
X118347858Y-54278810D01*
X118347858Y-53897857D01*
X118300239Y-53802619D01*
X118252620Y-53755000D01*
X118157382Y-53707381D01*
X117966905Y-53707381D01*
X117871667Y-53755000D01*
X117824048Y-53802619D01*
X117776429Y-53897857D01*
X117776429Y-54135952D01*
X117824048Y-54231190D01*
X117871667Y-54278810D01*
X117966905Y-54326429D01*
X118157382Y-54326429D01*
X118252620Y-54278810D01*
X118300239Y-54231190D01*
X118347858Y-54135952D01*
X133159762Y-54707381D02*
X132683571Y-54707381D01*
X132683571Y-53707381D01*
X133493095Y-54183571D02*
X133826429Y-54183571D01*
X133969286Y-54707381D02*
X133493095Y-54707381D01*
X133493095Y-53707381D01*
X133969286Y-53707381D01*
X134397857Y-54707381D02*
X134397857Y-53707381D01*
X134635952Y-53707381D01*
X134778810Y-53755000D01*
X134874048Y-53850238D01*
X134921667Y-53945476D01*
X134969286Y-54135952D01*
X134969286Y-54278810D01*
X134921667Y-54469286D01*
X134874048Y-54564524D01*
X134778810Y-54659762D01*
X134635952Y-54707381D01*
X134397857Y-54707381D01*
X135921667Y-53755000D02*
X135826429Y-53707381D01*
X135683572Y-53707381D01*
X135540714Y-53755000D01*
X135445476Y-53850238D01*
X135397857Y-53945476D01*
X135350238Y-54135952D01*
X135350238Y-54278810D01*
X135397857Y-54469286D01*
X135445476Y-54564524D01*
X135540714Y-54659762D01*
X135683572Y-54707381D01*
X135778810Y-54707381D01*
X135921667Y-54659762D01*
X135969286Y-54612143D01*
X135969286Y-54278810D01*
X135778810Y-54278810D01*
X136921667Y-54707381D02*
X136350238Y-54707381D01*
X136635952Y-54707381D02*
X136635952Y-53707381D01*
X136540714Y-53850238D01*
X136445476Y-53945476D01*
X136350238Y-53993095D01*
X137540714Y-53707381D02*
X137635953Y-53707381D01*
X137731191Y-53755000D01*
X137778810Y-53802619D01*
X137826429Y-53897857D01*
X137874048Y-54088333D01*
X137874048Y-54326429D01*
X137826429Y-54516905D01*
X137778810Y-54612143D01*
X137731191Y-54659762D01*
X137635953Y-54707381D01*
X137540714Y-54707381D01*
X137445476Y-54659762D01*
X137397857Y-54612143D01*
X137350238Y-54516905D01*
X137302619Y-54326429D01*
X137302619Y-54088333D01*
X137350238Y-53897857D01*
X137397857Y-53802619D01*
X137445476Y-53755000D01*
X137540714Y-53707381D01*
X152209762Y-54707381D02*
X151733571Y-54707381D01*
X151733571Y-53707381D01*
X152543095Y-54183571D02*
X152876429Y-54183571D01*
X153019286Y-54707381D02*
X152543095Y-54707381D01*
X152543095Y-53707381D01*
X153019286Y-53707381D01*
X153447857Y-54707381D02*
X153447857Y-53707381D01*
X153685952Y-53707381D01*
X153828810Y-53755000D01*
X153924048Y-53850238D01*
X153971667Y-53945476D01*
X154019286Y-54135952D01*
X154019286Y-54278810D01*
X153971667Y-54469286D01*
X153924048Y-54564524D01*
X153828810Y-54659762D01*
X153685952Y-54707381D01*
X153447857Y-54707381D01*
X154971667Y-53755000D02*
X154876429Y-53707381D01*
X154733572Y-53707381D01*
X154590714Y-53755000D01*
X154495476Y-53850238D01*
X154447857Y-53945476D01*
X154400238Y-54135952D01*
X154400238Y-54278810D01*
X154447857Y-54469286D01*
X154495476Y-54564524D01*
X154590714Y-54659762D01*
X154733572Y-54707381D01*
X154828810Y-54707381D01*
X154971667Y-54659762D01*
X155019286Y-54612143D01*
X155019286Y-54278810D01*
X154828810Y-54278810D01*
X155971667Y-54707381D02*
X155400238Y-54707381D01*
X155685952Y-54707381D02*
X155685952Y-53707381D01*
X155590714Y-53850238D01*
X155495476Y-53945476D01*
X155400238Y-53993095D01*
X156924048Y-54707381D02*
X156352619Y-54707381D01*
X156638333Y-54707381D02*
X156638333Y-53707381D01*
X156543095Y-53850238D01*
X156447857Y-53945476D01*
X156352619Y-53993095D01*
X171259762Y-54707381D02*
X170783571Y-54707381D01*
X170783571Y-53707381D01*
X171593095Y-54183571D02*
X171926429Y-54183571D01*
X172069286Y-54707381D02*
X171593095Y-54707381D01*
X171593095Y-53707381D01*
X172069286Y-53707381D01*
X172497857Y-54707381D02*
X172497857Y-53707381D01*
X172735952Y-53707381D01*
X172878810Y-53755000D01*
X172974048Y-53850238D01*
X173021667Y-53945476D01*
X173069286Y-54135952D01*
X173069286Y-54278810D01*
X173021667Y-54469286D01*
X172974048Y-54564524D01*
X172878810Y-54659762D01*
X172735952Y-54707381D01*
X172497857Y-54707381D01*
X174021667Y-53755000D02*
X173926429Y-53707381D01*
X173783572Y-53707381D01*
X173640714Y-53755000D01*
X173545476Y-53850238D01*
X173497857Y-53945476D01*
X173450238Y-54135952D01*
X173450238Y-54278810D01*
X173497857Y-54469286D01*
X173545476Y-54564524D01*
X173640714Y-54659762D01*
X173783572Y-54707381D01*
X173878810Y-54707381D01*
X174021667Y-54659762D01*
X174069286Y-54612143D01*
X174069286Y-54278810D01*
X173878810Y-54278810D01*
X175021667Y-54707381D02*
X174450238Y-54707381D01*
X174735952Y-54707381D02*
X174735952Y-53707381D01*
X174640714Y-53850238D01*
X174545476Y-53945476D01*
X174450238Y-53993095D01*
X175402619Y-53802619D02*
X175450238Y-53755000D01*
X175545476Y-53707381D01*
X175783572Y-53707381D01*
X175878810Y-53755000D01*
X175926429Y-53802619D01*
X175974048Y-53897857D01*
X175974048Y-53993095D01*
X175926429Y-54135952D01*
X175355000Y-54707381D01*
X175974048Y-54707381D01*
X190309762Y-54707381D02*
X189833571Y-54707381D01*
X189833571Y-53707381D01*
X190643095Y-54183571D02*
X190976429Y-54183571D01*
X191119286Y-54707381D02*
X190643095Y-54707381D01*
X190643095Y-53707381D01*
X191119286Y-53707381D01*
X191547857Y-54707381D02*
X191547857Y-53707381D01*
X191785952Y-53707381D01*
X191928810Y-53755000D01*
X192024048Y-53850238D01*
X192071667Y-53945476D01*
X192119286Y-54135952D01*
X192119286Y-54278810D01*
X192071667Y-54469286D01*
X192024048Y-54564524D01*
X191928810Y-54659762D01*
X191785952Y-54707381D01*
X191547857Y-54707381D01*
X193071667Y-53755000D02*
X192976429Y-53707381D01*
X192833572Y-53707381D01*
X192690714Y-53755000D01*
X192595476Y-53850238D01*
X192547857Y-53945476D01*
X192500238Y-54135952D01*
X192500238Y-54278810D01*
X192547857Y-54469286D01*
X192595476Y-54564524D01*
X192690714Y-54659762D01*
X192833572Y-54707381D01*
X192928810Y-54707381D01*
X193071667Y-54659762D01*
X193119286Y-54612143D01*
X193119286Y-54278810D01*
X192928810Y-54278810D01*
X194071667Y-54707381D02*
X193500238Y-54707381D01*
X193785952Y-54707381D02*
X193785952Y-53707381D01*
X193690714Y-53850238D01*
X193595476Y-53945476D01*
X193500238Y-53993095D01*
X194405000Y-53707381D02*
X195024048Y-53707381D01*
X194690714Y-54088333D01*
X194833572Y-54088333D01*
X194928810Y-54135952D01*
X194976429Y-54183571D01*
X195024048Y-54278810D01*
X195024048Y-54516905D01*
X194976429Y-54612143D01*
X194928810Y-54659762D01*
X194833572Y-54707381D01*
X194547857Y-54707381D01*
X194452619Y-54659762D01*
X194405000Y-54612143D01*
X209359762Y-54707381D02*
X208883571Y-54707381D01*
X208883571Y-53707381D01*
X209693095Y-54183571D02*
X210026429Y-54183571D01*
X210169286Y-54707381D02*
X209693095Y-54707381D01*
X209693095Y-53707381D01*
X210169286Y-53707381D01*
X210597857Y-54707381D02*
X210597857Y-53707381D01*
X210835952Y-53707381D01*
X210978810Y-53755000D01*
X211074048Y-53850238D01*
X211121667Y-53945476D01*
X211169286Y-54135952D01*
X211169286Y-54278810D01*
X211121667Y-54469286D01*
X211074048Y-54564524D01*
X210978810Y-54659762D01*
X210835952Y-54707381D01*
X210597857Y-54707381D01*
X212121667Y-53755000D02*
X212026429Y-53707381D01*
X211883572Y-53707381D01*
X211740714Y-53755000D01*
X211645476Y-53850238D01*
X211597857Y-53945476D01*
X211550238Y-54135952D01*
X211550238Y-54278810D01*
X211597857Y-54469286D01*
X211645476Y-54564524D01*
X211740714Y-54659762D01*
X211883572Y-54707381D01*
X211978810Y-54707381D01*
X212121667Y-54659762D01*
X212169286Y-54612143D01*
X212169286Y-54278810D01*
X211978810Y-54278810D01*
X213121667Y-54707381D02*
X212550238Y-54707381D01*
X212835952Y-54707381D02*
X212835952Y-53707381D01*
X212740714Y-53850238D01*
X212645476Y-53945476D01*
X212550238Y-53993095D01*
X213978810Y-54040714D02*
X213978810Y-54707381D01*
X213740714Y-53659762D02*
X213502619Y-54374048D01*
X214121667Y-54374048D01*
X190309762Y-25497381D02*
X189833571Y-25497381D01*
X189833571Y-24497381D01*
X190643095Y-24973571D02*
X190976429Y-24973571D01*
X191119286Y-25497381D02*
X190643095Y-25497381D01*
X190643095Y-24497381D01*
X191119286Y-24497381D01*
X191547857Y-25497381D02*
X191547857Y-24497381D01*
X191785952Y-24497381D01*
X191928810Y-24545000D01*
X192024048Y-24640238D01*
X192071667Y-24735476D01*
X192119286Y-24925952D01*
X192119286Y-25068810D01*
X192071667Y-25259286D01*
X192024048Y-25354524D01*
X191928810Y-25449762D01*
X191785952Y-25497381D01*
X191547857Y-25497381D01*
X193071667Y-24545000D02*
X192976429Y-24497381D01*
X192833572Y-24497381D01*
X192690714Y-24545000D01*
X192595476Y-24640238D01*
X192547857Y-24735476D01*
X192500238Y-24925952D01*
X192500238Y-25068810D01*
X192547857Y-25259286D01*
X192595476Y-25354524D01*
X192690714Y-25449762D01*
X192833572Y-25497381D01*
X192928810Y-25497381D01*
X193071667Y-25449762D01*
X193119286Y-25402143D01*
X193119286Y-25068810D01*
X192928810Y-25068810D01*
X194071667Y-25497381D02*
X193500238Y-25497381D01*
X193785952Y-25497381D02*
X193785952Y-24497381D01*
X193690714Y-24640238D01*
X193595476Y-24735476D01*
X193500238Y-24783095D01*
X194976429Y-24497381D02*
X194500238Y-24497381D01*
X194452619Y-24973571D01*
X194500238Y-24925952D01*
X194595476Y-24878333D01*
X194833572Y-24878333D01*
X194928810Y-24925952D01*
X194976429Y-24973571D01*
X195024048Y-25068810D01*
X195024048Y-25306905D01*
X194976429Y-25402143D01*
X194928810Y-25449762D01*
X194833572Y-25497381D01*
X194595476Y-25497381D01*
X194500238Y-25449762D01*
X194452619Y-25402143D01*
X209359762Y-25497381D02*
X208883571Y-25497381D01*
X208883571Y-24497381D01*
X209693095Y-24973571D02*
X210026429Y-24973571D01*
X210169286Y-25497381D02*
X209693095Y-25497381D01*
X209693095Y-24497381D01*
X210169286Y-24497381D01*
X210597857Y-25497381D02*
X210597857Y-24497381D01*
X210835952Y-24497381D01*
X210978810Y-24545000D01*
X211074048Y-24640238D01*
X211121667Y-24735476D01*
X211169286Y-24925952D01*
X211169286Y-25068810D01*
X211121667Y-25259286D01*
X211074048Y-25354524D01*
X210978810Y-25449762D01*
X210835952Y-25497381D01*
X210597857Y-25497381D01*
X212121667Y-24545000D02*
X212026429Y-24497381D01*
X211883572Y-24497381D01*
X211740714Y-24545000D01*
X211645476Y-24640238D01*
X211597857Y-24735476D01*
X211550238Y-24925952D01*
X211550238Y-25068810D01*
X211597857Y-25259286D01*
X211645476Y-25354524D01*
X211740714Y-25449762D01*
X211883572Y-25497381D01*
X211978810Y-25497381D01*
X212121667Y-25449762D01*
X212169286Y-25402143D01*
X212169286Y-25068810D01*
X211978810Y-25068810D01*
X213121667Y-25497381D02*
X212550238Y-25497381D01*
X212835952Y-25497381D02*
X212835952Y-24497381D01*
X212740714Y-24640238D01*
X212645476Y-24735476D01*
X212550238Y-24783095D01*
X213978810Y-24497381D02*
X213788333Y-24497381D01*
X213693095Y-24545000D01*
X213645476Y-24592619D01*
X213550238Y-24735476D01*
X213502619Y-24925952D01*
X213502619Y-25306905D01*
X213550238Y-25402143D01*
X213597857Y-25449762D01*
X213693095Y-25497381D01*
X213883572Y-25497381D01*
X213978810Y-25449762D01*
X214026429Y-25402143D01*
X214074048Y-25306905D01*
X214074048Y-25068810D01*
X214026429Y-24973571D01*
X213978810Y-24925952D01*
X213883572Y-24878333D01*
X213693095Y-24878333D01*
X213597857Y-24925952D01*
X213550238Y-24973571D01*
X213502619Y-25068810D01*
X127732381Y-34662857D02*
X127732381Y-35139048D01*
X126732381Y-35139048D01*
X127208571Y-34329524D02*
X127208571Y-33996190D01*
X127732381Y-33853333D02*
X127732381Y-34329524D01*
X126732381Y-34329524D01*
X126732381Y-33853333D01*
X127732381Y-33424762D02*
X126732381Y-33424762D01*
X126732381Y-33186667D01*
X126780000Y-33043809D01*
X126875238Y-32948571D01*
X126970476Y-32900952D01*
X127160952Y-32853333D01*
X127303810Y-32853333D01*
X127494286Y-32900952D01*
X127589524Y-32948571D01*
X127684762Y-33043809D01*
X127732381Y-33186667D01*
X127732381Y-33424762D01*
X126732381Y-32234286D02*
X126732381Y-32043809D01*
X126780000Y-31948571D01*
X126875238Y-31853333D01*
X127065714Y-31805714D01*
X127399048Y-31805714D01*
X127589524Y-31853333D01*
X127684762Y-31948571D01*
X127732381Y-32043809D01*
X127732381Y-32234286D01*
X127684762Y-32329524D01*
X127589524Y-32424762D01*
X127399048Y-32472381D01*
X127065714Y-32472381D01*
X126875238Y-32424762D01*
X126780000Y-32329524D01*
X126732381Y-32234286D01*
X127732381Y-30853333D02*
X127732381Y-31424762D01*
X127732381Y-31139048D02*
X126732381Y-31139048D01*
X126875238Y-31234286D01*
X126970476Y-31329524D01*
X127018095Y-31424762D01*
X129637381Y-29582857D02*
X129637381Y-30059048D01*
X128637381Y-30059048D01*
X129113571Y-29249524D02*
X129113571Y-28916190D01*
X129637381Y-28773333D02*
X129637381Y-29249524D01*
X128637381Y-29249524D01*
X128637381Y-28773333D01*
X129637381Y-28344762D02*
X128637381Y-28344762D01*
X128637381Y-28106667D01*
X128685000Y-27963809D01*
X128780238Y-27868571D01*
X128875476Y-27820952D01*
X129065952Y-27773333D01*
X129208810Y-27773333D01*
X129399286Y-27820952D01*
X129494524Y-27868571D01*
X129589762Y-27963809D01*
X129637381Y-28106667D01*
X129637381Y-28344762D01*
X128637381Y-27154286D02*
X128637381Y-26963809D01*
X128685000Y-26868571D01*
X128780238Y-26773333D01*
X128970714Y-26725714D01*
X129304048Y-26725714D01*
X129494524Y-26773333D01*
X129589762Y-26868571D01*
X129637381Y-26963809D01*
X129637381Y-27154286D01*
X129589762Y-27249524D01*
X129494524Y-27344762D01*
X129304048Y-27392381D01*
X128970714Y-27392381D01*
X128780238Y-27344762D01*
X128685000Y-27249524D01*
X128637381Y-27154286D01*
X128732619Y-26344762D02*
X128685000Y-26297143D01*
X128637381Y-26201905D01*
X128637381Y-25963809D01*
X128685000Y-25868571D01*
X128732619Y-25820952D01*
X128827857Y-25773333D01*
X128923095Y-25773333D01*
X129065952Y-25820952D01*
X129637381Y-26392381D01*
X129637381Y-25773333D01*
X131542381Y-34662857D02*
X131542381Y-35139048D01*
X130542381Y-35139048D01*
X131018571Y-34329524D02*
X131018571Y-33996190D01*
X131542381Y-33853333D02*
X131542381Y-34329524D01*
X130542381Y-34329524D01*
X130542381Y-33853333D01*
X131542381Y-33424762D02*
X130542381Y-33424762D01*
X130542381Y-33186667D01*
X130590000Y-33043809D01*
X130685238Y-32948571D01*
X130780476Y-32900952D01*
X130970952Y-32853333D01*
X131113810Y-32853333D01*
X131304286Y-32900952D01*
X131399524Y-32948571D01*
X131494762Y-33043809D01*
X131542381Y-33186667D01*
X131542381Y-33424762D01*
X130542381Y-32234286D02*
X130542381Y-32043809D01*
X130590000Y-31948571D01*
X130685238Y-31853333D01*
X130875714Y-31805714D01*
X131209048Y-31805714D01*
X131399524Y-31853333D01*
X131494762Y-31948571D01*
X131542381Y-32043809D01*
X131542381Y-32234286D01*
X131494762Y-32329524D01*
X131399524Y-32424762D01*
X131209048Y-32472381D01*
X130875714Y-32472381D01*
X130685238Y-32424762D01*
X130590000Y-32329524D01*
X130542381Y-32234286D01*
X130542381Y-31472381D02*
X130542381Y-30853333D01*
X130923333Y-31186667D01*
X130923333Y-31043809D01*
X130970952Y-30948571D01*
X131018571Y-30900952D01*
X131113810Y-30853333D01*
X131351905Y-30853333D01*
X131447143Y-30900952D01*
X131494762Y-30948571D01*
X131542381Y-31043809D01*
X131542381Y-31329524D01*
X131494762Y-31424762D01*
X131447143Y-31472381D01*
X133447381Y-29582857D02*
X133447381Y-30059048D01*
X132447381Y-30059048D01*
X132923571Y-29249524D02*
X132923571Y-28916190D01*
X133447381Y-28773333D02*
X133447381Y-29249524D01*
X132447381Y-29249524D01*
X132447381Y-28773333D01*
X133447381Y-28344762D02*
X132447381Y-28344762D01*
X132447381Y-28106667D01*
X132495000Y-27963809D01*
X132590238Y-27868571D01*
X132685476Y-27820952D01*
X132875952Y-27773333D01*
X133018810Y-27773333D01*
X133209286Y-27820952D01*
X133304524Y-27868571D01*
X133399762Y-27963809D01*
X133447381Y-28106667D01*
X133447381Y-28344762D01*
X132447381Y-27154286D02*
X132447381Y-26963809D01*
X132495000Y-26868571D01*
X132590238Y-26773333D01*
X132780714Y-26725714D01*
X133114048Y-26725714D01*
X133304524Y-26773333D01*
X133399762Y-26868571D01*
X133447381Y-26963809D01*
X133447381Y-27154286D01*
X133399762Y-27249524D01*
X133304524Y-27344762D01*
X133114048Y-27392381D01*
X132780714Y-27392381D01*
X132590238Y-27344762D01*
X132495000Y-27249524D01*
X132447381Y-27154286D01*
X132780714Y-25868571D02*
X133447381Y-25868571D01*
X132399762Y-26106667D02*
X133114048Y-26344762D01*
X133114048Y-25725714D01*
X135352381Y-34662857D02*
X135352381Y-35139048D01*
X134352381Y-35139048D01*
X134828571Y-34329524D02*
X134828571Y-33996190D01*
X135352381Y-33853333D02*
X135352381Y-34329524D01*
X134352381Y-34329524D01*
X134352381Y-33853333D01*
X135352381Y-33424762D02*
X134352381Y-33424762D01*
X134352381Y-33186667D01*
X134400000Y-33043809D01*
X134495238Y-32948571D01*
X134590476Y-32900952D01*
X134780952Y-32853333D01*
X134923810Y-32853333D01*
X135114286Y-32900952D01*
X135209524Y-32948571D01*
X135304762Y-33043809D01*
X135352381Y-33186667D01*
X135352381Y-33424762D01*
X134352381Y-32234286D02*
X134352381Y-32043809D01*
X134400000Y-31948571D01*
X134495238Y-31853333D01*
X134685714Y-31805714D01*
X135019048Y-31805714D01*
X135209524Y-31853333D01*
X135304762Y-31948571D01*
X135352381Y-32043809D01*
X135352381Y-32234286D01*
X135304762Y-32329524D01*
X135209524Y-32424762D01*
X135019048Y-32472381D01*
X134685714Y-32472381D01*
X134495238Y-32424762D01*
X134400000Y-32329524D01*
X134352381Y-32234286D01*
X134352381Y-30900952D02*
X134352381Y-31377143D01*
X134828571Y-31424762D01*
X134780952Y-31377143D01*
X134733333Y-31281905D01*
X134733333Y-31043809D01*
X134780952Y-30948571D01*
X134828571Y-30900952D01*
X134923810Y-30853333D01*
X135161905Y-30853333D01*
X135257143Y-30900952D01*
X135304762Y-30948571D01*
X135352381Y-31043809D01*
X135352381Y-31281905D01*
X135304762Y-31377143D01*
X135257143Y-31424762D01*
X139162381Y-34662857D02*
X139162381Y-35139048D01*
X138162381Y-35139048D01*
X138638571Y-34329524D02*
X138638571Y-33996190D01*
X139162381Y-33853333D02*
X139162381Y-34329524D01*
X138162381Y-34329524D01*
X138162381Y-33853333D01*
X139162381Y-33424762D02*
X138162381Y-33424762D01*
X138162381Y-33186667D01*
X138210000Y-33043809D01*
X138305238Y-32948571D01*
X138400476Y-32900952D01*
X138590952Y-32853333D01*
X138733810Y-32853333D01*
X138924286Y-32900952D01*
X139019524Y-32948571D01*
X139114762Y-33043809D01*
X139162381Y-33186667D01*
X139162381Y-33424762D01*
X138162381Y-32234286D02*
X138162381Y-32043809D01*
X138210000Y-31948571D01*
X138305238Y-31853333D01*
X138495714Y-31805714D01*
X138829048Y-31805714D01*
X139019524Y-31853333D01*
X139114762Y-31948571D01*
X139162381Y-32043809D01*
X139162381Y-32234286D01*
X139114762Y-32329524D01*
X139019524Y-32424762D01*
X138829048Y-32472381D01*
X138495714Y-32472381D01*
X138305238Y-32424762D01*
X138210000Y-32329524D01*
X138162381Y-32234286D01*
X138162381Y-30948571D02*
X138162381Y-31139048D01*
X138210000Y-31234286D01*
X138257619Y-31281905D01*
X138400476Y-31377143D01*
X138590952Y-31424762D01*
X138971905Y-31424762D01*
X139067143Y-31377143D01*
X139114762Y-31329524D01*
X139162381Y-31234286D01*
X139162381Y-31043809D01*
X139114762Y-30948571D01*
X139067143Y-30900952D01*
X138971905Y-30853333D01*
X138733810Y-30853333D01*
X138638571Y-30900952D01*
X138590952Y-30948571D01*
X138543333Y-31043809D01*
X138543333Y-31234286D01*
X138590952Y-31329524D01*
X138638571Y-31377143D01*
X138733810Y-31424762D01*
X141067381Y-29582857D02*
X141067381Y-30059048D01*
X140067381Y-30059048D01*
X140543571Y-29249524D02*
X140543571Y-28916190D01*
X141067381Y-28773333D02*
X141067381Y-29249524D01*
X140067381Y-29249524D01*
X140067381Y-28773333D01*
X141067381Y-28344762D02*
X140067381Y-28344762D01*
X140067381Y-28106667D01*
X140115000Y-27963809D01*
X140210238Y-27868571D01*
X140305476Y-27820952D01*
X140495952Y-27773333D01*
X140638810Y-27773333D01*
X140829286Y-27820952D01*
X140924524Y-27868571D01*
X141019762Y-27963809D01*
X141067381Y-28106667D01*
X141067381Y-28344762D01*
X140067381Y-27154286D02*
X140067381Y-26963809D01*
X140115000Y-26868571D01*
X140210238Y-26773333D01*
X140400714Y-26725714D01*
X140734048Y-26725714D01*
X140924524Y-26773333D01*
X141019762Y-26868571D01*
X141067381Y-26963809D01*
X141067381Y-27154286D01*
X141019762Y-27249524D01*
X140924524Y-27344762D01*
X140734048Y-27392381D01*
X140400714Y-27392381D01*
X140210238Y-27344762D01*
X140115000Y-27249524D01*
X140067381Y-27154286D01*
X140067381Y-26392381D02*
X140067381Y-25725714D01*
X141067381Y-26154286D01*
X142972381Y-34662857D02*
X142972381Y-35139048D01*
X141972381Y-35139048D01*
X142448571Y-34329524D02*
X142448571Y-33996190D01*
X142972381Y-33853333D02*
X142972381Y-34329524D01*
X141972381Y-34329524D01*
X141972381Y-33853333D01*
X142972381Y-33424762D02*
X141972381Y-33424762D01*
X141972381Y-33186667D01*
X142020000Y-33043809D01*
X142115238Y-32948571D01*
X142210476Y-32900952D01*
X142400952Y-32853333D01*
X142543810Y-32853333D01*
X142734286Y-32900952D01*
X142829524Y-32948571D01*
X142924762Y-33043809D01*
X142972381Y-33186667D01*
X142972381Y-33424762D01*
X141972381Y-32234286D02*
X141972381Y-32043809D01*
X142020000Y-31948571D01*
X142115238Y-31853333D01*
X142305714Y-31805714D01*
X142639048Y-31805714D01*
X142829524Y-31853333D01*
X142924762Y-31948571D01*
X142972381Y-32043809D01*
X142972381Y-32234286D01*
X142924762Y-32329524D01*
X142829524Y-32424762D01*
X142639048Y-32472381D01*
X142305714Y-32472381D01*
X142115238Y-32424762D01*
X142020000Y-32329524D01*
X141972381Y-32234286D01*
X142400952Y-31234286D02*
X142353333Y-31329524D01*
X142305714Y-31377143D01*
X142210476Y-31424762D01*
X142162857Y-31424762D01*
X142067619Y-31377143D01*
X142020000Y-31329524D01*
X141972381Y-31234286D01*
X141972381Y-31043809D01*
X142020000Y-30948571D01*
X142067619Y-30900952D01*
X142162857Y-30853333D01*
X142210476Y-30853333D01*
X142305714Y-30900952D01*
X142353333Y-30948571D01*
X142400952Y-31043809D01*
X142400952Y-31234286D01*
X142448571Y-31329524D01*
X142496190Y-31377143D01*
X142591429Y-31424762D01*
X142781905Y-31424762D01*
X142877143Y-31377143D01*
X142924762Y-31329524D01*
X142972381Y-31234286D01*
X142972381Y-31043809D01*
X142924762Y-30948571D01*
X142877143Y-30900952D01*
X142781905Y-30853333D01*
X142591429Y-30853333D01*
X142496190Y-30900952D01*
X142448571Y-30948571D01*
X142400952Y-31043809D01*
X144877381Y-29582857D02*
X144877381Y-30059048D01*
X143877381Y-30059048D01*
X144353571Y-29249524D02*
X144353571Y-28916190D01*
X144877381Y-28773333D02*
X144877381Y-29249524D01*
X143877381Y-29249524D01*
X143877381Y-28773333D01*
X144877381Y-28344762D02*
X143877381Y-28344762D01*
X143877381Y-28106667D01*
X143925000Y-27963809D01*
X144020238Y-27868571D01*
X144115476Y-27820952D01*
X144305952Y-27773333D01*
X144448810Y-27773333D01*
X144639286Y-27820952D01*
X144734524Y-27868571D01*
X144829762Y-27963809D01*
X144877381Y-28106667D01*
X144877381Y-28344762D01*
X143877381Y-27154286D02*
X143877381Y-26963809D01*
X143925000Y-26868571D01*
X144020238Y-26773333D01*
X144210714Y-26725714D01*
X144544048Y-26725714D01*
X144734524Y-26773333D01*
X144829762Y-26868571D01*
X144877381Y-26963809D01*
X144877381Y-27154286D01*
X144829762Y-27249524D01*
X144734524Y-27344762D01*
X144544048Y-27392381D01*
X144210714Y-27392381D01*
X144020238Y-27344762D01*
X143925000Y-27249524D01*
X143877381Y-27154286D01*
X144877381Y-26249524D02*
X144877381Y-26059048D01*
X144829762Y-25963809D01*
X144782143Y-25916190D01*
X144639286Y-25820952D01*
X144448810Y-25773333D01*
X144067857Y-25773333D01*
X143972619Y-25820952D01*
X143925000Y-25868571D01*
X143877381Y-25963809D01*
X143877381Y-26154286D01*
X143925000Y-26249524D01*
X143972619Y-26297143D01*
X144067857Y-26344762D01*
X144305952Y-26344762D01*
X144401190Y-26297143D01*
X144448810Y-26249524D01*
X144496429Y-26154286D01*
X144496429Y-25963809D01*
X144448810Y-25868571D01*
X144401190Y-25820952D01*
X144305952Y-25773333D01*
X146782381Y-35139047D02*
X146782381Y-35615238D01*
X145782381Y-35615238D01*
X146258571Y-34805714D02*
X146258571Y-34472380D01*
X146782381Y-34329523D02*
X146782381Y-34805714D01*
X145782381Y-34805714D01*
X145782381Y-34329523D01*
X146782381Y-33900952D02*
X145782381Y-33900952D01*
X145782381Y-33662857D01*
X145830000Y-33519999D01*
X145925238Y-33424761D01*
X146020476Y-33377142D01*
X146210952Y-33329523D01*
X146353810Y-33329523D01*
X146544286Y-33377142D01*
X146639524Y-33424761D01*
X146734762Y-33519999D01*
X146782381Y-33662857D01*
X146782381Y-33900952D01*
X145782381Y-32710476D02*
X145782381Y-32519999D01*
X145830000Y-32424761D01*
X145925238Y-32329523D01*
X146115714Y-32281904D01*
X146449048Y-32281904D01*
X146639524Y-32329523D01*
X146734762Y-32424761D01*
X146782381Y-32519999D01*
X146782381Y-32710476D01*
X146734762Y-32805714D01*
X146639524Y-32900952D01*
X146449048Y-32948571D01*
X146115714Y-32948571D01*
X145925238Y-32900952D01*
X145830000Y-32805714D01*
X145782381Y-32710476D01*
X146782381Y-31329523D02*
X146782381Y-31900952D01*
X146782381Y-31615238D02*
X145782381Y-31615238D01*
X145925238Y-31710476D01*
X146020476Y-31805714D01*
X146068095Y-31900952D01*
X145782381Y-30710476D02*
X145782381Y-30615237D01*
X145830000Y-30519999D01*
X145877619Y-30472380D01*
X145972857Y-30424761D01*
X146163333Y-30377142D01*
X146401429Y-30377142D01*
X146591905Y-30424761D01*
X146687143Y-30472380D01*
X146734762Y-30519999D01*
X146782381Y-30615237D01*
X146782381Y-30710476D01*
X146734762Y-30805714D01*
X146687143Y-30853333D01*
X146591905Y-30900952D01*
X146401429Y-30948571D01*
X146163333Y-30948571D01*
X145972857Y-30900952D01*
X145877619Y-30853333D01*
X145830000Y-30805714D01*
X145782381Y-30710476D01*
X148687381Y-30059047D02*
X148687381Y-30535238D01*
X147687381Y-30535238D01*
X148163571Y-29725714D02*
X148163571Y-29392380D01*
X148687381Y-29249523D02*
X148687381Y-29725714D01*
X147687381Y-29725714D01*
X147687381Y-29249523D01*
X148687381Y-28820952D02*
X147687381Y-28820952D01*
X147687381Y-28582857D01*
X147735000Y-28439999D01*
X147830238Y-28344761D01*
X147925476Y-28297142D01*
X148115952Y-28249523D01*
X148258810Y-28249523D01*
X148449286Y-28297142D01*
X148544524Y-28344761D01*
X148639762Y-28439999D01*
X148687381Y-28582857D01*
X148687381Y-28820952D01*
X147687381Y-27630476D02*
X147687381Y-27439999D01*
X147735000Y-27344761D01*
X147830238Y-27249523D01*
X148020714Y-27201904D01*
X148354048Y-27201904D01*
X148544524Y-27249523D01*
X148639762Y-27344761D01*
X148687381Y-27439999D01*
X148687381Y-27630476D01*
X148639762Y-27725714D01*
X148544524Y-27820952D01*
X148354048Y-27868571D01*
X148020714Y-27868571D01*
X147830238Y-27820952D01*
X147735000Y-27725714D01*
X147687381Y-27630476D01*
X148687381Y-26249523D02*
X148687381Y-26820952D01*
X148687381Y-26535238D02*
X147687381Y-26535238D01*
X147830238Y-26630476D01*
X147925476Y-26725714D01*
X147973095Y-26820952D01*
X148687381Y-25297142D02*
X148687381Y-25868571D01*
X148687381Y-25582857D02*
X147687381Y-25582857D01*
X147830238Y-25678095D01*
X147925476Y-25773333D01*
X147973095Y-25868571D01*
X150592381Y-35139047D02*
X150592381Y-35615238D01*
X149592381Y-35615238D01*
X150068571Y-34805714D02*
X150068571Y-34472380D01*
X150592381Y-34329523D02*
X150592381Y-34805714D01*
X149592381Y-34805714D01*
X149592381Y-34329523D01*
X150592381Y-33900952D02*
X149592381Y-33900952D01*
X149592381Y-33662857D01*
X149640000Y-33519999D01*
X149735238Y-33424761D01*
X149830476Y-33377142D01*
X150020952Y-33329523D01*
X150163810Y-33329523D01*
X150354286Y-33377142D01*
X150449524Y-33424761D01*
X150544762Y-33519999D01*
X150592381Y-33662857D01*
X150592381Y-33900952D01*
X149592381Y-32710476D02*
X149592381Y-32519999D01*
X149640000Y-32424761D01*
X149735238Y-32329523D01*
X149925714Y-32281904D01*
X150259048Y-32281904D01*
X150449524Y-32329523D01*
X150544762Y-32424761D01*
X150592381Y-32519999D01*
X150592381Y-32710476D01*
X150544762Y-32805714D01*
X150449524Y-32900952D01*
X150259048Y-32948571D01*
X149925714Y-32948571D01*
X149735238Y-32900952D01*
X149640000Y-32805714D01*
X149592381Y-32710476D01*
X150592381Y-31329523D02*
X150592381Y-31900952D01*
X150592381Y-31615238D02*
X149592381Y-31615238D01*
X149735238Y-31710476D01*
X149830476Y-31805714D01*
X149878095Y-31900952D01*
X149687619Y-30948571D02*
X149640000Y-30900952D01*
X149592381Y-30805714D01*
X149592381Y-30567618D01*
X149640000Y-30472380D01*
X149687619Y-30424761D01*
X149782857Y-30377142D01*
X149878095Y-30377142D01*
X150020952Y-30424761D01*
X150592381Y-30996190D01*
X150592381Y-30377142D01*
X90455953Y-73757381D02*
X89979762Y-73757381D01*
X89979762Y-72757381D01*
X90789286Y-73233571D02*
X91122620Y-73233571D01*
X91265477Y-73757381D02*
X90789286Y-73757381D01*
X90789286Y-72757381D01*
X91265477Y-72757381D01*
X91694048Y-73757381D02*
X91694048Y-72757381D01*
X91932143Y-72757381D01*
X92075001Y-72805000D01*
X92170239Y-72900238D01*
X92217858Y-72995476D01*
X92265477Y-73185952D01*
X92265477Y-73328810D01*
X92217858Y-73519286D01*
X92170239Y-73614524D01*
X92075001Y-73709762D01*
X91932143Y-73757381D01*
X91694048Y-73757381D01*
X93265477Y-73757381D02*
X92932143Y-73281190D01*
X92694048Y-73757381D02*
X92694048Y-72757381D01*
X93075001Y-72757381D01*
X93170239Y-72805000D01*
X93217858Y-72852619D01*
X93265477Y-72947857D01*
X93265477Y-73090714D01*
X93217858Y-73185952D01*
X93170239Y-73233571D01*
X93075001Y-73281190D01*
X92694048Y-73281190D01*
X94217858Y-73757381D02*
X93646429Y-73757381D01*
X93932143Y-73757381D02*
X93932143Y-72757381D01*
X93836905Y-72900238D01*
X93741667Y-72995476D01*
X93646429Y-73043095D01*
X109505953Y-73757381D02*
X109029762Y-73757381D01*
X109029762Y-72757381D01*
X109839286Y-73233571D02*
X110172620Y-73233571D01*
X110315477Y-73757381D02*
X109839286Y-73757381D01*
X109839286Y-72757381D01*
X110315477Y-72757381D01*
X110744048Y-73757381D02*
X110744048Y-72757381D01*
X110982143Y-72757381D01*
X111125001Y-72805000D01*
X111220239Y-72900238D01*
X111267858Y-72995476D01*
X111315477Y-73185952D01*
X111315477Y-73328810D01*
X111267858Y-73519286D01*
X111220239Y-73614524D01*
X111125001Y-73709762D01*
X110982143Y-73757381D01*
X110744048Y-73757381D01*
X112315477Y-73757381D02*
X111982143Y-73281190D01*
X111744048Y-73757381D02*
X111744048Y-72757381D01*
X112125001Y-72757381D01*
X112220239Y-72805000D01*
X112267858Y-72852619D01*
X112315477Y-72947857D01*
X112315477Y-73090714D01*
X112267858Y-73185952D01*
X112220239Y-73233571D01*
X112125001Y-73281190D01*
X111744048Y-73281190D01*
X112696429Y-72852619D02*
X112744048Y-72805000D01*
X112839286Y-72757381D01*
X113077382Y-72757381D01*
X113172620Y-72805000D01*
X113220239Y-72852619D01*
X113267858Y-72947857D01*
X113267858Y-73043095D01*
X113220239Y-73185952D01*
X112648810Y-73757381D01*
X113267858Y-73757381D01*
X128555953Y-73757381D02*
X128079762Y-73757381D01*
X128079762Y-72757381D01*
X128889286Y-73233571D02*
X129222620Y-73233571D01*
X129365477Y-73757381D02*
X128889286Y-73757381D01*
X128889286Y-72757381D01*
X129365477Y-72757381D01*
X129794048Y-73757381D02*
X129794048Y-72757381D01*
X130032143Y-72757381D01*
X130175001Y-72805000D01*
X130270239Y-72900238D01*
X130317858Y-72995476D01*
X130365477Y-73185952D01*
X130365477Y-73328810D01*
X130317858Y-73519286D01*
X130270239Y-73614524D01*
X130175001Y-73709762D01*
X130032143Y-73757381D01*
X129794048Y-73757381D01*
X131365477Y-73757381D02*
X131032143Y-73281190D01*
X130794048Y-73757381D02*
X130794048Y-72757381D01*
X131175001Y-72757381D01*
X131270239Y-72805000D01*
X131317858Y-72852619D01*
X131365477Y-72947857D01*
X131365477Y-73090714D01*
X131317858Y-73185952D01*
X131270239Y-73233571D01*
X131175001Y-73281190D01*
X130794048Y-73281190D01*
X131698810Y-72757381D02*
X132317858Y-72757381D01*
X131984524Y-73138333D01*
X132127382Y-73138333D01*
X132222620Y-73185952D01*
X132270239Y-73233571D01*
X132317858Y-73328810D01*
X132317858Y-73566905D01*
X132270239Y-73662143D01*
X132222620Y-73709762D01*
X132127382Y-73757381D01*
X131841667Y-73757381D01*
X131746429Y-73709762D01*
X131698810Y-73662143D01*
X147605953Y-73757381D02*
X147129762Y-73757381D01*
X147129762Y-72757381D01*
X147939286Y-73233571D02*
X148272620Y-73233571D01*
X148415477Y-73757381D02*
X147939286Y-73757381D01*
X147939286Y-72757381D01*
X148415477Y-72757381D01*
X148844048Y-73757381D02*
X148844048Y-72757381D01*
X149082143Y-72757381D01*
X149225001Y-72805000D01*
X149320239Y-72900238D01*
X149367858Y-72995476D01*
X149415477Y-73185952D01*
X149415477Y-73328810D01*
X149367858Y-73519286D01*
X149320239Y-73614524D01*
X149225001Y-73709762D01*
X149082143Y-73757381D01*
X148844048Y-73757381D01*
X150415477Y-73757381D02*
X150082143Y-73281190D01*
X149844048Y-73757381D02*
X149844048Y-72757381D01*
X150225001Y-72757381D01*
X150320239Y-72805000D01*
X150367858Y-72852619D01*
X150415477Y-72947857D01*
X150415477Y-73090714D01*
X150367858Y-73185952D01*
X150320239Y-73233571D01*
X150225001Y-73281190D01*
X149844048Y-73281190D01*
X151272620Y-73090714D02*
X151272620Y-73757381D01*
X151034524Y-72709762D02*
X150796429Y-73424048D01*
X151415477Y-73424048D01*
X166655953Y-73757381D02*
X166179762Y-73757381D01*
X166179762Y-72757381D01*
X166989286Y-73233571D02*
X167322620Y-73233571D01*
X167465477Y-73757381D02*
X166989286Y-73757381D01*
X166989286Y-72757381D01*
X167465477Y-72757381D01*
X167894048Y-73757381D02*
X167894048Y-72757381D01*
X168132143Y-72757381D01*
X168275001Y-72805000D01*
X168370239Y-72900238D01*
X168417858Y-72995476D01*
X168465477Y-73185952D01*
X168465477Y-73328810D01*
X168417858Y-73519286D01*
X168370239Y-73614524D01*
X168275001Y-73709762D01*
X168132143Y-73757381D01*
X167894048Y-73757381D01*
X169465477Y-73757381D02*
X169132143Y-73281190D01*
X168894048Y-73757381D02*
X168894048Y-72757381D01*
X169275001Y-72757381D01*
X169370239Y-72805000D01*
X169417858Y-72852619D01*
X169465477Y-72947857D01*
X169465477Y-73090714D01*
X169417858Y-73185952D01*
X169370239Y-73233571D01*
X169275001Y-73281190D01*
X168894048Y-73281190D01*
X170370239Y-72757381D02*
X169894048Y-72757381D01*
X169846429Y-73233571D01*
X169894048Y-73185952D01*
X169989286Y-73138333D01*
X170227382Y-73138333D01*
X170322620Y-73185952D01*
X170370239Y-73233571D01*
X170417858Y-73328810D01*
X170417858Y-73566905D01*
X170370239Y-73662143D01*
X170322620Y-73709762D01*
X170227382Y-73757381D01*
X169989286Y-73757381D01*
X169894048Y-73709762D01*
X169846429Y-73662143D01*
X185705953Y-73757381D02*
X185229762Y-73757381D01*
X185229762Y-72757381D01*
X186039286Y-73233571D02*
X186372620Y-73233571D01*
X186515477Y-73757381D02*
X186039286Y-73757381D01*
X186039286Y-72757381D01*
X186515477Y-72757381D01*
X186944048Y-73757381D02*
X186944048Y-72757381D01*
X187182143Y-72757381D01*
X187325001Y-72805000D01*
X187420239Y-72900238D01*
X187467858Y-72995476D01*
X187515477Y-73185952D01*
X187515477Y-73328810D01*
X187467858Y-73519286D01*
X187420239Y-73614524D01*
X187325001Y-73709762D01*
X187182143Y-73757381D01*
X186944048Y-73757381D01*
X188515477Y-73757381D02*
X188182143Y-73281190D01*
X187944048Y-73757381D02*
X187944048Y-72757381D01*
X188325001Y-72757381D01*
X188420239Y-72805000D01*
X188467858Y-72852619D01*
X188515477Y-72947857D01*
X188515477Y-73090714D01*
X188467858Y-73185952D01*
X188420239Y-73233571D01*
X188325001Y-73281190D01*
X187944048Y-73281190D01*
X189372620Y-72757381D02*
X189182143Y-72757381D01*
X189086905Y-72805000D01*
X189039286Y-72852619D01*
X188944048Y-72995476D01*
X188896429Y-73185952D01*
X188896429Y-73566905D01*
X188944048Y-73662143D01*
X188991667Y-73709762D01*
X189086905Y-73757381D01*
X189277382Y-73757381D01*
X189372620Y-73709762D01*
X189420239Y-73662143D01*
X189467858Y-73566905D01*
X189467858Y-73328810D01*
X189420239Y-73233571D01*
X189372620Y-73185952D01*
X189277382Y-73138333D01*
X189086905Y-73138333D01*
X188991667Y-73185952D01*
X188944048Y-73233571D01*
X188896429Y-73328810D01*
X204755953Y-73757381D02*
X204279762Y-73757381D01*
X204279762Y-72757381D01*
X205089286Y-73233571D02*
X205422620Y-73233571D01*
X205565477Y-73757381D02*
X205089286Y-73757381D01*
X205089286Y-72757381D01*
X205565477Y-72757381D01*
X205994048Y-73757381D02*
X205994048Y-72757381D01*
X206232143Y-72757381D01*
X206375001Y-72805000D01*
X206470239Y-72900238D01*
X206517858Y-72995476D01*
X206565477Y-73185952D01*
X206565477Y-73328810D01*
X206517858Y-73519286D01*
X206470239Y-73614524D01*
X206375001Y-73709762D01*
X206232143Y-73757381D01*
X205994048Y-73757381D01*
X207565477Y-73757381D02*
X207232143Y-73281190D01*
X206994048Y-73757381D02*
X206994048Y-72757381D01*
X207375001Y-72757381D01*
X207470239Y-72805000D01*
X207517858Y-72852619D01*
X207565477Y-72947857D01*
X207565477Y-73090714D01*
X207517858Y-73185952D01*
X207470239Y-73233571D01*
X207375001Y-73281190D01*
X206994048Y-73281190D01*
X207898810Y-72757381D02*
X208565477Y-72757381D01*
X208136905Y-73757381D01*
X90455953Y-54707381D02*
X89979762Y-54707381D01*
X89979762Y-53707381D01*
X90789286Y-54183571D02*
X91122620Y-54183571D01*
X91265477Y-54707381D02*
X90789286Y-54707381D01*
X90789286Y-53707381D01*
X91265477Y-53707381D01*
X91694048Y-54707381D02*
X91694048Y-53707381D01*
X91932143Y-53707381D01*
X92075001Y-53755000D01*
X92170239Y-53850238D01*
X92217858Y-53945476D01*
X92265477Y-54135952D01*
X92265477Y-54278810D01*
X92217858Y-54469286D01*
X92170239Y-54564524D01*
X92075001Y-54659762D01*
X91932143Y-54707381D01*
X91694048Y-54707381D01*
X93265477Y-54707381D02*
X92932143Y-54231190D01*
X92694048Y-54707381D02*
X92694048Y-53707381D01*
X93075001Y-53707381D01*
X93170239Y-53755000D01*
X93217858Y-53802619D01*
X93265477Y-53897857D01*
X93265477Y-54040714D01*
X93217858Y-54135952D01*
X93170239Y-54183571D01*
X93075001Y-54231190D01*
X92694048Y-54231190D01*
X93836905Y-54135952D02*
X93741667Y-54088333D01*
X93694048Y-54040714D01*
X93646429Y-53945476D01*
X93646429Y-53897857D01*
X93694048Y-53802619D01*
X93741667Y-53755000D01*
X93836905Y-53707381D01*
X94027382Y-53707381D01*
X94122620Y-53755000D01*
X94170239Y-53802619D01*
X94217858Y-53897857D01*
X94217858Y-53945476D01*
X94170239Y-54040714D01*
X94122620Y-54088333D01*
X94027382Y-54135952D01*
X93836905Y-54135952D01*
X93741667Y-54183571D01*
X93694048Y-54231190D01*
X93646429Y-54326429D01*
X93646429Y-54516905D01*
X93694048Y-54612143D01*
X93741667Y-54659762D01*
X93836905Y-54707381D01*
X94027382Y-54707381D01*
X94122620Y-54659762D01*
X94170239Y-54612143D01*
X94217858Y-54516905D01*
X94217858Y-54326429D01*
X94170239Y-54231190D01*
X94122620Y-54183571D01*
X94027382Y-54135952D01*
X109505953Y-54707381D02*
X109029762Y-54707381D01*
X109029762Y-53707381D01*
X109839286Y-54183571D02*
X110172620Y-54183571D01*
X110315477Y-54707381D02*
X109839286Y-54707381D01*
X109839286Y-53707381D01*
X110315477Y-53707381D01*
X110744048Y-54707381D02*
X110744048Y-53707381D01*
X110982143Y-53707381D01*
X111125001Y-53755000D01*
X111220239Y-53850238D01*
X111267858Y-53945476D01*
X111315477Y-54135952D01*
X111315477Y-54278810D01*
X111267858Y-54469286D01*
X111220239Y-54564524D01*
X111125001Y-54659762D01*
X110982143Y-54707381D01*
X110744048Y-54707381D01*
X112315477Y-54707381D02*
X111982143Y-54231190D01*
X111744048Y-54707381D02*
X111744048Y-53707381D01*
X112125001Y-53707381D01*
X112220239Y-53755000D01*
X112267858Y-53802619D01*
X112315477Y-53897857D01*
X112315477Y-54040714D01*
X112267858Y-54135952D01*
X112220239Y-54183571D01*
X112125001Y-54231190D01*
X111744048Y-54231190D01*
X112791667Y-54707381D02*
X112982143Y-54707381D01*
X113077382Y-54659762D01*
X113125001Y-54612143D01*
X113220239Y-54469286D01*
X113267858Y-54278810D01*
X113267858Y-53897857D01*
X113220239Y-53802619D01*
X113172620Y-53755000D01*
X113077382Y-53707381D01*
X112886905Y-53707381D01*
X112791667Y-53755000D01*
X112744048Y-53802619D01*
X112696429Y-53897857D01*
X112696429Y-54135952D01*
X112744048Y-54231190D01*
X112791667Y-54278810D01*
X112886905Y-54326429D01*
X113077382Y-54326429D01*
X113172620Y-54278810D01*
X113220239Y-54231190D01*
X113267858Y-54135952D01*
X128079762Y-54707381D02*
X127603571Y-54707381D01*
X127603571Y-53707381D01*
X128413095Y-54183571D02*
X128746429Y-54183571D01*
X128889286Y-54707381D02*
X128413095Y-54707381D01*
X128413095Y-53707381D01*
X128889286Y-53707381D01*
X129317857Y-54707381D02*
X129317857Y-53707381D01*
X129555952Y-53707381D01*
X129698810Y-53755000D01*
X129794048Y-53850238D01*
X129841667Y-53945476D01*
X129889286Y-54135952D01*
X129889286Y-54278810D01*
X129841667Y-54469286D01*
X129794048Y-54564524D01*
X129698810Y-54659762D01*
X129555952Y-54707381D01*
X129317857Y-54707381D01*
X130889286Y-54707381D02*
X130555952Y-54231190D01*
X130317857Y-54707381D02*
X130317857Y-53707381D01*
X130698810Y-53707381D01*
X130794048Y-53755000D01*
X130841667Y-53802619D01*
X130889286Y-53897857D01*
X130889286Y-54040714D01*
X130841667Y-54135952D01*
X130794048Y-54183571D01*
X130698810Y-54231190D01*
X130317857Y-54231190D01*
X131841667Y-54707381D02*
X131270238Y-54707381D01*
X131555952Y-54707381D02*
X131555952Y-53707381D01*
X131460714Y-53850238D01*
X131365476Y-53945476D01*
X131270238Y-53993095D01*
X132460714Y-53707381D02*
X132555953Y-53707381D01*
X132651191Y-53755000D01*
X132698810Y-53802619D01*
X132746429Y-53897857D01*
X132794048Y-54088333D01*
X132794048Y-54326429D01*
X132746429Y-54516905D01*
X132698810Y-54612143D01*
X132651191Y-54659762D01*
X132555953Y-54707381D01*
X132460714Y-54707381D01*
X132365476Y-54659762D01*
X132317857Y-54612143D01*
X132270238Y-54516905D01*
X132222619Y-54326429D01*
X132222619Y-54088333D01*
X132270238Y-53897857D01*
X132317857Y-53802619D01*
X132365476Y-53755000D01*
X132460714Y-53707381D01*
X147129762Y-54707381D02*
X146653571Y-54707381D01*
X146653571Y-53707381D01*
X147463095Y-54183571D02*
X147796429Y-54183571D01*
X147939286Y-54707381D02*
X147463095Y-54707381D01*
X147463095Y-53707381D01*
X147939286Y-53707381D01*
X148367857Y-54707381D02*
X148367857Y-53707381D01*
X148605952Y-53707381D01*
X148748810Y-53755000D01*
X148844048Y-53850238D01*
X148891667Y-53945476D01*
X148939286Y-54135952D01*
X148939286Y-54278810D01*
X148891667Y-54469286D01*
X148844048Y-54564524D01*
X148748810Y-54659762D01*
X148605952Y-54707381D01*
X148367857Y-54707381D01*
X149939286Y-54707381D02*
X149605952Y-54231190D01*
X149367857Y-54707381D02*
X149367857Y-53707381D01*
X149748810Y-53707381D01*
X149844048Y-53755000D01*
X149891667Y-53802619D01*
X149939286Y-53897857D01*
X149939286Y-54040714D01*
X149891667Y-54135952D01*
X149844048Y-54183571D01*
X149748810Y-54231190D01*
X149367857Y-54231190D01*
X150891667Y-54707381D02*
X150320238Y-54707381D01*
X150605952Y-54707381D02*
X150605952Y-53707381D01*
X150510714Y-53850238D01*
X150415476Y-53945476D01*
X150320238Y-53993095D01*
X151844048Y-54707381D02*
X151272619Y-54707381D01*
X151558333Y-54707381D02*
X151558333Y-53707381D01*
X151463095Y-53850238D01*
X151367857Y-53945476D01*
X151272619Y-53993095D01*
X166179762Y-54707381D02*
X165703571Y-54707381D01*
X165703571Y-53707381D01*
X166513095Y-54183571D02*
X166846429Y-54183571D01*
X166989286Y-54707381D02*
X166513095Y-54707381D01*
X166513095Y-53707381D01*
X166989286Y-53707381D01*
X167417857Y-54707381D02*
X167417857Y-53707381D01*
X167655952Y-53707381D01*
X167798810Y-53755000D01*
X167894048Y-53850238D01*
X167941667Y-53945476D01*
X167989286Y-54135952D01*
X167989286Y-54278810D01*
X167941667Y-54469286D01*
X167894048Y-54564524D01*
X167798810Y-54659762D01*
X167655952Y-54707381D01*
X167417857Y-54707381D01*
X168989286Y-54707381D02*
X168655952Y-54231190D01*
X168417857Y-54707381D02*
X168417857Y-53707381D01*
X168798810Y-53707381D01*
X168894048Y-53755000D01*
X168941667Y-53802619D01*
X168989286Y-53897857D01*
X168989286Y-54040714D01*
X168941667Y-54135952D01*
X168894048Y-54183571D01*
X168798810Y-54231190D01*
X168417857Y-54231190D01*
X169941667Y-54707381D02*
X169370238Y-54707381D01*
X169655952Y-54707381D02*
X169655952Y-53707381D01*
X169560714Y-53850238D01*
X169465476Y-53945476D01*
X169370238Y-53993095D01*
X170322619Y-53802619D02*
X170370238Y-53755000D01*
X170465476Y-53707381D01*
X170703572Y-53707381D01*
X170798810Y-53755000D01*
X170846429Y-53802619D01*
X170894048Y-53897857D01*
X170894048Y-53993095D01*
X170846429Y-54135952D01*
X170275000Y-54707381D01*
X170894048Y-54707381D01*
X185229762Y-54707381D02*
X184753571Y-54707381D01*
X184753571Y-53707381D01*
X185563095Y-54183571D02*
X185896429Y-54183571D01*
X186039286Y-54707381D02*
X185563095Y-54707381D01*
X185563095Y-53707381D01*
X186039286Y-53707381D01*
X186467857Y-54707381D02*
X186467857Y-53707381D01*
X186705952Y-53707381D01*
X186848810Y-53755000D01*
X186944048Y-53850238D01*
X186991667Y-53945476D01*
X187039286Y-54135952D01*
X187039286Y-54278810D01*
X186991667Y-54469286D01*
X186944048Y-54564524D01*
X186848810Y-54659762D01*
X186705952Y-54707381D01*
X186467857Y-54707381D01*
X188039286Y-54707381D02*
X187705952Y-54231190D01*
X187467857Y-54707381D02*
X187467857Y-53707381D01*
X187848810Y-53707381D01*
X187944048Y-53755000D01*
X187991667Y-53802619D01*
X188039286Y-53897857D01*
X188039286Y-54040714D01*
X187991667Y-54135952D01*
X187944048Y-54183571D01*
X187848810Y-54231190D01*
X187467857Y-54231190D01*
X188991667Y-54707381D02*
X188420238Y-54707381D01*
X188705952Y-54707381D02*
X188705952Y-53707381D01*
X188610714Y-53850238D01*
X188515476Y-53945476D01*
X188420238Y-53993095D01*
X189325000Y-53707381D02*
X189944048Y-53707381D01*
X189610714Y-54088333D01*
X189753572Y-54088333D01*
X189848810Y-54135952D01*
X189896429Y-54183571D01*
X189944048Y-54278810D01*
X189944048Y-54516905D01*
X189896429Y-54612143D01*
X189848810Y-54659762D01*
X189753572Y-54707381D01*
X189467857Y-54707381D01*
X189372619Y-54659762D01*
X189325000Y-54612143D01*
X204279762Y-54707381D02*
X203803571Y-54707381D01*
X203803571Y-53707381D01*
X204613095Y-54183571D02*
X204946429Y-54183571D01*
X205089286Y-54707381D02*
X204613095Y-54707381D01*
X204613095Y-53707381D01*
X205089286Y-53707381D01*
X205517857Y-54707381D02*
X205517857Y-53707381D01*
X205755952Y-53707381D01*
X205898810Y-53755000D01*
X205994048Y-53850238D01*
X206041667Y-53945476D01*
X206089286Y-54135952D01*
X206089286Y-54278810D01*
X206041667Y-54469286D01*
X205994048Y-54564524D01*
X205898810Y-54659762D01*
X205755952Y-54707381D01*
X205517857Y-54707381D01*
X207089286Y-54707381D02*
X206755952Y-54231190D01*
X206517857Y-54707381D02*
X206517857Y-53707381D01*
X206898810Y-53707381D01*
X206994048Y-53755000D01*
X207041667Y-53802619D01*
X207089286Y-53897857D01*
X207089286Y-54040714D01*
X207041667Y-54135952D01*
X206994048Y-54183571D01*
X206898810Y-54231190D01*
X206517857Y-54231190D01*
X208041667Y-54707381D02*
X207470238Y-54707381D01*
X207755952Y-54707381D02*
X207755952Y-53707381D01*
X207660714Y-53850238D01*
X207565476Y-53945476D01*
X207470238Y-53993095D01*
X208898810Y-54040714D02*
X208898810Y-54707381D01*
X208660714Y-53659762D02*
X208422619Y-54374048D01*
X209041667Y-54374048D01*
X185229762Y-25497381D02*
X184753571Y-25497381D01*
X184753571Y-24497381D01*
X185563095Y-24973571D02*
X185896429Y-24973571D01*
X186039286Y-25497381D02*
X185563095Y-25497381D01*
X185563095Y-24497381D01*
X186039286Y-24497381D01*
X186467857Y-25497381D02*
X186467857Y-24497381D01*
X186705952Y-24497381D01*
X186848810Y-24545000D01*
X186944048Y-24640238D01*
X186991667Y-24735476D01*
X187039286Y-24925952D01*
X187039286Y-25068810D01*
X186991667Y-25259286D01*
X186944048Y-25354524D01*
X186848810Y-25449762D01*
X186705952Y-25497381D01*
X186467857Y-25497381D01*
X188039286Y-25497381D02*
X187705952Y-25021190D01*
X187467857Y-25497381D02*
X187467857Y-24497381D01*
X187848810Y-24497381D01*
X187944048Y-24545000D01*
X187991667Y-24592619D01*
X188039286Y-24687857D01*
X188039286Y-24830714D01*
X187991667Y-24925952D01*
X187944048Y-24973571D01*
X187848810Y-25021190D01*
X187467857Y-25021190D01*
X188991667Y-25497381D02*
X188420238Y-25497381D01*
X188705952Y-25497381D02*
X188705952Y-24497381D01*
X188610714Y-24640238D01*
X188515476Y-24735476D01*
X188420238Y-24783095D01*
X189896429Y-24497381D02*
X189420238Y-24497381D01*
X189372619Y-24973571D01*
X189420238Y-24925952D01*
X189515476Y-24878333D01*
X189753572Y-24878333D01*
X189848810Y-24925952D01*
X189896429Y-24973571D01*
X189944048Y-25068810D01*
X189944048Y-25306905D01*
X189896429Y-25402143D01*
X189848810Y-25449762D01*
X189753572Y-25497381D01*
X189515476Y-25497381D01*
X189420238Y-25449762D01*
X189372619Y-25402143D01*
X204279762Y-25497381D02*
X203803571Y-25497381D01*
X203803571Y-24497381D01*
X204613095Y-24973571D02*
X204946429Y-24973571D01*
X205089286Y-25497381D02*
X204613095Y-25497381D01*
X204613095Y-24497381D01*
X205089286Y-24497381D01*
X205517857Y-25497381D02*
X205517857Y-24497381D01*
X205755952Y-24497381D01*
X205898810Y-24545000D01*
X205994048Y-24640238D01*
X206041667Y-24735476D01*
X206089286Y-24925952D01*
X206089286Y-25068810D01*
X206041667Y-25259286D01*
X205994048Y-25354524D01*
X205898810Y-25449762D01*
X205755952Y-25497381D01*
X205517857Y-25497381D01*
X207089286Y-25497381D02*
X206755952Y-25021190D01*
X206517857Y-25497381D02*
X206517857Y-24497381D01*
X206898810Y-24497381D01*
X206994048Y-24545000D01*
X207041667Y-24592619D01*
X207089286Y-24687857D01*
X207089286Y-24830714D01*
X207041667Y-24925952D01*
X206994048Y-24973571D01*
X206898810Y-25021190D01*
X206517857Y-25021190D01*
X208041667Y-25497381D02*
X207470238Y-25497381D01*
X207755952Y-25497381D02*
X207755952Y-24497381D01*
X207660714Y-24640238D01*
X207565476Y-24735476D01*
X207470238Y-24783095D01*
X208898810Y-24497381D02*
X208708333Y-24497381D01*
X208613095Y-24545000D01*
X208565476Y-24592619D01*
X208470238Y-24735476D01*
X208422619Y-24925952D01*
X208422619Y-25306905D01*
X208470238Y-25402143D01*
X208517857Y-25449762D01*
X208613095Y-25497381D01*
X208803572Y-25497381D01*
X208898810Y-25449762D01*
X208946429Y-25402143D01*
X208994048Y-25306905D01*
X208994048Y-25068810D01*
X208946429Y-24973571D01*
X208898810Y-24925952D01*
X208803572Y-24878333D01*
X208613095Y-24878333D01*
X208517857Y-24925952D01*
X208470238Y-24973571D01*
X208422619Y-25068810D01*
D14*
X170053095Y-40937381D02*
X170053095Y-41746905D01*
X170100714Y-41842143D01*
X170148333Y-41889762D01*
X170243571Y-41937381D01*
X170434048Y-41937381D01*
X170529286Y-41889762D01*
X170576905Y-41842143D01*
X170624524Y-41746905D01*
X170624524Y-40937381D01*
X171576905Y-40937381D02*
X171100714Y-40937381D01*
X171053095Y-41413571D01*
X171100714Y-41365952D01*
X171195952Y-41318333D01*
X171434048Y-41318333D01*
X171529286Y-41365952D01*
X171576905Y-41413571D01*
X171624524Y-41508810D01*
X171624524Y-41746905D01*
X171576905Y-41842143D01*
X171529286Y-41889762D01*
X171434048Y-41937381D01*
X171195952Y-41937381D01*
X171100714Y-41889762D01*
X171053095Y-41842143D01*
D11*
X188725714Y-42902381D02*
X188725714Y-41902381D01*
X189297143Y-42902381D02*
X188868571Y-42330952D01*
X189297143Y-41902381D02*
X188725714Y-42473810D01*
X190249524Y-42902381D02*
X189678095Y-42902381D01*
X189963809Y-42902381D02*
X189963809Y-41902381D01*
X189868571Y-42045238D01*
X189773333Y-42140476D01*
X189678095Y-42188095D01*
X190582857Y-41902381D02*
X191249524Y-41902381D01*
X190820952Y-42902381D01*
X207775714Y-42902381D02*
X207775714Y-41902381D01*
X208347143Y-42902381D02*
X207918571Y-42330952D01*
X208347143Y-41902381D02*
X207775714Y-42473810D01*
X209299524Y-42902381D02*
X208728095Y-42902381D01*
X209013809Y-42902381D02*
X209013809Y-41902381D01*
X208918571Y-42045238D01*
X208823333Y-42140476D01*
X208728095Y-42188095D01*
X209870952Y-42330952D02*
X209775714Y-42283333D01*
X209728095Y-42235714D01*
X209680476Y-42140476D01*
X209680476Y-42092857D01*
X209728095Y-41997619D01*
X209775714Y-41950000D01*
X209870952Y-41902381D01*
X210061429Y-41902381D01*
X210156667Y-41950000D01*
X210204286Y-41997619D01*
X210251905Y-42092857D01*
X210251905Y-42140476D01*
X210204286Y-42235714D01*
X210156667Y-42283333D01*
X210061429Y-42330952D01*
X209870952Y-42330952D01*
X209775714Y-42378571D01*
X209728095Y-42426190D01*
X209680476Y-42521429D01*
X209680476Y-42711905D01*
X209728095Y-42807143D01*
X209775714Y-42854762D01*
X209870952Y-42902381D01*
X210061429Y-42902381D01*
X210156667Y-42854762D01*
X210204286Y-42807143D01*
X210251905Y-42711905D01*
X210251905Y-42521429D01*
X210204286Y-42426190D01*
X210156667Y-42378571D01*
X210061429Y-42330952D01*
X91667381Y-48494286D02*
X90667381Y-48494286D01*
X91667381Y-47922857D02*
X91095952Y-48351429D01*
X90667381Y-47922857D02*
X91238810Y-48494286D01*
X91667381Y-46970476D02*
X91667381Y-47541905D01*
X91667381Y-47256191D02*
X90667381Y-47256191D01*
X90810238Y-47351429D01*
X90905476Y-47446667D01*
X90953095Y-47541905D01*
X91667381Y-46494286D02*
X91667381Y-46303810D01*
X91619762Y-46208571D01*
X91572143Y-46160952D01*
X91429286Y-46065714D01*
X91238810Y-46018095D01*
X90857857Y-46018095D01*
X90762619Y-46065714D01*
X90715000Y-46113333D01*
X90667381Y-46208571D01*
X90667381Y-46399048D01*
X90715000Y-46494286D01*
X90762619Y-46541905D01*
X90857857Y-46589524D01*
X91095952Y-46589524D01*
X91191190Y-46541905D01*
X91238810Y-46494286D01*
X91286429Y-46399048D01*
X91286429Y-46208571D01*
X91238810Y-46113333D01*
X91191190Y-46065714D01*
X91095952Y-46018095D01*
D14*
X112903095Y-40937381D02*
X112903095Y-41746905D01*
X112950714Y-41842143D01*
X112998333Y-41889762D01*
X113093571Y-41937381D01*
X113284048Y-41937381D01*
X113379286Y-41889762D01*
X113426905Y-41842143D01*
X113474524Y-41746905D01*
X113474524Y-40937381D01*
X114474524Y-41937381D02*
X113903095Y-41937381D01*
X114188809Y-41937381D02*
X114188809Y-40937381D01*
X114093571Y-41080238D01*
X113998333Y-41175476D01*
X113903095Y-41223095D01*
X93853095Y-40937381D02*
X93853095Y-41746905D01*
X93900714Y-41842143D01*
X93948333Y-41889762D01*
X94043571Y-41937381D01*
X94234048Y-41937381D01*
X94329286Y-41889762D01*
X94376905Y-41842143D01*
X94424524Y-41746905D01*
X94424524Y-40937381D01*
X94853095Y-41032619D02*
X94900714Y-40985000D01*
X94995952Y-40937381D01*
X95234048Y-40937381D01*
X95329286Y-40985000D01*
X95376905Y-41032619D01*
X95424524Y-41127857D01*
X95424524Y-41223095D01*
X95376905Y-41365952D01*
X94805476Y-41937381D01*
X95424524Y-41937381D01*
D11*
X216201667Y-33892381D02*
X216201667Y-34606667D01*
X216154047Y-34749524D01*
X216058809Y-34844762D01*
X215915952Y-34892381D01*
X215820714Y-34892381D01*
X217201667Y-34892381D02*
X216630238Y-34892381D01*
X216915952Y-34892381D02*
X216915952Y-33892381D01*
X216820714Y-34035238D01*
X216725476Y-34130476D01*
X216630238Y-34178095D01*
X216201667Y-47227381D02*
X216201667Y-47941667D01*
X216154047Y-48084524D01*
X216058809Y-48179762D01*
X215915952Y-48227381D01*
X215820714Y-48227381D01*
X216630238Y-47322619D02*
X216677857Y-47275000D01*
X216773095Y-47227381D01*
X217011191Y-47227381D01*
X217106429Y-47275000D01*
X217154048Y-47322619D01*
X217201667Y-47417857D01*
X217201667Y-47513095D01*
X217154048Y-47655952D01*
X216582619Y-48227381D01*
X217201667Y-48227381D01*
X216201667Y-65007381D02*
X216201667Y-65721667D01*
X216154047Y-65864524D01*
X216058809Y-65959762D01*
X215915952Y-66007381D01*
X215820714Y-66007381D01*
X216582619Y-65007381D02*
X217201667Y-65007381D01*
X216868333Y-65388333D01*
X217011191Y-65388333D01*
X217106429Y-65435952D01*
X217154048Y-65483571D01*
X217201667Y-65578810D01*
X217201667Y-65816905D01*
X217154048Y-65912143D01*
X217106429Y-65959762D01*
X217011191Y-66007381D01*
X216725476Y-66007381D01*
X216630238Y-65959762D01*
X216582619Y-65912143D01*
M02*
