G04 #@! TF.FileFunction,Soldermask,Top*
%FSLAX46Y46*%
G04 Gerber Fmt 4.6, Leading zero omitted, Abs format (unit mm)*
G04 Created by KiCad (PCBNEW 4.0.6+dfsg1-1) date Mon Mar  5 09:48:27 2018*
%MOMM*%
%LPD*%
G01*
G04 APERTURE LIST*
%ADD10C,0.100000*%
%ADD11C,2.000000*%
%ADD12R,2.000000X2.000000*%
%ADD13C,2.686000*%
%ADD14R,1.600000X1.600000*%
%ADD15C,1.600000*%
%ADD16R,2.200000X2.200000*%
%ADD17C,2.200000*%
%ADD18R,2.398980X2.398980*%
%ADD19C,5.800000*%
%ADD20C,1.000000*%
%ADD21C,2.150000*%
%ADD22O,4.400000X4.400000*%
%ADD23C,2.400000*%
%ADD24C,2.500000*%
%ADD25R,2.100000X2.100000*%
%ADD26O,2.100000X2.100000*%
G04 APERTURE END LIST*
D10*
D11*
X132715000Y-53340000D03*
X130175000Y-53340000D03*
X127635000Y-53340000D03*
X125095000Y-53340000D03*
X135255000Y-53340000D03*
X137795000Y-53340000D03*
X140335000Y-53340000D03*
X125095000Y-55880000D03*
X125095000Y-58420000D03*
X125095000Y-60960000D03*
X125095000Y-63500000D03*
X125095000Y-66040000D03*
X125095000Y-68580000D03*
X125095000Y-71120000D03*
X125095000Y-73660000D03*
X125095000Y-76200000D03*
X125095000Y-78740000D03*
X125095000Y-81280000D03*
X125095000Y-83820000D03*
X125095000Y-86360000D03*
X140335000Y-55880000D03*
X140335000Y-58420000D03*
X140335000Y-60960000D03*
X140335000Y-63500000D03*
X140335000Y-66040000D03*
X140335000Y-68580000D03*
X140335000Y-71120000D03*
X140335000Y-73660000D03*
X140335000Y-76200000D03*
X140335000Y-78740000D03*
X140335000Y-81280000D03*
X140335000Y-83820000D03*
D12*
X140335000Y-86360000D03*
D13*
X92075000Y-85725000D03*
X98425000Y-83185000D03*
X111125000Y-85725000D03*
X117475000Y-83185000D03*
X130175000Y-85725000D03*
X136525000Y-83185000D03*
X149225000Y-85725000D03*
X155575000Y-83185000D03*
X168275000Y-85725000D03*
X174625000Y-83185000D03*
X187325000Y-85725000D03*
X193675000Y-83185000D03*
X206375000Y-85725000D03*
X212725000Y-83185000D03*
X92075000Y-66675000D03*
X98425000Y-64135000D03*
X111125000Y-66675000D03*
X117475000Y-64135000D03*
X130175000Y-66675000D03*
X136525000Y-64135000D03*
X149225000Y-66675000D03*
X155575000Y-64135000D03*
X168275000Y-66675000D03*
X174625000Y-64135000D03*
X187325000Y-66675000D03*
X193675000Y-64135000D03*
X206375000Y-66675000D03*
X212725000Y-64135000D03*
X187325000Y-37465000D03*
X193675000Y-34925000D03*
X206375000Y-37465000D03*
X212725000Y-34925000D03*
D14*
X160655000Y-53975000D03*
D15*
X162655000Y-53975000D03*
D16*
X95885000Y-75565000D03*
D17*
X98425000Y-75565000D03*
D16*
X114935000Y-75565000D03*
D17*
X117475000Y-75565000D03*
D16*
X133985000Y-75565000D03*
D17*
X136525000Y-75565000D03*
D16*
X153035000Y-75565000D03*
D17*
X155575000Y-75565000D03*
D16*
X172085000Y-75565000D03*
D17*
X174625000Y-75565000D03*
D16*
X191135000Y-75565000D03*
D17*
X193675000Y-75565000D03*
D16*
X210185000Y-75565000D03*
D17*
X212725000Y-75565000D03*
D16*
X95885000Y-56515000D03*
D17*
X98425000Y-56515000D03*
D16*
X114935000Y-56515000D03*
D17*
X117475000Y-56515000D03*
D16*
X133985000Y-56515000D03*
D17*
X136525000Y-56515000D03*
D16*
X153035000Y-56515000D03*
D17*
X155575000Y-56515000D03*
D16*
X172085000Y-56515000D03*
D17*
X174625000Y-56515000D03*
D16*
X191135000Y-56515000D03*
D17*
X193675000Y-56515000D03*
D16*
X210185000Y-56515000D03*
D17*
X212725000Y-56515000D03*
D16*
X191135000Y-27305000D03*
D17*
X193675000Y-27305000D03*
D16*
X210185000Y-27305000D03*
D17*
X212725000Y-27305000D03*
D16*
X129540000Y-34290000D03*
D17*
X129540000Y-31750000D03*
D16*
X131445000Y-29210000D03*
D17*
X131445000Y-26670000D03*
D16*
X133350000Y-34290000D03*
D17*
X133350000Y-31750000D03*
D16*
X135255000Y-29210000D03*
D17*
X135255000Y-26670000D03*
D16*
X137160000Y-34290000D03*
D17*
X137160000Y-31750000D03*
D16*
X140970000Y-34290000D03*
D17*
X140970000Y-31750000D03*
D16*
X142875000Y-29210000D03*
D17*
X142875000Y-26670000D03*
D16*
X144780000Y-34290000D03*
D17*
X144780000Y-31750000D03*
D16*
X146685000Y-29210000D03*
D17*
X146685000Y-26670000D03*
D16*
X148590000Y-34290000D03*
D17*
X148590000Y-31750000D03*
D16*
X150495000Y-29210000D03*
D17*
X150495000Y-26670000D03*
D16*
X152400000Y-34290000D03*
D17*
X152400000Y-31750000D03*
D16*
X90805000Y-75565000D03*
D17*
X93345000Y-75565000D03*
D16*
X109855000Y-75565000D03*
D17*
X112395000Y-75565000D03*
D16*
X128905000Y-75565000D03*
D17*
X131445000Y-75565000D03*
D16*
X147955000Y-75565000D03*
D17*
X150495000Y-75565000D03*
D16*
X167005000Y-75565000D03*
D17*
X169545000Y-75565000D03*
D16*
X186055000Y-75565000D03*
D17*
X188595000Y-75565000D03*
D16*
X205105000Y-75565000D03*
D17*
X207645000Y-75565000D03*
D16*
X90805000Y-56515000D03*
D17*
X93345000Y-56515000D03*
D16*
X109855000Y-56515000D03*
D17*
X112395000Y-56515000D03*
D16*
X128905000Y-56515000D03*
D17*
X131445000Y-56515000D03*
D16*
X147955000Y-56515000D03*
D17*
X150495000Y-56515000D03*
D16*
X167005000Y-56515000D03*
D17*
X169545000Y-56515000D03*
D16*
X186055000Y-56515000D03*
D17*
X188595000Y-56515000D03*
D16*
X205105000Y-56515000D03*
D17*
X207645000Y-56515000D03*
D16*
X186055000Y-27305000D03*
D17*
X188595000Y-27305000D03*
D16*
X205105000Y-27305000D03*
D17*
X207645000Y-27305000D03*
D18*
X142240000Y-49451260D03*
X142240000Y-39448740D03*
D19*
X104260000Y-71120000D03*
D20*
X106285000Y-71120000D03*
X105691891Y-72551891D03*
X104260000Y-73145000D03*
X102828109Y-72551891D03*
X102235000Y-71120000D03*
X102828109Y-69688109D03*
X104260000Y-69095000D03*
X105691891Y-69688109D03*
D19*
X161290000Y-71120000D03*
D20*
X163315000Y-71120000D03*
X162721891Y-72551891D03*
X161290000Y-73145000D03*
X159858109Y-72551891D03*
X159265000Y-71120000D03*
X159858109Y-69688109D03*
X161290000Y-69095000D03*
X162721891Y-69688109D03*
D19*
X199390000Y-71120000D03*
D20*
X201415000Y-71120000D03*
X200821891Y-72551891D03*
X199390000Y-73145000D03*
X197958109Y-72551891D03*
X197365000Y-71120000D03*
X197958109Y-69688109D03*
X199390000Y-69095000D03*
X200821891Y-69688109D03*
D19*
X199390000Y-41910000D03*
D20*
X201415000Y-41910000D03*
X200821891Y-43341891D03*
X199390000Y-43935000D03*
X197958109Y-43341891D03*
X197365000Y-41910000D03*
X197958109Y-40478109D03*
X199390000Y-39885000D03*
X200821891Y-40478109D03*
D19*
X171450000Y-46355000D03*
D20*
X173475000Y-46355000D03*
X172881891Y-47786891D03*
X171450000Y-48380000D03*
X170018109Y-47786891D03*
X169425000Y-46355000D03*
X170018109Y-44923109D03*
X171450000Y-44330000D03*
X172881891Y-44923109D03*
D19*
X104140000Y-41910000D03*
D20*
X106165000Y-41910000D03*
X105571891Y-43341891D03*
X104140000Y-43935000D03*
X102708109Y-43341891D03*
X102115000Y-41910000D03*
X102708109Y-40478109D03*
X104140000Y-39885000D03*
X105571891Y-40478109D03*
D21*
X173315000Y-24885000D03*
X168315000Y-24885000D03*
X170815000Y-24885000D03*
X168315000Y-39385000D03*
X173315000Y-39385000D03*
D22*
X164615000Y-32385000D03*
X177015000Y-32385000D03*
D14*
X125095000Y-36830000D03*
D15*
X125095000Y-34830000D03*
D23*
X186690000Y-48950000D03*
X186690000Y-44450000D03*
X193190000Y-48950000D03*
X193190000Y-44450000D03*
X205740000Y-48950000D03*
X205740000Y-44450000D03*
X212240000Y-48950000D03*
X212240000Y-44450000D03*
D24*
X92025000Y-43770000D03*
D21*
X89535000Y-45030000D03*
X89535000Y-49530000D03*
D24*
X92025000Y-50780000D03*
D21*
X116165000Y-24885000D03*
X111165000Y-24885000D03*
X113665000Y-24885000D03*
X111165000Y-39385000D03*
X116165000Y-39385000D03*
D22*
X107465000Y-32385000D03*
X119865000Y-32385000D03*
D21*
X97115000Y-24885000D03*
X92115000Y-24885000D03*
X94615000Y-24885000D03*
X92115000Y-39385000D03*
X97115000Y-39385000D03*
D22*
X88415000Y-32385000D03*
X100815000Y-32385000D03*
D25*
X216535000Y-36830000D03*
D26*
X216535000Y-39370000D03*
X216535000Y-41910000D03*
X216535000Y-44450000D03*
D25*
X216535000Y-50165000D03*
D26*
X216535000Y-52705000D03*
X216535000Y-55245000D03*
X216535000Y-57785000D03*
D25*
X216535000Y-67945000D03*
D26*
X216535000Y-70485000D03*
X216535000Y-73025000D03*
X216535000Y-75565000D03*
M02*
