M48
;DRILL file {KiCad 4.0.6+dfsg1-1} date Sun Mar  4 15:44:50 2018
;FORMAT={-:-/ absolute / inch / decimal}
FMAT,2
INCH,TZ
T1C0.016
T2C0.020
T3C0.024
T4C0.035
T5C0.039
T6C0.039
T7C0.039
T8C0.043
T9C0.051
T10C0.059
T11C0.098
T12C0.106
%
G90
G05
M72
T1
X3.638Y-3.0424
X3.9629Y-1.8559
X4.236Y-2.2385
X4.2998Y-1.9827
X4.3254Y-2.9016
X4.3611Y-2.3442
X4.4674Y-1.8282
X4.5387Y-2.3281
X4.5474Y-1.6574
X4.5838Y-1.6086
X4.5853Y-1.7731
X4.6608Y-2.7057
X4.687Y-1.9997
X4.7841Y-2.5718
X4.8044Y-2.5177
X4.8512Y-2.0211
X4.8822Y-2.3572
X4.8862Y-2.4431
X4.8974Y-1.6957
X4.91Y-2.0319
X4.9635Y-1.4908
X4.9637Y-1.6254
X4.9693Y-3.1557
X4.9743Y-1.6581
X4.9791Y-1.9933
X5.Y-1.5
X5.0311Y-2.042
X5.0639Y-2.5266
X5.0753Y-1.4911
X5.0854Y-2.3275
X5.0873Y-1.8524
X5.1315Y-1.4958
X5.1915Y-3.405
X5.273Y-2.1424
X5.2931Y-1.4093
X5.3427Y-1.6679
X5.3603Y-1.4997
X5.4343Y-2.6664
X5.4567Y-2.6286
X5.457Y-1.3682
X5.4691Y-1.6411
X5.5061Y-1.7551
X5.5319Y-1.8057
X5.6119Y-1.4131
X5.7122Y-2.4186
X5.7278Y-2.2613
X5.771Y-1.6411
X5.8258Y-2.0373
X5.8351Y-1.6411
X5.8896Y-2.8435
X5.9009Y-2.0315
X5.9013Y-1.5054
X5.9134Y-1.7659
X5.9399Y-2.3076
X5.9667Y-2.0054
X5.9881Y-1.7378
X6.004Y-1.4981
X6.1944Y-1.8671
X6.2407Y-2.0954
X6.2701Y-1.712
X6.2945Y-1.83
X6.2969Y-1.9952
X6.3894Y-2.2288
X6.4139Y-2.1768
X6.4522Y-2.6759
X6.4825Y-2.0424
X6.5604Y-2.0629
X6.6696Y-2.0923
X6.8959Y-1.6496
X6.9057Y-1.4867
X6.9621Y-2.025
X6.9629Y-1.6235
X6.9679Y-1.5674
X7.1949Y-2.2741
X7.5117Y-1.6745
X7.6885Y-2.1506
T2
X4.0203Y-1.65
X4.025Y-2.8
X4.0436Y-1.5936
X4.0436Y-1.7064
X4.0484Y-2.7436
X4.0484Y-2.8564
X4.1Y-1.5703
X4.1Y-1.7297
X4.1047Y-2.7203
X4.1047Y-2.8797
X4.1564Y-1.5936
X4.1564Y-1.7064
X4.1611Y-2.7436
X4.1611Y-2.8564
X4.1797Y-1.65
X4.1844Y-2.8
X6.2703Y-2.8
X6.2936Y-2.7436
X6.2936Y-2.8564
X6.35Y-2.7203
X6.35Y-2.8797
X6.4064Y-2.7436
X6.4064Y-2.8564
X6.4297Y-2.8
X6.6703Y-1.825
X6.6936Y-1.7686
X6.6936Y-1.8814
X6.75Y-1.7453
X6.75Y-1.9047
X6.8064Y-1.7686
X6.8064Y-1.8814
X6.8297Y-1.825
X7.7703Y-1.65
X7.7703Y-2.8
X7.7936Y-1.5936
X7.7936Y-1.7064
X7.7936Y-2.7436
X7.7936Y-2.8564
X7.85Y-1.5703
X7.85Y-1.7297
X7.85Y-2.7203
X7.85Y-2.8797
X7.9064Y-1.5936
X7.9064Y-1.7064
X7.9064Y-2.7436
X7.9064Y-2.8564
X7.9297Y-1.65
X7.9297Y-2.8
T3
X4.925Y-1.3713
X4.925Y-1.45
X6.325Y-2.125
X6.4037Y-2.125
T4
X3.575Y-2.225
X3.575Y-2.975
X3.675Y-2.225
X3.675Y-2.975
X3.775Y-2.225
X3.775Y-2.975
X3.875Y-2.225
X3.875Y-2.975
X4.325Y-2.225
X4.325Y-2.975
X4.425Y-2.225
X4.425Y-2.975
X4.525Y-2.225
X4.525Y-2.975
X4.625Y-2.225
X4.625Y-2.975
X5.075Y-2.225
X5.075Y-2.975
X5.1Y-1.25
X5.1Y-1.35
X5.175Y-1.05
X5.175Y-1.15
X5.175Y-2.225
X5.175Y-2.975
X5.25Y-1.25
X5.25Y-1.35
X5.275Y-2.225
X5.275Y-2.975
X5.325Y-1.05
X5.325Y-1.15
X5.375Y-2.225
X5.375Y-2.975
X5.4Y-1.25
X5.4Y-1.35
X5.55Y-1.25
X5.55Y-1.35
X5.625Y-1.05
X5.625Y-1.15
X5.7Y-1.25
X5.7Y-1.35
X5.775Y-1.05
X5.775Y-1.15
X5.825Y-2.225
X5.825Y-2.975
X5.85Y-1.25
X5.85Y-1.35
X5.925Y-1.05
X5.925Y-1.15
X5.925Y-2.225
X5.925Y-2.975
X6.Y-1.25
X6.Y-1.35
X6.025Y-2.225
X6.025Y-2.975
X6.125Y-2.225
X6.125Y-2.975
X6.575Y-2.225
X6.575Y-2.975
X6.675Y-2.225
X6.675Y-2.975
X6.775Y-2.225
X6.775Y-2.975
X6.875Y-2.225
X6.875Y-2.975
X7.325Y-1.075
X7.325Y-2.225
X7.325Y-2.975
X7.425Y-1.075
X7.425Y-2.225
X7.425Y-2.975
X7.525Y-1.075
X7.525Y-2.225
X7.525Y-2.975
X7.625Y-1.075
X7.625Y-2.225
X7.625Y-2.975
X8.075Y-1.075
X8.075Y-2.225
X8.075Y-2.975
X8.175Y-1.075
X8.175Y-2.225
X8.175Y-2.975
X8.275Y-1.075
X8.275Y-2.225
X8.275Y-2.975
X8.375Y-1.075
X8.375Y-2.225
X8.375Y-2.975
T5
X3.525Y-1.7728
X3.525Y-1.95
T6
X8.525Y-1.45
X8.525Y-1.55
X8.525Y-1.65
X8.525Y-1.75
X8.525Y-1.975
X8.525Y-2.075
X8.525Y-2.175
X8.525Y-2.275
X8.525Y-2.675
X8.525Y-2.775
X8.525Y-2.875
X8.525Y-2.975
T7
X5.6Y-1.5531
X5.6Y-1.9469
T8
X3.6266Y-0.9797
X3.6266Y-1.5506
X3.725Y-0.9797
X3.8234Y-0.9797
X3.8234Y-1.5506
X4.3766Y-0.9797
X4.3766Y-1.5506
X4.475Y-0.9797
X4.5734Y-0.9797
X4.5734Y-1.5506
X4.925Y-2.1
X4.925Y-2.2
X4.925Y-2.3
X4.925Y-2.4
X4.925Y-2.5
X4.925Y-2.6
X4.925Y-2.7
X4.925Y-2.8
X4.925Y-2.9
X4.925Y-3.
X4.925Y-3.1
X4.925Y-3.2
X4.925Y-3.3
X4.925Y-3.4
X5.025Y-2.1
X5.125Y-2.1
X5.225Y-2.1
X5.325Y-2.1
X5.425Y-2.1
X5.525Y-2.1
X5.525Y-2.2
X5.525Y-2.3
X5.525Y-2.4
X5.525Y-2.5
X5.525Y-2.6
X5.525Y-2.7
X5.525Y-2.8
X5.525Y-2.9
X5.525Y-3.
X5.525Y-3.1
X5.525Y-3.2
X5.525Y-3.3
X5.525Y-3.4
X6.6266Y-0.9797
X6.6266Y-1.5506
X6.725Y-0.9797
X6.8234Y-0.9797
X6.8234Y-1.5506
X7.35Y-1.75
X7.35Y-1.9272
X7.6059Y-1.75
X7.6059Y-1.9272
X8.1Y-1.75
X8.1Y-1.9272
X8.3559Y-1.75
X8.3559Y-1.9272
T9
X3.623Y-1.7232
X3.623Y-1.9992
T10
X3.625Y-2.625
X3.625Y-3.375
X3.875Y-2.525
X3.875Y-3.275
X4.375Y-2.625
X4.375Y-3.375
X4.625Y-2.525
X4.625Y-3.275
X5.125Y-2.625
X5.125Y-3.375
X5.375Y-2.525
X5.375Y-3.275
X5.875Y-2.625
X5.875Y-3.375
X6.125Y-2.525
X6.125Y-3.275
X6.625Y-2.625
X6.625Y-3.375
X6.875Y-2.525
X6.875Y-3.275
X7.375Y-1.475
X7.375Y-2.625
X7.375Y-3.375
X7.625Y-1.375
X7.625Y-2.525
X7.625Y-3.275
X8.125Y-1.475
X8.125Y-2.625
X8.125Y-3.375
X8.375Y-1.375
X8.375Y-2.525
X8.375Y-3.275
T11
X3.4809Y-1.275
X3.9691Y-1.275
X4.2309Y-1.275
X4.7191Y-1.275
X6.4809Y-1.275
X6.9691Y-1.275
T12
X4.1Y-1.65
X4.1047Y-2.8
X6.35Y-2.8
X6.75Y-1.825
X7.85Y-1.65
X7.85Y-2.8
T0
M30
