G04 #@! TF.FileFunction,Legend,Bot*
%FSLAX46Y46*%
G04 Gerber Fmt 4.6, Leading zero omitted, Abs format (unit mm)*
G04 Created by KiCad (PCBNEW 4.0.6+dfsg1-1) date Mon Mar  5 09:48:27 2018*
%MOMM*%
%LPD*%
G01*
G04 APERTURE LIST*
%ADD10C,0.100000*%
%ADD11C,0.150000*%
%ADD12C,0.120000*%
G04 APERTURE END LIST*
D10*
D11*
X145160000Y-40575000D02*
X145435000Y-40575000D01*
X145160000Y-48325000D02*
X145525000Y-48325000D01*
X160910000Y-48325000D02*
X160545000Y-48325000D01*
X160910000Y-40575000D02*
X160545000Y-40575000D01*
X145160000Y-40575000D02*
X145160000Y-48325000D01*
X160910000Y-40575000D02*
X160910000Y-48325000D01*
X145435000Y-40575000D02*
X145435000Y-38750000D01*
D12*
X163594361Y-54754089D02*
G75*
G02X159716005Y-54755000I-1939361J779089D01*
G01*
X163594361Y-53195911D02*
G75*
G03X159716005Y-53195000I-1939361J-779089D01*
G01*
X163594361Y-53195911D02*
G75*
G02X163593995Y-54755000I-1939361J-779089D01*
G01*
X161655000Y-56025000D02*
X161655000Y-51925000D01*
X161695000Y-56025000D02*
X161695000Y-51925000D01*
X161735000Y-56024000D02*
X161735000Y-51926000D01*
X161775000Y-56022000D02*
X161775000Y-51928000D01*
X161815000Y-56019000D02*
X161815000Y-51931000D01*
X161855000Y-56016000D02*
X161855000Y-51934000D01*
X161895000Y-56012000D02*
X161895000Y-54755000D01*
X161895000Y-53195000D02*
X161895000Y-51938000D01*
X161935000Y-56007000D02*
X161935000Y-54755000D01*
X161935000Y-53195000D02*
X161935000Y-51943000D01*
X161975000Y-56001000D02*
X161975000Y-54755000D01*
X161975000Y-53195000D02*
X161975000Y-51949000D01*
X162015000Y-55994000D02*
X162015000Y-54755000D01*
X162015000Y-53195000D02*
X162015000Y-51956000D01*
X162055000Y-55987000D02*
X162055000Y-54755000D01*
X162055000Y-53195000D02*
X162055000Y-51963000D01*
X162095000Y-55979000D02*
X162095000Y-54755000D01*
X162095000Y-53195000D02*
X162095000Y-51971000D01*
X162135000Y-55970000D02*
X162135000Y-54755000D01*
X162135000Y-53195000D02*
X162135000Y-51980000D01*
X162175000Y-55960000D02*
X162175000Y-54755000D01*
X162175000Y-53195000D02*
X162175000Y-51990000D01*
X162215000Y-55949000D02*
X162215000Y-54755000D01*
X162215000Y-53195000D02*
X162215000Y-52001000D01*
X162255000Y-55938000D02*
X162255000Y-54755000D01*
X162255000Y-53195000D02*
X162255000Y-52012000D01*
X162295000Y-55925000D02*
X162295000Y-54755000D01*
X162295000Y-53195000D02*
X162295000Y-52025000D01*
X162335000Y-55912000D02*
X162335000Y-54755000D01*
X162335000Y-53195000D02*
X162335000Y-52038000D01*
X162376000Y-55898000D02*
X162376000Y-54755000D01*
X162376000Y-53195000D02*
X162376000Y-52052000D01*
X162416000Y-55882000D02*
X162416000Y-54755000D01*
X162416000Y-53195000D02*
X162416000Y-52068000D01*
X162456000Y-55866000D02*
X162456000Y-54755000D01*
X162456000Y-53195000D02*
X162456000Y-52084000D01*
X162496000Y-55849000D02*
X162496000Y-54755000D01*
X162496000Y-53195000D02*
X162496000Y-52101000D01*
X162536000Y-55831000D02*
X162536000Y-54755000D01*
X162536000Y-53195000D02*
X162536000Y-52119000D01*
X162576000Y-55812000D02*
X162576000Y-54755000D01*
X162576000Y-53195000D02*
X162576000Y-52138000D01*
X162616000Y-55792000D02*
X162616000Y-54755000D01*
X162616000Y-53195000D02*
X162616000Y-52158000D01*
X162656000Y-55771000D02*
X162656000Y-54755000D01*
X162656000Y-53195000D02*
X162656000Y-52179000D01*
X162696000Y-55748000D02*
X162696000Y-54755000D01*
X162696000Y-53195000D02*
X162696000Y-52202000D01*
X162736000Y-55725000D02*
X162736000Y-54755000D01*
X162736000Y-53195000D02*
X162736000Y-52225000D01*
X162776000Y-55700000D02*
X162776000Y-54755000D01*
X162776000Y-53195000D02*
X162776000Y-52250000D01*
X162816000Y-55674000D02*
X162816000Y-54755000D01*
X162816000Y-53195000D02*
X162816000Y-52276000D01*
X162856000Y-55647000D02*
X162856000Y-54755000D01*
X162856000Y-53195000D02*
X162856000Y-52303000D01*
X162896000Y-55618000D02*
X162896000Y-54755000D01*
X162896000Y-53195000D02*
X162896000Y-52332000D01*
X162936000Y-55588000D02*
X162936000Y-54755000D01*
X162936000Y-53195000D02*
X162936000Y-52362000D01*
X162976000Y-55556000D02*
X162976000Y-54755000D01*
X162976000Y-53195000D02*
X162976000Y-52394000D01*
X163016000Y-55522000D02*
X163016000Y-54755000D01*
X163016000Y-53195000D02*
X163016000Y-52428000D01*
X163056000Y-55487000D02*
X163056000Y-54755000D01*
X163056000Y-53195000D02*
X163056000Y-52463000D01*
X163096000Y-55450000D02*
X163096000Y-54755000D01*
X163096000Y-53195000D02*
X163096000Y-52500000D01*
X163136000Y-55411000D02*
X163136000Y-54755000D01*
X163136000Y-53195000D02*
X163136000Y-52539000D01*
X163176000Y-55370000D02*
X163176000Y-54755000D01*
X163176000Y-53195000D02*
X163176000Y-52580000D01*
X163216000Y-55326000D02*
X163216000Y-54755000D01*
X163216000Y-53195000D02*
X163216000Y-52624000D01*
X163256000Y-55280000D02*
X163256000Y-54755000D01*
X163256000Y-53195000D02*
X163256000Y-52670000D01*
X163296000Y-55231000D02*
X163296000Y-54755000D01*
X163296000Y-53195000D02*
X163296000Y-52719000D01*
X163336000Y-55179000D02*
X163336000Y-54755000D01*
X163336000Y-53195000D02*
X163336000Y-52771000D01*
X163376000Y-55123000D02*
X163376000Y-54755000D01*
X163376000Y-53195000D02*
X163376000Y-52827000D01*
X163416000Y-55063000D02*
X163416000Y-54755000D01*
X163416000Y-53195000D02*
X163416000Y-52887000D01*
X163456000Y-54998000D02*
X163456000Y-52952000D01*
X163496000Y-54927000D02*
X163496000Y-53023000D01*
X163536000Y-54849000D02*
X163536000Y-53101000D01*
X163576000Y-54761000D02*
X163576000Y-53189000D01*
X163616000Y-54661000D02*
X163616000Y-53289000D01*
X163656000Y-54542000D02*
X163656000Y-53408000D01*
X163696000Y-54390000D02*
X163696000Y-53560000D01*
X163736000Y-54140000D02*
X163736000Y-53810000D01*
X158955000Y-53975000D02*
X159855000Y-53975000D01*
X159405000Y-54425000D02*
X159405000Y-53525000D01*
X153535000Y-52920000D02*
X152535000Y-52920000D01*
X152535000Y-51220000D02*
X153535000Y-51220000D01*
X96305000Y-29710000D02*
X96305000Y-28710000D01*
X98005000Y-28710000D02*
X98005000Y-29710000D01*
X110275000Y-29710000D02*
X110275000Y-28710000D01*
X111975000Y-28710000D02*
X111975000Y-29710000D01*
X91225000Y-29710000D02*
X91225000Y-28710000D01*
X92925000Y-28710000D02*
X92925000Y-29710000D01*
X131945000Y-37680000D02*
X130945000Y-37680000D01*
X130945000Y-35980000D02*
X131945000Y-35980000D01*
X112665000Y-51235000D02*
X114665000Y-51235000D01*
X114665000Y-49095000D02*
X112665000Y-49095000D01*
X112665000Y-48060000D02*
X114665000Y-48060000D01*
X114665000Y-45920000D02*
X112665000Y-45920000D01*
D11*
X141097000Y-42799000D02*
X141097000Y-46101000D01*
X143383000Y-44450000D02*
X143383000Y-46101000D01*
X143383000Y-44450000D02*
X143383000Y-42799000D01*
D12*
X172505000Y-29710000D02*
X172505000Y-28710000D01*
X174205000Y-28710000D02*
X174205000Y-29710000D01*
X167425000Y-29710000D02*
X167425000Y-28710000D01*
X169125000Y-28710000D02*
X169125000Y-29710000D01*
X115355000Y-29710000D02*
X115355000Y-28710000D01*
X117055000Y-28710000D02*
X117055000Y-29710000D01*
X125874089Y-33890639D02*
G75*
G02X125875000Y-37768995I-779089J-1939361D01*
G01*
X124315911Y-33890639D02*
G75*
G03X124315000Y-37768995I779089J-1939361D01*
G01*
X124315911Y-33890639D02*
G75*
G02X125875000Y-33891005I779089J-1939361D01*
G01*
X127145000Y-35830000D02*
X123045000Y-35830000D01*
X127145000Y-35790000D02*
X123045000Y-35790000D01*
X127144000Y-35750000D02*
X123046000Y-35750000D01*
X127142000Y-35710000D02*
X123048000Y-35710000D01*
X127139000Y-35670000D02*
X123051000Y-35670000D01*
X127136000Y-35630000D02*
X123054000Y-35630000D01*
X127132000Y-35590000D02*
X125875000Y-35590000D01*
X124315000Y-35590000D02*
X123058000Y-35590000D01*
X127127000Y-35550000D02*
X125875000Y-35550000D01*
X124315000Y-35550000D02*
X123063000Y-35550000D01*
X127121000Y-35510000D02*
X125875000Y-35510000D01*
X124315000Y-35510000D02*
X123069000Y-35510000D01*
X127114000Y-35470000D02*
X125875000Y-35470000D01*
X124315000Y-35470000D02*
X123076000Y-35470000D01*
X127107000Y-35430000D02*
X125875000Y-35430000D01*
X124315000Y-35430000D02*
X123083000Y-35430000D01*
X127099000Y-35390000D02*
X125875000Y-35390000D01*
X124315000Y-35390000D02*
X123091000Y-35390000D01*
X127090000Y-35350000D02*
X125875000Y-35350000D01*
X124315000Y-35350000D02*
X123100000Y-35350000D01*
X127080000Y-35310000D02*
X125875000Y-35310000D01*
X124315000Y-35310000D02*
X123110000Y-35310000D01*
X127069000Y-35270000D02*
X125875000Y-35270000D01*
X124315000Y-35270000D02*
X123121000Y-35270000D01*
X127058000Y-35230000D02*
X125875000Y-35230000D01*
X124315000Y-35230000D02*
X123132000Y-35230000D01*
X127045000Y-35190000D02*
X125875000Y-35190000D01*
X124315000Y-35190000D02*
X123145000Y-35190000D01*
X127032000Y-35150000D02*
X125875000Y-35150000D01*
X124315000Y-35150000D02*
X123158000Y-35150000D01*
X127018000Y-35109000D02*
X125875000Y-35109000D01*
X124315000Y-35109000D02*
X123172000Y-35109000D01*
X127002000Y-35069000D02*
X125875000Y-35069000D01*
X124315000Y-35069000D02*
X123188000Y-35069000D01*
X126986000Y-35029000D02*
X125875000Y-35029000D01*
X124315000Y-35029000D02*
X123204000Y-35029000D01*
X126969000Y-34989000D02*
X125875000Y-34989000D01*
X124315000Y-34989000D02*
X123221000Y-34989000D01*
X126951000Y-34949000D02*
X125875000Y-34949000D01*
X124315000Y-34949000D02*
X123239000Y-34949000D01*
X126932000Y-34909000D02*
X125875000Y-34909000D01*
X124315000Y-34909000D02*
X123258000Y-34909000D01*
X126912000Y-34869000D02*
X125875000Y-34869000D01*
X124315000Y-34869000D02*
X123278000Y-34869000D01*
X126891000Y-34829000D02*
X125875000Y-34829000D01*
X124315000Y-34829000D02*
X123299000Y-34829000D01*
X126868000Y-34789000D02*
X125875000Y-34789000D01*
X124315000Y-34789000D02*
X123322000Y-34789000D01*
X126845000Y-34749000D02*
X125875000Y-34749000D01*
X124315000Y-34749000D02*
X123345000Y-34749000D01*
X126820000Y-34709000D02*
X125875000Y-34709000D01*
X124315000Y-34709000D02*
X123370000Y-34709000D01*
X126794000Y-34669000D02*
X125875000Y-34669000D01*
X124315000Y-34669000D02*
X123396000Y-34669000D01*
X126767000Y-34629000D02*
X125875000Y-34629000D01*
X124315000Y-34629000D02*
X123423000Y-34629000D01*
X126738000Y-34589000D02*
X125875000Y-34589000D01*
X124315000Y-34589000D02*
X123452000Y-34589000D01*
X126708000Y-34549000D02*
X125875000Y-34549000D01*
X124315000Y-34549000D02*
X123482000Y-34549000D01*
X126676000Y-34509000D02*
X125875000Y-34509000D01*
X124315000Y-34509000D02*
X123514000Y-34509000D01*
X126642000Y-34469000D02*
X125875000Y-34469000D01*
X124315000Y-34469000D02*
X123548000Y-34469000D01*
X126607000Y-34429000D02*
X125875000Y-34429000D01*
X124315000Y-34429000D02*
X123583000Y-34429000D01*
X126570000Y-34389000D02*
X125875000Y-34389000D01*
X124315000Y-34389000D02*
X123620000Y-34389000D01*
X126531000Y-34349000D02*
X125875000Y-34349000D01*
X124315000Y-34349000D02*
X123659000Y-34349000D01*
X126490000Y-34309000D02*
X125875000Y-34309000D01*
X124315000Y-34309000D02*
X123700000Y-34309000D01*
X126446000Y-34269000D02*
X125875000Y-34269000D01*
X124315000Y-34269000D02*
X123744000Y-34269000D01*
X126400000Y-34229000D02*
X125875000Y-34229000D01*
X124315000Y-34229000D02*
X123790000Y-34229000D01*
X126351000Y-34189000D02*
X125875000Y-34189000D01*
X124315000Y-34189000D02*
X123839000Y-34189000D01*
X126299000Y-34149000D02*
X125875000Y-34149000D01*
X124315000Y-34149000D02*
X123891000Y-34149000D01*
X126243000Y-34109000D02*
X125875000Y-34109000D01*
X124315000Y-34109000D02*
X123947000Y-34109000D01*
X126183000Y-34069000D02*
X125875000Y-34069000D01*
X124315000Y-34069000D02*
X124007000Y-34069000D01*
X126118000Y-34029000D02*
X124072000Y-34029000D01*
X126047000Y-33989000D02*
X124143000Y-33989000D01*
X125969000Y-33949000D02*
X124221000Y-33949000D01*
X125881000Y-33909000D02*
X124309000Y-33909000D01*
X125781000Y-33869000D02*
X124409000Y-33869000D01*
X125662000Y-33829000D02*
X124528000Y-33829000D01*
X125510000Y-33789000D02*
X124680000Y-33789000D01*
X125260000Y-33749000D02*
X124930000Y-33749000D01*
X125095000Y-38530000D02*
X125095000Y-37630000D01*
X125545000Y-38080000D02*
X124645000Y-38080000D01*
D11*
X119780000Y-40575000D02*
X120030000Y-40575000D01*
X119780000Y-48325000D02*
X120125000Y-48325000D01*
X138030000Y-48325000D02*
X137685000Y-48325000D01*
X138030000Y-40575000D02*
X137685000Y-40575000D01*
X119780000Y-40575000D02*
X119780000Y-48325000D01*
X138030000Y-40575000D02*
X138030000Y-48325000D01*
X120030000Y-40575000D02*
X120030000Y-38750000D01*
X144687381Y-43473810D02*
X143687381Y-43473810D01*
X144592143Y-44521429D02*
X144639762Y-44473810D01*
X144687381Y-44330953D01*
X144687381Y-44235715D01*
X144639762Y-44092857D01*
X144544524Y-43997619D01*
X144449286Y-43950000D01*
X144258810Y-43902381D01*
X144115952Y-43902381D01*
X143925476Y-43950000D01*
X143830238Y-43997619D01*
X143735000Y-44092857D01*
X143687381Y-44235715D01*
X143687381Y-44330953D01*
X143735000Y-44473810D01*
X143782619Y-44521429D01*
X144687381Y-45473810D02*
X144687381Y-44902381D01*
X144687381Y-45188095D02*
X143687381Y-45188095D01*
X143830238Y-45092857D01*
X143925476Y-44997619D01*
X143973095Y-44902381D01*
X161821666Y-57392143D02*
X161869285Y-57439762D01*
X162012142Y-57487381D01*
X162107380Y-57487381D01*
X162250238Y-57439762D01*
X162345476Y-57344524D01*
X162393095Y-57249286D01*
X162440714Y-57058810D01*
X162440714Y-56915952D01*
X162393095Y-56725476D01*
X162345476Y-56630238D01*
X162250238Y-56535000D01*
X162107380Y-56487381D01*
X162012142Y-56487381D01*
X161869285Y-56535000D01*
X161821666Y-56582619D01*
X160869285Y-57487381D02*
X161440714Y-57487381D01*
X161155000Y-57487381D02*
X161155000Y-56487381D01*
X161250238Y-56630238D01*
X161345476Y-56725476D01*
X161440714Y-56773095D01*
X153201666Y-54177143D02*
X153249285Y-54224762D01*
X153392142Y-54272381D01*
X153487380Y-54272381D01*
X153630238Y-54224762D01*
X153725476Y-54129524D01*
X153773095Y-54034286D01*
X153820714Y-53843810D01*
X153820714Y-53700952D01*
X153773095Y-53510476D01*
X153725476Y-53415238D01*
X153630238Y-53320000D01*
X153487380Y-53272381D01*
X153392142Y-53272381D01*
X153249285Y-53320000D01*
X153201666Y-53367619D01*
X152820714Y-53367619D02*
X152773095Y-53320000D01*
X152677857Y-53272381D01*
X152439761Y-53272381D01*
X152344523Y-53320000D01*
X152296904Y-53367619D01*
X152249285Y-53462857D01*
X152249285Y-53558095D01*
X152296904Y-53700952D01*
X152868333Y-54272381D01*
X152249285Y-54272381D01*
X95762143Y-29043334D02*
X95809762Y-28995715D01*
X95857381Y-28852858D01*
X95857381Y-28757620D01*
X95809762Y-28614762D01*
X95714524Y-28519524D01*
X95619286Y-28471905D01*
X95428810Y-28424286D01*
X95285952Y-28424286D01*
X95095476Y-28471905D01*
X95000238Y-28519524D01*
X94905000Y-28614762D01*
X94857381Y-28757620D01*
X94857381Y-28852858D01*
X94905000Y-28995715D01*
X94952619Y-29043334D01*
X95190714Y-29900477D02*
X95857381Y-29900477D01*
X94809762Y-29662381D02*
X95524048Y-29424286D01*
X95524048Y-30043334D01*
X109732143Y-29043334D02*
X109779762Y-28995715D01*
X109827381Y-28852858D01*
X109827381Y-28757620D01*
X109779762Y-28614762D01*
X109684524Y-28519524D01*
X109589286Y-28471905D01*
X109398810Y-28424286D01*
X109255952Y-28424286D01*
X109065476Y-28471905D01*
X108970238Y-28519524D01*
X108875000Y-28614762D01*
X108827381Y-28757620D01*
X108827381Y-28852858D01*
X108875000Y-28995715D01*
X108922619Y-29043334D01*
X108827381Y-29948096D02*
X108827381Y-29471905D01*
X109303571Y-29424286D01*
X109255952Y-29471905D01*
X109208333Y-29567143D01*
X109208333Y-29805239D01*
X109255952Y-29900477D01*
X109303571Y-29948096D01*
X109398810Y-29995715D01*
X109636905Y-29995715D01*
X109732143Y-29948096D01*
X109779762Y-29900477D01*
X109827381Y-29805239D01*
X109827381Y-29567143D01*
X109779762Y-29471905D01*
X109732143Y-29424286D01*
X90682143Y-29043334D02*
X90729762Y-28995715D01*
X90777381Y-28852858D01*
X90777381Y-28757620D01*
X90729762Y-28614762D01*
X90634524Y-28519524D01*
X90539286Y-28471905D01*
X90348810Y-28424286D01*
X90205952Y-28424286D01*
X90015476Y-28471905D01*
X89920238Y-28519524D01*
X89825000Y-28614762D01*
X89777381Y-28757620D01*
X89777381Y-28852858D01*
X89825000Y-28995715D01*
X89872619Y-29043334D01*
X89777381Y-29900477D02*
X89777381Y-29710000D01*
X89825000Y-29614762D01*
X89872619Y-29567143D01*
X90015476Y-29471905D01*
X90205952Y-29424286D01*
X90586905Y-29424286D01*
X90682143Y-29471905D01*
X90729762Y-29519524D01*
X90777381Y-29614762D01*
X90777381Y-29805239D01*
X90729762Y-29900477D01*
X90682143Y-29948096D01*
X90586905Y-29995715D01*
X90348810Y-29995715D01*
X90253571Y-29948096D01*
X90205952Y-29900477D01*
X90158333Y-29805239D01*
X90158333Y-29614762D01*
X90205952Y-29519524D01*
X90253571Y-29471905D01*
X90348810Y-29424286D01*
X131611666Y-38937143D02*
X131659285Y-38984762D01*
X131802142Y-39032381D01*
X131897380Y-39032381D01*
X132040238Y-38984762D01*
X132135476Y-38889524D01*
X132183095Y-38794286D01*
X132230714Y-38603810D01*
X132230714Y-38460952D01*
X132183095Y-38270476D01*
X132135476Y-38175238D01*
X132040238Y-38080000D01*
X131897380Y-38032381D01*
X131802142Y-38032381D01*
X131659285Y-38080000D01*
X131611666Y-38127619D01*
X131040238Y-38460952D02*
X131135476Y-38413333D01*
X131183095Y-38365714D01*
X131230714Y-38270476D01*
X131230714Y-38222857D01*
X131183095Y-38127619D01*
X131135476Y-38080000D01*
X131040238Y-38032381D01*
X130849761Y-38032381D01*
X130754523Y-38080000D01*
X130706904Y-38127619D01*
X130659285Y-38222857D01*
X130659285Y-38270476D01*
X130706904Y-38365714D01*
X130754523Y-38413333D01*
X130849761Y-38460952D01*
X131040238Y-38460952D01*
X131135476Y-38508571D01*
X131183095Y-38556190D01*
X131230714Y-38651429D01*
X131230714Y-38841905D01*
X131183095Y-38937143D01*
X131135476Y-38984762D01*
X131040238Y-39032381D01*
X130849761Y-39032381D01*
X130754523Y-38984762D01*
X130706904Y-38937143D01*
X130659285Y-38841905D01*
X130659285Y-38651429D01*
X130706904Y-38556190D01*
X130754523Y-38508571D01*
X130849761Y-38460952D01*
X113831666Y-48767381D02*
X114165000Y-48291190D01*
X114403095Y-48767381D02*
X114403095Y-47767381D01*
X114022142Y-47767381D01*
X113926904Y-47815000D01*
X113879285Y-47862619D01*
X113831666Y-47957857D01*
X113831666Y-48100714D01*
X113879285Y-48195952D01*
X113926904Y-48243571D01*
X114022142Y-48291190D01*
X114403095Y-48291190D01*
X113450714Y-47862619D02*
X113403095Y-47815000D01*
X113307857Y-47767381D01*
X113069761Y-47767381D01*
X112974523Y-47815000D01*
X112926904Y-47862619D01*
X112879285Y-47957857D01*
X112879285Y-48053095D01*
X112926904Y-48195952D01*
X113498333Y-48767381D01*
X112879285Y-48767381D01*
X113831666Y-45592381D02*
X114165000Y-45116190D01*
X114403095Y-45592381D02*
X114403095Y-44592381D01*
X114022142Y-44592381D01*
X113926904Y-44640000D01*
X113879285Y-44687619D01*
X113831666Y-44782857D01*
X113831666Y-44925714D01*
X113879285Y-45020952D01*
X113926904Y-45068571D01*
X114022142Y-45116190D01*
X114403095Y-45116190D01*
X113498333Y-44592381D02*
X112879285Y-44592381D01*
X113212619Y-44973333D01*
X113069761Y-44973333D01*
X112974523Y-45020952D01*
X112926904Y-45068571D01*
X112879285Y-45163810D01*
X112879285Y-45401905D01*
X112926904Y-45497143D01*
X112974523Y-45544762D01*
X113069761Y-45592381D01*
X113355476Y-45592381D01*
X113450714Y-45544762D01*
X113498333Y-45497143D01*
X145092681Y-44184274D02*
X144616490Y-43850940D01*
X145092681Y-43612845D02*
X144092681Y-43612845D01*
X144092681Y-43993798D01*
X144140300Y-44089036D01*
X144187919Y-44136655D01*
X144283157Y-44184274D01*
X144426014Y-44184274D01*
X144521252Y-44136655D01*
X144568871Y-44089036D01*
X144616490Y-43993798D01*
X144616490Y-43612845D01*
X145092681Y-45136655D02*
X145092681Y-44565226D01*
X145092681Y-44850940D02*
X144092681Y-44850940D01*
X144235538Y-44755702D01*
X144330776Y-44660464D01*
X144378395Y-44565226D01*
X171962143Y-29043334D02*
X172009762Y-28995715D01*
X172057381Y-28852858D01*
X172057381Y-28757620D01*
X172009762Y-28614762D01*
X171914524Y-28519524D01*
X171819286Y-28471905D01*
X171628810Y-28424286D01*
X171485952Y-28424286D01*
X171295476Y-28471905D01*
X171200238Y-28519524D01*
X171105000Y-28614762D01*
X171057381Y-28757620D01*
X171057381Y-28852858D01*
X171105000Y-28995715D01*
X171152619Y-29043334D01*
X172057381Y-29519524D02*
X172057381Y-29710000D01*
X172009762Y-29805239D01*
X171962143Y-29852858D01*
X171819286Y-29948096D01*
X171628810Y-29995715D01*
X171247857Y-29995715D01*
X171152619Y-29948096D01*
X171105000Y-29900477D01*
X171057381Y-29805239D01*
X171057381Y-29614762D01*
X171105000Y-29519524D01*
X171152619Y-29471905D01*
X171247857Y-29424286D01*
X171485952Y-29424286D01*
X171581190Y-29471905D01*
X171628810Y-29519524D01*
X171676429Y-29614762D01*
X171676429Y-29805239D01*
X171628810Y-29900477D01*
X171581190Y-29948096D01*
X171485952Y-29995715D01*
X166882143Y-28567143D02*
X166929762Y-28519524D01*
X166977381Y-28376667D01*
X166977381Y-28281429D01*
X166929762Y-28138571D01*
X166834524Y-28043333D01*
X166739286Y-27995714D01*
X166548810Y-27948095D01*
X166405952Y-27948095D01*
X166215476Y-27995714D01*
X166120238Y-28043333D01*
X166025000Y-28138571D01*
X165977381Y-28281429D01*
X165977381Y-28376667D01*
X166025000Y-28519524D01*
X166072619Y-28567143D01*
X166977381Y-29519524D02*
X166977381Y-28948095D01*
X166977381Y-29233809D02*
X165977381Y-29233809D01*
X166120238Y-29138571D01*
X166215476Y-29043333D01*
X166263095Y-28948095D01*
X165977381Y-30138571D02*
X165977381Y-30233810D01*
X166025000Y-30329048D01*
X166072619Y-30376667D01*
X166167857Y-30424286D01*
X166358333Y-30471905D01*
X166596429Y-30471905D01*
X166786905Y-30424286D01*
X166882143Y-30376667D01*
X166929762Y-30329048D01*
X166977381Y-30233810D01*
X166977381Y-30138571D01*
X166929762Y-30043333D01*
X166882143Y-29995714D01*
X166786905Y-29948095D01*
X166596429Y-29900476D01*
X166358333Y-29900476D01*
X166167857Y-29948095D01*
X166072619Y-29995714D01*
X166025000Y-30043333D01*
X165977381Y-30138571D01*
X114812143Y-29043334D02*
X114859762Y-28995715D01*
X114907381Y-28852858D01*
X114907381Y-28757620D01*
X114859762Y-28614762D01*
X114764524Y-28519524D01*
X114669286Y-28471905D01*
X114478810Y-28424286D01*
X114335952Y-28424286D01*
X114145476Y-28471905D01*
X114050238Y-28519524D01*
X113955000Y-28614762D01*
X113907381Y-28757620D01*
X113907381Y-28852858D01*
X113955000Y-28995715D01*
X114002619Y-29043334D01*
X113907381Y-29376667D02*
X113907381Y-29995715D01*
X114288333Y-29662381D01*
X114288333Y-29805239D01*
X114335952Y-29900477D01*
X114383571Y-29948096D01*
X114478810Y-29995715D01*
X114716905Y-29995715D01*
X114812143Y-29948096D01*
X114859762Y-29900477D01*
X114907381Y-29805239D01*
X114907381Y-29519524D01*
X114859762Y-29424286D01*
X114812143Y-29376667D01*
X128512143Y-35663334D02*
X128559762Y-35615715D01*
X128607381Y-35472858D01*
X128607381Y-35377620D01*
X128559762Y-35234762D01*
X128464524Y-35139524D01*
X128369286Y-35091905D01*
X128178810Y-35044286D01*
X128035952Y-35044286D01*
X127845476Y-35091905D01*
X127750238Y-35139524D01*
X127655000Y-35234762D01*
X127607381Y-35377620D01*
X127607381Y-35472858D01*
X127655000Y-35615715D01*
X127702619Y-35663334D01*
X127607381Y-35996667D02*
X127607381Y-36663334D01*
X128607381Y-36234762D01*
X118307381Y-43688095D02*
X119116905Y-43688095D01*
X119212143Y-43735714D01*
X119259762Y-43783333D01*
X119307381Y-43878571D01*
X119307381Y-44069048D01*
X119259762Y-44164286D01*
X119212143Y-44211905D01*
X119116905Y-44259524D01*
X118307381Y-44259524D01*
X118640714Y-45164286D02*
X119307381Y-45164286D01*
X118259762Y-44926190D02*
X118974048Y-44688095D01*
X118974048Y-45307143D01*
M02*
