G04 #@! TF.FileFunction,Soldermask,Bot*
%FSLAX46Y46*%
G04 Gerber Fmt 4.6, Leading zero omitted, Abs format (unit mm)*
G04 Created by KiCad (PCBNEW 4.0.6+dfsg1-1) date Mon Mar  5 09:48:27 2018*
%MOMM*%
%LPD*%
G01*
G04 APERTURE LIST*
%ADD10C,0.100000*%
%ADD11C,2.000000*%
%ADD12R,2.000000X2.000000*%
%ADD13R,1.000000X2.400000*%
%ADD14C,2.686000*%
%ADD15R,1.600000X1.600000*%
%ADD16C,1.600000*%
%ADD17R,1.900000X1.650000*%
%ADD18R,1.650000X1.900000*%
%ADD19R,2.200000X2.200000*%
%ADD20C,2.200000*%
%ADD21R,2.400000X2.100000*%
%ADD22R,1.799540X3.399740*%
%ADD23R,2.398980X2.398980*%
%ADD24C,5.800000*%
%ADD25C,1.000000*%
%ADD26C,2.150000*%
%ADD27O,4.400000X4.400000*%
%ADD28C,2.400000*%
%ADD29C,2.500000*%
%ADD30R,2.100000X2.100000*%
%ADD31O,2.100000X2.100000*%
G04 APERTURE END LIST*
D10*
D11*
X132715000Y-53340000D03*
X130175000Y-53340000D03*
X127635000Y-53340000D03*
X125095000Y-53340000D03*
X135255000Y-53340000D03*
X137795000Y-53340000D03*
X140335000Y-53340000D03*
X125095000Y-55880000D03*
X125095000Y-58420000D03*
X125095000Y-60960000D03*
X125095000Y-63500000D03*
X125095000Y-66040000D03*
X125095000Y-68580000D03*
X125095000Y-71120000D03*
X125095000Y-73660000D03*
X125095000Y-76200000D03*
X125095000Y-78740000D03*
X125095000Y-81280000D03*
X125095000Y-83820000D03*
X125095000Y-86360000D03*
X140335000Y-55880000D03*
X140335000Y-58420000D03*
X140335000Y-60960000D03*
X140335000Y-63500000D03*
X140335000Y-66040000D03*
X140335000Y-68580000D03*
X140335000Y-71120000D03*
X140335000Y-73660000D03*
X140335000Y-76200000D03*
X140335000Y-78740000D03*
X140335000Y-81280000D03*
X140335000Y-83820000D03*
D12*
X140335000Y-86360000D03*
D13*
X146050000Y-39750000D03*
X147320000Y-39750000D03*
X148590000Y-39750000D03*
X149860000Y-39750000D03*
X151130000Y-39750000D03*
X152400000Y-39750000D03*
X153670000Y-39750000D03*
X154940000Y-39750000D03*
X156210000Y-39750000D03*
X157480000Y-39750000D03*
X158750000Y-39750000D03*
X160020000Y-39750000D03*
X160020000Y-49150000D03*
X158750000Y-49150000D03*
X157480000Y-49150000D03*
X156210000Y-49150000D03*
X154940000Y-49150000D03*
X153670000Y-49150000D03*
X152400000Y-49150000D03*
X151130000Y-49150000D03*
X149860000Y-49150000D03*
X148590000Y-49150000D03*
X147320000Y-49150000D03*
X146050000Y-49150000D03*
D14*
X92075000Y-85725000D03*
X98425000Y-83185000D03*
X111125000Y-85725000D03*
X117475000Y-83185000D03*
X130175000Y-85725000D03*
X136525000Y-83185000D03*
X149225000Y-85725000D03*
X155575000Y-83185000D03*
X168275000Y-85725000D03*
X174625000Y-83185000D03*
X187325000Y-85725000D03*
X193675000Y-83185000D03*
X206375000Y-85725000D03*
X212725000Y-83185000D03*
X92075000Y-66675000D03*
X98425000Y-64135000D03*
X111125000Y-66675000D03*
X117475000Y-64135000D03*
X130175000Y-66675000D03*
X136525000Y-64135000D03*
X149225000Y-66675000D03*
X155575000Y-64135000D03*
X168275000Y-66675000D03*
X174625000Y-64135000D03*
X187325000Y-66675000D03*
X193675000Y-64135000D03*
X206375000Y-66675000D03*
X212725000Y-64135000D03*
X187325000Y-37465000D03*
X193675000Y-34925000D03*
X206375000Y-37465000D03*
X212725000Y-34925000D03*
D15*
X160655000Y-53975000D03*
D16*
X162655000Y-53975000D03*
D17*
X151785000Y-52070000D03*
X154285000Y-52070000D03*
D18*
X97155000Y-27960000D03*
X97155000Y-30460000D03*
D19*
X95885000Y-75565000D03*
D20*
X98425000Y-75565000D03*
D19*
X114935000Y-75565000D03*
D20*
X117475000Y-75565000D03*
D19*
X133985000Y-75565000D03*
D20*
X136525000Y-75565000D03*
D19*
X153035000Y-75565000D03*
D20*
X155575000Y-75565000D03*
D19*
X172085000Y-75565000D03*
D20*
X174625000Y-75565000D03*
D19*
X191135000Y-75565000D03*
D20*
X193675000Y-75565000D03*
D19*
X210185000Y-75565000D03*
D20*
X212725000Y-75565000D03*
D19*
X95885000Y-56515000D03*
D20*
X98425000Y-56515000D03*
D19*
X114935000Y-56515000D03*
D20*
X117475000Y-56515000D03*
D19*
X133985000Y-56515000D03*
D20*
X136525000Y-56515000D03*
D19*
X153035000Y-56515000D03*
D20*
X155575000Y-56515000D03*
D19*
X172085000Y-56515000D03*
D20*
X174625000Y-56515000D03*
D19*
X191135000Y-56515000D03*
D20*
X193675000Y-56515000D03*
D19*
X210185000Y-56515000D03*
D20*
X212725000Y-56515000D03*
D19*
X191135000Y-27305000D03*
D20*
X193675000Y-27305000D03*
D19*
X210185000Y-27305000D03*
D20*
X212725000Y-27305000D03*
D19*
X129540000Y-34290000D03*
D20*
X129540000Y-31750000D03*
D19*
X131445000Y-29210000D03*
D20*
X131445000Y-26670000D03*
D19*
X133350000Y-34290000D03*
D20*
X133350000Y-31750000D03*
D19*
X135255000Y-29210000D03*
D20*
X135255000Y-26670000D03*
D19*
X137160000Y-34290000D03*
D20*
X137160000Y-31750000D03*
D19*
X140970000Y-34290000D03*
D20*
X140970000Y-31750000D03*
D19*
X142875000Y-29210000D03*
D20*
X142875000Y-26670000D03*
D19*
X144780000Y-34290000D03*
D20*
X144780000Y-31750000D03*
D19*
X146685000Y-29210000D03*
D20*
X146685000Y-26670000D03*
D19*
X148590000Y-34290000D03*
D20*
X148590000Y-31750000D03*
D19*
X150495000Y-29210000D03*
D20*
X150495000Y-26670000D03*
D19*
X152400000Y-34290000D03*
D20*
X152400000Y-31750000D03*
D19*
X90805000Y-75565000D03*
D20*
X93345000Y-75565000D03*
D19*
X109855000Y-75565000D03*
D20*
X112395000Y-75565000D03*
D19*
X128905000Y-75565000D03*
D20*
X131445000Y-75565000D03*
D19*
X147955000Y-75565000D03*
D20*
X150495000Y-75565000D03*
D19*
X167005000Y-75565000D03*
D20*
X169545000Y-75565000D03*
D19*
X186055000Y-75565000D03*
D20*
X188595000Y-75565000D03*
D19*
X205105000Y-75565000D03*
D20*
X207645000Y-75565000D03*
D19*
X90805000Y-56515000D03*
D20*
X93345000Y-56515000D03*
D19*
X109855000Y-56515000D03*
D20*
X112395000Y-56515000D03*
D19*
X128905000Y-56515000D03*
D20*
X131445000Y-56515000D03*
D19*
X147955000Y-56515000D03*
D20*
X150495000Y-56515000D03*
D19*
X167005000Y-56515000D03*
D20*
X169545000Y-56515000D03*
D19*
X186055000Y-56515000D03*
D20*
X188595000Y-56515000D03*
D19*
X205105000Y-56515000D03*
D20*
X207645000Y-56515000D03*
D19*
X186055000Y-27305000D03*
D20*
X188595000Y-27305000D03*
D19*
X205105000Y-27305000D03*
D20*
X207645000Y-27305000D03*
D18*
X111125000Y-27960000D03*
X111125000Y-30460000D03*
X92075000Y-27960000D03*
X92075000Y-30460000D03*
D17*
X130195000Y-36830000D03*
X132695000Y-36830000D03*
D21*
X115665000Y-50165000D03*
X111665000Y-50165000D03*
X115665000Y-46990000D03*
X111665000Y-46990000D03*
D22*
X142240000Y-47050960D03*
X142240000Y-41849040D03*
D23*
X142240000Y-49451260D03*
X142240000Y-39448740D03*
D24*
X104260000Y-71120000D03*
D25*
X106285000Y-71120000D03*
X105691891Y-72551891D03*
X104260000Y-73145000D03*
X102828109Y-72551891D03*
X102235000Y-71120000D03*
X102828109Y-69688109D03*
X104260000Y-69095000D03*
X105691891Y-69688109D03*
D24*
X161290000Y-71120000D03*
D25*
X163315000Y-71120000D03*
X162721891Y-72551891D03*
X161290000Y-73145000D03*
X159858109Y-72551891D03*
X159265000Y-71120000D03*
X159858109Y-69688109D03*
X161290000Y-69095000D03*
X162721891Y-69688109D03*
D24*
X199390000Y-71120000D03*
D25*
X201415000Y-71120000D03*
X200821891Y-72551891D03*
X199390000Y-73145000D03*
X197958109Y-72551891D03*
X197365000Y-71120000D03*
X197958109Y-69688109D03*
X199390000Y-69095000D03*
X200821891Y-69688109D03*
D24*
X199390000Y-41910000D03*
D25*
X201415000Y-41910000D03*
X200821891Y-43341891D03*
X199390000Y-43935000D03*
X197958109Y-43341891D03*
X197365000Y-41910000D03*
X197958109Y-40478109D03*
X199390000Y-39885000D03*
X200821891Y-40478109D03*
D24*
X171450000Y-46355000D03*
D25*
X173475000Y-46355000D03*
X172881891Y-47786891D03*
X171450000Y-48380000D03*
X170018109Y-47786891D03*
X169425000Y-46355000D03*
X170018109Y-44923109D03*
X171450000Y-44330000D03*
X172881891Y-44923109D03*
D18*
X173355000Y-27960000D03*
X173355000Y-30460000D03*
X168275000Y-27960000D03*
X168275000Y-30460000D03*
D24*
X104140000Y-41910000D03*
D25*
X106165000Y-41910000D03*
X105571891Y-43341891D03*
X104140000Y-43935000D03*
X102708109Y-43341891D03*
X102115000Y-41910000D03*
X102708109Y-40478109D03*
X104140000Y-39885000D03*
X105571891Y-40478109D03*
D26*
X173315000Y-24885000D03*
X168315000Y-24885000D03*
X170815000Y-24885000D03*
X168315000Y-39385000D03*
X173315000Y-39385000D03*
D27*
X164615000Y-32385000D03*
X177015000Y-32385000D03*
D18*
X116205000Y-27960000D03*
X116205000Y-30460000D03*
D15*
X125095000Y-36830000D03*
D16*
X125095000Y-34830000D03*
D28*
X186690000Y-48950000D03*
X186690000Y-44450000D03*
X193190000Y-48950000D03*
X193190000Y-44450000D03*
X205740000Y-48950000D03*
X205740000Y-44450000D03*
X212240000Y-48950000D03*
X212240000Y-44450000D03*
D29*
X92025000Y-43770000D03*
D26*
X89535000Y-45030000D03*
X89535000Y-49530000D03*
D29*
X92025000Y-50780000D03*
D26*
X116165000Y-24885000D03*
X111165000Y-24885000D03*
X113665000Y-24885000D03*
X111165000Y-39385000D03*
X116165000Y-39385000D03*
D27*
X107465000Y-32385000D03*
X119865000Y-32385000D03*
D26*
X97115000Y-24885000D03*
X92115000Y-24885000D03*
X94615000Y-24885000D03*
X92115000Y-39385000D03*
X97115000Y-39385000D03*
D27*
X88415000Y-32385000D03*
X100815000Y-32385000D03*
D13*
X120650000Y-39750000D03*
X121920000Y-39750000D03*
X123190000Y-39750000D03*
X124460000Y-39750000D03*
X125730000Y-39750000D03*
X127000000Y-39750000D03*
X128270000Y-39750000D03*
X129540000Y-39750000D03*
X130810000Y-39750000D03*
X132080000Y-39750000D03*
X133350000Y-39750000D03*
X134620000Y-39750000D03*
X135890000Y-39750000D03*
X137160000Y-39750000D03*
X137160000Y-49150000D03*
X135890000Y-49150000D03*
X134620000Y-49150000D03*
X133350000Y-49150000D03*
X132080000Y-49150000D03*
X130810000Y-49150000D03*
X129540000Y-49150000D03*
X128270000Y-49150000D03*
X127000000Y-49150000D03*
X125730000Y-49150000D03*
X124460000Y-49150000D03*
X123190000Y-49150000D03*
X121920000Y-49150000D03*
X120650000Y-49150000D03*
D30*
X216535000Y-36830000D03*
D31*
X216535000Y-39370000D03*
X216535000Y-41910000D03*
X216535000Y-44450000D03*
D30*
X216535000Y-50165000D03*
D31*
X216535000Y-52705000D03*
X216535000Y-55245000D03*
X216535000Y-57785000D03*
D30*
X216535000Y-67945000D03*
D31*
X216535000Y-70485000D03*
X216535000Y-73025000D03*
X216535000Y-75565000D03*
M02*
