M48
;DRILL file {KiCad 4.0.6+dfsg1-1} date Sun Mar  4 15:44:50 2018
;FORMAT={-:-/ absolute / inch / decimal}
FMAT,2
INCH,TZ
T1C0.067
T2C0.157
%
G90
G05
M72
T1
X3.525Y-2.425
X3.525Y-3.175
X3.925Y-2.425
X3.925Y-3.175
X4.275Y-2.425
X4.275Y-3.175
X4.675Y-2.425
X4.675Y-3.175
X5.025Y-2.425
X5.025Y-3.175
X5.425Y-2.425
X5.425Y-3.175
X5.775Y-2.425
X5.775Y-3.175
X6.175Y-2.425
X6.175Y-3.175
X6.525Y-2.425
X6.525Y-3.175
X6.925Y-2.425
X6.925Y-3.175
X7.275Y-1.275
X7.275Y-2.425
X7.275Y-3.175
X7.675Y-1.275
X7.675Y-2.425
X7.675Y-3.175
X8.025Y-1.275
X8.025Y-2.425
X8.025Y-3.175
X8.425Y-1.275
X8.425Y-2.425
X8.425Y-3.175
T2
X3.725Y-2.425
X3.725Y-3.175
X4.475Y-2.425
X4.475Y-3.175
X5.225Y-2.425
X5.225Y-3.175
X5.975Y-2.425
X5.975Y-3.175
X6.725Y-2.425
X6.725Y-3.175
X7.475Y-1.275
X7.475Y-2.425
X7.475Y-3.175
X8.225Y-1.275
X8.225Y-2.425
X8.225Y-3.175
T0
M30
