M48
;DRILL file {KiCad 4.0.7} date Fri Mar 23 21:44:32 2018
;FORMAT={-:-/ absolute / inch / decimal}
FMAT,2
INCH,TZ
T1C0.016
T2C0.020
T3C0.024
T4C0.028
T5C0.031
T6C0.035
T7C0.039
T8C0.039
T9C0.043
T10C0.051
T11C0.059
T12C0.091
T13C0.098
T14C0.106
%
G90
G05
M72
T1
X2.8872Y-3.9902
X2.9631Y-5.0759
X2.9941Y-4.5387
X3.075Y-2.4992
X3.138Y-2.3437
X3.1838Y-3.1451
X3.2382Y-2.4294
X3.2684Y-2.7483
X3.2693Y-4.581
X3.2945Y-2.7213
X3.3173Y-3.9577
X3.3328Y-4.3161
X3.3483Y-2.3446
X3.3728Y-3.966
X3.4273Y-2.6422
X3.4273Y-2.7775
X3.4389Y-3.7328
X3.473Y-3.698
X3.4865Y-2.4294
X3.5023Y-4.163
X3.5191Y-4.35
X3.5614Y-2.4279
X3.5854Y-4.2485
X3.6113Y-4.163
X3.6437Y-5.051
X3.6664Y-3.2356
X3.6697Y-4.6904
X3.7118Y-4.4686
X3.7453Y-4.4702
X3.8346Y-3.9474
X3.9028Y-4.6117
X3.966Y-4.6109
X4.0082Y-4.6884
X4.055Y-4.6057
X4.0812Y-4.3268
X4.1254Y-4.5087
X4.2124Y-3.574
X4.2549Y-4.3869
X4.2817Y-2.7213
X4.2846Y-3.1041
X4.3127Y-3.124
X4.3755Y-3.4652
X4.3797Y-3.2632
X4.389Y-3.3039
X4.3944Y-4.4649
X4.403Y-4.689
X4.4115Y-3.9587
X4.4144Y-3.2793
X4.4923Y-2.5798
X4.4941Y-2.4496
X4.5268Y-4.3869
X4.5504Y-2.2313
X4.5535Y-3.9243
X4.6036Y-2.2617
X4.6037Y-4.4112
X4.625Y-2.6491
X4.6539Y-2.3356
X4.6856Y-2.343
X4.6987Y-2.2842
X4.7132Y-2.2166
X4.714Y-2.3696
X4.715Y-3.3226
X4.7185Y-2.2488
X4.7597Y-2.9899
X4.7643Y-3.3169
X4.78Y-2.8492
X4.7948Y-4.0026
X4.811Y-2.6383
X4.843Y-2.6937
X4.856Y-3.6742
X4.89Y-2.4492
X4.9104Y-4.6447
X4.953Y-2.2937
X4.9653Y-2.5663
X4.9657Y-3.1325
X4.9872Y-2.9196
X5.01Y-2.8492
X5.073Y-2.6937
X5.0941Y-3.5287
X5.1132Y-4.3249
X5.12Y-2.4492
X5.1224Y-4.515
X5.1802Y-2.7805
X5.183Y-2.2937
X5.1989Y-4.4765
X5.2204Y-4.3458
X5.2305Y-4.3123
X5.24Y-2.8492
X5.2426Y-2.9196
X5.2569Y-3.8974
X5.2936Y-3.7133
X5.303Y-2.6937
X5.3806Y-2.7806
X5.4308Y-2.7936
X5.4492Y-4.1902
X5.4507Y-2.9295
X5.47Y-2.8492
X5.533Y-2.6937
X5.58Y-2.4492
X5.5803Y-2.9585
X5.643Y-2.2937
X5.7Y-2.8492
X5.7275Y-2.9585
X5.763Y-2.6937
X5.7758Y-2.7807
X5.8089Y-2.8
X5.81Y-2.4492
X5.815Y-2.7195
X5.8554Y-4.5137
X5.873Y-2.2937
X5.8868Y-2.9899
X5.887Y-3.2743
X5.93Y-2.8492
X5.9379Y-4.4558
X5.9399Y-3.7795
X5.9464Y-3.0768
X5.9509Y-4.6523
X5.9524Y-2.9585
X5.9565Y-2.9997
X5.988Y-2.9997
X5.993Y-2.6937
X6.0113Y-4.4325
X6.0195Y-2.9997
X6.0317Y-3.9024
X6.04Y-2.3003
X6.04Y-2.4492
X6.045Y-2.7203
X6.046Y-3.1325
X6.0681Y-2.7818
X6.0686Y-4.5793
X6.103Y-2.2937
X6.1046Y-4.1164
X6.1227Y-4.0784
X6.1266Y-3.1451
X6.1272Y-3.0598
X6.1433Y-2.2548
X6.1452Y-2.3636
X6.16Y-2.8492
X6.1659Y-4.6785
X6.1672Y-3.6417
X6.173Y-4.0918
X6.1969Y-2.7996
X6.2059Y-4.3756
X6.2159Y-3.7526
X6.223Y-2.6937
X6.2399Y-2.8454
X6.2432Y-3.7776
X6.2634Y-2.9364
X6.2745Y-2.2369
X6.2942Y-3.6659
X6.3713Y-3.8642
X6.3728Y-3.9146
X6.3886Y-2.3511
X6.3931Y-3.3005
X6.4073Y-3.0675
X6.4202Y-3.8983
X6.4281Y-3.5957
X6.4327Y-4.6302
X6.4423Y-2.3062
X6.4466Y-4.3803
X6.456Y-4.4446
X6.4742Y-3.7359
X6.4789Y-3.5893
X6.4796Y-2.4842
X6.4892Y-4.7447
X6.5479Y-4.2955
X6.5703Y-3.7453
X6.5805Y-3.3696
X6.5847Y-3.9006
X6.5857Y-3.2759
X6.5877Y-4.2317
X6.5931Y-4.2832
X6.6218Y-4.9932
X6.6519Y-3.7301
X6.6656Y-3.4817
X6.6776Y-3.3149
X6.6869Y-3.7259
X6.6872Y-3.5895
X6.7041Y-3.8958
X6.705Y-3.5225
X6.7289Y-4.7007
X6.7465Y-4.8147
X6.7596Y-2.3525
X6.772Y-3.6895
X6.7724Y-4.3212
X6.7772Y-3.4641
X6.7879Y-3.9873
X6.8112Y-3.3696
X6.82Y-2.3695
X6.8253Y-4.2431
X6.8276Y-3.5025
X6.8357Y-4.2978
X6.8367Y-5.0021
X6.8376Y-3.7451
X6.8485Y-4.087
X6.8485Y-4.2066
X6.8682Y-2.3156
X6.8715Y-3.7051
X6.895Y-3.4729
X6.9529Y-5.0813
X6.9644Y-4.0702
X6.9698Y-4.2009
X6.9711Y-4.3895
X6.9797Y-4.016
X6.9827Y-3.8778
X6.9843Y-4.4718
X6.9857Y-3.9424
X6.9929Y-4.6804
X6.9978Y-4.0834
X7.0247Y-4.1103
X7.0256Y-3.6391
X7.0503Y-3.8451
X7.0735Y-3.8674
X7.08Y-3.425
X7.0841Y-3.7764
X7.1084Y-4.2448
X7.1432Y-4.7255
X7.1444Y-3.9051
X7.1509Y-3.5391
X7.1782Y-3.2565
X7.2035Y-4.3647
X7.2171Y-3.0138
X7.2412Y-4.6207
X7.2877Y-3.2303
X7.2949Y-2.2364
X7.3003Y-3.2871
X7.306Y-4.2907
X7.3179Y-2.7615
X7.3224Y-4.2411
X7.3321Y-4.4683
X7.3383Y-3.2565
X7.3567Y-3.0387
X7.3706Y-4.5001
X7.3858Y-3.4716
X7.3888Y-3.7329
X7.3972Y-2.3845
X7.4177Y-3.0138
X7.4191Y-3.9777
X7.425Y-3.5485
X7.4273Y-4.2021
X7.4313Y-3.2301
X7.4364Y-2.7054
X7.4382Y-2.7678
X7.4494Y-4.0835
X7.4659Y-3.1703
X7.4701Y-2.8537
X7.4701Y-2.7718
X7.4861Y-3.9485
X7.5172Y-2.4076
X7.5208Y-3.7033
X7.5218Y-4.0023
X7.5239Y-3.9107
X7.542Y-3.9372
X7.5651Y-2.9647
X7.5703Y-2.7567
X7.5931Y-3.7666
X7.5967Y-2.9384
X7.6083Y-4.5287
X7.6155Y-3.0341
X7.6193Y-3.6802
X7.6247Y-2.9549
X7.7147Y-2.8439
X7.7284Y-2.9949
X7.7478Y-4.0965
X7.8091Y-4.2915
X7.8247Y-4.552
X7.8307Y-3.451
X7.8346Y-3.0679
X7.8374Y-4.5024
X7.9129Y-2.7567
X7.9158Y-3.8861
X7.9271Y-4.2702
X7.9434Y-4.3244
X7.9962Y-3.4133
X8.0793Y-2.9593
X8.0875Y-3.7666
X8.0889Y-2.8439
X8.1123Y-3.492
X8.1224Y-4.1803
X8.1256Y-4.2967
X8.1439Y-2.8719
X8.1495Y-3.0623
X8.1523Y-4.418
X8.1641Y-3.9655
X8.1811Y-3.1193
X8.2044Y-2.9142
X8.2316Y-3.2868
X8.238Y-3.4248
X8.2387Y-2.975
X8.2431Y-3.9222
X8.2539Y-3.4779
X8.255Y-4.6556
X8.3084Y-2.372
X8.3331Y-4.6129
X8.3338Y-4.4075
X8.3488Y-2.3167
X8.3513Y-3.2898
X8.3759Y-3.2622
X8.3837Y-5.0025
X8.388Y-4.1195
X8.3945Y-4.6386
X8.4016Y-2.825
X8.4032Y-3.5311
X8.4032Y-3.4157
X8.4067Y-3.6503
X8.4186Y-2.404
X8.4189Y-3.35
X8.4217Y-4.2556
X8.425Y-3.9509
X8.4278Y-3.3042
X8.4441Y-4.5244
X8.5268Y-4.1879
X8.5269Y-3.3292
X8.535Y-3.2422
X8.5608Y-3.6767
X8.6037Y-4.6477
X8.6144Y-3.2352
X8.6146Y-4.2039
X8.6657Y-3.4826
X8.6822Y-3.7381
X8.7363Y-3.768
X8.788Y-3.8457
X8.8481Y-3.663
X8.883Y-3.2792
X8.8927Y-3.8986
X8.9061Y-3.7919
X8.9085Y-3.7249
X8.9457Y-3.1112
X8.9512Y-3.7673
X8.9533Y-3.8192
X8.9567Y-4.1746
X8.9825Y-3.0555
X8.9952Y-2.4841
X9.0137Y-2.4303
X9.0195Y-2.9928
X9.1264Y-3.6878
X9.13Y-4.0838
X9.1338Y-4.0371
X9.1426Y-2.5832
X9.1587Y-4.0172
X9.1718Y-3.9585
X9.1972Y-3.3281
X9.1996Y-2.8145
X9.2021Y-3.4909
X9.2278Y-4.6231
X9.297Y-3.9578
X9.3446Y-4.6168
X9.3503Y-4.1164
X9.375Y-2.6499
X9.5257Y-3.1493
X9.5583Y-3.8923
X9.5662Y-4.4422
X9.5728Y-3.9241
X9.5787Y-5.0578
X9.5956Y-4.6494
X9.6652Y-3.9512
X9.8798Y-4.9407
X9.9949Y-3.1074
X10.0961Y-3.8863
X10.1922Y-2.7254
X10.2266Y-2.7426
X10.265Y-2.6863
X10.2987Y-2.6937
X10.3099Y-4.516
X10.3759Y-3.166
X10.4109Y-3.1695
X10.4212Y-3.8858
X10.4228Y-2.7106
X10.4369Y-3.1412
X10.4498Y-3.6742
X10.4728Y-3.7539
X10.4793Y-3.1943
X10.4913Y-3.5014
X10.4915Y-4.25
X10.5193Y-3.5729
X10.5433Y-3.7221
X10.5435Y-3.6894
X10.6048Y-3.508
X10.6053Y-4.7035
X10.6058Y-3.6037
X10.6207Y-4.2176
X10.6221Y-3.7145
X10.6287Y-3.5807
X10.6749Y-2.8301
X10.7032Y-3.6683
X10.7286Y-4.3113
X10.7305Y-3.0516
X10.7321Y-4.5262
X10.7359Y-3.6664
X10.7603Y-2.2147
X10.8035Y-3.0013
X10.8259Y-3.1613
X11.0488Y-2.6927
X11.0963Y-2.7524
X11.1283Y-4.7413
X11.1987Y-3.8923
X11.3158Y-2.4256
X11.4265Y-3.8424
X11.4295Y-4.861
X11.512Y-3.1479
X11.5781Y-3.6214
X11.6018Y-3.7521
X11.6419Y-4.6316
X11.6455Y-3.1339
X11.7236Y-3.1585
X11.7254Y-3.9053
X11.7699Y-2.6919
X11.7704Y-2.453
X11.7857Y-4.6216
X11.8088Y-3.5613
X11.8157Y-2.4849
X11.8168Y-4.2242
X11.8338Y-4.3116
X11.84Y-2.875
X11.8509Y-5.0519
X11.8544Y-3.54
X11.862Y-4.5014
X11.8661Y-4.4626
X11.9274Y-2.7756
X11.954Y-3.7569
X11.9714Y-2.673
X11.9822Y-4.05
X11.9855Y-3.9557
X12.06Y-4.5569
X12.0787Y-2.9208
X12.1592Y-4.6312
X12.1726Y-4.3555
X12.2405Y-4.8
X12.2713Y-4.1145
X12.3411Y-2.259
X12.3974Y-4.
T2
X3.8953Y-3.025
X3.8953Y-4.425
X3.9186Y-2.9686
X3.9186Y-3.0814
X3.9186Y-4.3686
X3.9186Y-4.4814
X3.975Y-2.9453
X3.975Y-3.1047
X3.975Y-4.3453
X3.975Y-4.5047
X4.0314Y-2.9686
X4.0314Y-3.0814
X4.0314Y-4.3686
X4.0314Y-4.4814
X4.0547Y-3.025
X4.0547Y-4.425
X5.3953Y-4.425
X5.4186Y-4.3686
X5.4186Y-4.4814
X5.475Y-4.3453
X5.475Y-4.5047
X5.5314Y-4.3686
X5.5314Y-4.4814
X5.5547Y-4.425
X6.5203Y-3.025
X6.5436Y-2.9686
X6.5436Y-3.0814
X6.6Y-2.9453
X6.6Y-3.1047
X6.6564Y-2.9686
X6.6564Y-3.0814
X6.6797Y-3.025
X7.6453Y-4.425
X7.6686Y-4.3686
X7.6686Y-4.4814
X7.725Y-4.3453
X7.725Y-4.5047
X7.7814Y-4.3686
X7.7814Y-4.4814
X7.8047Y-4.425
X8.6703Y-4.35
X8.6936Y-4.2936
X8.6936Y-4.4064
X8.75Y-4.2703
X8.75Y-4.4297
X8.8064Y-4.2936
X8.8064Y-4.4064
X8.8297Y-4.35
X9.7453Y-2.925
X9.7453Y-4.425
X9.7686Y-2.8686
X9.7686Y-2.9814
X9.7686Y-4.3686
X9.7686Y-4.4814
X9.825Y-2.8453
X9.825Y-3.0047
X9.825Y-4.3453
X9.825Y-4.5047
X9.8814Y-2.8686
X9.8814Y-2.9814
X9.8814Y-4.3686
X9.8814Y-4.4814
X9.9047Y-2.925
X9.9047Y-4.425
X11.2453Y-2.925
X11.2453Y-4.425
X11.2686Y-2.8686
X11.2686Y-2.9814
X11.2686Y-4.3686
X11.2686Y-4.4814
X11.325Y-2.8453
X11.325Y-3.0047
X11.325Y-4.3453
X11.325Y-4.5047
X11.3814Y-2.8686
X11.3814Y-2.9814
X11.3814Y-4.3686
X11.3814Y-4.4814
X11.4047Y-2.925
X11.4047Y-4.425
T3
X7.7Y-4.025
X7.7787Y-4.025
X11.55Y-2.875
X11.55Y-2.9537
T4
X6.975Y-3.125
X7.0537Y-3.125
X7.1325Y-3.125
X7.2112Y-3.125
X7.6Y-3.125
X7.6787Y-3.125
X7.7575Y-3.125
X7.8362Y-3.125
T5
X2.925Y-3.65
X2.925Y-3.75
X2.925Y-3.85
X2.925Y-3.95
X2.925Y-4.05
X2.925Y-4.15
X2.925Y-4.25
X2.925Y-4.35
X2.925Y-4.45
X2.925Y-4.55
X2.925Y-4.65
X2.925Y-4.75
X2.925Y-4.85
X2.925Y-4.95
X3.225Y-3.65
X3.225Y-3.75
X3.225Y-3.85
X3.225Y-3.95
X3.225Y-4.05
X3.225Y-4.15
X3.225Y-4.25
X3.225Y-4.35
X3.225Y-4.45
X3.225Y-4.55
X3.225Y-4.65
X3.225Y-4.75
X3.225Y-4.85
X3.225Y-4.95
X5.55Y-3.2
X5.55Y-3.5
X5.65Y-3.2
X5.65Y-3.5
X5.75Y-3.2
X5.75Y-3.5
X5.85Y-3.2
X5.85Y-3.5
X5.95Y-3.2
X5.95Y-3.5
X6.05Y-3.2
X6.05Y-3.5
X6.15Y-3.2
X6.15Y-3.5
X6.25Y-3.2
X6.25Y-3.5
X6.35Y-3.2
X6.35Y-3.5
X6.45Y-3.2
X6.45Y-3.5
X7.175Y-3.35
X7.175Y-3.65
X7.275Y-3.35
X7.275Y-3.65
X7.375Y-3.35
X7.375Y-3.65
X7.475Y-3.35
X7.475Y-3.65
X7.575Y-3.35
X7.575Y-3.65
X7.675Y-3.35
X7.675Y-3.65
X7.775Y-3.35
X7.775Y-3.65
X7.875Y-3.35
X7.875Y-3.65
X7.975Y-3.35
X7.975Y-3.65
X8.075Y-3.35
X8.075Y-3.65
X8.175Y-3.35
X8.175Y-3.65
X8.275Y-3.35
X8.275Y-3.65
X12.025Y-2.325
X12.025Y-2.425
X12.025Y-2.525
X12.025Y-2.625
X12.025Y-2.725
X12.025Y-2.825
X12.025Y-2.925
X12.025Y-3.025
X12.025Y-3.125
X12.025Y-3.225
X12.025Y-3.325
X12.025Y-3.425
X12.025Y-3.7
X12.025Y-3.8
X12.025Y-3.9
X12.025Y-4.
X12.025Y-4.1
X12.025Y-4.2
X12.025Y-4.3
X12.025Y-4.4
X12.025Y-4.5
X12.025Y-4.6
X12.025Y-4.7
X12.025Y-4.8
X12.025Y-4.9
X12.025Y-5.
X12.325Y-2.325
X12.325Y-2.425
X12.325Y-2.525
X12.325Y-2.625
X12.325Y-2.725
X12.325Y-2.825
X12.325Y-2.925
X12.325Y-3.025
X12.325Y-3.125
X12.325Y-3.225
X12.325Y-3.325
X12.325Y-3.425
X12.325Y-3.7
X12.325Y-3.8
X12.325Y-3.9
X12.325Y-4.
X12.325Y-4.1
X12.325Y-4.2
X12.325Y-4.3
X12.325Y-4.4
X12.325Y-4.5
X12.325Y-4.6
X12.325Y-4.7
X12.325Y-4.8
X12.325Y-4.9
X12.325Y-5.
T6
X3.45Y-3.825
X3.45Y-4.575
X3.55Y-3.825
X3.55Y-4.575
X3.65Y-3.825
X3.65Y-4.575
X3.75Y-3.825
X3.75Y-4.575
X4.2Y-3.825
X4.2Y-4.575
X4.3Y-3.825
X4.3Y-4.575
X4.4Y-3.825
X4.4Y-4.575
X4.5Y-3.825
X4.5Y-4.575
X4.95Y-3.825
X4.95Y-4.575
X5.05Y-3.825
X5.05Y-4.575
X5.15Y-3.825
X5.15Y-4.575
X5.25Y-3.825
X5.25Y-4.575
X5.7Y-3.825
X5.7Y-4.575
X5.8Y-3.825
X5.8Y-4.575
X5.9Y-3.825
X5.9Y-4.575
X6.Y-3.825
X6.Y-4.575
X6.45Y-3.825
X6.45Y-4.575
X6.55Y-3.825
X6.55Y-4.575
X6.65Y-3.825
X6.65Y-4.575
X6.75Y-3.825
X6.75Y-4.575
X7.2Y-2.325
X7.2Y-3.825
X7.2Y-4.575
X7.3Y-2.325
X7.3Y-3.825
X7.3Y-4.575
X7.4Y-2.325
X7.4Y-3.825
X7.4Y-4.575
X7.5Y-2.325
X7.5Y-3.825
X7.5Y-4.575
X7.95Y-2.325
X7.95Y-3.825
X7.95Y-4.575
X8.05Y-2.325
X8.05Y-3.825
X8.05Y-4.575
X8.15Y-2.325
X8.15Y-3.825
X8.15Y-4.575
X8.25Y-2.325
X8.25Y-3.825
X8.25Y-4.575
X9.3Y-2.325
X9.3Y-3.075
X9.3Y-3.825
X9.3Y-4.575
X9.4Y-2.325
X9.4Y-3.075
X9.4Y-3.825
X9.4Y-4.575
X9.5Y-2.325
X9.5Y-3.075
X9.5Y-3.825
X9.5Y-4.575
X9.6Y-2.325
X9.6Y-3.075
X9.6Y-3.825
X9.6Y-4.575
X10.05Y-2.325
X10.05Y-3.075
X10.05Y-3.825
X10.05Y-4.575
X10.15Y-2.325
X10.15Y-3.075
X10.15Y-3.825
X10.15Y-4.575
X10.25Y-2.325
X10.25Y-3.075
X10.25Y-3.825
X10.25Y-4.575
X10.35Y-2.325
X10.35Y-3.075
X10.35Y-3.825
X10.35Y-4.575
X10.8Y-2.325
X10.8Y-3.075
X10.8Y-3.825
X10.8Y-4.6
X10.9Y-2.325
X10.9Y-3.075
X10.9Y-3.825
X10.9Y-4.6
X11.Y-2.325
X11.Y-3.075
X11.Y-3.825
X11.Y-4.6
X11.1Y-2.325
X11.1Y-3.075
X11.1Y-3.825
X11.1Y-4.6
X11.55Y-2.325
X11.55Y-3.075
X11.55Y-3.825
X11.55Y-4.575
X11.65Y-2.325
X11.65Y-3.075
X11.65Y-3.825
X11.65Y-4.575
X11.75Y-2.325
X11.75Y-3.075
X11.75Y-3.825
X11.75Y-4.575
X11.85Y-2.325
X11.85Y-3.075
X11.85Y-3.825
X11.85Y-4.575
T7
X3.8728Y-2.275
X4.05Y-2.275
T8
X3.3051Y-3.0451
X3.3051Y-3.1451
X3.3051Y-3.225
X3.3051Y-3.325
X4.625Y-3.475
X4.625Y-3.575
X4.825Y-3.575
X4.925Y-3.575
X5.025Y-3.575
X5.125Y-3.575
X5.225Y-3.575
X5.325Y-3.575
X8.525Y-5.075
X8.625Y-5.075
X8.725Y-5.075
X8.825Y-5.075
X8.925Y-5.075
X9.025Y-5.075
T9
X3.475Y-3.225
X3.475Y-3.4022
X3.5016Y-2.2547
X3.5016Y-2.8256
X3.6Y-2.2547
X3.6984Y-2.2547
X3.6984Y-2.8256
X3.7309Y-3.225
X3.7309Y-3.4022
X4.225Y-3.225
X4.225Y-3.4022
X4.2516Y-2.2547
X4.2516Y-2.8256
X4.35Y-2.2547
X4.4484Y-2.2547
X4.4484Y-2.8256
X4.4809Y-3.225
X4.4809Y-3.4022
X4.975Y-3.225
X4.975Y-3.4022
X5.2309Y-3.225
X5.2309Y-3.4022
X6.3Y-3.8
X6.3Y-3.9
X6.3Y-4.
X6.3Y-4.1
X6.3Y-4.2
X6.3Y-4.3
X6.3Y-4.4
X6.3Y-4.5
X6.3Y-4.6
X6.3Y-4.7
X6.3Y-4.8
X6.3Y-4.9
X6.3Y-5.
X6.3Y-5.1
X6.5016Y-2.2547
X6.5016Y-2.8256
X6.6Y-2.2547
X6.6984Y-2.2547
X6.6984Y-2.8256
X6.9Y-3.8
X6.9Y-3.9
X6.9Y-4.
X6.9Y-4.1
X6.9Y-4.2
X6.9Y-4.3
X6.9Y-4.4
X6.9Y-4.5
X6.9Y-4.6
X6.9Y-4.7
X6.9Y-4.8
X6.9Y-4.9
X6.9Y-5.
X6.9Y-5.1
X8.475Y-2.275
X8.475Y-2.375
X8.475Y-2.475
X8.475Y-2.575
X8.475Y-2.675
X8.475Y-2.775
X8.475Y-2.875
X8.475Y-2.975
X8.475Y-3.075
X8.475Y-3.175
X8.475Y-3.275
X8.475Y-3.375
X8.475Y-3.475
X8.475Y-3.575
X8.475Y-3.675
X8.475Y-3.775
X8.475Y-3.875
X8.475Y-3.975
X8.475Y-4.075
X8.475Y-4.175
X8.475Y-4.275
X8.475Y-4.375
X8.475Y-4.475
X8.475Y-4.575
X8.575Y-2.375
X8.575Y-4.075
X8.65Y-4.75
X8.65Y-4.9272
X8.675Y-4.075
X8.775Y-4.075
X8.875Y-4.075
X8.9059Y-4.75
X8.9059Y-4.9272
X8.9569Y-2.525
X8.9569Y-2.625
X8.9569Y-2.725
X8.9569Y-2.825
X8.9569Y-2.925
X8.975Y-4.075
X9.075Y-2.275
X9.075Y-2.375
X9.075Y-2.475
X9.075Y-2.575
X9.075Y-2.675
X9.075Y-2.775
X9.075Y-2.875
X9.075Y-2.975
X9.075Y-3.075
X9.075Y-3.175
X9.075Y-3.275
X9.075Y-3.375
X9.075Y-3.475
X9.075Y-3.575
X9.075Y-3.675
X9.075Y-3.775
X9.075Y-3.875
X9.075Y-3.975
X9.075Y-4.075
X9.075Y-4.175
X9.075Y-4.275
X9.075Y-4.375
X9.075Y-4.475
X9.075Y-4.575
T10
X3.8232Y-2.373
X4.0992Y-2.373
T11
X3.5Y-4.25
X3.5Y-5.
X3.75Y-4.15
X3.75Y-4.9
X4.25Y-4.25
X4.25Y-5.
X4.5Y-4.15
X4.5Y-4.9
X5.Y-4.25
X5.Y-5.
X5.25Y-4.15
X5.25Y-4.9
X5.75Y-4.25
X5.75Y-5.
X6.Y-4.15
X6.Y-4.9
X6.5Y-4.25
X6.5Y-5.
X6.75Y-4.15
X6.75Y-4.9
X7.25Y-2.75
X7.25Y-4.25
X7.25Y-5.
X7.5Y-2.65
X7.5Y-4.15
X7.5Y-4.9
X8.Y-2.75
X8.Y-4.25
X8.Y-5.
X8.25Y-2.65
X8.25Y-4.15
X8.25Y-4.9
X9.35Y-2.75
X9.35Y-3.5
X9.35Y-4.25
X9.35Y-5.
X9.6Y-2.65
X9.6Y-3.4
X9.6Y-4.15
X9.6Y-4.9
X10.1Y-2.75
X10.1Y-3.5
X10.1Y-4.25
X10.1Y-5.
X10.35Y-2.65
X10.35Y-3.4
X10.35Y-4.15
X10.35Y-4.9
X10.85Y-2.75
X10.85Y-3.5
X10.85Y-4.25
X10.85Y-5.
X11.1Y-2.65
X11.1Y-3.4
X11.1Y-4.15
X11.1Y-4.9
X11.6Y-2.75
X11.6Y-3.5
X11.6Y-4.25
X11.6Y-5.
X11.85Y-2.65
X11.85Y-3.4
X11.85Y-4.15
X11.85Y-4.9
T12
X3.2Y-2.925
X3.2Y-3.4652
T13
X3.3559Y-2.55
X3.8441Y-2.55
X4.1059Y-2.55
X4.5941Y-2.55
X6.3559Y-2.55
X6.8441Y-2.55
T14
X3.975Y-3.025
X3.975Y-4.425
X5.475Y-4.425
X6.6Y-3.025
X7.725Y-4.425
X8.75Y-4.35
X9.825Y-2.925
X9.825Y-4.425
X11.325Y-2.925
X11.325Y-4.425
T0
M30
