G04 #@! TF.FileFunction,Copper,L2,Bot,Signal*
%FSLAX46Y46*%
G04 Gerber Fmt 4.6, Leading zero omitted, Abs format (unit mm)*
G04 Created by KiCad (PCBNEW 4.0.7) date Sat Mar 24 11:27:51 2018*
%MOMM*%
%LPD*%
G01*
G04 APERTURE LIST*
%ADD10C,0.100000*%
%ADD11R,1.200000X1.200000*%
%ADD12C,1.200000*%
%ADD13C,1.600000*%
%ADD14R,1.600000X1.600000*%
%ADD15C,2.286000*%
%ADD16C,2.100000*%
%ADD17C,1.750000*%
%ADD18C,1.500000*%
%ADD19C,3.000000*%
%ADD20O,1.600000X1.600000*%
%ADD21R,1.700000X2.000000*%
%ADD22R,1.250000X1.500000*%
%ADD23R,1.500000X1.250000*%
%ADD24R,1.700000X1.700000*%
%ADD25O,1.700000X1.700000*%
%ADD26C,2.000000*%
%ADD27O,4.000000X4.000000*%
%ADD28R,1.200000X1.700000*%
%ADD29O,1.200000X1.700000*%
%ADD30C,5.400000*%
%ADD31C,0.600000*%
%ADD32R,2.000000X1.700000*%
%ADD33C,1.800000*%
%ADD34R,1.800000X1.800000*%
%ADD35R,2.600000X1.600000*%
%ADD36R,1.600000X2.600000*%
%ADD37C,0.500000*%
%ADD38C,0.250000*%
G04 APERTURE END LIST*
D10*
D11*
X195580000Y-102235000D03*
D12*
X197580000Y-102235000D03*
D11*
X293370000Y-73025000D03*
D12*
X293370000Y-75025000D03*
D13*
X230505000Y-98425000D03*
X230505000Y-100965000D03*
X230505000Y-103505000D03*
X230505000Y-106045000D03*
X230505000Y-95885000D03*
X230505000Y-93345000D03*
X230505000Y-90805000D03*
X230505000Y-108585000D03*
X230505000Y-111125000D03*
X230505000Y-113665000D03*
X230505000Y-116205000D03*
X227965000Y-103505000D03*
X225425000Y-103505000D03*
X222885000Y-103505000D03*
X220345000Y-103505000D03*
X217805000Y-103505000D03*
X215265000Y-116205000D03*
X215265000Y-113665000D03*
X215265000Y-111125000D03*
X215265000Y-108585000D03*
X215265000Y-106045000D03*
X215265000Y-103505000D03*
X215265000Y-100965000D03*
X215265000Y-98425000D03*
X230505000Y-88265000D03*
X230505000Y-85725000D03*
X230505000Y-83185000D03*
X230505000Y-80645000D03*
X230505000Y-78105000D03*
X230505000Y-75565000D03*
X230505000Y-73025000D03*
X230505000Y-70485000D03*
X230505000Y-67945000D03*
X230505000Y-65405000D03*
X230505000Y-62865000D03*
X230505000Y-60325000D03*
D14*
X230505000Y-57785000D03*
D13*
X215265000Y-95885000D03*
X215265000Y-93345000D03*
X215265000Y-90805000D03*
X215265000Y-88265000D03*
X215265000Y-85725000D03*
X215265000Y-83185000D03*
X215265000Y-80645000D03*
X215265000Y-78105000D03*
X215265000Y-75565000D03*
X215265000Y-73025000D03*
X215265000Y-70485000D03*
X215265000Y-67945000D03*
X215265000Y-65405000D03*
X215265000Y-62865000D03*
X215265000Y-60325000D03*
X215265000Y-57785000D03*
X217805000Y-60325000D03*
X227505000Y-64135000D03*
X227505000Y-66675000D03*
X227505000Y-69215000D03*
X227505000Y-71755000D03*
X227505000Y-74295000D03*
D15*
X294640000Y-107950000D03*
X300990000Y-105410000D03*
X88900000Y-127000000D03*
X95250000Y-124460000D03*
X203200000Y-107950000D03*
X209550000Y-105410000D03*
X184150000Y-107950000D03*
X190500000Y-105410000D03*
X165100000Y-107950000D03*
X171450000Y-105410000D03*
X146050000Y-107950000D03*
X152400000Y-105410000D03*
X127000000Y-107950000D03*
X133350000Y-105410000D03*
X203200000Y-69850000D03*
X209550000Y-67310000D03*
X184150000Y-69850000D03*
X190500000Y-67310000D03*
X237490000Y-127000000D03*
X243840000Y-124460000D03*
X256540000Y-127000000D03*
X262890000Y-124460000D03*
X237490000Y-88900000D03*
X243840000Y-86360000D03*
X275590000Y-127000000D03*
X281940000Y-124460000D03*
X256540000Y-88900000D03*
X262890000Y-86360000D03*
X294640000Y-127000000D03*
X300990000Y-124460000D03*
X275590000Y-88900000D03*
X281940000Y-86360000D03*
X294640000Y-88900000D03*
X300990000Y-86360000D03*
X256540000Y-107950000D03*
X262890000Y-105410000D03*
X237490000Y-69850000D03*
X243840000Y-67310000D03*
X275590000Y-107950000D03*
X281940000Y-105410000D03*
X256540000Y-69850000D03*
X262890000Y-67310000D03*
X294640000Y-69850000D03*
X300990000Y-67310000D03*
X203200000Y-127000000D03*
X209550000Y-124460000D03*
X184150000Y-127000000D03*
X190500000Y-124460000D03*
X165100000Y-127000000D03*
X171450000Y-124460000D03*
X146050000Y-127000000D03*
X152400000Y-124460000D03*
X127000000Y-127000000D03*
X133350000Y-124460000D03*
X107950000Y-127000000D03*
X114300000Y-124460000D03*
X275590000Y-69850000D03*
X281940000Y-67310000D03*
X237490000Y-107950000D03*
X243840000Y-105410000D03*
X107950000Y-107950000D03*
X114300000Y-105410000D03*
X88900000Y-107950000D03*
X95250000Y-105410000D03*
D16*
X97110000Y-60275000D03*
D17*
X98370000Y-57785000D03*
X102870000Y-57785000D03*
D16*
X104120000Y-60275000D03*
D13*
X175260000Y-96520000D03*
X160020000Y-96520000D03*
X175260000Y-99060000D03*
X175260000Y-101600000D03*
X175260000Y-104140000D03*
X175260000Y-106680000D03*
X175260000Y-109220000D03*
X175260000Y-111760000D03*
X175260000Y-114300000D03*
X175260000Y-116840000D03*
X175260000Y-119380000D03*
X175260000Y-121920000D03*
X175260000Y-124460000D03*
X175260000Y-127000000D03*
X175260000Y-129540000D03*
X160020000Y-99060000D03*
X160020000Y-101600000D03*
X160020000Y-104140000D03*
X160020000Y-106680000D03*
X160020000Y-109220000D03*
X160020000Y-111760000D03*
X160020000Y-114300000D03*
X160020000Y-116840000D03*
X160020000Y-119380000D03*
X160020000Y-121920000D03*
X160020000Y-124460000D03*
X160020000Y-127000000D03*
D14*
X160020000Y-129540000D03*
D18*
X83950000Y-77345000D03*
X83950000Y-79885000D03*
X83950000Y-81915000D03*
X83950000Y-84455000D03*
D19*
X81280000Y-74295000D03*
X81280000Y-88015000D03*
D14*
X81915000Y-92710000D03*
D20*
X74295000Y-125730000D03*
X81915000Y-95250000D03*
X74295000Y-123190000D03*
X81915000Y-97790000D03*
X74295000Y-120650000D03*
X81915000Y-100330000D03*
X74295000Y-118110000D03*
X81915000Y-102870000D03*
X74295000Y-115570000D03*
X81915000Y-105410000D03*
X74295000Y-113030000D03*
X81915000Y-107950000D03*
X74295000Y-110490000D03*
X81915000Y-110490000D03*
X74295000Y-107950000D03*
X81915000Y-113030000D03*
X74295000Y-105410000D03*
X81915000Y-115570000D03*
X74295000Y-102870000D03*
X81915000Y-118110000D03*
X74295000Y-100330000D03*
X81915000Y-120650000D03*
X74295000Y-97790000D03*
X81915000Y-123190000D03*
X74295000Y-95250000D03*
X81915000Y-125730000D03*
X74295000Y-92710000D03*
D14*
X305435000Y-127000000D03*
D20*
X313055000Y-93980000D03*
X305435000Y-124460000D03*
X313055000Y-96520000D03*
X305435000Y-121920000D03*
X313055000Y-99060000D03*
X305435000Y-119380000D03*
X313055000Y-101600000D03*
X305435000Y-116840000D03*
X313055000Y-104140000D03*
X305435000Y-114300000D03*
X313055000Y-106680000D03*
X305435000Y-111760000D03*
X313055000Y-109220000D03*
X305435000Y-109220000D03*
X313055000Y-111760000D03*
X305435000Y-106680000D03*
X313055000Y-114300000D03*
X305435000Y-104140000D03*
X313055000Y-116840000D03*
X305435000Y-101600000D03*
X313055000Y-119380000D03*
X305435000Y-99060000D03*
X313055000Y-121920000D03*
X305435000Y-96520000D03*
X313055000Y-124460000D03*
X305435000Y-93980000D03*
X313055000Y-127000000D03*
D21*
X207010000Y-71025000D03*
X207010000Y-75025000D03*
X210820000Y-71025000D03*
X210820000Y-75025000D03*
D22*
X89535000Y-60345000D03*
X89535000Y-62845000D03*
X93345000Y-60345000D03*
X93345000Y-62845000D03*
X108585000Y-60345000D03*
X108585000Y-62845000D03*
X112395000Y-60345000D03*
X112395000Y-62845000D03*
X165735000Y-60345000D03*
X165735000Y-62845000D03*
X169545000Y-60345000D03*
X169545000Y-62845000D03*
D23*
X194965000Y-95885000D03*
X197465000Y-95885000D03*
D22*
X302260000Y-111085000D03*
X302260000Y-108585000D03*
X85090000Y-113050000D03*
X85090000Y-115550000D03*
D24*
X135255000Y-90805000D03*
D25*
X132715000Y-90805000D03*
X130175000Y-90805000D03*
X127635000Y-90805000D03*
X125095000Y-90805000D03*
X122555000Y-90805000D03*
D14*
X182245000Y-85090000D03*
D20*
X210185000Y-92710000D03*
X184785000Y-85090000D03*
X207645000Y-92710000D03*
X187325000Y-85090000D03*
X205105000Y-92710000D03*
X189865000Y-85090000D03*
X202565000Y-92710000D03*
X192405000Y-85090000D03*
X200025000Y-92710000D03*
X194945000Y-85090000D03*
X197485000Y-92710000D03*
X197485000Y-85090000D03*
X194945000Y-92710000D03*
X200025000Y-85090000D03*
X192405000Y-92710000D03*
X202565000Y-85090000D03*
X189865000Y-92710000D03*
X205105000Y-85090000D03*
X187325000Y-92710000D03*
X207645000Y-85090000D03*
X184785000Y-92710000D03*
X210185000Y-85090000D03*
X182245000Y-92710000D03*
D21*
X177800000Y-90900000D03*
X177800000Y-86900000D03*
D26*
X107315000Y-86415000D03*
X107315000Y-81915000D03*
X113815000Y-86415000D03*
X113815000Y-81915000D03*
X88265000Y-86415000D03*
X88265000Y-81915000D03*
X94765000Y-86415000D03*
X94765000Y-81915000D03*
X126365000Y-86415000D03*
X126365000Y-81915000D03*
X132865000Y-86415000D03*
X132865000Y-81915000D03*
D23*
X141010000Y-92710000D03*
X143510000Y-92710000D03*
D14*
X140970000Y-81280000D03*
D20*
X163830000Y-88900000D03*
X143510000Y-81280000D03*
X161290000Y-88900000D03*
X146050000Y-81280000D03*
X158750000Y-88900000D03*
X148590000Y-81280000D03*
X156210000Y-88900000D03*
X151130000Y-81280000D03*
X153670000Y-88900000D03*
X153670000Y-81280000D03*
X151130000Y-88900000D03*
X156210000Y-81280000D03*
X148590000Y-88900000D03*
X158750000Y-81280000D03*
X146050000Y-88900000D03*
X161290000Y-81280000D03*
X143510000Y-88900000D03*
X163830000Y-81280000D03*
X140970000Y-88900000D03*
D17*
X93940000Y-57270000D03*
X88940000Y-57270000D03*
X91440000Y-57270000D03*
X88940000Y-71770000D03*
X93940000Y-71770000D03*
D27*
X85240000Y-64770000D03*
X97640000Y-64770000D03*
D17*
X112990000Y-57270000D03*
X107990000Y-57270000D03*
X110490000Y-57270000D03*
X107990000Y-71770000D03*
X112990000Y-71770000D03*
D27*
X104290000Y-64770000D03*
X116690000Y-64770000D03*
D17*
X170140000Y-57270000D03*
X165140000Y-57270000D03*
X167640000Y-57270000D03*
X165140000Y-71770000D03*
X170140000Y-71770000D03*
D27*
X161440000Y-64770000D03*
X173840000Y-64770000D03*
D22*
X124206000Y-59710000D03*
X124206000Y-62210000D03*
X130048000Y-59710000D03*
X130048000Y-62210000D03*
X141732000Y-59710000D03*
X141732000Y-62210000D03*
X147574000Y-59710000D03*
X147574000Y-62210000D03*
X153416000Y-59710000D03*
X153416000Y-62210000D03*
X121412000Y-69870000D03*
X121412000Y-72370000D03*
X127254000Y-69870000D03*
X127254000Y-72370000D03*
X133096000Y-69870000D03*
X133096000Y-72370000D03*
X138938000Y-69870000D03*
X138938000Y-72370000D03*
X144780000Y-69870000D03*
X144780000Y-72370000D03*
X150622000Y-69870000D03*
X150622000Y-72370000D03*
X156464000Y-69870000D03*
X156464000Y-72370000D03*
X78105000Y-60980000D03*
X78105000Y-63480000D03*
D24*
X229235000Y-128905000D03*
D25*
X226695000Y-128905000D03*
X224155000Y-128905000D03*
X221615000Y-128905000D03*
X219075000Y-128905000D03*
X216535000Y-128905000D03*
D28*
X193040000Y-79375000D03*
D29*
X195040000Y-79375000D03*
X197040000Y-79375000D03*
X199040000Y-79375000D03*
D28*
X177165000Y-79375000D03*
D29*
X179165000Y-79375000D03*
X181165000Y-79375000D03*
X183165000Y-79375000D03*
D26*
X219710000Y-125150000D03*
X219710000Y-120650000D03*
X226210000Y-125150000D03*
X226210000Y-120650000D03*
D30*
X100965000Y-76835000D03*
D31*
X102990000Y-76835000D03*
X102396891Y-78266891D03*
X100965000Y-78860000D03*
X99533109Y-78266891D03*
X98940000Y-76835000D03*
X99533109Y-75403109D03*
X100965000Y-74810000D03*
X102396891Y-75403109D03*
D30*
X167640000Y-76835000D03*
D31*
X169665000Y-76835000D03*
X169071891Y-78266891D03*
X167640000Y-78860000D03*
X166208109Y-78266891D03*
X165615000Y-76835000D03*
X166208109Y-75403109D03*
X167640000Y-74810000D03*
X169071891Y-75403109D03*
D30*
X222250000Y-110490000D03*
D31*
X224275000Y-110490000D03*
X223681891Y-111921891D03*
X222250000Y-112515000D03*
X220818109Y-111921891D03*
X220225000Y-110490000D03*
X220818109Y-109058109D03*
X222250000Y-108465000D03*
X223681891Y-109058109D03*
D30*
X196215000Y-112395000D03*
D31*
X198240000Y-112395000D03*
X197646891Y-113826891D03*
X196215000Y-114420000D03*
X194783109Y-113826891D03*
X194190000Y-112395000D03*
X194783109Y-110963109D03*
X196215000Y-110370000D03*
X197646891Y-110963109D03*
D30*
X287655000Y-112395000D03*
D31*
X289680000Y-112395000D03*
X289086891Y-113826891D03*
X287655000Y-114420000D03*
X286223109Y-113826891D03*
X285630000Y-112395000D03*
X286223109Y-110963109D03*
X287655000Y-110370000D03*
X289086891Y-110963109D03*
D30*
X249555000Y-74295000D03*
D31*
X251580000Y-74295000D03*
X250986891Y-75726891D03*
X249555000Y-76320000D03*
X248123109Y-75726891D03*
X247530000Y-74295000D03*
X248123109Y-72863109D03*
X249555000Y-72270000D03*
X250986891Y-72863109D03*
D30*
X249555000Y-112395000D03*
D31*
X251580000Y-112395000D03*
X250986891Y-113826891D03*
X249555000Y-114420000D03*
X248123109Y-113826891D03*
X247530000Y-112395000D03*
X248123109Y-110963109D03*
X249555000Y-110370000D03*
X250986891Y-110963109D03*
D30*
X100965000Y-112395000D03*
D31*
X102990000Y-112395000D03*
X102396891Y-113826891D03*
X100965000Y-114420000D03*
X99533109Y-113826891D03*
X98940000Y-112395000D03*
X99533109Y-110963109D03*
X100965000Y-110370000D03*
X102396891Y-110963109D03*
D30*
X139065000Y-112395000D03*
D31*
X141090000Y-112395000D03*
X140496891Y-113826891D03*
X139065000Y-114420000D03*
X137633109Y-113826891D03*
X137040000Y-112395000D03*
X137633109Y-110963109D03*
X139065000Y-110370000D03*
X140496891Y-110963109D03*
D30*
X287655000Y-74295000D03*
D31*
X289680000Y-74295000D03*
X289086891Y-75726891D03*
X287655000Y-76320000D03*
X286223109Y-75726891D03*
X285630000Y-74295000D03*
X286223109Y-72863109D03*
X287655000Y-72270000D03*
X289086891Y-72863109D03*
D22*
X302260000Y-71775000D03*
X302260000Y-74275000D03*
D32*
X287052000Y-68961000D03*
X291052000Y-68961000D03*
D14*
X313055000Y-59055000D03*
D20*
X305435000Y-86995000D03*
X313055000Y-61595000D03*
X305435000Y-84455000D03*
X313055000Y-64135000D03*
X305435000Y-81915000D03*
X313055000Y-66675000D03*
X305435000Y-79375000D03*
X313055000Y-69215000D03*
X305435000Y-76835000D03*
X313055000Y-71755000D03*
X305435000Y-74295000D03*
X313055000Y-74295000D03*
X305435000Y-71755000D03*
X313055000Y-76835000D03*
X305435000Y-69215000D03*
X313055000Y-79375000D03*
X305435000Y-66675000D03*
X313055000Y-81915000D03*
X305435000Y-64135000D03*
X313055000Y-84455000D03*
X305435000Y-61595000D03*
X313055000Y-86995000D03*
X305435000Y-59055000D03*
D33*
X92710000Y-116205000D03*
X87630000Y-116205000D03*
D34*
X90170000Y-116205000D03*
D33*
X95250000Y-116205000D03*
X111760000Y-116205000D03*
X106680000Y-116205000D03*
D34*
X109220000Y-116205000D03*
D33*
X114300000Y-116205000D03*
X130810000Y-116205000D03*
X125730000Y-116205000D03*
D34*
X128270000Y-116205000D03*
D33*
X133350000Y-116205000D03*
X149860000Y-116205000D03*
X144780000Y-116205000D03*
D34*
X147320000Y-116205000D03*
D33*
X152400000Y-116205000D03*
X168910000Y-116205000D03*
X163830000Y-116205000D03*
D34*
X166370000Y-116205000D03*
D33*
X171450000Y-116205000D03*
X187960000Y-116205000D03*
X182880000Y-116205000D03*
D34*
X185420000Y-116205000D03*
D33*
X190500000Y-116205000D03*
X207010000Y-116205000D03*
X201930000Y-116205000D03*
D34*
X204470000Y-116205000D03*
D33*
X209550000Y-116205000D03*
X92710000Y-97155000D03*
X87630000Y-97155000D03*
D34*
X90170000Y-97155000D03*
D33*
X95250000Y-97155000D03*
X111760000Y-97155000D03*
X106680000Y-97155000D03*
D34*
X109220000Y-97155000D03*
D33*
X114300000Y-97155000D03*
X130810000Y-97155000D03*
X125730000Y-97155000D03*
D34*
X128270000Y-97155000D03*
D33*
X133350000Y-97155000D03*
X149860000Y-97155000D03*
X144780000Y-97155000D03*
D34*
X147320000Y-97155000D03*
D33*
X152400000Y-97155000D03*
X168910000Y-97155000D03*
X163830000Y-97155000D03*
D34*
X166370000Y-97155000D03*
D33*
X171450000Y-97155000D03*
X187960000Y-97155000D03*
X182880000Y-97155000D03*
D34*
X185420000Y-97155000D03*
D33*
X190500000Y-97155000D03*
X207010000Y-97155000D03*
X201930000Y-97155000D03*
D34*
X204470000Y-97155000D03*
D33*
X209550000Y-97155000D03*
X187960000Y-59055000D03*
X182880000Y-59055000D03*
D34*
X185420000Y-59055000D03*
D33*
X190500000Y-59055000D03*
X207010000Y-59055000D03*
X201930000Y-59055000D03*
D34*
X204470000Y-59055000D03*
D33*
X209550000Y-59055000D03*
X241300000Y-116205000D03*
X236220000Y-116205000D03*
D34*
X238760000Y-116205000D03*
D33*
X243840000Y-116205000D03*
X260350000Y-116205000D03*
X255270000Y-116205000D03*
D34*
X257810000Y-116205000D03*
D33*
X262890000Y-116205000D03*
X279400000Y-116840000D03*
X274320000Y-116840000D03*
D34*
X276860000Y-116840000D03*
D33*
X281940000Y-116840000D03*
X298450000Y-116205000D03*
X293370000Y-116205000D03*
D34*
X295910000Y-116205000D03*
D33*
X300990000Y-116205000D03*
X241300000Y-97155000D03*
X236220000Y-97155000D03*
D34*
X238760000Y-97155000D03*
D33*
X243840000Y-97155000D03*
X260350000Y-97155000D03*
X255270000Y-97155000D03*
D34*
X257810000Y-97155000D03*
D33*
X262890000Y-97155000D03*
X279400000Y-97155000D03*
X274320000Y-97155000D03*
D34*
X276860000Y-97155000D03*
D33*
X281940000Y-97155000D03*
X298450000Y-97155000D03*
X293370000Y-97155000D03*
D34*
X295910000Y-97155000D03*
D33*
X300990000Y-97155000D03*
X241300000Y-78105000D03*
X236220000Y-78105000D03*
D34*
X238760000Y-78105000D03*
D33*
X243840000Y-78105000D03*
X260350000Y-78105000D03*
X255270000Y-78105000D03*
D34*
X257810000Y-78105000D03*
D33*
X262890000Y-78105000D03*
X279400000Y-78105000D03*
X274320000Y-78105000D03*
D34*
X276860000Y-78105000D03*
D33*
X281940000Y-78105000D03*
X298450000Y-78105000D03*
X293370000Y-78105000D03*
D34*
X295910000Y-78105000D03*
D33*
X300990000Y-78105000D03*
X241300000Y-59055000D03*
X236220000Y-59055000D03*
D34*
X238760000Y-59055000D03*
D33*
X243840000Y-59055000D03*
X260350000Y-59055000D03*
X255270000Y-59055000D03*
D34*
X257810000Y-59055000D03*
D33*
X262890000Y-59055000D03*
X279400000Y-59055000D03*
X274320000Y-59055000D03*
D34*
X276860000Y-59055000D03*
D33*
X281940000Y-59055000D03*
X298450000Y-59055000D03*
X293370000Y-59055000D03*
D34*
X295910000Y-59055000D03*
D33*
X300990000Y-59055000D03*
D24*
X117475000Y-88265000D03*
D25*
X117475000Y-90805000D03*
D35*
X194415000Y-99695000D03*
X198015000Y-99695000D03*
D36*
X297815000Y-70590000D03*
X297815000Y-74190000D03*
D31*
X186861200Y-77182700D03*
X189633800Y-80524700D03*
X205214000Y-75165100D03*
X228156100Y-77608600D03*
X314895200Y-101600000D03*
X301102700Y-89915300D03*
X269361400Y-89103400D03*
X267189400Y-90751500D03*
X218533300Y-118052800D03*
X237352700Y-117266700D03*
X237496600Y-104557100D03*
X232964400Y-100545500D03*
X304431200Y-100474700D03*
X144780000Y-72370000D03*
X124206000Y-62210000D03*
X130048000Y-62210000D03*
X141732000Y-62210000D03*
X147574000Y-62210000D03*
X153416000Y-62210000D03*
X156464000Y-72370000D03*
X150622000Y-72370000D03*
X138938000Y-72370000D03*
X133096000Y-72370000D03*
X127254000Y-72370000D03*
X121412000Y-72370000D03*
X78105000Y-63480000D03*
X300736000Y-73025000D03*
X83040400Y-116356600D03*
X94279100Y-113501200D03*
X84652500Y-109627700D03*
X95130500Y-113544200D03*
X73333700Y-101351100D03*
X92549400Y-128294300D03*
X75263500Y-128928000D03*
X76050100Y-115283600D03*
X88214900Y-93929100D03*
X87349000Y-94813700D03*
X103662700Y-109900200D03*
X85668200Y-100737200D03*
X112051200Y-100549900D03*
X114980300Y-111426200D03*
X152687800Y-112586200D03*
X84260100Y-100524900D03*
X97398100Y-100264700D03*
X108075600Y-111426200D03*
X150822300Y-113178400D03*
X167464600Y-108792600D03*
X173627700Y-109164100D03*
X177032200Y-106704000D03*
X91069200Y-107911600D03*
X106995500Y-90779000D03*
X111481700Y-83919700D03*
X152895400Y-76192700D03*
X157401800Y-71109200D03*
X89384800Y-110490000D03*
X174451900Y-58816000D03*
X162271600Y-59716700D03*
X159372700Y-56817800D03*
X85047500Y-59551700D03*
X189740700Y-72483500D03*
X198998100Y-77925200D03*
X206997600Y-77782400D03*
X272691800Y-93127200D03*
X266173100Y-81136300D03*
X173363200Y-107773800D03*
X167326800Y-107484600D03*
X167252200Y-99074900D03*
X173673900Y-95126400D03*
X170306100Y-89471800D03*
X175133700Y-88212100D03*
X163982900Y-112893900D03*
X132854400Y-109532000D03*
X124723500Y-117974400D03*
X183314100Y-76551700D03*
X188409200Y-76551700D03*
X209262800Y-75565000D03*
X271861100Y-93173700D03*
X265097400Y-79785500D03*
X157629600Y-111139700D03*
X163744300Y-111260700D03*
X173005500Y-85589100D03*
X167145800Y-85589100D03*
X163272500Y-91329700D03*
X133525100Y-98993100D03*
X129875100Y-109852700D03*
X190937300Y-61152200D03*
X187889100Y-60567500D03*
X93210700Y-119136500D03*
X101809400Y-119086200D03*
X91728100Y-105739300D03*
X88957900Y-105739300D03*
X87053600Y-70549100D03*
X209678200Y-118252100D03*
X171361100Y-122292800D03*
X164824900Y-120514300D03*
X111836500Y-119100200D03*
X102998200Y-116985100D03*
X100737000Y-117115800D03*
X93126400Y-82184600D03*
X108827600Y-78845000D03*
X162746600Y-77913600D03*
X179666000Y-98232600D03*
X177437000Y-100137600D03*
X125806000Y-58260000D03*
X131648000Y-58260000D03*
X143332000Y-58260000D03*
X149174000Y-58260000D03*
X155016000Y-58260000D03*
X158064000Y-68420000D03*
X152222000Y-68420000D03*
X146380000Y-68420000D03*
X140538000Y-68420000D03*
X134696000Y-68420000D03*
X128854000Y-68420000D03*
X123012000Y-68420000D03*
X79705000Y-59530000D03*
X282658600Y-120430000D03*
X306325200Y-115745700D03*
X308844800Y-117633700D03*
X211032900Y-60249500D03*
X212123500Y-83561900D03*
X209246100Y-86990300D03*
X213995400Y-100353700D03*
X227501000Y-106035900D03*
X155517800Y-103591900D03*
X156795100Y-103931700D03*
X148727000Y-114648300D03*
X154142900Y-116313400D03*
X151151900Y-118169000D03*
X156613100Y-118834300D03*
X213220900Y-117821500D03*
X234385000Y-117427500D03*
X233732900Y-88668300D03*
X225629000Y-83292300D03*
X155056500Y-104557100D03*
X153204200Y-99119800D03*
X164444100Y-94892500D03*
X168959200Y-94744300D03*
X224742500Y-93040500D03*
X217445100Y-93388200D03*
X213531200Y-92718600D03*
X188445800Y-101033100D03*
X177361400Y-98495900D03*
X179935800Y-95921500D03*
X172139900Y-87987000D03*
X169307400Y-88436200D03*
X172009800Y-93713700D03*
X231810900Y-93669100D03*
X132596900Y-110383900D03*
X130108900Y-114679800D03*
X99131100Y-117137400D03*
X221901600Y-95707800D03*
X212945600Y-127063100D03*
X176603900Y-129064600D03*
X173651200Y-127052500D03*
X168194000Y-126826100D03*
X213440200Y-89689300D03*
X169855500Y-91172800D03*
X181437100Y-120028800D03*
X216788200Y-82352900D03*
X233609000Y-84534300D03*
X236143100Y-100527300D03*
X245495900Y-100359300D03*
X243728200Y-118095900D03*
X211660800Y-117167100D03*
X227412600Y-97008000D03*
X243149800Y-99673300D03*
X242981300Y-112830900D03*
X214481100Y-114918900D03*
X231901200Y-103729500D03*
X232629900Y-102037600D03*
X216582500Y-84560900D03*
X214066300Y-83927600D03*
X227221700Y-79023300D03*
X172020100Y-109759500D03*
X177067200Y-111494500D03*
X198350400Y-109005300D03*
X211679100Y-111951500D03*
X218810800Y-106778200D03*
X223215900Y-97679800D03*
X227360700Y-95689000D03*
X179078700Y-97665200D03*
X167276300Y-83207200D03*
X185106500Y-82048900D03*
X193433000Y-77065500D03*
X196300600Y-76070200D03*
X198899600Y-87656400D03*
X213441400Y-86758500D03*
X156647000Y-92498500D03*
X191028300Y-94063000D03*
X178450700Y-92433200D03*
X111243700Y-82886200D03*
X121012200Y-84248100D03*
X119761500Y-84393500D03*
X182326300Y-82715600D03*
X186393000Y-82715600D03*
X192154300Y-75303000D03*
X220107700Y-88457000D03*
X295704200Y-117642800D03*
X266483300Y-107950000D03*
X309185100Y-110630800D03*
X300146900Y-107295000D03*
X250946900Y-125493800D03*
X290308300Y-123469700D03*
X272594200Y-114965100D03*
X266479100Y-88936700D03*
X310909900Y-121920000D03*
X311690400Y-104508500D03*
X304347200Y-102870000D03*
X299944500Y-90456600D03*
X299358000Y-117387600D03*
X297824800Y-99195500D03*
X294684600Y-95303400D03*
X301014000Y-128318600D03*
X233669800Y-71488400D03*
X243298400Y-128468400D03*
X301398200Y-113349200D03*
X300577600Y-109514300D03*
X269766100Y-107125900D03*
X264436100Y-80504600D03*
X253870700Y-78928600D03*
X272505900Y-109506200D03*
X272555200Y-77510000D03*
X274408400Y-76234000D03*
X290233200Y-97596200D03*
X292405300Y-79956500D03*
X213841100Y-85090000D03*
X109542500Y-79349500D03*
X120896700Y-75943300D03*
X149523800Y-75943300D03*
X191106400Y-99332300D03*
X209375100Y-99624800D03*
X123343600Y-93324000D03*
X134456400Y-94318900D03*
X181632100Y-89892400D03*
X188756100Y-82043500D03*
X80869200Y-79885000D03*
X82249200Y-61706800D03*
X88555900Y-61706800D03*
X90459800Y-61669600D03*
X206854600Y-72945000D03*
X205459300Y-72236200D03*
X195953100Y-72236200D03*
X189741400Y-70404700D03*
X155615400Y-79885800D03*
X153569500Y-79566000D03*
X126129200Y-79566000D03*
X114103800Y-65527300D03*
X83681000Y-69120900D03*
X108754400Y-69120900D03*
X116931500Y-57447500D03*
X119848800Y-57118400D03*
X164581100Y-63098800D03*
X213831800Y-61062300D03*
X114151100Y-62219300D03*
X115579500Y-56676100D03*
X119714400Y-56300500D03*
X163634500Y-58577100D03*
X212059700Y-58844300D03*
X213401700Y-71755000D03*
X229096100Y-76018300D03*
X226274800Y-94613300D03*
X220527600Y-94948700D03*
X177284600Y-102006400D03*
X176895700Y-103383300D03*
X182968500Y-110862600D03*
X201349100Y-108462600D03*
X213911200Y-108093000D03*
X216580800Y-106371900D03*
X209648700Y-88337800D03*
X238125300Y-67306200D03*
X87053600Y-67112700D03*
X117476100Y-67286800D03*
X118207900Y-59323600D03*
X119347500Y-58019200D03*
X111138500Y-88015000D03*
X112126500Y-83294400D03*
X151037700Y-78151600D03*
X162384400Y-83832500D03*
X185428000Y-83493200D03*
X192955900Y-74635500D03*
X83017100Y-69807900D03*
X152095000Y-76192700D03*
X159091100Y-74585000D03*
X188883300Y-68715900D03*
X185874500Y-70140900D03*
X173950700Y-103810100D03*
X169611100Y-84197200D03*
X138408800Y-106432100D03*
X173950700Y-106848500D03*
X187674300Y-94815100D03*
X185289400Y-56803300D03*
X203102500Y-86697600D03*
X177744700Y-103719300D03*
X181467600Y-99188700D03*
X174537200Y-94110200D03*
X169848400Y-94637200D03*
X158576900Y-95951700D03*
X171694100Y-59752600D03*
X172412600Y-101276800D03*
X104784300Y-114521100D03*
X173420300Y-88962400D03*
X187599400Y-88177500D03*
X212748900Y-82859700D03*
X206051800Y-88697600D03*
X163073000Y-99016500D03*
X121788800Y-101665900D03*
X177619700Y-118882100D03*
X170913500Y-119397600D03*
X166886200Y-95131200D03*
X207367000Y-100723800D03*
X191052600Y-101659000D03*
X206391300Y-109136400D03*
X207067600Y-112217700D03*
X199070900Y-114360100D03*
X198747800Y-115620700D03*
X183926700Y-117366800D03*
X208391400Y-74020600D03*
X193668200Y-75055200D03*
X188595000Y-90131700D03*
X163390700Y-117606500D03*
X170283900Y-98953000D03*
X209081600Y-83485000D03*
X161831600Y-98150700D03*
X115658000Y-99677400D03*
X161868100Y-99430000D03*
X116934800Y-112045300D03*
X201060300Y-98707000D03*
X178426700Y-104401100D03*
X187214200Y-114303700D03*
X173229000Y-60185000D03*
X111617300Y-113408200D03*
X132051600Y-113702600D03*
X150874700Y-95998400D03*
X157884000Y-95315400D03*
X159872700Y-93114700D03*
X166315500Y-109104800D03*
X180554000Y-107818400D03*
X185573300Y-108983700D03*
X206309800Y-106180000D03*
X193251400Y-115029200D03*
X177402000Y-113584400D03*
X186234900Y-113495900D03*
X185987700Y-107725000D03*
X188652500Y-106733100D03*
X189214000Y-103721900D03*
X196793000Y-104049900D03*
X201761900Y-109840000D03*
X190148200Y-100291100D03*
X191565800Y-100004800D03*
X179832000Y-86995000D03*
X137942900Y-70957500D03*
X228947700Y-61729100D03*
X129390800Y-89629600D03*
X136666400Y-70627200D03*
X149529200Y-83167700D03*
X164565200Y-91168800D03*
X193530400Y-93477600D03*
X192864100Y-95670400D03*
X205422900Y-95670400D03*
X213054000Y-104634100D03*
X225874500Y-99024600D03*
X226215300Y-96314300D03*
X218804500Y-82175100D03*
X207799400Y-79230400D03*
X200988600Y-70019100D03*
X192285500Y-70019100D03*
X188931300Y-70301900D03*
X155629800Y-77718700D03*
X141738800Y-75145300D03*
X122199100Y-67012500D03*
X126117600Y-65183700D03*
X119735600Y-60188000D03*
X126675800Y-74158100D03*
X119015400Y-59512200D03*
X133162500Y-74158100D03*
X131578000Y-70624000D03*
X138446600Y-74408700D03*
X156088600Y-60035600D03*
X153543000Y-69095200D03*
X147545600Y-71120000D03*
X145477400Y-75145300D03*
X153416000Y-58426600D03*
X147701000Y-69076000D03*
X146704700Y-70629400D03*
X151190500Y-75145300D03*
X156040000Y-57271600D03*
X158493700Y-72274100D03*
X154130900Y-70658200D03*
X151294600Y-76192700D03*
X231997500Y-102543300D03*
X261872600Y-114706100D03*
X271143200Y-71884000D03*
X298955700Y-68374800D03*
X300118900Y-63116600D03*
X301295900Y-114335900D03*
X297780100Y-80226300D03*
X294083900Y-91982600D03*
X269388200Y-91532900D03*
X266008000Y-95347900D03*
X295795300Y-79601000D03*
X264739800Y-68849900D03*
X298967200Y-62305400D03*
X302955900Y-70499100D03*
X306797800Y-74188700D03*
X232222900Y-65614200D03*
X274977300Y-80297700D03*
X269373800Y-119468000D03*
X273310900Y-56254600D03*
X264698100Y-98698600D03*
X303631100Y-95425700D03*
X280640600Y-68393400D03*
X281845200Y-69911600D03*
X241953800Y-79991200D03*
X242780800Y-98863400D03*
X284446200Y-98863400D03*
X263547900Y-80415500D03*
X259756700Y-69663100D03*
X261588000Y-68421200D03*
X228476900Y-63095100D03*
X267805200Y-93711000D03*
X304072300Y-67895000D03*
X287422300Y-61609000D03*
X260731700Y-68232400D03*
X258882800Y-69224800D03*
X256441500Y-98712100D03*
X313463000Y-57379300D03*
X269967800Y-90950500D03*
X265423700Y-93324900D03*
X269802400Y-94348100D03*
X267800200Y-94540800D03*
D37*
X79375000Y-113030000D02*
X74295000Y-118110000D01*
X81915000Y-113030000D02*
X79375000Y-113030000D01*
X303784000Y-108331000D02*
X305435000Y-106680000D01*
X303784000Y-109436000D02*
X303784000Y-108331000D01*
X302260000Y-110960000D02*
X303784000Y-109436000D01*
X302260000Y-111085000D02*
X302260000Y-110960000D01*
D38*
X311640300Y-101600000D02*
X313055000Y-101600000D01*
X306560300Y-106680000D02*
X311640300Y-101600000D01*
X305435000Y-106680000D02*
X306560300Y-106680000D01*
D37*
X85070000Y-113030000D02*
X85080000Y-113040000D01*
X81915000Y-113030000D02*
X85070000Y-113030000D01*
X85080000Y-113040000D02*
X85090000Y-113050000D01*
D38*
X186861200Y-77752100D02*
X189633800Y-80524700D01*
X186861200Y-77182700D02*
X186861200Y-77752100D01*
X207010000Y-71025000D02*
X205834700Y-71025000D01*
X205214000Y-75618400D02*
X205214000Y-75165100D01*
X205972100Y-76376500D02*
X205214000Y-75618400D01*
X207978400Y-76376500D02*
X205972100Y-76376500D01*
X208597100Y-75757800D02*
X207978400Y-76376500D01*
X208597100Y-75162800D02*
X208597100Y-75757800D01*
X209644700Y-74115200D02*
X208597100Y-75162800D01*
X209644700Y-71025000D02*
X209644700Y-74115200D01*
X210820000Y-71025000D02*
X209644700Y-71025000D01*
X314895200Y-95820200D02*
X314895200Y-101600000D01*
X313055000Y-93980000D02*
X314895200Y-95820200D01*
X268837500Y-89103400D02*
X267189400Y-90751500D01*
X269361400Y-89103400D02*
X268837500Y-89103400D01*
X204834000Y-74785100D02*
X205214000Y-75165100D01*
X204834000Y-71977200D02*
X204834000Y-74785100D01*
X205786200Y-71025000D02*
X204834000Y-71977200D01*
X205834700Y-71025000D02*
X205786200Y-71025000D01*
X228156100Y-90996100D02*
X228156100Y-77608600D01*
X230505000Y-93345000D02*
X228156100Y-90996100D01*
X304256500Y-100300000D02*
X304431200Y-100474700D01*
X304256500Y-96964100D02*
X304256500Y-100300000D01*
X301102700Y-93810300D02*
X304256500Y-96964100D01*
X301102700Y-89915300D02*
X301102700Y-93810300D01*
X232964400Y-100220800D02*
X232964400Y-100545500D01*
X232234900Y-99491300D02*
X232964400Y-100220800D01*
X232234900Y-95074900D02*
X232234900Y-99491300D01*
X230505000Y-93345000D02*
X232234900Y-95074900D01*
X236018700Y-106035000D02*
X237496600Y-104557100D01*
X236018700Y-109492500D02*
X236018700Y-106035000D01*
X237534600Y-111008400D02*
X236018700Y-109492500D01*
X237534600Y-117084800D02*
X237534600Y-111008400D01*
X237352700Y-117266700D02*
X237534600Y-117084800D01*
X179297200Y-128497200D02*
X175260000Y-124460000D01*
X208088900Y-128497200D02*
X179297200Y-128497200D01*
X218533300Y-118052800D02*
X208088900Y-128497200D01*
X85255200Y-112864800D02*
X85080000Y-113040000D01*
X95784400Y-112864800D02*
X85255200Y-112864800D01*
X99934800Y-117015200D02*
X95784400Y-112864800D01*
X99934800Y-118095900D02*
X99934800Y-117015200D01*
X101550400Y-119711500D02*
X99934800Y-118095900D01*
X102068500Y-119711500D02*
X101550400Y-119711500D01*
X102179300Y-119600700D02*
X102068500Y-119711500D01*
X111452700Y-119600700D02*
X102179300Y-119600700D01*
X111577500Y-119725500D02*
X111452700Y-119600700D01*
X112095600Y-119725500D02*
X111577500Y-119725500D01*
X112220400Y-119600700D02*
X112095600Y-119725500D01*
X155900500Y-119600700D02*
X112220400Y-119600700D01*
X159489800Y-123190000D02*
X155900500Y-119600700D01*
X165519100Y-123190000D02*
X159489800Y-123190000D01*
X166590400Y-124261300D02*
X165519100Y-123190000D01*
X169162500Y-124261300D02*
X166590400Y-124261300D01*
X170432200Y-122991600D02*
X169162500Y-124261300D01*
X172093200Y-122991600D02*
X170432200Y-122991600D01*
X173561600Y-124460000D02*
X172093200Y-122991600D01*
X175260000Y-124460000D02*
X173561600Y-124460000D01*
D37*
X313055000Y-99060000D02*
X313055000Y-96520000D01*
X310515000Y-99060000D02*
X313055000Y-99060000D01*
X305435000Y-104140000D02*
X310515000Y-99060000D01*
X196235000Y-91420000D02*
X202565000Y-85090000D01*
X196195000Y-91420000D02*
X196235000Y-91420000D01*
X196195000Y-93490000D02*
X196195000Y-91420000D01*
X197465000Y-94760000D02*
X196195000Y-93490000D01*
X197465000Y-95885000D02*
X197465000Y-94760000D01*
X196195000Y-91420000D02*
X189865000Y-85090000D01*
X143510000Y-92710000D02*
X143510000Y-88900000D01*
X144780000Y-72370000D02*
X144630000Y-72370000D01*
X112395000Y-62720000D02*
X110490000Y-60815000D01*
X112395000Y-62845000D02*
X112395000Y-62720000D01*
X107990000Y-63440000D02*
X108585000Y-62845000D01*
X107990000Y-71770000D02*
X107990000Y-63440000D01*
X88940000Y-63440000D02*
X89535000Y-62845000D01*
X88940000Y-71770000D02*
X88940000Y-63440000D01*
X90660000Y-62845000D02*
X91440000Y-62065000D01*
X89535000Y-62845000D02*
X90660000Y-62845000D01*
X86974700Y-124460000D02*
X95250000Y-124460000D01*
X85059100Y-122544000D02*
X86974700Y-124460000D01*
X85059100Y-121296000D02*
X85059100Y-122544000D01*
X85090000Y-121265000D02*
X85059100Y-121296000D01*
X85090000Y-115550000D02*
X85090000Y-121265000D01*
X79375000Y-115570000D02*
X81915000Y-115570000D01*
X74295000Y-120650000D02*
X79375000Y-115570000D01*
X85070000Y-115570000D02*
X85090000Y-115550000D01*
X81915000Y-115570000D02*
X85070000Y-115570000D01*
X304800000Y-104140000D02*
X305435000Y-104140000D01*
X302260000Y-106680000D02*
X304800000Y-104140000D01*
X301986000Y-74275000D02*
X300736000Y-73025000D01*
X302260000Y-74275000D02*
X301986000Y-74275000D01*
X294205000Y-74190000D02*
X293370000Y-75025000D01*
X297815000Y-74190000D02*
X294205000Y-74190000D01*
X306725000Y-73045000D02*
X306725000Y-73005000D01*
X313055000Y-79375000D02*
X306725000Y-73045000D01*
X302175000Y-74190000D02*
X302260000Y-74275000D01*
X297815000Y-74190000D02*
X302175000Y-74190000D01*
X304655000Y-73005000D02*
X306725000Y-73005000D01*
X303385000Y-74275000D02*
X304655000Y-73005000D01*
X302260000Y-74275000D02*
X303385000Y-74275000D01*
X306725000Y-73005000D02*
X313055000Y-66675000D01*
X302260000Y-108585000D02*
X302260000Y-106680000D01*
X302260000Y-106680000D02*
X300990000Y-105410000D01*
X74295000Y-125730000D02*
X74295000Y-123190000D01*
X74295000Y-123190000D02*
X74295000Y-120650000D01*
X92220000Y-62845000D02*
X91440000Y-62065000D01*
X93345000Y-62845000D02*
X92220000Y-62845000D01*
X91440000Y-62065000D02*
X91440000Y-57270000D01*
X110490000Y-60815000D02*
X110490000Y-57270000D01*
X169545000Y-62720000D02*
X167912000Y-61087000D01*
X169545000Y-62845000D02*
X169545000Y-62720000D01*
X167640000Y-60815000D02*
X167640000Y-57270000D01*
X167912000Y-61087000D02*
X167640000Y-60815000D01*
X197580000Y-100130000D02*
X198015000Y-99695000D01*
X197580000Y-102235000D02*
X197580000Y-100130000D01*
X198015000Y-96435000D02*
X197465000Y-95885000D01*
X198015000Y-99695000D02*
X198015000Y-96435000D01*
D38*
X217130300Y-127729700D02*
X216535000Y-127729700D01*
X219710000Y-125150000D02*
X217130300Y-127729700D01*
X216535000Y-128905000D02*
X216535000Y-127729700D01*
D37*
X167368000Y-61087000D02*
X167912000Y-61087000D01*
X165735000Y-62720000D02*
X167368000Y-61087000D01*
X165735000Y-62845000D02*
X165735000Y-62720000D01*
D38*
X165735000Y-71175000D02*
X165140000Y-71770000D01*
X165735000Y-62845000D02*
X165735000Y-71175000D01*
D37*
X108585000Y-62845000D02*
X108585000Y-62782500D01*
X108585000Y-62720000D02*
X110490000Y-60815000D01*
X108585000Y-62782500D02*
X108585000Y-62720000D01*
D38*
X103587500Y-57785000D02*
X102870000Y-57785000D01*
X108585000Y-62782500D02*
X103587500Y-57785000D01*
X166370000Y-129540000D02*
X171450000Y-124460000D01*
X160020000Y-129540000D02*
X166370000Y-129540000D01*
X230890400Y-58910300D02*
X230505000Y-58910300D01*
X239290100Y-67310000D02*
X230890400Y-58910300D01*
X243840000Y-67310000D02*
X239290100Y-67310000D01*
X230505000Y-57785000D02*
X230505000Y-58910300D01*
X83040400Y-121371500D02*
X83040400Y-116356600D01*
X88668900Y-127000000D02*
X83040400Y-121371500D01*
X88900000Y-127000000D02*
X88668900Y-127000000D01*
X106928200Y-127000000D02*
X107950000Y-127000000D01*
X97624500Y-117696300D02*
X106928200Y-127000000D01*
X97624500Y-116846600D02*
X97624500Y-117696300D01*
X95058000Y-114280100D02*
X97624500Y-116846600D01*
X94964800Y-114280100D02*
X95058000Y-114280100D01*
X94279100Y-113594400D02*
X94964800Y-114280100D01*
X94279100Y-113501200D02*
X94279100Y-113594400D01*
X74295000Y-105410000D02*
X75420300Y-105410000D01*
X84244800Y-109220000D02*
X84652500Y-109627700D01*
X79230300Y-109220000D02*
X84244800Y-109220000D01*
X75420300Y-105410000D02*
X79230300Y-109220000D01*
X98074800Y-116488500D02*
X95130500Y-113544200D01*
X98074800Y-117509700D02*
X98074800Y-116488500D01*
X106042900Y-125477800D02*
X98074800Y-117509700D01*
X112459400Y-125477800D02*
X106042900Y-125477800D01*
X113981600Y-127000000D02*
X112459400Y-125477800D01*
X127000000Y-127000000D02*
X113981600Y-127000000D01*
X92347200Y-128496500D02*
X92549400Y-128294300D01*
X87910400Y-128496500D02*
X92347200Y-128496500D01*
X86708600Y-127294700D02*
X87910400Y-128496500D01*
X74267100Y-127294700D02*
X86708600Y-127294700D01*
X72665400Y-125693000D02*
X74267100Y-127294700D01*
X72665400Y-102019400D02*
X72665400Y-125693000D01*
X73333700Y-101351100D02*
X72665400Y-102019400D01*
X74295000Y-100330000D02*
X74295000Y-101455300D01*
X74113800Y-101455300D02*
X74295000Y-101455300D01*
X74113800Y-101455400D02*
X74113800Y-101455300D01*
X73166400Y-102402800D02*
X74113800Y-101455400D01*
X73166400Y-118619500D02*
X73166400Y-102402800D01*
X73799100Y-119252200D02*
X73166400Y-118619500D01*
X74764900Y-119252200D02*
X73799100Y-119252200D01*
X79578500Y-114438600D02*
X74764900Y-119252200D01*
X90704000Y-114438600D02*
X79578500Y-114438600D01*
X91395400Y-115130000D02*
X90704000Y-114438600D01*
X91395400Y-116639700D02*
X91395400Y-115130000D01*
X93266900Y-118511200D02*
X91395400Y-116639700D01*
X97149800Y-118511200D02*
X93266900Y-118511200D01*
X107107000Y-128468400D02*
X97149800Y-118511200D01*
X157597300Y-128468400D02*
X107107000Y-128468400D01*
X157651100Y-128414600D02*
X157597300Y-128468400D01*
X163685400Y-128414600D02*
X157651100Y-128414600D01*
X165100000Y-127000000D02*
X163685400Y-128414600D01*
X74295000Y-97790000D02*
X74295000Y-98915300D01*
X72215100Y-125879600D02*
X75263500Y-128928000D01*
X72215100Y-100713900D02*
X72215100Y-125879600D01*
X74013700Y-98915300D02*
X72215100Y-100713900D01*
X74295000Y-98915300D02*
X74013700Y-98915300D01*
X79713600Y-111620100D02*
X76050100Y-115283600D01*
X83555300Y-111620100D02*
X79713600Y-111620100D01*
X85293200Y-109882200D02*
X83555300Y-111620100D01*
X85293200Y-109363200D02*
X85293200Y-109882200D01*
X82610000Y-106680000D02*
X85293200Y-109363200D01*
X81518100Y-106680000D02*
X82610000Y-106680000D01*
X75870600Y-101032500D02*
X81518100Y-106680000D01*
X75870600Y-97739400D02*
X75870600Y-101032500D01*
X74506500Y-96375300D02*
X75870600Y-97739400D01*
X74295000Y-96375300D02*
X74506500Y-96375300D01*
X74295000Y-95250000D02*
X74295000Y-96375300D01*
X74295000Y-92710000D02*
X74295000Y-93835300D01*
X74576400Y-93835300D02*
X74295000Y-93835300D01*
X76320900Y-95579800D02*
X74576400Y-93835300D01*
X76320900Y-98894100D02*
X76320900Y-95579800D01*
X81473100Y-104046300D02*
X76320900Y-98894100D01*
X84996300Y-104046300D02*
X81473100Y-104046300D01*
X88900000Y-107950000D02*
X84996300Y-104046300D01*
X99048400Y-99048400D02*
X107950000Y-107950000D01*
X95307600Y-99048400D02*
X99048400Y-99048400D01*
X93980000Y-97720800D02*
X95307600Y-99048400D01*
X93980000Y-96621500D02*
X93980000Y-97720800D01*
X91287600Y-93929100D02*
X93980000Y-96621500D01*
X88214900Y-93929100D02*
X91287600Y-93929100D01*
X103662700Y-108320900D02*
X103662700Y-109900200D01*
X96738800Y-101397000D02*
X103662700Y-108320900D01*
X95213100Y-101397000D02*
X96738800Y-101397000D01*
X91395400Y-97579300D02*
X95213100Y-101397000D01*
X91395400Y-96110500D02*
X91395400Y-97579300D01*
X90098600Y-94813700D02*
X91395400Y-96110500D01*
X87349000Y-94813700D02*
X90098600Y-94813700D01*
X81915000Y-100330000D02*
X83040300Y-100330000D01*
X84812600Y-99881600D02*
X85668200Y-100737200D01*
X83488700Y-99881600D02*
X84812600Y-99881600D01*
X83040300Y-100330000D02*
X83488700Y-99881600D01*
X112831500Y-109277400D02*
X114980300Y-111426200D01*
X112831500Y-101330200D02*
X112831500Y-109277400D01*
X112051200Y-100549900D02*
X112831500Y-101330200D01*
X157324000Y-107950000D02*
X152687800Y-112586200D01*
X165100000Y-107950000D02*
X157324000Y-107950000D01*
X81915000Y-102870000D02*
X83040300Y-102870000D01*
X83040300Y-101744700D02*
X84260100Y-100524900D01*
X83040300Y-102870000D02*
X83040300Y-101744700D01*
X175641600Y-108094600D02*
X177032200Y-106704000D01*
X174697200Y-108094600D02*
X175641600Y-108094600D01*
X173627700Y-109164100D02*
X174697200Y-108094600D01*
X108075600Y-110942200D02*
X108075600Y-111426200D01*
X97398100Y-100264700D02*
X108075600Y-110942200D01*
X158446600Y-105554100D02*
X150822300Y-113178400D01*
X164791900Y-105554100D02*
X158446600Y-105554100D01*
X166701500Y-107463700D02*
X164791900Y-105554100D01*
X166701500Y-108029500D02*
X166701500Y-107463700D01*
X167464600Y-108792600D02*
X166701500Y-108029500D01*
X84234700Y-105410000D02*
X81915000Y-105410000D01*
X88249300Y-109424600D02*
X84234700Y-105410000D01*
X89556200Y-109424600D02*
X88249300Y-109424600D01*
X91069200Y-107911600D02*
X89556200Y-109424600D01*
X155513700Y-73574400D02*
X152895400Y-76192700D01*
X155513700Y-71485200D02*
X155513700Y-73574400D01*
X155889600Y-71109300D02*
X155513700Y-71485200D01*
X157401800Y-71109300D02*
X155889600Y-71109300D01*
X157401800Y-71109200D02*
X157401800Y-71109300D01*
X111481700Y-86292800D02*
X106995500Y-90779000D01*
X111481700Y-83919700D02*
X111481700Y-86292800D01*
X177116100Y-56151800D02*
X174451900Y-58816000D01*
X203878500Y-56151800D02*
X177116100Y-56151800D01*
X205695400Y-57968700D02*
X203878500Y-56151800D01*
X205695400Y-61365500D02*
X205695400Y-57968700D01*
X203200000Y-63860900D02*
X205695400Y-61365500D01*
X203200000Y-69850000D02*
X203200000Y-63860900D01*
X162271600Y-59716700D02*
X159372700Y-56817800D01*
X91728100Y-108146700D02*
X89384800Y-110490000D01*
X91728100Y-107645500D02*
X91728100Y-108146700D01*
X90480600Y-106398000D02*
X91728100Y-107645500D01*
X88697500Y-106398000D02*
X90480600Y-106398000D01*
X87982800Y-105683300D02*
X88697500Y-106398000D01*
X87982800Y-101898300D02*
X87982800Y-105683300D01*
X85482700Y-99398200D02*
X87982800Y-101898300D01*
X85482700Y-87119000D02*
X85482700Y-99398200D01*
X85933100Y-86668600D02*
X85482700Y-87119000D01*
X85933100Y-69163700D02*
X85933100Y-86668600D01*
X87696600Y-67400200D02*
X85933100Y-69163700D01*
X87696600Y-63514300D02*
X87696600Y-67400200D01*
X85047500Y-60865200D02*
X87696600Y-63514300D01*
X85047500Y-59551700D02*
X85047500Y-60865200D01*
X195040000Y-79375000D02*
X195965300Y-79375000D01*
X195965300Y-79375000D02*
X195965300Y-77925200D01*
X195965300Y-77925200D02*
X198998100Y-77925200D01*
X207010000Y-75025000D02*
X207010000Y-73699700D01*
X272691800Y-87655000D02*
X266173100Y-81136300D01*
X272691800Y-93127200D02*
X272691800Y-87655000D01*
X206708300Y-77782400D02*
X206997600Y-77782400D01*
X204383700Y-75457800D02*
X206708300Y-77782400D01*
X204383700Y-71273300D02*
X204383700Y-75457800D01*
X205991400Y-69665600D02*
X204383700Y-71273300D01*
X207973300Y-69665600D02*
X205991400Y-69665600D01*
X208227300Y-69919600D02*
X207973300Y-69665600D01*
X208227300Y-72482400D02*
X208227300Y-69919600D01*
X207010000Y-73699700D02*
X208227300Y-72482400D01*
X193925400Y-72483500D02*
X189740700Y-72483500D01*
X195675300Y-74233400D02*
X193925400Y-72483500D01*
X195675300Y-77635200D02*
X195675300Y-74233400D01*
X195965300Y-77925200D02*
X195675300Y-77635200D01*
X174690600Y-109789400D02*
X175260000Y-109220000D01*
X173368700Y-109789400D02*
X174690600Y-109789400D01*
X173002300Y-109423000D02*
X173368700Y-109789400D01*
X173002300Y-108134700D02*
X173002300Y-109423000D01*
X173363200Y-107773800D02*
X173002300Y-108134700D01*
X167326800Y-107236900D02*
X167326800Y-107484600D01*
X164773200Y-104683300D02*
X167326800Y-107236900D01*
X164773200Y-101553900D02*
X164773200Y-104683300D01*
X167252200Y-99074900D02*
X164773200Y-101553900D01*
X164247700Y-112893900D02*
X163982900Y-112893900D01*
X168129900Y-109011700D02*
X164247700Y-112893900D01*
X168129900Y-108287700D02*
X168129900Y-109011700D01*
X167326800Y-107484600D02*
X168129900Y-108287700D01*
X175133700Y-83406300D02*
X175133700Y-88212100D01*
X179165000Y-79375000D02*
X175133700Y-83406300D01*
X125723200Y-117974400D02*
X124723500Y-117974400D01*
X127044600Y-116653000D02*
X125723200Y-117974400D01*
X127044600Y-115051900D02*
X127044600Y-116653000D01*
X132564500Y-109532000D02*
X127044600Y-115051900D01*
X132854400Y-109532000D02*
X132564500Y-109532000D01*
X173673900Y-92974000D02*
X173673900Y-95126400D01*
X170306200Y-89606300D02*
X173673900Y-92974000D01*
X170306200Y-89471800D02*
X170306200Y-89606300D01*
X170306100Y-89471800D02*
X170306200Y-89471800D01*
X180407600Y-76551700D02*
X183314100Y-76551700D01*
X178090300Y-78869000D02*
X180407600Y-76551700D01*
X178090300Y-79375000D02*
X178090300Y-78869000D01*
X209644700Y-75183100D02*
X209262800Y-75565000D01*
X209644700Y-75025000D02*
X209644700Y-75183100D01*
X210820000Y-75025000D02*
X209644700Y-75025000D01*
X265097400Y-81540000D02*
X265097400Y-79785500D01*
X271861100Y-88303700D02*
X265097400Y-81540000D01*
X271861100Y-93173700D02*
X271861100Y-88303700D01*
X192807700Y-77967400D02*
X193040000Y-78199700D01*
X192807700Y-76800200D02*
X192807700Y-77967400D01*
X194324400Y-75283500D02*
X192807700Y-76800200D01*
X194324400Y-74805600D02*
X194324400Y-75283500D01*
X193529000Y-74010200D02*
X194324400Y-74805600D01*
X190950700Y-74010200D02*
X193529000Y-74010200D01*
X188409200Y-76551700D02*
X190950700Y-74010200D01*
X193040000Y-79375000D02*
X193040000Y-78199700D01*
X177165000Y-79375000D02*
X177627700Y-79375000D01*
X177627700Y-79375000D02*
X178090300Y-79375000D01*
X133443700Y-99074500D02*
X133525100Y-98993100D01*
X133443700Y-102924800D02*
X133443700Y-99074500D01*
X129875100Y-106493400D02*
X133443700Y-102924800D01*
X129875100Y-109852700D02*
X129875100Y-106493400D01*
X173005500Y-83997200D02*
X173005500Y-85589100D01*
X177627700Y-79375000D02*
X173005500Y-83997200D01*
X167145800Y-87456400D02*
X163272500Y-91329700D01*
X167145800Y-85589100D02*
X167145800Y-87456400D01*
X159375300Y-112885400D02*
X157629600Y-111139700D01*
X162119600Y-112885400D02*
X159375300Y-112885400D01*
X163744300Y-111260700D02*
X162119600Y-112885400D01*
X89535000Y-60345000D02*
X89535000Y-60169600D01*
X89535000Y-57865000D02*
X88940000Y-57270000D01*
X89535000Y-60169600D02*
X89535000Y-57865000D01*
X219250600Y-113665000D02*
X230505000Y-113665000D01*
X218114600Y-112529000D02*
X219250600Y-113665000D01*
X214391300Y-112529000D02*
X218114600Y-112529000D01*
X214343500Y-112576800D02*
X214391300Y-112529000D01*
X208659300Y-112576800D02*
X214343500Y-112576800D01*
X207654500Y-111572000D02*
X208659300Y-112576800D01*
X205802100Y-111572000D02*
X207654500Y-111572000D01*
X205557800Y-111816300D02*
X205802100Y-111572000D01*
X200277100Y-111816300D02*
X205557800Y-111816300D01*
X197377700Y-108916900D02*
X200277100Y-111816300D01*
X188064200Y-108916900D02*
X197377700Y-108916900D01*
X183874900Y-104727600D02*
X188064200Y-108916900D01*
X180274500Y-104727600D02*
X183874900Y-104727600D01*
X178178700Y-102631800D02*
X180274500Y-104727600D01*
X176997900Y-102631800D02*
X178178700Y-102631800D01*
X176889200Y-102740500D02*
X176997900Y-102631800D01*
X174765900Y-102740500D02*
X176889200Y-102740500D01*
X171250200Y-99224800D02*
X174765900Y-102740500D01*
X171250200Y-99034900D02*
X171250200Y-99224800D01*
X170543000Y-98327700D02*
X171250200Y-99034900D01*
X170024900Y-98327700D02*
X170543000Y-98327700D01*
X169972100Y-98380500D02*
X170024900Y-98327700D01*
X162486200Y-98380500D02*
X169972100Y-98380500D01*
X162090700Y-98776000D02*
X162486200Y-98380500D01*
X161572600Y-98776000D02*
X162090700Y-98776000D01*
X160718100Y-97921500D02*
X161572600Y-98776000D01*
X156792500Y-97921500D02*
X160718100Y-97921500D01*
X153793800Y-94922800D02*
X156792500Y-97921500D01*
X150429100Y-94922800D02*
X153793800Y-94922800D01*
X150403000Y-94948900D02*
X150429100Y-94922800D01*
X134165100Y-94948900D02*
X150403000Y-94948900D01*
X133714800Y-94498600D02*
X134165100Y-94948900D01*
X109830500Y-94498600D02*
X133714800Y-94498600D01*
X87696700Y-72364800D02*
X109830500Y-94498600D01*
X87696700Y-70223600D02*
X87696700Y-72364800D01*
X88146900Y-69773400D02*
X87696700Y-70223600D01*
X88146900Y-62710500D02*
X88146900Y-69773400D01*
X87921700Y-62485300D02*
X88146900Y-62710500D01*
X87921700Y-61396500D02*
X87921700Y-62485300D01*
X89148600Y-60169600D02*
X87921700Y-61396500D01*
X89535000Y-60169600D02*
X89148600Y-60169600D01*
X93345000Y-60345000D02*
X93345000Y-59240700D01*
X93345000Y-57865000D02*
X93940000Y-57270000D01*
X93345000Y-59240700D02*
X93345000Y-57865000D01*
X226816600Y-107436600D02*
X230505000Y-111125000D01*
X206045000Y-107436600D02*
X226816600Y-107436600D01*
X203947800Y-105339400D02*
X206045000Y-107436600D01*
X196297800Y-105339400D02*
X203947800Y-105339400D01*
X193994000Y-103035600D02*
X196297800Y-105339400D01*
X193994000Y-102717100D02*
X193994000Y-103035600D01*
X192064500Y-100787600D02*
X193994000Y-102717100D01*
X191427400Y-100787600D02*
X192064500Y-100787600D01*
X190773500Y-100133700D02*
X191427400Y-100787600D01*
X190773500Y-99984400D02*
X190773500Y-100133700D01*
X190451100Y-99662000D02*
X190773500Y-99984400D01*
X189696300Y-99662000D02*
X190451100Y-99662000D01*
X189544300Y-99814000D02*
X189696300Y-99662000D01*
X179697300Y-99814000D02*
X189544300Y-99814000D01*
X177753800Y-97870500D02*
X179697300Y-99814000D01*
X174643500Y-97870500D02*
X177753800Y-97870500D01*
X174078500Y-97305500D02*
X174643500Y-97870500D01*
X174078400Y-97305500D02*
X174078500Y-97305500D01*
X169256700Y-92483800D02*
X174078400Y-97305500D01*
X162657900Y-92483800D02*
X169256700Y-92483800D01*
X161591700Y-91417600D02*
X162657900Y-92483800D01*
X154558200Y-91417600D02*
X161591700Y-91417600D01*
X152255300Y-89114700D02*
X154558200Y-91417600D01*
X152255300Y-88433800D02*
X152255300Y-89114700D01*
X151596200Y-87774700D02*
X152255300Y-88433800D01*
X148108900Y-87774700D02*
X151596200Y-87774700D01*
X147464700Y-88418900D02*
X148108900Y-87774700D01*
X147464700Y-90681400D02*
X147464700Y-88418900D01*
X144452600Y-93693500D02*
X147464700Y-90681400D01*
X136119400Y-93693500D02*
X144452600Y-93693500D01*
X135528000Y-93102100D02*
X136119400Y-93693500D01*
X128248700Y-93102100D02*
X135528000Y-93102100D01*
X126365000Y-91218400D02*
X128248700Y-93102100D01*
X126365000Y-90345800D02*
X126365000Y-91218400D01*
X120892600Y-84873400D02*
X126365000Y-90345800D01*
X120716100Y-84873400D02*
X120892600Y-84873400D01*
X120386800Y-84544100D02*
X120716100Y-84873400D01*
X120386800Y-84088300D02*
X120386800Y-84544100D01*
X120020600Y-83722100D02*
X120386800Y-84088300D01*
X113438600Y-83722100D02*
X120020600Y-83722100D01*
X112385600Y-82669100D02*
X113438600Y-83722100D01*
X111977800Y-82669100D02*
X112385600Y-82669100D01*
X108779000Y-79470300D02*
X111977800Y-82669100D01*
X108568600Y-79470300D02*
X108779000Y-79470300D01*
X94670000Y-65571700D02*
X108568600Y-79470300D01*
X94670000Y-60565700D02*
X94670000Y-65571700D01*
X93345000Y-59240700D02*
X94670000Y-60565700D01*
X108585000Y-57865000D02*
X107990000Y-57270000D01*
X108585000Y-60345000D02*
X108585000Y-57865000D01*
X203336700Y-73551600D02*
X190937300Y-61152200D01*
X203336700Y-75684600D02*
X203336700Y-73551600D01*
X214791700Y-87139600D02*
X203336700Y-75684600D01*
X215782900Y-87139600D02*
X214791700Y-87139600D01*
X221048600Y-92405300D02*
X215782900Y-87139600D01*
X221048600Y-92669100D02*
X221048600Y-92405300D01*
X221595700Y-93216200D02*
X221048600Y-92669100D01*
X221595800Y-93216200D02*
X221595700Y-93216200D01*
X228074600Y-99695000D02*
X221595800Y-93216200D01*
X230866700Y-99695000D02*
X228074600Y-99695000D01*
X231656400Y-100484700D02*
X230866700Y-99695000D01*
X231656400Y-102000100D02*
X231656400Y-100484700D01*
X230505000Y-103151500D02*
X231656400Y-102000100D01*
X230505000Y-103505000D02*
X230505000Y-103151500D01*
X112395000Y-57865000D02*
X112990000Y-57270000D01*
X112395000Y-60345000D02*
X112395000Y-57865000D01*
X189743000Y-62421400D02*
X187889100Y-60567500D01*
X189743000Y-64476300D02*
X189743000Y-62421400D01*
X203759200Y-78492500D02*
X189743000Y-64476300D01*
X203759200Y-79046900D02*
X203759200Y-78492500D01*
X208822600Y-84110300D02*
X203759200Y-79046900D01*
X209340700Y-84110300D02*
X208822600Y-84110300D01*
X209497200Y-83953800D02*
X209340700Y-84110300D01*
X210679600Y-83953800D02*
X209497200Y-83953800D01*
X212813500Y-86087700D02*
X210679600Y-83953800D01*
X212813500Y-87486200D02*
X212813500Y-86087700D01*
X214862300Y-89535000D02*
X212813500Y-87486200D01*
X216650300Y-89535000D02*
X214862300Y-89535000D01*
X221747500Y-94632200D02*
X216650300Y-89535000D01*
X222374900Y-94632200D02*
X221747500Y-94632200D01*
X228707700Y-100965000D02*
X222374900Y-94632200D01*
X230505000Y-100965000D02*
X228707700Y-100965000D01*
X88490400Y-105271800D02*
X88957900Y-105739300D01*
X88490400Y-101288700D02*
X88490400Y-105271800D01*
X85933100Y-98731400D02*
X88490400Y-101288700D01*
X85933100Y-87530800D02*
X85933100Y-98731400D01*
X86383400Y-87080500D02*
X85933100Y-87530800D01*
X86383400Y-71219300D02*
X86383400Y-87080500D01*
X87053600Y-70549100D02*
X86383400Y-71219300D01*
X93210700Y-120274200D02*
X93210700Y-119136500D01*
X103664700Y-130728200D02*
X93210700Y-120274200D01*
X167812200Y-130728200D02*
X103664700Y-130728200D01*
X172711300Y-125829100D02*
X167812200Y-130728200D01*
X175992200Y-125829100D02*
X172711300Y-125829100D01*
X179110600Y-128947500D02*
X175992200Y-125829100D01*
X208538900Y-128947500D02*
X179110600Y-128947500D01*
X219158800Y-118327600D02*
X208538900Y-128947500D01*
X219158800Y-117787500D02*
X219158800Y-118327600D01*
X217576300Y-116205000D02*
X219158800Y-117787500D01*
X215265000Y-116205000D02*
X217576300Y-116205000D01*
X92628700Y-106639900D02*
X91728100Y-105739300D01*
X92628700Y-108357800D02*
X92628700Y-106639900D01*
X100761400Y-116490500D02*
X92628700Y-108357800D01*
X100996100Y-116490500D02*
X100761400Y-116490500D01*
X101809400Y-117303800D02*
X100996100Y-116490500D01*
X101809400Y-119086200D02*
X101809400Y-117303800D01*
X105113300Y-119100200D02*
X102998200Y-116985100D01*
X111836500Y-119100200D02*
X105113300Y-119100200D01*
X108827600Y-75932400D02*
X112990000Y-71770000D01*
X108827600Y-78845000D02*
X108827600Y-75932400D01*
X168636400Y-119568100D02*
X171361100Y-122292800D01*
X165771100Y-119568100D02*
X168636400Y-119568100D01*
X164824900Y-120514300D02*
X165771100Y-119568100D01*
X214265300Y-113665000D02*
X215265000Y-113665000D01*
X209678200Y-118252100D02*
X214265300Y-113665000D01*
X93126400Y-87956700D02*
X93126400Y-82184600D01*
X86383400Y-94699700D02*
X93126400Y-87956700D01*
X86383400Y-97907900D02*
X86383400Y-94699700D01*
X89120700Y-100645200D02*
X86383400Y-97907900D01*
X89120700Y-104401200D02*
X89120700Y-100645200D01*
X92178400Y-107458900D02*
X89120700Y-104401200D01*
X92178400Y-108557200D02*
X92178400Y-107458900D01*
X100737000Y-117115800D02*
X92178400Y-108557200D01*
X179742000Y-98156600D02*
X179666000Y-98232600D01*
X179742000Y-97366500D02*
X179742000Y-98156600D01*
X179372600Y-96997100D02*
X179742000Y-97366500D01*
X178989400Y-96997100D02*
X179372600Y-96997100D01*
X171381700Y-89389400D02*
X178989400Y-96997100D01*
X171381700Y-88943100D02*
X171381700Y-89389400D01*
X168237600Y-85799000D02*
X171381700Y-88943100D01*
X168237600Y-83284100D02*
X168237600Y-85799000D01*
X162867100Y-77913600D02*
X168237600Y-83284100D01*
X162746600Y-77913600D02*
X162867100Y-77913600D01*
X177437000Y-100360400D02*
X177437000Y-100137600D01*
X181122800Y-104046200D02*
X177437000Y-100360400D01*
X183830400Y-104046200D02*
X181122800Y-104046200D01*
X188164200Y-108380000D02*
X183830400Y-104046200D01*
X198609500Y-108380000D02*
X188164200Y-108380000D01*
X201145200Y-110915700D02*
X198609500Y-108380000D01*
X204846200Y-110915700D02*
X201145200Y-110915700D01*
X205090500Y-110671400D02*
X204846200Y-110915700D01*
X214811400Y-110671400D02*
X205090500Y-110671400D01*
X215265000Y-111125000D02*
X214811400Y-110671400D01*
D37*
X140970000Y-81280000D02*
X140970000Y-69870000D01*
X150622000Y-69870000D02*
X156464000Y-69870000D01*
X144780000Y-69870000D02*
X150622000Y-69870000D01*
X133096000Y-69870000D02*
X138938000Y-69870000D01*
X127254000Y-69870000D02*
X133096000Y-69870000D01*
X121412000Y-69870000D02*
X127254000Y-69870000D01*
X130048000Y-59710000D02*
X124206000Y-59710000D01*
X141732000Y-59710000D02*
X130048000Y-59710000D01*
X147574000Y-59710000D02*
X141732000Y-59710000D01*
X153416000Y-59710000D02*
X147574000Y-59710000D01*
X140970000Y-88900000D02*
X140970000Y-81280000D01*
X124356000Y-59710000D02*
X125806000Y-58260000D01*
X124206000Y-59710000D02*
X124356000Y-59710000D01*
X130198000Y-59710000D02*
X131648000Y-58260000D01*
X130048000Y-59710000D02*
X130198000Y-59710000D01*
X141882000Y-59710000D02*
X143332000Y-58260000D01*
X141732000Y-59710000D02*
X141882000Y-59710000D01*
X147724000Y-59710000D02*
X149174000Y-58260000D01*
X147574000Y-59710000D02*
X147724000Y-59710000D01*
X153566000Y-59710000D02*
X155016000Y-58260000D01*
X153416000Y-59710000D02*
X153566000Y-59710000D01*
X150772000Y-69870000D02*
X152222000Y-68420000D01*
X150622000Y-69870000D02*
X150772000Y-69870000D01*
X144930000Y-69870000D02*
X146380000Y-68420000D01*
X144780000Y-69870000D02*
X144930000Y-69870000D01*
X139088000Y-69870000D02*
X140538000Y-68420000D01*
X138938000Y-69870000D02*
X139088000Y-69870000D01*
X133246000Y-69870000D02*
X134696000Y-68420000D01*
X133096000Y-69870000D02*
X133246000Y-69870000D01*
X127404000Y-69870000D02*
X128854000Y-68420000D01*
X127254000Y-69870000D02*
X127404000Y-69870000D01*
X121562000Y-69870000D02*
X123012000Y-68420000D01*
X121412000Y-69870000D02*
X121562000Y-69870000D01*
X78255000Y-60980000D02*
X79705000Y-59530000D01*
X78105000Y-60980000D02*
X78255000Y-60980000D01*
X294080000Y-73025000D02*
X293370000Y-73025000D01*
X296515000Y-70590000D02*
X294080000Y-73025000D01*
X297815000Y-70590000D02*
X296515000Y-70590000D01*
X299000000Y-71775000D02*
X297815000Y-70590000D01*
X302260000Y-71775000D02*
X299000000Y-71775000D01*
X302280000Y-71755000D02*
X302260000Y-71775000D01*
X305435000Y-71755000D02*
X302280000Y-71755000D01*
X138938000Y-69870000D02*
X140970000Y-69870000D01*
X140970000Y-69870000D02*
X144780000Y-69870000D01*
X195580000Y-100860000D02*
X194415000Y-99695000D01*
X195580000Y-102235000D02*
X195580000Y-100860000D01*
X194415000Y-96435000D02*
X194965000Y-95885000D01*
X194415000Y-99695000D02*
X194415000Y-96435000D01*
X194965000Y-92730000D02*
X194945000Y-92710000D01*
X194965000Y-95885000D02*
X194965000Y-92730000D01*
X192445000Y-90900000D02*
X177800000Y-90900000D01*
X194255000Y-92710000D02*
X192445000Y-90900000D01*
X194945000Y-92710000D02*
X194255000Y-92710000D01*
D38*
X177800000Y-90900000D02*
X176624700Y-90900000D01*
D37*
X141010000Y-92710000D02*
X141010000Y-92232500D01*
X141010000Y-88940000D02*
X140970000Y-88900000D01*
X141010000Y-92232500D02*
X141010000Y-88940000D01*
D38*
X128810300Y-91172300D02*
X128810300Y-90805000D01*
X129870500Y-92232500D02*
X128810300Y-91172300D01*
X141010000Y-92232500D02*
X129870500Y-92232500D01*
X127635000Y-90805000D02*
X128810300Y-90805000D01*
D37*
X121412000Y-69870000D02*
X121412000Y-61379000D01*
X123081000Y-59710000D02*
X124206000Y-59710000D01*
X121412000Y-61379000D02*
X123081000Y-59710000D01*
X288036000Y-68961000D02*
X287052000Y-68961000D01*
X289941000Y-67056000D02*
X288036000Y-68961000D01*
X294781000Y-67056000D02*
X289941000Y-67056000D01*
X297815000Y-70090000D02*
X294781000Y-67056000D01*
X297815000Y-70590000D02*
X297815000Y-70090000D01*
D38*
X287052000Y-68961000D02*
X285726700Y-68961000D01*
D37*
X156614000Y-69870000D02*
X157868400Y-68615600D01*
X156464000Y-69870000D02*
X156614000Y-69870000D01*
X157868400Y-68615600D02*
X158064000Y-68420000D01*
D38*
X121412000Y-60980000D02*
X121412000Y-61379000D01*
X116460000Y-56028000D02*
X121412000Y-60980000D01*
X83207000Y-56028000D02*
X116460000Y-56028000D01*
X79705000Y-59530000D02*
X83207000Y-56028000D01*
X285401500Y-69286200D02*
X285726700Y-68961000D01*
X281269100Y-69286200D02*
X285401500Y-69286200D01*
X281086300Y-69469000D02*
X281269100Y-69286200D01*
X279716100Y-69469000D02*
X281086300Y-69469000D01*
X278628700Y-68381600D02*
X279716100Y-69469000D01*
X266092500Y-68381600D02*
X278628700Y-68381600D01*
X264977300Y-69496800D02*
X266092500Y-68381600D01*
X260474800Y-69496800D02*
X264977300Y-69496800D01*
X259577500Y-68599500D02*
X260474800Y-69496800D01*
X258992600Y-68599500D02*
X259577500Y-68599500D01*
X258774700Y-68381600D02*
X258992600Y-68599500D01*
X246163200Y-68381600D02*
X258774700Y-68381600D01*
X245262300Y-69282500D02*
X246163200Y-68381600D01*
X239239400Y-69282500D02*
X245262300Y-69282500D01*
X237945800Y-67988900D02*
X239239400Y-69282500D01*
X235510900Y-67988900D02*
X237945800Y-67988900D01*
X231657000Y-64135000D02*
X235510900Y-67988900D01*
X230135500Y-64135000D02*
X231657000Y-64135000D01*
X229102200Y-63101700D02*
X230135500Y-64135000D01*
X229102200Y-62784500D02*
X229102200Y-63101700D01*
X224102700Y-57785000D02*
X229102200Y-62784500D01*
X215265000Y-57785000D02*
X224102700Y-57785000D01*
X174508300Y-88783600D02*
X176624700Y-90900000D01*
X174508300Y-88146700D02*
X174508300Y-88783600D01*
X159261000Y-72899400D02*
X174508300Y-88146700D01*
X158234700Y-72899400D02*
X159261000Y-72899400D01*
X157868400Y-72533100D02*
X158234700Y-72899400D01*
X157868400Y-71527000D02*
X157868400Y-72533100D01*
X158027100Y-71368300D02*
X157868400Y-71527000D01*
X158027100Y-68774300D02*
X158027100Y-71368300D01*
X157868400Y-68615600D02*
X158027100Y-68774300D01*
X313055000Y-109220000D02*
X313055000Y-110345300D01*
X313336300Y-110345300D02*
X313055000Y-110345300D01*
X314663600Y-111672600D02*
X313336300Y-110345300D01*
X314663600Y-127659700D02*
X314663600Y-111672600D01*
X312906100Y-129417200D02*
X314663600Y-127659700D01*
X239907200Y-129417200D02*
X312906100Y-129417200D01*
X237490000Y-127000000D02*
X239907200Y-129417200D01*
X262619800Y-127000000D02*
X256540000Y-127000000D01*
X265004800Y-124615000D02*
X262619800Y-127000000D01*
X278728000Y-124615000D02*
X265004800Y-124615000D01*
X282658600Y-120684400D02*
X278728000Y-124615000D01*
X282658600Y-120430000D02*
X282658600Y-120684400D01*
X281669800Y-127000000D02*
X275590000Y-127000000D01*
X288375300Y-120294500D02*
X281669800Y-127000000D01*
X292451900Y-120294500D02*
X288375300Y-120294500D01*
X293276100Y-119470300D02*
X292451900Y-120294500D01*
X300929700Y-119470300D02*
X293276100Y-119470300D01*
X304742200Y-115657800D02*
X300929700Y-119470300D01*
X306237300Y-115657800D02*
X304742200Y-115657800D01*
X306325200Y-115745700D02*
X306237300Y-115657800D01*
X295452400Y-127000000D02*
X294640000Y-127000000D01*
X304215500Y-118236900D02*
X295452400Y-127000000D01*
X308241600Y-118236900D02*
X304215500Y-118236900D01*
X308844800Y-117633700D02*
X308241600Y-118236900D01*
X169545000Y-60345000D02*
X169545000Y-59105000D01*
X169545000Y-57865000D02*
X170140000Y-57270000D01*
X169545000Y-59105000D02*
X169545000Y-57865000D01*
X173033400Y-59105000D02*
X169545000Y-59105000D01*
X181073600Y-67145200D02*
X173033400Y-59105000D01*
X185037000Y-67145200D02*
X181073600Y-67145200D01*
X188057900Y-70166100D02*
X185037000Y-67145200D01*
X188057900Y-70363500D02*
X188057900Y-70166100D01*
X188862000Y-71167600D02*
X188057900Y-70363500D01*
X193960400Y-71167600D02*
X188862000Y-71167600D01*
X199115000Y-76322200D02*
X193960400Y-71167600D01*
X199674800Y-76322200D02*
X199115000Y-76322200D01*
X206375000Y-83022400D02*
X199674800Y-76322200D01*
X206375000Y-85412900D02*
X206375000Y-83022400D01*
X207327100Y-86365000D02*
X206375000Y-85412900D01*
X209519600Y-86365000D02*
X207327100Y-86365000D01*
X212172500Y-89017900D02*
X209519600Y-86365000D01*
X212172500Y-89356300D02*
X212172500Y-89017900D01*
X214764500Y-91948300D02*
X212172500Y-89356300D01*
X218417100Y-91948300D02*
X214764500Y-91948300D01*
X221551300Y-95082500D02*
X218417100Y-91948300D01*
X222188300Y-95082500D02*
X221551300Y-95082500D01*
X224605300Y-97499500D02*
X222188300Y-95082500D01*
X224605300Y-98639700D02*
X224605300Y-97499500D01*
X226694900Y-100729300D02*
X224605300Y-98639700D01*
X226695000Y-100729300D02*
X226694900Y-100729300D01*
X226695000Y-103829000D02*
X226695000Y-100729300D01*
X228911000Y-106045000D02*
X226695000Y-103829000D01*
X230505000Y-106045000D02*
X228911000Y-106045000D01*
X165735000Y-57865000D02*
X165140000Y-57270000D01*
X165735000Y-60345000D02*
X165735000Y-57865000D01*
X212123500Y-63801500D02*
X212123500Y-83561900D01*
X211032900Y-62710900D02*
X212123500Y-63801500D01*
X211032900Y-60249500D02*
X211032900Y-62710900D01*
X230050100Y-108585000D02*
X227501000Y-106035900D01*
X230505000Y-108585000D02*
X230050100Y-108585000D01*
X213545100Y-99903400D02*
X213995400Y-100353700D01*
X213545100Y-93632500D02*
X213545100Y-99903400D01*
X211722200Y-91809600D02*
X213545100Y-93632500D01*
X211722200Y-89466400D02*
X211722200Y-91809600D01*
X209246100Y-86990300D02*
X211722200Y-89466400D01*
X151890500Y-117430400D02*
X151151900Y-118169000D01*
X153025900Y-117430400D02*
X151890500Y-117430400D01*
X154142900Y-116313400D02*
X153025900Y-117430400D01*
X155517800Y-103562200D02*
X155517800Y-103591900D01*
X160020000Y-99060000D02*
X155517800Y-103562200D01*
X156795100Y-104797200D02*
X156795100Y-103931700D01*
X148727000Y-112865300D02*
X156795100Y-104797200D01*
X148727000Y-114648300D02*
X148727000Y-112865300D01*
X234385000Y-105313500D02*
X234385000Y-117427500D01*
X236134700Y-103563800D02*
X234385000Y-105313500D01*
X236134700Y-101480400D02*
X236134700Y-103563800D01*
X233732900Y-99078600D02*
X236134700Y-101480400D01*
X233732900Y-88668300D02*
X233732900Y-99078600D01*
X205710300Y-125332100D02*
X213220900Y-117821500D01*
X201423200Y-125332100D02*
X205710300Y-125332100D01*
X200819900Y-125935400D02*
X201423200Y-125332100D01*
X185625400Y-125935400D02*
X200819900Y-125935400D01*
X182880000Y-123190000D02*
X185625400Y-125935400D01*
X174855500Y-123190000D02*
X182880000Y-123190000D01*
X174026000Y-122360500D02*
X174855500Y-123190000D01*
X174026000Y-121523600D02*
X174026000Y-122360500D01*
X172638900Y-120136500D02*
X174026000Y-121523600D01*
X170470700Y-120136500D02*
X172638900Y-120136500D01*
X169444300Y-119110100D02*
X170470700Y-120136500D01*
X164314200Y-119110100D02*
X169444300Y-119110100D01*
X162871800Y-120552500D02*
X164314200Y-119110100D01*
X158331300Y-120552500D02*
X162871800Y-120552500D01*
X156613100Y-118834300D02*
X158331300Y-120552500D01*
X154867600Y-104368200D02*
X155056500Y-104557100D01*
X154867600Y-100783200D02*
X154867600Y-104368200D01*
X153204200Y-99119800D02*
X154867600Y-100783200D01*
X164840400Y-94496200D02*
X164444100Y-94892500D01*
X168711100Y-94496200D02*
X164840400Y-94496200D01*
X168959200Y-94744300D02*
X168711100Y-94496200D01*
X169307400Y-89708200D02*
X169307400Y-88436200D01*
X172009800Y-92410600D02*
X169307400Y-89708200D01*
X172009800Y-93713700D02*
X172009800Y-92410600D01*
X172282300Y-88129400D02*
X172139900Y-87987000D01*
X172282300Y-89016200D02*
X172282300Y-88129400D01*
X179187600Y-95921500D02*
X172282300Y-89016200D01*
X179935800Y-95921500D02*
X179187600Y-95921500D01*
X177361400Y-98496000D02*
X177361400Y-98495900D01*
X177424200Y-98496000D02*
X177361400Y-98496000D01*
X179192500Y-100264300D02*
X177424200Y-98496000D01*
X187677000Y-100264300D02*
X179192500Y-100264300D01*
X188445800Y-101033100D02*
X187677000Y-100264300D01*
X224742500Y-84178800D02*
X224742500Y-93040500D01*
X225629000Y-83292300D02*
X224742500Y-84178800D01*
X216350600Y-94482700D02*
X217445100Y-93388200D01*
X214739800Y-94482700D02*
X216350600Y-94482700D01*
X213995400Y-93738300D02*
X214739800Y-94482700D01*
X213995400Y-93182800D02*
X213995400Y-93738300D01*
X213531200Y-92718600D02*
X213995400Y-93182800D01*
X231810900Y-93022200D02*
X231810900Y-93669100D01*
X230863700Y-92075000D02*
X231810900Y-93022200D01*
X230142900Y-92075000D02*
X230863700Y-92075000D01*
X229365500Y-91297600D02*
X230142900Y-92075000D01*
X229365500Y-76704500D02*
X229365500Y-91297600D01*
X230505000Y-75565000D02*
X229365500Y-76704500D01*
X175013300Y-128414600D02*
X173651200Y-127052500D01*
X175953900Y-128414600D02*
X175013300Y-128414600D01*
X176603900Y-129064600D02*
X175953900Y-128414600D01*
X130108900Y-112871900D02*
X130108900Y-114679800D01*
X132596900Y-110383900D02*
X130108900Y-112871900D01*
X166890200Y-125522300D02*
X168194000Y-126826100D01*
X162750500Y-125522300D02*
X166890200Y-125522300D01*
X162542800Y-125730000D02*
X162750500Y-125522300D01*
X153351600Y-125730000D02*
X162542800Y-125730000D01*
X153131800Y-125949800D02*
X153351600Y-125730000D01*
X149339800Y-125949800D02*
X153131800Y-125949800D01*
X148874000Y-125484000D02*
X149339800Y-125949800D01*
X135594400Y-125484000D02*
X148874000Y-125484000D01*
X135130800Y-125947600D02*
X135594400Y-125484000D01*
X130287600Y-125947600D02*
X135130800Y-125947600D01*
X129817800Y-125477800D02*
X130287600Y-125947600D01*
X123980900Y-125477800D02*
X129817800Y-125477800D01*
X123511900Y-125946800D02*
X123980900Y-125477800D01*
X113658200Y-125946800D02*
X123511900Y-125946800D01*
X112504000Y-124792600D02*
X113658200Y-125946800D01*
X105994600Y-124792600D02*
X112504000Y-124792600D01*
X99131100Y-117929100D02*
X105994600Y-124792600D01*
X99131100Y-117137400D02*
X99131100Y-117929100D01*
X212945600Y-125445300D02*
X212945600Y-127063100D01*
X223415400Y-114975500D02*
X212945600Y-125445300D01*
X230817700Y-114975500D02*
X223415400Y-114975500D01*
X231652100Y-114141100D02*
X230817700Y-114975500D01*
X231652100Y-110589500D02*
X231652100Y-114141100D01*
X230917600Y-109855000D02*
X231652100Y-110589500D01*
X230183000Y-109855000D02*
X230917600Y-109855000D01*
X224155000Y-103827000D02*
X230183000Y-109855000D01*
X224155000Y-97686100D02*
X224155000Y-103827000D01*
X222176700Y-95707800D02*
X224155000Y-97686100D01*
X221901600Y-95707800D02*
X222176700Y-95707800D01*
X214149300Y-89689300D02*
X213440200Y-89689300D01*
X215265000Y-90805000D02*
X214149300Y-89689300D01*
X169855500Y-92445700D02*
X169855500Y-91172800D01*
X173929800Y-96520000D02*
X169855500Y-92445700D01*
X175260000Y-96520000D02*
X173929800Y-96520000D01*
X246336400Y-101199800D02*
X245495900Y-100359300D01*
X246336400Y-115487700D02*
X246336400Y-101199800D01*
X243728200Y-118095900D02*
X246336400Y-115487700D01*
X216788200Y-69468200D02*
X216788200Y-82352900D01*
X215265000Y-67945000D02*
X216788200Y-69468200D01*
X234486500Y-85411800D02*
X233609000Y-84534300D01*
X234486500Y-98870700D02*
X234486500Y-85411800D01*
X236143100Y-100527300D02*
X234486500Y-98870700D01*
X209946600Y-118881300D02*
X211660800Y-117167100D01*
X182584600Y-118881300D02*
X209946600Y-118881300D01*
X181437100Y-120028800D02*
X182584600Y-118881300D01*
X245308400Y-110503800D02*
X242981300Y-112830900D01*
X245308400Y-104731900D02*
X245308400Y-110503800D01*
X243149800Y-102573300D02*
X245308400Y-104731900D01*
X243149800Y-99673300D02*
X243149800Y-102573300D01*
X176512400Y-120667600D02*
X175260000Y-121920000D01*
X184045500Y-120667600D02*
X176512400Y-120667600D01*
X185381500Y-119331600D02*
X184045500Y-120667600D01*
X210441700Y-119331600D02*
X185381500Y-119331600D01*
X214481100Y-115292200D02*
X210441700Y-119331600D01*
X214481100Y-114918900D02*
X214481100Y-115292200D01*
X227827500Y-65405000D02*
X215265000Y-65405000D01*
X229253900Y-66831400D02*
X227827500Y-65405000D01*
X229253900Y-68353600D02*
X229253900Y-66831400D01*
X230115300Y-69215000D02*
X229253900Y-68353600D01*
X230894100Y-69215000D02*
X230115300Y-69215000D01*
X231653200Y-69974100D02*
X230894100Y-69215000D01*
X231653200Y-70932700D02*
X231653200Y-69974100D01*
X230975500Y-71610400D02*
X231653200Y-70932700D01*
X230280800Y-71610400D02*
X230975500Y-71610400D01*
X228864500Y-73026700D02*
X230280800Y-71610400D01*
X228864500Y-74552600D02*
X228864500Y-73026700D01*
X219438500Y-83978600D02*
X228864500Y-74552600D01*
X219438500Y-88672300D02*
X219438500Y-83978600D01*
X226455200Y-95689000D02*
X219438500Y-88672300D01*
X226474400Y-95689000D02*
X226455200Y-95689000D01*
X227412600Y-96627200D02*
X226474400Y-95689000D01*
X227412600Y-97008000D02*
X227412600Y-96627200D01*
X213654600Y-60325000D02*
X215265000Y-60325000D01*
X213199200Y-60780400D02*
X213654600Y-60325000D01*
X213199200Y-62808700D02*
X213199200Y-60780400D01*
X213649500Y-63259000D02*
X213199200Y-62808700D01*
X213649500Y-70051600D02*
X213649500Y-63259000D01*
X214066300Y-70468400D02*
X213649500Y-70051600D01*
X214066300Y-83927600D02*
X214066300Y-70468400D01*
X216582500Y-87090100D02*
X216582500Y-84560900D01*
X221498900Y-92006500D02*
X216582500Y-87090100D01*
X221498900Y-92482500D02*
X221498900Y-92006500D01*
X221499000Y-92482500D02*
X221498900Y-92482500D01*
X226655200Y-97638700D02*
X221499000Y-92482500D01*
X228117800Y-97638700D02*
X226655200Y-97638700D01*
X228511800Y-97244700D02*
X228117800Y-97638700D01*
X230925500Y-97244700D02*
X228511800Y-97244700D01*
X231784600Y-98103800D02*
X230925500Y-97244700D01*
X231784600Y-99677900D02*
X231784600Y-98103800D01*
X232179600Y-100072900D02*
X231784600Y-99677900D01*
X232179600Y-101587300D02*
X232179600Y-100072900D01*
X232629900Y-102037600D02*
X232179600Y-101587300D01*
X175423700Y-127000000D02*
X175260000Y-127000000D01*
X177821500Y-129397800D02*
X175423700Y-127000000D01*
X212836700Y-129397800D02*
X177821500Y-129397800D01*
X224465800Y-117768700D02*
X212836700Y-129397800D01*
X230540500Y-117768700D02*
X224465800Y-117768700D01*
X232102400Y-116206800D02*
X230540500Y-117768700D01*
X232102400Y-115881400D02*
X232102400Y-116206800D01*
X232552700Y-115431100D02*
X232102400Y-115881400D01*
X232552700Y-109481800D02*
X232552700Y-115431100D01*
X232102400Y-109031500D02*
X232552700Y-109481800D01*
X232102400Y-103930700D02*
X232102400Y-109031500D01*
X231901200Y-103729500D02*
X232102400Y-103930700D01*
X221615000Y-103974000D02*
X218810800Y-106778200D01*
X221615000Y-99280700D02*
X221615000Y-103974000D01*
X223215900Y-97679800D02*
X221615000Y-99280700D01*
X172857200Y-110596600D02*
X172020100Y-109759500D01*
X176169300Y-110596600D02*
X172857200Y-110596600D01*
X177067200Y-111494500D02*
X176169300Y-110596600D01*
X210849300Y-111121700D02*
X211679100Y-111951500D01*
X205277100Y-111121700D02*
X210849300Y-111121700D01*
X205032800Y-111366000D02*
X205277100Y-111121700D01*
X200711100Y-111366000D02*
X205032800Y-111366000D01*
X198350400Y-109005300D02*
X200711100Y-111366000D01*
X227360700Y-79162300D02*
X227360700Y-95689000D01*
X227221700Y-79023300D02*
X227360700Y-79162300D01*
X214947900Y-88265000D02*
X215265000Y-88265000D01*
X213441400Y-86758500D02*
X214947900Y-88265000D01*
X198899600Y-82521100D02*
X198899600Y-87656400D01*
X199967800Y-81452900D02*
X198899600Y-82521100D01*
X199967800Y-77971100D02*
X199967800Y-81452900D01*
X199219500Y-77222800D02*
X199967800Y-77971100D01*
X197453200Y-77222800D02*
X199219500Y-77222800D01*
X196300600Y-76070200D02*
X197453200Y-77222800D01*
X193433000Y-76811800D02*
X193433000Y-77065500D01*
X194774700Y-75470100D02*
X193433000Y-76811800D01*
X194774700Y-74619000D02*
X194774700Y-75470100D01*
X193715600Y-73559900D02*
X194774700Y-74619000D01*
X188898100Y-73559900D02*
X193715600Y-73559900D01*
X185106500Y-77351500D02*
X188898100Y-73559900D01*
X185106500Y-82048900D02*
X185106500Y-77351500D01*
X179020600Y-97665200D02*
X179078700Y-97665200D01*
X170931400Y-89576000D02*
X179020600Y-97665200D01*
X170931400Y-89129700D02*
X170931400Y-89576000D01*
X167771100Y-85969400D02*
X170931400Y-89129700D01*
X167771100Y-83702000D02*
X167771100Y-85969400D01*
X167276300Y-83207200D02*
X167771100Y-83702000D01*
X156647000Y-94963000D02*
X156647000Y-92498500D01*
X158261700Y-96577700D02*
X156647000Y-94963000D01*
X159962300Y-96577700D02*
X158261700Y-96577700D01*
X160020000Y-96520000D02*
X159962300Y-96577700D01*
X180334400Y-94316900D02*
X178450700Y-92433200D01*
X186263300Y-94316900D02*
X180334400Y-94316900D01*
X187386900Y-95440500D02*
X186263300Y-94316900D01*
X189650800Y-95440500D02*
X187386900Y-95440500D01*
X191028300Y-94063000D02*
X189650800Y-95440500D01*
X226695000Y-128905000D02*
X226695000Y-127729700D01*
X232510200Y-82650200D02*
X230505000Y-80645000D01*
X232510200Y-90205800D02*
X232510200Y-82650200D01*
X232685200Y-90380800D02*
X232510200Y-90205800D01*
X232685200Y-99304700D02*
X232685200Y-90380800D01*
X233589700Y-100209200D02*
X232685200Y-99304700D01*
X233589700Y-100804600D02*
X233589700Y-100209200D01*
X233266900Y-101127400D02*
X233589700Y-100804600D01*
X233266900Y-108922200D02*
X233266900Y-101127400D01*
X233453300Y-109108600D02*
X233266900Y-108922200D01*
X233453300Y-115804300D02*
X233453300Y-109108600D01*
X233266900Y-115990700D02*
X233453300Y-115804300D01*
X233266900Y-121157800D02*
X233266900Y-115990700D01*
X226695000Y-127729700D02*
X233266900Y-121157800D01*
X108286200Y-82886200D02*
X111243700Y-82886200D01*
X107315000Y-81915000D02*
X108286200Y-82886200D01*
X118850400Y-81915000D02*
X113815000Y-81915000D01*
X121012200Y-84076800D02*
X118850400Y-81915000D01*
X121012200Y-84248100D02*
X121012200Y-84076800D01*
X119761500Y-85172500D02*
X119761500Y-84393500D01*
X123903100Y-89314100D02*
X119761500Y-85172500D01*
X123903100Y-91346000D02*
X123903100Y-89314100D01*
X124578800Y-92021700D02*
X123903100Y-91346000D01*
X125329600Y-92021700D02*
X124578800Y-92021700D01*
X126905900Y-93598000D02*
X125329600Y-92021700D01*
X135274200Y-93598000D02*
X126905900Y-93598000D01*
X135820100Y-94143900D02*
X135274200Y-93598000D01*
X152803700Y-94143900D02*
X135820100Y-94143900D01*
X155079700Y-91867900D02*
X152803700Y-94143900D01*
X161405100Y-91867900D02*
X155079700Y-91867900D01*
X162640200Y-93103000D02*
X161405100Y-91867900D01*
X169239000Y-93103000D02*
X162640200Y-93103000D01*
X173891800Y-97755800D02*
X169239000Y-93103000D01*
X173891900Y-97755800D02*
X173891800Y-97755800D01*
X173891900Y-99381600D02*
X173891900Y-97755800D01*
X174750300Y-100240000D02*
X173891900Y-99381600D01*
X175869800Y-100240000D02*
X174750300Y-100240000D01*
X176602700Y-99507100D02*
X175869800Y-100240000D01*
X177746400Y-99507100D02*
X176602700Y-99507100D01*
X179443200Y-101203900D02*
X177746400Y-99507100D01*
X181706700Y-101203900D02*
X179443200Y-101203900D01*
X188274600Y-107771800D02*
X181706700Y-101203900D01*
X198638200Y-107771800D02*
X188274600Y-107771800D01*
X201331800Y-110465400D02*
X198638200Y-107771800D01*
X204659600Y-110465400D02*
X201331800Y-110465400D01*
X204903900Y-110221100D02*
X204659600Y-110465400D01*
X213628900Y-110221100D02*
X204903900Y-110221100D01*
X215265000Y-108585000D02*
X213628900Y-110221100D01*
X182245000Y-85090000D02*
X182245000Y-83964700D01*
X182245000Y-82796900D02*
X182326300Y-82715600D01*
X182245000Y-83964700D02*
X182245000Y-82796900D01*
X190302100Y-77155200D02*
X192154300Y-75303000D01*
X190302100Y-80824100D02*
X190302100Y-77155200D01*
X189918500Y-81207700D02*
X190302100Y-80824100D01*
X187900900Y-81207700D02*
X189918500Y-81207700D01*
X186393000Y-82715600D02*
X187900900Y-81207700D01*
X220107700Y-84105400D02*
X220107700Y-88457000D01*
X229871700Y-74341400D02*
X220107700Y-84105400D01*
X230807700Y-74341400D02*
X229871700Y-74341400D01*
X232103500Y-73045600D02*
X230807700Y-74341400D01*
X232103500Y-69543500D02*
X232103500Y-73045600D01*
X230505000Y-67945000D02*
X232103500Y-69543500D01*
X313055000Y-119380000D02*
X313055000Y-120505300D01*
X239985400Y-110445400D02*
X237490000Y-107950000D01*
X239985400Y-116677800D02*
X239985400Y-110445400D01*
X243311500Y-120003900D02*
X239985400Y-116677800D01*
X246902400Y-120003900D02*
X243311500Y-120003900D01*
X255865400Y-128966900D02*
X246902400Y-120003900D01*
X312689900Y-128966900D02*
X255865400Y-128966900D01*
X314186700Y-127470100D02*
X312689900Y-128966900D01*
X314186700Y-121355700D02*
X314186700Y-127470100D01*
X313336300Y-120505300D02*
X314186700Y-121355700D01*
X313055000Y-120505300D02*
X313336300Y-120505300D01*
X266483300Y-110796700D02*
X266483300Y-107950000D01*
X274256300Y-118569700D02*
X266483300Y-110796700D01*
X292040700Y-118569700D02*
X274256300Y-118569700D01*
X292491000Y-118119400D02*
X292040700Y-118569700D01*
X295227600Y-118119400D02*
X292491000Y-118119400D01*
X295704200Y-117642800D02*
X295227600Y-118119400D01*
X311929700Y-113375400D02*
X309185100Y-110630800D01*
X311929700Y-122433000D02*
X311929700Y-113375400D01*
X312831400Y-123334700D02*
X311929700Y-122433000D01*
X313055000Y-123334700D02*
X312831400Y-123334700D01*
X313055000Y-124460000D02*
X313055000Y-123334700D01*
X313055000Y-127000000D02*
X313055000Y-125874700D01*
X312773600Y-125874700D02*
X313055000Y-125874700D01*
X310261700Y-123362800D02*
X312773600Y-125874700D01*
X310261700Y-117432200D02*
X310261700Y-123362800D01*
X305999400Y-113169900D02*
X310261700Y-117432200D01*
X304671200Y-113169900D02*
X305999400Y-113169900D01*
X302879800Y-114961300D02*
X304671200Y-113169900D01*
X301020100Y-114961300D02*
X302879800Y-114961300D01*
X299952300Y-113893500D02*
X301020100Y-114961300D01*
X299952300Y-107489600D02*
X299952300Y-113893500D01*
X300146900Y-107295000D02*
X299952300Y-107489600D01*
X234949800Y-91440200D02*
X237490000Y-88900000D01*
X234949800Y-98060200D02*
X234949800Y-91440200D01*
X236074000Y-99184400D02*
X234949800Y-98060200D01*
X236074100Y-99184400D02*
X236074000Y-99184400D01*
X236074100Y-99573900D02*
X236074100Y-99184400D01*
X236768400Y-100268200D02*
X236074100Y-99573900D01*
X236768400Y-103567000D02*
X236768400Y-100268200D01*
X234986900Y-105348500D02*
X236768400Y-103567000D01*
X234986900Y-116745300D02*
X234986900Y-105348500D01*
X236133600Y-117892000D02*
X234986900Y-116745300D01*
X240562700Y-117892000D02*
X236133600Y-117892000D01*
X243350000Y-120679300D02*
X240562700Y-117892000D01*
X246132400Y-120679300D02*
X243350000Y-120679300D01*
X250946900Y-125493800D02*
X246132400Y-120679300D01*
X290308300Y-124744900D02*
X290308300Y-123469700D01*
X294080000Y-128516600D02*
X290308300Y-124744900D01*
X295294000Y-128516600D02*
X294080000Y-128516600D01*
X299521600Y-124289000D02*
X295294000Y-128516600D01*
X299521600Y-123820000D02*
X299521600Y-124289000D01*
X300395600Y-122946000D02*
X299521600Y-123820000D01*
X301587600Y-122946000D02*
X300395600Y-122946000D01*
X301781100Y-123139500D02*
X301587600Y-122946000D01*
X302712100Y-123139500D02*
X301781100Y-123139500D01*
X303883500Y-121968100D02*
X302712100Y-123139500D01*
X303883500Y-121849600D02*
X303883500Y-121968100D01*
X304976600Y-120756500D02*
X303883500Y-121849600D01*
X305898500Y-120756500D02*
X304976600Y-120756500D01*
X306588600Y-121446600D02*
X305898500Y-120756500D01*
X306588600Y-122462400D02*
X306588600Y-121446600D01*
X305716300Y-123334700D02*
X306588600Y-122462400D01*
X305435000Y-123334700D02*
X305716300Y-123334700D01*
X305435000Y-124460000D02*
X305435000Y-123334700D01*
X266479100Y-91385100D02*
X266479100Y-88936700D01*
X264798300Y-93065900D02*
X266479100Y-91385100D01*
X264798300Y-94277100D02*
X264798300Y-93065900D01*
X265323400Y-94802200D02*
X264798300Y-94277100D01*
X265323400Y-98757200D02*
X265323400Y-94802200D01*
X267820100Y-101253900D02*
X265323400Y-98757200D01*
X267820100Y-110191000D02*
X267820100Y-101253900D01*
X272594200Y-114965100D02*
X267820100Y-110191000D01*
X310909900Y-113543000D02*
X310909900Y-121920000D01*
X308559700Y-111192800D02*
X310909900Y-113543000D01*
X308559700Y-110005400D02*
X308559700Y-111192800D01*
X311690400Y-106874700D02*
X308559700Y-110005400D01*
X311690400Y-104508500D02*
X311690400Y-106874700D01*
X303005700Y-101528500D02*
X304347200Y-102870000D01*
X303005700Y-96462900D02*
X303005700Y-101528500D01*
X299944500Y-93401700D02*
X303005700Y-96462900D01*
X299944500Y-90456600D02*
X299944500Y-93401700D01*
X293443000Y-94061800D02*
X294684600Y-95303400D01*
X293443000Y-90097000D02*
X293443000Y-94061800D01*
X294640000Y-88900000D02*
X293443000Y-90097000D01*
X296607700Y-100412600D02*
X297824800Y-99195500D01*
X296306800Y-100412600D02*
X296607700Y-100412600D01*
X294839900Y-101879500D02*
X296306800Y-100412600D01*
X294839900Y-104150400D02*
X294839900Y-101879500D01*
X299040700Y-108351200D02*
X294839900Y-104150400D01*
X299040700Y-114574000D02*
X299040700Y-108351200D01*
X299696200Y-115229500D02*
X299040700Y-114574000D01*
X299696200Y-117049400D02*
X299696200Y-115229500D01*
X299358000Y-117387600D02*
X299696200Y-117049400D01*
X305435000Y-116840000D02*
X306560300Y-116840000D01*
X303480700Y-125851900D02*
X301014000Y-128318600D01*
X305710000Y-125851900D02*
X303480700Y-125851900D01*
X309486200Y-122075700D02*
X305710000Y-125851900D01*
X309486200Y-117355200D02*
X309486200Y-122075700D01*
X308971000Y-116840000D02*
X309486200Y-117355200D01*
X306560300Y-116840000D02*
X308971000Y-116840000D01*
X232979200Y-72179000D02*
X233669800Y-71488400D01*
X232979200Y-90037800D02*
X232979200Y-72179000D01*
X233135500Y-90194100D02*
X232979200Y-90037800D01*
X233135500Y-99118100D02*
X233135500Y-90194100D01*
X234040000Y-100022600D02*
X233135500Y-99118100D01*
X234040000Y-100991200D02*
X234040000Y-100022600D01*
X233736300Y-101294900D02*
X234040000Y-100991200D01*
X233736300Y-108754700D02*
X233736300Y-101294900D01*
X233903600Y-108922000D02*
X233736300Y-108754700D01*
X233903600Y-115990900D02*
X233903600Y-108922000D01*
X233736300Y-116158200D02*
X233903600Y-115990900D01*
X233736300Y-118906300D02*
X233736300Y-116158200D01*
X243298400Y-128468400D02*
X233736300Y-118906300D01*
X253870700Y-72519300D02*
X256540000Y-69850000D01*
X253870700Y-78928600D02*
X253870700Y-72519300D01*
X300577600Y-112528600D02*
X300577600Y-109514300D01*
X301398200Y-113349200D02*
X300577600Y-112528600D01*
X264436100Y-81515600D02*
X264436100Y-80504600D01*
X270596400Y-87675900D02*
X264436100Y-81515600D01*
X270596400Y-91245600D02*
X270596400Y-87675900D01*
X269564600Y-92277400D02*
X270596400Y-91245600D01*
X267655200Y-92277400D02*
X269564600Y-92277400D01*
X266658400Y-93274200D02*
X267655200Y-92277400D01*
X266658400Y-99230000D02*
X266658400Y-93274200D01*
X268429400Y-101001000D02*
X266658400Y-99230000D01*
X268429400Y-105789300D02*
X268429400Y-101001000D01*
X268429500Y-105789300D02*
X268429400Y-105789300D01*
X269766100Y-107125900D02*
X268429500Y-105789300D01*
X275590000Y-75052400D02*
X275590000Y-69850000D01*
X274408400Y-76234000D02*
X275590000Y-75052400D01*
X272555200Y-81329300D02*
X272555200Y-77510000D01*
X274263700Y-83037800D02*
X272555200Y-81329300D01*
X274263700Y-84632200D02*
X274263700Y-83037800D01*
X273337700Y-85558200D02*
X274263700Y-84632200D01*
X273337700Y-93440700D02*
X273337700Y-85558200D01*
X272979400Y-93799000D02*
X273337700Y-93440700D01*
X271602100Y-93799000D02*
X272979400Y-93799000D01*
X270877500Y-93074400D02*
X271602100Y-93799000D01*
X267495100Y-93074400D02*
X270877500Y-93074400D01*
X267134200Y-93435300D02*
X267495100Y-93074400D01*
X267134200Y-99068900D02*
X267134200Y-93435300D01*
X272505900Y-104440600D02*
X267134200Y-99068900D01*
X272505900Y-109506200D02*
X272505900Y-104440600D01*
X290233200Y-82128600D02*
X290233200Y-97596200D01*
X292405300Y-79956500D02*
X290233200Y-82128600D01*
X214476100Y-84455000D02*
X213841100Y-85090000D01*
X215616600Y-84455000D02*
X214476100Y-84455000D01*
X227046600Y-73025000D02*
X215616600Y-84455000D01*
X227965000Y-73025000D02*
X227046600Y-73025000D01*
X230505000Y-70485000D02*
X227965000Y-73025000D01*
X112948700Y-75943300D02*
X120896700Y-75943300D01*
X109542500Y-79349500D02*
X112948700Y-75943300D01*
X88620700Y-81559300D02*
X88265000Y-81915000D01*
X94409300Y-81559300D02*
X88620700Y-81559300D01*
X94765000Y-81915000D02*
X94409300Y-81559300D01*
X150398600Y-76818100D02*
X149523800Y-75943300D01*
X151976600Y-76818100D02*
X150398600Y-76818100D01*
X152426900Y-77268400D02*
X151976600Y-76818100D01*
X153888700Y-77268400D02*
X152426900Y-77268400D01*
X154063700Y-77093400D02*
X153888700Y-77268400D01*
X162818100Y-77093400D02*
X154063700Y-77093400D01*
X168687900Y-82963200D02*
X162818100Y-77093400D01*
X168687900Y-85440500D02*
X168687900Y-82963200D01*
X171832000Y-88584600D02*
X168687900Y-85440500D01*
X171832000Y-89202800D02*
X171832000Y-88584600D01*
X179176000Y-96546800D02*
X171832000Y-89202800D01*
X180347000Y-96546800D02*
X179176000Y-96546800D01*
X182818900Y-99018700D02*
X180347000Y-96546800D01*
X190792800Y-99018700D02*
X182818900Y-99018700D01*
X191106400Y-99332300D02*
X190792800Y-99018700D01*
X212540800Y-102790500D02*
X209375100Y-99624800D01*
X212540800Y-103201700D02*
X212540800Y-102790500D01*
X215265000Y-105925900D02*
X212540800Y-103201700D01*
X215265000Y-106045000D02*
X215265000Y-105925900D01*
X117475000Y-90805000D02*
X118650300Y-90805000D01*
X121169300Y-93324000D02*
X123343600Y-93324000D01*
X118650300Y-90805000D02*
X121169300Y-93324000D01*
X117475000Y-88265000D02*
X118650300Y-88265000D01*
X134185800Y-94048300D02*
X134456400Y-94318900D01*
X126494400Y-94048300D02*
X134185800Y-94048300D01*
X125143200Y-92697100D02*
X126494400Y-94048300D01*
X122715100Y-92697100D02*
X125143200Y-92697100D01*
X118650300Y-88632300D02*
X122715100Y-92697100D01*
X118650300Y-88265000D02*
X118650300Y-88632300D01*
X185910400Y-85614100D02*
X181632100Y-89892400D01*
X185910400Y-84889200D02*
X185910400Y-85614100D01*
X188756100Y-82043500D02*
X185910400Y-84889200D01*
X90422600Y-61706800D02*
X90459800Y-61669600D01*
X88555900Y-61706800D02*
X90422600Y-61706800D01*
X79452200Y-78468000D02*
X80869200Y-79885000D01*
X79452200Y-64503800D02*
X79452200Y-78468000D01*
X82249200Y-61706800D02*
X79452200Y-64503800D01*
X206168100Y-72945000D02*
X205459300Y-72236200D01*
X206854600Y-72945000D02*
X206168100Y-72945000D01*
X114103800Y-67540600D02*
X126129200Y-79566000D01*
X114103800Y-65527300D02*
X114103800Y-67540600D01*
X153889300Y-79885800D02*
X155615400Y-79885800D01*
X153569500Y-79566000D02*
X153889300Y-79885800D01*
X194434100Y-70717200D02*
X195953100Y-72236200D01*
X190053900Y-70717200D02*
X194434100Y-70717200D01*
X189741400Y-70404700D02*
X190053900Y-70717200D01*
X158094400Y-56612100D02*
X164581100Y-63098800D01*
X120355100Y-56612100D02*
X158094400Y-56612100D01*
X119848800Y-57118400D02*
X120355100Y-56612100D01*
X214099800Y-61330300D02*
X213831800Y-61062300D01*
X214099800Y-65870800D02*
X214099800Y-61330300D01*
X214904000Y-66675000D02*
X214099800Y-65870800D01*
X227505000Y-66675000D02*
X214904000Y-66675000D01*
X116931500Y-60943800D02*
X108754400Y-69120900D01*
X116931500Y-57447500D02*
X116931500Y-60943800D01*
X83681000Y-75891500D02*
X83681000Y-69120900D01*
X82866900Y-76705600D02*
X83681000Y-75891500D01*
X82866900Y-80831900D02*
X82866900Y-76705600D01*
X83950000Y-81915000D02*
X82866900Y-80831900D01*
X212748900Y-59533500D02*
X212059700Y-58844300D01*
X212748900Y-62995300D02*
X212748900Y-59533500D01*
X213199200Y-63445600D02*
X212748900Y-62995300D01*
X213199200Y-71552500D02*
X213199200Y-63445600D01*
X213401700Y-71755000D02*
X213199200Y-71552500D01*
X115579500Y-60790900D02*
X115579500Y-56676100D01*
X114151100Y-62219300D02*
X115579500Y-60790900D01*
X161210700Y-56153300D02*
X163634500Y-58577100D01*
X119861600Y-56153300D02*
X161210700Y-56153300D01*
X119714400Y-56300500D02*
X119861600Y-56153300D01*
X220345000Y-95131300D02*
X220527600Y-94948700D01*
X220345000Y-103505000D02*
X220345000Y-95131300D01*
X228831900Y-76018300D02*
X229096100Y-76018300D01*
X226274800Y-78575400D02*
X228831900Y-76018300D01*
X226274800Y-94613300D02*
X226274800Y-78575400D01*
X175666400Y-102006400D02*
X175260000Y-101600000D01*
X177284600Y-102006400D02*
X175666400Y-102006400D01*
X216580800Y-105746100D02*
X216580800Y-106371900D01*
X215609700Y-104775000D02*
X216580800Y-105746100D01*
X214923200Y-104775000D02*
X215609700Y-104775000D01*
X213094800Y-102946600D02*
X214923200Y-104775000D01*
X213094800Y-93819100D02*
X213094800Y-102946600D01*
X209648700Y-90373000D02*
X213094800Y-93819100D01*
X209648700Y-88337800D02*
X209648700Y-90373000D01*
X182699600Y-110862600D02*
X182968500Y-110862600D01*
X179884900Y-108047900D02*
X182699600Y-110862600D01*
X179884900Y-104974900D02*
X179884900Y-108047900D01*
X177992100Y-103082100D02*
X179884900Y-104974900D01*
X177196900Y-103082100D02*
X177992100Y-103082100D01*
X176895700Y-103383300D02*
X177196900Y-103082100D01*
X202657300Y-109770800D02*
X201349100Y-108462600D01*
X212233400Y-109770800D02*
X202657300Y-109770800D01*
X213911200Y-108093000D02*
X212233400Y-109770800D01*
X85357100Y-68809200D02*
X87053600Y-67112700D01*
X85357100Y-75937900D02*
X85357100Y-68809200D01*
X83950000Y-77345000D02*
X85357100Y-75937900D01*
X119046000Y-57717700D02*
X119347500Y-58019200D01*
X119046000Y-56062600D02*
X119046000Y-57717700D01*
X119479500Y-55629100D02*
X119046000Y-56062600D01*
X231061200Y-55629100D02*
X119479500Y-55629100D01*
X236797600Y-61365500D02*
X231061200Y-55629100D01*
X239972200Y-61365500D02*
X236797600Y-61365500D01*
X245318500Y-66711800D02*
X239972200Y-61365500D01*
X245318500Y-67951200D02*
X245318500Y-66711800D01*
X244490200Y-68779500D02*
X245318500Y-67951200D01*
X239598600Y-68779500D02*
X244490200Y-68779500D01*
X238125300Y-67306200D02*
X239598600Y-68779500D01*
X119015400Y-65747500D02*
X117476100Y-67286800D01*
X119015400Y-62895000D02*
X119015400Y-65747500D01*
X118207900Y-62087500D02*
X119015400Y-62895000D01*
X118207900Y-59323600D02*
X118207900Y-62087500D01*
X112126500Y-87027000D02*
X111138500Y-88015000D01*
X112126500Y-83294400D02*
X112126500Y-87027000D01*
X81494500Y-74509500D02*
X81280000Y-74295000D01*
X81494500Y-87800500D02*
X81494500Y-74509500D01*
X81280000Y-88015000D02*
X81494500Y-87800500D01*
X162173500Y-83832500D02*
X162384400Y-83832500D01*
X160020000Y-81679000D02*
X162173500Y-83832500D01*
X160020000Y-80952500D02*
X160020000Y-81679000D01*
X157411500Y-78344000D02*
X160020000Y-80952500D01*
X151230100Y-78344000D02*
X157411500Y-78344000D01*
X151037700Y-78151600D02*
X151230100Y-78344000D01*
X191222500Y-74635500D02*
X192955900Y-74635500D01*
X188680900Y-77177100D02*
X191222500Y-74635500D01*
X187781100Y-77177100D02*
X188680900Y-77177100D01*
X187144900Y-76540900D02*
X187781100Y-77177100D01*
X186608000Y-76540900D02*
X187144900Y-76540900D01*
X185731800Y-77417100D02*
X186608000Y-76540900D01*
X185731800Y-83189400D02*
X185731800Y-77417100D01*
X185428000Y-83493200D02*
X185731800Y-83189400D01*
X152095000Y-76299600D02*
X152095000Y-76192700D01*
X152613500Y-76818100D02*
X152095000Y-76299600D01*
X153328900Y-76818100D02*
X152613500Y-76818100D01*
X155562000Y-74585000D02*
X153328900Y-76818100D01*
X159091100Y-74585000D02*
X155562000Y-74585000D01*
X83117600Y-69908400D02*
X83017100Y-69807900D01*
X83117600Y-75499700D02*
X83117600Y-69908400D01*
X82416600Y-76200700D02*
X83117600Y-75499700D01*
X82416600Y-82921600D02*
X82416600Y-76200700D01*
X83950000Y-84455000D02*
X82416600Y-82921600D01*
X184785000Y-85090000D02*
X184785000Y-83964700D01*
X173950700Y-106848500D02*
X173950700Y-103810100D01*
X138408800Y-106307800D02*
X138408800Y-106432100D01*
X143022800Y-101693800D02*
X138408800Y-106307800D01*
X145321200Y-101693800D02*
X143022800Y-101693800D01*
X149860000Y-97155000D02*
X145321200Y-101693800D01*
X189031600Y-68567600D02*
X188883300Y-68715900D01*
X189031600Y-63765000D02*
X189031600Y-68567600D01*
X187255200Y-61988600D02*
X189031600Y-63765000D01*
X187255200Y-59759800D02*
X187255200Y-61988600D01*
X187960000Y-59055000D02*
X187255200Y-59759800D01*
X173404200Y-106848500D02*
X173950700Y-106848500D01*
X171180500Y-109072200D02*
X173404200Y-106848500D01*
X171180500Y-113934500D02*
X171180500Y-109072200D01*
X168910000Y-116205000D02*
X171180500Y-113934500D01*
X148616200Y-95911200D02*
X149860000Y-97155000D01*
X130644300Y-95911200D02*
X148616200Y-95911200D01*
X130132400Y-95399300D02*
X130644300Y-95911200D01*
X120646000Y-95399300D02*
X130132400Y-95399300D01*
X117665000Y-98380300D02*
X120646000Y-95399300D01*
X112985300Y-98380300D02*
X117665000Y-98380300D01*
X111760000Y-97155000D02*
X112985300Y-98380300D01*
X185874500Y-75479100D02*
X185874500Y-70140900D01*
X184481200Y-76872400D02*
X185874500Y-75479100D01*
X184481200Y-83660900D02*
X184481200Y-76872400D01*
X184785000Y-83964700D02*
X184481200Y-83660900D01*
X174045600Y-88631700D02*
X169611100Y-84197200D01*
X174045600Y-89472000D02*
X174045600Y-88631700D01*
X179340800Y-94767200D02*
X174045600Y-89472000D01*
X185572200Y-94767200D02*
X179340800Y-94767200D01*
X187960000Y-97155000D02*
X185572200Y-94767200D01*
X130810000Y-114030900D02*
X138408800Y-106432100D01*
X130810000Y-116205000D02*
X130810000Y-114030900D01*
X128270000Y-97155000D02*
X127044700Y-97155000D01*
X109220000Y-97155000D02*
X110445300Y-97155000D01*
X127044700Y-97614500D02*
X127044700Y-97155000D01*
X125828600Y-98830600D02*
X127044700Y-97614500D01*
X111661300Y-98830600D02*
X125828600Y-98830600D01*
X110445300Y-97614600D02*
X111661300Y-98830600D01*
X110445300Y-97155000D02*
X110445300Y-97614600D01*
X189865000Y-92710000D02*
X188739700Y-92710000D01*
X188739700Y-93749700D02*
X187674300Y-94815100D01*
X188739700Y-92710000D02*
X188739700Y-93749700D01*
X207645000Y-85090000D02*
X207645000Y-83964700D01*
X133350000Y-113831100D02*
X133350000Y-116205000D01*
X140821700Y-106359400D02*
X133350000Y-113831100D01*
X149072000Y-106359400D02*
X140821700Y-106359400D01*
X152400000Y-103031400D02*
X149072000Y-106359400D01*
X152400000Y-97155000D02*
X152400000Y-103031400D01*
X184194700Y-57898000D02*
X185289400Y-56803300D01*
X184194700Y-65573400D02*
X184194700Y-57898000D01*
X188037300Y-69416000D02*
X184194700Y-65573400D01*
X189067600Y-69416000D02*
X188037300Y-69416000D01*
X189154500Y-69329100D02*
X189067600Y-69416000D01*
X193930400Y-69329100D02*
X189154500Y-69329100D01*
X198861100Y-74259800D02*
X193930400Y-69329100D01*
X198861100Y-74794600D02*
X198861100Y-74259800D01*
X207645000Y-83578500D02*
X198861100Y-74794600D01*
X207645000Y-83964700D02*
X207645000Y-83578500D01*
X152400000Y-96639300D02*
X152400000Y-97155000D01*
X151133800Y-95373100D02*
X152400000Y-96639300D01*
X150615700Y-95373100D02*
X151133800Y-95373100D01*
X150589600Y-95399200D02*
X150615700Y-95373100D01*
X130769200Y-95399200D02*
X150589600Y-95399200D01*
X130318900Y-94948900D02*
X130769200Y-95399200D01*
X116506100Y-94948900D02*
X130318900Y-94948900D01*
X114300000Y-97155000D02*
X116506100Y-94948900D01*
X160482700Y-94045900D02*
X158576900Y-95951700D01*
X169257100Y-94045900D02*
X160482700Y-94045900D01*
X169848400Y-94637200D02*
X169257100Y-94045900D01*
X192574200Y-99229200D02*
X190500000Y-97155000D01*
X192574200Y-100660400D02*
X192574200Y-99229200D01*
X194444300Y-102530500D02*
X192574200Y-100660400D01*
X194444300Y-102779600D02*
X194444300Y-102530500D01*
X194826200Y-103161500D02*
X194444300Y-102779600D01*
X197997300Y-103161500D02*
X194826200Y-103161500D01*
X199646200Y-101512600D02*
X197997300Y-103161500D01*
X199646200Y-95808600D02*
X199646200Y-101512600D01*
X198851400Y-95013800D02*
X199646200Y-95808600D01*
X198851400Y-90948700D02*
X198851400Y-95013800D01*
X203102500Y-86697600D02*
X198851400Y-90948700D01*
X176355200Y-115570000D02*
X178329000Y-113596200D01*
X172085000Y-115570000D02*
X176355200Y-115570000D01*
X171450000Y-116205000D02*
X172085000Y-115570000D01*
X179661700Y-114929000D02*
X178329000Y-113596200D01*
X187595700Y-114929000D02*
X179661700Y-114929000D01*
X188120800Y-114403900D02*
X187595700Y-114929000D01*
X193510500Y-114403900D02*
X188120800Y-114403900D01*
X194531500Y-115424900D02*
X193510500Y-114403900D01*
X197638200Y-115424900D02*
X194531500Y-115424900D01*
X198077700Y-114985400D02*
X197638200Y-115424900D01*
X199330000Y-114985400D02*
X198077700Y-114985400D01*
X199384200Y-114931200D02*
X199330000Y-114985400D01*
X208276200Y-114931200D02*
X199384200Y-114931200D01*
X209550000Y-116205000D02*
X208276200Y-114931200D01*
X177744700Y-113012000D02*
X177744700Y-103719300D01*
X178329000Y-113596200D02*
X177744700Y-113012000D01*
X174630400Y-94110200D02*
X174537200Y-94110200D01*
X179708900Y-99188700D02*
X174630400Y-94110200D01*
X181467600Y-99188700D02*
X179708900Y-99188700D01*
X194945000Y-85090000D02*
X194945000Y-83964700D01*
X190238000Y-83117300D02*
X194097600Y-83117300D01*
X188595000Y-84760300D02*
X190238000Y-83117300D01*
X188595000Y-87181900D02*
X188595000Y-84760300D01*
X187599400Y-88177500D02*
X188595000Y-87181900D01*
X194945000Y-83964700D02*
X194097600Y-83117300D01*
X194097600Y-76896900D02*
X194097600Y-83117300D01*
X195225000Y-75769500D02*
X194097600Y-76896900D01*
X195225000Y-74432100D02*
X195225000Y-75769500D01*
X193902500Y-73109600D02*
X195225000Y-74432100D01*
X189431500Y-73109600D02*
X193902500Y-73109600D01*
X187157300Y-70835400D02*
X189431500Y-73109600D01*
X187157300Y-70539300D02*
X187157300Y-70835400D01*
X184943300Y-68325300D02*
X187157300Y-70539300D01*
X180732300Y-68325300D02*
X184943300Y-68325300D01*
X173852800Y-61445800D02*
X180732300Y-68325300D01*
X173387300Y-61445800D02*
X173852800Y-61445800D01*
X171694100Y-59752600D02*
X173387300Y-61445800D01*
X104784300Y-116679200D02*
X104784300Y-114521100D01*
X106054400Y-117949300D02*
X104784300Y-116679200D01*
X123864300Y-117949300D02*
X106054400Y-117949300D01*
X125608600Y-116205000D02*
X123864300Y-117949300D01*
X125730000Y-116205000D02*
X125608600Y-116205000D01*
X144302300Y-97155000D02*
X144780000Y-97155000D01*
X125730000Y-115727300D02*
X144302300Y-97155000D01*
X125730000Y-116205000D02*
X125730000Y-115727300D01*
X172412600Y-101464300D02*
X172412600Y-101276800D01*
X169484900Y-104392000D02*
X172412600Y-101464300D01*
X169484900Y-110550100D02*
X169484900Y-104392000D01*
X163830000Y-116205000D02*
X169484900Y-110550100D01*
X106680000Y-104044100D02*
X106680000Y-97155000D01*
X109449900Y-106814000D02*
X106680000Y-104044100D01*
X109449900Y-110936300D02*
X109449900Y-106814000D01*
X105865100Y-114521100D02*
X109449900Y-110936300D01*
X104784300Y-114521100D02*
X105865100Y-114521100D01*
X173420300Y-89483600D02*
X173420300Y-88962400D01*
X179232900Y-95296200D02*
X173420300Y-89483600D01*
X181021200Y-95296200D02*
X179232900Y-95296200D01*
X182880000Y-97155000D02*
X181021200Y-95296200D01*
X124994000Y-101665900D02*
X125903700Y-102575600D01*
X121788800Y-101665900D02*
X124994000Y-101665900D01*
X173186400Y-119397600D02*
X170913500Y-119397600D01*
X174308100Y-120519300D02*
X173186400Y-119397600D01*
X175982500Y-120519300D02*
X174308100Y-120519300D01*
X177619700Y-118882100D02*
X175982500Y-120519300D01*
X130810000Y-97669300D02*
X125903700Y-102575600D01*
X130810000Y-97155000D02*
X130810000Y-97669300D01*
X212748900Y-63632200D02*
X212748900Y-82859700D01*
X212298600Y-63181900D02*
X212748900Y-63632200D01*
X212298600Y-60015700D02*
X212298600Y-63181900D01*
X210110000Y-57827100D02*
X212298600Y-60015700D01*
X208237900Y-57827100D02*
X210110000Y-57827100D01*
X207010000Y-59055000D02*
X208237900Y-57827100D01*
X163073000Y-100219600D02*
X163073000Y-99016500D01*
X160422600Y-102870000D02*
X163073000Y-100219600D01*
X159658600Y-102870000D02*
X160422600Y-102870000D01*
X149860000Y-112668600D02*
X159658600Y-102870000D01*
X149860000Y-116205000D02*
X149860000Y-112668600D01*
X168910000Y-97155000D02*
X166886200Y-95131200D01*
X125903700Y-103960800D02*
X125903700Y-102575600D01*
X117193900Y-112670600D02*
X125903700Y-103960800D01*
X115294400Y-112670600D02*
X117193900Y-112670600D01*
X111760000Y-116205000D02*
X115294400Y-112670600D01*
X206454600Y-96599600D02*
X207010000Y-97155000D01*
X206454600Y-89100400D02*
X206454600Y-96599600D01*
X206051800Y-88697600D02*
X206454600Y-89100400D01*
X184090200Y-117530300D02*
X183926700Y-117366800D01*
X186194800Y-117530300D02*
X184090200Y-117530300D01*
X186588900Y-117924400D02*
X186194800Y-117530300D01*
X196444100Y-117924400D02*
X186588900Y-117924400D01*
X198747800Y-115620700D02*
X196444100Y-117924400D01*
X207367000Y-97511900D02*
X207367000Y-100723800D01*
X207366900Y-97511900D02*
X207367000Y-97511900D01*
X207010000Y-97155000D02*
X207366900Y-97511900D01*
X204925200Y-114360100D02*
X207067600Y-112217700D01*
X199070900Y-114360100D02*
X204925200Y-114360100D01*
X206391300Y-109046800D02*
X206391300Y-109136400D01*
X203332100Y-105987600D02*
X206391300Y-109046800D01*
X196309100Y-105987600D02*
X203332100Y-105987600D01*
X193384400Y-103062900D02*
X196309100Y-105987600D01*
X193384400Y-102744400D02*
X193384400Y-103062900D01*
X192299000Y-101659000D02*
X193384400Y-102744400D01*
X191052600Y-101659000D02*
X192299000Y-101659000D01*
X186974100Y-88510800D02*
X188595000Y-90131700D01*
X186974100Y-86566200D02*
X186974100Y-88510800D01*
X187325000Y-86215300D02*
X186974100Y-86566200D01*
X187325000Y-85090000D02*
X187325000Y-86215300D01*
X190752500Y-77970900D02*
X193668200Y-75055200D01*
X190752500Y-81662500D02*
X190752500Y-77970900D01*
X187325000Y-85090000D02*
X190752500Y-81662500D01*
X208733800Y-73678200D02*
X208391400Y-74020600D01*
X208733800Y-69326800D02*
X208733800Y-73678200D01*
X208068800Y-68661800D02*
X208733800Y-69326800D01*
X208068800Y-60536200D02*
X208068800Y-68661800D01*
X209550000Y-59055000D02*
X208068800Y-60536200D01*
X124852300Y-105652700D02*
X114300000Y-116205000D01*
X130078900Y-105652700D02*
X124852300Y-105652700D01*
X132899700Y-102831900D02*
X130078900Y-105652700D01*
X132899700Y-97605300D02*
X132899700Y-102831900D01*
X133350000Y-97155000D02*
X132899700Y-97605300D01*
X96476600Y-95928400D02*
X95250000Y-97155000D01*
X107227300Y-95928400D02*
X96476600Y-95928400D01*
X107908500Y-96609600D02*
X107227300Y-95928400D01*
X107908500Y-103998900D02*
X107908500Y-96609600D01*
X109900300Y-105990700D02*
X107908500Y-103998900D01*
X109900300Y-111122800D02*
X109900300Y-105990700D01*
X105418700Y-115604400D02*
X109900300Y-111122800D01*
X105418700Y-116676700D02*
X105418700Y-115604400D01*
X106190300Y-117448300D02*
X105418700Y-116676700D01*
X113056700Y-117448300D02*
X106190300Y-117448300D01*
X114300000Y-116205000D02*
X113056700Y-117448300D01*
X162129100Y-116344900D02*
X162129100Y-115649400D01*
X163390700Y-117606500D02*
X162129100Y-116344900D01*
X168584300Y-109194200D02*
X162129100Y-115649400D01*
X168584300Y-107857500D02*
X168584300Y-109194200D01*
X165278300Y-104551500D02*
X168584300Y-107857500D01*
X165278300Y-101908300D02*
X165278300Y-104551500D01*
X167486300Y-99700300D02*
X165278300Y-101908300D01*
X169536600Y-99700300D02*
X167486300Y-99700300D01*
X170283900Y-98953000D02*
X169536600Y-99700300D01*
X152955600Y-115649400D02*
X152400000Y-116205000D01*
X162129100Y-115649400D02*
X152955600Y-115649400D01*
X162827300Y-97155000D02*
X161831600Y-98150700D01*
X163830000Y-97155000D02*
X162827300Y-97155000D01*
X126998600Y-95886400D02*
X125730000Y-97155000D01*
X129326400Y-95886400D02*
X126998600Y-95886400D01*
X129495400Y-96055400D02*
X129326400Y-95886400D01*
X129495400Y-98242300D02*
X129495400Y-96055400D01*
X126697100Y-101040600D02*
X129495400Y-98242300D01*
X121088000Y-101040600D02*
X126697100Y-101040600D01*
X119054600Y-103074000D02*
X121088000Y-101040600D01*
X119054600Y-103074000D02*
X115658000Y-99677400D01*
X209081600Y-82066400D02*
X209081600Y-83485000D01*
X202886400Y-75871200D02*
X209081600Y-82066400D01*
X202886400Y-73985900D02*
X202886400Y-75871200D01*
X189230000Y-60329500D02*
X202886400Y-73985900D01*
X189230000Y-58577100D02*
X189230000Y-60329500D01*
X189977400Y-57829700D02*
X189230000Y-58577100D01*
X200704700Y-57829700D02*
X189977400Y-57829700D01*
X201930000Y-59055000D02*
X200704700Y-57829700D01*
X116934800Y-105193800D02*
X116934800Y-112045300D01*
X119054600Y-103074000D02*
X116934800Y-105193800D01*
X116928600Y-112051500D02*
X116934800Y-112045300D01*
X110833500Y-112051500D02*
X116928600Y-112051500D01*
X106680000Y-116205000D02*
X110833500Y-112051500D01*
X203835000Y-95250000D02*
X201930000Y-97155000D01*
X203835000Y-91926500D02*
X203835000Y-95250000D01*
X205105000Y-90656500D02*
X203835000Y-91926500D01*
X205105000Y-86215300D02*
X205105000Y-90656500D01*
X205105000Y-85090000D02*
X205105000Y-86215300D01*
X161112700Y-100185400D02*
X161868100Y-99430000D01*
X159657100Y-100185400D02*
X161112700Y-100185400D01*
X156169800Y-103672700D02*
X159657100Y-100185400D01*
X156169800Y-104785600D02*
X156169800Y-103672700D01*
X144780000Y-116175400D02*
X156169800Y-104785600D01*
X144780000Y-116205000D02*
X144780000Y-116175400D01*
X185503800Y-114303700D02*
X187214200Y-114303700D01*
X178426700Y-107226600D02*
X185503800Y-114303700D01*
X178426700Y-104401100D02*
X178426700Y-107226600D01*
X201060300Y-98024700D02*
X201060300Y-98707000D01*
X201930000Y-97155000D02*
X201060300Y-98024700D01*
X204470000Y-94470300D02*
X205105000Y-93835300D01*
X204470000Y-97155000D02*
X204470000Y-94470300D01*
X205105000Y-92710000D02*
X205105000Y-93835300D01*
X204470000Y-59055000D02*
X203244700Y-59055000D01*
X185420000Y-59055000D02*
X186645300Y-59055000D01*
X186645300Y-58595400D02*
X186645300Y-59055000D01*
X187861300Y-57379400D02*
X186645300Y-58595400D01*
X202028600Y-57379400D02*
X187861300Y-57379400D01*
X203244700Y-58595500D02*
X202028600Y-57379400D01*
X203244700Y-59055000D02*
X203244700Y-58595500D01*
X200025000Y-92710000D02*
X200025000Y-91584700D01*
X203727800Y-87881900D02*
X200025000Y-91584700D01*
X203727800Y-81028200D02*
X203727800Y-87881900D01*
X199472100Y-76772500D02*
X203727800Y-81028200D01*
X198851300Y-76772500D02*
X199472100Y-76772500D01*
X193696700Y-71617900D02*
X198851300Y-76772500D01*
X188675400Y-71617900D02*
X193696700Y-71617900D01*
X187607600Y-70550100D02*
X188675400Y-71617900D01*
X187607600Y-70352700D02*
X187607600Y-70550100D01*
X184850400Y-67595500D02*
X187607600Y-70352700D01*
X180639500Y-67595500D02*
X184850400Y-67595500D01*
X173229000Y-60185000D02*
X180639500Y-67595500D01*
X109220000Y-116205000D02*
X110445300Y-116205000D01*
X157884000Y-95103400D02*
X159872700Y-93114700D01*
X157884000Y-95315400D02*
X157884000Y-95103400D01*
X110445300Y-114580200D02*
X111617300Y-113408200D01*
X110445300Y-116205000D02*
X110445300Y-114580200D01*
X140540300Y-105213900D02*
X132051600Y-113702600D01*
X149580600Y-105213900D02*
X140540300Y-105213900D01*
X151130000Y-103664500D02*
X149580600Y-105213900D01*
X151130000Y-96253700D02*
X151130000Y-103664500D01*
X150874700Y-95998400D02*
X151130000Y-96253700D01*
X128270000Y-116205000D02*
X129495300Y-116205000D01*
X146707400Y-116205000D02*
X146094700Y-116205000D01*
X146707400Y-116205000D02*
X147320000Y-116205000D01*
X147320000Y-116205000D02*
X148545300Y-116205000D01*
X207645000Y-92710000D02*
X207645000Y-93835300D01*
X146094700Y-116664500D02*
X146094700Y-116205000D01*
X145314900Y-117444300D02*
X146094700Y-116664500D01*
X130275000Y-117444300D02*
X145314900Y-117444300D01*
X129495300Y-116664600D02*
X130275000Y-117444300D01*
X129495300Y-116205000D02*
X129495300Y-116664600D01*
X164930300Y-110490000D02*
X166315500Y-109104800D01*
X156313800Y-110490000D02*
X164930300Y-110490000D01*
X151130000Y-115673800D02*
X156313800Y-110490000D01*
X151130000Y-116673100D02*
X151130000Y-115673800D01*
X150344500Y-117458600D02*
X151130000Y-116673100D01*
X149339400Y-117458600D02*
X150344500Y-117458600D01*
X148545300Y-116664500D02*
X149339400Y-117458600D01*
X148545300Y-116205000D02*
X148545300Y-116664500D01*
X185138600Y-109418400D02*
X185573300Y-108983700D01*
X182154000Y-109418400D02*
X185138600Y-109418400D01*
X180554000Y-107818400D02*
X182154000Y-109418400D01*
X206309800Y-105936800D02*
X206309800Y-106180000D01*
X208749800Y-103496800D02*
X206309800Y-105936800D01*
X208749800Y-99351200D02*
X208749800Y-103496800D01*
X209394000Y-98707000D02*
X208749800Y-99351200D01*
X209751200Y-98707000D02*
X209394000Y-98707000D01*
X210821100Y-97637100D02*
X209751200Y-98707000D01*
X210821100Y-96684400D02*
X210821100Y-97637100D01*
X207972000Y-93835300D02*
X210821100Y-96684400D01*
X207645000Y-93835300D02*
X207972000Y-93835300D01*
X166370000Y-116205000D02*
X167595300Y-116205000D01*
X185420000Y-116205000D02*
X186645300Y-116205000D01*
X193251400Y-115190300D02*
X193251400Y-115029200D01*
X190988700Y-117453000D02*
X193251400Y-115190300D01*
X187433800Y-117453000D02*
X190988700Y-117453000D01*
X186645300Y-116664500D02*
X187433800Y-117453000D01*
X186645300Y-116205000D02*
X186645300Y-116664500D01*
X176985700Y-113168100D02*
X177402000Y-113584400D01*
X172706300Y-113168100D02*
X176985700Y-113168100D01*
X170180000Y-115694400D02*
X172706300Y-113168100D01*
X170180000Y-116738800D02*
X170180000Y-115694400D01*
X169488500Y-117430300D02*
X170180000Y-116738800D01*
X168361000Y-117430300D02*
X169488500Y-117430300D01*
X167595300Y-116664600D02*
X168361000Y-117430300D01*
X167595300Y-116205000D02*
X167595300Y-116664600D01*
X202565000Y-92710000D02*
X202565000Y-93835300D01*
X188652500Y-104283400D02*
X189214000Y-103721900D01*
X188652500Y-106733100D02*
X188652500Y-104283400D01*
X186234900Y-107972200D02*
X186234900Y-113495900D01*
X185987700Y-107725000D02*
X186234900Y-107972200D01*
X197781200Y-104049900D02*
X196793000Y-104049900D01*
X200241300Y-101589800D02*
X197781200Y-104049900D01*
X200241300Y-96159000D02*
X200241300Y-101589800D01*
X202565000Y-93835300D02*
X200241300Y-96159000D01*
X90170000Y-97155000D02*
X90170000Y-98380300D01*
X204470000Y-116205000D02*
X203244700Y-116205000D01*
X192405000Y-92710000D02*
X192405000Y-93835300D01*
X203244700Y-116664500D02*
X203244700Y-116205000D01*
X201478200Y-118431000D02*
X203244700Y-116664500D01*
X186233300Y-118431000D02*
X201478200Y-118431000D01*
X186035200Y-118232900D02*
X186233300Y-118431000D01*
X156896100Y-118232900D02*
X186035200Y-118232900D01*
X156845000Y-118181800D02*
X156896100Y-118232900D01*
X152111700Y-118181800D02*
X156845000Y-118181800D01*
X151499200Y-118794300D02*
X152111700Y-118181800D01*
X112415000Y-118794300D02*
X151499200Y-118794300D01*
X112095600Y-118474900D02*
X112415000Y-118794300D01*
X105926000Y-118474900D02*
X112095600Y-118474900D01*
X104146200Y-116695100D02*
X105926000Y-118474900D01*
X104146200Y-111267900D02*
X104146200Y-116695100D01*
X104146100Y-111267900D02*
X104146200Y-111267900D01*
X97236200Y-104358000D02*
X104146100Y-111267900D01*
X96274700Y-104358000D02*
X97236200Y-104358000D01*
X90297000Y-98380300D02*
X96274700Y-104358000D01*
X90170000Y-98380300D02*
X90297000Y-98380300D01*
X191744000Y-99826600D02*
X191565800Y-100004800D01*
X191744000Y-99085500D02*
X191744000Y-99826600D01*
X191226900Y-98568400D02*
X191744000Y-99085500D01*
X190178600Y-98568400D02*
X191226900Y-98568400D01*
X189230000Y-97619800D02*
X190178600Y-98568400D01*
X189230000Y-96667000D02*
X189230000Y-97619800D01*
X191208700Y-94688300D02*
X189230000Y-96667000D01*
X191287400Y-94688300D02*
X191208700Y-94688300D01*
X192140300Y-93835400D02*
X191287400Y-94688300D01*
X192140300Y-93835300D02*
X192140300Y-93835400D01*
X192405000Y-93835300D02*
X192140300Y-93835300D01*
X190148200Y-102964500D02*
X190148200Y-100291100D01*
X194505200Y-107321500D02*
X190148200Y-102964500D01*
X199243400Y-107321500D02*
X194505200Y-107321500D01*
X201761900Y-109840000D02*
X199243400Y-107321500D01*
X177895000Y-86995000D02*
X177800000Y-86900000D01*
X179832000Y-86995000D02*
X177895000Y-86995000D01*
X139360600Y-70957500D02*
X137942900Y-70957500D01*
X139908000Y-71504900D02*
X139360600Y-70957500D01*
X139908000Y-74468700D02*
X139908000Y-71504900D01*
X138088200Y-76288500D02*
X139908000Y-74468700D01*
X136575500Y-76288500D02*
X138088200Y-76288500D01*
X130175000Y-82689000D02*
X136575500Y-76288500D01*
X130175000Y-90805000D02*
X130175000Y-82689000D01*
X229369100Y-61729100D02*
X228947700Y-61729100D01*
X230505000Y-62865000D02*
X229369100Y-61729100D01*
X129390800Y-82834100D02*
X129390800Y-89629600D01*
X137190800Y-75034100D02*
X129390800Y-82834100D01*
X138705700Y-75034100D02*
X137190800Y-75034100D01*
X139071900Y-74667900D02*
X138705700Y-75034100D01*
X139071900Y-74119800D02*
X139071900Y-74667900D01*
X138668000Y-73715900D02*
X139071900Y-74119800D01*
X138414300Y-73715900D02*
X138668000Y-73715900D01*
X136666400Y-71968000D02*
X138414300Y-73715900D01*
X136666400Y-70627200D02*
X136666400Y-71968000D01*
X193530400Y-95004100D02*
X193530400Y-93477600D01*
X192864100Y-95670400D02*
X193530400Y-95004100D01*
X154795300Y-88433800D02*
X149529200Y-83167700D01*
X154795300Y-89133200D02*
X154795300Y-88433800D01*
X156629400Y-90967300D02*
X154795300Y-89133200D01*
X162003500Y-90967300D02*
X156629400Y-90967300D01*
X163013600Y-91977400D02*
X162003500Y-90967300D01*
X163756600Y-91977400D02*
X163013600Y-91977400D01*
X164565200Y-91168800D02*
X163756600Y-91977400D01*
X205695400Y-95942900D02*
X205422900Y-95670400D01*
X205695400Y-98546600D02*
X205695400Y-95942900D01*
X203375800Y-100866200D02*
X205695400Y-98546600D01*
X203375800Y-104130500D02*
X203375800Y-100866200D01*
X206092500Y-106847200D02*
X203375800Y-104130500D01*
X206527000Y-106847200D02*
X206092500Y-106847200D01*
X206935100Y-106439100D02*
X206527000Y-106847200D01*
X206935100Y-105948400D02*
X206935100Y-106439100D01*
X208941800Y-103941700D02*
X206935100Y-105948400D01*
X210158300Y-103941700D02*
X208941800Y-103941700D01*
X210850700Y-104634100D02*
X210158300Y-103941700D01*
X213054000Y-104634100D02*
X210850700Y-104634100D01*
X143510000Y-81280000D02*
X144635300Y-81280000D01*
X192045800Y-69779400D02*
X192285500Y-70019100D01*
X189453800Y-69779400D02*
X192045800Y-69779400D01*
X188931300Y-70301900D02*
X189453800Y-69779400D01*
X144635300Y-81037400D02*
X144635300Y-81280000D01*
X148179200Y-77493500D02*
X144635300Y-81037400D01*
X152015100Y-77493500D02*
X148179200Y-77493500D01*
X152240300Y-77718700D02*
X152015100Y-77493500D01*
X155629800Y-77718700D02*
X152240300Y-77718700D01*
X207519400Y-79230400D02*
X207799400Y-79230400D01*
X203787000Y-75498000D02*
X207519400Y-79230400D01*
X203787000Y-72817500D02*
X203787000Y-75498000D01*
X200988600Y-70019100D02*
X203787000Y-72817500D01*
X218804500Y-88675200D02*
X218804500Y-82175100D01*
X226215300Y-96086000D02*
X218804500Y-88675200D01*
X226215300Y-96314300D02*
X226215300Y-96086000D01*
X229235000Y-102385100D02*
X225874500Y-99024600D01*
X229235000Y-103840900D02*
X229235000Y-102385100D01*
X230169100Y-104775000D02*
X229235000Y-103840900D01*
X230832500Y-104775000D02*
X230169100Y-104775000D01*
X231652100Y-105594600D02*
X230832500Y-104775000D01*
X231652100Y-109218200D02*
X231652100Y-105594600D01*
X232102400Y-109668500D02*
X231652100Y-109218200D01*
X232102400Y-114607600D02*
X232102400Y-109668500D01*
X230505000Y-116205000D02*
X232102400Y-114607600D01*
X146050000Y-88900000D02*
X146050000Y-87774700D01*
X142150600Y-83875300D02*
X146050000Y-87774700D01*
X142150600Y-75557100D02*
X142150600Y-83875300D01*
X141738800Y-75145300D02*
X142150600Y-75557100D01*
X124288800Y-67012500D02*
X122199100Y-67012500D01*
X126117600Y-65183700D02*
X124288800Y-67012500D01*
X119916000Y-60368400D02*
X119735600Y-60188000D01*
X119916000Y-70219900D02*
X119916000Y-60368400D01*
X120641500Y-70945400D02*
X119916000Y-70219900D01*
X123463100Y-70945400D02*
X120641500Y-70945400D01*
X126675800Y-74158100D02*
X123463100Y-70945400D01*
X119015400Y-62032800D02*
X119015400Y-59512200D01*
X119465700Y-62483100D02*
X119015400Y-62032800D01*
X119465700Y-72265200D02*
X119465700Y-62483100D01*
X122044300Y-74843800D02*
X119465700Y-72265200D01*
X132476800Y-74843800D02*
X122044300Y-74843800D01*
X133162500Y-74158100D02*
X132476800Y-74843800D01*
X134983300Y-70945400D02*
X138446600Y-74408700D01*
X131899400Y-70945400D02*
X134983300Y-70945400D01*
X131578000Y-70624000D02*
X131899400Y-70945400D01*
X147545600Y-73077100D02*
X145477400Y-75145300D01*
X147545600Y-71120000D02*
X147545600Y-73077100D01*
X156088600Y-66549600D02*
X156088600Y-60035600D01*
X153543000Y-69095200D02*
X156088600Y-66549600D01*
X147701000Y-66037100D02*
X147701000Y-69076000D01*
X152778100Y-60960000D02*
X147701000Y-66037100D01*
X154069200Y-60960000D02*
X152778100Y-60960000D01*
X155673400Y-59355800D02*
X154069200Y-60960000D01*
X155673400Y-58006900D02*
X155673400Y-59355800D01*
X155254400Y-57587900D02*
X155673400Y-58006900D01*
X154254700Y-57587900D02*
X155254400Y-57587900D01*
X153416000Y-58426600D02*
X154254700Y-57587900D01*
X149650700Y-73605500D02*
X151190500Y-75145300D01*
X149650700Y-72312000D02*
X149650700Y-73605500D01*
X147808700Y-70470000D02*
X149650700Y-72312000D01*
X146864100Y-70470000D02*
X147808700Y-70470000D01*
X146704700Y-70629400D02*
X146864100Y-70470000D01*
X158704100Y-59935700D02*
X156040000Y-57271600D01*
X158704100Y-72063700D02*
X158704100Y-59935700D01*
X158493700Y-72274100D02*
X158704100Y-72063700D01*
X151294600Y-75971500D02*
X151294600Y-76192700D01*
X154130900Y-73135200D02*
X151294600Y-75971500D01*
X154130900Y-70658200D02*
X154130900Y-73135200D01*
X232552700Y-103098500D02*
X231997500Y-102543300D01*
X232552700Y-108844900D02*
X232552700Y-103098500D01*
X233003000Y-109295200D02*
X232552700Y-108844900D01*
X233003000Y-115617700D02*
X233003000Y-109295200D01*
X232552700Y-116068000D02*
X233003000Y-115617700D01*
X232552700Y-116393400D02*
X232552700Y-116068000D01*
X228296100Y-120650000D02*
X232552700Y-116393400D01*
X226210000Y-120650000D02*
X228296100Y-120650000D01*
X298955700Y-66706700D02*
X298955700Y-68374800D01*
X300118900Y-65543500D02*
X298955700Y-66706700D01*
X300118900Y-63116600D02*
X300118900Y-65543500D01*
X262890000Y-80137200D02*
X271143200Y-71884000D01*
X262890000Y-80813900D02*
X262890000Y-80137200D01*
X265336200Y-83260100D02*
X262890000Y-80813900D01*
X265336200Y-91891100D02*
X265336200Y-83260100D01*
X264348000Y-92879300D02*
X265336200Y-91891100D01*
X264348000Y-95107800D02*
X264348000Y-92879300D01*
X264600500Y-95360300D02*
X264348000Y-95107800D01*
X264600500Y-97827600D02*
X264600500Y-95360300D01*
X264072700Y-98355400D02*
X264600500Y-97827600D01*
X264072700Y-100075700D02*
X264072700Y-98355400D01*
X265822700Y-101825700D02*
X264072700Y-100075700D01*
X265822700Y-104007800D02*
X265822700Y-101825700D01*
X265372400Y-104458100D02*
X265822700Y-104007800D01*
X265372400Y-111206300D02*
X265372400Y-104458100D01*
X261872600Y-114706100D02*
X265372400Y-111206300D01*
X295910000Y-116205000D02*
X294684700Y-116205000D01*
X276860000Y-116840000D02*
X278085300Y-116840000D01*
X305435000Y-84455000D02*
X305435000Y-85580300D01*
X278085300Y-117299600D02*
X278085300Y-116840000D01*
X278851000Y-118065300D02*
X278085300Y-117299600D01*
X291908200Y-118065300D02*
X278851000Y-118065300D01*
X292304400Y-117669100D02*
X291908200Y-118065300D01*
X293680200Y-117669100D02*
X292304400Y-117669100D01*
X294684700Y-116664600D02*
X293680200Y-117669100D01*
X294684700Y-116205000D02*
X294684700Y-116664600D01*
X302023500Y-113608300D02*
X301295900Y-114335900D01*
X302023500Y-113489800D02*
X302023500Y-113608300D01*
X305023300Y-110490000D02*
X302023500Y-113489800D01*
X305819300Y-110490000D02*
X305023300Y-110490000D01*
X310544000Y-105765300D02*
X305819300Y-110490000D01*
X310544000Y-104770600D02*
X310544000Y-105765300D01*
X312444600Y-102870000D02*
X310544000Y-104770600D01*
X313454000Y-102870000D02*
X312444600Y-102870000D01*
X314233600Y-102090400D02*
X313454000Y-102870000D01*
X314233600Y-96040200D02*
X314233600Y-102090400D01*
X313588000Y-95394600D02*
X314233600Y-96040200D01*
X312843700Y-95394600D02*
X313588000Y-95394600D01*
X306560300Y-89111200D02*
X312843700Y-95394600D01*
X306560300Y-86424200D02*
X306560300Y-89111200D01*
X305716400Y-85580300D02*
X306560300Y-86424200D01*
X305435000Y-85580300D02*
X305716400Y-85580300D01*
X257810000Y-97155000D02*
X256584700Y-97155000D01*
X238760000Y-97155000D02*
X239985300Y-97155000D01*
X239985300Y-97614600D02*
X239985300Y-97155000D01*
X240751000Y-98380300D02*
X239985300Y-97614600D01*
X242379600Y-98380300D02*
X240751000Y-98380300D01*
X242521800Y-98238100D02*
X242379600Y-98380300D01*
X243039900Y-98238100D02*
X242521800Y-98238100D01*
X243182100Y-98380300D02*
X243039900Y-98238100D01*
X255818900Y-98380300D02*
X243182100Y-98380300D01*
X256584700Y-97614500D02*
X255818900Y-98380300D01*
X256584700Y-97155000D02*
X256584700Y-97614500D01*
X296110600Y-89955900D02*
X294083900Y-91982600D01*
X296110600Y-87306300D02*
X296110600Y-89955900D01*
X294827100Y-86022800D02*
X296110600Y-87306300D01*
X294827100Y-82892900D02*
X294827100Y-86022800D01*
X297493700Y-80226300D02*
X294827100Y-82892900D01*
X297780100Y-80226300D02*
X297493700Y-80226300D01*
X269094000Y-91827100D02*
X269388200Y-91532900D01*
X267468600Y-91827100D02*
X269094000Y-91827100D01*
X266049000Y-93246700D02*
X267468600Y-91827100D01*
X266049000Y-95306900D02*
X266049000Y-93246700D01*
X266008000Y-95347900D02*
X266049000Y-95306900D01*
X295910000Y-97155000D02*
X294684700Y-97155000D01*
X276860000Y-97155000D02*
X278085300Y-97155000D01*
X278085300Y-97614600D02*
X278085300Y-97155000D01*
X278851000Y-98380300D02*
X278085300Y-97614600D01*
X284045000Y-98380300D02*
X278851000Y-98380300D01*
X284187200Y-98238100D02*
X284045000Y-98380300D01*
X290884600Y-98238100D02*
X284187200Y-98238100D01*
X291026800Y-98380300D02*
X290884600Y-98238100D01*
X293918900Y-98380300D02*
X291026800Y-98380300D01*
X294684700Y-97614500D02*
X293918900Y-98380300D01*
X294684700Y-97155000D02*
X294684700Y-97614500D01*
X294632400Y-79601000D02*
X295795300Y-79601000D01*
X290884600Y-83348800D02*
X294632400Y-79601000D01*
X290884600Y-98238100D02*
X290884600Y-83348800D01*
X257810000Y-78105000D02*
X256584700Y-78105000D01*
X238760000Y-78105000D02*
X239985300Y-78105000D01*
X289021300Y-62305400D02*
X298967200Y-62305400D01*
X282490800Y-68835900D02*
X289021300Y-62305400D01*
X281082500Y-68835900D02*
X282490800Y-68835900D01*
X280899700Y-69018700D02*
X281082500Y-68835900D01*
X279941200Y-69018700D02*
X280899700Y-69018700D01*
X278815400Y-67892900D02*
X279941200Y-69018700D01*
X265696800Y-67892900D02*
X278815400Y-67892900D01*
X264739800Y-68849900D02*
X265696800Y-67892900D01*
X256584700Y-78564500D02*
X256584700Y-78105000D01*
X255595300Y-79553900D02*
X256584700Y-78564500D01*
X253611700Y-79553900D02*
X255595300Y-79553900D01*
X253388100Y-79330300D02*
X253611700Y-79553900D01*
X240751000Y-79330300D02*
X253388100Y-79330300D01*
X239985300Y-78564600D02*
X240751000Y-79330300D01*
X239985300Y-78105000D02*
X239985300Y-78564600D01*
X278085300Y-78564600D02*
X278085300Y-78105000D01*
X278851000Y-79330300D02*
X278085300Y-78564600D01*
X293918900Y-79330300D02*
X278851000Y-79330300D01*
X294684700Y-78564500D02*
X293918900Y-79330300D01*
X294684700Y-78105000D02*
X294684700Y-78564500D01*
X295910000Y-78105000D02*
X294684700Y-78105000D01*
X276860000Y-78105000D02*
X278085300Y-78105000D01*
X302955900Y-69998100D02*
X302955900Y-70499100D01*
X305153700Y-67800300D02*
X302955900Y-69998100D01*
X305435000Y-67800300D02*
X305153700Y-67800300D01*
X305435000Y-66675000D02*
X305435000Y-67800300D01*
X239985300Y-58595400D02*
X239985300Y-59055000D01*
X240751000Y-57829700D02*
X239985300Y-58595400D01*
X255818900Y-57829700D02*
X240751000Y-57829700D01*
X256584700Y-58595500D02*
X255818900Y-57829700D01*
X256584700Y-59055000D02*
X256584700Y-58595500D01*
X257810000Y-59055000D02*
X256584700Y-59055000D01*
X238760000Y-59055000D02*
X239985300Y-59055000D01*
X306797800Y-74607800D02*
X306797800Y-74188700D01*
X305985200Y-75420400D02*
X306797800Y-74607800D01*
X305207900Y-75420400D02*
X305985200Y-75420400D01*
X304303400Y-76324900D02*
X305207900Y-75420400D01*
X304303400Y-79939400D02*
X304303400Y-76324900D01*
X305153700Y-80789700D02*
X304303400Y-79939400D01*
X305435000Y-80789700D02*
X305153700Y-80789700D01*
X305435000Y-81915000D02*
X305435000Y-80789700D01*
X276860000Y-59055000D02*
X278085300Y-59055000D01*
X295910000Y-59055000D02*
X295347200Y-59055000D01*
X295347200Y-59055000D02*
X294684700Y-59055000D01*
X305435000Y-76835000D02*
X306560300Y-76835000D01*
X278085300Y-58595400D02*
X278085300Y-59055000D01*
X279301300Y-57379400D02*
X278085300Y-58595400D01*
X293468600Y-57379400D02*
X279301300Y-57379400D01*
X294684700Y-58595500D02*
X293468600Y-57379400D01*
X294684700Y-59055000D02*
X294684700Y-58595500D01*
X310261800Y-80536500D02*
X306560300Y-76835000D01*
X313495700Y-80536500D02*
X310261800Y-80536500D01*
X314650500Y-79381700D02*
X313495700Y-80536500D01*
X314650500Y-61554500D02*
X314650500Y-79381700D01*
X313276400Y-60180400D02*
X314650500Y-61554500D01*
X309455500Y-60180400D02*
X313276400Y-60180400D01*
X307058100Y-57783000D02*
X309455500Y-60180400D01*
X296619200Y-57783000D02*
X307058100Y-57783000D01*
X295347200Y-59055000D02*
X296619200Y-57783000D01*
X240061800Y-76866800D02*
X237490000Y-76866800D01*
X241300000Y-78105000D02*
X240061800Y-76866800D01*
X278159300Y-95914300D02*
X277082800Y-95914300D01*
X279400000Y-97155000D02*
X278159300Y-95914300D01*
X279400000Y-108487400D02*
X279400000Y-116840000D01*
X275634600Y-104722000D02*
X279400000Y-108487400D01*
X275634600Y-96062600D02*
X275634600Y-104722000D01*
X275782900Y-95914300D02*
X275634600Y-96062600D01*
X277082800Y-95914300D02*
X275782900Y-95914300D01*
X239458500Y-87058000D02*
X239458500Y-95885000D01*
X237490000Y-85089500D02*
X239458500Y-87058000D01*
X237490000Y-76866800D02*
X237490000Y-85089500D01*
X240030000Y-95885000D02*
X239458500Y-95885000D01*
X241300000Y-97155000D02*
X240030000Y-95885000D01*
X278174600Y-60280400D02*
X279400000Y-59055000D01*
X275803000Y-60280400D02*
X278174600Y-60280400D01*
X275550100Y-60027500D02*
X275803000Y-60280400D01*
X275550100Y-58493800D02*
X275550100Y-60027500D01*
X273310900Y-56254600D02*
X275550100Y-58493800D01*
X274977300Y-82252300D02*
X274977300Y-80297700D01*
X275220600Y-82495600D02*
X274977300Y-82252300D01*
X275220600Y-85548200D02*
X275220600Y-82495600D01*
X277082800Y-87410400D02*
X275220600Y-85548200D01*
X277082800Y-95914300D02*
X277082800Y-87410400D01*
X244216000Y-119468000D02*
X269373800Y-119468000D01*
X241300000Y-116552000D02*
X244216000Y-119468000D01*
X241300000Y-116205000D02*
X241300000Y-116552000D01*
X232222900Y-66697100D02*
X232222900Y-65614200D01*
X237490000Y-71964200D02*
X232222900Y-66697100D01*
X237490000Y-76866800D02*
X237490000Y-71964200D01*
X237728600Y-95885000D02*
X239458500Y-95885000D01*
X237534700Y-96078900D02*
X237728600Y-95885000D01*
X237534700Y-99760700D02*
X237534700Y-96078900D01*
X237669000Y-99895000D02*
X237534700Y-99760700D01*
X237669000Y-103845100D02*
X237669000Y-99895000D01*
X241300000Y-107476100D02*
X237669000Y-103845100D01*
X241300000Y-116205000D02*
X241300000Y-107476100D01*
X313336400Y-73169700D02*
X313055000Y-73169700D01*
X314180300Y-72325800D02*
X313336400Y-73169700D01*
X314180300Y-66208500D02*
X314180300Y-72325800D01*
X313376800Y-65405000D02*
X314180300Y-66208500D01*
X304800000Y-65405000D02*
X313376800Y-65405000D01*
X298450000Y-59055000D02*
X304800000Y-65405000D01*
X313055000Y-74295000D02*
X313055000Y-73169700D01*
X261650500Y-117505500D02*
X260350000Y-116205000D01*
X263853700Y-117505500D02*
X261650500Y-117505500D01*
X265822700Y-115536500D02*
X263853700Y-117505500D01*
X297193300Y-60311700D02*
X298450000Y-59055000D01*
X286611500Y-60311700D02*
X297193300Y-60311700D01*
X284129500Y-57829700D02*
X286611500Y-60311700D01*
X281415100Y-57829700D02*
X284129500Y-57829700D01*
X280670100Y-58574700D02*
X281415100Y-57829700D01*
X280670100Y-59532700D02*
X280670100Y-58574700D01*
X279472100Y-60730700D02*
X280670100Y-59532700D01*
X273795200Y-60730700D02*
X279472100Y-60730700D01*
X270894200Y-57829700D02*
X273795200Y-60730700D01*
X261575300Y-57829700D02*
X270894200Y-57829700D01*
X260350000Y-59055000D02*
X261575300Y-57829700D01*
X298450000Y-115925300D02*
X298450000Y-116205000D01*
X298449900Y-115925300D02*
X298450000Y-115925300D01*
X298449900Y-108622200D02*
X298449900Y-115925300D01*
X294389600Y-104561900D02*
X298449900Y-108622200D01*
X294389600Y-101573700D02*
X294389600Y-104561900D01*
X296963600Y-98999700D02*
X294389600Y-101573700D01*
X297083000Y-98999700D02*
X296963600Y-98999700D01*
X298450000Y-97632700D02*
X297083000Y-98999700D01*
X298450000Y-97155000D02*
X298450000Y-97632700D01*
X267544200Y-115536500D02*
X265822700Y-115536500D01*
X271027700Y-119020000D02*
X267544200Y-115536500D01*
X292227300Y-119020000D02*
X271027700Y-119020000D01*
X292677600Y-118569700D02*
X292227300Y-119020000D01*
X295805500Y-118569700D02*
X292677600Y-118569700D01*
X298449900Y-115925300D02*
X295805500Y-118569700D01*
X303631100Y-78945700D02*
X303631100Y-95425700D01*
X301500100Y-76814700D02*
X303631100Y-78945700D01*
X299740300Y-76814700D02*
X301500100Y-76814700D01*
X298450000Y-78105000D02*
X299740300Y-76814700D01*
X264698100Y-98782600D02*
X264698100Y-98698600D01*
X266273000Y-100357500D02*
X264698100Y-98782600D01*
X266273000Y-104194400D02*
X266273000Y-100357500D01*
X265822700Y-104644700D02*
X266273000Y-104194400D01*
X265822700Y-115536500D02*
X265822700Y-104644700D01*
X260350000Y-79246100D02*
X260350000Y-78105000D01*
X256745900Y-82850200D02*
X260350000Y-79246100D01*
X256745900Y-85708700D02*
X256745900Y-82850200D01*
X260350000Y-89312800D02*
X256745900Y-85708700D01*
X260350000Y-97155000D02*
X260350000Y-89312800D01*
X281940000Y-77308500D02*
X281470100Y-76838600D01*
X281940000Y-78105000D02*
X281940000Y-77308500D01*
X242371500Y-80408900D02*
X241953800Y-79991200D01*
X242371500Y-95686500D02*
X242371500Y-80408900D01*
X243840000Y-97155000D02*
X242371500Y-95686500D01*
X281470100Y-70286700D02*
X281845200Y-69911600D01*
X281470100Y-76838600D02*
X281470100Y-70286700D01*
X280027600Y-66194600D02*
X280027600Y-67386400D01*
X281940000Y-64282200D02*
X280027600Y-66194600D01*
X281940000Y-59055000D02*
X281940000Y-64282200D01*
X280027600Y-67780400D02*
X280640600Y-68393400D01*
X280027600Y-67386400D02*
X280027600Y-67780400D01*
X284446200Y-114333800D02*
X284446200Y-98863400D01*
X281940000Y-116840000D02*
X284446200Y-114333800D01*
X265151200Y-67386400D02*
X280027600Y-67386400D01*
X263491100Y-69046500D02*
X265151200Y-67386400D01*
X260661500Y-69046500D02*
X263491100Y-69046500D01*
X259764200Y-68149200D02*
X260661500Y-69046500D01*
X259179200Y-68149200D02*
X259764200Y-68149200D01*
X250085000Y-59055000D02*
X259179200Y-68149200D01*
X243840000Y-59055000D02*
X250085000Y-59055000D01*
X275866300Y-76838600D02*
X275634600Y-77070300D01*
X281470100Y-76838600D02*
X275866300Y-76838600D01*
X275443900Y-76879600D02*
X275634600Y-77070300D01*
X267083800Y-76879600D02*
X275443900Y-76879600D01*
X263547900Y-80415500D02*
X267083800Y-76879600D01*
X275634600Y-82272700D02*
X275634600Y-77070300D01*
X275670900Y-82309000D02*
X275634600Y-82272700D01*
X275670900Y-84645300D02*
X275670900Y-82309000D01*
X281940000Y-90914400D02*
X275670900Y-84645300D01*
X281940000Y-97155000D02*
X281940000Y-90914400D01*
X242341100Y-114706100D02*
X243840000Y-116205000D01*
X242341100Y-104390900D02*
X242341100Y-114706100D01*
X242524500Y-104207500D02*
X242341100Y-104390900D01*
X242524500Y-99119700D02*
X242524500Y-104207500D01*
X242780800Y-98863400D02*
X242524500Y-99119700D01*
X310804400Y-63009700D02*
X311929700Y-64135000D01*
X304944700Y-63009700D02*
X310804400Y-63009700D01*
X300990000Y-59055000D02*
X304944700Y-63009700D01*
X313055000Y-64135000D02*
X311929700Y-64135000D01*
X300708600Y-97155000D02*
X300990000Y-97155000D01*
X262608600Y-97155000D02*
X262890000Y-97155000D01*
X259756800Y-69663100D02*
X259756700Y-69663100D01*
X259756800Y-74971800D02*
X259756800Y-69663100D01*
X262890000Y-78105000D02*
X259756800Y-74971800D01*
X262890000Y-65233400D02*
X262890000Y-59055000D01*
X261421600Y-66701800D02*
X262890000Y-65233400D01*
X261421600Y-68254800D02*
X261421600Y-66701800D01*
X261588000Y-68421200D02*
X261421600Y-68254800D01*
X300708600Y-103173400D02*
X300708600Y-97155000D01*
X299491100Y-104390900D02*
X300708600Y-103173400D01*
X299491100Y-114123600D02*
X299491100Y-104390900D01*
X300990000Y-115622500D02*
X299491100Y-114123600D01*
X300990000Y-116205000D02*
X300990000Y-115622500D01*
X299319200Y-95765600D02*
X300708600Y-97155000D01*
X299319200Y-85512800D02*
X299319200Y-95765600D01*
X300990000Y-83842000D02*
X299319200Y-85512800D01*
X300990000Y-78105000D02*
X300990000Y-83842000D01*
X261195500Y-95741900D02*
X262608600Y-97155000D01*
X261195500Y-85536500D02*
X261195500Y-95741900D01*
X262439700Y-84292300D02*
X261195500Y-85536500D01*
X262439700Y-78555300D02*
X262439700Y-84292300D01*
X262890000Y-78105000D02*
X262439700Y-78555300D01*
X261123600Y-104658400D02*
X261123600Y-114965100D01*
X262608600Y-103173400D02*
X261123600Y-104658400D01*
X262608600Y-97155000D02*
X262608600Y-103173400D01*
X262363500Y-116205000D02*
X261123600Y-114965100D01*
X262890000Y-116205000D02*
X262363500Y-116205000D01*
X300990000Y-116640000D02*
X300990000Y-116205000D01*
X298610000Y-119020000D02*
X300990000Y-116640000D01*
X292864200Y-119020000D02*
X298610000Y-119020000D01*
X292413900Y-119470300D02*
X292864200Y-119020000D01*
X270841100Y-119470300D02*
X292413900Y-119470300D01*
X270213500Y-118842700D02*
X270841100Y-119470300D01*
X261253400Y-118842700D02*
X270213500Y-118842700D01*
X259092300Y-116681600D02*
X261253400Y-118842700D01*
X259092300Y-115729700D02*
X259092300Y-116681600D01*
X259856900Y-114965100D02*
X259092300Y-115729700D01*
X261123600Y-114965100D02*
X259856900Y-114965100D01*
X237895700Y-57379300D02*
X236220000Y-59055000D01*
X272644300Y-57379300D02*
X237895700Y-57379300D01*
X274320000Y-59055000D02*
X272644300Y-57379300D01*
X274202600Y-97037600D02*
X274320000Y-97155000D01*
X274083100Y-116603100D02*
X274320000Y-116840000D01*
X274083100Y-105237100D02*
X274083100Y-116603100D01*
X274252900Y-105067300D02*
X274083100Y-105237100D01*
X274252900Y-97087900D02*
X274252900Y-105067300D01*
X274202600Y-97037600D02*
X274252900Y-97087900D01*
X303721500Y-67895000D02*
X304072300Y-67895000D01*
X301039000Y-65212500D02*
X303721500Y-67895000D01*
X301039000Y-63068600D02*
X301039000Y-65212500D01*
X299579400Y-61609000D02*
X301039000Y-63068600D01*
X287422300Y-61609000D02*
X299579400Y-61609000D01*
X270727100Y-94249300D02*
X274085200Y-94249300D01*
X270188800Y-93711000D02*
X270727100Y-94249300D01*
X267805200Y-93711000D02*
X270188800Y-93711000D01*
X274085200Y-85504900D02*
X274085200Y-94249300D01*
X274714000Y-84876100D02*
X274085200Y-85504900D01*
X274714000Y-82625900D02*
X274714000Y-84876100D01*
X274320000Y-82231900D02*
X274714000Y-82625900D01*
X274320000Y-78105000D02*
X274320000Y-82231900D01*
X274085200Y-96920200D02*
X274202600Y-97037600D01*
X274085200Y-94249300D02*
X274085200Y-96920200D01*
X236220000Y-84629400D02*
X236220000Y-78105000D01*
X238975100Y-87384500D02*
X236220000Y-84629400D01*
X238975100Y-93763000D02*
X238975100Y-87384500D01*
X236220000Y-96518100D02*
X238975100Y-93763000D01*
X236220000Y-97155000D02*
X236220000Y-96518100D01*
X228476900Y-63113300D02*
X228476900Y-63095100D01*
X228875800Y-63512200D02*
X228476900Y-63113300D01*
X228875800Y-65392100D02*
X228875800Y-63512200D01*
X230158700Y-66675000D02*
X228875800Y-65392100D01*
X230902200Y-66675000D02*
X230158700Y-66675000D01*
X236220000Y-71992800D02*
X230902200Y-66675000D01*
X236220000Y-78105000D02*
X236220000Y-71992800D01*
X236220000Y-98693500D02*
X236220000Y-97155000D01*
X236220100Y-98693500D02*
X236220000Y-98693500D01*
X237051800Y-99525200D02*
X236220100Y-98693500D01*
X237051800Y-99914700D02*
X237051800Y-99525200D01*
X237218700Y-100081600D02*
X237051800Y-99914700D01*
X237218700Y-103753600D02*
X237218700Y-100081600D01*
X235568400Y-105403900D02*
X237218700Y-103753600D01*
X235568400Y-115553400D02*
X235568400Y-105403900D01*
X236220000Y-116205000D02*
X235568400Y-115553400D01*
X258882800Y-74492200D02*
X257700500Y-75674500D01*
X258882800Y-69224800D02*
X258882800Y-74492200D01*
X257700500Y-75674500D02*
X255270000Y-78105000D01*
X255035200Y-96920200D02*
X255270000Y-97155000D01*
X255035200Y-84448400D02*
X255035200Y-96920200D01*
X256067900Y-83415700D02*
X255035200Y-84448400D01*
X256067900Y-82778800D02*
X256067900Y-83415700D01*
X259035400Y-79811300D02*
X256067900Y-82778800D01*
X259035400Y-77009500D02*
X259035400Y-79811300D01*
X257700500Y-75674500D02*
X259035400Y-77009500D01*
X260731700Y-66644900D02*
X260731700Y-68232400D01*
X261421600Y-65955000D02*
X260731700Y-66644900D01*
X261421600Y-63821000D02*
X261421600Y-65955000D01*
X259374500Y-61773900D02*
X261421600Y-63821000D01*
X257988900Y-61773900D02*
X259374500Y-61773900D01*
X255270000Y-59055000D02*
X257988900Y-61773900D01*
X315132500Y-59048800D02*
X313463000Y-57379300D01*
X315132500Y-79837500D02*
X315132500Y-59048800D01*
X313055000Y-81915000D02*
X315132500Y-79837500D01*
X293124300Y-115959300D02*
X293370000Y-116205000D01*
X293124300Y-103966500D02*
X293124300Y-115959300D01*
X293832000Y-103258800D02*
X293124300Y-103966500D01*
X293832000Y-101434800D02*
X293832000Y-103258800D01*
X296717400Y-98549400D02*
X293832000Y-101434800D01*
X296817000Y-98549400D02*
X296717400Y-98549400D01*
X297135400Y-98231000D02*
X296817000Y-98549400D01*
X297135400Y-96068700D02*
X297135400Y-98231000D01*
X296996300Y-95929600D02*
X297135400Y-96068700D01*
X294595400Y-95929600D02*
X296996300Y-95929600D01*
X293370000Y-97155000D02*
X294595400Y-95929600D01*
X292975100Y-96760100D02*
X293370000Y-97155000D01*
X292975100Y-84744900D02*
X292975100Y-96760100D01*
X294131200Y-83588800D02*
X292975100Y-84744900D01*
X294131200Y-82951900D02*
X294131200Y-83588800D01*
X297135400Y-79947700D02*
X294131200Y-82951900D01*
X297135400Y-77018700D02*
X297135400Y-79947700D01*
X296996300Y-76879600D02*
X297135400Y-77018700D01*
X294595400Y-76879600D02*
X296996300Y-76879600D01*
X293370000Y-78105000D02*
X294595400Y-76879600D01*
X258009900Y-113465100D02*
X255270000Y-116205000D01*
X258009900Y-106355600D02*
X258009900Y-113465100D01*
X256272600Y-104618300D02*
X258009900Y-106355600D01*
X256272600Y-98881000D02*
X256272600Y-104618300D01*
X256441500Y-98712100D02*
X256272600Y-98881000D01*
X303530000Y-76200000D02*
X305435000Y-74295000D01*
X293176000Y-76200000D02*
X303530000Y-76200000D01*
X291052000Y-74076000D02*
X293176000Y-76200000D01*
X291052000Y-68961000D02*
X291052000Y-74076000D01*
X269924200Y-90906900D02*
X269967800Y-90950500D01*
X267918400Y-90906900D02*
X269924200Y-90906900D01*
X267448500Y-91376800D02*
X267918400Y-90906900D01*
X267282000Y-91376800D02*
X267448500Y-91376800D01*
X265423700Y-93235100D02*
X267282000Y-91376800D01*
X265423700Y-93324900D02*
X265423700Y-93235100D01*
X269609700Y-94540800D02*
X269802400Y-94348100D01*
X267800200Y-94540800D02*
X269609700Y-94540800D01*
M02*
