G04 #@! TF.FileFunction,Copper,L1,Top,Signal*
%FSLAX46Y46*%
G04 Gerber Fmt 4.6, Leading zero omitted, Abs format (unit mm)*
G04 Created by KiCad (PCBNEW 4.0.7) date Sat Mar 24 11:27:51 2018*
%MOMM*%
%LPD*%
G01*
G04 APERTURE LIST*
%ADD10C,0.100000*%
%ADD11R,1.200000X1.200000*%
%ADD12C,1.200000*%
%ADD13C,1.600000*%
%ADD14R,1.600000X1.600000*%
%ADD15C,2.286000*%
%ADD16C,2.100000*%
%ADD17C,1.750000*%
%ADD18C,1.500000*%
%ADD19C,3.000000*%
%ADD20O,1.600000X1.600000*%
%ADD21R,1.700000X1.700000*%
%ADD22O,1.700000X1.700000*%
%ADD23C,2.000000*%
%ADD24R,1.000000X2.000000*%
%ADD25O,4.000000X4.000000*%
%ADD26R,1.200000X1.700000*%
%ADD27O,1.200000X1.700000*%
%ADD28C,5.400000*%
%ADD29C,0.600000*%
%ADD30C,1.800000*%
%ADD31R,1.800000X1.800000*%
%ADD32C,0.250000*%
%ADD33C,0.500000*%
G04 APERTURE END LIST*
D10*
D11*
X195580000Y-102235000D03*
D12*
X197580000Y-102235000D03*
D11*
X293370000Y-73025000D03*
D12*
X293370000Y-75025000D03*
D13*
X230505000Y-98425000D03*
X230505000Y-100965000D03*
X230505000Y-103505000D03*
X230505000Y-106045000D03*
X230505000Y-95885000D03*
X230505000Y-93345000D03*
X230505000Y-90805000D03*
X230505000Y-108585000D03*
X230505000Y-111125000D03*
X230505000Y-113665000D03*
X230505000Y-116205000D03*
X227965000Y-103505000D03*
X225425000Y-103505000D03*
X222885000Y-103505000D03*
X220345000Y-103505000D03*
X217805000Y-103505000D03*
X215265000Y-116205000D03*
X215265000Y-113665000D03*
X215265000Y-111125000D03*
X215265000Y-108585000D03*
X215265000Y-106045000D03*
X215265000Y-103505000D03*
X215265000Y-100965000D03*
X215265000Y-98425000D03*
X230505000Y-88265000D03*
X230505000Y-85725000D03*
X230505000Y-83185000D03*
X230505000Y-80645000D03*
X230505000Y-78105000D03*
X230505000Y-75565000D03*
X230505000Y-73025000D03*
X230505000Y-70485000D03*
X230505000Y-67945000D03*
X230505000Y-65405000D03*
X230505000Y-62865000D03*
X230505000Y-60325000D03*
D14*
X230505000Y-57785000D03*
D13*
X215265000Y-95885000D03*
X215265000Y-93345000D03*
X215265000Y-90805000D03*
X215265000Y-88265000D03*
X215265000Y-85725000D03*
X215265000Y-83185000D03*
X215265000Y-80645000D03*
X215265000Y-78105000D03*
X215265000Y-75565000D03*
X215265000Y-73025000D03*
X215265000Y-70485000D03*
X215265000Y-67945000D03*
X215265000Y-65405000D03*
X215265000Y-62865000D03*
X215265000Y-60325000D03*
X215265000Y-57785000D03*
X217805000Y-60325000D03*
X227505000Y-64135000D03*
X227505000Y-66675000D03*
X227505000Y-69215000D03*
X227505000Y-71755000D03*
X227505000Y-74295000D03*
D15*
X294640000Y-107950000D03*
X300990000Y-105410000D03*
X88900000Y-127000000D03*
X95250000Y-124460000D03*
X203200000Y-107950000D03*
X209550000Y-105410000D03*
X184150000Y-107950000D03*
X190500000Y-105410000D03*
X165100000Y-107950000D03*
X171450000Y-105410000D03*
X146050000Y-107950000D03*
X152400000Y-105410000D03*
X127000000Y-107950000D03*
X133350000Y-105410000D03*
X203200000Y-69850000D03*
X209550000Y-67310000D03*
X184150000Y-69850000D03*
X190500000Y-67310000D03*
X237490000Y-127000000D03*
X243840000Y-124460000D03*
X256540000Y-127000000D03*
X262890000Y-124460000D03*
X237490000Y-88900000D03*
X243840000Y-86360000D03*
X275590000Y-127000000D03*
X281940000Y-124460000D03*
X256540000Y-88900000D03*
X262890000Y-86360000D03*
X294640000Y-127000000D03*
X300990000Y-124460000D03*
X275590000Y-88900000D03*
X281940000Y-86360000D03*
X294640000Y-88900000D03*
X300990000Y-86360000D03*
X256540000Y-107950000D03*
X262890000Y-105410000D03*
X237490000Y-69850000D03*
X243840000Y-67310000D03*
X275590000Y-107950000D03*
X281940000Y-105410000D03*
X256540000Y-69850000D03*
X262890000Y-67310000D03*
X294640000Y-69850000D03*
X300990000Y-67310000D03*
X203200000Y-127000000D03*
X209550000Y-124460000D03*
X184150000Y-127000000D03*
X190500000Y-124460000D03*
X165100000Y-127000000D03*
X171450000Y-124460000D03*
X146050000Y-127000000D03*
X152400000Y-124460000D03*
X127000000Y-127000000D03*
X133350000Y-124460000D03*
X107950000Y-127000000D03*
X114300000Y-124460000D03*
X275590000Y-69850000D03*
X281940000Y-67310000D03*
X237490000Y-107950000D03*
X243840000Y-105410000D03*
X107950000Y-107950000D03*
X114300000Y-105410000D03*
X88900000Y-107950000D03*
X95250000Y-105410000D03*
D16*
X97110000Y-60275000D03*
D17*
X98370000Y-57785000D03*
X102870000Y-57785000D03*
D16*
X104120000Y-60275000D03*
D13*
X175260000Y-96520000D03*
X160020000Y-96520000D03*
X175260000Y-99060000D03*
X175260000Y-101600000D03*
X175260000Y-104140000D03*
X175260000Y-106680000D03*
X175260000Y-109220000D03*
X175260000Y-111760000D03*
X175260000Y-114300000D03*
X175260000Y-116840000D03*
X175260000Y-119380000D03*
X175260000Y-121920000D03*
X175260000Y-124460000D03*
X175260000Y-127000000D03*
X175260000Y-129540000D03*
X160020000Y-99060000D03*
X160020000Y-101600000D03*
X160020000Y-104140000D03*
X160020000Y-106680000D03*
X160020000Y-109220000D03*
X160020000Y-111760000D03*
X160020000Y-114300000D03*
X160020000Y-116840000D03*
X160020000Y-119380000D03*
X160020000Y-121920000D03*
X160020000Y-124460000D03*
X160020000Y-127000000D03*
D14*
X160020000Y-129540000D03*
D18*
X83950000Y-77345000D03*
X83950000Y-79885000D03*
X83950000Y-81915000D03*
X83950000Y-84455000D03*
D19*
X81280000Y-74295000D03*
X81280000Y-88015000D03*
D14*
X81915000Y-92710000D03*
D20*
X74295000Y-125730000D03*
X81915000Y-95250000D03*
X74295000Y-123190000D03*
X81915000Y-97790000D03*
X74295000Y-120650000D03*
X81915000Y-100330000D03*
X74295000Y-118110000D03*
X81915000Y-102870000D03*
X74295000Y-115570000D03*
X81915000Y-105410000D03*
X74295000Y-113030000D03*
X81915000Y-107950000D03*
X74295000Y-110490000D03*
X81915000Y-110490000D03*
X74295000Y-107950000D03*
X81915000Y-113030000D03*
X74295000Y-105410000D03*
X81915000Y-115570000D03*
X74295000Y-102870000D03*
X81915000Y-118110000D03*
X74295000Y-100330000D03*
X81915000Y-120650000D03*
X74295000Y-97790000D03*
X81915000Y-123190000D03*
X74295000Y-95250000D03*
X81915000Y-125730000D03*
X74295000Y-92710000D03*
D14*
X305435000Y-127000000D03*
D20*
X313055000Y-93980000D03*
X305435000Y-124460000D03*
X313055000Y-96520000D03*
X305435000Y-121920000D03*
X313055000Y-99060000D03*
X305435000Y-119380000D03*
X313055000Y-101600000D03*
X305435000Y-116840000D03*
X313055000Y-104140000D03*
X305435000Y-114300000D03*
X313055000Y-106680000D03*
X305435000Y-111760000D03*
X313055000Y-109220000D03*
X305435000Y-109220000D03*
X313055000Y-111760000D03*
X305435000Y-106680000D03*
X313055000Y-114300000D03*
X305435000Y-104140000D03*
X313055000Y-116840000D03*
X305435000Y-101600000D03*
X313055000Y-119380000D03*
X305435000Y-99060000D03*
X313055000Y-121920000D03*
X305435000Y-96520000D03*
X313055000Y-124460000D03*
X305435000Y-93980000D03*
X313055000Y-127000000D03*
D21*
X135255000Y-90805000D03*
D22*
X132715000Y-90805000D03*
X130175000Y-90805000D03*
X127635000Y-90805000D03*
X125095000Y-90805000D03*
X122555000Y-90805000D03*
D14*
X182245000Y-85090000D03*
D20*
X210185000Y-92710000D03*
X184785000Y-85090000D03*
X207645000Y-92710000D03*
X187325000Y-85090000D03*
X205105000Y-92710000D03*
X189865000Y-85090000D03*
X202565000Y-92710000D03*
X192405000Y-85090000D03*
X200025000Y-92710000D03*
X194945000Y-85090000D03*
X197485000Y-92710000D03*
X197485000Y-85090000D03*
X194945000Y-92710000D03*
X200025000Y-85090000D03*
X192405000Y-92710000D03*
X202565000Y-85090000D03*
X189865000Y-92710000D03*
X205105000Y-85090000D03*
X187325000Y-92710000D03*
X207645000Y-85090000D03*
X184785000Y-92710000D03*
X210185000Y-85090000D03*
X182245000Y-92710000D03*
D23*
X107315000Y-86415000D03*
X107315000Y-81915000D03*
X113815000Y-86415000D03*
X113815000Y-81915000D03*
X88265000Y-86415000D03*
X88265000Y-81915000D03*
X94765000Y-86415000D03*
X94765000Y-81915000D03*
X126365000Y-86415000D03*
X126365000Y-81915000D03*
X132865000Y-86415000D03*
X132865000Y-81915000D03*
D14*
X140970000Y-81280000D03*
D20*
X163830000Y-88900000D03*
X143510000Y-81280000D03*
X161290000Y-88900000D03*
X146050000Y-81280000D03*
X158750000Y-88900000D03*
X148590000Y-81280000D03*
X156210000Y-88900000D03*
X151130000Y-81280000D03*
X153670000Y-88900000D03*
X153670000Y-81280000D03*
X151130000Y-88900000D03*
X156210000Y-81280000D03*
X148590000Y-88900000D03*
X158750000Y-81280000D03*
X146050000Y-88900000D03*
X161290000Y-81280000D03*
X143510000Y-88900000D03*
X163830000Y-81280000D03*
X140970000Y-88900000D03*
D24*
X76505000Y-64930000D03*
X79705000Y-64930000D03*
X76505000Y-59530000D03*
X79705000Y-59530000D03*
X154864000Y-73820000D03*
X158064000Y-73820000D03*
X154864000Y-68420000D03*
X158064000Y-68420000D03*
X151816000Y-63660000D03*
X155016000Y-63660000D03*
X151816000Y-58260000D03*
X155016000Y-58260000D03*
X149022000Y-73820000D03*
X152222000Y-73820000D03*
X149022000Y-68420000D03*
X152222000Y-68420000D03*
X145974000Y-63660000D03*
X149174000Y-63660000D03*
X145974000Y-58260000D03*
X149174000Y-58260000D03*
X143180000Y-73820000D03*
X146380000Y-73820000D03*
X143180000Y-68420000D03*
X146380000Y-68420000D03*
X140132000Y-63660000D03*
X143332000Y-63660000D03*
X140132000Y-58260000D03*
X143332000Y-58260000D03*
X137338000Y-73820000D03*
X140538000Y-73820000D03*
X137338000Y-68420000D03*
X140538000Y-68420000D03*
X131496000Y-73820000D03*
X134696000Y-73820000D03*
X131496000Y-68420000D03*
X134696000Y-68420000D03*
X128448000Y-63660000D03*
X131648000Y-63660000D03*
X128448000Y-58260000D03*
X131648000Y-58260000D03*
X125654000Y-73820000D03*
X128854000Y-73820000D03*
X125654000Y-68420000D03*
X128854000Y-68420000D03*
X122606000Y-63660000D03*
X125806000Y-63660000D03*
X122606000Y-58260000D03*
X125806000Y-58260000D03*
X119812000Y-73820000D03*
X123012000Y-73820000D03*
X119812000Y-68420000D03*
X123012000Y-68420000D03*
D17*
X93940000Y-57270000D03*
X88940000Y-57270000D03*
X91440000Y-57270000D03*
X88940000Y-71770000D03*
X93940000Y-71770000D03*
D25*
X85240000Y-64770000D03*
X97640000Y-64770000D03*
D17*
X112990000Y-57270000D03*
X107990000Y-57270000D03*
X110490000Y-57270000D03*
X107990000Y-71770000D03*
X112990000Y-71770000D03*
D25*
X104290000Y-64770000D03*
X116690000Y-64770000D03*
D17*
X170140000Y-57270000D03*
X165140000Y-57270000D03*
X167640000Y-57270000D03*
X165140000Y-71770000D03*
X170140000Y-71770000D03*
D25*
X161440000Y-64770000D03*
X173840000Y-64770000D03*
D21*
X229235000Y-128905000D03*
D22*
X226695000Y-128905000D03*
X224155000Y-128905000D03*
X221615000Y-128905000D03*
X219075000Y-128905000D03*
X216535000Y-128905000D03*
D26*
X193040000Y-79375000D03*
D27*
X195040000Y-79375000D03*
X197040000Y-79375000D03*
X199040000Y-79375000D03*
D26*
X177165000Y-79375000D03*
D27*
X179165000Y-79375000D03*
X181165000Y-79375000D03*
X183165000Y-79375000D03*
D23*
X219710000Y-125150000D03*
X219710000Y-120650000D03*
X226210000Y-125150000D03*
X226210000Y-120650000D03*
D28*
X100965000Y-76835000D03*
D29*
X102990000Y-76835000D03*
X102396891Y-78266891D03*
X100965000Y-78860000D03*
X99533109Y-78266891D03*
X98940000Y-76835000D03*
X99533109Y-75403109D03*
X100965000Y-74810000D03*
X102396891Y-75403109D03*
D28*
X167640000Y-76835000D03*
D29*
X169665000Y-76835000D03*
X169071891Y-78266891D03*
X167640000Y-78860000D03*
X166208109Y-78266891D03*
X165615000Y-76835000D03*
X166208109Y-75403109D03*
X167640000Y-74810000D03*
X169071891Y-75403109D03*
D28*
X222250000Y-110490000D03*
D29*
X224275000Y-110490000D03*
X223681891Y-111921891D03*
X222250000Y-112515000D03*
X220818109Y-111921891D03*
X220225000Y-110490000D03*
X220818109Y-109058109D03*
X222250000Y-108465000D03*
X223681891Y-109058109D03*
D28*
X196215000Y-112395000D03*
D29*
X198240000Y-112395000D03*
X197646891Y-113826891D03*
X196215000Y-114420000D03*
X194783109Y-113826891D03*
X194190000Y-112395000D03*
X194783109Y-110963109D03*
X196215000Y-110370000D03*
X197646891Y-110963109D03*
D28*
X287655000Y-112395000D03*
D29*
X289680000Y-112395000D03*
X289086891Y-113826891D03*
X287655000Y-114420000D03*
X286223109Y-113826891D03*
X285630000Y-112395000D03*
X286223109Y-110963109D03*
X287655000Y-110370000D03*
X289086891Y-110963109D03*
D28*
X249555000Y-74295000D03*
D29*
X251580000Y-74295000D03*
X250986891Y-75726891D03*
X249555000Y-76320000D03*
X248123109Y-75726891D03*
X247530000Y-74295000D03*
X248123109Y-72863109D03*
X249555000Y-72270000D03*
X250986891Y-72863109D03*
D28*
X249555000Y-112395000D03*
D29*
X251580000Y-112395000D03*
X250986891Y-113826891D03*
X249555000Y-114420000D03*
X248123109Y-113826891D03*
X247530000Y-112395000D03*
X248123109Y-110963109D03*
X249555000Y-110370000D03*
X250986891Y-110963109D03*
D28*
X100965000Y-112395000D03*
D29*
X102990000Y-112395000D03*
X102396891Y-113826891D03*
X100965000Y-114420000D03*
X99533109Y-113826891D03*
X98940000Y-112395000D03*
X99533109Y-110963109D03*
X100965000Y-110370000D03*
X102396891Y-110963109D03*
D28*
X139065000Y-112395000D03*
D29*
X141090000Y-112395000D03*
X140496891Y-113826891D03*
X139065000Y-114420000D03*
X137633109Y-113826891D03*
X137040000Y-112395000D03*
X137633109Y-110963109D03*
X139065000Y-110370000D03*
X140496891Y-110963109D03*
D28*
X287655000Y-74295000D03*
D29*
X289680000Y-74295000D03*
X289086891Y-75726891D03*
X287655000Y-76320000D03*
X286223109Y-75726891D03*
X285630000Y-74295000D03*
X286223109Y-72863109D03*
X287655000Y-72270000D03*
X289086891Y-72863109D03*
D14*
X313055000Y-59055000D03*
D20*
X305435000Y-86995000D03*
X313055000Y-61595000D03*
X305435000Y-84455000D03*
X313055000Y-64135000D03*
X305435000Y-81915000D03*
X313055000Y-66675000D03*
X305435000Y-79375000D03*
X313055000Y-69215000D03*
X305435000Y-76835000D03*
X313055000Y-71755000D03*
X305435000Y-74295000D03*
X313055000Y-74295000D03*
X305435000Y-71755000D03*
X313055000Y-76835000D03*
X305435000Y-69215000D03*
X313055000Y-79375000D03*
X305435000Y-66675000D03*
X313055000Y-81915000D03*
X305435000Y-64135000D03*
X313055000Y-84455000D03*
X305435000Y-61595000D03*
X313055000Y-86995000D03*
X305435000Y-59055000D03*
D30*
X92710000Y-116205000D03*
X87630000Y-116205000D03*
D31*
X90170000Y-116205000D03*
D30*
X95250000Y-116205000D03*
X111760000Y-116205000D03*
X106680000Y-116205000D03*
D31*
X109220000Y-116205000D03*
D30*
X114300000Y-116205000D03*
X130810000Y-116205000D03*
X125730000Y-116205000D03*
D31*
X128270000Y-116205000D03*
D30*
X133350000Y-116205000D03*
X149860000Y-116205000D03*
X144780000Y-116205000D03*
D31*
X147320000Y-116205000D03*
D30*
X152400000Y-116205000D03*
X168910000Y-116205000D03*
X163830000Y-116205000D03*
D31*
X166370000Y-116205000D03*
D30*
X171450000Y-116205000D03*
X187960000Y-116205000D03*
X182880000Y-116205000D03*
D31*
X185420000Y-116205000D03*
D30*
X190500000Y-116205000D03*
X207010000Y-116205000D03*
X201930000Y-116205000D03*
D31*
X204470000Y-116205000D03*
D30*
X209550000Y-116205000D03*
X92710000Y-97155000D03*
X87630000Y-97155000D03*
D31*
X90170000Y-97155000D03*
D30*
X95250000Y-97155000D03*
X111760000Y-97155000D03*
X106680000Y-97155000D03*
D31*
X109220000Y-97155000D03*
D30*
X114300000Y-97155000D03*
X130810000Y-97155000D03*
X125730000Y-97155000D03*
D31*
X128270000Y-97155000D03*
D30*
X133350000Y-97155000D03*
X149860000Y-97155000D03*
X144780000Y-97155000D03*
D31*
X147320000Y-97155000D03*
D30*
X152400000Y-97155000D03*
X168910000Y-97155000D03*
X163830000Y-97155000D03*
D31*
X166370000Y-97155000D03*
D30*
X171450000Y-97155000D03*
X187960000Y-97155000D03*
X182880000Y-97155000D03*
D31*
X185420000Y-97155000D03*
D30*
X190500000Y-97155000D03*
X207010000Y-97155000D03*
X201930000Y-97155000D03*
D31*
X204470000Y-97155000D03*
D30*
X209550000Y-97155000D03*
X187960000Y-59055000D03*
X182880000Y-59055000D03*
D31*
X185420000Y-59055000D03*
D30*
X190500000Y-59055000D03*
X207010000Y-59055000D03*
X201930000Y-59055000D03*
D31*
X204470000Y-59055000D03*
D30*
X209550000Y-59055000D03*
X241300000Y-116205000D03*
X236220000Y-116205000D03*
D31*
X238760000Y-116205000D03*
D30*
X243840000Y-116205000D03*
X260350000Y-116205000D03*
X255270000Y-116205000D03*
D31*
X257810000Y-116205000D03*
D30*
X262890000Y-116205000D03*
X279400000Y-116840000D03*
X274320000Y-116840000D03*
D31*
X276860000Y-116840000D03*
D30*
X281940000Y-116840000D03*
X298450000Y-116205000D03*
X293370000Y-116205000D03*
D31*
X295910000Y-116205000D03*
D30*
X300990000Y-116205000D03*
X241300000Y-97155000D03*
X236220000Y-97155000D03*
D31*
X238760000Y-97155000D03*
D30*
X243840000Y-97155000D03*
X260350000Y-97155000D03*
X255270000Y-97155000D03*
D31*
X257810000Y-97155000D03*
D30*
X262890000Y-97155000D03*
X279400000Y-97155000D03*
X274320000Y-97155000D03*
D31*
X276860000Y-97155000D03*
D30*
X281940000Y-97155000D03*
X298450000Y-97155000D03*
X293370000Y-97155000D03*
D31*
X295910000Y-97155000D03*
D30*
X300990000Y-97155000D03*
X241300000Y-78105000D03*
X236220000Y-78105000D03*
D31*
X238760000Y-78105000D03*
D30*
X243840000Y-78105000D03*
X260350000Y-78105000D03*
X255270000Y-78105000D03*
D31*
X257810000Y-78105000D03*
D30*
X262890000Y-78105000D03*
X279400000Y-78105000D03*
X274320000Y-78105000D03*
D31*
X276860000Y-78105000D03*
D30*
X281940000Y-78105000D03*
X298450000Y-78105000D03*
X293370000Y-78105000D03*
D31*
X295910000Y-78105000D03*
D30*
X300990000Y-78105000D03*
X241300000Y-59055000D03*
X236220000Y-59055000D03*
D31*
X238760000Y-59055000D03*
D30*
X243840000Y-59055000D03*
X260350000Y-59055000D03*
X255270000Y-59055000D03*
D31*
X257810000Y-59055000D03*
D30*
X262890000Y-59055000D03*
X279400000Y-59055000D03*
X274320000Y-59055000D03*
D31*
X276860000Y-59055000D03*
D30*
X281940000Y-59055000D03*
X298450000Y-59055000D03*
X293370000Y-59055000D03*
D31*
X295910000Y-59055000D03*
D30*
X300990000Y-59055000D03*
D21*
X117475000Y-88265000D03*
D22*
X117475000Y-90805000D03*
D29*
X186861200Y-77182700D03*
X189633800Y-80524700D03*
X205214000Y-75165100D03*
X228156100Y-77608600D03*
X314895200Y-101600000D03*
X301102700Y-89915300D03*
X269361400Y-89103400D03*
X267189400Y-90751500D03*
X218533300Y-118052800D03*
X237352700Y-117266700D03*
X237496600Y-104557100D03*
X232964400Y-100545500D03*
X304431200Y-100474700D03*
X144780000Y-72370000D03*
X124206000Y-62210000D03*
X130048000Y-62210000D03*
X141732000Y-62210000D03*
X147574000Y-62210000D03*
X153416000Y-62210000D03*
X156464000Y-72370000D03*
X150622000Y-72370000D03*
X138938000Y-72370000D03*
X133096000Y-72370000D03*
X127254000Y-72370000D03*
X121412000Y-72370000D03*
X78105000Y-63480000D03*
X300736000Y-73025000D03*
X83040400Y-116356600D03*
X94279100Y-113501200D03*
X84652500Y-109627700D03*
X95130500Y-113544200D03*
X73333700Y-101351100D03*
X92549400Y-128294300D03*
X75263500Y-128928000D03*
X76050100Y-115283600D03*
X88214900Y-93929100D03*
X87349000Y-94813700D03*
X103662700Y-109900200D03*
X85668200Y-100737200D03*
X112051200Y-100549900D03*
X114980300Y-111426200D03*
X152687800Y-112586200D03*
X84260100Y-100524900D03*
X97398100Y-100264700D03*
X108075600Y-111426200D03*
X150822300Y-113178400D03*
X167464600Y-108792600D03*
X173627700Y-109164100D03*
X177032200Y-106704000D03*
X91069200Y-107911600D03*
X106995500Y-90779000D03*
X111481700Y-83919700D03*
X152895400Y-76192700D03*
X157401800Y-71109200D03*
X89384800Y-110490000D03*
X174451900Y-58816000D03*
X162271600Y-59716700D03*
X159372700Y-56817800D03*
X85047500Y-59551700D03*
X189740700Y-72483500D03*
X198998100Y-77925200D03*
X206997600Y-77782400D03*
X272691800Y-93127200D03*
X266173100Y-81136300D03*
X173363200Y-107773800D03*
X167326800Y-107484600D03*
X167252200Y-99074900D03*
X173673900Y-95126400D03*
X170306100Y-89471800D03*
X175133700Y-88212100D03*
X163982900Y-112893900D03*
X132854400Y-109532000D03*
X124723500Y-117974400D03*
X183314100Y-76551700D03*
X188409200Y-76551700D03*
X209262800Y-75565000D03*
X271861100Y-93173700D03*
X265097400Y-79785500D03*
X157629600Y-111139700D03*
X163744300Y-111260700D03*
X173005500Y-85589100D03*
X167145800Y-85589100D03*
X163272500Y-91329700D03*
X133525100Y-98993100D03*
X129875100Y-109852700D03*
X190937300Y-61152200D03*
X187889100Y-60567500D03*
X93210700Y-119136500D03*
X101809400Y-119086200D03*
X91728100Y-105739300D03*
X88957900Y-105739300D03*
X87053600Y-70549100D03*
X209678200Y-118252100D03*
X171361100Y-122292800D03*
X164824900Y-120514300D03*
X111836500Y-119100200D03*
X102998200Y-116985100D03*
X100737000Y-117115800D03*
X93126400Y-82184600D03*
X108827600Y-78845000D03*
X162746600Y-77913600D03*
X179666000Y-98232600D03*
X177437000Y-100137600D03*
X125806000Y-58260000D03*
X131648000Y-58260000D03*
X143332000Y-58260000D03*
X149174000Y-58260000D03*
X155016000Y-58260000D03*
X158064000Y-68420000D03*
X152222000Y-68420000D03*
X146380000Y-68420000D03*
X140538000Y-68420000D03*
X134696000Y-68420000D03*
X128854000Y-68420000D03*
X123012000Y-68420000D03*
X79705000Y-59530000D03*
X282658600Y-120430000D03*
X306325200Y-115745700D03*
X308844800Y-117633700D03*
X211032900Y-60249500D03*
X212123500Y-83561900D03*
X209246100Y-86990300D03*
X213995400Y-100353700D03*
X227501000Y-106035900D03*
X155517800Y-103591900D03*
X156795100Y-103931700D03*
X148727000Y-114648300D03*
X154142900Y-116313400D03*
X151151900Y-118169000D03*
X156613100Y-118834300D03*
X213220900Y-117821500D03*
X234385000Y-117427500D03*
X233732900Y-88668300D03*
X225629000Y-83292300D03*
X155056500Y-104557100D03*
X153204200Y-99119800D03*
X164444100Y-94892500D03*
X168959200Y-94744300D03*
X224742500Y-93040500D03*
X217445100Y-93388200D03*
X213531200Y-92718600D03*
X188445800Y-101033100D03*
X177361400Y-98495900D03*
X179935800Y-95921500D03*
X172139900Y-87987000D03*
X169307400Y-88436200D03*
X172009800Y-93713700D03*
X231810900Y-93669100D03*
X132596900Y-110383900D03*
X130108900Y-114679800D03*
X99131100Y-117137400D03*
X221901600Y-95707800D03*
X212945600Y-127063100D03*
X176603900Y-129064600D03*
X173651200Y-127052500D03*
X168194000Y-126826100D03*
X213440200Y-89689300D03*
X169855500Y-91172800D03*
X181437100Y-120028800D03*
X216788200Y-82352900D03*
X233609000Y-84534300D03*
X236143100Y-100527300D03*
X245495900Y-100359300D03*
X243728200Y-118095900D03*
X211660800Y-117167100D03*
X227412600Y-97008000D03*
X243149800Y-99673300D03*
X242981300Y-112830900D03*
X214481100Y-114918900D03*
X231901200Y-103729500D03*
X232629900Y-102037600D03*
X216582500Y-84560900D03*
X214066300Y-83927600D03*
X227221700Y-79023300D03*
X172020100Y-109759500D03*
X177067200Y-111494500D03*
X198350400Y-109005300D03*
X211679100Y-111951500D03*
X218810800Y-106778200D03*
X223215900Y-97679800D03*
X227360700Y-95689000D03*
X179078700Y-97665200D03*
X167276300Y-83207200D03*
X185106500Y-82048900D03*
X193433000Y-77065500D03*
X196300600Y-76070200D03*
X198899600Y-87656400D03*
X213441400Y-86758500D03*
X156647000Y-92498500D03*
X191028300Y-94063000D03*
X178450700Y-92433200D03*
X111243700Y-82886200D03*
X121012200Y-84248100D03*
X119761500Y-84393500D03*
X182326300Y-82715600D03*
X186393000Y-82715600D03*
X192154300Y-75303000D03*
X220107700Y-88457000D03*
X295704200Y-117642800D03*
X266483300Y-107950000D03*
X309185100Y-110630800D03*
X300146900Y-107295000D03*
X250946900Y-125493800D03*
X290308300Y-123469700D03*
X272594200Y-114965100D03*
X266479100Y-88936700D03*
X310909900Y-121920000D03*
X311690400Y-104508500D03*
X304347200Y-102870000D03*
X299944500Y-90456600D03*
X299358000Y-117387600D03*
X297824800Y-99195500D03*
X294684600Y-95303400D03*
X301014000Y-128318600D03*
X233669800Y-71488400D03*
X243298400Y-128468400D03*
X301398200Y-113349200D03*
X300577600Y-109514300D03*
X269766100Y-107125900D03*
X264436100Y-80504600D03*
X253870700Y-78928600D03*
X272505900Y-109506200D03*
X272555200Y-77510000D03*
X274408400Y-76234000D03*
X290233200Y-97596200D03*
X292405300Y-79956500D03*
X213841100Y-85090000D03*
X109542500Y-79349500D03*
X120896700Y-75943300D03*
X149523800Y-75943300D03*
X191106400Y-99332300D03*
X209375100Y-99624800D03*
X123343600Y-93324000D03*
X134456400Y-94318900D03*
X181632100Y-89892400D03*
X188756100Y-82043500D03*
X80869200Y-79885000D03*
X82249200Y-61706800D03*
X88555900Y-61706800D03*
X90459800Y-61669600D03*
X206854600Y-72945000D03*
X205459300Y-72236200D03*
X195953100Y-72236200D03*
X189741400Y-70404700D03*
X155615400Y-79885800D03*
X153569500Y-79566000D03*
X126129200Y-79566000D03*
X114103800Y-65527300D03*
X83681000Y-69120900D03*
X108754400Y-69120900D03*
X116931500Y-57447500D03*
X119848800Y-57118400D03*
X164581100Y-63098800D03*
X213831800Y-61062300D03*
X114151100Y-62219300D03*
X115579500Y-56676100D03*
X119714400Y-56300500D03*
X163634500Y-58577100D03*
X212059700Y-58844300D03*
X213401700Y-71755000D03*
X229096100Y-76018300D03*
X226274800Y-94613300D03*
X220527600Y-94948700D03*
X177284600Y-102006400D03*
X176895700Y-103383300D03*
X182968500Y-110862600D03*
X201349100Y-108462600D03*
X213911200Y-108093000D03*
X216580800Y-106371900D03*
X209648700Y-88337800D03*
X238125300Y-67306200D03*
X87053600Y-67112700D03*
X117476100Y-67286800D03*
X118207900Y-59323600D03*
X119347500Y-58019200D03*
X111138500Y-88015000D03*
X112126500Y-83294400D03*
X151037700Y-78151600D03*
X162384400Y-83832500D03*
X185428000Y-83493200D03*
X192955900Y-74635500D03*
X83017100Y-69807900D03*
X152095000Y-76192700D03*
X159091100Y-74585000D03*
X188883300Y-68715900D03*
X185874500Y-70140900D03*
X173950700Y-103810100D03*
X169611100Y-84197200D03*
X138408800Y-106432100D03*
X173950700Y-106848500D03*
X187674300Y-94815100D03*
X185289400Y-56803300D03*
X203102500Y-86697600D03*
X177744700Y-103719300D03*
X181467600Y-99188700D03*
X174537200Y-94110200D03*
X169848400Y-94637200D03*
X158576900Y-95951700D03*
X171694100Y-59752600D03*
X172412600Y-101276800D03*
X104784300Y-114521100D03*
X173420300Y-88962400D03*
X187599400Y-88177500D03*
X212748900Y-82859700D03*
X206051800Y-88697600D03*
X163073000Y-99016500D03*
X121788800Y-101665900D03*
X177619700Y-118882100D03*
X170913500Y-119397600D03*
X166886200Y-95131200D03*
X207367000Y-100723800D03*
X191052600Y-101659000D03*
X206391300Y-109136400D03*
X207067600Y-112217700D03*
X199070900Y-114360100D03*
X198747800Y-115620700D03*
X183926700Y-117366800D03*
X208391400Y-74020600D03*
X193668200Y-75055200D03*
X188595000Y-90131700D03*
X163390700Y-117606500D03*
X170283900Y-98953000D03*
X209081600Y-83485000D03*
X161831600Y-98150700D03*
X115658000Y-99677400D03*
X161868100Y-99430000D03*
X116934800Y-112045300D03*
X201060300Y-98707000D03*
X178426700Y-104401100D03*
X187214200Y-114303700D03*
X173229000Y-60185000D03*
X111617300Y-113408200D03*
X132051600Y-113702600D03*
X150874700Y-95998400D03*
X157884000Y-95315400D03*
X159872700Y-93114700D03*
X166315500Y-109104800D03*
X180554000Y-107818400D03*
X185573300Y-108983700D03*
X206309800Y-106180000D03*
X193251400Y-115029200D03*
X177402000Y-113584400D03*
X186234900Y-113495900D03*
X185987700Y-107725000D03*
X188652500Y-106733100D03*
X189214000Y-103721900D03*
X196793000Y-104049900D03*
X201761900Y-109840000D03*
X190148200Y-100291100D03*
X191565800Y-100004800D03*
X179832000Y-86995000D03*
X137942900Y-70957500D03*
X228947700Y-61729100D03*
X129390800Y-89629600D03*
X136666400Y-70627200D03*
X149529200Y-83167700D03*
X164565200Y-91168800D03*
X193530400Y-93477600D03*
X192864100Y-95670400D03*
X205422900Y-95670400D03*
X213054000Y-104634100D03*
X225874500Y-99024600D03*
X226215300Y-96314300D03*
X218804500Y-82175100D03*
X207799400Y-79230400D03*
X200988600Y-70019100D03*
X192285500Y-70019100D03*
X188931300Y-70301900D03*
X155629800Y-77718700D03*
X141738800Y-75145300D03*
X122199100Y-67012500D03*
X126117600Y-65183700D03*
X119735600Y-60188000D03*
X126675800Y-74158100D03*
X119015400Y-59512200D03*
X133162500Y-74158100D03*
X131578000Y-70624000D03*
X138446600Y-74408700D03*
X156088600Y-60035600D03*
X153543000Y-69095200D03*
X147545600Y-71120000D03*
X145477400Y-75145300D03*
X153416000Y-58426600D03*
X147701000Y-69076000D03*
X146704700Y-70629400D03*
X151190500Y-75145300D03*
X156040000Y-57271600D03*
X158493700Y-72274100D03*
X154130900Y-70658200D03*
X151294600Y-76192700D03*
X231997500Y-102543300D03*
X261872600Y-114706100D03*
X271143200Y-71884000D03*
X298955700Y-68374800D03*
X300118900Y-63116600D03*
X301295900Y-114335900D03*
X297780100Y-80226300D03*
X294083900Y-91982600D03*
X269388200Y-91532900D03*
X266008000Y-95347900D03*
X295795300Y-79601000D03*
X264739800Y-68849900D03*
X298967200Y-62305400D03*
X302955900Y-70499100D03*
X306797800Y-74188700D03*
X232222900Y-65614200D03*
X274977300Y-80297700D03*
X269373800Y-119468000D03*
X273310900Y-56254600D03*
X264698100Y-98698600D03*
X303631100Y-95425700D03*
X280640600Y-68393400D03*
X281845200Y-69911600D03*
X241953800Y-79991200D03*
X242780800Y-98863400D03*
X284446200Y-98863400D03*
X263547900Y-80415500D03*
X259756700Y-69663100D03*
X261588000Y-68421200D03*
X228476900Y-63095100D03*
X267805200Y-93711000D03*
X304072300Y-67895000D03*
X287422300Y-61609000D03*
X260731700Y-68232400D03*
X258882800Y-69224800D03*
X256441500Y-98712100D03*
X313463000Y-57379300D03*
X269967800Y-90950500D03*
X265423700Y-93324900D03*
X269802400Y-94348100D03*
X267800200Y-94540800D03*
D32*
X183776600Y-77182700D02*
X186861200Y-77182700D01*
X182090300Y-78869000D02*
X183776600Y-77182700D01*
X182090300Y-79375000D02*
X182090300Y-78869000D01*
X196114700Y-79929300D02*
X196114700Y-79375000D01*
X195484700Y-80559300D02*
X196114700Y-79929300D01*
X189668400Y-80559300D02*
X195484700Y-80559300D01*
X189633800Y-80524700D02*
X189668400Y-80559300D01*
X181165000Y-79375000D02*
X182090300Y-79375000D01*
X197040000Y-79375000D02*
X196660100Y-79375000D01*
X196660100Y-79375000D02*
X196114700Y-79375000D01*
X200870000Y-75165100D02*
X205214000Y-75165100D01*
X196660100Y-79375000D02*
X200870000Y-75165100D01*
X313055000Y-101600000D02*
X314895200Y-101600000D01*
X271164900Y-90906900D02*
X269361400Y-89103400D01*
X296883000Y-90906900D02*
X271164900Y-90906900D01*
X297058600Y-91082500D02*
X296883000Y-90906900D01*
X300222200Y-91082500D02*
X297058600Y-91082500D01*
X301102700Y-90202000D02*
X300222200Y-91082500D01*
X301102700Y-89915300D02*
X301102700Y-90202000D01*
X227449800Y-76902300D02*
X228156100Y-77608600D01*
X206951200Y-76902300D02*
X227449800Y-76902300D01*
X205214000Y-75165100D02*
X206951200Y-76902300D01*
X313055000Y-101600000D02*
X311929700Y-101600000D01*
X310804400Y-100474700D02*
X311929700Y-101600000D01*
X304431200Y-100474700D02*
X310804400Y-100474700D01*
X237496600Y-103697600D02*
X237496600Y-104557100D01*
X234344500Y-100545500D02*
X237496600Y-103697600D01*
X232964400Y-100545500D02*
X234344500Y-100545500D01*
X233098500Y-90751500D02*
X267189400Y-90751500D01*
X230505000Y-93345000D02*
X233098500Y-90751500D01*
X236566600Y-118052800D02*
X218533300Y-118052800D01*
X237352700Y-117266700D02*
X236566600Y-118052800D01*
D33*
X224135000Y-104755000D02*
X222885000Y-103505000D01*
X230993000Y-104755000D02*
X224135000Y-104755000D01*
X231648000Y-105410000D02*
X230993000Y-104755000D01*
X243840000Y-105410000D02*
X231648000Y-105410000D01*
X76505000Y-65430000D02*
X76505000Y-64930000D01*
X82845000Y-71770000D02*
X76505000Y-65430000D01*
X88940000Y-71770000D02*
X82845000Y-71770000D01*
X122555000Y-90805000D02*
X122555000Y-105410000D01*
X113815000Y-86415000D02*
X122555000Y-86415000D01*
X110490000Y-86415000D02*
X113815000Y-86415000D01*
X91440000Y-86415000D02*
X88265000Y-86415000D01*
X213233000Y-95377000D02*
X215265000Y-93345000D01*
X213233000Y-103343000D02*
X213233000Y-95377000D01*
X211166000Y-105410000D02*
X213233000Y-103343000D01*
X209550000Y-105410000D02*
X211166000Y-105410000D01*
X190500000Y-76835000D02*
X186055000Y-81280000D01*
X190500000Y-67310000D02*
X190500000Y-76835000D01*
X190500000Y-67310000D02*
X209550000Y-67310000D01*
X199040000Y-79625000D02*
X199040000Y-79375000D01*
X197385000Y-81280000D02*
X199040000Y-79625000D01*
X186055000Y-81280000D02*
X197385000Y-81280000D01*
X183134000Y-80756000D02*
X183134000Y-81280000D01*
X183165000Y-80725000D02*
X183134000Y-80756000D01*
X183165000Y-79375000D02*
X183165000Y-80725000D01*
X189865000Y-85090000D02*
X186055000Y-81280000D01*
X197580000Y-105378000D02*
X197612000Y-105410000D01*
X197580000Y-102235000D02*
X197580000Y-105378000D01*
X154920000Y-85110000D02*
X154813000Y-85217000D01*
X154920000Y-80680000D02*
X154920000Y-85110000D01*
X154864000Y-80624000D02*
X154920000Y-80680000D01*
X154864000Y-73820000D02*
X154864000Y-80624000D01*
X124206000Y-62210000D02*
X124206000Y-72370000D01*
X147574000Y-62210000D02*
X153416000Y-62210000D01*
X141732000Y-62210000D02*
X147574000Y-62210000D01*
X130048000Y-62210000D02*
X141732000Y-62210000D01*
X124206000Y-62210000D02*
X130048000Y-62210000D01*
X133096000Y-72370000D02*
X127254000Y-72370000D01*
X138938000Y-72370000D02*
X133096000Y-72370000D01*
X144780000Y-72370000D02*
X138938000Y-72370000D01*
X150622000Y-72370000D02*
X144780000Y-72370000D01*
X143330000Y-73820000D02*
X144780000Y-72370000D01*
X143180000Y-73820000D02*
X143330000Y-73820000D01*
X156464000Y-72370000D02*
X150622000Y-72370000D01*
X126365000Y-86415000D02*
X132865000Y-86415000D01*
X94765000Y-86415000D02*
X107315000Y-86415000D01*
X122756000Y-63660000D02*
X124206000Y-62210000D01*
X122606000Y-63660000D02*
X122756000Y-63660000D01*
X128598000Y-63660000D02*
X130048000Y-62210000D01*
X128448000Y-63660000D02*
X128598000Y-63660000D01*
X140282000Y-63660000D02*
X141732000Y-62210000D01*
X140132000Y-63660000D02*
X140282000Y-63660000D01*
X146124000Y-63660000D02*
X147574000Y-62210000D01*
X145974000Y-63660000D02*
X146124000Y-63660000D01*
X151966000Y-63660000D02*
X153416000Y-62210000D01*
X151816000Y-63660000D02*
X151966000Y-63660000D01*
X155014000Y-73820000D02*
X156464000Y-72370000D01*
X154864000Y-73820000D02*
X155014000Y-73820000D01*
X149172000Y-73820000D02*
X150622000Y-72370000D01*
X149022000Y-73820000D02*
X149172000Y-73820000D01*
X137488000Y-73820000D02*
X138938000Y-72370000D01*
X137338000Y-73820000D02*
X137488000Y-73820000D01*
X131646000Y-73820000D02*
X133096000Y-72370000D01*
X131496000Y-73820000D02*
X131646000Y-73820000D01*
X125804000Y-73820000D02*
X127254000Y-72370000D01*
X125654000Y-73820000D02*
X125804000Y-73820000D01*
X119962000Y-73820000D02*
X121412000Y-72370000D01*
X119812000Y-73820000D02*
X119962000Y-73820000D01*
X76655000Y-64930000D02*
X78105000Y-63480000D01*
X76505000Y-64930000D02*
X76655000Y-64930000D01*
X209550000Y-122844000D02*
X209550000Y-124460000D01*
X209519000Y-122813000D02*
X209550000Y-122844000D01*
X209519000Y-121296000D02*
X209519000Y-122813000D01*
X210900000Y-119915000D02*
X209519000Y-121296000D01*
X210900000Y-106760000D02*
X210900000Y-119915000D01*
X209550000Y-105410000D02*
X210900000Y-106760000D01*
X243150000Y-125150000D02*
X243840000Y-124460000D01*
X226210000Y-125150000D02*
X243150000Y-125150000D01*
X219710000Y-125150000D02*
X226210000Y-125150000D01*
X219020000Y-124460000D02*
X219710000Y-125150000D01*
X209550000Y-124460000D02*
X219020000Y-124460000D01*
X171450000Y-105410000D02*
X190500000Y-105410000D01*
X152400000Y-105410000D02*
X171450000Y-105410000D01*
X133350000Y-105410000D02*
X152400000Y-105410000D01*
X95250000Y-105410000D02*
X114300000Y-105410000D01*
X114300000Y-124460000D02*
X95250000Y-124460000D01*
X133350000Y-124460000D02*
X114300000Y-124460000D01*
X152400000Y-124460000D02*
X133350000Y-124460000D01*
X153650000Y-125710000D02*
X152400000Y-124460000D01*
X164032000Y-125710000D02*
X153650000Y-125710000D01*
X165282000Y-124460000D02*
X164032000Y-125710000D01*
X171450000Y-124460000D02*
X165282000Y-124460000D01*
X172700000Y-125710000D02*
X171450000Y-124460000D01*
X183082000Y-125710000D02*
X172700000Y-125710000D01*
X184332000Y-124460000D02*
X183082000Y-125710000D01*
X190500000Y-124460000D02*
X184332000Y-124460000D01*
X209550000Y-124460000D02*
X190500000Y-124460000D01*
X268605000Y-105410000D02*
X268605000Y-124460000D01*
X268605000Y-86360000D02*
X268605000Y-105410000D01*
X268605000Y-67310000D02*
X262890000Y-67310000D01*
X281940000Y-124460000D02*
X300990000Y-124460000D01*
X243840000Y-124460000D02*
X262890000Y-124460000D01*
X281940000Y-105410000D02*
X300990000Y-105410000D01*
X243840000Y-105410000D02*
X262890000Y-105410000D01*
X281940000Y-86360000D02*
X300990000Y-86360000D01*
X243840000Y-86360000D02*
X262890000Y-86360000D01*
X262890000Y-67310000D02*
X243840000Y-67310000D01*
X300990000Y-67310000D02*
X281940000Y-67310000D01*
X300736000Y-67564000D02*
X300990000Y-67310000D01*
X300736000Y-73025000D02*
X300736000Y-67564000D01*
X127254000Y-72370000D02*
X124206000Y-72370000D01*
X124206000Y-72370000D02*
X121412000Y-72370000D01*
X262890000Y-105410000D02*
X268605000Y-105410000D01*
X268605000Y-105410000D02*
X281940000Y-105410000D01*
X262890000Y-86360000D02*
X268605000Y-86360000D01*
X268605000Y-86360000D02*
X281940000Y-86360000D01*
X281940000Y-67310000D02*
X268605000Y-67310000D01*
X268605000Y-67310000D02*
X268605000Y-86360000D01*
X262890000Y-124460000D02*
X268605000Y-124460000D01*
X268605000Y-124460000D02*
X281940000Y-124460000D01*
X107315000Y-86415000D02*
X110490000Y-86415000D01*
X110490000Y-74270000D02*
X107990000Y-71770000D01*
X110490000Y-86415000D02*
X110490000Y-74270000D01*
X147193000Y-85217000D02*
X154813000Y-85217000D01*
X143510000Y-88900000D02*
X147193000Y-85217000D01*
X159893000Y-85217000D02*
X163830000Y-81280000D01*
X154813000Y-85217000D02*
X159893000Y-85217000D01*
X190500000Y-105410000D02*
X197612000Y-105410000D01*
X197612000Y-105410000D02*
X209550000Y-105410000D01*
X186055000Y-81280000D02*
X183134000Y-81280000D01*
X183134000Y-81280000D02*
X163830000Y-81280000D01*
X94765000Y-86415000D02*
X91440000Y-86415000D01*
X91440000Y-74270000D02*
X88940000Y-71770000D01*
X91440000Y-86415000D02*
X91440000Y-74270000D01*
X122555000Y-90805000D02*
X122555000Y-86415000D01*
X122555000Y-86415000D02*
X126365000Y-86415000D01*
X114300000Y-105410000D02*
X122555000Y-105410000D01*
X122555000Y-105410000D02*
X133350000Y-105410000D01*
D32*
X165018800Y-71648800D02*
X165140000Y-71770000D01*
X157746600Y-71648800D02*
X165018800Y-71648800D01*
X157025400Y-72370000D02*
X157746600Y-71648800D01*
X156464000Y-72370000D02*
X157025400Y-72370000D01*
X83040400Y-115066800D02*
X83040400Y-116356600D01*
X82129000Y-114155400D02*
X83040400Y-115066800D01*
X79085700Y-114155400D02*
X82129000Y-114155400D01*
X75420300Y-110490000D02*
X79085700Y-114155400D01*
X74295000Y-110490000D02*
X75420300Y-110490000D01*
X92441800Y-111663900D02*
X94279100Y-113501200D01*
X79134200Y-111663900D02*
X92441800Y-111663900D01*
X75420300Y-107950000D02*
X79134200Y-111663900D01*
X74295000Y-107950000D02*
X75420300Y-107950000D01*
X95130500Y-113433700D02*
X95130500Y-113544200D01*
X91324500Y-109627700D02*
X95130500Y-113433700D01*
X84652500Y-109627700D02*
X91324500Y-109627700D01*
X73727300Y-101744700D02*
X73333700Y-101351100D01*
X74295000Y-101744700D02*
X73727300Y-101744700D01*
X74295000Y-102870000D02*
X74295000Y-101744700D01*
X144572300Y-128477700D02*
X146050000Y-127000000D01*
X92732800Y-128477700D02*
X144572300Y-128477700D01*
X92549400Y-128294300D02*
X92732800Y-128477700D01*
X152130600Y-128928000D02*
X75263500Y-128928000D01*
X152666700Y-128391900D02*
X152130600Y-128928000D01*
X162626500Y-128391900D02*
X152666700Y-128391900D01*
X162712300Y-128477700D02*
X162626500Y-128391900D01*
X169989600Y-128477700D02*
X162712300Y-128477700D01*
X170197300Y-128270000D02*
X169989600Y-128477700D01*
X182880000Y-128270000D02*
X170197300Y-128270000D01*
X184150000Y-127000000D02*
X182880000Y-128270000D01*
X199495400Y-130704600D02*
X203200000Y-127000000D01*
X76093600Y-130704600D02*
X199495400Y-130704600D01*
X74606600Y-129217600D02*
X76093600Y-130704600D01*
X74606600Y-128099900D02*
X74606600Y-129217600D01*
X76050100Y-126656400D02*
X74606600Y-128099900D01*
X76050100Y-115283600D02*
X76050100Y-126656400D01*
X84259400Y-93929100D02*
X88214900Y-93929100D01*
X83040300Y-92710000D02*
X84259400Y-93929100D01*
X81915000Y-92710000D02*
X83040300Y-92710000D01*
X81915000Y-95250000D02*
X81915000Y-96375300D01*
X81633700Y-96375300D02*
X81915000Y-96375300D01*
X80789600Y-97219400D02*
X81633700Y-96375300D01*
X80789600Y-108481800D02*
X80789600Y-97219400D01*
X81441000Y-109133200D02*
X80789600Y-108481800D01*
X83420600Y-109133200D02*
X81441000Y-109133200D01*
X86094900Y-106458900D02*
X83420600Y-109133200D01*
X91485200Y-106458900D02*
X86094900Y-106458900D01*
X91935200Y-106908900D02*
X91485200Y-106458900D01*
X104190500Y-106908900D02*
X91935200Y-106908900D01*
X106731500Y-109449900D02*
X104190500Y-106908900D01*
X114138200Y-109449900D02*
X106731500Y-109449900D01*
X115638100Y-107950000D02*
X114138200Y-109449900D01*
X127000000Y-107950000D02*
X115638100Y-107950000D01*
X86016600Y-94813700D02*
X87349000Y-94813700D01*
X83040300Y-97790000D02*
X86016600Y-94813700D01*
X81915000Y-97790000D02*
X83040300Y-97790000D01*
X114550100Y-109900200D02*
X103662700Y-109900200D01*
X115000400Y-109449900D02*
X114550100Y-109900200D01*
X128164000Y-109449900D02*
X115000400Y-109449900D01*
X130069400Y-107544500D02*
X128164000Y-109449900D01*
X145644500Y-107544500D02*
X130069400Y-107544500D01*
X146050000Y-107950000D02*
X145644500Y-107544500D01*
X85880500Y-100524900D02*
X85668200Y-100737200D01*
X93308900Y-100524900D02*
X85880500Y-100524900D01*
X93727500Y-100943500D02*
X93308900Y-100524900D01*
X108228400Y-100943500D02*
X93727500Y-100943500D01*
X108622000Y-100549900D02*
X108228400Y-100943500D01*
X112051200Y-100549900D02*
X108622000Y-100549900D01*
X152654600Y-112553000D02*
X152687800Y-112586200D01*
X143259100Y-112553000D02*
X152654600Y-112553000D01*
X140391700Y-115420400D02*
X143259100Y-112553000D01*
X136881000Y-115420400D02*
X140391700Y-115420400D01*
X132469800Y-111009200D02*
X136881000Y-115420400D01*
X132337900Y-111009200D02*
X132469800Y-111009200D01*
X132298300Y-110969600D02*
X132337900Y-111009200D01*
X115436900Y-110969600D02*
X132298300Y-110969600D01*
X114980300Y-111426200D02*
X115436900Y-110969600D01*
X97208000Y-100074600D02*
X97398100Y-100264700D01*
X84710400Y-100074600D02*
X97208000Y-100074600D01*
X84260100Y-100524900D02*
X84710400Y-100074600D01*
X182904000Y-106704000D02*
X177032200Y-106704000D01*
X184150000Y-107950000D02*
X182904000Y-106704000D01*
X167647100Y-108975100D02*
X167464600Y-108792600D01*
X173438700Y-108975100D02*
X167647100Y-108975100D01*
X173627700Y-109164100D02*
X173438700Y-108975100D01*
X143827700Y-113178400D02*
X150822300Y-113178400D01*
X141135400Y-115870700D02*
X143827700Y-113178400D01*
X136694400Y-115870700D02*
X141135400Y-115870700D01*
X132283200Y-111459500D02*
X136694400Y-115870700D01*
X132151300Y-111459500D02*
X132283200Y-111459500D01*
X132111800Y-111420000D02*
X132151300Y-111459500D01*
X115870900Y-111420000D02*
X132111800Y-111420000D01*
X115239400Y-112051500D02*
X115870900Y-111420000D01*
X108700900Y-112051500D02*
X115239400Y-112051500D01*
X108075600Y-111426200D02*
X108700900Y-112051500D01*
X100775200Y-107911600D02*
X91069200Y-107911600D01*
X103445000Y-110581400D02*
X100775200Y-107911600D01*
X105038200Y-110581400D02*
X103445000Y-110581400D01*
X105269100Y-110350500D02*
X105038200Y-110581400D01*
X114736700Y-110350500D02*
X105269100Y-110350500D01*
X115018200Y-110069000D02*
X114736700Y-110350500D01*
X128647100Y-110069000D02*
X115018200Y-110069000D01*
X130721300Y-107994800D02*
X128647100Y-110069000D01*
X141858500Y-107994800D02*
X130721300Y-107994800D01*
X144276000Y-110412300D02*
X141858500Y-107994800D01*
X175788900Y-110412300D02*
X144276000Y-110412300D01*
X176070100Y-110131100D02*
X175788900Y-110412300D01*
X189159000Y-110131100D02*
X176070100Y-110131100D01*
X191487800Y-107802300D02*
X189159000Y-110131100D01*
X203052300Y-107802300D02*
X191487800Y-107802300D01*
X203200000Y-107950000D02*
X203052300Y-107802300D01*
X81915000Y-107950000D02*
X81915000Y-106824700D01*
X159040400Y-71109200D02*
X157401800Y-71109200D01*
X160480600Y-69669000D02*
X159040400Y-71109200D01*
X183969000Y-69669000D02*
X160480600Y-69669000D01*
X184150000Y-69850000D02*
X183969000Y-69669000D01*
X92273000Y-90779000D02*
X106995500Y-90779000D01*
X83040300Y-100011700D02*
X92273000Y-90779000D01*
X83040300Y-105980800D02*
X83040300Y-100011700D01*
X82196400Y-106824700D02*
X83040300Y-105980800D01*
X81915000Y-106824700D02*
X82196400Y-106824700D01*
X119304900Y-83919700D02*
X111481700Y-83919700D01*
X124430300Y-78794300D02*
X119304900Y-83919700D01*
X151279400Y-78794300D02*
X124430300Y-78794300D01*
X152895400Y-77178300D02*
X151279400Y-78794300D01*
X152895400Y-76192700D02*
X152895400Y-77178300D01*
X94653300Y-59551700D02*
X85047500Y-59551700D01*
X98539300Y-55665700D02*
X94653300Y-59551700D01*
X158220600Y-55665700D02*
X98539300Y-55665700D01*
X159372700Y-56817800D02*
X158220600Y-55665700D01*
X170845600Y-59716700D02*
X162271600Y-59716700D01*
X171746300Y-58816000D02*
X170845600Y-59716700D01*
X174451900Y-58816000D02*
X171746300Y-58816000D01*
X81915000Y-110490000D02*
X89384800Y-110490000D01*
X179165000Y-79375000D02*
X180090300Y-79375000D01*
X215085200Y-77925200D02*
X206997600Y-77925200D01*
X215265000Y-78105000D02*
X215085200Y-77925200D01*
X206997600Y-77782400D02*
X206997600Y-77925200D01*
X302265100Y-93127200D02*
X272691800Y-93127200D01*
X304532600Y-95394700D02*
X302265100Y-93127200D01*
X305435000Y-95394700D02*
X304532600Y-95394700D01*
X305435000Y-96520000D02*
X305435000Y-95394700D01*
X206997600Y-77925200D02*
X198998100Y-77925200D01*
X189205600Y-73018600D02*
X189740700Y-72483500D01*
X185940700Y-73018600D02*
X189205600Y-73018600D01*
X180090300Y-78869000D02*
X185940700Y-73018600D01*
X180090300Y-79375000D02*
X180090300Y-78869000D01*
X86665700Y-119564600D02*
X83040300Y-123190000D01*
X92549200Y-119564600D02*
X86665700Y-119564600D01*
X92746500Y-119761900D02*
X92549200Y-119564600D01*
X109138600Y-119761900D02*
X92746500Y-119761900D01*
X110926100Y-117974400D02*
X109138600Y-119761900D01*
X124723500Y-117974400D02*
X110926100Y-117974400D01*
X81915000Y-123190000D02*
X83040300Y-123190000D01*
X173074000Y-107484600D02*
X167326800Y-107484600D01*
X173363200Y-107773800D02*
X173074000Y-107484600D01*
X133040700Y-109345700D02*
X132854400Y-109532000D01*
X141073800Y-109345700D02*
X133040700Y-109345700D01*
X143655900Y-111927800D02*
X141073800Y-109345700D01*
X154737000Y-111927800D02*
X143655900Y-111927800D01*
X155703100Y-112893900D02*
X154737000Y-111927800D01*
X163982900Y-112893900D02*
X155703100Y-112893900D01*
X171539600Y-89471800D02*
X170306100Y-89471800D01*
X172799300Y-88212100D02*
X171539600Y-89471800D01*
X175133700Y-88212100D02*
X172799300Y-88212100D01*
X234490700Y-81136300D02*
X266173100Y-81136300D01*
X232874000Y-79519600D02*
X234490700Y-81136300D01*
X227609800Y-79519600D02*
X232874000Y-79519600D01*
X227463300Y-79666100D02*
X227609800Y-79519600D01*
X216826100Y-79666100D02*
X227463300Y-79666100D01*
X215265000Y-78105000D02*
X216826100Y-79666100D01*
X171745700Y-95126400D02*
X173673900Y-95126400D01*
X170180000Y-96692100D02*
X171745700Y-95126400D01*
X170180000Y-97620600D02*
X170180000Y-96692100D01*
X168725700Y-99074900D02*
X170180000Y-97620600D01*
X167252200Y-99074900D02*
X168725700Y-99074900D01*
X188409200Y-76551700D02*
X183314100Y-76551700D01*
X193040000Y-79375000D02*
X193965300Y-79375000D01*
X209262800Y-75565000D02*
X215265000Y-75565000D01*
X271861100Y-93281500D02*
X271861100Y-93173700D01*
X272389800Y-93810200D02*
X271861100Y-93281500D01*
X294912400Y-93810200D02*
X272389800Y-93810200D01*
X297135400Y-96033200D02*
X294912400Y-93810200D01*
X297135400Y-97587100D02*
X297135400Y-96033200D01*
X298608300Y-99060000D02*
X297135400Y-97587100D01*
X305435000Y-99060000D02*
X298608300Y-99060000D01*
X81915000Y-120650000D02*
X81915000Y-119524700D01*
X174760700Y-111260700D02*
X163744300Y-111260700D01*
X175260000Y-111760000D02*
X174760700Y-111260700D01*
X206790500Y-75565000D02*
X209262800Y-75565000D01*
X205765300Y-74539800D02*
X206790500Y-75565000D01*
X198715400Y-74539800D02*
X205765300Y-74539800D01*
X196559700Y-76695500D02*
X198715400Y-74539800D01*
X196138800Y-76695500D02*
X196559700Y-76695500D01*
X193965300Y-78869000D02*
X196138800Y-76695500D01*
X193965300Y-79375000D02*
X193965300Y-78869000D01*
X249435500Y-79785500D02*
X265097400Y-79785500D01*
X246515800Y-76865800D02*
X249435500Y-79785500D01*
X228837100Y-76865800D02*
X246515800Y-76865800D01*
X227536300Y-75565000D02*
X228837100Y-76865800D01*
X215265000Y-75565000D02*
X227536300Y-75565000D01*
X173005500Y-85589100D02*
X167145800Y-85589100D01*
X145540200Y-91329700D02*
X163272500Y-91329700D01*
X141840800Y-95029100D02*
X145540200Y-91329700D01*
X128107800Y-95029100D02*
X141840800Y-95029100D01*
X127044600Y-96092300D02*
X128107800Y-95029100D01*
X127044600Y-98237400D02*
X127044600Y-96092300D01*
X127800300Y-98993100D02*
X127044600Y-98237400D01*
X133525100Y-98993100D02*
X127800300Y-98993100D01*
X82512700Y-119524700D02*
X81915000Y-119524700D01*
X87508200Y-114529200D02*
X82512700Y-119524700D01*
X98681100Y-114529200D02*
X87508200Y-114529200D01*
X99611000Y-115459100D02*
X98681100Y-114529200D01*
X102937900Y-115459100D02*
X99611000Y-115459100D01*
X107596200Y-110800800D02*
X102937900Y-115459100D01*
X114923300Y-110800800D02*
X107596200Y-110800800D01*
X115204800Y-110519300D02*
X114923300Y-110800800D01*
X129208500Y-110519300D02*
X115204800Y-110519300D01*
X129875100Y-109852700D02*
X129208500Y-110519300D01*
X131282700Y-108445100D02*
X129875100Y-109852700D01*
X141671900Y-108445100D02*
X131282700Y-108445100D01*
X144253900Y-111027100D02*
X141671900Y-108445100D01*
X157517000Y-111027100D02*
X144253900Y-111027100D01*
X157629600Y-111139700D02*
X157517000Y-111027100D01*
X190825900Y-61263600D02*
X190937300Y-61152200D01*
X111983600Y-61263600D02*
X190825900Y-61263600D01*
X107990000Y-57270000D02*
X111983600Y-61263600D01*
X187643300Y-60813300D02*
X187889100Y-60567500D01*
X116533300Y-60813300D02*
X187643300Y-60813300D01*
X112990000Y-57270000D02*
X116533300Y-60813300D01*
X92719100Y-70549100D02*
X87053600Y-70549100D01*
X93940000Y-71770000D02*
X92719100Y-70549100D01*
X91728100Y-105739300D02*
X88957900Y-105739300D01*
X101759100Y-119136500D02*
X101809400Y-119086200D01*
X93210700Y-119136500D02*
X101759100Y-119136500D01*
X107533400Y-80139200D02*
X108827600Y-78845000D01*
X94654600Y-80139200D02*
X107533400Y-80139200D01*
X93126400Y-81667400D02*
X94654600Y-80139200D01*
X93126400Y-82184600D02*
X93126400Y-81667400D01*
X152764100Y-120514300D02*
X164824900Y-120514300D01*
X151350000Y-119100200D02*
X152764100Y-120514300D01*
X111836500Y-119100200D02*
X151350000Y-119100200D01*
X208540800Y-119389500D02*
X209678200Y-118252100D01*
X185872400Y-119389500D02*
X208540800Y-119389500D01*
X182140100Y-123121800D02*
X185872400Y-119389500D01*
X172190100Y-123121800D02*
X182140100Y-123121800D01*
X171361100Y-122292800D02*
X172190100Y-123121800D01*
X100867700Y-116985100D02*
X100737000Y-117115800D01*
X102998200Y-116985100D02*
X100867700Y-116985100D01*
X162746600Y-77397000D02*
X162746600Y-77913600D01*
X168373600Y-71770000D02*
X162746600Y-77397000D01*
X170140000Y-71770000D02*
X168373600Y-71770000D01*
X177761000Y-100137600D02*
X179666000Y-98232600D01*
X177437000Y-100137600D02*
X177761000Y-100137600D01*
X213061400Y-55581400D02*
X215265000Y-57785000D01*
X163897800Y-55581400D02*
X213061400Y-55581400D01*
X161219200Y-58260000D02*
X163897800Y-55581400D01*
X155016000Y-58260000D02*
X161219200Y-58260000D01*
X313055000Y-111760000D02*
X311929700Y-111760000D01*
X290896500Y-120430000D02*
X282658600Y-120430000D01*
X294684600Y-116641900D02*
X290896500Y-120430000D01*
X294684600Y-115136500D02*
X294684600Y-116641900D01*
X297097200Y-112723900D02*
X294684600Y-115136500D01*
X301657300Y-112723900D02*
X297097200Y-112723900D01*
X301818700Y-112885300D02*
X301657300Y-112723900D01*
X310804400Y-112885300D02*
X301818700Y-112885300D01*
X311929700Y-111760000D02*
X310804400Y-112885300D01*
X310484000Y-115745700D02*
X306325200Y-115745700D01*
X311929700Y-114300000D02*
X310484000Y-115745700D01*
X313055000Y-114300000D02*
X311929700Y-114300000D01*
X309638500Y-116840000D02*
X308844800Y-117633700D01*
X313055000Y-116840000D02*
X309638500Y-116840000D01*
X211592400Y-60249500D02*
X211032900Y-60249500D01*
X212705900Y-59136000D02*
X211592400Y-60249500D01*
X212705900Y-58583900D02*
X212705900Y-59136000D01*
X210186200Y-56064200D02*
X212705900Y-58583900D01*
X166345800Y-56064200D02*
X210186200Y-56064200D01*
X165140000Y-57270000D02*
X166345800Y-56064200D01*
X209049600Y-86793800D02*
X209246100Y-86990300D01*
X209049600Y-84627900D02*
X209049600Y-86793800D01*
X210115600Y-83561900D02*
X209049600Y-84627900D01*
X212123500Y-83561900D02*
X210115600Y-83561900D01*
X213995400Y-101338200D02*
X213995400Y-100353700D01*
X214892200Y-102235000D02*
X213995400Y-101338200D01*
X215644100Y-102235000D02*
X214892200Y-102235000D01*
X216535000Y-103125900D02*
X215644100Y-102235000D01*
X216535000Y-103878200D02*
X216535000Y-103125900D01*
X218692700Y-106035900D02*
X216535000Y-103878200D01*
X227501000Y-106035900D02*
X218692700Y-106035900D01*
X154142900Y-116136100D02*
X154142900Y-116313400D01*
X152481200Y-114474400D02*
X154142900Y-116136100D01*
X148900900Y-114474400D02*
X152481200Y-114474400D01*
X148727000Y-114648300D02*
X148900900Y-114474400D01*
X151817200Y-118834300D02*
X156613100Y-118834300D01*
X151151900Y-118169000D02*
X151817200Y-118834300D01*
X156455300Y-103591900D02*
X155517800Y-103591900D01*
X156795100Y-103931700D02*
X156455300Y-103591900D01*
X230908300Y-88668300D02*
X233732900Y-88668300D01*
X230505000Y-88265000D02*
X230908300Y-88668300D01*
X216408200Y-117821500D02*
X213220900Y-117821500D01*
X216802200Y-117427500D02*
X216408200Y-117821500D01*
X234385000Y-117427500D02*
X216802200Y-117427500D01*
X150815800Y-101600000D02*
X160020000Y-101600000D01*
X149236200Y-100020400D02*
X150815800Y-101600000D01*
X126834800Y-100020400D02*
X149236200Y-100020400D01*
X124485500Y-97671100D02*
X126834800Y-100020400D01*
X124485500Y-96664900D02*
X124485500Y-97671100D01*
X127601300Y-93549100D02*
X124485500Y-96664900D01*
X141146000Y-93549100D02*
X127601300Y-93549100D01*
X144602000Y-90093100D02*
X141146000Y-93549100D01*
X165920100Y-90093100D02*
X144602000Y-90093100D01*
X168667400Y-87345800D02*
X165920100Y-90093100D01*
X175214700Y-87345800D02*
X168667400Y-87345800D01*
X175533700Y-87664800D02*
X175214700Y-87345800D01*
X180649100Y-87664800D02*
X175533700Y-87664800D01*
X180813700Y-87500200D02*
X180649100Y-87664800D01*
X191328300Y-87500200D02*
X180813700Y-87500200D01*
X196215000Y-92386900D02*
X191328300Y-87500200D01*
X196215000Y-93035100D02*
X196215000Y-92386900D01*
X197070000Y-93890100D02*
X196215000Y-93035100D01*
X197976100Y-93890100D02*
X197070000Y-93890100D01*
X198755000Y-93111200D02*
X197976100Y-93890100D01*
X198755000Y-92347800D02*
X198755000Y-93111200D01*
X200765100Y-90337700D02*
X198755000Y-92347800D01*
X211113600Y-90337700D02*
X200765100Y-90337700D01*
X214543600Y-86907700D02*
X211113600Y-90337700D01*
X229322300Y-86907700D02*
X214543600Y-86907700D01*
X230505000Y-85725000D02*
X229322300Y-86907700D01*
X230397700Y-83292300D02*
X230505000Y-83185000D01*
X225629000Y-83292300D02*
X230397700Y-83292300D01*
X159602900Y-104557100D02*
X155056500Y-104557100D01*
X160020000Y-104140000D02*
X159602900Y-104557100D01*
X164241700Y-94690100D02*
X164444100Y-94892500D01*
X147522500Y-94690100D02*
X164241700Y-94690100D01*
X146094600Y-96118000D02*
X147522500Y-94690100D01*
X146094600Y-98230900D02*
X146094600Y-96118000D01*
X146983500Y-99119800D02*
X146094600Y-98230900D01*
X153204200Y-99119800D02*
X146983500Y-99119800D01*
X169756600Y-87987000D02*
X169307400Y-88436200D01*
X172139900Y-87987000D02*
X169756600Y-87987000D01*
X169804500Y-93713700D02*
X172009800Y-93713700D01*
X168959200Y-94559000D02*
X169804500Y-93713700D01*
X168959200Y-94744300D02*
X168959200Y-94559000D01*
X177361400Y-98495900D02*
X179935800Y-95921500D01*
X191625100Y-101033100D02*
X188445800Y-101033100D01*
X192576900Y-100081300D02*
X191625100Y-101033100D01*
X207929200Y-100081300D02*
X192576900Y-100081300D01*
X208098100Y-100250200D02*
X207929200Y-100081300D01*
X209664500Y-100250200D02*
X208098100Y-100250200D01*
X211211900Y-98702800D02*
X209664500Y-100250200D01*
X211211900Y-95037900D02*
X211211900Y-98702800D01*
X213531200Y-92718600D02*
X211211900Y-95037900D01*
X224394800Y-93388200D02*
X217445100Y-93388200D01*
X224742500Y-93040500D02*
X224394800Y-93388200D01*
X197791200Y-129064600D02*
X176603900Y-129064600D01*
X201343500Y-125512300D02*
X197791200Y-129064600D01*
X208062300Y-125512300D02*
X201343500Y-125512300D01*
X209613100Y-127063100D02*
X208062300Y-125512300D01*
X212945600Y-127063100D02*
X209613100Y-127063100D01*
X168420400Y-127052500D02*
X168194000Y-126826100D01*
X173651200Y-127052500D02*
X168420400Y-127052500D01*
X129913000Y-114483900D02*
X130108900Y-114679800D01*
X106643900Y-114483900D02*
X129913000Y-114483900D01*
X103517400Y-117610400D02*
X106643900Y-114483900D01*
X102739200Y-117610400D02*
X103517400Y-117610400D01*
X102666200Y-117537400D02*
X102739200Y-117610400D01*
X101199800Y-117537400D02*
X102666200Y-117537400D01*
X100996100Y-117741100D02*
X101199800Y-117537400D01*
X99734800Y-117741100D02*
X100996100Y-117741100D01*
X99131100Y-117137400D02*
X99734800Y-117741100D01*
X132195100Y-109982100D02*
X132596900Y-110383900D01*
X132195100Y-109303000D02*
X132195100Y-109982100D01*
X132602700Y-108895400D02*
X132195100Y-109303000D01*
X141485300Y-108895400D02*
X132602700Y-108895400D01*
X144067300Y-111477400D02*
X141485300Y-108895400D01*
X155402800Y-111477400D02*
X144067300Y-111477400D01*
X155748400Y-111823000D02*
X155402800Y-111477400D01*
X159957000Y-111823000D02*
X155748400Y-111823000D01*
X160020000Y-111760000D02*
X159957000Y-111823000D01*
X222370700Y-95238700D02*
X221901600Y-95707800D01*
X226561400Y-95238700D02*
X222370700Y-95238700D01*
X227185100Y-94615000D02*
X226561400Y-95238700D01*
X230865000Y-94615000D02*
X227185100Y-94615000D01*
X231810900Y-93669100D02*
X230865000Y-94615000D01*
X186440300Y-91172800D02*
X169855500Y-91172800D01*
X188123400Y-89489700D02*
X186440300Y-91172800D01*
X188882600Y-89489700D02*
X188123400Y-89489700D01*
X190990400Y-91597500D02*
X188882600Y-89489700D01*
X190990400Y-92913200D02*
X190990400Y-91597500D01*
X192192400Y-94115200D02*
X190990400Y-92913200D01*
X195578100Y-94115200D02*
X192192400Y-94115200D01*
X195859500Y-94396600D02*
X195578100Y-94115200D01*
X198740800Y-94396600D02*
X195859500Y-94396600D01*
X199022200Y-94115200D02*
X198740800Y-94396600D01*
X202823600Y-94115200D02*
X199022200Y-94115200D01*
X203835000Y-93103800D02*
X202823600Y-94115200D01*
X203835000Y-92344100D02*
X203835000Y-93103800D01*
X205391000Y-90788100D02*
X203835000Y-92344100D01*
X212341400Y-90788100D02*
X205391000Y-90788100D01*
X213440200Y-89689300D02*
X212341400Y-90788100D01*
X213197100Y-118703400D02*
X211660800Y-117167100D01*
X243120700Y-118703400D02*
X213197100Y-118703400D01*
X243728200Y-118095900D02*
X243120700Y-118703400D01*
X218969600Y-84534300D02*
X233609000Y-84534300D01*
X216788200Y-82352900D02*
X218969600Y-84534300D01*
X175908800Y-120028800D02*
X181437100Y-120028800D01*
X175260000Y-119380000D02*
X175908800Y-120028800D01*
X236311100Y-100359300D02*
X236143100Y-100527300D01*
X245495900Y-100359300D02*
X236311100Y-100359300D01*
X240893300Y-114918900D02*
X214481100Y-114918900D01*
X242981300Y-112830900D02*
X240893300Y-114918900D01*
X230077900Y-99673300D02*
X243149800Y-99673300D01*
X227412600Y-97008000D02*
X230077900Y-99673300D01*
X214699600Y-84560900D02*
X214066300Y-83927600D01*
X216582500Y-84560900D02*
X214699600Y-84560900D01*
X232629900Y-103000800D02*
X232629900Y-102037600D01*
X231901200Y-103729500D02*
X232629900Y-103000800D01*
X229586700Y-79023300D02*
X230505000Y-78105000D01*
X227221700Y-79023300D02*
X229586700Y-79023300D01*
X195264000Y-109005300D02*
X198350400Y-109005300D01*
X192774800Y-111494500D02*
X195264000Y-109005300D01*
X177067200Y-111494500D02*
X192774800Y-111494500D01*
X160559500Y-109759500D02*
X172020100Y-109759500D01*
X160020000Y-109220000D02*
X160559500Y-109759500D01*
X211980900Y-112253300D02*
X211679100Y-111951500D01*
X215755400Y-112253300D02*
X211980900Y-112253300D01*
X218810800Y-109197900D02*
X215755400Y-112253300D01*
X218810800Y-106778200D02*
X218810800Y-109197900D01*
X225206700Y-95689000D02*
X223215900Y-97679800D01*
X227360700Y-95689000D02*
X225206700Y-95689000D01*
X194428300Y-76070200D02*
X193433000Y-77065500D01*
X196300600Y-76070200D02*
X194428300Y-76070200D01*
X168434600Y-82048900D02*
X185106500Y-82048900D01*
X167276300Y-83207200D02*
X168434600Y-82048900D01*
X200588500Y-89345300D02*
X198899600Y-87656400D01*
X210854600Y-89345300D02*
X200588500Y-89345300D01*
X213441400Y-86758500D02*
X210854600Y-89345300D01*
X177582200Y-99161700D02*
X179078700Y-97665200D01*
X175361700Y-99161700D02*
X177582200Y-99161700D01*
X175260000Y-99060000D02*
X175361700Y-99161700D01*
X156675000Y-92470500D02*
X156647000Y-92498500D01*
X162644600Y-92470500D02*
X156675000Y-92470500D01*
X162735700Y-92561600D02*
X162644600Y-92470500D01*
X168489900Y-92561600D02*
X162735700Y-92561600D01*
X168803100Y-92248400D02*
X168489900Y-92561600D01*
X170301200Y-92248400D02*
X168803100Y-92248400D01*
X170361800Y-92187800D02*
X170301200Y-92248400D01*
X178205300Y-92187800D02*
X170361800Y-92187800D01*
X178450700Y-92433200D02*
X178205300Y-92187800D01*
X191530900Y-94565600D02*
X191028300Y-94063000D01*
X195391600Y-94565600D02*
X191530900Y-94565600D01*
X195673000Y-94847000D02*
X195391600Y-94565600D01*
X198927300Y-94847000D02*
X195673000Y-94847000D01*
X199208700Y-94565600D02*
X198927300Y-94847000D01*
X210162000Y-94565600D02*
X199208700Y-94565600D01*
X212705400Y-92022200D02*
X210162000Y-94565600D01*
X229287800Y-92022200D02*
X212705400Y-92022200D01*
X230505000Y-90805000D02*
X229287800Y-92022200D01*
X112214900Y-81915000D02*
X111243700Y-82886200D01*
X113815000Y-81915000D02*
X112214900Y-81915000D01*
X120866800Y-84393500D02*
X119761500Y-84393500D01*
X121012200Y-84248100D02*
X120866800Y-84393500D01*
X182326300Y-82715600D02*
X186393000Y-82715600D01*
X192154300Y-74552800D02*
X192154300Y-75303000D01*
X193785100Y-72922000D02*
X192154300Y-74552800D01*
X205993300Y-72922000D02*
X193785100Y-72922000D01*
X206595600Y-72319700D02*
X205993300Y-72922000D01*
X206705700Y-72319700D02*
X206595600Y-72319700D01*
X212350400Y-66675000D02*
X206705700Y-72319700D01*
X225704800Y-66675000D02*
X212350400Y-66675000D01*
X226974800Y-65405000D02*
X225704800Y-66675000D01*
X230505000Y-65405000D02*
X226974800Y-65405000D01*
X210185000Y-92710000D02*
X211310300Y-92710000D01*
X214485300Y-89535000D02*
X211310300Y-92710000D01*
X219029700Y-89535000D02*
X214485300Y-89535000D01*
X220107700Y-88457000D02*
X219029700Y-89535000D01*
X256540000Y-107950000D02*
X266483300Y-107950000D01*
X313055000Y-121920000D02*
X311929700Y-121920000D01*
X296681200Y-117642800D02*
X295704200Y-117642800D01*
X299688400Y-120650000D02*
X296681200Y-117642800D01*
X310659700Y-120650000D02*
X299688400Y-120650000D01*
X311929700Y-121920000D02*
X310659700Y-120650000D01*
X292458900Y-110630800D02*
X309185100Y-110630800D01*
X289778100Y-107950000D02*
X292458900Y-110630800D01*
X275590000Y-107950000D02*
X289778100Y-107950000D01*
X295295000Y-107295000D02*
X294640000Y-107950000D01*
X300146900Y-107295000D02*
X295295000Y-107295000D01*
X261383800Y-125493800D02*
X250946900Y-125493800D01*
X261858900Y-125968900D02*
X261383800Y-125493800D01*
X264482100Y-125968900D02*
X261858900Y-125968900D01*
X264924700Y-125526300D02*
X264482100Y-125968900D01*
X280466300Y-125526300D02*
X264924700Y-125526300D01*
X280908900Y-125968900D02*
X280466300Y-125526300D01*
X283532100Y-125968900D02*
X280908900Y-125968900D01*
X283974700Y-125526300D02*
X283532100Y-125968900D01*
X299516300Y-125526300D02*
X283974700Y-125526300D01*
X300990000Y-127000000D02*
X299516300Y-125526300D01*
X305435000Y-127000000D02*
X300990000Y-127000000D01*
X279298700Y-114965100D02*
X272594200Y-114965100D01*
X280670000Y-116336400D02*
X279298700Y-114965100D01*
X280670000Y-121043500D02*
X280670000Y-116336400D01*
X283096200Y-123469700D02*
X280670000Y-121043500D01*
X290308300Y-123469700D02*
X283096200Y-123469700D01*
X256576700Y-88936700D02*
X256540000Y-88900000D01*
X266479100Y-88936700D02*
X256576700Y-88936700D01*
X310051900Y-102870000D02*
X304347200Y-102870000D01*
X311690400Y-104508500D02*
X310051900Y-102870000D01*
X305435000Y-121920000D02*
X310909900Y-121920000D01*
X277146600Y-90456600D02*
X299944500Y-90456600D01*
X275590000Y-88900000D02*
X277146600Y-90456600D01*
X301350400Y-119380000D02*
X299358000Y-117387600D01*
X305435000Y-119380000D02*
X301350400Y-119380000D01*
X294684600Y-98240500D02*
X294684600Y-95303400D01*
X295639600Y-99195500D02*
X294684600Y-98240500D01*
X297824800Y-99195500D02*
X295639600Y-99195500D01*
X235851600Y-71488400D02*
X237490000Y-69850000D01*
X233669800Y-71488400D02*
X235851600Y-71488400D01*
X300864200Y-128468400D02*
X243298400Y-128468400D01*
X301014000Y-128318600D02*
X300864200Y-128468400D01*
X302349000Y-114300000D02*
X301398200Y-113349200D01*
X305435000Y-114300000D02*
X302349000Y-114300000D01*
X254277200Y-79335100D02*
X253870700Y-78928600D01*
X264399300Y-79335100D02*
X254277200Y-79335100D01*
X264629300Y-79105100D02*
X264399300Y-79335100D01*
X265301500Y-79105100D02*
X264629300Y-79105100D01*
X265728100Y-79531700D02*
X265301500Y-79105100D01*
X265728100Y-80099200D02*
X265728100Y-79531700D01*
X265322700Y-80504600D02*
X265728100Y-80099200D01*
X264436100Y-80504600D02*
X265322700Y-80504600D01*
X292727200Y-109514300D02*
X300577600Y-109514300D01*
X290561200Y-107348300D02*
X292727200Y-109514300D01*
X281338300Y-107348300D02*
X290561200Y-107348300D01*
X280462800Y-106472800D02*
X281338300Y-107348300D01*
X270419200Y-106472800D02*
X280462800Y-106472800D01*
X269766100Y-107125900D02*
X270419200Y-106472800D01*
X276899900Y-109506200D02*
X272505900Y-109506200D01*
X277036500Y-109369600D02*
X276899900Y-109506200D01*
X290053100Y-109369600D02*
X277036500Y-109369600D01*
X292443500Y-111760000D02*
X290053100Y-109369600D01*
X305435000Y-111760000D02*
X292443500Y-111760000D01*
X273831200Y-76234000D02*
X274408400Y-76234000D01*
X272555200Y-77510000D02*
X273831200Y-76234000D01*
X292133400Y-72356600D02*
X294640000Y-69850000D01*
X292133400Y-79684600D02*
X292133400Y-72356600D01*
X292405300Y-79956500D02*
X292133400Y-79684600D01*
X305435000Y-109220000D02*
X305435000Y-108094700D01*
X305153600Y-108094700D02*
X305435000Y-108094700D01*
X304309700Y-107250800D02*
X305153600Y-108094700D01*
X304309700Y-106583100D02*
X304309700Y-107250800D01*
X297406400Y-99679800D02*
X304309700Y-106583100D01*
X292316800Y-99679800D02*
X297406400Y-99679800D01*
X290233200Y-97596200D02*
X292316800Y-99679800D01*
X210185000Y-85090000D02*
X213841100Y-85090000D01*
X108302400Y-80589600D02*
X109542500Y-79349500D01*
X96090400Y-80589600D02*
X108302400Y-80589600D01*
X94765000Y-81915000D02*
X96090400Y-80589600D01*
X120896700Y-75943300D02*
X149523800Y-75943300D01*
X209082600Y-99332300D02*
X191106400Y-99332300D01*
X209375100Y-99624800D02*
X209082600Y-99332300D01*
X123793900Y-92873700D02*
X123343600Y-93324000D01*
X141184500Y-92873700D02*
X123793900Y-92873700D01*
X144780000Y-89278200D02*
X141184500Y-92873700D01*
X144780000Y-88548000D02*
X144780000Y-89278200D01*
X147006200Y-86321800D02*
X144780000Y-88548000D01*
X190284500Y-86321800D02*
X147006200Y-86321800D01*
X191135000Y-85471300D02*
X190284500Y-86321800D01*
X191135000Y-84717900D02*
X191135000Y-85471300D01*
X193443500Y-82409400D02*
X191135000Y-84717900D01*
X205914000Y-82409400D02*
X193443500Y-82409400D01*
X206139200Y-82184200D02*
X205914000Y-82409400D01*
X214264200Y-82184200D02*
X206139200Y-82184200D01*
X215265000Y-83185000D02*
X214264200Y-82184200D01*
X188840500Y-81959100D02*
X188756100Y-82043500D01*
X205727400Y-81959100D02*
X188840500Y-81959100D01*
X207041500Y-80645000D02*
X205727400Y-81959100D01*
X215265000Y-80645000D02*
X207041500Y-80645000D01*
X181427400Y-90097100D02*
X181632100Y-89892400D01*
X166778300Y-90097100D02*
X181427400Y-90097100D01*
X166332000Y-90543400D02*
X166778300Y-90097100D01*
X145316300Y-90543400D02*
X166332000Y-90543400D01*
X141540800Y-94318900D02*
X145316300Y-90543400D01*
X134456400Y-94318900D02*
X141540800Y-94318900D01*
X88555900Y-61706800D02*
X82249200Y-61706800D01*
X83950000Y-79885000D02*
X80869200Y-79885000D01*
X210584600Y-69215000D02*
X206854600Y-72945000D01*
X227505000Y-69215000D02*
X210584600Y-69215000D01*
X107550200Y-61669600D02*
X90459800Y-61669600D01*
X111407900Y-65527300D02*
X107550200Y-61669600D01*
X114103800Y-65527300D02*
X111407900Y-65527300D01*
X153569500Y-79566000D02*
X126129200Y-79566000D01*
X205459300Y-72236200D02*
X195953100Y-72236200D01*
X187577800Y-72568300D02*
X189741400Y-70404700D01*
X180880600Y-72568300D02*
X187577800Y-72568300D01*
X173563100Y-79885800D02*
X180880600Y-72568300D01*
X155615400Y-79885800D02*
X173563100Y-79885800D01*
X117260600Y-57118400D02*
X119848800Y-57118400D01*
X116931500Y-57447500D02*
X117260600Y-57118400D01*
X212132300Y-61062300D02*
X213831800Y-61062300D01*
X211719900Y-61474700D02*
X212132300Y-61062300D01*
X192594100Y-61474700D02*
X211719900Y-61474700D01*
X191672200Y-62396600D02*
X192594100Y-61474700D01*
X165283300Y-62396600D02*
X191672200Y-62396600D01*
X164581100Y-63098800D02*
X165283300Y-62396600D01*
X108754400Y-69120900D02*
X83681000Y-69120900D01*
X115955100Y-56300500D02*
X119714400Y-56300500D01*
X115579500Y-56676100D02*
X115955100Y-56300500D01*
X99618700Y-59033700D02*
X98370000Y-57785000D01*
X103319000Y-59033700D02*
X99618700Y-59033700D01*
X103454600Y-58898100D02*
X103319000Y-59033700D01*
X105415600Y-58898100D02*
X103454600Y-58898100D01*
X108736800Y-62219300D02*
X105415600Y-58898100D01*
X114151100Y-62219300D02*
X108736800Y-62219300D01*
X229096100Y-74284100D02*
X229096100Y-76018300D01*
X227692400Y-72880400D02*
X229096100Y-74284100D01*
X222700300Y-72880400D02*
X227692400Y-72880400D01*
X221574900Y-71755000D02*
X222700300Y-72880400D01*
X213401700Y-71755000D02*
X221574900Y-71755000D01*
X171274600Y-58577100D02*
X163634500Y-58577100D01*
X172049300Y-57802400D02*
X171274600Y-58577100D01*
X188488000Y-57802400D02*
X172049300Y-57802400D01*
X189229600Y-58544000D02*
X188488000Y-57802400D01*
X189229600Y-59541000D02*
X189229600Y-58544000D01*
X189987100Y-60298500D02*
X189229600Y-59541000D01*
X210099600Y-60298500D02*
X189987100Y-60298500D01*
X211553800Y-58844300D02*
X210099600Y-60298500D01*
X212059700Y-58844300D02*
X211553800Y-58844300D01*
X220863000Y-94613300D02*
X226274800Y-94613300D01*
X220527600Y-94948700D02*
X220863000Y-94613300D01*
X212261500Y-85725000D02*
X215265000Y-85725000D01*
X209648700Y-88337800D02*
X212261500Y-85725000D01*
X176895700Y-102395300D02*
X176895700Y-103383300D01*
X177284600Y-102006400D02*
X176895700Y-102395300D01*
X214833800Y-107170400D02*
X213911200Y-108093000D01*
X215782300Y-107170400D02*
X214833800Y-107170400D01*
X216580800Y-106371900D02*
X215782300Y-107170400D01*
X201205000Y-108318500D02*
X201349100Y-108462600D01*
X195313900Y-108318500D02*
X201205000Y-108318500D01*
X192769800Y-110862600D02*
X195313900Y-108318500D01*
X182968500Y-110862600D02*
X192769800Y-110862600D01*
X119347500Y-58184000D02*
X119347500Y-58019200D01*
X118207900Y-59323600D02*
X119347500Y-58184000D01*
X117302000Y-67112700D02*
X117476100Y-67286800D01*
X87053600Y-67112700D02*
X117302000Y-67112700D01*
X236355100Y-67306200D02*
X238125300Y-67306200D01*
X231906300Y-71755000D02*
X236355100Y-67306200D01*
X227505000Y-71755000D02*
X231906300Y-71755000D01*
X81280000Y-88015000D02*
X111138500Y-88015000D01*
X167535400Y-83832500D02*
X162384400Y-83832500D01*
X167874700Y-83493200D02*
X167535400Y-83832500D01*
X185428000Y-83493200D02*
X167874700Y-83493200D01*
X212929700Y-74295000D02*
X227505000Y-74295000D01*
X212007000Y-73372300D02*
X212929700Y-74295000D01*
X207311700Y-73372300D02*
X212007000Y-73372300D01*
X207113700Y-73570300D02*
X207311700Y-73372300D01*
X194021100Y-73570300D02*
X207113700Y-73570300D01*
X192955900Y-74635500D02*
X194021100Y-73570300D01*
X118925200Y-83294400D02*
X112126500Y-83294400D01*
X124068000Y-78151600D02*
X118925200Y-83294400D01*
X151037700Y-78151600D02*
X124068000Y-78151600D01*
X164153700Y-74585000D02*
X159091100Y-74585000D01*
X168619400Y-70119300D02*
X164153700Y-74585000D01*
X174471300Y-70119300D02*
X168619400Y-70119300D01*
X175671500Y-71319500D02*
X174471300Y-70119300D01*
X186781300Y-71319500D02*
X175671500Y-71319500D01*
X188424200Y-69676600D02*
X186781300Y-71319500D01*
X188819000Y-69676600D02*
X188424200Y-69676600D01*
X189527800Y-68967800D02*
X188819000Y-69676600D01*
X189527800Y-68445000D02*
X189527800Y-68967800D01*
X188967900Y-67885100D02*
X189527800Y-68445000D01*
X188967900Y-66709400D02*
X188967900Y-67885100D01*
X189869800Y-65807500D02*
X188967900Y-66709400D01*
X191074200Y-65807500D02*
X189869800Y-65807500D01*
X191243100Y-65976400D02*
X191074200Y-65807500D01*
X195745200Y-65976400D02*
X191243100Y-65976400D01*
X199320600Y-62401000D02*
X195745200Y-65976400D01*
X210406900Y-62401000D02*
X199320600Y-62401000D01*
X212140900Y-64135000D02*
X210406900Y-62401000D01*
X227505000Y-64135000D02*
X212140900Y-64135000D01*
X152095000Y-76276700D02*
X152095000Y-76192700D01*
X151298900Y-77072800D02*
X152095000Y-76276700D01*
X116040000Y-77072800D02*
X151298900Y-77072800D01*
X108775100Y-69807900D02*
X116040000Y-77072800D01*
X83017100Y-69807900D02*
X108775100Y-69807900D01*
X184785000Y-85090000D02*
X183659700Y-85090000D01*
X169843600Y-83964700D02*
X169611100Y-84197200D01*
X183237800Y-83964700D02*
X169843600Y-83964700D01*
X183659700Y-84386600D02*
X183237800Y-83964700D01*
X183659700Y-85090000D02*
X183659700Y-84386600D01*
X147876400Y-106432100D02*
X138408800Y-106432100D01*
X149316600Y-107872300D02*
X147876400Y-106432100D01*
X161361900Y-107872300D02*
X149316600Y-107872300D01*
X162765100Y-106469100D02*
X161361900Y-107872300D01*
X167514500Y-106469100D02*
X162765100Y-106469100D01*
X167982900Y-106937500D02*
X167514500Y-106469100D01*
X173861700Y-106937500D02*
X167982900Y-106937500D01*
X173950700Y-106848500D02*
X173861700Y-106937500D01*
X187299500Y-68715900D02*
X188883300Y-68715900D01*
X185874500Y-70140900D02*
X187299500Y-68715900D01*
X186678600Y-98436400D02*
X187960000Y-97155000D01*
X181335300Y-98436400D02*
X186678600Y-98436400D01*
X178390600Y-101381100D02*
X181335300Y-98436400D01*
X177025600Y-101381100D02*
X178390600Y-101381100D01*
X176659300Y-101747400D02*
X177025600Y-101381100D01*
X176659300Y-101851800D02*
X176659300Y-101747400D01*
X175641100Y-102870000D02*
X176659300Y-101851800D01*
X174890800Y-102870000D02*
X175641100Y-102870000D01*
X173950700Y-103810100D02*
X174890800Y-102870000D01*
X205769000Y-117446000D02*
X207010000Y-116205000D01*
X194711000Y-117446000D02*
X205769000Y-117446000D01*
X192626000Y-115361000D02*
X194711000Y-117446000D01*
X192626000Y-115281400D02*
X192626000Y-115361000D01*
X191023000Y-113678400D02*
X192626000Y-115281400D01*
X186955200Y-113678400D02*
X191023000Y-113678400D01*
X186512400Y-114121200D02*
X186955200Y-113678400D01*
X182958800Y-114121200D02*
X186512400Y-114121200D01*
X181641000Y-115439000D02*
X182958800Y-114121200D01*
X173123900Y-115439000D02*
X181641000Y-115439000D01*
X172635600Y-114950700D02*
X173123900Y-115439000D01*
X170164300Y-114950700D02*
X172635600Y-114950700D01*
X168910000Y-116205000D02*
X170164300Y-114950700D01*
X130749700Y-116205000D02*
X130810000Y-116205000D01*
X129479000Y-114934300D02*
X130749700Y-116205000D01*
X108219600Y-114934300D02*
X129479000Y-114934300D01*
X107994600Y-115159300D02*
X108219600Y-114934300D01*
X107994600Y-116649700D02*
X107994600Y-115159300D01*
X106583600Y-118060700D02*
X107994600Y-116649700D01*
X102552600Y-118060700D02*
X106583600Y-118060700D01*
X102479600Y-117987700D02*
X102552600Y-118060700D01*
X101386400Y-117987700D02*
X102479600Y-117987700D01*
X101182700Y-118191400D02*
X101386400Y-117987700D01*
X99522900Y-118191400D02*
X101182700Y-118191400D01*
X99115800Y-117784300D02*
X99522900Y-118191400D01*
X94289300Y-117784300D02*
X99115800Y-117784300D01*
X92710000Y-116205000D02*
X94289300Y-117784300D01*
X128270000Y-97155000D02*
X129495300Y-97155000D01*
X184785000Y-92710000D02*
X183659700Y-92710000D01*
X129495300Y-96695500D02*
X129495300Y-97155000D01*
X130711400Y-95479400D02*
X129495300Y-96695500D01*
X142813600Y-95479400D02*
X130711400Y-95479400D01*
X146440600Y-91852400D02*
X142813600Y-95479400D01*
X162663400Y-91852400D02*
X146440600Y-91852400D01*
X162838300Y-92027300D02*
X162663400Y-91852400D01*
X168387300Y-92027300D02*
X162838300Y-92027300D01*
X168616500Y-91798100D02*
X168387300Y-92027300D01*
X170114600Y-91798100D02*
X168616500Y-91798100D01*
X170175200Y-91737500D02*
X170114600Y-91798100D01*
X179628500Y-91737500D02*
X170175200Y-91737500D01*
X181726300Y-93835300D02*
X179628500Y-91737500D01*
X182815800Y-93835300D02*
X181726300Y-93835300D01*
X183659700Y-92991400D02*
X182815800Y-93835300D01*
X183659700Y-92710000D02*
X183659700Y-92991400D01*
X147320000Y-97155000D02*
X148545300Y-97155000D01*
X166370000Y-97155000D02*
X165807200Y-97155000D01*
X165807200Y-97155000D02*
X165144700Y-97155000D01*
X165144700Y-97590700D02*
X165144700Y-97155000D01*
X164344300Y-98391100D02*
X165144700Y-97590700D01*
X162956400Y-98391100D02*
X164344300Y-98391100D01*
X162090700Y-97525400D02*
X162956400Y-98391100D01*
X161572600Y-97525400D02*
X162090700Y-97525400D01*
X161177100Y-97920900D02*
X161572600Y-97525400D01*
X161177100Y-97921000D02*
X161177100Y-97920900D01*
X158547300Y-97921000D02*
X161177100Y-97921000D01*
X158088000Y-98380300D02*
X158547300Y-97921000D01*
X149311000Y-98380300D02*
X158088000Y-98380300D01*
X148545300Y-97614600D02*
X149311000Y-98380300D01*
X148545300Y-97155000D02*
X148545300Y-97614600D01*
X168138300Y-94823900D02*
X165807200Y-97155000D01*
X168138300Y-94664700D02*
X168138300Y-94823900D01*
X169654000Y-93149000D02*
X168138300Y-94664700D01*
X170674400Y-93149000D02*
X169654000Y-93149000D01*
X170735000Y-93088400D02*
X170674400Y-93149000D01*
X175789400Y-93088400D02*
X170735000Y-93088400D01*
X177516100Y-94815100D02*
X175789400Y-93088400D01*
X187674300Y-94815100D02*
X177516100Y-94815100D01*
X188248300Y-56803300D02*
X190500000Y-59055000D01*
X185289400Y-56803300D02*
X188248300Y-56803300D01*
X207162700Y-86697600D02*
X203102500Y-86697600D01*
X207645000Y-86215300D02*
X207162700Y-86697600D01*
X207645000Y-85090000D02*
X207645000Y-86215300D01*
X153603300Y-95951700D02*
X152400000Y-97155000D01*
X158576900Y-95951700D02*
X153603300Y-95951700D01*
X181871500Y-99592500D02*
X181467600Y-99188700D01*
X182189700Y-99274300D02*
X181871500Y-99592500D01*
X187507100Y-99274300D02*
X182189700Y-99274300D01*
X188307500Y-98473900D02*
X187507100Y-99274300D01*
X188895000Y-98473900D02*
X188307500Y-98473900D01*
X190213900Y-97155000D02*
X188895000Y-98473900D01*
X190500000Y-97155000D02*
X190213900Y-97155000D01*
X181871500Y-99592500D02*
X177744700Y-103719300D01*
X95373900Y-116081100D02*
X95250000Y-116205000D01*
X98959200Y-116081100D02*
X95373900Y-116081100D01*
X99237800Y-116359700D02*
X98959200Y-116081100D01*
X103914200Y-116359700D02*
X99237800Y-116359700D01*
X106240300Y-114033600D02*
X103914200Y-116359700D01*
X131178600Y-114033600D02*
X106240300Y-114033600D01*
X133350000Y-116205000D02*
X131178600Y-114033600D01*
X173521200Y-94110200D02*
X174537200Y-94110200D01*
X172994200Y-94637200D02*
X173521200Y-94110200D01*
X169848400Y-94637200D02*
X172994200Y-94637200D01*
X172412600Y-100543700D02*
X172412600Y-101276800D01*
X186814500Y-88962400D02*
X173420300Y-88962400D01*
X187599400Y-88177500D02*
X186814500Y-88962400D01*
X175097200Y-59055000D02*
X182880000Y-59055000D01*
X175097200Y-59055100D02*
X175097200Y-59055000D01*
X174711000Y-59441300D02*
X175097200Y-59055100D01*
X172005400Y-59441300D02*
X174711000Y-59441300D01*
X171694100Y-59752600D02*
X172005400Y-59441300D01*
X172165200Y-100296300D02*
X172412600Y-100543700D01*
X152068300Y-100296300D02*
X172165200Y-100296300D01*
X151342100Y-99570100D02*
X152068300Y-100296300D01*
X146717400Y-99570100D02*
X151342100Y-99570100D01*
X144780000Y-97632700D02*
X146717400Y-99570100D01*
X144780000Y-97155000D02*
X144780000Y-97632700D01*
X181726100Y-97155000D02*
X182880000Y-97155000D01*
X178066200Y-100814900D02*
X181726100Y-97155000D01*
X177132700Y-100814900D02*
X178066200Y-100814900D01*
X176760400Y-100442600D02*
X177132700Y-100814900D01*
X172513700Y-100442600D02*
X176760400Y-100442600D01*
X172412600Y-100543700D02*
X172513700Y-100442600D01*
X201889000Y-116246000D02*
X201930000Y-116205000D01*
X195352600Y-116246000D02*
X201889000Y-116246000D01*
X191884400Y-112777800D02*
X195352600Y-116246000D01*
X186068700Y-112777800D02*
X191884400Y-112777800D01*
X185889400Y-112957100D02*
X186068700Y-112777800D01*
X167077900Y-112957100D02*
X185889400Y-112957100D01*
X163830000Y-116205000D02*
X167077900Y-112957100D01*
X88855400Y-114979600D02*
X87630000Y-116205000D01*
X98494600Y-114979600D02*
X88855400Y-114979600D01*
X99424400Y-115909400D02*
X98494600Y-114979600D01*
X103396000Y-115909400D02*
X99424400Y-115909400D01*
X104784300Y-114521100D02*
X103396000Y-115909400D01*
X197485000Y-85090000D02*
X198610300Y-85090000D01*
X119141900Y-99019000D02*
X121788800Y-101665900D01*
X94574000Y-99019000D02*
X119141900Y-99019000D01*
X92710000Y-97155000D02*
X94574000Y-99019000D01*
X178045200Y-118456600D02*
X177619700Y-118882100D01*
X190004800Y-118456600D02*
X178045200Y-118456600D01*
X191725400Y-116736000D02*
X190004800Y-118456600D01*
X191725400Y-115654600D02*
X191725400Y-116736000D01*
X191006100Y-114935300D02*
X191725400Y-115654600D01*
X189229700Y-114935300D02*
X191006100Y-114935300D01*
X187960000Y-116205000D02*
X189229700Y-114935300D01*
X200559200Y-82859700D02*
X212748900Y-82859700D01*
X198610300Y-84808600D02*
X200559200Y-82859700D01*
X198610300Y-85090000D02*
X198610300Y-84808600D01*
X166426400Y-99016500D02*
X163073000Y-99016500D01*
X166426400Y-99016400D02*
X166426400Y-99016500D01*
X166993200Y-98449600D02*
X166426400Y-99016400D01*
X167615400Y-98449600D02*
X166993200Y-98449600D01*
X168910000Y-97155000D02*
X167615400Y-98449600D01*
X150223500Y-116205000D02*
X149860000Y-116205000D01*
X152055900Y-118037400D02*
X150223500Y-116205000D01*
X161502200Y-118037400D02*
X152055900Y-118037400D01*
X162862400Y-119397600D02*
X161502200Y-118037400D01*
X170913500Y-119397600D02*
X162862400Y-119397600D01*
X198610300Y-85336300D02*
X198610300Y-85090000D01*
X201971600Y-88697600D02*
X198610300Y-85336300D01*
X206051800Y-88697600D02*
X201971600Y-88697600D01*
X132035300Y-95929700D02*
X130810000Y-97155000D01*
X143000300Y-95929700D02*
X132035300Y-95929700D01*
X144690200Y-94239800D02*
X143000300Y-95929700D01*
X165994800Y-94239800D02*
X144690200Y-94239800D01*
X166886200Y-95131200D02*
X165994800Y-94239800D01*
X199070900Y-115297600D02*
X198747800Y-115620700D01*
X199070900Y-114360100D02*
X199070900Y-115297600D01*
X186734600Y-117430400D02*
X187960000Y-116205000D01*
X183990300Y-117430400D02*
X186734600Y-117430400D01*
X183926700Y-117366800D02*
X183990300Y-117430400D01*
X193696200Y-101659000D02*
X191052600Y-101659000D01*
X194823600Y-100531600D02*
X193696200Y-101659000D01*
X207174800Y-100531600D02*
X194823600Y-100531600D01*
X207367000Y-100723800D02*
X207174800Y-100531600D01*
X207067600Y-109812700D02*
X207067600Y-112217700D01*
X206391300Y-109136400D02*
X207067600Y-109812700D01*
X163790400Y-118006200D02*
X163390700Y-117606500D01*
X188698800Y-118006200D02*
X163790400Y-118006200D01*
X190500000Y-116205000D02*
X188698800Y-118006200D01*
X170283900Y-98953000D02*
X171766000Y-97470900D01*
X171766000Y-97470900D02*
X171450000Y-97155000D01*
X188595000Y-95017100D02*
X188595000Y-90131700D01*
X194702800Y-74020600D02*
X208391400Y-74020600D01*
X193668200Y-75055200D02*
X194702800Y-74020600D01*
X151174600Y-114979600D02*
X152400000Y-116205000D01*
X149323400Y-114979600D02*
X151174600Y-114979600D01*
X148545400Y-115757600D02*
X149323400Y-114979600D01*
X148545400Y-117264800D02*
X148545400Y-115757600D01*
X148372200Y-117438000D02*
X148545400Y-117264800D01*
X125071500Y-117438000D02*
X148372200Y-117438000D01*
X123838500Y-116205000D02*
X125071500Y-117438000D01*
X114300000Y-116205000D02*
X123838500Y-116205000D01*
X207412100Y-95017100D02*
X209550000Y-97155000D01*
X199394100Y-95017100D02*
X207412100Y-95017100D01*
X199113500Y-95297700D02*
X199394100Y-95017100D01*
X195486800Y-95297700D02*
X199113500Y-95297700D01*
X195206200Y-95017100D02*
X195486800Y-95297700D01*
X188595000Y-95017100D02*
X195206200Y-95017100D01*
X171945700Y-97650700D02*
X171766000Y-97470900D01*
X177322300Y-97650700D02*
X171945700Y-97650700D01*
X179676800Y-95296200D02*
X177322300Y-97650700D01*
X180194900Y-95296200D02*
X179676800Y-95296200D01*
X180366100Y-95467400D02*
X180194900Y-95296200D01*
X188144700Y-95467400D02*
X180366100Y-95467400D01*
X188595000Y-95017100D02*
X188144700Y-95467400D01*
X206230300Y-84808600D02*
X206230300Y-85090000D01*
X207553900Y-83485000D02*
X206230300Y-84808600D01*
X209081600Y-83485000D02*
X207553900Y-83485000D01*
X205105000Y-85090000D02*
X206230300Y-85090000D01*
X161868100Y-98187200D02*
X161831600Y-98150700D01*
X161868100Y-99430000D02*
X161868100Y-98187200D01*
X187127700Y-114571500D02*
X187214200Y-114485000D01*
X184513500Y-114571500D02*
X187127700Y-114571500D01*
X182880000Y-116205000D02*
X184513500Y-114571500D01*
X187214200Y-114303700D02*
X187214200Y-114485000D01*
X90099300Y-99624300D02*
X87630000Y-97155000D01*
X115604900Y-99624300D02*
X90099300Y-99624300D01*
X115658000Y-99677400D02*
X115604900Y-99624300D01*
X144664000Y-116321000D02*
X144780000Y-116205000D01*
X136507800Y-116321000D02*
X144664000Y-116321000D01*
X132232100Y-112045300D02*
X136507800Y-116321000D01*
X116934800Y-112045300D02*
X132232100Y-112045300D01*
X146962400Y-114022600D02*
X144780000Y-116205000D01*
X153530600Y-114022600D02*
X146962400Y-114022600D01*
X155222600Y-115714600D02*
X153530600Y-114022600D01*
X160598700Y-115714600D02*
X155222600Y-115714600D01*
X163648400Y-118764300D02*
X160598700Y-115714600D01*
X171164600Y-118764300D02*
X163648400Y-118764300D01*
X173054400Y-120654100D02*
X171164600Y-118764300D01*
X181703500Y-120654100D02*
X173054400Y-120654100D01*
X183418500Y-118939100D02*
X181703500Y-120654100D01*
X190159200Y-118939100D02*
X183418500Y-118939100D01*
X192175700Y-116922600D02*
X190159200Y-118939100D01*
X192175700Y-115468000D02*
X192175700Y-116922600D01*
X191192700Y-114485000D02*
X192175700Y-115468000D01*
X187214200Y-114485000D02*
X191192700Y-114485000D01*
X190651200Y-98707000D02*
X201060300Y-98707000D01*
X189304700Y-100053500D02*
X190651200Y-98707000D01*
X182683400Y-100053500D02*
X189304700Y-100053500D01*
X178426700Y-104310200D02*
X182683400Y-100053500D01*
X178426700Y-104401100D02*
X178426700Y-104310200D01*
X185420000Y-97155000D02*
X186645300Y-97155000D01*
X204470000Y-97155000D02*
X203244700Y-97155000D01*
X203244700Y-96695400D02*
X203244700Y-97155000D01*
X202479000Y-95929700D02*
X203244700Y-96695400D01*
X200790500Y-95929700D02*
X202479000Y-95929700D01*
X200408100Y-96312100D02*
X200790500Y-95929700D01*
X191916400Y-96312100D02*
X200408100Y-96312100D01*
X191534000Y-95929700D02*
X191916400Y-96312100D01*
X187411100Y-95929700D02*
X191534000Y-95929700D01*
X186645300Y-96695500D02*
X187411100Y-95929700D01*
X186645300Y-97155000D02*
X186645300Y-96695500D01*
X185420000Y-59055000D02*
X184194700Y-59055000D01*
X173363200Y-60319200D02*
X173229000Y-60185000D01*
X183390000Y-60319200D02*
X173363200Y-60319200D01*
X184194700Y-59514500D02*
X183390000Y-60319200D01*
X184194700Y-59055000D02*
X184194700Y-59514500D01*
X90170000Y-116205000D02*
X91395300Y-116205000D01*
X187325000Y-92710000D02*
X186199700Y-92710000D01*
X151557700Y-95315400D02*
X157884000Y-95315400D01*
X150874700Y-95998400D02*
X151557700Y-95315400D01*
X168573700Y-93114700D02*
X159872700Y-93114700D01*
X168989700Y-92698700D02*
X168573700Y-93114700D01*
X170487800Y-92698700D02*
X168989700Y-92698700D01*
X170548400Y-92638100D02*
X170487800Y-92698700D01*
X175976000Y-92638100D02*
X170548400Y-92638100D01*
X177645500Y-94307600D02*
X175976000Y-92638100D01*
X184869400Y-94307600D02*
X177645500Y-94307600D01*
X186199700Y-92977300D02*
X184869400Y-94307600D01*
X186199700Y-92710000D02*
X186199700Y-92977300D01*
X106914000Y-118511000D02*
X109220000Y-116205000D01*
X102366000Y-118511000D02*
X106914000Y-118511000D01*
X102293000Y-118438000D02*
X102366000Y-118511000D01*
X101573000Y-118438000D02*
X102293000Y-118438000D01*
X101326100Y-118684900D02*
X101573000Y-118438000D01*
X99379500Y-118684900D02*
X101326100Y-118684900D01*
X98929200Y-118234600D02*
X99379500Y-118684900D01*
X92965400Y-118234600D02*
X98929200Y-118234600D01*
X91395300Y-116664500D02*
X92965400Y-118234600D01*
X91395300Y-116205000D02*
X91395300Y-116664500D01*
X131757200Y-113408200D02*
X111617300Y-113408200D01*
X132051600Y-113702600D02*
X131757200Y-113408200D01*
X174553900Y-107818400D02*
X180554000Y-107818400D01*
X173958800Y-108413500D02*
X174553900Y-107818400D01*
X170531000Y-108413500D02*
X173958800Y-108413500D01*
X170227400Y-108109900D02*
X170531000Y-108413500D01*
X167206700Y-108109900D02*
X170227400Y-108109900D01*
X166315500Y-109001100D02*
X167206700Y-108109900D01*
X166315500Y-109104800D02*
X166315500Y-109001100D01*
X191887300Y-106180000D02*
X206309800Y-106180000D01*
X189083600Y-108983700D02*
X191887300Y-106180000D01*
X185573300Y-108983700D02*
X189083600Y-108983700D01*
X186146400Y-113584400D02*
X177402000Y-113584400D01*
X186234900Y-113495900D02*
X186146400Y-113584400D01*
X186502700Y-113228100D02*
X186234900Y-113495900D01*
X191450300Y-113228100D02*
X186502700Y-113228100D01*
X193251400Y-115029200D02*
X191450300Y-113228100D01*
X186979600Y-106733100D02*
X185987700Y-107725000D01*
X188652500Y-106733100D02*
X186979600Y-106733100D01*
X191216600Y-104049900D02*
X196793000Y-104049900D01*
X190888600Y-103721900D02*
X191216600Y-104049900D01*
X189214000Y-103721900D02*
X190888600Y-103721900D01*
X204470000Y-116205000D02*
X204470000Y-114979700D01*
X191279500Y-100291100D02*
X190148200Y-100291100D01*
X191565800Y-100004800D02*
X191279500Y-100291100D01*
X201761900Y-112271600D02*
X201761900Y-109840000D01*
X204470000Y-114979700D02*
X201761900Y-112271600D01*
X191770000Y-86995000D02*
X179832000Y-86995000D01*
X197485000Y-92710000D02*
X191770000Y-86995000D01*
X212102400Y-61729100D02*
X228947700Y-61729100D01*
X211906500Y-61925000D02*
X212102400Y-61729100D01*
X192915000Y-61925000D02*
X211906500Y-61925000D01*
X187108600Y-67731400D02*
X192915000Y-61925000D01*
X161556400Y-67731400D02*
X187108600Y-67731400D01*
X158803900Y-70483900D02*
X161556400Y-67731400D01*
X156028900Y-70483900D02*
X158803900Y-70483900D01*
X154929500Y-71583300D02*
X156028900Y-70483900D01*
X149020200Y-71583300D02*
X154929500Y-71583300D01*
X148808800Y-71794700D02*
X149020200Y-71583300D01*
X146579200Y-71794700D02*
X148808800Y-71794700D01*
X145742000Y-70957500D02*
X146579200Y-71794700D01*
X137942900Y-70957500D02*
X145742000Y-70957500D01*
X130731600Y-89629600D02*
X129390800Y-89629600D01*
X131539700Y-90437700D02*
X130731600Y-89629600D01*
X131539700Y-90805000D02*
X131539700Y-90437700D01*
X132715000Y-90805000D02*
X131539700Y-90805000D01*
X229355600Y-59175600D02*
X230505000Y-60325000D01*
X213382000Y-59175600D02*
X229355600Y-59175600D01*
X211544000Y-61013600D02*
X213382000Y-59175600D01*
X192207200Y-61013600D02*
X211544000Y-61013600D01*
X191420000Y-61800800D02*
X192207200Y-61013600D01*
X154903500Y-61800800D02*
X191420000Y-61800800D01*
X154092900Y-62611400D02*
X154903500Y-61800800D01*
X154092900Y-63442100D02*
X154092900Y-62611400D01*
X151690200Y-65844800D02*
X154092900Y-63442100D01*
X146980100Y-65844800D02*
X151690200Y-65844800D01*
X144780000Y-68044900D02*
X146980100Y-65844800D01*
X144780000Y-68784100D02*
X144780000Y-68044900D01*
X143684700Y-69879400D02*
X144780000Y-68784100D01*
X137414200Y-69879400D02*
X143684700Y-69879400D01*
X136666400Y-70627200D02*
X137414200Y-69879400D01*
X126365000Y-81915000D02*
X132865000Y-81915000D01*
X205225900Y-95473400D02*
X205422900Y-95670400D01*
X199574700Y-95473400D02*
X205225900Y-95473400D01*
X199254700Y-95793400D02*
X199574700Y-95473400D01*
X192987100Y-95793400D02*
X199254700Y-95793400D01*
X192864100Y-95670400D02*
X192987100Y-95793400D01*
X134117700Y-83167700D02*
X149529200Y-83167700D01*
X132865000Y-81915000D02*
X134117700Y-83167700D01*
X193530400Y-92226000D02*
X193530400Y-93477600D01*
X190343800Y-89039400D02*
X193530400Y-92226000D01*
X187664500Y-89039400D02*
X190343800Y-89039400D01*
X186156500Y-90547400D02*
X187664500Y-89039400D01*
X166964900Y-90547400D02*
X186156500Y-90547400D01*
X166343500Y-91168800D02*
X166964900Y-90547400D01*
X164565200Y-91168800D02*
X166343500Y-91168800D01*
X214183100Y-103505000D02*
X213054000Y-104634100D01*
X215265000Y-103505000D02*
X214183100Y-103505000D01*
X200988600Y-70019100D02*
X192285500Y-70019100D01*
X161788000Y-77718700D02*
X155629800Y-77718700D01*
X168937100Y-70569600D02*
X161788000Y-77718700D01*
X174059800Y-70569600D02*
X168937100Y-70569600D01*
X175270500Y-71780300D02*
X174059800Y-70569600D01*
X187452900Y-71780300D02*
X175270500Y-71780300D01*
X188931300Y-70301900D02*
X187452900Y-71780300D01*
X215442000Y-79230400D02*
X207799400Y-79230400D01*
X218386700Y-82175100D02*
X215442000Y-79230400D01*
X218804500Y-82175100D02*
X218386700Y-82175100D01*
X226215300Y-98683800D02*
X226215300Y-96314300D01*
X225874500Y-99024600D02*
X226215300Y-98683800D01*
X123012000Y-73820000D02*
X123012000Y-75145300D01*
X141738800Y-75145300D02*
X123012000Y-75145300D01*
X125806000Y-63660000D02*
X125806000Y-64985300D01*
X125919200Y-64985300D02*
X125806000Y-64985300D01*
X126117600Y-65183700D02*
X125919200Y-64985300D01*
X119812000Y-68420000D02*
X119812000Y-67094700D01*
X122116900Y-67094700D02*
X122199100Y-67012500D01*
X119812000Y-67094700D02*
X122116900Y-67094700D01*
X120338300Y-59585300D02*
X119735600Y-60188000D01*
X122606000Y-59585300D02*
X120338300Y-59585300D01*
X128515900Y-74158100D02*
X126675800Y-74158100D01*
X128854000Y-73820000D02*
X128515900Y-74158100D01*
X122606000Y-58260000D02*
X122606000Y-59585300D01*
X129538600Y-67094700D02*
X131648000Y-64985300D01*
X125654000Y-67094700D02*
X129538600Y-67094700D01*
X125654000Y-68420000D02*
X125654000Y-67094700D01*
X131648000Y-63660000D02*
X131648000Y-64985300D01*
X134357900Y-74158100D02*
X134696000Y-73820000D01*
X133162500Y-74158100D02*
X134357900Y-74158100D01*
X128448000Y-58260000D02*
X128448000Y-56934700D01*
X121592900Y-56934700D02*
X128448000Y-56934700D01*
X119015400Y-59512200D02*
X121592900Y-56934700D01*
X131496000Y-70542000D02*
X131578000Y-70624000D01*
X131496000Y-68420000D02*
X131496000Y-70542000D01*
X139949300Y-74408700D02*
X138446600Y-74408700D01*
X140538000Y-73820000D02*
X139949300Y-74408700D01*
X141222600Y-67094700D02*
X143332000Y-64985300D01*
X137338000Y-67094700D02*
X141222600Y-67094700D01*
X137338000Y-68420000D02*
X137338000Y-67094700D01*
X143332000Y-63660000D02*
X143332000Y-64985300D01*
X146380000Y-73820000D02*
X146380000Y-75145300D01*
X146380000Y-75145300D02*
X145477400Y-75145300D01*
X151518200Y-71120000D02*
X147545600Y-71120000D01*
X153543000Y-69095200D02*
X151518200Y-71120000D01*
X140132000Y-58260000D02*
X140132000Y-59585300D01*
X140582300Y-60035600D02*
X156088600Y-60035600D01*
X140132000Y-59585300D02*
X140582300Y-60035600D01*
X143180000Y-68420000D02*
X143180000Y-67094700D01*
X149174000Y-63660000D02*
X149174000Y-64985300D01*
X145289400Y-64985300D02*
X143180000Y-67094700D01*
X149174000Y-64985300D02*
X145289400Y-64985300D01*
X152222000Y-73820000D02*
X152222000Y-75145300D01*
X147701000Y-69633100D02*
X146704700Y-70629400D01*
X147701000Y-69076000D02*
X147701000Y-69633100D01*
X153416000Y-58620100D02*
X153416000Y-58426600D01*
X152450800Y-59585300D02*
X153416000Y-58620100D01*
X145974000Y-59585300D02*
X152450800Y-59585300D01*
X145974000Y-58260000D02*
X145974000Y-59585300D01*
X152222000Y-75145300D02*
X151190500Y-75145300D01*
X152906600Y-67094700D02*
X155016000Y-64985300D01*
X149022000Y-67094700D02*
X152906600Y-67094700D01*
X149022000Y-68420000D02*
X149022000Y-67094700D01*
X155016000Y-63660000D02*
X155016000Y-64985300D01*
X158273100Y-72494700D02*
X158064000Y-72494700D01*
X158493700Y-72274100D02*
X158273100Y-72494700D01*
X158064000Y-73820000D02*
X158064000Y-72494700D01*
X151816000Y-58260000D02*
X151816000Y-56934700D01*
X155703100Y-56934700D02*
X156040000Y-57271600D01*
X151816000Y-56934700D02*
X155703100Y-56934700D01*
X79705000Y-64930000D02*
X79705000Y-66255300D01*
X154864000Y-69925100D02*
X154130900Y-70658200D01*
X154864000Y-68420000D02*
X154864000Y-69925100D01*
X150918700Y-76568600D02*
X151294600Y-76192700D01*
X120593200Y-76568600D02*
X150918700Y-76568600D01*
X111762600Y-67738000D02*
X120593200Y-76568600D01*
X81187700Y-67738000D02*
X111762600Y-67738000D01*
X79705000Y-66255300D02*
X81187700Y-67738000D01*
X226210000Y-120650000D02*
X219710000Y-120650000D01*
X216535000Y-102235000D02*
X215265000Y-100965000D01*
X231689200Y-102235000D02*
X216535000Y-102235000D01*
X231997500Y-102543300D02*
X231689200Y-102235000D01*
X239985300Y-116664600D02*
X239985300Y-116205000D01*
X240751000Y-117430300D02*
X239985300Y-116664600D01*
X255818900Y-117430300D02*
X240751000Y-117430300D01*
X256584700Y-116664500D02*
X255818900Y-117430300D01*
X256584700Y-116205000D02*
X256584700Y-116664500D01*
X238760000Y-116205000D02*
X239985300Y-116205000D01*
X257810000Y-116205000D02*
X257197400Y-116205000D01*
X257197400Y-116205000D02*
X256584700Y-116205000D01*
X258696300Y-114706100D02*
X261872600Y-114706100D01*
X257197400Y-116205000D02*
X258696300Y-114706100D01*
X303291300Y-63116600D02*
X304309700Y-64135000D01*
X300118900Y-63116600D02*
X303291300Y-63116600D01*
X305435000Y-64135000D02*
X304309700Y-64135000D01*
X282176600Y-71884000D02*
X271143200Y-71884000D01*
X285685800Y-68374800D02*
X282176600Y-71884000D01*
X298955700Y-68374800D02*
X285685800Y-68374800D01*
X295910000Y-116205000D02*
X297135300Y-116205000D01*
X298544900Y-114335900D02*
X301295900Y-114335900D01*
X297135300Y-115745500D02*
X298544900Y-114335900D01*
X297135300Y-116205000D02*
X297135300Y-115745500D01*
X257810000Y-97155000D02*
X259035300Y-97155000D01*
X305435000Y-79375000D02*
X304309700Y-79375000D01*
X303458400Y-80226300D02*
X297780100Y-80226300D01*
X304309700Y-79375000D02*
X303458400Y-80226300D01*
X260382900Y-95347900D02*
X266008000Y-95347900D01*
X259035300Y-96695500D02*
X260382900Y-95347900D01*
X259035300Y-97155000D02*
X259035300Y-96695500D01*
X269837900Y-91982600D02*
X294083900Y-91982600D01*
X269388200Y-91532900D02*
X269837900Y-91982600D01*
X305435000Y-69215000D02*
X306560300Y-69215000D01*
X302174700Y-79601000D02*
X295795300Y-79601000D01*
X303670700Y-78105000D02*
X302174700Y-79601000D01*
X313409000Y-78105000D02*
X303670700Y-78105000D01*
X314209200Y-77304800D02*
X313409000Y-78105000D01*
X314209200Y-73848400D02*
X314209200Y-77304800D01*
X313530400Y-73169600D02*
X314209200Y-73848400D01*
X310514900Y-73169600D02*
X313530400Y-73169600D01*
X306560300Y-69215000D02*
X310514900Y-73169600D01*
X264739800Y-69949900D02*
X264739800Y-68849900D01*
X257810000Y-76879700D02*
X264739800Y-69949900D01*
X305435000Y-61595000D02*
X304309700Y-61595000D01*
X303599300Y-62305400D02*
X298967200Y-62305400D01*
X304309700Y-61595000D02*
X303599300Y-62305400D01*
X257810000Y-78105000D02*
X257810000Y-76879700D01*
X302955900Y-71754100D02*
X302955900Y-70499100D01*
X297135300Y-77574700D02*
X302955900Y-71754100D01*
X297135300Y-78105000D02*
X297135300Y-77574700D01*
X295910000Y-78105000D02*
X297135300Y-78105000D01*
X257810000Y-59055000D02*
X259035300Y-59055000D01*
X306797800Y-74049000D02*
X306797800Y-74188700D01*
X305866600Y-73117800D02*
X306797800Y-74049000D01*
X305130900Y-73117800D02*
X305866600Y-73117800D01*
X303649600Y-71636500D02*
X305130900Y-73117800D01*
X303649600Y-68356600D02*
X303649600Y-71636500D01*
X302803700Y-67510700D02*
X303649600Y-68356600D01*
X302803700Y-67047000D02*
X302803700Y-67510700D01*
X298078700Y-62322000D02*
X302803700Y-67047000D01*
X261842800Y-62322000D02*
X298078700Y-62322000D01*
X259035300Y-59514500D02*
X261842800Y-62322000D01*
X259035300Y-59055000D02*
X259035300Y-59514500D01*
X313055000Y-61595000D02*
X311929700Y-61595000D01*
X281152400Y-60807400D02*
X279400000Y-59055000D01*
X299749500Y-60807400D02*
X281152400Y-60807400D01*
X300087200Y-60469700D02*
X299749500Y-60807400D01*
X310804400Y-60469700D02*
X300087200Y-60469700D01*
X311929700Y-61595000D02*
X310804400Y-60469700D01*
X277207300Y-80297700D02*
X274977300Y-80297700D01*
X279400000Y-78105000D02*
X277207300Y-80297700D01*
X276772000Y-119468000D02*
X269373800Y-119468000D01*
X279400000Y-116840000D02*
X276772000Y-119468000D01*
X244100400Y-56254600D02*
X273310900Y-56254600D01*
X241300000Y-59055000D02*
X244100400Y-56254600D01*
X234713000Y-63124100D02*
X232222900Y-65614200D01*
X237230900Y-63124100D02*
X234713000Y-63124100D01*
X241300000Y-59055000D02*
X237230900Y-63124100D01*
X310804400Y-75420300D02*
X311929700Y-74295000D01*
X301134700Y-75420300D02*
X310804400Y-75420300D01*
X298450000Y-78105000D02*
X301134700Y-75420300D01*
X313055000Y-74295000D02*
X311929700Y-74295000D01*
X300179300Y-95425700D02*
X303631100Y-95425700D01*
X298450000Y-97155000D02*
X300179300Y-95425700D01*
X261893600Y-98698600D02*
X264698100Y-98698600D01*
X260350000Y-97155000D02*
X261893600Y-98698600D01*
X280640600Y-68707000D02*
X281845200Y-69911600D01*
X280640600Y-68393400D02*
X280640600Y-68707000D01*
X310804400Y-83329700D02*
X311929700Y-84455000D01*
X303725600Y-83329700D02*
X310804400Y-83329700D01*
X301794600Y-81398700D02*
X303725600Y-83329700D01*
X285233700Y-81398700D02*
X301794600Y-81398700D01*
X281940000Y-78105000D02*
X285233700Y-81398700D01*
X313055000Y-84455000D02*
X311929700Y-84455000D01*
X243840000Y-97804200D02*
X242780800Y-98863400D01*
X243840000Y-97155000D02*
X243840000Y-97804200D01*
X283648400Y-98863400D02*
X281940000Y-97155000D01*
X284446200Y-98863400D02*
X283648400Y-98863400D01*
X243840000Y-78105000D02*
X241953800Y-79991200D01*
X246150500Y-80415500D02*
X263547900Y-80415500D01*
X243840000Y-78105000D02*
X246150500Y-80415500D01*
X300639700Y-59055000D02*
X300990000Y-59055000D01*
X299393800Y-60300900D02*
X300639700Y-59055000D01*
X292012100Y-60300900D02*
X299393800Y-60300900D01*
X289540800Y-57829600D02*
X292012100Y-60300900D01*
X264115400Y-57829600D02*
X289540800Y-57829600D01*
X262890000Y-59055000D02*
X264115400Y-57829600D01*
X260346100Y-69663100D02*
X259756700Y-69663100D01*
X261588000Y-68421200D02*
X260346100Y-69663100D01*
X276874000Y-61609000D02*
X287422300Y-61609000D01*
X274320000Y-59055000D02*
X276874000Y-61609000D01*
X308069700Y-67895000D02*
X304072300Y-67895000D01*
X311929700Y-71755000D02*
X308069700Y-67895000D01*
X313055000Y-71755000D02*
X311929700Y-71755000D01*
X266418500Y-93711000D02*
X267805200Y-93711000D01*
X266039000Y-94090500D02*
X266418500Y-93711000D01*
X239284500Y-94090500D02*
X266039000Y-94090500D01*
X236220000Y-97155000D02*
X239284500Y-94090500D01*
X229832400Y-61739600D02*
X228476900Y-63095100D01*
X233535400Y-61739600D02*
X229832400Y-61739600D01*
X236220000Y-59055000D02*
X233535400Y-61739600D01*
X313055000Y-81915000D02*
X311929700Y-81915000D01*
X255270000Y-97540600D02*
X256441500Y-98712100D01*
X255270000Y-97155000D02*
X255270000Y-97540600D01*
X259875200Y-68232400D02*
X258882800Y-69224800D01*
X260731700Y-68232400D02*
X259875200Y-68232400D01*
X293370000Y-59055000D02*
X293370000Y-57379300D01*
X256945700Y-57379300D02*
X293370000Y-57379300D01*
X255270000Y-59055000D02*
X256945700Y-57379300D01*
X293370000Y-57379300D02*
X313463000Y-57379300D01*
X310804400Y-80789700D02*
X311929700Y-81915000D01*
X299647700Y-80789700D02*
X310804400Y-80789700D01*
X299585800Y-80851600D02*
X299647700Y-80789700D01*
X296116600Y-80851600D02*
X299585800Y-80851600D01*
X293370000Y-78105000D02*
X296116600Y-80851600D01*
X236429800Y-73025000D02*
X230505000Y-73025000D01*
X241310700Y-68144100D02*
X236429800Y-73025000D01*
X241310700Y-66890200D02*
X241310700Y-68144100D01*
X251272000Y-56928900D02*
X241310700Y-66890200D01*
X293500400Y-56928900D02*
X251272000Y-56928900D01*
X293693400Y-56735900D02*
X293500400Y-56928900D01*
X313770600Y-56735900D02*
X293693400Y-56735900D01*
X314110600Y-57075900D02*
X313770600Y-56735900D01*
X314110600Y-57999400D02*
X314110600Y-57075900D01*
X313055000Y-59055000D02*
X314110600Y-57999400D01*
X305435000Y-86995000D02*
X304309700Y-86995000D01*
X304309700Y-87631900D02*
X304309700Y-86995000D01*
X300408800Y-91532800D02*
X304309700Y-87631900D01*
X296872000Y-91532800D02*
X300408800Y-91532800D01*
X296696400Y-91357200D02*
X296872000Y-91532800D01*
X270374500Y-91357200D02*
X296696400Y-91357200D01*
X269967800Y-90950500D02*
X270374500Y-91357200D01*
X233065100Y-93324900D02*
X265423700Y-93324900D01*
X230505000Y-95885000D02*
X233065100Y-93324900D01*
X313055000Y-86995000D02*
X311929700Y-86995000D01*
X306316800Y-92607900D02*
X311929700Y-86995000D01*
X293824900Y-92607900D02*
X306316800Y-92607900D01*
X293718900Y-92501900D02*
X293824900Y-92607900D01*
X271648600Y-92501900D02*
X293718900Y-92501900D01*
X269802400Y-94348100D02*
X271648600Y-92501900D01*
X239763800Y-98425000D02*
X230505000Y-98425000D01*
X239985400Y-98203400D02*
X239763800Y-98425000D01*
X239985400Y-96699100D02*
X239985400Y-98203400D01*
X242143700Y-94540800D02*
X239985400Y-96699100D01*
X267800200Y-94540800D02*
X242143700Y-94540800D01*
M02*
