G04 #@! TF.FileFunction,Legend,Bot*
%FSLAX46Y46*%
G04 Gerber Fmt 4.6, Leading zero omitted, Abs format (unit mm)*
G04 Created by KiCad (PCBNEW 4.0.7) date Sat Mar 24 11:27:51 2018*
%MOMM*%
%LPD*%
G01*
G04 APERTURE LIST*
%ADD10C,0.100000*%
%ADD11C,0.120000*%
%ADD12C,0.150000*%
%ADD13C,0.010000*%
%ADD14C,0.203200*%
%ADD15C,0.200000*%
G04 APERTURE END LIST*
D10*
D11*
X193880000Y-102235000D02*
X194780000Y-102235000D01*
X194330000Y-102685000D02*
X194330000Y-101785000D01*
X293370000Y-71325000D02*
X293370000Y-72225000D01*
X292920000Y-71775000D02*
X293820000Y-71775000D01*
D12*
X227965000Y-116205000D02*
X227965000Y-117475000D01*
X226695000Y-116205000D02*
X226695000Y-117475000D01*
X225425000Y-116205000D02*
X225425000Y-117475000D01*
X224155000Y-116205000D02*
X224155000Y-117475000D01*
X222885000Y-116205000D02*
X222885000Y-117475000D01*
X221615000Y-116205000D02*
X221615000Y-117475000D01*
X220345000Y-116205000D02*
X220345000Y-117475000D01*
X219075000Y-116205000D02*
X219075000Y-117475000D01*
X217805000Y-116205000D02*
X217805000Y-117475000D01*
X229235000Y-117475000D02*
X227965000Y-116205000D01*
X227965000Y-116205000D02*
X217805000Y-116205000D01*
X217805000Y-116205000D02*
X216535000Y-117475000D01*
X216535000Y-117475000D02*
X216535000Y-104775000D01*
X216535000Y-104775000D02*
X229235000Y-104775000D01*
X229235000Y-104775000D02*
X229235000Y-117475000D01*
X213995000Y-117475000D02*
X213995000Y-56515000D01*
X231775000Y-56515000D02*
X231775000Y-117475000D01*
X226695000Y-56515000D02*
X226695000Y-55245000D01*
X226695000Y-55245000D02*
X219075000Y-55245000D01*
X219075000Y-55245000D02*
X219075000Y-56515000D01*
X226695000Y-61595000D02*
X219075000Y-61595000D01*
X219075000Y-61595000D02*
X219075000Y-56515000D01*
X226695000Y-61595000D02*
X226695000Y-56515000D01*
X213995000Y-117475000D02*
X231775000Y-117475000D01*
X231775000Y-56515000D02*
X213995000Y-56515000D01*
D11*
X103960000Y-58755000D02*
X103960000Y-58985000D01*
X104480000Y-55085000D02*
X96760000Y-55085000D01*
X96760000Y-55085000D02*
X96760000Y-58985000D01*
X104480000Y-62095000D02*
X103960000Y-62095000D01*
X104480000Y-55085000D02*
X104480000Y-58985000D01*
X97280000Y-58755000D02*
X97280000Y-58985000D01*
X103960000Y-61585000D02*
X103960000Y-62095000D01*
X104480000Y-61585000D02*
X104480000Y-62095000D01*
X97820000Y-58755000D02*
X97280000Y-58755000D01*
X97280000Y-61585000D02*
X97280000Y-62095000D01*
X97280000Y-62095000D02*
X96760000Y-62095000D01*
X96760000Y-61585000D02*
X96760000Y-62095000D01*
X103960000Y-58755000D02*
X103420000Y-58755000D01*
X102320000Y-58755000D02*
X98920000Y-58755000D01*
D12*
X153670000Y-130810000D02*
X153670000Y-114300000D01*
X153670000Y-114300000D02*
X148590000Y-114300000D01*
X148590000Y-114300000D02*
X148590000Y-130810000D01*
X165100000Y-97790000D02*
X165100000Y-99060000D01*
X166370000Y-97790000D02*
X166370000Y-99060000D01*
X167640000Y-97790000D02*
X167640000Y-99060000D01*
X168910000Y-99060000D02*
X168910000Y-97790000D01*
X170180000Y-99060000D02*
X170180000Y-97790000D01*
X171450000Y-97790000D02*
X171450000Y-100330000D01*
X171450000Y-100330000D02*
X163830000Y-100330000D01*
X163830000Y-100330000D02*
X163830000Y-97790000D01*
X163830000Y-97790000D02*
X171450000Y-97790000D01*
X147320000Y-130810000D02*
X158750000Y-130810000D01*
X158750000Y-95250000D02*
X147320000Y-95250000D01*
X193040000Y-95250000D02*
X176530000Y-95250000D01*
X176530000Y-130810000D02*
X193040000Y-130810000D01*
X162560000Y-96520000D02*
X172720000Y-96520000D01*
X172720000Y-105410000D02*
X162560000Y-105410000D01*
X172720000Y-96520000D02*
X172720000Y-105410000D01*
X162560000Y-96520000D02*
X162560000Y-105410000D01*
X193040000Y-130810000D02*
X193040000Y-95250000D01*
X176530000Y-95250000D02*
X158750000Y-95250000D01*
X147320000Y-95250000D02*
X147320000Y-130810000D01*
X158750000Y-130810000D02*
X176530000Y-130810000D01*
D11*
X85090000Y-73405000D02*
X82760000Y-73405000D01*
X85090000Y-88395000D02*
X82970000Y-88395000D01*
X85090000Y-73405000D02*
X85090000Y-88395000D01*
X71000000Y-73405000D02*
X71000000Y-88395000D01*
X79800000Y-73405000D02*
X71000000Y-73405000D01*
X79600000Y-88395000D02*
X71000000Y-88395000D01*
X77105000Y-91320000D02*
G75*
G03X79105000Y-91320000I1000000J0D01*
G01*
X79105000Y-91320000D02*
X80875000Y-91320000D01*
X80875000Y-91320000D02*
X80875000Y-127120000D01*
X80875000Y-127120000D02*
X75335000Y-127120000D01*
X75335000Y-127120000D02*
X75335000Y-91320000D01*
X75335000Y-91320000D02*
X77105000Y-91320000D01*
X310245000Y-128390000D02*
G75*
G03X308245000Y-128390000I-1000000J0D01*
G01*
X308245000Y-128390000D02*
X306475000Y-128390000D01*
X306475000Y-128390000D02*
X306475000Y-92590000D01*
X306475000Y-92590000D02*
X312015000Y-92590000D01*
X312015000Y-92590000D02*
X312015000Y-128390000D01*
X312015000Y-128390000D02*
X310245000Y-128390000D01*
X208080000Y-74025000D02*
X208080000Y-72025000D01*
X205940000Y-72025000D02*
X205940000Y-74025000D01*
X211890000Y-74025000D02*
X211890000Y-72025000D01*
X209750000Y-72025000D02*
X209750000Y-74025000D01*
X88685000Y-62095000D02*
X88685000Y-61095000D01*
X90385000Y-61095000D02*
X90385000Y-62095000D01*
X92495000Y-62095000D02*
X92495000Y-61095000D01*
X94195000Y-61095000D02*
X94195000Y-62095000D01*
X107735000Y-62095000D02*
X107735000Y-61095000D01*
X109435000Y-61095000D02*
X109435000Y-62095000D01*
X111545000Y-62095000D02*
X111545000Y-61095000D01*
X113245000Y-61095000D02*
X113245000Y-62095000D01*
X164885000Y-62095000D02*
X164885000Y-61095000D01*
X166585000Y-61095000D02*
X166585000Y-62095000D01*
X168695000Y-62095000D02*
X168695000Y-61095000D01*
X170395000Y-61095000D02*
X170395000Y-62095000D01*
X196715000Y-96735000D02*
X195715000Y-96735000D01*
X195715000Y-95035000D02*
X196715000Y-95035000D01*
X303110000Y-109335000D02*
X303110000Y-110335000D01*
X301410000Y-110335000D02*
X301410000Y-109335000D01*
X84240000Y-114800000D02*
X84240000Y-113800000D01*
X85940000Y-113800000D02*
X85940000Y-114800000D01*
X133985000Y-92195000D02*
X121165000Y-92195000D01*
X121165000Y-92195000D02*
X121165000Y-89415000D01*
X121165000Y-89415000D02*
X133985000Y-89415000D01*
X133985000Y-89415000D02*
X133985000Y-92195000D01*
X135255000Y-92195000D02*
X136645000Y-92195000D01*
X136645000Y-92195000D02*
X136645000Y-90805000D01*
X180855000Y-89900000D02*
G75*
G03X180855000Y-87900000I0J1000000D01*
G01*
X180855000Y-87900000D02*
X180855000Y-86130000D01*
X180855000Y-86130000D02*
X211575000Y-86130000D01*
X211575000Y-86130000D02*
X211575000Y-91670000D01*
X211575000Y-91670000D02*
X180855000Y-91670000D01*
X180855000Y-91670000D02*
X180855000Y-89900000D01*
X176730000Y-87900000D02*
X176730000Y-89900000D01*
X178870000Y-89900000D02*
X178870000Y-87900000D01*
X142760000Y-93560000D02*
X141760000Y-93560000D01*
X141760000Y-91860000D02*
X142760000Y-91860000D01*
X139580000Y-86090000D02*
G75*
G03X139580000Y-84090000I0J1000000D01*
G01*
X139580000Y-84090000D02*
X139580000Y-82320000D01*
X139580000Y-82320000D02*
X165220000Y-82320000D01*
X165220000Y-82320000D02*
X165220000Y-87860000D01*
X165220000Y-87860000D02*
X139580000Y-87860000D01*
X139580000Y-87860000D02*
X139580000Y-86090000D01*
X123356000Y-61460000D02*
X123356000Y-60460000D01*
X125056000Y-60460000D02*
X125056000Y-61460000D01*
X129198000Y-61460000D02*
X129198000Y-60460000D01*
X130898000Y-60460000D02*
X130898000Y-61460000D01*
X140882000Y-61460000D02*
X140882000Y-60460000D01*
X142582000Y-60460000D02*
X142582000Y-61460000D01*
X146724000Y-61460000D02*
X146724000Y-60460000D01*
X148424000Y-60460000D02*
X148424000Y-61460000D01*
X152566000Y-61460000D02*
X152566000Y-60460000D01*
X154266000Y-60460000D02*
X154266000Y-61460000D01*
X120562000Y-71620000D02*
X120562000Y-70620000D01*
X122262000Y-70620000D02*
X122262000Y-71620000D01*
X126404000Y-71620000D02*
X126404000Y-70620000D01*
X128104000Y-70620000D02*
X128104000Y-71620000D01*
X132246000Y-71620000D02*
X132246000Y-70620000D01*
X133946000Y-70620000D02*
X133946000Y-71620000D01*
X138088000Y-71620000D02*
X138088000Y-70620000D01*
X139788000Y-70620000D02*
X139788000Y-71620000D01*
X143930000Y-71620000D02*
X143930000Y-70620000D01*
X145630000Y-70620000D02*
X145630000Y-71620000D01*
X149772000Y-71620000D02*
X149772000Y-70620000D01*
X151472000Y-70620000D02*
X151472000Y-71620000D01*
X155614000Y-71620000D02*
X155614000Y-70620000D01*
X157314000Y-70620000D02*
X157314000Y-71620000D01*
X77255000Y-62730000D02*
X77255000Y-61730000D01*
X78955000Y-61730000D02*
X78955000Y-62730000D01*
X227965000Y-130295000D02*
X215145000Y-130295000D01*
X215145000Y-130295000D02*
X215145000Y-127515000D01*
X215145000Y-127515000D02*
X227965000Y-127515000D01*
X227965000Y-127515000D02*
X227965000Y-130295000D01*
X229235000Y-130295000D02*
X230625000Y-130295000D01*
X230625000Y-130295000D02*
X230625000Y-128905000D01*
X193540000Y-73025000D02*
X193540000Y-77375000D01*
X193540000Y-77375000D02*
X198540000Y-77375000D01*
X198540000Y-77375000D02*
X198540000Y-73025000D01*
X192240000Y-79225000D02*
X191890000Y-79225000D01*
X191890000Y-79225000D02*
X191890000Y-80825000D01*
X191890000Y-80825000D02*
X190990000Y-80825000D01*
X190990000Y-80825000D02*
X190990000Y-73025000D01*
X190990000Y-73025000D02*
X201090000Y-73025000D01*
X201090000Y-73025000D02*
X201090000Y-80825000D01*
X201090000Y-80825000D02*
X200190000Y-80825000D01*
X200190000Y-80825000D02*
X200190000Y-79225000D01*
X200190000Y-79225000D02*
X199840000Y-79225000D01*
X190990000Y-79225000D02*
X191890000Y-79225000D01*
X201090000Y-79225000D02*
X200190000Y-79225000D01*
X191740000Y-76875000D02*
X191740000Y-75275000D01*
X191740000Y-75275000D02*
X192740000Y-75275000D01*
X192740000Y-75275000D02*
X192740000Y-76875000D01*
X192740000Y-76875000D02*
X191740000Y-76875000D01*
X200340000Y-76875000D02*
X200340000Y-75275000D01*
X200340000Y-75275000D02*
X199340000Y-75275000D01*
X199340000Y-75275000D02*
X199340000Y-76875000D01*
X199340000Y-76875000D02*
X200340000Y-76875000D01*
X192740000Y-75275000D02*
X192740000Y-73025000D01*
X192240000Y-75275000D02*
X192240000Y-73025000D01*
X192240000Y-79225000D02*
X192240000Y-80425000D01*
X177665000Y-73025000D02*
X177665000Y-77375000D01*
X177665000Y-77375000D02*
X182665000Y-77375000D01*
X182665000Y-77375000D02*
X182665000Y-73025000D01*
X176365000Y-79225000D02*
X176015000Y-79225000D01*
X176015000Y-79225000D02*
X176015000Y-80825000D01*
X176015000Y-80825000D02*
X175115000Y-80825000D01*
X175115000Y-80825000D02*
X175115000Y-73025000D01*
X175115000Y-73025000D02*
X185215000Y-73025000D01*
X185215000Y-73025000D02*
X185215000Y-80825000D01*
X185215000Y-80825000D02*
X184315000Y-80825000D01*
X184315000Y-80825000D02*
X184315000Y-79225000D01*
X184315000Y-79225000D02*
X183965000Y-79225000D01*
X175115000Y-79225000D02*
X176015000Y-79225000D01*
X185215000Y-79225000D02*
X184315000Y-79225000D01*
X175865000Y-76875000D02*
X175865000Y-75275000D01*
X175865000Y-75275000D02*
X176865000Y-75275000D01*
X176865000Y-75275000D02*
X176865000Y-76875000D01*
X176865000Y-76875000D02*
X175865000Y-76875000D01*
X184465000Y-76875000D02*
X184465000Y-75275000D01*
X184465000Y-75275000D02*
X183465000Y-75275000D01*
X183465000Y-75275000D02*
X183465000Y-76875000D01*
X183465000Y-76875000D02*
X184465000Y-76875000D01*
X176865000Y-75275000D02*
X176865000Y-73025000D01*
X176365000Y-75275000D02*
X176365000Y-73025000D01*
X176365000Y-79225000D02*
X176365000Y-80425000D01*
X301410000Y-73525000D02*
X301410000Y-72525000D01*
X303110000Y-72525000D02*
X303110000Y-73525000D01*
X290052000Y-67891000D02*
X288052000Y-67891000D01*
X288052000Y-70031000D02*
X290052000Y-70031000D01*
X308245000Y-57665000D02*
G75*
G03X310245000Y-57665000I1000000J0D01*
G01*
X310245000Y-57665000D02*
X312015000Y-57665000D01*
X312015000Y-57665000D02*
X312015000Y-88385000D01*
X312015000Y-88385000D02*
X306475000Y-88385000D01*
X306475000Y-88385000D02*
X306475000Y-57665000D01*
X306475000Y-57665000D02*
X308245000Y-57665000D01*
X118865000Y-89535000D02*
X118865000Y-92195000D01*
X118865000Y-92195000D02*
X116085000Y-92195000D01*
X116085000Y-92195000D02*
X116085000Y-89535000D01*
X116085000Y-89535000D02*
X118865000Y-89535000D01*
X118865000Y-88265000D02*
X118865000Y-86875000D01*
X118865000Y-86875000D02*
X117475000Y-86875000D01*
D12*
X198501000Y-101993700D02*
X198501000Y-100825300D01*
X198501000Y-97421700D02*
X198501000Y-98590100D01*
X193929000Y-98183700D02*
X193929000Y-98590100D01*
X193929000Y-101231700D02*
X193929000Y-100825300D01*
X198044524Y-100824127D02*
G75*
G02X194386200Y-100825300I-1829524J1129127D01*
G01*
X194386626Y-98589396D02*
G75*
G02X198043800Y-98590100I1828374J-1105604D01*
G01*
X194691000Y-101993700D02*
X198501000Y-101993700D01*
X194691000Y-101993700D02*
X193929000Y-101231700D01*
X194691000Y-97421700D02*
X198501000Y-97421700D01*
X194691000Y-97421700D02*
X193929000Y-98183700D01*
X295516300Y-74676000D02*
X296684700Y-74676000D01*
X300088300Y-74676000D02*
X298919900Y-74676000D01*
X299326300Y-70104000D02*
X298919900Y-70104000D01*
X296278300Y-70104000D02*
X296684700Y-70104000D01*
X296685873Y-74219524D02*
G75*
G02X296684700Y-70561200I1129127J1829524D01*
G01*
X298920604Y-70561626D02*
G75*
G02X298919900Y-74218800I-1105604J-1828374D01*
G01*
X295516300Y-70866000D02*
X295516300Y-74676000D01*
X295516300Y-70866000D02*
X296278300Y-70104000D01*
X300088300Y-70866000D02*
X300088300Y-74676000D01*
X300088300Y-70866000D02*
X299326300Y-70104000D01*
D13*
G36*
X224971736Y-78339381D02*
X225184735Y-78363438D01*
X226026156Y-78498104D01*
X226277333Y-78709798D01*
X226124503Y-78994237D01*
X225895985Y-79647287D01*
X226263051Y-80114251D01*
X226786375Y-80221667D01*
X227667679Y-79913624D01*
X228189954Y-79144171D01*
X228247222Y-78740000D01*
X228157200Y-78391688D01*
X227783876Y-78208950D01*
X227346945Y-78177934D01*
X227346945Y-78512281D01*
X227812508Y-78588800D01*
X227817645Y-78865059D01*
X227372388Y-79333390D01*
X227030832Y-79461609D01*
X226565269Y-79385089D01*
X226560132Y-79108831D01*
X227005389Y-78640499D01*
X227346945Y-78512281D01*
X227346945Y-78177934D01*
X226972361Y-78151343D01*
X226042361Y-78164303D01*
X224995445Y-78207924D01*
X224642427Y-78265387D01*
X224971736Y-78339381D01*
X224971736Y-78339381D01*
G37*
X224971736Y-78339381D02*
X225184735Y-78363438D01*
X226026156Y-78498104D01*
X226277333Y-78709798D01*
X226124503Y-78994237D01*
X225895985Y-79647287D01*
X226263051Y-80114251D01*
X226786375Y-80221667D01*
X227667679Y-79913624D01*
X228189954Y-79144171D01*
X228247222Y-78740000D01*
X228157200Y-78391688D01*
X227783876Y-78208950D01*
X227346945Y-78177934D01*
X227346945Y-78512281D01*
X227812508Y-78588800D01*
X227817645Y-78865059D01*
X227372388Y-79333390D01*
X227030832Y-79461609D01*
X226565269Y-79385089D01*
X226560132Y-79108831D01*
X227005389Y-78640499D01*
X227346945Y-78512281D01*
X227346945Y-78177934D01*
X226972361Y-78151343D01*
X226042361Y-78164303D01*
X224995445Y-78207924D01*
X224642427Y-78265387D01*
X224971736Y-78339381D01*
G36*
X225304334Y-82840556D02*
X225606303Y-83142228D01*
X226356714Y-83218608D01*
X226659722Y-83220278D01*
X227576811Y-83168664D01*
X228008251Y-82921218D01*
X228171647Y-82339035D01*
X228182653Y-82248134D01*
X228091650Y-81391282D01*
X227771481Y-81075298D01*
X227042444Y-80963903D01*
X226669264Y-80975751D01*
X226669264Y-81708787D01*
X227047777Y-81773889D01*
X227440697Y-82075767D01*
X227271592Y-82396741D01*
X226650180Y-82615103D01*
X226271666Y-82550000D01*
X225878747Y-82248122D01*
X226047852Y-81927148D01*
X226669264Y-81708787D01*
X226669264Y-80975751D01*
X226248550Y-80989109D01*
X225530732Y-81183725D01*
X225271636Y-81698529D01*
X225248611Y-82161945D01*
X225304334Y-82840556D01*
X225304334Y-82840556D01*
G37*
X225304334Y-82840556D02*
X225606303Y-83142228D01*
X226356714Y-83218608D01*
X226659722Y-83220278D01*
X227576811Y-83168664D01*
X228008251Y-82921218D01*
X228171647Y-82339035D01*
X228182653Y-82248134D01*
X228091650Y-81391282D01*
X227771481Y-81075298D01*
X227042444Y-80963903D01*
X226669264Y-80975751D01*
X226669264Y-81708787D01*
X227047777Y-81773889D01*
X227440697Y-82075767D01*
X227271592Y-82396741D01*
X226650180Y-82615103D01*
X226271666Y-82550000D01*
X225878747Y-82248122D01*
X226047852Y-81927148D01*
X226669264Y-81708787D01*
X226669264Y-80975751D01*
X226248550Y-80989109D01*
X225530732Y-81183725D01*
X225271636Y-81698529D01*
X225248611Y-82161945D01*
X225304334Y-82840556D01*
G36*
X225297121Y-85712254D02*
X225720373Y-86008900D01*
X226619254Y-86141285D01*
X226747916Y-86150979D01*
X227686751Y-86188774D01*
X228119111Y-86034589D01*
X228241207Y-85560016D01*
X228247222Y-85169768D01*
X228081044Y-84283168D01*
X227713562Y-83875295D01*
X227188888Y-83898096D01*
X227188888Y-84807778D01*
X227479264Y-84936854D01*
X227424074Y-85042963D01*
X227005409Y-85085184D01*
X226953703Y-85042963D01*
X227002129Y-84833237D01*
X227188888Y-84807778D01*
X227188888Y-83898096D01*
X227017708Y-83905536D01*
X226655229Y-84105951D01*
X226214196Y-84332003D01*
X226130555Y-84156490D01*
X225954166Y-84001381D01*
X225954166Y-84807778D01*
X226130555Y-84984167D01*
X225954166Y-85160556D01*
X225777777Y-84984167D01*
X225954166Y-84807778D01*
X225954166Y-84001381D01*
X225872237Y-83929335D01*
X225582305Y-83981972D01*
X225170675Y-84489425D01*
X225141333Y-85117428D01*
X225297121Y-85712254D01*
X225297121Y-85712254D01*
G37*
X225297121Y-85712254D02*
X225720373Y-86008900D01*
X226619254Y-86141285D01*
X226747916Y-86150979D01*
X227686751Y-86188774D01*
X228119111Y-86034589D01*
X228241207Y-85560016D01*
X228247222Y-85169768D01*
X228081044Y-84283168D01*
X227713562Y-83875295D01*
X227188888Y-83898096D01*
X227188888Y-84807778D01*
X227479264Y-84936854D01*
X227424074Y-85042963D01*
X227005409Y-85085184D01*
X226953703Y-85042963D01*
X227002129Y-84833237D01*
X227188888Y-84807778D01*
X227188888Y-83898096D01*
X227017708Y-83905536D01*
X226655229Y-84105951D01*
X226214196Y-84332003D01*
X226130555Y-84156490D01*
X225954166Y-84001381D01*
X225954166Y-84807778D01*
X226130555Y-84984167D01*
X225954166Y-85160556D01*
X225777777Y-84984167D01*
X225954166Y-84807778D01*
X225954166Y-84001381D01*
X225872237Y-83929335D01*
X225582305Y-83981972D01*
X225170675Y-84489425D01*
X225141333Y-85117428D01*
X225297121Y-85712254D01*
G36*
X225256224Y-88162939D02*
X225601388Y-88335556D01*
X226070854Y-88145066D01*
X226130555Y-87982778D01*
X226437108Y-87735081D01*
X227175721Y-87630027D01*
X227188888Y-87630000D01*
X228029106Y-87472233D01*
X228247222Y-87100834D01*
X228039465Y-86752053D01*
X227333043Y-86593184D01*
X226659722Y-86571667D01*
X225680108Y-86608222D01*
X225215977Y-86787902D01*
X225078285Y-87215732D01*
X225072222Y-87453611D01*
X225256224Y-88162939D01*
X225256224Y-88162939D01*
G37*
X225256224Y-88162939D02*
X225601388Y-88335556D01*
X226070854Y-88145066D01*
X226130555Y-87982778D01*
X226437108Y-87735081D01*
X227175721Y-87630027D01*
X227188888Y-87630000D01*
X228029106Y-87472233D01*
X228247222Y-87100834D01*
X228039465Y-86752053D01*
X227333043Y-86593184D01*
X226659722Y-86571667D01*
X225680108Y-86608222D01*
X225215977Y-86787902D01*
X225078285Y-87215732D01*
X225072222Y-87453611D01*
X225256224Y-88162939D01*
G36*
X223814196Y-90925429D02*
X224361203Y-91090401D01*
X225433756Y-91153903D01*
X225954166Y-91157778D01*
X227185857Y-91145469D01*
X227871764Y-91062111D01*
X228171661Y-90838061D01*
X228245317Y-90403675D01*
X228247222Y-90158241D01*
X228171668Y-89350291D01*
X228012037Y-88923519D01*
X227529459Y-88763916D01*
X226667199Y-88689113D01*
X226659722Y-88689055D01*
X226659722Y-89815441D01*
X227262204Y-89853573D01*
X227315248Y-89964008D01*
X227283797Y-89978067D01*
X226583467Y-90047854D01*
X226225464Y-89991139D01*
X226081601Y-89878844D01*
X226550170Y-89817767D01*
X226659722Y-89815441D01*
X226659722Y-88689055D01*
X226567899Y-88688334D01*
X225657601Y-88807132D01*
X225229153Y-89228767D01*
X225174439Y-89393889D01*
X224743103Y-89970358D01*
X224325521Y-90099445D01*
X223776524Y-90331475D01*
X223661111Y-90628612D01*
X223814196Y-90925429D01*
X223814196Y-90925429D01*
G37*
X223814196Y-90925429D02*
X224361203Y-91090401D01*
X225433756Y-91153903D01*
X225954166Y-91157778D01*
X227185857Y-91145469D01*
X227871764Y-91062111D01*
X228171661Y-90838061D01*
X228245317Y-90403675D01*
X228247222Y-90158241D01*
X228171668Y-89350291D01*
X228012037Y-88923519D01*
X227529459Y-88763916D01*
X226667199Y-88689113D01*
X226659722Y-88689055D01*
X226659722Y-89815441D01*
X227262204Y-89853573D01*
X227315248Y-89964008D01*
X227283797Y-89978067D01*
X226583467Y-90047854D01*
X226225464Y-89991139D01*
X226081601Y-89878844D01*
X226550170Y-89817767D01*
X226659722Y-89815441D01*
X226659722Y-88689055D01*
X226567899Y-88688334D01*
X225657601Y-88807132D01*
X225229153Y-89228767D01*
X225174439Y-89393889D01*
X224743103Y-89970358D01*
X224325521Y-90099445D01*
X223776524Y-90331475D01*
X223661111Y-90628612D01*
X223814196Y-90925429D01*
G36*
X218633962Y-76157361D02*
X218984223Y-76542417D01*
X219339583Y-76630231D01*
X219978862Y-76536248D01*
X220105049Y-76170582D01*
X219643243Y-75778705D01*
X219604166Y-75763130D01*
X219096866Y-75434037D01*
X219221311Y-75143292D01*
X219904357Y-74959989D01*
X220486111Y-74930000D01*
X221369752Y-75008242D01*
X221861239Y-75203700D01*
X221897222Y-75282778D01*
X221628767Y-75625305D01*
X221544444Y-75635556D01*
X221235650Y-75923033D01*
X221191666Y-76190590D01*
X221357266Y-76682093D01*
X221741152Y-76687660D01*
X222173954Y-76310871D01*
X222486302Y-75655308D01*
X222536951Y-75367856D01*
X222517232Y-74523483D01*
X222124606Y-74059228D01*
X221655007Y-73846157D01*
X220287500Y-73655443D01*
X219604166Y-73771393D01*
X218874081Y-74085528D01*
X218586092Y-74629343D01*
X218545833Y-75295982D01*
X218633962Y-76157361D01*
X218633962Y-76157361D01*
G37*
X218633962Y-76157361D02*
X218984223Y-76542417D01*
X219339583Y-76630231D01*
X219978862Y-76536248D01*
X220105049Y-76170582D01*
X219643243Y-75778705D01*
X219604166Y-75763130D01*
X219096866Y-75434037D01*
X219221311Y-75143292D01*
X219904357Y-74959989D01*
X220486111Y-74930000D01*
X221369752Y-75008242D01*
X221861239Y-75203700D01*
X221897222Y-75282778D01*
X221628767Y-75625305D01*
X221544444Y-75635556D01*
X221235650Y-75923033D01*
X221191666Y-76190590D01*
X221357266Y-76682093D01*
X221741152Y-76687660D01*
X222173954Y-76310871D01*
X222486302Y-75655308D01*
X222536951Y-75367856D01*
X222517232Y-74523483D01*
X222124606Y-74059228D01*
X221655007Y-73846157D01*
X220287500Y-73655443D01*
X219604166Y-73771393D01*
X218874081Y-74085528D01*
X218586092Y-74629343D01*
X218545833Y-75295982D01*
X218633962Y-76157361D01*
G36*
X218310775Y-78006784D02*
X218722222Y-78105000D01*
X219311822Y-78354452D01*
X219427777Y-78810556D01*
X219531647Y-79251472D01*
X219962952Y-79459969D01*
X220901234Y-79515842D01*
X221015277Y-79516112D01*
X221962025Y-79446043D01*
X222529934Y-79268762D01*
X222602777Y-79163334D01*
X222296708Y-78913743D01*
X221565264Y-78810556D01*
X220750561Y-78701811D01*
X220309722Y-78457778D01*
X220458763Y-78217727D01*
X221177458Y-78107603D01*
X221347235Y-78105000D01*
X222268668Y-77994144D01*
X222598953Y-77638426D01*
X222602777Y-77575834D01*
X222449692Y-77279016D01*
X221902685Y-77114044D01*
X220830132Y-77050542D01*
X220309722Y-77046667D01*
X219023512Y-77081995D01*
X218308632Y-77208227D01*
X218033457Y-77455739D01*
X218016666Y-77575834D01*
X218310775Y-78006784D01*
X218310775Y-78006784D01*
G37*
X218310775Y-78006784D02*
X218722222Y-78105000D01*
X219311822Y-78354452D01*
X219427777Y-78810556D01*
X219531647Y-79251472D01*
X219962952Y-79459969D01*
X220901234Y-79515842D01*
X221015277Y-79516112D01*
X221962025Y-79446043D01*
X222529934Y-79268762D01*
X222602777Y-79163334D01*
X222296708Y-78913743D01*
X221565264Y-78810556D01*
X220750561Y-78701811D01*
X220309722Y-78457778D01*
X220458763Y-78217727D01*
X221177458Y-78107603D01*
X221347235Y-78105000D01*
X222268668Y-77994144D01*
X222598953Y-77638426D01*
X222602777Y-77575834D01*
X222449692Y-77279016D01*
X221902685Y-77114044D01*
X220830132Y-77050542D01*
X220309722Y-77046667D01*
X219023512Y-77081995D01*
X218308632Y-77208227D01*
X218033457Y-77455739D01*
X218016666Y-77575834D01*
X218310775Y-78006784D01*
G36*
X219659890Y-82135000D02*
X219961859Y-82436673D01*
X220712269Y-82513053D01*
X221015277Y-82514723D01*
X221932367Y-82463109D01*
X222363807Y-82215663D01*
X222527203Y-81633479D01*
X222538209Y-81542578D01*
X222447206Y-80685727D01*
X222127037Y-80369742D01*
X221397999Y-80258347D01*
X221024819Y-80270195D01*
X221024819Y-81003231D01*
X221403333Y-81068334D01*
X221796252Y-81370212D01*
X221627147Y-81691186D01*
X221005735Y-81909547D01*
X220627222Y-81844445D01*
X220234302Y-81542567D01*
X220403407Y-81221593D01*
X221024819Y-81003231D01*
X221024819Y-80270195D01*
X220604105Y-80283554D01*
X219886288Y-80478170D01*
X219627192Y-80992974D01*
X219604166Y-81456389D01*
X219659890Y-82135000D01*
X219659890Y-82135000D01*
G37*
X219659890Y-82135000D02*
X219961859Y-82436673D01*
X220712269Y-82513053D01*
X221015277Y-82514723D01*
X221932367Y-82463109D01*
X222363807Y-82215663D01*
X222527203Y-81633479D01*
X222538209Y-81542578D01*
X222447206Y-80685727D01*
X222127037Y-80369742D01*
X221397999Y-80258347D01*
X221024819Y-80270195D01*
X221024819Y-81003231D01*
X221403333Y-81068334D01*
X221796252Y-81370212D01*
X221627147Y-81691186D01*
X221005735Y-81909547D01*
X220627222Y-81844445D01*
X220234302Y-81542567D01*
X220403407Y-81221593D01*
X221024819Y-81003231D01*
X221024819Y-80270195D01*
X220604105Y-80283554D01*
X219886288Y-80478170D01*
X219627192Y-80992974D01*
X219604166Y-81456389D01*
X219659890Y-82135000D01*
G36*
X219611780Y-84635161D02*
X219956944Y-84807778D01*
X220426410Y-84617288D01*
X220486111Y-84455000D01*
X220792663Y-84207304D01*
X221531277Y-84102250D01*
X221544444Y-84102223D01*
X222384661Y-83944456D01*
X222602777Y-83573056D01*
X222395020Y-83224275D01*
X221688599Y-83065406D01*
X221015277Y-83043889D01*
X220035664Y-83080444D01*
X219571533Y-83260124D01*
X219433840Y-83687954D01*
X219427777Y-83925834D01*
X219611780Y-84635161D01*
X219611780Y-84635161D01*
G37*
X219611780Y-84635161D02*
X219956944Y-84807778D01*
X220426410Y-84617288D01*
X220486111Y-84455000D01*
X220792663Y-84207304D01*
X221531277Y-84102250D01*
X221544444Y-84102223D01*
X222384661Y-83944456D01*
X222602777Y-83573056D01*
X222395020Y-83224275D01*
X221688599Y-83065406D01*
X221015277Y-83043889D01*
X220035664Y-83080444D01*
X219571533Y-83260124D01*
X219433840Y-83687954D01*
X219427777Y-83925834D01*
X219611780Y-84635161D01*
G36*
X218169752Y-87397651D02*
X218716759Y-87562624D01*
X219789312Y-87626126D01*
X220309722Y-87630000D01*
X221541412Y-87617691D01*
X222227320Y-87534333D01*
X222527216Y-87310283D01*
X222600873Y-86875897D01*
X222602777Y-86630463D01*
X222527223Y-85822514D01*
X222367592Y-85395741D01*
X221885014Y-85236138D01*
X221032785Y-85162206D01*
X221032785Y-85932090D01*
X221344342Y-85984586D01*
X221853555Y-86284770D01*
X221691059Y-86496389D01*
X220944722Y-86571667D01*
X220319589Y-86500753D01*
X220317449Y-86253571D01*
X220391842Y-86172047D01*
X221032785Y-85932090D01*
X221032785Y-85162206D01*
X221022755Y-85161335D01*
X220923454Y-85160556D01*
X220013156Y-85279354D01*
X219584709Y-85700990D01*
X219529994Y-85866112D01*
X219098658Y-86442580D01*
X218681077Y-86571667D01*
X218132079Y-86803697D01*
X218016666Y-87100834D01*
X218169752Y-87397651D01*
X218169752Y-87397651D01*
G37*
X218169752Y-87397651D02*
X218716759Y-87562624D01*
X219789312Y-87626126D01*
X220309722Y-87630000D01*
X221541412Y-87617691D01*
X222227320Y-87534333D01*
X222527216Y-87310283D01*
X222600873Y-86875897D01*
X222602777Y-86630463D01*
X222527223Y-85822514D01*
X222367592Y-85395741D01*
X221885014Y-85236138D01*
X221032785Y-85162206D01*
X221032785Y-85932090D01*
X221344342Y-85984586D01*
X221853555Y-86284770D01*
X221691059Y-86496389D01*
X220944722Y-86571667D01*
X220319589Y-86500753D01*
X220317449Y-86253571D01*
X220391842Y-86172047D01*
X221032785Y-85932090D01*
X221032785Y-85162206D01*
X221022755Y-85161335D01*
X220923454Y-85160556D01*
X220013156Y-85279354D01*
X219584709Y-85700990D01*
X219529994Y-85866112D01*
X219098658Y-86442580D01*
X218681077Y-86571667D01*
X218132079Y-86803697D01*
X218016666Y-87100834D01*
X218169752Y-87397651D01*
D12*
X197246666Y-105652143D02*
X197294285Y-105699762D01*
X197437142Y-105747381D01*
X197532380Y-105747381D01*
X197675238Y-105699762D01*
X197770476Y-105604524D01*
X197818095Y-105509286D01*
X197865714Y-105318810D01*
X197865714Y-105175952D01*
X197818095Y-104985476D01*
X197770476Y-104890238D01*
X197675238Y-104795000D01*
X197532380Y-104747381D01*
X197437142Y-104747381D01*
X197294285Y-104795000D01*
X197246666Y-104842619D01*
X196818095Y-105747381D02*
X196818095Y-104747381D01*
X196437142Y-104747381D01*
X196341904Y-104795000D01*
X196294285Y-104842619D01*
X196246666Y-104937857D01*
X196246666Y-105080714D01*
X196294285Y-105175952D01*
X196341904Y-105223571D01*
X196437142Y-105271190D01*
X196818095Y-105271190D01*
X195294285Y-105747381D02*
X195865714Y-105747381D01*
X195580000Y-105747381D02*
X195580000Y-104747381D01*
X195675238Y-104890238D01*
X195770476Y-104985476D01*
X195865714Y-105033095D01*
X290667143Y-73358334D02*
X290714762Y-73310715D01*
X290762381Y-73167858D01*
X290762381Y-73072620D01*
X290714762Y-72929762D01*
X290619524Y-72834524D01*
X290524286Y-72786905D01*
X290333810Y-72739286D01*
X290190952Y-72739286D01*
X290000476Y-72786905D01*
X289905238Y-72834524D01*
X289810000Y-72929762D01*
X289762381Y-73072620D01*
X289762381Y-73167858D01*
X289810000Y-73310715D01*
X289857619Y-73358334D01*
X290762381Y-73786905D02*
X289762381Y-73786905D01*
X289762381Y-74167858D01*
X289810000Y-74263096D01*
X289857619Y-74310715D01*
X289952857Y-74358334D01*
X290095714Y-74358334D01*
X290190952Y-74310715D01*
X290238571Y-74263096D01*
X290286190Y-74167858D01*
X290286190Y-73786905D01*
X289762381Y-74691667D02*
X289762381Y-75310715D01*
X290143333Y-74977381D01*
X290143333Y-75120239D01*
X290190952Y-75215477D01*
X290238571Y-75263096D01*
X290333810Y-75310715D01*
X290571905Y-75310715D01*
X290667143Y-75263096D01*
X290714762Y-75215477D01*
X290762381Y-75120239D01*
X290762381Y-74834524D01*
X290714762Y-74739286D01*
X290667143Y-74691667D01*
X212177381Y-86233095D02*
X212986905Y-86233095D01*
X213082143Y-86280714D01*
X213129762Y-86328333D01*
X213177381Y-86423571D01*
X213177381Y-86614048D01*
X213129762Y-86709286D01*
X213082143Y-86756905D01*
X212986905Y-86804524D01*
X212177381Y-86804524D01*
X212272619Y-87233095D02*
X212225000Y-87280714D01*
X212177381Y-87375952D01*
X212177381Y-87614048D01*
X212225000Y-87709286D01*
X212272619Y-87756905D01*
X212367857Y-87804524D01*
X212463095Y-87804524D01*
X212605952Y-87756905D01*
X213177381Y-87185476D01*
X213177381Y-87804524D01*
D14*
X299030572Y-100269524D02*
X299030572Y-98999524D01*
X298159715Y-100269524D02*
X298812858Y-99543810D01*
X298159715Y-98999524D02*
X299030572Y-99725238D01*
X297579143Y-99120476D02*
X297506572Y-99060000D01*
X297361429Y-98999524D01*
X296998572Y-98999524D01*
X296853429Y-99060000D01*
X296780858Y-99120476D01*
X296708286Y-99241429D01*
X296708286Y-99362381D01*
X296780858Y-99543810D01*
X297651715Y-100269524D01*
X296708286Y-100269524D01*
X295402000Y-99422857D02*
X295402000Y-100269524D01*
X295764857Y-98939048D02*
X296127714Y-99846190D01*
X295184286Y-99846190D01*
X92564857Y-119319524D02*
X92564857Y-118049524D01*
X91694000Y-119319524D02*
X92347143Y-118593810D01*
X91694000Y-118049524D02*
X92564857Y-118775238D01*
X90242571Y-119319524D02*
X91113428Y-119319524D01*
X90678000Y-119319524D02*
X90678000Y-118049524D01*
X90823143Y-118230952D01*
X90968285Y-118351905D01*
X91113428Y-118412381D01*
X207590572Y-100269524D02*
X207590572Y-98999524D01*
X206719715Y-100269524D02*
X207372858Y-99543810D01*
X206719715Y-98999524D02*
X207590572Y-99725238D01*
X205268286Y-100269524D02*
X206139143Y-100269524D01*
X205703715Y-100269524D02*
X205703715Y-98999524D01*
X205848858Y-99180952D01*
X205994000Y-99301905D01*
X206139143Y-99362381D01*
X203962000Y-99422857D02*
X203962000Y-100269524D01*
X204324857Y-98939048D02*
X204687714Y-99846190D01*
X203744286Y-99846190D01*
X188540572Y-100269524D02*
X188540572Y-98999524D01*
X187669715Y-100269524D02*
X188322858Y-99543810D01*
X187669715Y-98999524D02*
X188540572Y-99725238D01*
X186218286Y-100269524D02*
X187089143Y-100269524D01*
X186653715Y-100269524D02*
X186653715Y-98999524D01*
X186798858Y-99180952D01*
X186944000Y-99301905D01*
X187089143Y-99362381D01*
X185710286Y-98999524D02*
X184766857Y-98999524D01*
X185274857Y-99483333D01*
X185057143Y-99483333D01*
X184912000Y-99543810D01*
X184839429Y-99604286D01*
X184766857Y-99725238D01*
X184766857Y-100027619D01*
X184839429Y-100148571D01*
X184912000Y-100209048D01*
X185057143Y-100269524D01*
X185492571Y-100269524D01*
X185637714Y-100209048D01*
X185710286Y-100148571D01*
X169490572Y-100269524D02*
X169490572Y-98999524D01*
X168619715Y-100269524D02*
X169272858Y-99543810D01*
X168619715Y-98999524D02*
X169490572Y-99725238D01*
X167168286Y-100269524D02*
X168039143Y-100269524D01*
X167603715Y-100269524D02*
X167603715Y-98999524D01*
X167748858Y-99180952D01*
X167894000Y-99301905D01*
X168039143Y-99362381D01*
X166587714Y-99120476D02*
X166515143Y-99060000D01*
X166370000Y-98999524D01*
X166007143Y-98999524D01*
X165862000Y-99060000D01*
X165789429Y-99120476D01*
X165716857Y-99241429D01*
X165716857Y-99362381D01*
X165789429Y-99543810D01*
X166660286Y-100269524D01*
X165716857Y-100269524D01*
X150440572Y-100269524D02*
X150440572Y-98999524D01*
X149569715Y-100269524D02*
X150222858Y-99543810D01*
X149569715Y-98999524D02*
X150440572Y-99725238D01*
X148118286Y-100269524D02*
X148989143Y-100269524D01*
X148553715Y-100269524D02*
X148553715Y-98999524D01*
X148698858Y-99180952D01*
X148844000Y-99301905D01*
X148989143Y-99362381D01*
X146666857Y-100269524D02*
X147537714Y-100269524D01*
X147102286Y-100269524D02*
X147102286Y-98999524D01*
X147247429Y-99180952D01*
X147392571Y-99301905D01*
X147537714Y-99362381D01*
X131390572Y-100269524D02*
X131390572Y-98999524D01*
X130519715Y-100269524D02*
X131172858Y-99543810D01*
X130519715Y-98999524D02*
X131390572Y-99725238D01*
X129068286Y-100269524D02*
X129939143Y-100269524D01*
X129503715Y-100269524D02*
X129503715Y-98999524D01*
X129648858Y-99180952D01*
X129794000Y-99301905D01*
X129939143Y-99362381D01*
X128124857Y-98999524D02*
X127979714Y-98999524D01*
X127834571Y-99060000D01*
X127762000Y-99120476D01*
X127689429Y-99241429D01*
X127616857Y-99483333D01*
X127616857Y-99785714D01*
X127689429Y-100027619D01*
X127762000Y-100148571D01*
X127834571Y-100209048D01*
X127979714Y-100269524D01*
X128124857Y-100269524D01*
X128270000Y-100209048D01*
X128342571Y-100148571D01*
X128415143Y-100027619D01*
X128487714Y-99785714D01*
X128487714Y-99483333D01*
X128415143Y-99241429D01*
X128342571Y-99120476D01*
X128270000Y-99060000D01*
X128124857Y-98999524D01*
X207590572Y-62169524D02*
X207590572Y-60899524D01*
X206719715Y-62169524D02*
X207372858Y-61443810D01*
X206719715Y-60899524D02*
X207590572Y-61625238D01*
X205268286Y-62169524D02*
X206139143Y-62169524D01*
X205703715Y-62169524D02*
X205703715Y-60899524D01*
X205848858Y-61080952D01*
X205994000Y-61201905D01*
X206139143Y-61262381D01*
X203962000Y-60899524D02*
X204252286Y-60899524D01*
X204397429Y-60960000D01*
X204470000Y-61020476D01*
X204615143Y-61201905D01*
X204687714Y-61443810D01*
X204687714Y-61927619D01*
X204615143Y-62048571D01*
X204542571Y-62109048D01*
X204397429Y-62169524D01*
X204107143Y-62169524D01*
X203962000Y-62109048D01*
X203889429Y-62048571D01*
X203816857Y-61927619D01*
X203816857Y-61625238D01*
X203889429Y-61504286D01*
X203962000Y-61443810D01*
X204107143Y-61383333D01*
X204397429Y-61383333D01*
X204542571Y-61443810D01*
X204615143Y-61504286D01*
X204687714Y-61625238D01*
X188540572Y-62169524D02*
X188540572Y-60899524D01*
X187669715Y-62169524D02*
X188322858Y-61443810D01*
X187669715Y-60899524D02*
X188540572Y-61625238D01*
X186218286Y-62169524D02*
X187089143Y-62169524D01*
X186653715Y-62169524D02*
X186653715Y-60899524D01*
X186798858Y-61080952D01*
X186944000Y-61201905D01*
X187089143Y-61262381D01*
X184839429Y-60899524D02*
X185565143Y-60899524D01*
X185637714Y-61504286D01*
X185565143Y-61443810D01*
X185420000Y-61383333D01*
X185057143Y-61383333D01*
X184912000Y-61443810D01*
X184839429Y-61504286D01*
X184766857Y-61625238D01*
X184766857Y-61927619D01*
X184839429Y-62048571D01*
X184912000Y-62109048D01*
X185057143Y-62169524D01*
X185420000Y-62169524D01*
X185565143Y-62109048D01*
X185637714Y-62048571D01*
X241880572Y-119319524D02*
X241880572Y-118049524D01*
X241009715Y-119319524D02*
X241662858Y-118593810D01*
X241009715Y-118049524D02*
X241880572Y-118775238D01*
X239558286Y-119319524D02*
X240429143Y-119319524D01*
X239993715Y-119319524D02*
X239993715Y-118049524D01*
X240138858Y-118230952D01*
X240284000Y-118351905D01*
X240429143Y-118412381D01*
X239050286Y-118049524D02*
X238034286Y-118049524D01*
X238687429Y-119319524D01*
X260930572Y-119319524D02*
X260930572Y-118049524D01*
X260059715Y-119319524D02*
X260712858Y-118593810D01*
X260059715Y-118049524D02*
X260930572Y-118775238D01*
X258608286Y-119319524D02*
X259479143Y-119319524D01*
X259043715Y-119319524D02*
X259043715Y-118049524D01*
X259188858Y-118230952D01*
X259334000Y-118351905D01*
X259479143Y-118412381D01*
X257737429Y-118593810D02*
X257882571Y-118533333D01*
X257955143Y-118472857D01*
X258027714Y-118351905D01*
X258027714Y-118291429D01*
X257955143Y-118170476D01*
X257882571Y-118110000D01*
X257737429Y-118049524D01*
X257447143Y-118049524D01*
X257302000Y-118110000D01*
X257229429Y-118170476D01*
X257156857Y-118291429D01*
X257156857Y-118351905D01*
X257229429Y-118472857D01*
X257302000Y-118533333D01*
X257447143Y-118593810D01*
X257737429Y-118593810D01*
X257882571Y-118654286D01*
X257955143Y-118714762D01*
X258027714Y-118835714D01*
X258027714Y-119077619D01*
X257955143Y-119198571D01*
X257882571Y-119259048D01*
X257737429Y-119319524D01*
X257447143Y-119319524D01*
X257302000Y-119259048D01*
X257229429Y-119198571D01*
X257156857Y-119077619D01*
X257156857Y-118835714D01*
X257229429Y-118714762D01*
X257302000Y-118654286D01*
X257447143Y-118593810D01*
X241880572Y-81219524D02*
X241880572Y-79949524D01*
X241009715Y-81219524D02*
X241662858Y-80493810D01*
X241009715Y-79949524D02*
X241880572Y-80675238D01*
X240429143Y-80070476D02*
X240356572Y-80010000D01*
X240211429Y-79949524D01*
X239848572Y-79949524D01*
X239703429Y-80010000D01*
X239630858Y-80070476D01*
X239558286Y-80191429D01*
X239558286Y-80312381D01*
X239630858Y-80493810D01*
X240501715Y-81219524D01*
X239558286Y-81219524D01*
X238179429Y-79949524D02*
X238905143Y-79949524D01*
X238977714Y-80554286D01*
X238905143Y-80493810D01*
X238760000Y-80433333D01*
X238397143Y-80433333D01*
X238252000Y-80493810D01*
X238179429Y-80554286D01*
X238106857Y-80675238D01*
X238106857Y-80977619D01*
X238179429Y-81098571D01*
X238252000Y-81159048D01*
X238397143Y-81219524D01*
X238760000Y-81219524D01*
X238905143Y-81159048D01*
X238977714Y-81098571D01*
X279980572Y-119319524D02*
X279980572Y-118049524D01*
X279109715Y-119319524D02*
X279762858Y-118593810D01*
X279109715Y-118049524D02*
X279980572Y-118775238D01*
X277658286Y-119319524D02*
X278529143Y-119319524D01*
X278093715Y-119319524D02*
X278093715Y-118049524D01*
X278238858Y-118230952D01*
X278384000Y-118351905D01*
X278529143Y-118412381D01*
X276932571Y-119319524D02*
X276642286Y-119319524D01*
X276497143Y-119259048D01*
X276424571Y-119198571D01*
X276279429Y-119017143D01*
X276206857Y-118775238D01*
X276206857Y-118291429D01*
X276279429Y-118170476D01*
X276352000Y-118110000D01*
X276497143Y-118049524D01*
X276787429Y-118049524D01*
X276932571Y-118110000D01*
X277005143Y-118170476D01*
X277077714Y-118291429D01*
X277077714Y-118593810D01*
X277005143Y-118714762D01*
X276932571Y-118775238D01*
X276787429Y-118835714D01*
X276497143Y-118835714D01*
X276352000Y-118775238D01*
X276279429Y-118714762D01*
X276206857Y-118593810D01*
X260930572Y-81219524D02*
X260930572Y-79949524D01*
X260059715Y-81219524D02*
X260712858Y-80493810D01*
X260059715Y-79949524D02*
X260930572Y-80675238D01*
X259479143Y-80070476D02*
X259406572Y-80010000D01*
X259261429Y-79949524D01*
X258898572Y-79949524D01*
X258753429Y-80010000D01*
X258680858Y-80070476D01*
X258608286Y-80191429D01*
X258608286Y-80312381D01*
X258680858Y-80493810D01*
X259551715Y-81219524D01*
X258608286Y-81219524D01*
X257302000Y-79949524D02*
X257592286Y-79949524D01*
X257737429Y-80010000D01*
X257810000Y-80070476D01*
X257955143Y-80251905D01*
X258027714Y-80493810D01*
X258027714Y-80977619D01*
X257955143Y-81098571D01*
X257882571Y-81159048D01*
X257737429Y-81219524D01*
X257447143Y-81219524D01*
X257302000Y-81159048D01*
X257229429Y-81098571D01*
X257156857Y-80977619D01*
X257156857Y-80675238D01*
X257229429Y-80554286D01*
X257302000Y-80493810D01*
X257447143Y-80433333D01*
X257737429Y-80433333D01*
X257882571Y-80493810D01*
X257955143Y-80554286D01*
X258027714Y-80675238D01*
X299030572Y-119319524D02*
X299030572Y-118049524D01*
X298159715Y-119319524D02*
X298812858Y-118593810D01*
X298159715Y-118049524D02*
X299030572Y-118775238D01*
X297579143Y-118170476D02*
X297506572Y-118110000D01*
X297361429Y-118049524D01*
X296998572Y-118049524D01*
X296853429Y-118110000D01*
X296780858Y-118170476D01*
X296708286Y-118291429D01*
X296708286Y-118412381D01*
X296780858Y-118593810D01*
X297651715Y-119319524D01*
X296708286Y-119319524D01*
X295764857Y-118049524D02*
X295619714Y-118049524D01*
X295474571Y-118110000D01*
X295402000Y-118170476D01*
X295329429Y-118291429D01*
X295256857Y-118533333D01*
X295256857Y-118835714D01*
X295329429Y-119077619D01*
X295402000Y-119198571D01*
X295474571Y-119259048D01*
X295619714Y-119319524D01*
X295764857Y-119319524D01*
X295910000Y-119259048D01*
X295982571Y-119198571D01*
X296055143Y-119077619D01*
X296127714Y-118835714D01*
X296127714Y-118533333D01*
X296055143Y-118291429D01*
X295982571Y-118170476D01*
X295910000Y-118110000D01*
X295764857Y-118049524D01*
X279980572Y-81219524D02*
X279980572Y-79949524D01*
X279109715Y-81219524D02*
X279762858Y-80493810D01*
X279109715Y-79949524D02*
X279980572Y-80675238D01*
X278529143Y-80070476D02*
X278456572Y-80010000D01*
X278311429Y-79949524D01*
X277948572Y-79949524D01*
X277803429Y-80010000D01*
X277730858Y-80070476D01*
X277658286Y-80191429D01*
X277658286Y-80312381D01*
X277730858Y-80493810D01*
X278601715Y-81219524D01*
X277658286Y-81219524D01*
X277150286Y-79949524D02*
X276134286Y-79949524D01*
X276787429Y-81219524D01*
X299030572Y-81219524D02*
X299030572Y-79949524D01*
X298159715Y-81219524D02*
X298812858Y-80493810D01*
X298159715Y-79949524D02*
X299030572Y-80675238D01*
X297579143Y-80070476D02*
X297506572Y-80010000D01*
X297361429Y-79949524D01*
X296998572Y-79949524D01*
X296853429Y-80010000D01*
X296780858Y-80070476D01*
X296708286Y-80191429D01*
X296708286Y-80312381D01*
X296780858Y-80493810D01*
X297651715Y-81219524D01*
X296708286Y-81219524D01*
X295837429Y-80493810D02*
X295982571Y-80433333D01*
X296055143Y-80372857D01*
X296127714Y-80251905D01*
X296127714Y-80191429D01*
X296055143Y-80070476D01*
X295982571Y-80010000D01*
X295837429Y-79949524D01*
X295547143Y-79949524D01*
X295402000Y-80010000D01*
X295329429Y-80070476D01*
X295256857Y-80191429D01*
X295256857Y-80251905D01*
X295329429Y-80372857D01*
X295402000Y-80433333D01*
X295547143Y-80493810D01*
X295837429Y-80493810D01*
X295982571Y-80554286D01*
X296055143Y-80614762D01*
X296127714Y-80735714D01*
X296127714Y-80977619D01*
X296055143Y-81098571D01*
X295982571Y-81159048D01*
X295837429Y-81219524D01*
X295547143Y-81219524D01*
X295402000Y-81159048D01*
X295329429Y-81098571D01*
X295256857Y-80977619D01*
X295256857Y-80735714D01*
X295329429Y-80614762D01*
X295402000Y-80554286D01*
X295547143Y-80493810D01*
X260930572Y-100269524D02*
X260930572Y-98999524D01*
X260059715Y-100269524D02*
X260712858Y-99543810D01*
X260059715Y-98999524D02*
X260930572Y-99725238D01*
X259479143Y-99120476D02*
X259406572Y-99060000D01*
X259261429Y-98999524D01*
X258898572Y-98999524D01*
X258753429Y-99060000D01*
X258680858Y-99120476D01*
X258608286Y-99241429D01*
X258608286Y-99362381D01*
X258680858Y-99543810D01*
X259551715Y-100269524D01*
X258608286Y-100269524D01*
X258027714Y-99120476D02*
X257955143Y-99060000D01*
X257810000Y-98999524D01*
X257447143Y-98999524D01*
X257302000Y-99060000D01*
X257229429Y-99120476D01*
X257156857Y-99241429D01*
X257156857Y-99362381D01*
X257229429Y-99543810D01*
X258100286Y-100269524D01*
X257156857Y-100269524D01*
X241880572Y-62169524D02*
X241880572Y-60899524D01*
X241009715Y-62169524D02*
X241662858Y-61443810D01*
X241009715Y-60899524D02*
X241880572Y-61625238D01*
X240429143Y-61020476D02*
X240356572Y-60960000D01*
X240211429Y-60899524D01*
X239848572Y-60899524D01*
X239703429Y-60960000D01*
X239630858Y-61020476D01*
X239558286Y-61141429D01*
X239558286Y-61262381D01*
X239630858Y-61443810D01*
X240501715Y-62169524D01*
X239558286Y-62169524D01*
X238832571Y-62169524D02*
X238542286Y-62169524D01*
X238397143Y-62109048D01*
X238324571Y-62048571D01*
X238179429Y-61867143D01*
X238106857Y-61625238D01*
X238106857Y-61141429D01*
X238179429Y-61020476D01*
X238252000Y-60960000D01*
X238397143Y-60899524D01*
X238687429Y-60899524D01*
X238832571Y-60960000D01*
X238905143Y-61020476D01*
X238977714Y-61141429D01*
X238977714Y-61443810D01*
X238905143Y-61564762D01*
X238832571Y-61625238D01*
X238687429Y-61685714D01*
X238397143Y-61685714D01*
X238252000Y-61625238D01*
X238179429Y-61564762D01*
X238106857Y-61443810D01*
X279980572Y-100269524D02*
X279980572Y-98999524D01*
X279109715Y-100269524D02*
X279762858Y-99543810D01*
X279109715Y-98999524D02*
X279980572Y-99725238D01*
X278529143Y-99120476D02*
X278456572Y-99060000D01*
X278311429Y-98999524D01*
X277948572Y-98999524D01*
X277803429Y-99060000D01*
X277730858Y-99120476D01*
X277658286Y-99241429D01*
X277658286Y-99362381D01*
X277730858Y-99543810D01*
X278601715Y-100269524D01*
X277658286Y-100269524D01*
X277150286Y-98999524D02*
X276206857Y-98999524D01*
X276714857Y-99483333D01*
X276497143Y-99483333D01*
X276352000Y-99543810D01*
X276279429Y-99604286D01*
X276206857Y-99725238D01*
X276206857Y-100027619D01*
X276279429Y-100148571D01*
X276352000Y-100209048D01*
X276497143Y-100269524D01*
X276932571Y-100269524D01*
X277077714Y-100209048D01*
X277150286Y-100148571D01*
X260930572Y-62169524D02*
X260930572Y-60899524D01*
X260059715Y-62169524D02*
X260712858Y-61443810D01*
X260059715Y-60899524D02*
X260930572Y-61625238D01*
X259551715Y-60899524D02*
X258608286Y-60899524D01*
X259116286Y-61383333D01*
X258898572Y-61383333D01*
X258753429Y-61443810D01*
X258680858Y-61504286D01*
X258608286Y-61625238D01*
X258608286Y-61927619D01*
X258680858Y-62048571D01*
X258753429Y-62109048D01*
X258898572Y-62169524D01*
X259334000Y-62169524D01*
X259479143Y-62109048D01*
X259551715Y-62048571D01*
X257664857Y-60899524D02*
X257519714Y-60899524D01*
X257374571Y-60960000D01*
X257302000Y-61020476D01*
X257229429Y-61141429D01*
X257156857Y-61383333D01*
X257156857Y-61685714D01*
X257229429Y-61927619D01*
X257302000Y-62048571D01*
X257374571Y-62109048D01*
X257519714Y-62169524D01*
X257664857Y-62169524D01*
X257810000Y-62109048D01*
X257882571Y-62048571D01*
X257955143Y-61927619D01*
X258027714Y-61685714D01*
X258027714Y-61383333D01*
X257955143Y-61141429D01*
X257882571Y-61020476D01*
X257810000Y-60960000D01*
X257664857Y-60899524D01*
X299030572Y-62169524D02*
X299030572Y-60899524D01*
X298159715Y-62169524D02*
X298812858Y-61443810D01*
X298159715Y-60899524D02*
X299030572Y-61625238D01*
X297651715Y-60899524D02*
X296708286Y-60899524D01*
X297216286Y-61383333D01*
X296998572Y-61383333D01*
X296853429Y-61443810D01*
X296780858Y-61504286D01*
X296708286Y-61625238D01*
X296708286Y-61927619D01*
X296780858Y-62048571D01*
X296853429Y-62109048D01*
X296998572Y-62169524D01*
X297434000Y-62169524D01*
X297579143Y-62109048D01*
X297651715Y-62048571D01*
X296127714Y-61020476D02*
X296055143Y-60960000D01*
X295910000Y-60899524D01*
X295547143Y-60899524D01*
X295402000Y-60960000D01*
X295329429Y-61020476D01*
X295256857Y-61141429D01*
X295256857Y-61262381D01*
X295329429Y-61443810D01*
X296200286Y-62169524D01*
X295256857Y-62169524D01*
X206864857Y-119319524D02*
X206864857Y-118049524D01*
X205994000Y-119319524D02*
X206647143Y-118593810D01*
X205994000Y-118049524D02*
X206864857Y-118775238D01*
X205486000Y-118049524D02*
X204470000Y-118049524D01*
X205123143Y-119319524D01*
X187814857Y-119319524D02*
X187814857Y-118049524D01*
X186944000Y-119319524D02*
X187597143Y-118593810D01*
X186944000Y-118049524D02*
X187814857Y-118775238D01*
X185637714Y-118049524D02*
X185928000Y-118049524D01*
X186073143Y-118110000D01*
X186145714Y-118170476D01*
X186290857Y-118351905D01*
X186363428Y-118593810D01*
X186363428Y-119077619D01*
X186290857Y-119198571D01*
X186218285Y-119259048D01*
X186073143Y-119319524D01*
X185782857Y-119319524D01*
X185637714Y-119259048D01*
X185565143Y-119198571D01*
X185492571Y-119077619D01*
X185492571Y-118775238D01*
X185565143Y-118654286D01*
X185637714Y-118593810D01*
X185782857Y-118533333D01*
X186073143Y-118533333D01*
X186218285Y-118593810D01*
X186290857Y-118654286D01*
X186363428Y-118775238D01*
X168764857Y-119319524D02*
X168764857Y-118049524D01*
X167894000Y-119319524D02*
X168547143Y-118593810D01*
X167894000Y-118049524D02*
X168764857Y-118775238D01*
X166515143Y-118049524D02*
X167240857Y-118049524D01*
X167313428Y-118654286D01*
X167240857Y-118593810D01*
X167095714Y-118533333D01*
X166732857Y-118533333D01*
X166587714Y-118593810D01*
X166515143Y-118654286D01*
X166442571Y-118775238D01*
X166442571Y-119077619D01*
X166515143Y-119198571D01*
X166587714Y-119259048D01*
X166732857Y-119319524D01*
X167095714Y-119319524D01*
X167240857Y-119259048D01*
X167313428Y-119198571D01*
X149714857Y-119319524D02*
X149714857Y-118049524D01*
X148844000Y-119319524D02*
X149497143Y-118593810D01*
X148844000Y-118049524D02*
X149714857Y-118775238D01*
X147537714Y-118472857D02*
X147537714Y-119319524D01*
X147900571Y-117989048D02*
X148263428Y-118896190D01*
X147320000Y-118896190D01*
X130664857Y-119319524D02*
X130664857Y-118049524D01*
X129794000Y-119319524D02*
X130447143Y-118593810D01*
X129794000Y-118049524D02*
X130664857Y-118775238D01*
X129286000Y-118049524D02*
X128342571Y-118049524D01*
X128850571Y-118533333D01*
X128632857Y-118533333D01*
X128487714Y-118593810D01*
X128415143Y-118654286D01*
X128342571Y-118775238D01*
X128342571Y-119077619D01*
X128415143Y-119198571D01*
X128487714Y-119259048D01*
X128632857Y-119319524D01*
X129068285Y-119319524D01*
X129213428Y-119259048D01*
X129286000Y-119198571D01*
X111614857Y-119319524D02*
X111614857Y-118049524D01*
X110744000Y-119319524D02*
X111397143Y-118593810D01*
X110744000Y-118049524D02*
X111614857Y-118775238D01*
X110163428Y-118170476D02*
X110090857Y-118110000D01*
X109945714Y-118049524D01*
X109582857Y-118049524D01*
X109437714Y-118110000D01*
X109365143Y-118170476D01*
X109292571Y-118291429D01*
X109292571Y-118412381D01*
X109365143Y-118593810D01*
X110236000Y-119319524D01*
X109292571Y-119319524D01*
X279980572Y-62169524D02*
X279980572Y-60899524D01*
X279109715Y-62169524D02*
X279762858Y-61443810D01*
X279109715Y-60899524D02*
X279980572Y-61625238D01*
X278601715Y-60899524D02*
X277658286Y-60899524D01*
X278166286Y-61383333D01*
X277948572Y-61383333D01*
X277803429Y-61443810D01*
X277730858Y-61504286D01*
X277658286Y-61625238D01*
X277658286Y-61927619D01*
X277730858Y-62048571D01*
X277803429Y-62109048D01*
X277948572Y-62169524D01*
X278384000Y-62169524D01*
X278529143Y-62109048D01*
X278601715Y-62048571D01*
X276206857Y-62169524D02*
X277077714Y-62169524D01*
X276642286Y-62169524D02*
X276642286Y-60899524D01*
X276787429Y-61080952D01*
X276932571Y-61201905D01*
X277077714Y-61262381D01*
X241880572Y-100269524D02*
X241880572Y-98999524D01*
X241009715Y-100269524D02*
X241662858Y-99543810D01*
X241009715Y-98999524D02*
X241880572Y-99725238D01*
X240429143Y-99120476D02*
X240356572Y-99060000D01*
X240211429Y-98999524D01*
X239848572Y-98999524D01*
X239703429Y-99060000D01*
X239630858Y-99120476D01*
X239558286Y-99241429D01*
X239558286Y-99362381D01*
X239630858Y-99543810D01*
X240501715Y-100269524D01*
X239558286Y-100269524D01*
X238106857Y-100269524D02*
X238977714Y-100269524D01*
X238542286Y-100269524D02*
X238542286Y-98999524D01*
X238687429Y-99180952D01*
X238832571Y-99301905D01*
X238977714Y-99362381D01*
X111614857Y-100269524D02*
X111614857Y-98999524D01*
X110744000Y-100269524D02*
X111397143Y-99543810D01*
X110744000Y-98999524D02*
X111614857Y-99725238D01*
X110018285Y-100269524D02*
X109728000Y-100269524D01*
X109582857Y-100209048D01*
X109510285Y-100148571D01*
X109365143Y-99967143D01*
X109292571Y-99725238D01*
X109292571Y-99241429D01*
X109365143Y-99120476D01*
X109437714Y-99060000D01*
X109582857Y-98999524D01*
X109873143Y-98999524D01*
X110018285Y-99060000D01*
X110090857Y-99120476D01*
X110163428Y-99241429D01*
X110163428Y-99543810D01*
X110090857Y-99664762D01*
X110018285Y-99725238D01*
X109873143Y-99785714D01*
X109582857Y-99785714D01*
X109437714Y-99725238D01*
X109365143Y-99664762D01*
X109292571Y-99543810D01*
X92564857Y-100269524D02*
X92564857Y-98999524D01*
X91694000Y-100269524D02*
X92347143Y-99543810D01*
X91694000Y-98999524D02*
X92564857Y-99725238D01*
X90823143Y-99543810D02*
X90968285Y-99483333D01*
X91040857Y-99422857D01*
X91113428Y-99301905D01*
X91113428Y-99241429D01*
X91040857Y-99120476D01*
X90968285Y-99060000D01*
X90823143Y-98999524D01*
X90532857Y-98999524D01*
X90387714Y-99060000D01*
X90315143Y-99120476D01*
X90242571Y-99241429D01*
X90242571Y-99301905D01*
X90315143Y-99422857D01*
X90387714Y-99483333D01*
X90532857Y-99543810D01*
X90823143Y-99543810D01*
X90968285Y-99604286D01*
X91040857Y-99664762D01*
X91113428Y-99785714D01*
X91113428Y-100027619D01*
X91040857Y-100148571D01*
X90968285Y-100209048D01*
X90823143Y-100269524D01*
X90532857Y-100269524D01*
X90387714Y-100209048D01*
X90315143Y-100148571D01*
X90242571Y-100027619D01*
X90242571Y-99785714D01*
X90315143Y-99664762D01*
X90387714Y-99604286D01*
X90532857Y-99543810D01*
D12*
X103691428Y-59822143D02*
X103739047Y-59869762D01*
X103881904Y-59917381D01*
X103977142Y-59917381D01*
X104120000Y-59869762D01*
X104215238Y-59774524D01*
X104262857Y-59679286D01*
X104310476Y-59488810D01*
X104310476Y-59345952D01*
X104262857Y-59155476D01*
X104215238Y-59060238D01*
X104120000Y-58965000D01*
X103977142Y-58917381D01*
X103881904Y-58917381D01*
X103739047Y-58965000D01*
X103691428Y-59012619D01*
X103072381Y-58917381D02*
X102881904Y-58917381D01*
X102786666Y-58965000D01*
X102691428Y-59060238D01*
X102643809Y-59250714D01*
X102643809Y-59584048D01*
X102691428Y-59774524D01*
X102786666Y-59869762D01*
X102881904Y-59917381D01*
X103072381Y-59917381D01*
X103167619Y-59869762D01*
X103262857Y-59774524D01*
X103310476Y-59584048D01*
X103310476Y-59250714D01*
X103262857Y-59060238D01*
X103167619Y-58965000D01*
X103072381Y-58917381D01*
X101643809Y-59917381D02*
X101977143Y-59441190D01*
X102215238Y-59917381D02*
X102215238Y-58917381D01*
X101834285Y-58917381D01*
X101739047Y-58965000D01*
X101691428Y-59012619D01*
X101643809Y-59107857D01*
X101643809Y-59250714D01*
X101691428Y-59345952D01*
X101739047Y-59393571D01*
X101834285Y-59441190D01*
X102215238Y-59441190D01*
X101215238Y-59393571D02*
X100881904Y-59393571D01*
X100739047Y-59917381D02*
X101215238Y-59917381D01*
X101215238Y-58917381D01*
X100739047Y-58917381D01*
X100548571Y-60012619D02*
X99786666Y-60012619D01*
X99596190Y-59869762D02*
X99453333Y-59917381D01*
X99215237Y-59917381D01*
X99119999Y-59869762D01*
X99072380Y-59822143D01*
X99024761Y-59726905D01*
X99024761Y-59631667D01*
X99072380Y-59536429D01*
X99119999Y-59488810D01*
X99215237Y-59441190D01*
X99405714Y-59393571D01*
X99500952Y-59345952D01*
X99548571Y-59298333D01*
X99596190Y-59203095D01*
X99596190Y-59107857D01*
X99548571Y-59012619D01*
X99500952Y-58965000D01*
X99405714Y-58917381D01*
X99167618Y-58917381D01*
X99024761Y-58965000D01*
X98691428Y-58917381D02*
X98453333Y-59917381D01*
X98262856Y-59203095D01*
X98072380Y-59917381D01*
X97834285Y-58917381D01*
X96929523Y-59917381D02*
X97500952Y-59917381D01*
X97215238Y-59917381D02*
X97215238Y-58917381D01*
X97310476Y-59060238D01*
X97405714Y-59155476D01*
X97500952Y-59203095D01*
X177252381Y-112268095D02*
X178061905Y-112268095D01*
X178157143Y-112315714D01*
X178204762Y-112363333D01*
X178252381Y-112458571D01*
X178252381Y-112649048D01*
X178204762Y-112744286D01*
X178157143Y-112791905D01*
X178061905Y-112839524D01*
X177252381Y-112839524D01*
X177585714Y-113744286D02*
X178252381Y-113744286D01*
X177204762Y-113506190D02*
X177919048Y-113268095D01*
X177919048Y-113887143D01*
X85752381Y-84121667D02*
X86466667Y-84121667D01*
X86609524Y-84074047D01*
X86704762Y-83978809D01*
X86752381Y-83835952D01*
X86752381Y-83740714D01*
X85847619Y-84550238D02*
X85800000Y-84597857D01*
X85752381Y-84693095D01*
X85752381Y-84931191D01*
X85800000Y-85026429D01*
X85847619Y-85074048D01*
X85942857Y-85121667D01*
X86038095Y-85121667D01*
X86180952Y-85074048D01*
X86752381Y-84502619D01*
X86752381Y-85121667D01*
X78866905Y-89772381D02*
X78866905Y-90581905D01*
X78819286Y-90677143D01*
X78771667Y-90724762D01*
X78676429Y-90772381D01*
X78485952Y-90772381D01*
X78390714Y-90724762D01*
X78343095Y-90677143D01*
X78295476Y-90581905D01*
X78295476Y-89772381D01*
X77914524Y-89772381D02*
X77247857Y-89772381D01*
X77676429Y-90772381D01*
X310006905Y-128842381D02*
X310006905Y-129651905D01*
X309959286Y-129747143D01*
X309911667Y-129794762D01*
X309816429Y-129842381D01*
X309625952Y-129842381D01*
X309530714Y-129794762D01*
X309483095Y-129747143D01*
X309435476Y-129651905D01*
X309435476Y-128842381D01*
X308816429Y-129270952D02*
X308911667Y-129223333D01*
X308959286Y-129175714D01*
X309006905Y-129080476D01*
X309006905Y-129032857D01*
X308959286Y-128937619D01*
X308911667Y-128890000D01*
X308816429Y-128842381D01*
X308625952Y-128842381D01*
X308530714Y-128890000D01*
X308483095Y-128937619D01*
X308435476Y-129032857D01*
X308435476Y-129080476D01*
X308483095Y-129175714D01*
X308530714Y-129223333D01*
X308625952Y-129270952D01*
X308816429Y-129270952D01*
X308911667Y-129318571D01*
X308959286Y-129366190D01*
X309006905Y-129461429D01*
X309006905Y-129651905D01*
X308959286Y-129747143D01*
X308911667Y-129794762D01*
X308816429Y-129842381D01*
X308625952Y-129842381D01*
X308530714Y-129794762D01*
X308483095Y-129747143D01*
X308435476Y-129651905D01*
X308435476Y-129461429D01*
X308483095Y-129366190D01*
X308530714Y-129318571D01*
X308625952Y-129270952D01*
X205612381Y-72858334D02*
X205136190Y-72525000D01*
X205612381Y-72286905D02*
X204612381Y-72286905D01*
X204612381Y-72667858D01*
X204660000Y-72763096D01*
X204707619Y-72810715D01*
X204802857Y-72858334D01*
X204945714Y-72858334D01*
X205040952Y-72810715D01*
X205088571Y-72763096D01*
X205136190Y-72667858D01*
X205136190Y-72286905D01*
X204707619Y-73239286D02*
X204660000Y-73286905D01*
X204612381Y-73382143D01*
X204612381Y-73620239D01*
X204660000Y-73715477D01*
X204707619Y-73763096D01*
X204802857Y-73810715D01*
X204898095Y-73810715D01*
X205040952Y-73763096D01*
X205612381Y-73191667D01*
X205612381Y-73810715D01*
X209422381Y-72858334D02*
X208946190Y-72525000D01*
X209422381Y-72286905D02*
X208422381Y-72286905D01*
X208422381Y-72667858D01*
X208470000Y-72763096D01*
X208517619Y-72810715D01*
X208612857Y-72858334D01*
X208755714Y-72858334D01*
X208850952Y-72810715D01*
X208898571Y-72763096D01*
X208946190Y-72667858D01*
X208946190Y-72286905D01*
X208422381Y-73191667D02*
X208422381Y-73810715D01*
X208803333Y-73477381D01*
X208803333Y-73620239D01*
X208850952Y-73715477D01*
X208898571Y-73763096D01*
X208993810Y-73810715D01*
X209231905Y-73810715D01*
X209327143Y-73763096D01*
X209374762Y-73715477D01*
X209422381Y-73620239D01*
X209422381Y-73334524D01*
X209374762Y-73239286D01*
X209327143Y-73191667D01*
X89892143Y-57618334D02*
X89939762Y-57570715D01*
X89987381Y-57427858D01*
X89987381Y-57332620D01*
X89939762Y-57189762D01*
X89844524Y-57094524D01*
X89749286Y-57046905D01*
X89558810Y-56999286D01*
X89415952Y-56999286D01*
X89225476Y-57046905D01*
X89130238Y-57094524D01*
X89035000Y-57189762D01*
X88987381Y-57332620D01*
X88987381Y-57427858D01*
X89035000Y-57570715D01*
X89082619Y-57618334D01*
X89987381Y-58570715D02*
X89987381Y-57999286D01*
X89987381Y-58285000D02*
X88987381Y-58285000D01*
X89130238Y-58189762D01*
X89225476Y-58094524D01*
X89273095Y-57999286D01*
X88987381Y-64397143D02*
X88987381Y-64492382D01*
X89035000Y-64587620D01*
X89082619Y-64635239D01*
X89177857Y-64682858D01*
X89368333Y-64730477D01*
X89606429Y-64730477D01*
X89796905Y-64682858D01*
X89892143Y-64635239D01*
X89939762Y-64587620D01*
X89987381Y-64492382D01*
X89987381Y-64397143D01*
X89939762Y-64301905D01*
X89892143Y-64254286D01*
X89796905Y-64206667D01*
X89606429Y-64159048D01*
X89368333Y-64159048D01*
X89177857Y-64206667D01*
X89082619Y-64254286D01*
X89035000Y-64301905D01*
X88987381Y-64397143D01*
X89892143Y-65159048D02*
X89939762Y-65206667D01*
X89987381Y-65159048D01*
X89939762Y-65111429D01*
X89892143Y-65159048D01*
X89987381Y-65159048D01*
X89987381Y-66159048D02*
X89987381Y-65587619D01*
X89987381Y-65873333D02*
X88987381Y-65873333D01*
X89130238Y-65778095D01*
X89225476Y-65682857D01*
X89273095Y-65587619D01*
X89320714Y-67016191D02*
X89987381Y-67016191D01*
X89320714Y-66587619D02*
X89844524Y-66587619D01*
X89939762Y-66635238D01*
X89987381Y-66730476D01*
X89987381Y-66873334D01*
X89939762Y-66968572D01*
X89892143Y-67016191D01*
X89463571Y-67825715D02*
X89463571Y-67492381D01*
X89987381Y-67492381D02*
X88987381Y-67492381D01*
X88987381Y-67968572D01*
X93702143Y-57618334D02*
X93749762Y-57570715D01*
X93797381Y-57427858D01*
X93797381Y-57332620D01*
X93749762Y-57189762D01*
X93654524Y-57094524D01*
X93559286Y-57046905D01*
X93368810Y-56999286D01*
X93225952Y-56999286D01*
X93035476Y-57046905D01*
X92940238Y-57094524D01*
X92845000Y-57189762D01*
X92797381Y-57332620D01*
X92797381Y-57427858D01*
X92845000Y-57570715D01*
X92892619Y-57618334D01*
X92892619Y-57999286D02*
X92845000Y-58046905D01*
X92797381Y-58142143D01*
X92797381Y-58380239D01*
X92845000Y-58475477D01*
X92892619Y-58523096D01*
X92987857Y-58570715D01*
X93083095Y-58570715D01*
X93225952Y-58523096D01*
X93797381Y-57951667D01*
X93797381Y-58570715D01*
X92797381Y-64397143D02*
X92797381Y-64492382D01*
X92845000Y-64587620D01*
X92892619Y-64635239D01*
X92987857Y-64682858D01*
X93178333Y-64730477D01*
X93416429Y-64730477D01*
X93606905Y-64682858D01*
X93702143Y-64635239D01*
X93749762Y-64587620D01*
X93797381Y-64492382D01*
X93797381Y-64397143D01*
X93749762Y-64301905D01*
X93702143Y-64254286D01*
X93606905Y-64206667D01*
X93416429Y-64159048D01*
X93178333Y-64159048D01*
X92987857Y-64206667D01*
X92892619Y-64254286D01*
X92845000Y-64301905D01*
X92797381Y-64397143D01*
X93702143Y-65159048D02*
X93749762Y-65206667D01*
X93797381Y-65159048D01*
X93749762Y-65111429D01*
X93702143Y-65159048D01*
X93797381Y-65159048D01*
X93797381Y-66159048D02*
X93797381Y-65587619D01*
X93797381Y-65873333D02*
X92797381Y-65873333D01*
X92940238Y-65778095D01*
X93035476Y-65682857D01*
X93083095Y-65587619D01*
X93130714Y-67016191D02*
X93797381Y-67016191D01*
X93130714Y-66587619D02*
X93654524Y-66587619D01*
X93749762Y-66635238D01*
X93797381Y-66730476D01*
X93797381Y-66873334D01*
X93749762Y-66968572D01*
X93702143Y-67016191D01*
X93273571Y-67825715D02*
X93273571Y-67492381D01*
X93797381Y-67492381D02*
X92797381Y-67492381D01*
X92797381Y-67968572D01*
X108942143Y-57618334D02*
X108989762Y-57570715D01*
X109037381Y-57427858D01*
X109037381Y-57332620D01*
X108989762Y-57189762D01*
X108894524Y-57094524D01*
X108799286Y-57046905D01*
X108608810Y-56999286D01*
X108465952Y-56999286D01*
X108275476Y-57046905D01*
X108180238Y-57094524D01*
X108085000Y-57189762D01*
X108037381Y-57332620D01*
X108037381Y-57427858D01*
X108085000Y-57570715D01*
X108132619Y-57618334D01*
X108037381Y-57951667D02*
X108037381Y-58570715D01*
X108418333Y-58237381D01*
X108418333Y-58380239D01*
X108465952Y-58475477D01*
X108513571Y-58523096D01*
X108608810Y-58570715D01*
X108846905Y-58570715D01*
X108942143Y-58523096D01*
X108989762Y-58475477D01*
X109037381Y-58380239D01*
X109037381Y-58094524D01*
X108989762Y-57999286D01*
X108942143Y-57951667D01*
X108037381Y-64397143D02*
X108037381Y-64492382D01*
X108085000Y-64587620D01*
X108132619Y-64635239D01*
X108227857Y-64682858D01*
X108418333Y-64730477D01*
X108656429Y-64730477D01*
X108846905Y-64682858D01*
X108942143Y-64635239D01*
X108989762Y-64587620D01*
X109037381Y-64492382D01*
X109037381Y-64397143D01*
X108989762Y-64301905D01*
X108942143Y-64254286D01*
X108846905Y-64206667D01*
X108656429Y-64159048D01*
X108418333Y-64159048D01*
X108227857Y-64206667D01*
X108132619Y-64254286D01*
X108085000Y-64301905D01*
X108037381Y-64397143D01*
X108942143Y-65159048D02*
X108989762Y-65206667D01*
X109037381Y-65159048D01*
X108989762Y-65111429D01*
X108942143Y-65159048D01*
X109037381Y-65159048D01*
X109037381Y-66159048D02*
X109037381Y-65587619D01*
X109037381Y-65873333D02*
X108037381Y-65873333D01*
X108180238Y-65778095D01*
X108275476Y-65682857D01*
X108323095Y-65587619D01*
X108370714Y-67016191D02*
X109037381Y-67016191D01*
X108370714Y-66587619D02*
X108894524Y-66587619D01*
X108989762Y-66635238D01*
X109037381Y-66730476D01*
X109037381Y-66873334D01*
X108989762Y-66968572D01*
X108942143Y-67016191D01*
X108513571Y-67825715D02*
X108513571Y-67492381D01*
X109037381Y-67492381D02*
X108037381Y-67492381D01*
X108037381Y-67968572D01*
X112752143Y-57618334D02*
X112799762Y-57570715D01*
X112847381Y-57427858D01*
X112847381Y-57332620D01*
X112799762Y-57189762D01*
X112704524Y-57094524D01*
X112609286Y-57046905D01*
X112418810Y-56999286D01*
X112275952Y-56999286D01*
X112085476Y-57046905D01*
X111990238Y-57094524D01*
X111895000Y-57189762D01*
X111847381Y-57332620D01*
X111847381Y-57427858D01*
X111895000Y-57570715D01*
X111942619Y-57618334D01*
X112180714Y-58475477D02*
X112847381Y-58475477D01*
X111799762Y-58237381D02*
X112514048Y-57999286D01*
X112514048Y-58618334D01*
X111847381Y-64397143D02*
X111847381Y-64492382D01*
X111895000Y-64587620D01*
X111942619Y-64635239D01*
X112037857Y-64682858D01*
X112228333Y-64730477D01*
X112466429Y-64730477D01*
X112656905Y-64682858D01*
X112752143Y-64635239D01*
X112799762Y-64587620D01*
X112847381Y-64492382D01*
X112847381Y-64397143D01*
X112799762Y-64301905D01*
X112752143Y-64254286D01*
X112656905Y-64206667D01*
X112466429Y-64159048D01*
X112228333Y-64159048D01*
X112037857Y-64206667D01*
X111942619Y-64254286D01*
X111895000Y-64301905D01*
X111847381Y-64397143D01*
X112752143Y-65159048D02*
X112799762Y-65206667D01*
X112847381Y-65159048D01*
X112799762Y-65111429D01*
X112752143Y-65159048D01*
X112847381Y-65159048D01*
X112847381Y-66159048D02*
X112847381Y-65587619D01*
X112847381Y-65873333D02*
X111847381Y-65873333D01*
X111990238Y-65778095D01*
X112085476Y-65682857D01*
X112133095Y-65587619D01*
X112180714Y-67016191D02*
X112847381Y-67016191D01*
X112180714Y-66587619D02*
X112704524Y-66587619D01*
X112799762Y-66635238D01*
X112847381Y-66730476D01*
X112847381Y-66873334D01*
X112799762Y-66968572D01*
X112752143Y-67016191D01*
X112323571Y-67825715D02*
X112323571Y-67492381D01*
X112847381Y-67492381D02*
X111847381Y-67492381D01*
X111847381Y-67968572D01*
X166092143Y-57618334D02*
X166139762Y-57570715D01*
X166187381Y-57427858D01*
X166187381Y-57332620D01*
X166139762Y-57189762D01*
X166044524Y-57094524D01*
X165949286Y-57046905D01*
X165758810Y-56999286D01*
X165615952Y-56999286D01*
X165425476Y-57046905D01*
X165330238Y-57094524D01*
X165235000Y-57189762D01*
X165187381Y-57332620D01*
X165187381Y-57427858D01*
X165235000Y-57570715D01*
X165282619Y-57618334D01*
X165187381Y-58523096D02*
X165187381Y-58046905D01*
X165663571Y-57999286D01*
X165615952Y-58046905D01*
X165568333Y-58142143D01*
X165568333Y-58380239D01*
X165615952Y-58475477D01*
X165663571Y-58523096D01*
X165758810Y-58570715D01*
X165996905Y-58570715D01*
X166092143Y-58523096D01*
X166139762Y-58475477D01*
X166187381Y-58380239D01*
X166187381Y-58142143D01*
X166139762Y-58046905D01*
X166092143Y-57999286D01*
X165187381Y-64397143D02*
X165187381Y-64492382D01*
X165235000Y-64587620D01*
X165282619Y-64635239D01*
X165377857Y-64682858D01*
X165568333Y-64730477D01*
X165806429Y-64730477D01*
X165996905Y-64682858D01*
X166092143Y-64635239D01*
X166139762Y-64587620D01*
X166187381Y-64492382D01*
X166187381Y-64397143D01*
X166139762Y-64301905D01*
X166092143Y-64254286D01*
X165996905Y-64206667D01*
X165806429Y-64159048D01*
X165568333Y-64159048D01*
X165377857Y-64206667D01*
X165282619Y-64254286D01*
X165235000Y-64301905D01*
X165187381Y-64397143D01*
X166092143Y-65159048D02*
X166139762Y-65206667D01*
X166187381Y-65159048D01*
X166139762Y-65111429D01*
X166092143Y-65159048D01*
X166187381Y-65159048D01*
X166187381Y-66159048D02*
X166187381Y-65587619D01*
X166187381Y-65873333D02*
X165187381Y-65873333D01*
X165330238Y-65778095D01*
X165425476Y-65682857D01*
X165473095Y-65587619D01*
X165520714Y-67016191D02*
X166187381Y-67016191D01*
X165520714Y-66587619D02*
X166044524Y-66587619D01*
X166139762Y-66635238D01*
X166187381Y-66730476D01*
X166187381Y-66873334D01*
X166139762Y-66968572D01*
X166092143Y-67016191D01*
X165663571Y-67825715D02*
X165663571Y-67492381D01*
X166187381Y-67492381D02*
X165187381Y-67492381D01*
X165187381Y-67968572D01*
X169902143Y-57618334D02*
X169949762Y-57570715D01*
X169997381Y-57427858D01*
X169997381Y-57332620D01*
X169949762Y-57189762D01*
X169854524Y-57094524D01*
X169759286Y-57046905D01*
X169568810Y-56999286D01*
X169425952Y-56999286D01*
X169235476Y-57046905D01*
X169140238Y-57094524D01*
X169045000Y-57189762D01*
X168997381Y-57332620D01*
X168997381Y-57427858D01*
X169045000Y-57570715D01*
X169092619Y-57618334D01*
X168997381Y-58475477D02*
X168997381Y-58285000D01*
X169045000Y-58189762D01*
X169092619Y-58142143D01*
X169235476Y-58046905D01*
X169425952Y-57999286D01*
X169806905Y-57999286D01*
X169902143Y-58046905D01*
X169949762Y-58094524D01*
X169997381Y-58189762D01*
X169997381Y-58380239D01*
X169949762Y-58475477D01*
X169902143Y-58523096D01*
X169806905Y-58570715D01*
X169568810Y-58570715D01*
X169473571Y-58523096D01*
X169425952Y-58475477D01*
X169378333Y-58380239D01*
X169378333Y-58189762D01*
X169425952Y-58094524D01*
X169473571Y-58046905D01*
X169568810Y-57999286D01*
X168997381Y-64397143D02*
X168997381Y-64492382D01*
X169045000Y-64587620D01*
X169092619Y-64635239D01*
X169187857Y-64682858D01*
X169378333Y-64730477D01*
X169616429Y-64730477D01*
X169806905Y-64682858D01*
X169902143Y-64635239D01*
X169949762Y-64587620D01*
X169997381Y-64492382D01*
X169997381Y-64397143D01*
X169949762Y-64301905D01*
X169902143Y-64254286D01*
X169806905Y-64206667D01*
X169616429Y-64159048D01*
X169378333Y-64159048D01*
X169187857Y-64206667D01*
X169092619Y-64254286D01*
X169045000Y-64301905D01*
X168997381Y-64397143D01*
X169902143Y-65159048D02*
X169949762Y-65206667D01*
X169997381Y-65159048D01*
X169949762Y-65111429D01*
X169902143Y-65159048D01*
X169997381Y-65159048D01*
X169997381Y-66159048D02*
X169997381Y-65587619D01*
X169997381Y-65873333D02*
X168997381Y-65873333D01*
X169140238Y-65778095D01*
X169235476Y-65682857D01*
X169283095Y-65587619D01*
X169330714Y-67016191D02*
X169997381Y-67016191D01*
X169330714Y-66587619D02*
X169854524Y-66587619D01*
X169949762Y-66635238D01*
X169997381Y-66730476D01*
X169997381Y-66873334D01*
X169949762Y-66968572D01*
X169902143Y-67016191D01*
X169473571Y-67825715D02*
X169473571Y-67492381D01*
X169997381Y-67492381D02*
X168997381Y-67492381D01*
X168997381Y-67968572D01*
X193047857Y-96242143D02*
X193095476Y-96289762D01*
X193238333Y-96337381D01*
X193333571Y-96337381D01*
X193476429Y-96289762D01*
X193571667Y-96194524D01*
X193619286Y-96099286D01*
X193666905Y-95908810D01*
X193666905Y-95765952D01*
X193619286Y-95575476D01*
X193571667Y-95480238D01*
X193476429Y-95385000D01*
X193333571Y-95337381D01*
X193238333Y-95337381D01*
X193095476Y-95385000D01*
X193047857Y-95432619D01*
X192095476Y-96337381D02*
X192666905Y-96337381D01*
X192381191Y-96337381D02*
X192381191Y-95337381D01*
X192476429Y-95480238D01*
X192571667Y-95575476D01*
X192666905Y-95623095D01*
X191476429Y-95337381D02*
X191381190Y-95337381D01*
X191285952Y-95385000D01*
X191238333Y-95432619D01*
X191190714Y-95527857D01*
X191143095Y-95718333D01*
X191143095Y-95956429D01*
X191190714Y-96146905D01*
X191238333Y-96242143D01*
X191285952Y-96289762D01*
X191381190Y-96337381D01*
X191476429Y-96337381D01*
X191571667Y-96289762D01*
X191619286Y-96242143D01*
X191666905Y-96146905D01*
X191714524Y-95956429D01*
X191714524Y-95718333D01*
X191666905Y-95527857D01*
X191619286Y-95432619D01*
X191571667Y-95385000D01*
X191476429Y-95337381D01*
X202302857Y-95337381D02*
X202207618Y-95337381D01*
X202112380Y-95385000D01*
X202064761Y-95432619D01*
X202017142Y-95527857D01*
X201969523Y-95718333D01*
X201969523Y-95956429D01*
X202017142Y-96146905D01*
X202064761Y-96242143D01*
X202112380Y-96289762D01*
X202207618Y-96337381D01*
X202302857Y-96337381D01*
X202398095Y-96289762D01*
X202445714Y-96242143D01*
X202493333Y-96146905D01*
X202540952Y-95956429D01*
X202540952Y-95718333D01*
X202493333Y-95527857D01*
X202445714Y-95432619D01*
X202398095Y-95385000D01*
X202302857Y-95337381D01*
X201540952Y-96242143D02*
X201493333Y-96289762D01*
X201540952Y-96337381D01*
X201588571Y-96289762D01*
X201540952Y-96242143D01*
X201540952Y-96337381D01*
X200540952Y-96337381D02*
X201112381Y-96337381D01*
X200826667Y-96337381D02*
X200826667Y-95337381D01*
X200921905Y-95480238D01*
X201017143Y-95575476D01*
X201112381Y-95623095D01*
X199683809Y-95670714D02*
X199683809Y-96337381D01*
X200112381Y-95670714D02*
X200112381Y-96194524D01*
X200064762Y-96289762D01*
X199969524Y-96337381D01*
X199826666Y-96337381D01*
X199731428Y-96289762D01*
X199683809Y-96242143D01*
X198874285Y-95813571D02*
X199207619Y-95813571D01*
X199207619Y-96337381D02*
X199207619Y-95337381D01*
X198731428Y-95337381D01*
X302617143Y-113002143D02*
X302664762Y-112954524D01*
X302712381Y-112811667D01*
X302712381Y-112716429D01*
X302664762Y-112573571D01*
X302569524Y-112478333D01*
X302474286Y-112430714D01*
X302283810Y-112383095D01*
X302140952Y-112383095D01*
X301950476Y-112430714D01*
X301855238Y-112478333D01*
X301760000Y-112573571D01*
X301712381Y-112716429D01*
X301712381Y-112811667D01*
X301760000Y-112954524D01*
X301807619Y-113002143D01*
X302712381Y-113954524D02*
X302712381Y-113383095D01*
X302712381Y-113668809D02*
X301712381Y-113668809D01*
X301855238Y-113573571D01*
X301950476Y-113478333D01*
X301998095Y-113383095D01*
X301807619Y-114335476D02*
X301760000Y-114383095D01*
X301712381Y-114478333D01*
X301712381Y-114716429D01*
X301760000Y-114811667D01*
X301807619Y-114859286D01*
X301902857Y-114906905D01*
X301998095Y-114906905D01*
X302140952Y-114859286D01*
X302712381Y-114287857D01*
X302712381Y-114906905D01*
X301712381Y-103747143D02*
X301712381Y-103842382D01*
X301760000Y-103937620D01*
X301807619Y-103985239D01*
X301902857Y-104032858D01*
X302093333Y-104080477D01*
X302331429Y-104080477D01*
X302521905Y-104032858D01*
X302617143Y-103985239D01*
X302664762Y-103937620D01*
X302712381Y-103842382D01*
X302712381Y-103747143D01*
X302664762Y-103651905D01*
X302617143Y-103604286D01*
X302521905Y-103556667D01*
X302331429Y-103509048D01*
X302093333Y-103509048D01*
X301902857Y-103556667D01*
X301807619Y-103604286D01*
X301760000Y-103651905D01*
X301712381Y-103747143D01*
X302617143Y-104509048D02*
X302664762Y-104556667D01*
X302712381Y-104509048D01*
X302664762Y-104461429D01*
X302617143Y-104509048D01*
X302712381Y-104509048D01*
X302712381Y-105509048D02*
X302712381Y-104937619D01*
X302712381Y-105223333D02*
X301712381Y-105223333D01*
X301855238Y-105128095D01*
X301950476Y-105032857D01*
X301998095Y-104937619D01*
X302045714Y-106366191D02*
X302712381Y-106366191D01*
X302045714Y-105937619D02*
X302569524Y-105937619D01*
X302664762Y-105985238D01*
X302712381Y-106080476D01*
X302712381Y-106223334D01*
X302664762Y-106318572D01*
X302617143Y-106366191D01*
X302188571Y-107175715D02*
X302188571Y-106842381D01*
X302712381Y-106842381D02*
X301712381Y-106842381D01*
X301712381Y-107318572D01*
X85447143Y-109847143D02*
X85494762Y-109799524D01*
X85542381Y-109656667D01*
X85542381Y-109561429D01*
X85494762Y-109418571D01*
X85399524Y-109323333D01*
X85304286Y-109275714D01*
X85113810Y-109228095D01*
X84970952Y-109228095D01*
X84780476Y-109275714D01*
X84685238Y-109323333D01*
X84590000Y-109418571D01*
X84542381Y-109561429D01*
X84542381Y-109656667D01*
X84590000Y-109799524D01*
X84637619Y-109847143D01*
X85542381Y-110799524D02*
X85542381Y-110228095D01*
X85542381Y-110513809D02*
X84542381Y-110513809D01*
X84685238Y-110418571D01*
X84780476Y-110323333D01*
X84828095Y-110228095D01*
X84542381Y-111132857D02*
X84542381Y-111751905D01*
X84923333Y-111418571D01*
X84923333Y-111561429D01*
X84970952Y-111656667D01*
X85018571Y-111704286D01*
X85113810Y-111751905D01*
X85351905Y-111751905D01*
X85447143Y-111704286D01*
X85494762Y-111656667D01*
X85542381Y-111561429D01*
X85542381Y-111275714D01*
X85494762Y-111180476D01*
X85447143Y-111132857D01*
X84542381Y-117102143D02*
X84542381Y-117197382D01*
X84590000Y-117292620D01*
X84637619Y-117340239D01*
X84732857Y-117387858D01*
X84923333Y-117435477D01*
X85161429Y-117435477D01*
X85351905Y-117387858D01*
X85447143Y-117340239D01*
X85494762Y-117292620D01*
X85542381Y-117197382D01*
X85542381Y-117102143D01*
X85494762Y-117006905D01*
X85447143Y-116959286D01*
X85351905Y-116911667D01*
X85161429Y-116864048D01*
X84923333Y-116864048D01*
X84732857Y-116911667D01*
X84637619Y-116959286D01*
X84590000Y-117006905D01*
X84542381Y-117102143D01*
X85447143Y-117864048D02*
X85494762Y-117911667D01*
X85542381Y-117864048D01*
X85494762Y-117816429D01*
X85447143Y-117864048D01*
X85542381Y-117864048D01*
X85542381Y-118864048D02*
X85542381Y-118292619D01*
X85542381Y-118578333D02*
X84542381Y-118578333D01*
X84685238Y-118483095D01*
X84780476Y-118387857D01*
X84828095Y-118292619D01*
X84875714Y-119721191D02*
X85542381Y-119721191D01*
X84875714Y-119292619D02*
X85399524Y-119292619D01*
X85494762Y-119340238D01*
X85542381Y-119435476D01*
X85542381Y-119578334D01*
X85494762Y-119673572D01*
X85447143Y-119721191D01*
X85018571Y-120530715D02*
X85018571Y-120197381D01*
X85542381Y-120197381D02*
X84542381Y-120197381D01*
X84542381Y-120673572D01*
X137097381Y-90471667D02*
X137811667Y-90471667D01*
X137954524Y-90424047D01*
X138049762Y-90328809D01*
X138097381Y-90185952D01*
X138097381Y-90090714D01*
X137097381Y-90852619D02*
X137097381Y-91519286D01*
X138097381Y-91090714D01*
X179307381Y-88138095D02*
X180116905Y-88138095D01*
X180212143Y-88185714D01*
X180259762Y-88233333D01*
X180307381Y-88328571D01*
X180307381Y-88519048D01*
X180259762Y-88614286D01*
X180212143Y-88661905D01*
X180116905Y-88709524D01*
X179307381Y-88709524D01*
X179307381Y-89614286D02*
X179307381Y-89423809D01*
X179355000Y-89328571D01*
X179402619Y-89280952D01*
X179545476Y-89185714D01*
X179735952Y-89138095D01*
X180116905Y-89138095D01*
X180212143Y-89185714D01*
X180259762Y-89233333D01*
X180307381Y-89328571D01*
X180307381Y-89519048D01*
X180259762Y-89614286D01*
X180212143Y-89661905D01*
X180116905Y-89709524D01*
X179878810Y-89709524D01*
X179783571Y-89661905D01*
X179735952Y-89614286D01*
X179688333Y-89519048D01*
X179688333Y-89328571D01*
X179735952Y-89233333D01*
X179783571Y-89185714D01*
X179878810Y-89138095D01*
X180102381Y-88257143D02*
X179626190Y-87923809D01*
X180102381Y-87685714D02*
X179102381Y-87685714D01*
X179102381Y-88066667D01*
X179150000Y-88161905D01*
X179197619Y-88209524D01*
X179292857Y-88257143D01*
X179435714Y-88257143D01*
X179530952Y-88209524D01*
X179578571Y-88161905D01*
X179626190Y-88066667D01*
X179626190Y-87685714D01*
X180054762Y-88638095D02*
X180102381Y-88780952D01*
X180102381Y-89019048D01*
X180054762Y-89114286D01*
X180007143Y-89161905D01*
X179911905Y-89209524D01*
X179816667Y-89209524D01*
X179721429Y-89161905D01*
X179673810Y-89114286D01*
X179626190Y-89019048D01*
X179578571Y-88828571D01*
X179530952Y-88733333D01*
X179483333Y-88685714D01*
X179388095Y-88638095D01*
X179292857Y-88638095D01*
X179197619Y-88685714D01*
X179150000Y-88733333D01*
X179102381Y-88828571D01*
X179102381Y-89066667D01*
X179150000Y-89209524D01*
X179197619Y-89590476D02*
X179150000Y-89638095D01*
X179102381Y-89733333D01*
X179102381Y-89971429D01*
X179150000Y-90066667D01*
X179197619Y-90114286D01*
X179292857Y-90161905D01*
X179388095Y-90161905D01*
X179530952Y-90114286D01*
X180102381Y-89542857D01*
X180102381Y-90161905D01*
X139092857Y-93067143D02*
X139140476Y-93114762D01*
X139283333Y-93162381D01*
X139378571Y-93162381D01*
X139521429Y-93114762D01*
X139616667Y-93019524D01*
X139664286Y-92924286D01*
X139711905Y-92733810D01*
X139711905Y-92590952D01*
X139664286Y-92400476D01*
X139616667Y-92305238D01*
X139521429Y-92210000D01*
X139378571Y-92162381D01*
X139283333Y-92162381D01*
X139140476Y-92210000D01*
X139092857Y-92257619D01*
X138140476Y-93162381D02*
X138711905Y-93162381D01*
X138426191Y-93162381D02*
X138426191Y-92162381D01*
X138521429Y-92305238D01*
X138616667Y-92400476D01*
X138711905Y-92448095D01*
X137188095Y-93162381D02*
X137759524Y-93162381D01*
X137473810Y-93162381D02*
X137473810Y-92162381D01*
X137569048Y-92305238D01*
X137664286Y-92400476D01*
X137759524Y-92448095D01*
X148347857Y-92162381D02*
X148252618Y-92162381D01*
X148157380Y-92210000D01*
X148109761Y-92257619D01*
X148062142Y-92352857D01*
X148014523Y-92543333D01*
X148014523Y-92781429D01*
X148062142Y-92971905D01*
X148109761Y-93067143D01*
X148157380Y-93114762D01*
X148252618Y-93162381D01*
X148347857Y-93162381D01*
X148443095Y-93114762D01*
X148490714Y-93067143D01*
X148538333Y-92971905D01*
X148585952Y-92781429D01*
X148585952Y-92543333D01*
X148538333Y-92352857D01*
X148490714Y-92257619D01*
X148443095Y-92210000D01*
X148347857Y-92162381D01*
X147585952Y-93067143D02*
X147538333Y-93114762D01*
X147585952Y-93162381D01*
X147633571Y-93114762D01*
X147585952Y-93067143D01*
X147585952Y-93162381D01*
X146585952Y-93162381D02*
X147157381Y-93162381D01*
X146871667Y-93162381D02*
X146871667Y-92162381D01*
X146966905Y-92305238D01*
X147062143Y-92400476D01*
X147157381Y-92448095D01*
X145728809Y-92495714D02*
X145728809Y-93162381D01*
X146157381Y-92495714D02*
X146157381Y-93019524D01*
X146109762Y-93114762D01*
X146014524Y-93162381D01*
X145871666Y-93162381D01*
X145776428Y-93114762D01*
X145728809Y-93067143D01*
X144919285Y-92638571D02*
X145252619Y-92638571D01*
X145252619Y-93162381D02*
X145252619Y-92162381D01*
X144776428Y-92162381D01*
X138032381Y-84328095D02*
X138841905Y-84328095D01*
X138937143Y-84375714D01*
X138984762Y-84423333D01*
X139032381Y-84518571D01*
X139032381Y-84709048D01*
X138984762Y-84804286D01*
X138937143Y-84851905D01*
X138841905Y-84899524D01*
X138032381Y-84899524D01*
X138032381Y-85851905D02*
X138032381Y-85375714D01*
X138508571Y-85328095D01*
X138460952Y-85375714D01*
X138413333Y-85470952D01*
X138413333Y-85709048D01*
X138460952Y-85804286D01*
X138508571Y-85851905D01*
X138603810Y-85899524D01*
X138841905Y-85899524D01*
X138937143Y-85851905D01*
X138984762Y-85804286D01*
X139032381Y-85709048D01*
X139032381Y-85470952D01*
X138984762Y-85375714D01*
X138937143Y-85328095D01*
X82057381Y-60134762D02*
X82057381Y-59658571D01*
X81057381Y-59658571D01*
X81533571Y-60468095D02*
X81533571Y-60801429D01*
X82057381Y-60944286D02*
X82057381Y-60468095D01*
X81057381Y-60468095D01*
X81057381Y-60944286D01*
X82057381Y-61372857D02*
X81057381Y-61372857D01*
X81057381Y-61610952D01*
X81105000Y-61753810D01*
X81200238Y-61849048D01*
X81295476Y-61896667D01*
X81485952Y-61944286D01*
X81628810Y-61944286D01*
X81819286Y-61896667D01*
X81914524Y-61849048D01*
X82009762Y-61753810D01*
X82057381Y-61610952D01*
X82057381Y-61372857D01*
X82057381Y-62372857D02*
X81057381Y-62372857D01*
X81057381Y-62753810D01*
X81105000Y-62849048D01*
X81152619Y-62896667D01*
X81247857Y-62944286D01*
X81390714Y-62944286D01*
X81485952Y-62896667D01*
X81533571Y-62849048D01*
X81581190Y-62753810D01*
X81581190Y-62372857D01*
X82057381Y-63896667D02*
X82057381Y-63325238D01*
X82057381Y-63610952D02*
X81057381Y-63610952D01*
X81200238Y-63515714D01*
X81295476Y-63420476D01*
X81343095Y-63325238D01*
X81057381Y-64230000D02*
X81057381Y-64849048D01*
X81438333Y-64515714D01*
X81438333Y-64658572D01*
X81485952Y-64753810D01*
X81533571Y-64801429D01*
X81628810Y-64849048D01*
X81866905Y-64849048D01*
X81962143Y-64801429D01*
X82009762Y-64753810D01*
X82057381Y-64658572D01*
X82057381Y-64372857D01*
X82009762Y-64277619D01*
X81962143Y-64230000D01*
X160416381Y-69024762D02*
X160416381Y-68548571D01*
X159416381Y-68548571D01*
X159892571Y-69358095D02*
X159892571Y-69691429D01*
X160416381Y-69834286D02*
X160416381Y-69358095D01*
X159416381Y-69358095D01*
X159416381Y-69834286D01*
X160416381Y-70262857D02*
X159416381Y-70262857D01*
X159416381Y-70500952D01*
X159464000Y-70643810D01*
X159559238Y-70739048D01*
X159654476Y-70786667D01*
X159844952Y-70834286D01*
X159987810Y-70834286D01*
X160178286Y-70786667D01*
X160273524Y-70739048D01*
X160368762Y-70643810D01*
X160416381Y-70500952D01*
X160416381Y-70262857D01*
X160416381Y-71262857D02*
X159416381Y-71262857D01*
X159416381Y-71643810D01*
X159464000Y-71739048D01*
X159511619Y-71786667D01*
X159606857Y-71834286D01*
X159749714Y-71834286D01*
X159844952Y-71786667D01*
X159892571Y-71739048D01*
X159940190Y-71643810D01*
X159940190Y-71262857D01*
X160416381Y-72786667D02*
X160416381Y-72215238D01*
X160416381Y-72500952D02*
X159416381Y-72500952D01*
X159559238Y-72405714D01*
X159654476Y-72310476D01*
X159702095Y-72215238D01*
X159511619Y-73167619D02*
X159464000Y-73215238D01*
X159416381Y-73310476D01*
X159416381Y-73548572D01*
X159464000Y-73643810D01*
X159511619Y-73691429D01*
X159606857Y-73739048D01*
X159702095Y-73739048D01*
X159844952Y-73691429D01*
X160416381Y-73120000D01*
X160416381Y-73739048D01*
X157368381Y-58864762D02*
X157368381Y-58388571D01*
X156368381Y-58388571D01*
X156844571Y-59198095D02*
X156844571Y-59531429D01*
X157368381Y-59674286D02*
X157368381Y-59198095D01*
X156368381Y-59198095D01*
X156368381Y-59674286D01*
X157368381Y-60102857D02*
X156368381Y-60102857D01*
X156368381Y-60340952D01*
X156416000Y-60483810D01*
X156511238Y-60579048D01*
X156606476Y-60626667D01*
X156796952Y-60674286D01*
X156939810Y-60674286D01*
X157130286Y-60626667D01*
X157225524Y-60579048D01*
X157320762Y-60483810D01*
X157368381Y-60340952D01*
X157368381Y-60102857D01*
X157368381Y-61102857D02*
X156368381Y-61102857D01*
X156368381Y-61483810D01*
X156416000Y-61579048D01*
X156463619Y-61626667D01*
X156558857Y-61674286D01*
X156701714Y-61674286D01*
X156796952Y-61626667D01*
X156844571Y-61579048D01*
X156892190Y-61483810D01*
X156892190Y-61102857D01*
X157368381Y-62626667D02*
X157368381Y-62055238D01*
X157368381Y-62340952D02*
X156368381Y-62340952D01*
X156511238Y-62245714D01*
X156606476Y-62150476D01*
X156654095Y-62055238D01*
X157368381Y-63579048D02*
X157368381Y-63007619D01*
X157368381Y-63293333D02*
X156368381Y-63293333D01*
X156511238Y-63198095D01*
X156606476Y-63102857D01*
X156654095Y-63007619D01*
X154574381Y-69024762D02*
X154574381Y-68548571D01*
X153574381Y-68548571D01*
X154050571Y-69358095D02*
X154050571Y-69691429D01*
X154574381Y-69834286D02*
X154574381Y-69358095D01*
X153574381Y-69358095D01*
X153574381Y-69834286D01*
X154574381Y-70262857D02*
X153574381Y-70262857D01*
X153574381Y-70500952D01*
X153622000Y-70643810D01*
X153717238Y-70739048D01*
X153812476Y-70786667D01*
X154002952Y-70834286D01*
X154145810Y-70834286D01*
X154336286Y-70786667D01*
X154431524Y-70739048D01*
X154526762Y-70643810D01*
X154574381Y-70500952D01*
X154574381Y-70262857D01*
X154574381Y-71262857D02*
X153574381Y-71262857D01*
X153574381Y-71643810D01*
X153622000Y-71739048D01*
X153669619Y-71786667D01*
X153764857Y-71834286D01*
X153907714Y-71834286D01*
X154002952Y-71786667D01*
X154050571Y-71739048D01*
X154098190Y-71643810D01*
X154098190Y-71262857D01*
X154574381Y-72786667D02*
X154574381Y-72215238D01*
X154574381Y-72500952D02*
X153574381Y-72500952D01*
X153717238Y-72405714D01*
X153812476Y-72310476D01*
X153860095Y-72215238D01*
X153574381Y-73405714D02*
X153574381Y-73500953D01*
X153622000Y-73596191D01*
X153669619Y-73643810D01*
X153764857Y-73691429D01*
X153955333Y-73739048D01*
X154193429Y-73739048D01*
X154383905Y-73691429D01*
X154479143Y-73643810D01*
X154526762Y-73596191D01*
X154574381Y-73500953D01*
X154574381Y-73405714D01*
X154526762Y-73310476D01*
X154479143Y-73262857D01*
X154383905Y-73215238D01*
X154193429Y-73167619D01*
X153955333Y-73167619D01*
X153764857Y-73215238D01*
X153669619Y-73262857D01*
X153622000Y-73310476D01*
X153574381Y-73405714D01*
X151526381Y-59340953D02*
X151526381Y-58864762D01*
X150526381Y-58864762D01*
X151002571Y-59674286D02*
X151002571Y-60007620D01*
X151526381Y-60150477D02*
X151526381Y-59674286D01*
X150526381Y-59674286D01*
X150526381Y-60150477D01*
X151526381Y-60579048D02*
X150526381Y-60579048D01*
X150526381Y-60817143D01*
X150574000Y-60960001D01*
X150669238Y-61055239D01*
X150764476Y-61102858D01*
X150954952Y-61150477D01*
X151097810Y-61150477D01*
X151288286Y-61102858D01*
X151383524Y-61055239D01*
X151478762Y-60960001D01*
X151526381Y-60817143D01*
X151526381Y-60579048D01*
X151526381Y-61579048D02*
X150526381Y-61579048D01*
X150526381Y-61960001D01*
X150574000Y-62055239D01*
X150621619Y-62102858D01*
X150716857Y-62150477D01*
X150859714Y-62150477D01*
X150954952Y-62102858D01*
X151002571Y-62055239D01*
X151050190Y-61960001D01*
X151050190Y-61579048D01*
X151526381Y-62626667D02*
X151526381Y-62817143D01*
X151478762Y-62912382D01*
X151431143Y-62960001D01*
X151288286Y-63055239D01*
X151097810Y-63102858D01*
X150716857Y-63102858D01*
X150621619Y-63055239D01*
X150574000Y-63007620D01*
X150526381Y-62912382D01*
X150526381Y-62721905D01*
X150574000Y-62626667D01*
X150621619Y-62579048D01*
X150716857Y-62531429D01*
X150954952Y-62531429D01*
X151050190Y-62579048D01*
X151097810Y-62626667D01*
X151145429Y-62721905D01*
X151145429Y-62912382D01*
X151097810Y-63007620D01*
X151050190Y-63055239D01*
X150954952Y-63102858D01*
X148732381Y-69500953D02*
X148732381Y-69024762D01*
X147732381Y-69024762D01*
X148208571Y-69834286D02*
X148208571Y-70167620D01*
X148732381Y-70310477D02*
X148732381Y-69834286D01*
X147732381Y-69834286D01*
X147732381Y-70310477D01*
X148732381Y-70739048D02*
X147732381Y-70739048D01*
X147732381Y-70977143D01*
X147780000Y-71120001D01*
X147875238Y-71215239D01*
X147970476Y-71262858D01*
X148160952Y-71310477D01*
X148303810Y-71310477D01*
X148494286Y-71262858D01*
X148589524Y-71215239D01*
X148684762Y-71120001D01*
X148732381Y-70977143D01*
X148732381Y-70739048D01*
X148732381Y-71739048D02*
X147732381Y-71739048D01*
X147732381Y-72120001D01*
X147780000Y-72215239D01*
X147827619Y-72262858D01*
X147922857Y-72310477D01*
X148065714Y-72310477D01*
X148160952Y-72262858D01*
X148208571Y-72215239D01*
X148256190Y-72120001D01*
X148256190Y-71739048D01*
X148160952Y-72881905D02*
X148113333Y-72786667D01*
X148065714Y-72739048D01*
X147970476Y-72691429D01*
X147922857Y-72691429D01*
X147827619Y-72739048D01*
X147780000Y-72786667D01*
X147732381Y-72881905D01*
X147732381Y-73072382D01*
X147780000Y-73167620D01*
X147827619Y-73215239D01*
X147922857Y-73262858D01*
X147970476Y-73262858D01*
X148065714Y-73215239D01*
X148113333Y-73167620D01*
X148160952Y-73072382D01*
X148160952Y-72881905D01*
X148208571Y-72786667D01*
X148256190Y-72739048D01*
X148351429Y-72691429D01*
X148541905Y-72691429D01*
X148637143Y-72739048D01*
X148684762Y-72786667D01*
X148732381Y-72881905D01*
X148732381Y-73072382D01*
X148684762Y-73167620D01*
X148637143Y-73215239D01*
X148541905Y-73262858D01*
X148351429Y-73262858D01*
X148256190Y-73215239D01*
X148208571Y-73167620D01*
X148160952Y-73072382D01*
X145684381Y-59340953D02*
X145684381Y-58864762D01*
X144684381Y-58864762D01*
X145160571Y-59674286D02*
X145160571Y-60007620D01*
X145684381Y-60150477D02*
X145684381Y-59674286D01*
X144684381Y-59674286D01*
X144684381Y-60150477D01*
X145684381Y-60579048D02*
X144684381Y-60579048D01*
X144684381Y-60817143D01*
X144732000Y-60960001D01*
X144827238Y-61055239D01*
X144922476Y-61102858D01*
X145112952Y-61150477D01*
X145255810Y-61150477D01*
X145446286Y-61102858D01*
X145541524Y-61055239D01*
X145636762Y-60960001D01*
X145684381Y-60817143D01*
X145684381Y-60579048D01*
X145684381Y-61579048D02*
X144684381Y-61579048D01*
X144684381Y-61960001D01*
X144732000Y-62055239D01*
X144779619Y-62102858D01*
X144874857Y-62150477D01*
X145017714Y-62150477D01*
X145112952Y-62102858D01*
X145160571Y-62055239D01*
X145208190Y-61960001D01*
X145208190Y-61579048D01*
X144684381Y-62483810D02*
X144684381Y-63150477D01*
X145684381Y-62721905D01*
X142890381Y-69500953D02*
X142890381Y-69024762D01*
X141890381Y-69024762D01*
X142366571Y-69834286D02*
X142366571Y-70167620D01*
X142890381Y-70310477D02*
X142890381Y-69834286D01*
X141890381Y-69834286D01*
X141890381Y-70310477D01*
X142890381Y-70739048D02*
X141890381Y-70739048D01*
X141890381Y-70977143D01*
X141938000Y-71120001D01*
X142033238Y-71215239D01*
X142128476Y-71262858D01*
X142318952Y-71310477D01*
X142461810Y-71310477D01*
X142652286Y-71262858D01*
X142747524Y-71215239D01*
X142842762Y-71120001D01*
X142890381Y-70977143D01*
X142890381Y-70739048D01*
X142890381Y-71739048D02*
X141890381Y-71739048D01*
X141890381Y-72120001D01*
X141938000Y-72215239D01*
X141985619Y-72262858D01*
X142080857Y-72310477D01*
X142223714Y-72310477D01*
X142318952Y-72262858D01*
X142366571Y-72215239D01*
X142414190Y-72120001D01*
X142414190Y-71739048D01*
X141890381Y-73167620D02*
X141890381Y-72977143D01*
X141938000Y-72881905D01*
X141985619Y-72834286D01*
X142128476Y-72739048D01*
X142318952Y-72691429D01*
X142699905Y-72691429D01*
X142795143Y-72739048D01*
X142842762Y-72786667D01*
X142890381Y-72881905D01*
X142890381Y-73072382D01*
X142842762Y-73167620D01*
X142795143Y-73215239D01*
X142699905Y-73262858D01*
X142461810Y-73262858D01*
X142366571Y-73215239D01*
X142318952Y-73167620D01*
X142271333Y-73072382D01*
X142271333Y-72881905D01*
X142318952Y-72786667D01*
X142366571Y-72739048D01*
X142461810Y-72691429D01*
X137048381Y-69500953D02*
X137048381Y-69024762D01*
X136048381Y-69024762D01*
X136524571Y-69834286D02*
X136524571Y-70167620D01*
X137048381Y-70310477D02*
X137048381Y-69834286D01*
X136048381Y-69834286D01*
X136048381Y-70310477D01*
X137048381Y-70739048D02*
X136048381Y-70739048D01*
X136048381Y-70977143D01*
X136096000Y-71120001D01*
X136191238Y-71215239D01*
X136286476Y-71262858D01*
X136476952Y-71310477D01*
X136619810Y-71310477D01*
X136810286Y-71262858D01*
X136905524Y-71215239D01*
X137000762Y-71120001D01*
X137048381Y-70977143D01*
X137048381Y-70739048D01*
X137048381Y-71739048D02*
X136048381Y-71739048D01*
X136048381Y-72120001D01*
X136096000Y-72215239D01*
X136143619Y-72262858D01*
X136238857Y-72310477D01*
X136381714Y-72310477D01*
X136476952Y-72262858D01*
X136524571Y-72215239D01*
X136572190Y-72120001D01*
X136572190Y-71739048D01*
X136048381Y-73215239D02*
X136048381Y-72739048D01*
X136524571Y-72691429D01*
X136476952Y-72739048D01*
X136429333Y-72834286D01*
X136429333Y-73072382D01*
X136476952Y-73167620D01*
X136524571Y-73215239D01*
X136619810Y-73262858D01*
X136857905Y-73262858D01*
X136953143Y-73215239D01*
X137000762Y-73167620D01*
X137048381Y-73072382D01*
X137048381Y-72834286D01*
X137000762Y-72739048D01*
X136953143Y-72691429D01*
X134000381Y-59340953D02*
X134000381Y-58864762D01*
X133000381Y-58864762D01*
X133476571Y-59674286D02*
X133476571Y-60007620D01*
X134000381Y-60150477D02*
X134000381Y-59674286D01*
X133000381Y-59674286D01*
X133000381Y-60150477D01*
X134000381Y-60579048D02*
X133000381Y-60579048D01*
X133000381Y-60817143D01*
X133048000Y-60960001D01*
X133143238Y-61055239D01*
X133238476Y-61102858D01*
X133428952Y-61150477D01*
X133571810Y-61150477D01*
X133762286Y-61102858D01*
X133857524Y-61055239D01*
X133952762Y-60960001D01*
X134000381Y-60817143D01*
X134000381Y-60579048D01*
X134000381Y-61579048D02*
X133000381Y-61579048D01*
X133000381Y-61960001D01*
X133048000Y-62055239D01*
X133095619Y-62102858D01*
X133190857Y-62150477D01*
X133333714Y-62150477D01*
X133428952Y-62102858D01*
X133476571Y-62055239D01*
X133524190Y-61960001D01*
X133524190Y-61579048D01*
X133333714Y-63007620D02*
X134000381Y-63007620D01*
X132952762Y-62769524D02*
X133667048Y-62531429D01*
X133667048Y-63150477D01*
X131206381Y-69500953D02*
X131206381Y-69024762D01*
X130206381Y-69024762D01*
X130682571Y-69834286D02*
X130682571Y-70167620D01*
X131206381Y-70310477D02*
X131206381Y-69834286D01*
X130206381Y-69834286D01*
X130206381Y-70310477D01*
X131206381Y-70739048D02*
X130206381Y-70739048D01*
X130206381Y-70977143D01*
X130254000Y-71120001D01*
X130349238Y-71215239D01*
X130444476Y-71262858D01*
X130634952Y-71310477D01*
X130777810Y-71310477D01*
X130968286Y-71262858D01*
X131063524Y-71215239D01*
X131158762Y-71120001D01*
X131206381Y-70977143D01*
X131206381Y-70739048D01*
X131206381Y-71739048D02*
X130206381Y-71739048D01*
X130206381Y-72120001D01*
X130254000Y-72215239D01*
X130301619Y-72262858D01*
X130396857Y-72310477D01*
X130539714Y-72310477D01*
X130634952Y-72262858D01*
X130682571Y-72215239D01*
X130730190Y-72120001D01*
X130730190Y-71739048D01*
X130206381Y-72643810D02*
X130206381Y-73262858D01*
X130587333Y-72929524D01*
X130587333Y-73072382D01*
X130634952Y-73167620D01*
X130682571Y-73215239D01*
X130777810Y-73262858D01*
X131015905Y-73262858D01*
X131111143Y-73215239D01*
X131158762Y-73167620D01*
X131206381Y-73072382D01*
X131206381Y-72786667D01*
X131158762Y-72691429D01*
X131111143Y-72643810D01*
X128158381Y-59340953D02*
X128158381Y-58864762D01*
X127158381Y-58864762D01*
X127634571Y-59674286D02*
X127634571Y-60007620D01*
X128158381Y-60150477D02*
X128158381Y-59674286D01*
X127158381Y-59674286D01*
X127158381Y-60150477D01*
X128158381Y-60579048D02*
X127158381Y-60579048D01*
X127158381Y-60817143D01*
X127206000Y-60960001D01*
X127301238Y-61055239D01*
X127396476Y-61102858D01*
X127586952Y-61150477D01*
X127729810Y-61150477D01*
X127920286Y-61102858D01*
X128015524Y-61055239D01*
X128110762Y-60960001D01*
X128158381Y-60817143D01*
X128158381Y-60579048D01*
X128158381Y-61579048D02*
X127158381Y-61579048D01*
X127158381Y-61960001D01*
X127206000Y-62055239D01*
X127253619Y-62102858D01*
X127348857Y-62150477D01*
X127491714Y-62150477D01*
X127586952Y-62102858D01*
X127634571Y-62055239D01*
X127682190Y-61960001D01*
X127682190Y-61579048D01*
X127253619Y-62531429D02*
X127206000Y-62579048D01*
X127158381Y-62674286D01*
X127158381Y-62912382D01*
X127206000Y-63007620D01*
X127253619Y-63055239D01*
X127348857Y-63102858D01*
X127444095Y-63102858D01*
X127586952Y-63055239D01*
X128158381Y-62483810D01*
X128158381Y-63102858D01*
X125364381Y-69500953D02*
X125364381Y-69024762D01*
X124364381Y-69024762D01*
X124840571Y-69834286D02*
X124840571Y-70167620D01*
X125364381Y-70310477D02*
X125364381Y-69834286D01*
X124364381Y-69834286D01*
X124364381Y-70310477D01*
X125364381Y-70739048D02*
X124364381Y-70739048D01*
X124364381Y-70977143D01*
X124412000Y-71120001D01*
X124507238Y-71215239D01*
X124602476Y-71262858D01*
X124792952Y-71310477D01*
X124935810Y-71310477D01*
X125126286Y-71262858D01*
X125221524Y-71215239D01*
X125316762Y-71120001D01*
X125364381Y-70977143D01*
X125364381Y-70739048D01*
X125364381Y-71739048D02*
X124364381Y-71739048D01*
X124364381Y-72120001D01*
X124412000Y-72215239D01*
X124459619Y-72262858D01*
X124554857Y-72310477D01*
X124697714Y-72310477D01*
X124792952Y-72262858D01*
X124840571Y-72215239D01*
X124888190Y-72120001D01*
X124888190Y-71739048D01*
X125364381Y-73262858D02*
X125364381Y-72691429D01*
X125364381Y-72977143D02*
X124364381Y-72977143D01*
X124507238Y-72881905D01*
X124602476Y-72786667D01*
X124650095Y-72691429D01*
D15*
X93154286Y-73798571D02*
X92820952Y-73798571D01*
X92678095Y-74322381D02*
X93154286Y-74322381D01*
X93154286Y-73322381D01*
X92678095Y-73322381D01*
X92249524Y-74322381D02*
X92249524Y-73322381D01*
X91678095Y-74322381D01*
X91678095Y-73322381D01*
X90630476Y-74227143D02*
X90678095Y-74274762D01*
X90820952Y-74322381D01*
X90916190Y-74322381D01*
X91059048Y-74274762D01*
X91154286Y-74179524D01*
X91201905Y-74084286D01*
X91249524Y-73893810D01*
X91249524Y-73750952D01*
X91201905Y-73560476D01*
X91154286Y-73465238D01*
X91059048Y-73370000D01*
X90916190Y-73322381D01*
X90820952Y-73322381D01*
X90678095Y-73370000D01*
X90630476Y-73417619D01*
X89678095Y-74322381D02*
X90249524Y-74322381D01*
X89963810Y-74322381D02*
X89963810Y-73322381D01*
X90059048Y-73465238D01*
X90154286Y-73560476D01*
X90249524Y-73608095D01*
X112204286Y-73798571D02*
X111870952Y-73798571D01*
X111728095Y-74322381D02*
X112204286Y-74322381D01*
X112204286Y-73322381D01*
X111728095Y-73322381D01*
X111299524Y-74322381D02*
X111299524Y-73322381D01*
X110728095Y-74322381D01*
X110728095Y-73322381D01*
X109680476Y-74227143D02*
X109728095Y-74274762D01*
X109870952Y-74322381D01*
X109966190Y-74322381D01*
X110109048Y-74274762D01*
X110204286Y-74179524D01*
X110251905Y-74084286D01*
X110299524Y-73893810D01*
X110299524Y-73750952D01*
X110251905Y-73560476D01*
X110204286Y-73465238D01*
X110109048Y-73370000D01*
X109966190Y-73322381D01*
X109870952Y-73322381D01*
X109728095Y-73370000D01*
X109680476Y-73417619D01*
X109299524Y-73417619D02*
X109251905Y-73370000D01*
X109156667Y-73322381D01*
X108918571Y-73322381D01*
X108823333Y-73370000D01*
X108775714Y-73417619D01*
X108728095Y-73512857D01*
X108728095Y-73608095D01*
X108775714Y-73750952D01*
X109347143Y-74322381D01*
X108728095Y-74322381D01*
X169354286Y-73798571D02*
X169020952Y-73798571D01*
X168878095Y-74322381D02*
X169354286Y-74322381D01*
X169354286Y-73322381D01*
X168878095Y-73322381D01*
X168449524Y-74322381D02*
X168449524Y-73322381D01*
X167878095Y-74322381D01*
X167878095Y-73322381D01*
X166830476Y-74227143D02*
X166878095Y-74274762D01*
X167020952Y-74322381D01*
X167116190Y-74322381D01*
X167259048Y-74274762D01*
X167354286Y-74179524D01*
X167401905Y-74084286D01*
X167449524Y-73893810D01*
X167449524Y-73750952D01*
X167401905Y-73560476D01*
X167354286Y-73465238D01*
X167259048Y-73370000D01*
X167116190Y-73322381D01*
X167020952Y-73322381D01*
X166878095Y-73370000D01*
X166830476Y-73417619D01*
X166497143Y-73322381D02*
X165878095Y-73322381D01*
X166211429Y-73703333D01*
X166068571Y-73703333D01*
X165973333Y-73750952D01*
X165925714Y-73798571D01*
X165878095Y-73893810D01*
X165878095Y-74131905D01*
X165925714Y-74227143D01*
X165973333Y-74274762D01*
X166068571Y-74322381D01*
X166354286Y-74322381D01*
X166449524Y-74274762D01*
X166497143Y-74227143D01*
D12*
X124563143Y-56507143D02*
X124610762Y-56459524D01*
X124658381Y-56316667D01*
X124658381Y-56221429D01*
X124610762Y-56078571D01*
X124515524Y-55983333D01*
X124420286Y-55935714D01*
X124229810Y-55888095D01*
X124086952Y-55888095D01*
X123896476Y-55935714D01*
X123801238Y-55983333D01*
X123706000Y-56078571D01*
X123658381Y-56221429D01*
X123658381Y-56316667D01*
X123706000Y-56459524D01*
X123753619Y-56507143D01*
X124658381Y-57459524D02*
X124658381Y-56888095D01*
X124658381Y-57173809D02*
X123658381Y-57173809D01*
X123801238Y-57078571D01*
X123896476Y-56983333D01*
X123944095Y-56888095D01*
X123658381Y-57792857D02*
X123658381Y-58459524D01*
X124658381Y-58030952D01*
X123658381Y-63762143D02*
X123658381Y-63857382D01*
X123706000Y-63952620D01*
X123753619Y-64000239D01*
X123848857Y-64047858D01*
X124039333Y-64095477D01*
X124277429Y-64095477D01*
X124467905Y-64047858D01*
X124563143Y-64000239D01*
X124610762Y-63952620D01*
X124658381Y-63857382D01*
X124658381Y-63762143D01*
X124610762Y-63666905D01*
X124563143Y-63619286D01*
X124467905Y-63571667D01*
X124277429Y-63524048D01*
X124039333Y-63524048D01*
X123848857Y-63571667D01*
X123753619Y-63619286D01*
X123706000Y-63666905D01*
X123658381Y-63762143D01*
X124563143Y-64524048D02*
X124610762Y-64571667D01*
X124658381Y-64524048D01*
X124610762Y-64476429D01*
X124563143Y-64524048D01*
X124658381Y-64524048D01*
X124658381Y-65524048D02*
X124658381Y-64952619D01*
X124658381Y-65238333D02*
X123658381Y-65238333D01*
X123801238Y-65143095D01*
X123896476Y-65047857D01*
X123944095Y-64952619D01*
X123991714Y-66381191D02*
X124658381Y-66381191D01*
X123991714Y-65952619D02*
X124515524Y-65952619D01*
X124610762Y-66000238D01*
X124658381Y-66095476D01*
X124658381Y-66238334D01*
X124610762Y-66333572D01*
X124563143Y-66381191D01*
X124134571Y-67190715D02*
X124134571Y-66857381D01*
X124658381Y-66857381D02*
X123658381Y-66857381D01*
X123658381Y-67333572D01*
X130405143Y-56507143D02*
X130452762Y-56459524D01*
X130500381Y-56316667D01*
X130500381Y-56221429D01*
X130452762Y-56078571D01*
X130357524Y-55983333D01*
X130262286Y-55935714D01*
X130071810Y-55888095D01*
X129928952Y-55888095D01*
X129738476Y-55935714D01*
X129643238Y-55983333D01*
X129548000Y-56078571D01*
X129500381Y-56221429D01*
X129500381Y-56316667D01*
X129548000Y-56459524D01*
X129595619Y-56507143D01*
X130500381Y-57459524D02*
X130500381Y-56888095D01*
X130500381Y-57173809D02*
X129500381Y-57173809D01*
X129643238Y-57078571D01*
X129738476Y-56983333D01*
X129786095Y-56888095D01*
X129928952Y-58030952D02*
X129881333Y-57935714D01*
X129833714Y-57888095D01*
X129738476Y-57840476D01*
X129690857Y-57840476D01*
X129595619Y-57888095D01*
X129548000Y-57935714D01*
X129500381Y-58030952D01*
X129500381Y-58221429D01*
X129548000Y-58316667D01*
X129595619Y-58364286D01*
X129690857Y-58411905D01*
X129738476Y-58411905D01*
X129833714Y-58364286D01*
X129881333Y-58316667D01*
X129928952Y-58221429D01*
X129928952Y-58030952D01*
X129976571Y-57935714D01*
X130024190Y-57888095D01*
X130119429Y-57840476D01*
X130309905Y-57840476D01*
X130405143Y-57888095D01*
X130452762Y-57935714D01*
X130500381Y-58030952D01*
X130500381Y-58221429D01*
X130452762Y-58316667D01*
X130405143Y-58364286D01*
X130309905Y-58411905D01*
X130119429Y-58411905D01*
X130024190Y-58364286D01*
X129976571Y-58316667D01*
X129928952Y-58221429D01*
X129500381Y-63762143D02*
X129500381Y-63857382D01*
X129548000Y-63952620D01*
X129595619Y-64000239D01*
X129690857Y-64047858D01*
X129881333Y-64095477D01*
X130119429Y-64095477D01*
X130309905Y-64047858D01*
X130405143Y-64000239D01*
X130452762Y-63952620D01*
X130500381Y-63857382D01*
X130500381Y-63762143D01*
X130452762Y-63666905D01*
X130405143Y-63619286D01*
X130309905Y-63571667D01*
X130119429Y-63524048D01*
X129881333Y-63524048D01*
X129690857Y-63571667D01*
X129595619Y-63619286D01*
X129548000Y-63666905D01*
X129500381Y-63762143D01*
X130405143Y-64524048D02*
X130452762Y-64571667D01*
X130500381Y-64524048D01*
X130452762Y-64476429D01*
X130405143Y-64524048D01*
X130500381Y-64524048D01*
X130500381Y-65524048D02*
X130500381Y-64952619D01*
X130500381Y-65238333D02*
X129500381Y-65238333D01*
X129643238Y-65143095D01*
X129738476Y-65047857D01*
X129786095Y-64952619D01*
X129833714Y-66381191D02*
X130500381Y-66381191D01*
X129833714Y-65952619D02*
X130357524Y-65952619D01*
X130452762Y-66000238D01*
X130500381Y-66095476D01*
X130500381Y-66238334D01*
X130452762Y-66333572D01*
X130405143Y-66381191D01*
X129976571Y-67190715D02*
X129976571Y-66857381D01*
X130500381Y-66857381D02*
X129500381Y-66857381D01*
X129500381Y-67333572D01*
X142089143Y-56507143D02*
X142136762Y-56459524D01*
X142184381Y-56316667D01*
X142184381Y-56221429D01*
X142136762Y-56078571D01*
X142041524Y-55983333D01*
X141946286Y-55935714D01*
X141755810Y-55888095D01*
X141612952Y-55888095D01*
X141422476Y-55935714D01*
X141327238Y-55983333D01*
X141232000Y-56078571D01*
X141184381Y-56221429D01*
X141184381Y-56316667D01*
X141232000Y-56459524D01*
X141279619Y-56507143D01*
X142184381Y-57459524D02*
X142184381Y-56888095D01*
X142184381Y-57173809D02*
X141184381Y-57173809D01*
X141327238Y-57078571D01*
X141422476Y-56983333D01*
X141470095Y-56888095D01*
X142184381Y-57935714D02*
X142184381Y-58126190D01*
X142136762Y-58221429D01*
X142089143Y-58269048D01*
X141946286Y-58364286D01*
X141755810Y-58411905D01*
X141374857Y-58411905D01*
X141279619Y-58364286D01*
X141232000Y-58316667D01*
X141184381Y-58221429D01*
X141184381Y-58030952D01*
X141232000Y-57935714D01*
X141279619Y-57888095D01*
X141374857Y-57840476D01*
X141612952Y-57840476D01*
X141708190Y-57888095D01*
X141755810Y-57935714D01*
X141803429Y-58030952D01*
X141803429Y-58221429D01*
X141755810Y-58316667D01*
X141708190Y-58364286D01*
X141612952Y-58411905D01*
X141184381Y-63762143D02*
X141184381Y-63857382D01*
X141232000Y-63952620D01*
X141279619Y-64000239D01*
X141374857Y-64047858D01*
X141565333Y-64095477D01*
X141803429Y-64095477D01*
X141993905Y-64047858D01*
X142089143Y-64000239D01*
X142136762Y-63952620D01*
X142184381Y-63857382D01*
X142184381Y-63762143D01*
X142136762Y-63666905D01*
X142089143Y-63619286D01*
X141993905Y-63571667D01*
X141803429Y-63524048D01*
X141565333Y-63524048D01*
X141374857Y-63571667D01*
X141279619Y-63619286D01*
X141232000Y-63666905D01*
X141184381Y-63762143D01*
X142089143Y-64524048D02*
X142136762Y-64571667D01*
X142184381Y-64524048D01*
X142136762Y-64476429D01*
X142089143Y-64524048D01*
X142184381Y-64524048D01*
X142184381Y-65524048D02*
X142184381Y-64952619D01*
X142184381Y-65238333D02*
X141184381Y-65238333D01*
X141327238Y-65143095D01*
X141422476Y-65047857D01*
X141470095Y-64952619D01*
X141517714Y-66381191D02*
X142184381Y-66381191D01*
X141517714Y-65952619D02*
X142041524Y-65952619D01*
X142136762Y-66000238D01*
X142184381Y-66095476D01*
X142184381Y-66238334D01*
X142136762Y-66333572D01*
X142089143Y-66381191D01*
X141660571Y-67190715D02*
X141660571Y-66857381D01*
X142184381Y-66857381D02*
X141184381Y-66857381D01*
X141184381Y-67333572D01*
X147931143Y-56507143D02*
X147978762Y-56459524D01*
X148026381Y-56316667D01*
X148026381Y-56221429D01*
X147978762Y-56078571D01*
X147883524Y-55983333D01*
X147788286Y-55935714D01*
X147597810Y-55888095D01*
X147454952Y-55888095D01*
X147264476Y-55935714D01*
X147169238Y-55983333D01*
X147074000Y-56078571D01*
X147026381Y-56221429D01*
X147026381Y-56316667D01*
X147074000Y-56459524D01*
X147121619Y-56507143D01*
X147121619Y-56888095D02*
X147074000Y-56935714D01*
X147026381Y-57030952D01*
X147026381Y-57269048D01*
X147074000Y-57364286D01*
X147121619Y-57411905D01*
X147216857Y-57459524D01*
X147312095Y-57459524D01*
X147454952Y-57411905D01*
X148026381Y-56840476D01*
X148026381Y-57459524D01*
X147026381Y-58078571D02*
X147026381Y-58173810D01*
X147074000Y-58269048D01*
X147121619Y-58316667D01*
X147216857Y-58364286D01*
X147407333Y-58411905D01*
X147645429Y-58411905D01*
X147835905Y-58364286D01*
X147931143Y-58316667D01*
X147978762Y-58269048D01*
X148026381Y-58173810D01*
X148026381Y-58078571D01*
X147978762Y-57983333D01*
X147931143Y-57935714D01*
X147835905Y-57888095D01*
X147645429Y-57840476D01*
X147407333Y-57840476D01*
X147216857Y-57888095D01*
X147121619Y-57935714D01*
X147074000Y-57983333D01*
X147026381Y-58078571D01*
X147026381Y-63762143D02*
X147026381Y-63857382D01*
X147074000Y-63952620D01*
X147121619Y-64000239D01*
X147216857Y-64047858D01*
X147407333Y-64095477D01*
X147645429Y-64095477D01*
X147835905Y-64047858D01*
X147931143Y-64000239D01*
X147978762Y-63952620D01*
X148026381Y-63857382D01*
X148026381Y-63762143D01*
X147978762Y-63666905D01*
X147931143Y-63619286D01*
X147835905Y-63571667D01*
X147645429Y-63524048D01*
X147407333Y-63524048D01*
X147216857Y-63571667D01*
X147121619Y-63619286D01*
X147074000Y-63666905D01*
X147026381Y-63762143D01*
X147931143Y-64524048D02*
X147978762Y-64571667D01*
X148026381Y-64524048D01*
X147978762Y-64476429D01*
X147931143Y-64524048D01*
X148026381Y-64524048D01*
X148026381Y-65524048D02*
X148026381Y-64952619D01*
X148026381Y-65238333D02*
X147026381Y-65238333D01*
X147169238Y-65143095D01*
X147264476Y-65047857D01*
X147312095Y-64952619D01*
X147359714Y-66381191D02*
X148026381Y-66381191D01*
X147359714Y-65952619D02*
X147883524Y-65952619D01*
X147978762Y-66000238D01*
X148026381Y-66095476D01*
X148026381Y-66238334D01*
X147978762Y-66333572D01*
X147931143Y-66381191D01*
X147502571Y-67190715D02*
X147502571Y-66857381D01*
X148026381Y-66857381D02*
X147026381Y-66857381D01*
X147026381Y-67333572D01*
X153773143Y-56507143D02*
X153820762Y-56459524D01*
X153868381Y-56316667D01*
X153868381Y-56221429D01*
X153820762Y-56078571D01*
X153725524Y-55983333D01*
X153630286Y-55935714D01*
X153439810Y-55888095D01*
X153296952Y-55888095D01*
X153106476Y-55935714D01*
X153011238Y-55983333D01*
X152916000Y-56078571D01*
X152868381Y-56221429D01*
X152868381Y-56316667D01*
X152916000Y-56459524D01*
X152963619Y-56507143D01*
X152963619Y-56888095D02*
X152916000Y-56935714D01*
X152868381Y-57030952D01*
X152868381Y-57269048D01*
X152916000Y-57364286D01*
X152963619Y-57411905D01*
X153058857Y-57459524D01*
X153154095Y-57459524D01*
X153296952Y-57411905D01*
X153868381Y-56840476D01*
X153868381Y-57459524D01*
X153868381Y-58411905D02*
X153868381Y-57840476D01*
X153868381Y-58126190D02*
X152868381Y-58126190D01*
X153011238Y-58030952D01*
X153106476Y-57935714D01*
X153154095Y-57840476D01*
X152868381Y-63762143D02*
X152868381Y-63857382D01*
X152916000Y-63952620D01*
X152963619Y-64000239D01*
X153058857Y-64047858D01*
X153249333Y-64095477D01*
X153487429Y-64095477D01*
X153677905Y-64047858D01*
X153773143Y-64000239D01*
X153820762Y-63952620D01*
X153868381Y-63857382D01*
X153868381Y-63762143D01*
X153820762Y-63666905D01*
X153773143Y-63619286D01*
X153677905Y-63571667D01*
X153487429Y-63524048D01*
X153249333Y-63524048D01*
X153058857Y-63571667D01*
X152963619Y-63619286D01*
X152916000Y-63666905D01*
X152868381Y-63762143D01*
X153773143Y-64524048D02*
X153820762Y-64571667D01*
X153868381Y-64524048D01*
X153820762Y-64476429D01*
X153773143Y-64524048D01*
X153868381Y-64524048D01*
X153868381Y-65524048D02*
X153868381Y-64952619D01*
X153868381Y-65238333D02*
X152868381Y-65238333D01*
X153011238Y-65143095D01*
X153106476Y-65047857D01*
X153154095Y-64952619D01*
X153201714Y-66381191D02*
X153868381Y-66381191D01*
X153201714Y-65952619D02*
X153725524Y-65952619D01*
X153820762Y-66000238D01*
X153868381Y-66095476D01*
X153868381Y-66238334D01*
X153820762Y-66333572D01*
X153773143Y-66381191D01*
X153344571Y-67190715D02*
X153344571Y-66857381D01*
X153868381Y-66857381D02*
X152868381Y-66857381D01*
X152868381Y-67333572D01*
X121769143Y-66667143D02*
X121816762Y-66619524D01*
X121864381Y-66476667D01*
X121864381Y-66381429D01*
X121816762Y-66238571D01*
X121721524Y-66143333D01*
X121626286Y-66095714D01*
X121435810Y-66048095D01*
X121292952Y-66048095D01*
X121102476Y-66095714D01*
X121007238Y-66143333D01*
X120912000Y-66238571D01*
X120864381Y-66381429D01*
X120864381Y-66476667D01*
X120912000Y-66619524D01*
X120959619Y-66667143D01*
X120959619Y-67048095D02*
X120912000Y-67095714D01*
X120864381Y-67190952D01*
X120864381Y-67429048D01*
X120912000Y-67524286D01*
X120959619Y-67571905D01*
X121054857Y-67619524D01*
X121150095Y-67619524D01*
X121292952Y-67571905D01*
X121864381Y-67000476D01*
X121864381Y-67619524D01*
X120959619Y-68000476D02*
X120912000Y-68048095D01*
X120864381Y-68143333D01*
X120864381Y-68381429D01*
X120912000Y-68476667D01*
X120959619Y-68524286D01*
X121054857Y-68571905D01*
X121150095Y-68571905D01*
X121292952Y-68524286D01*
X121864381Y-67952857D01*
X121864381Y-68571905D01*
X120864381Y-73922143D02*
X120864381Y-74017382D01*
X120912000Y-74112620D01*
X120959619Y-74160239D01*
X121054857Y-74207858D01*
X121245333Y-74255477D01*
X121483429Y-74255477D01*
X121673905Y-74207858D01*
X121769143Y-74160239D01*
X121816762Y-74112620D01*
X121864381Y-74017382D01*
X121864381Y-73922143D01*
X121816762Y-73826905D01*
X121769143Y-73779286D01*
X121673905Y-73731667D01*
X121483429Y-73684048D01*
X121245333Y-73684048D01*
X121054857Y-73731667D01*
X120959619Y-73779286D01*
X120912000Y-73826905D01*
X120864381Y-73922143D01*
X121769143Y-74684048D02*
X121816762Y-74731667D01*
X121864381Y-74684048D01*
X121816762Y-74636429D01*
X121769143Y-74684048D01*
X121864381Y-74684048D01*
X121864381Y-75684048D02*
X121864381Y-75112619D01*
X121864381Y-75398333D02*
X120864381Y-75398333D01*
X121007238Y-75303095D01*
X121102476Y-75207857D01*
X121150095Y-75112619D01*
X121197714Y-76541191D02*
X121864381Y-76541191D01*
X121197714Y-76112619D02*
X121721524Y-76112619D01*
X121816762Y-76160238D01*
X121864381Y-76255476D01*
X121864381Y-76398334D01*
X121816762Y-76493572D01*
X121769143Y-76541191D01*
X121340571Y-77350715D02*
X121340571Y-77017381D01*
X121864381Y-77017381D02*
X120864381Y-77017381D01*
X120864381Y-77493572D01*
X127611143Y-66667143D02*
X127658762Y-66619524D01*
X127706381Y-66476667D01*
X127706381Y-66381429D01*
X127658762Y-66238571D01*
X127563524Y-66143333D01*
X127468286Y-66095714D01*
X127277810Y-66048095D01*
X127134952Y-66048095D01*
X126944476Y-66095714D01*
X126849238Y-66143333D01*
X126754000Y-66238571D01*
X126706381Y-66381429D01*
X126706381Y-66476667D01*
X126754000Y-66619524D01*
X126801619Y-66667143D01*
X126801619Y-67048095D02*
X126754000Y-67095714D01*
X126706381Y-67190952D01*
X126706381Y-67429048D01*
X126754000Y-67524286D01*
X126801619Y-67571905D01*
X126896857Y-67619524D01*
X126992095Y-67619524D01*
X127134952Y-67571905D01*
X127706381Y-67000476D01*
X127706381Y-67619524D01*
X126706381Y-67952857D02*
X126706381Y-68571905D01*
X127087333Y-68238571D01*
X127087333Y-68381429D01*
X127134952Y-68476667D01*
X127182571Y-68524286D01*
X127277810Y-68571905D01*
X127515905Y-68571905D01*
X127611143Y-68524286D01*
X127658762Y-68476667D01*
X127706381Y-68381429D01*
X127706381Y-68095714D01*
X127658762Y-68000476D01*
X127611143Y-67952857D01*
X126706381Y-73922143D02*
X126706381Y-74017382D01*
X126754000Y-74112620D01*
X126801619Y-74160239D01*
X126896857Y-74207858D01*
X127087333Y-74255477D01*
X127325429Y-74255477D01*
X127515905Y-74207858D01*
X127611143Y-74160239D01*
X127658762Y-74112620D01*
X127706381Y-74017382D01*
X127706381Y-73922143D01*
X127658762Y-73826905D01*
X127611143Y-73779286D01*
X127515905Y-73731667D01*
X127325429Y-73684048D01*
X127087333Y-73684048D01*
X126896857Y-73731667D01*
X126801619Y-73779286D01*
X126754000Y-73826905D01*
X126706381Y-73922143D01*
X127611143Y-74684048D02*
X127658762Y-74731667D01*
X127706381Y-74684048D01*
X127658762Y-74636429D01*
X127611143Y-74684048D01*
X127706381Y-74684048D01*
X127706381Y-75684048D02*
X127706381Y-75112619D01*
X127706381Y-75398333D02*
X126706381Y-75398333D01*
X126849238Y-75303095D01*
X126944476Y-75207857D01*
X126992095Y-75112619D01*
X127039714Y-76541191D02*
X127706381Y-76541191D01*
X127039714Y-76112619D02*
X127563524Y-76112619D01*
X127658762Y-76160238D01*
X127706381Y-76255476D01*
X127706381Y-76398334D01*
X127658762Y-76493572D01*
X127611143Y-76541191D01*
X127182571Y-77350715D02*
X127182571Y-77017381D01*
X127706381Y-77017381D02*
X126706381Y-77017381D01*
X126706381Y-77493572D01*
X133453143Y-66667143D02*
X133500762Y-66619524D01*
X133548381Y-66476667D01*
X133548381Y-66381429D01*
X133500762Y-66238571D01*
X133405524Y-66143333D01*
X133310286Y-66095714D01*
X133119810Y-66048095D01*
X132976952Y-66048095D01*
X132786476Y-66095714D01*
X132691238Y-66143333D01*
X132596000Y-66238571D01*
X132548381Y-66381429D01*
X132548381Y-66476667D01*
X132596000Y-66619524D01*
X132643619Y-66667143D01*
X132643619Y-67048095D02*
X132596000Y-67095714D01*
X132548381Y-67190952D01*
X132548381Y-67429048D01*
X132596000Y-67524286D01*
X132643619Y-67571905D01*
X132738857Y-67619524D01*
X132834095Y-67619524D01*
X132976952Y-67571905D01*
X133548381Y-67000476D01*
X133548381Y-67619524D01*
X132881714Y-68476667D02*
X133548381Y-68476667D01*
X132500762Y-68238571D02*
X133215048Y-68000476D01*
X133215048Y-68619524D01*
X132548381Y-73922143D02*
X132548381Y-74017382D01*
X132596000Y-74112620D01*
X132643619Y-74160239D01*
X132738857Y-74207858D01*
X132929333Y-74255477D01*
X133167429Y-74255477D01*
X133357905Y-74207858D01*
X133453143Y-74160239D01*
X133500762Y-74112620D01*
X133548381Y-74017382D01*
X133548381Y-73922143D01*
X133500762Y-73826905D01*
X133453143Y-73779286D01*
X133357905Y-73731667D01*
X133167429Y-73684048D01*
X132929333Y-73684048D01*
X132738857Y-73731667D01*
X132643619Y-73779286D01*
X132596000Y-73826905D01*
X132548381Y-73922143D01*
X133453143Y-74684048D02*
X133500762Y-74731667D01*
X133548381Y-74684048D01*
X133500762Y-74636429D01*
X133453143Y-74684048D01*
X133548381Y-74684048D01*
X133548381Y-75684048D02*
X133548381Y-75112619D01*
X133548381Y-75398333D02*
X132548381Y-75398333D01*
X132691238Y-75303095D01*
X132786476Y-75207857D01*
X132834095Y-75112619D01*
X132881714Y-76541191D02*
X133548381Y-76541191D01*
X132881714Y-76112619D02*
X133405524Y-76112619D01*
X133500762Y-76160238D01*
X133548381Y-76255476D01*
X133548381Y-76398334D01*
X133500762Y-76493572D01*
X133453143Y-76541191D01*
X133024571Y-77350715D02*
X133024571Y-77017381D01*
X133548381Y-77017381D02*
X132548381Y-77017381D01*
X132548381Y-77493572D01*
X139295143Y-66667143D02*
X139342762Y-66619524D01*
X139390381Y-66476667D01*
X139390381Y-66381429D01*
X139342762Y-66238571D01*
X139247524Y-66143333D01*
X139152286Y-66095714D01*
X138961810Y-66048095D01*
X138818952Y-66048095D01*
X138628476Y-66095714D01*
X138533238Y-66143333D01*
X138438000Y-66238571D01*
X138390381Y-66381429D01*
X138390381Y-66476667D01*
X138438000Y-66619524D01*
X138485619Y-66667143D01*
X138485619Y-67048095D02*
X138438000Y-67095714D01*
X138390381Y-67190952D01*
X138390381Y-67429048D01*
X138438000Y-67524286D01*
X138485619Y-67571905D01*
X138580857Y-67619524D01*
X138676095Y-67619524D01*
X138818952Y-67571905D01*
X139390381Y-67000476D01*
X139390381Y-67619524D01*
X138390381Y-68524286D02*
X138390381Y-68048095D01*
X138866571Y-68000476D01*
X138818952Y-68048095D01*
X138771333Y-68143333D01*
X138771333Y-68381429D01*
X138818952Y-68476667D01*
X138866571Y-68524286D01*
X138961810Y-68571905D01*
X139199905Y-68571905D01*
X139295143Y-68524286D01*
X139342762Y-68476667D01*
X139390381Y-68381429D01*
X139390381Y-68143333D01*
X139342762Y-68048095D01*
X139295143Y-68000476D01*
X138390381Y-73922143D02*
X138390381Y-74017382D01*
X138438000Y-74112620D01*
X138485619Y-74160239D01*
X138580857Y-74207858D01*
X138771333Y-74255477D01*
X139009429Y-74255477D01*
X139199905Y-74207858D01*
X139295143Y-74160239D01*
X139342762Y-74112620D01*
X139390381Y-74017382D01*
X139390381Y-73922143D01*
X139342762Y-73826905D01*
X139295143Y-73779286D01*
X139199905Y-73731667D01*
X139009429Y-73684048D01*
X138771333Y-73684048D01*
X138580857Y-73731667D01*
X138485619Y-73779286D01*
X138438000Y-73826905D01*
X138390381Y-73922143D01*
X139295143Y-74684048D02*
X139342762Y-74731667D01*
X139390381Y-74684048D01*
X139342762Y-74636429D01*
X139295143Y-74684048D01*
X139390381Y-74684048D01*
X139390381Y-75684048D02*
X139390381Y-75112619D01*
X139390381Y-75398333D02*
X138390381Y-75398333D01*
X138533238Y-75303095D01*
X138628476Y-75207857D01*
X138676095Y-75112619D01*
X138723714Y-76541191D02*
X139390381Y-76541191D01*
X138723714Y-76112619D02*
X139247524Y-76112619D01*
X139342762Y-76160238D01*
X139390381Y-76255476D01*
X139390381Y-76398334D01*
X139342762Y-76493572D01*
X139295143Y-76541191D01*
X138866571Y-77350715D02*
X138866571Y-77017381D01*
X139390381Y-77017381D02*
X138390381Y-77017381D01*
X138390381Y-77493572D01*
X145137143Y-66667143D02*
X145184762Y-66619524D01*
X145232381Y-66476667D01*
X145232381Y-66381429D01*
X145184762Y-66238571D01*
X145089524Y-66143333D01*
X144994286Y-66095714D01*
X144803810Y-66048095D01*
X144660952Y-66048095D01*
X144470476Y-66095714D01*
X144375238Y-66143333D01*
X144280000Y-66238571D01*
X144232381Y-66381429D01*
X144232381Y-66476667D01*
X144280000Y-66619524D01*
X144327619Y-66667143D01*
X144327619Y-67048095D02*
X144280000Y-67095714D01*
X144232381Y-67190952D01*
X144232381Y-67429048D01*
X144280000Y-67524286D01*
X144327619Y-67571905D01*
X144422857Y-67619524D01*
X144518095Y-67619524D01*
X144660952Y-67571905D01*
X145232381Y-67000476D01*
X145232381Y-67619524D01*
X144232381Y-68476667D02*
X144232381Y-68286190D01*
X144280000Y-68190952D01*
X144327619Y-68143333D01*
X144470476Y-68048095D01*
X144660952Y-68000476D01*
X145041905Y-68000476D01*
X145137143Y-68048095D01*
X145184762Y-68095714D01*
X145232381Y-68190952D01*
X145232381Y-68381429D01*
X145184762Y-68476667D01*
X145137143Y-68524286D01*
X145041905Y-68571905D01*
X144803810Y-68571905D01*
X144708571Y-68524286D01*
X144660952Y-68476667D01*
X144613333Y-68381429D01*
X144613333Y-68190952D01*
X144660952Y-68095714D01*
X144708571Y-68048095D01*
X144803810Y-68000476D01*
X144232381Y-73922143D02*
X144232381Y-74017382D01*
X144280000Y-74112620D01*
X144327619Y-74160239D01*
X144422857Y-74207858D01*
X144613333Y-74255477D01*
X144851429Y-74255477D01*
X145041905Y-74207858D01*
X145137143Y-74160239D01*
X145184762Y-74112620D01*
X145232381Y-74017382D01*
X145232381Y-73922143D01*
X145184762Y-73826905D01*
X145137143Y-73779286D01*
X145041905Y-73731667D01*
X144851429Y-73684048D01*
X144613333Y-73684048D01*
X144422857Y-73731667D01*
X144327619Y-73779286D01*
X144280000Y-73826905D01*
X144232381Y-73922143D01*
X145137143Y-74684048D02*
X145184762Y-74731667D01*
X145232381Y-74684048D01*
X145184762Y-74636429D01*
X145137143Y-74684048D01*
X145232381Y-74684048D01*
X145232381Y-75684048D02*
X145232381Y-75112619D01*
X145232381Y-75398333D02*
X144232381Y-75398333D01*
X144375238Y-75303095D01*
X144470476Y-75207857D01*
X144518095Y-75112619D01*
X144565714Y-76541191D02*
X145232381Y-76541191D01*
X144565714Y-76112619D02*
X145089524Y-76112619D01*
X145184762Y-76160238D01*
X145232381Y-76255476D01*
X145232381Y-76398334D01*
X145184762Y-76493572D01*
X145137143Y-76541191D01*
X144708571Y-77350715D02*
X144708571Y-77017381D01*
X145232381Y-77017381D02*
X144232381Y-77017381D01*
X144232381Y-77493572D01*
X150979143Y-66667143D02*
X151026762Y-66619524D01*
X151074381Y-66476667D01*
X151074381Y-66381429D01*
X151026762Y-66238571D01*
X150931524Y-66143333D01*
X150836286Y-66095714D01*
X150645810Y-66048095D01*
X150502952Y-66048095D01*
X150312476Y-66095714D01*
X150217238Y-66143333D01*
X150122000Y-66238571D01*
X150074381Y-66381429D01*
X150074381Y-66476667D01*
X150122000Y-66619524D01*
X150169619Y-66667143D01*
X150169619Y-67048095D02*
X150122000Y-67095714D01*
X150074381Y-67190952D01*
X150074381Y-67429048D01*
X150122000Y-67524286D01*
X150169619Y-67571905D01*
X150264857Y-67619524D01*
X150360095Y-67619524D01*
X150502952Y-67571905D01*
X151074381Y-67000476D01*
X151074381Y-67619524D01*
X150074381Y-67952857D02*
X150074381Y-68619524D01*
X151074381Y-68190952D01*
X150074381Y-73922143D02*
X150074381Y-74017382D01*
X150122000Y-74112620D01*
X150169619Y-74160239D01*
X150264857Y-74207858D01*
X150455333Y-74255477D01*
X150693429Y-74255477D01*
X150883905Y-74207858D01*
X150979143Y-74160239D01*
X151026762Y-74112620D01*
X151074381Y-74017382D01*
X151074381Y-73922143D01*
X151026762Y-73826905D01*
X150979143Y-73779286D01*
X150883905Y-73731667D01*
X150693429Y-73684048D01*
X150455333Y-73684048D01*
X150264857Y-73731667D01*
X150169619Y-73779286D01*
X150122000Y-73826905D01*
X150074381Y-73922143D01*
X150979143Y-74684048D02*
X151026762Y-74731667D01*
X151074381Y-74684048D01*
X151026762Y-74636429D01*
X150979143Y-74684048D01*
X151074381Y-74684048D01*
X151074381Y-75684048D02*
X151074381Y-75112619D01*
X151074381Y-75398333D02*
X150074381Y-75398333D01*
X150217238Y-75303095D01*
X150312476Y-75207857D01*
X150360095Y-75112619D01*
X150407714Y-76541191D02*
X151074381Y-76541191D01*
X150407714Y-76112619D02*
X150931524Y-76112619D01*
X151026762Y-76160238D01*
X151074381Y-76255476D01*
X151074381Y-76398334D01*
X151026762Y-76493572D01*
X150979143Y-76541191D01*
X150550571Y-77350715D02*
X150550571Y-77017381D01*
X151074381Y-77017381D02*
X150074381Y-77017381D01*
X150074381Y-77493572D01*
X156821143Y-66667143D02*
X156868762Y-66619524D01*
X156916381Y-66476667D01*
X156916381Y-66381429D01*
X156868762Y-66238571D01*
X156773524Y-66143333D01*
X156678286Y-66095714D01*
X156487810Y-66048095D01*
X156344952Y-66048095D01*
X156154476Y-66095714D01*
X156059238Y-66143333D01*
X155964000Y-66238571D01*
X155916381Y-66381429D01*
X155916381Y-66476667D01*
X155964000Y-66619524D01*
X156011619Y-66667143D01*
X156011619Y-67048095D02*
X155964000Y-67095714D01*
X155916381Y-67190952D01*
X155916381Y-67429048D01*
X155964000Y-67524286D01*
X156011619Y-67571905D01*
X156106857Y-67619524D01*
X156202095Y-67619524D01*
X156344952Y-67571905D01*
X156916381Y-67000476D01*
X156916381Y-67619524D01*
X156344952Y-68190952D02*
X156297333Y-68095714D01*
X156249714Y-68048095D01*
X156154476Y-68000476D01*
X156106857Y-68000476D01*
X156011619Y-68048095D01*
X155964000Y-68095714D01*
X155916381Y-68190952D01*
X155916381Y-68381429D01*
X155964000Y-68476667D01*
X156011619Y-68524286D01*
X156106857Y-68571905D01*
X156154476Y-68571905D01*
X156249714Y-68524286D01*
X156297333Y-68476667D01*
X156344952Y-68381429D01*
X156344952Y-68190952D01*
X156392571Y-68095714D01*
X156440190Y-68048095D01*
X156535429Y-68000476D01*
X156725905Y-68000476D01*
X156821143Y-68048095D01*
X156868762Y-68095714D01*
X156916381Y-68190952D01*
X156916381Y-68381429D01*
X156868762Y-68476667D01*
X156821143Y-68524286D01*
X156725905Y-68571905D01*
X156535429Y-68571905D01*
X156440190Y-68524286D01*
X156392571Y-68476667D01*
X156344952Y-68381429D01*
X155916381Y-73922143D02*
X155916381Y-74017382D01*
X155964000Y-74112620D01*
X156011619Y-74160239D01*
X156106857Y-74207858D01*
X156297333Y-74255477D01*
X156535429Y-74255477D01*
X156725905Y-74207858D01*
X156821143Y-74160239D01*
X156868762Y-74112620D01*
X156916381Y-74017382D01*
X156916381Y-73922143D01*
X156868762Y-73826905D01*
X156821143Y-73779286D01*
X156725905Y-73731667D01*
X156535429Y-73684048D01*
X156297333Y-73684048D01*
X156106857Y-73731667D01*
X156011619Y-73779286D01*
X155964000Y-73826905D01*
X155916381Y-73922143D01*
X156821143Y-74684048D02*
X156868762Y-74731667D01*
X156916381Y-74684048D01*
X156868762Y-74636429D01*
X156821143Y-74684048D01*
X156916381Y-74684048D01*
X156916381Y-75684048D02*
X156916381Y-75112619D01*
X156916381Y-75398333D02*
X155916381Y-75398333D01*
X156059238Y-75303095D01*
X156154476Y-75207857D01*
X156202095Y-75112619D01*
X156249714Y-76541191D02*
X156916381Y-76541191D01*
X156249714Y-76112619D02*
X156773524Y-76112619D01*
X156868762Y-76160238D01*
X156916381Y-76255476D01*
X156916381Y-76398334D01*
X156868762Y-76493572D01*
X156821143Y-76541191D01*
X156392571Y-77350715D02*
X156392571Y-77017381D01*
X156916381Y-77017381D02*
X155916381Y-77017381D01*
X155916381Y-77493572D01*
X78462143Y-57777143D02*
X78509762Y-57729524D01*
X78557381Y-57586667D01*
X78557381Y-57491429D01*
X78509762Y-57348571D01*
X78414524Y-57253333D01*
X78319286Y-57205714D01*
X78128810Y-57158095D01*
X77985952Y-57158095D01*
X77795476Y-57205714D01*
X77700238Y-57253333D01*
X77605000Y-57348571D01*
X77557381Y-57491429D01*
X77557381Y-57586667D01*
X77605000Y-57729524D01*
X77652619Y-57777143D01*
X77652619Y-58158095D02*
X77605000Y-58205714D01*
X77557381Y-58300952D01*
X77557381Y-58539048D01*
X77605000Y-58634286D01*
X77652619Y-58681905D01*
X77747857Y-58729524D01*
X77843095Y-58729524D01*
X77985952Y-58681905D01*
X78557381Y-58110476D01*
X78557381Y-58729524D01*
X78557381Y-59205714D02*
X78557381Y-59396190D01*
X78509762Y-59491429D01*
X78462143Y-59539048D01*
X78319286Y-59634286D01*
X78128810Y-59681905D01*
X77747857Y-59681905D01*
X77652619Y-59634286D01*
X77605000Y-59586667D01*
X77557381Y-59491429D01*
X77557381Y-59300952D01*
X77605000Y-59205714D01*
X77652619Y-59158095D01*
X77747857Y-59110476D01*
X77985952Y-59110476D01*
X78081190Y-59158095D01*
X78128810Y-59205714D01*
X78176429Y-59300952D01*
X78176429Y-59491429D01*
X78128810Y-59586667D01*
X78081190Y-59634286D01*
X77985952Y-59681905D01*
X77557381Y-65032143D02*
X77557381Y-65127382D01*
X77605000Y-65222620D01*
X77652619Y-65270239D01*
X77747857Y-65317858D01*
X77938333Y-65365477D01*
X78176429Y-65365477D01*
X78366905Y-65317858D01*
X78462143Y-65270239D01*
X78509762Y-65222620D01*
X78557381Y-65127382D01*
X78557381Y-65032143D01*
X78509762Y-64936905D01*
X78462143Y-64889286D01*
X78366905Y-64841667D01*
X78176429Y-64794048D01*
X77938333Y-64794048D01*
X77747857Y-64841667D01*
X77652619Y-64889286D01*
X77605000Y-64936905D01*
X77557381Y-65032143D01*
X78462143Y-65794048D02*
X78509762Y-65841667D01*
X78557381Y-65794048D01*
X78509762Y-65746429D01*
X78462143Y-65794048D01*
X78557381Y-65794048D01*
X78557381Y-66794048D02*
X78557381Y-66222619D01*
X78557381Y-66508333D02*
X77557381Y-66508333D01*
X77700238Y-66413095D01*
X77795476Y-66317857D01*
X77843095Y-66222619D01*
X77890714Y-67651191D02*
X78557381Y-67651191D01*
X77890714Y-67222619D02*
X78414524Y-67222619D01*
X78509762Y-67270238D01*
X78557381Y-67365476D01*
X78557381Y-67508334D01*
X78509762Y-67603572D01*
X78462143Y-67651191D01*
X78033571Y-68460715D02*
X78033571Y-68127381D01*
X78557381Y-68127381D02*
X77557381Y-68127381D01*
X77557381Y-68603572D01*
X231077381Y-128571667D02*
X231791667Y-128571667D01*
X231934524Y-128524047D01*
X232029762Y-128428809D01*
X232077381Y-128285952D01*
X232077381Y-128190714D01*
X232077381Y-129571667D02*
X232077381Y-129000238D01*
X232077381Y-129285952D02*
X231077381Y-129285952D01*
X231220238Y-129190714D01*
X231315476Y-129095476D01*
X231363095Y-129000238D01*
X194873333Y-81277381D02*
X194873333Y-81991667D01*
X194920953Y-82134524D01*
X195016191Y-82229762D01*
X195159048Y-82277381D01*
X195254286Y-82277381D01*
X193968571Y-81610714D02*
X193968571Y-82277381D01*
X194206667Y-81229762D02*
X194444762Y-81944048D01*
X193825714Y-81944048D01*
X178998333Y-81277381D02*
X178998333Y-81991667D01*
X179045953Y-82134524D01*
X179141191Y-82229762D01*
X179284048Y-82277381D01*
X179379286Y-82277381D01*
X178045952Y-81277381D02*
X178522143Y-81277381D01*
X178569762Y-81753571D01*
X178522143Y-81705952D01*
X178426905Y-81658333D01*
X178188809Y-81658333D01*
X178093571Y-81705952D01*
X178045952Y-81753571D01*
X177998333Y-81848810D01*
X177998333Y-82086905D01*
X178045952Y-82182143D01*
X178093571Y-82229762D01*
X178188809Y-82277381D01*
X178426905Y-82277381D01*
X178522143Y-82229762D01*
X178569762Y-82182143D01*
X302617143Y-69048334D02*
X302664762Y-69000715D01*
X302712381Y-68857858D01*
X302712381Y-68762620D01*
X302664762Y-68619762D01*
X302569524Y-68524524D01*
X302474286Y-68476905D01*
X302283810Y-68429286D01*
X302140952Y-68429286D01*
X301950476Y-68476905D01*
X301855238Y-68524524D01*
X301760000Y-68619762D01*
X301712381Y-68762620D01*
X301712381Y-68857858D01*
X301760000Y-69000715D01*
X301807619Y-69048334D01*
X301712381Y-69381667D02*
X301712381Y-70048334D01*
X302712381Y-69619762D01*
X301712381Y-75827143D02*
X301712381Y-75922382D01*
X301760000Y-76017620D01*
X301807619Y-76065239D01*
X301902857Y-76112858D01*
X302093333Y-76160477D01*
X302331429Y-76160477D01*
X302521905Y-76112858D01*
X302617143Y-76065239D01*
X302664762Y-76017620D01*
X302712381Y-75922382D01*
X302712381Y-75827143D01*
X302664762Y-75731905D01*
X302617143Y-75684286D01*
X302521905Y-75636667D01*
X302331429Y-75589048D01*
X302093333Y-75589048D01*
X301902857Y-75636667D01*
X301807619Y-75684286D01*
X301760000Y-75731905D01*
X301712381Y-75827143D01*
X302617143Y-76589048D02*
X302664762Y-76636667D01*
X302712381Y-76589048D01*
X302664762Y-76541429D01*
X302617143Y-76589048D01*
X302712381Y-76589048D01*
X302712381Y-77589048D02*
X302712381Y-77017619D01*
X302712381Y-77303333D02*
X301712381Y-77303333D01*
X301855238Y-77208095D01*
X301950476Y-77112857D01*
X301998095Y-77017619D01*
X302045714Y-78446191D02*
X302712381Y-78446191D01*
X302045714Y-78017619D02*
X302569524Y-78017619D01*
X302664762Y-78065238D01*
X302712381Y-78160476D01*
X302712381Y-78303334D01*
X302664762Y-78398572D01*
X302617143Y-78446191D01*
X302188571Y-79255715D02*
X302188571Y-78922381D01*
X302712381Y-78922381D02*
X301712381Y-78922381D01*
X301712381Y-79398572D01*
X289694857Y-71263381D02*
X290028191Y-70787190D01*
X290266286Y-71263381D02*
X290266286Y-70263381D01*
X289885333Y-70263381D01*
X289790095Y-70311000D01*
X289742476Y-70358619D01*
X289694857Y-70453857D01*
X289694857Y-70596714D01*
X289742476Y-70691952D01*
X289790095Y-70739571D01*
X289885333Y-70787190D01*
X290266286Y-70787190D01*
X289313905Y-71215762D02*
X289171048Y-71263381D01*
X288932952Y-71263381D01*
X288837714Y-71215762D01*
X288790095Y-71168143D01*
X288742476Y-71072905D01*
X288742476Y-70977667D01*
X288790095Y-70882429D01*
X288837714Y-70834810D01*
X288932952Y-70787190D01*
X289123429Y-70739571D01*
X289218667Y-70691952D01*
X289266286Y-70644333D01*
X289313905Y-70549095D01*
X289313905Y-70453857D01*
X289266286Y-70358619D01*
X289218667Y-70311000D01*
X289123429Y-70263381D01*
X288885333Y-70263381D01*
X288742476Y-70311000D01*
X287790095Y-71263381D02*
X288361524Y-71263381D01*
X288075810Y-71263381D02*
X288075810Y-70263381D01*
X288171048Y-70406238D01*
X288266286Y-70501476D01*
X288361524Y-70549095D01*
X310006905Y-56117381D02*
X310006905Y-56926905D01*
X309959286Y-57022143D01*
X309911667Y-57069762D01*
X309816429Y-57117381D01*
X309625952Y-57117381D01*
X309530714Y-57069762D01*
X309483095Y-57022143D01*
X309435476Y-56926905D01*
X309435476Y-56117381D01*
X308435476Y-57117381D02*
X309006905Y-57117381D01*
X308721191Y-57117381D02*
X308721191Y-56117381D01*
X308816429Y-56260238D01*
X308911667Y-56355476D01*
X309006905Y-56403095D01*
X117808333Y-85327381D02*
X117808333Y-86041667D01*
X117855953Y-86184524D01*
X117951191Y-86279762D01*
X118094048Y-86327381D01*
X118189286Y-86327381D01*
X117427381Y-85327381D02*
X116808333Y-85327381D01*
X117141667Y-85708333D01*
X116998809Y-85708333D01*
X116903571Y-85755952D01*
X116855952Y-85803571D01*
X116808333Y-85898810D01*
X116808333Y-86136905D01*
X116855952Y-86232143D01*
X116903571Y-86279762D01*
X116998809Y-86327381D01*
X117284524Y-86327381D01*
X117379762Y-86279762D01*
X117427381Y-86232143D01*
X196881666Y-96470743D02*
X196929285Y-96518362D01*
X197072142Y-96565981D01*
X197167380Y-96565981D01*
X197310238Y-96518362D01*
X197405476Y-96423124D01*
X197453095Y-96327886D01*
X197500714Y-96137410D01*
X197500714Y-95994552D01*
X197453095Y-95804076D01*
X197405476Y-95708838D01*
X197310238Y-95613600D01*
X197167380Y-95565981D01*
X197072142Y-95565981D01*
X196929285Y-95613600D01*
X196881666Y-95661219D01*
X196453095Y-96565981D02*
X196453095Y-95565981D01*
X196072142Y-95565981D01*
X195976904Y-95613600D01*
X195929285Y-95661219D01*
X195881666Y-95756457D01*
X195881666Y-95899314D01*
X195929285Y-95994552D01*
X195976904Y-96042171D01*
X196072142Y-96089790D01*
X196453095Y-96089790D01*
X195500714Y-95661219D02*
X195453095Y-95613600D01*
X195357857Y-95565981D01*
X195119761Y-95565981D01*
X195024523Y-95613600D01*
X194976904Y-95661219D01*
X194929285Y-95756457D01*
X194929285Y-95851695D01*
X194976904Y-95994552D01*
X195548333Y-96565981D01*
X194929285Y-96565981D01*
X193814652Y-97772529D02*
X193052747Y-97772529D01*
X193433699Y-98153481D02*
X193433699Y-97391576D01*
X301753543Y-71723334D02*
X301801162Y-71675715D01*
X301848781Y-71532858D01*
X301848781Y-71437620D01*
X301801162Y-71294762D01*
X301705924Y-71199524D01*
X301610686Y-71151905D01*
X301420210Y-71104286D01*
X301277352Y-71104286D01*
X301086876Y-71151905D01*
X300991638Y-71199524D01*
X300896400Y-71294762D01*
X300848781Y-71437620D01*
X300848781Y-71532858D01*
X300896400Y-71675715D01*
X300944019Y-71723334D01*
X301848781Y-72151905D02*
X300848781Y-72151905D01*
X300848781Y-72532858D01*
X300896400Y-72628096D01*
X300944019Y-72675715D01*
X301039257Y-72723334D01*
X301182114Y-72723334D01*
X301277352Y-72675715D01*
X301324971Y-72628096D01*
X301372590Y-72532858D01*
X301372590Y-72151905D01*
X301182114Y-73580477D02*
X301848781Y-73580477D01*
X300801162Y-73342381D02*
X301515448Y-73104286D01*
X301515448Y-73723334D01*
X299880329Y-69227748D02*
X299880329Y-69989653D01*
X300261281Y-69608701D02*
X299499376Y-69608701D01*
M02*
