M48
;DRILL file {KiCad 4.0.7} date Fri Mar 23 21:44:32 2018
;FORMAT={-:-/ absolute / inch / decimal}
FMAT,2
INCH,TZ
T1C0.067
T2C0.157
%
G90
G05
M72
T1
X3.4Y-4.05
X3.4Y-4.8
X3.8Y-4.05
X3.8Y-4.8
X4.15Y-4.05
X4.15Y-4.8
X4.55Y-4.05
X4.55Y-4.8
X4.9Y-4.05
X4.9Y-4.8
X5.3Y-4.05
X5.3Y-4.8
X5.65Y-4.05
X5.65Y-4.8
X6.05Y-4.05
X6.05Y-4.8
X6.4Y-4.05
X6.4Y-4.8
X6.8Y-4.05
X6.8Y-4.8
X7.15Y-2.55
X7.15Y-4.05
X7.15Y-4.8
X7.55Y-2.55
X7.55Y-4.05
X7.55Y-4.8
X7.9Y-2.55
X7.9Y-4.05
X7.9Y-4.8
X8.3Y-2.55
X8.3Y-4.05
X8.3Y-4.8
X9.25Y-2.55
X9.25Y-3.3
X9.25Y-4.05
X9.25Y-4.8
X9.65Y-2.55
X9.65Y-3.3
X9.65Y-4.05
X9.65Y-4.8
X10.Y-2.55
X10.Y-3.3
X10.Y-4.05
X10.Y-4.8
X10.4Y-2.55
X10.4Y-3.3
X10.4Y-4.05
X10.4Y-4.8
X10.75Y-2.55
X10.75Y-3.3
X10.75Y-4.05
X10.75Y-4.8
X11.15Y-2.55
X11.15Y-3.3
X11.15Y-4.05
X11.15Y-4.8
X11.5Y-2.55
X11.5Y-3.3
X11.5Y-4.05
X11.5Y-4.8
X11.9Y-2.55
X11.9Y-3.3
X11.9Y-4.05
X11.9Y-4.8
T2
X3.6Y-4.05
X3.6Y-4.8
X4.35Y-4.05
X4.35Y-4.8
X5.1Y-4.05
X5.1Y-4.8
X5.85Y-4.05
X5.85Y-4.8
X6.6Y-4.05
X6.6Y-4.8
X7.35Y-2.55
X7.35Y-4.05
X7.35Y-4.8
X8.1Y-2.55
X8.1Y-4.05
X8.1Y-4.8
X9.45Y-2.55
X9.45Y-3.3
X9.45Y-4.05
X9.45Y-4.8
X10.2Y-2.55
X10.2Y-3.3
X10.2Y-4.05
X10.2Y-4.8
X10.95Y-2.55
X10.95Y-3.3
X10.95Y-4.05
X10.95Y-4.8
X11.7Y-2.55
X11.7Y-3.3
X11.7Y-4.05
X11.7Y-4.8
T0
M30
