G04 #@! TF.GenerationSoftware,KiCad,Pcbnew,5.1.4+dfsg1-1*
G04 #@! TF.CreationDate,2020-01-15T10:00:44+00:00*
G04 #@! TF.ProjectId,chordboard,63686f72-6462-46f6-9172-642e6b696361,rev?*
G04 #@! TF.SameCoordinates,Original*
G04 #@! TF.FileFunction,Soldermask,Bot*
G04 #@! TF.FilePolarity,Negative*
%FSLAX46Y46*%
G04 Gerber Fmt 4.6, Leading zero omitted, Abs format (unit mm)*
G04 Created by KiCad (PCBNEW 5.1.4+dfsg1-1) date 2020-01-15 10:00:44*
%MOMM*%
%LPD*%
G04 APERTURE LIST*
%ADD10C,0.100000*%
G04 APERTURE END LIST*
D10*
G36*
X137511904Y-172882979D02*
G01*
X137860054Y-172952230D01*
X138296826Y-173133147D01*
X138689911Y-173395798D01*
X139024202Y-173730089D01*
X139286853Y-174123174D01*
X139467770Y-174559946D01*
X139522041Y-174832787D01*
X139560000Y-175023619D01*
X139560000Y-175496381D01*
X139537279Y-175610604D01*
X139467770Y-175960054D01*
X139286853Y-176396826D01*
X139024202Y-176789911D01*
X138689911Y-177124202D01*
X138296826Y-177386853D01*
X137860054Y-177567770D01*
X137511904Y-177637021D01*
X137396381Y-177660000D01*
X136923619Y-177660000D01*
X136808096Y-177637021D01*
X136459946Y-177567770D01*
X136023174Y-177386853D01*
X135630089Y-177124202D01*
X135295798Y-176789911D01*
X135033147Y-176396826D01*
X134852230Y-175960054D01*
X134782721Y-175610604D01*
X134760000Y-175496381D01*
X134760000Y-175023619D01*
X134797959Y-174832787D01*
X134852230Y-174559946D01*
X135033147Y-174123174D01*
X135295798Y-173730089D01*
X135630089Y-173395798D01*
X136023174Y-173133147D01*
X136459946Y-172952230D01*
X136808096Y-172882979D01*
X136923619Y-172860000D01*
X137396381Y-172860000D01*
X137511904Y-172882979D01*
X137511904Y-172882979D01*
G37*
G36*
X51151904Y-172882979D02*
G01*
X51500054Y-172952230D01*
X51936826Y-173133147D01*
X52329911Y-173395798D01*
X52664202Y-173730089D01*
X52926853Y-174123174D01*
X53107770Y-174559946D01*
X53162041Y-174832787D01*
X53200000Y-175023619D01*
X53200000Y-175496381D01*
X53177279Y-175610604D01*
X53107770Y-175960054D01*
X52926853Y-176396826D01*
X52664202Y-176789911D01*
X52329911Y-177124202D01*
X51936826Y-177386853D01*
X51500054Y-177567770D01*
X51151904Y-177637021D01*
X51036381Y-177660000D01*
X50563619Y-177660000D01*
X50448096Y-177637021D01*
X50099946Y-177567770D01*
X49663174Y-177386853D01*
X49270089Y-177124202D01*
X48935798Y-176789911D01*
X48673147Y-176396826D01*
X48492230Y-175960054D01*
X48422721Y-175610604D01*
X48400000Y-175496381D01*
X48400000Y-175023619D01*
X48437959Y-174832787D01*
X48492230Y-174559946D01*
X48673147Y-174123174D01*
X48935798Y-173730089D01*
X49270089Y-173395798D01*
X49663174Y-173133147D01*
X50099946Y-172952230D01*
X50448096Y-172882979D01*
X50563619Y-172860000D01*
X51036381Y-172860000D01*
X51151904Y-172882979D01*
X51151904Y-172882979D01*
G37*
G36*
X81458524Y-171430042D02*
G01*
X81659196Y-171469958D01*
X81895781Y-171567955D01*
X82108702Y-171710224D01*
X82289776Y-171891298D01*
X82432045Y-172104219D01*
X82530042Y-172340804D01*
X82580000Y-172591961D01*
X82580000Y-172848039D01*
X82530042Y-173099196D01*
X82432045Y-173335781D01*
X82289776Y-173548702D01*
X82108702Y-173729776D01*
X81895781Y-173872045D01*
X81659196Y-173970042D01*
X81533617Y-173995021D01*
X81408040Y-174020000D01*
X81151960Y-174020000D01*
X81026383Y-173995021D01*
X80900804Y-173970042D01*
X80664219Y-173872045D01*
X80451298Y-173729776D01*
X80270224Y-173548702D01*
X80127955Y-173335781D01*
X80029958Y-173099196D01*
X79980000Y-172848039D01*
X79980000Y-172591961D01*
X80029958Y-172340804D01*
X80127955Y-172104219D01*
X80270224Y-171891298D01*
X80451298Y-171710224D01*
X80664219Y-171567955D01*
X80900804Y-171469958D01*
X81101476Y-171430042D01*
X81151960Y-171420000D01*
X81408040Y-171420000D01*
X81458524Y-171430042D01*
X81458524Y-171430042D01*
G37*
G36*
X61138524Y-171430042D02*
G01*
X61339196Y-171469958D01*
X61575781Y-171567955D01*
X61788702Y-171710224D01*
X61969776Y-171891298D01*
X62112045Y-172104219D01*
X62210042Y-172340804D01*
X62260000Y-172591961D01*
X62260000Y-172848039D01*
X62210042Y-173099196D01*
X62112045Y-173335781D01*
X61969776Y-173548702D01*
X61788702Y-173729776D01*
X61575781Y-173872045D01*
X61339196Y-173970042D01*
X61213617Y-173995021D01*
X61088040Y-174020000D01*
X60831960Y-174020000D01*
X60706383Y-173995021D01*
X60580804Y-173970042D01*
X60344219Y-173872045D01*
X60131298Y-173729776D01*
X59950224Y-173548702D01*
X59807955Y-173335781D01*
X59709958Y-173099196D01*
X59660000Y-172848039D01*
X59660000Y-172591961D01*
X59709958Y-172340804D01*
X59807955Y-172104219D01*
X59950224Y-171891298D01*
X60131298Y-171710224D01*
X60344219Y-171567955D01*
X60580804Y-171469958D01*
X60781476Y-171430042D01*
X60831960Y-171420000D01*
X61088040Y-171420000D01*
X61138524Y-171430042D01*
X61138524Y-171430042D01*
G37*
G36*
X122098524Y-171430042D02*
G01*
X122299196Y-171469958D01*
X122535781Y-171567955D01*
X122748702Y-171710224D01*
X122929776Y-171891298D01*
X123072045Y-172104219D01*
X123170042Y-172340804D01*
X123220000Y-172591961D01*
X123220000Y-172848039D01*
X123170042Y-173099196D01*
X123072045Y-173335781D01*
X122929776Y-173548702D01*
X122748702Y-173729776D01*
X122535781Y-173872045D01*
X122299196Y-173970042D01*
X122173617Y-173995021D01*
X122048040Y-174020000D01*
X121791960Y-174020000D01*
X121666383Y-173995021D01*
X121540804Y-173970042D01*
X121304219Y-173872045D01*
X121091298Y-173729776D01*
X120910224Y-173548702D01*
X120767955Y-173335781D01*
X120669958Y-173099196D01*
X120620000Y-172848039D01*
X120620000Y-172591961D01*
X120669958Y-172340804D01*
X120767955Y-172104219D01*
X120910224Y-171891298D01*
X121091298Y-171710224D01*
X121304219Y-171567955D01*
X121540804Y-171469958D01*
X121741476Y-171430042D01*
X121791960Y-171420000D01*
X122048040Y-171420000D01*
X122098524Y-171430042D01*
X122098524Y-171430042D01*
G37*
G36*
X101778524Y-171430042D02*
G01*
X101979196Y-171469958D01*
X102215781Y-171567955D01*
X102428702Y-171710224D01*
X102609776Y-171891298D01*
X102752045Y-172104219D01*
X102850042Y-172340804D01*
X102900000Y-172591961D01*
X102900000Y-172848039D01*
X102850042Y-173099196D01*
X102752045Y-173335781D01*
X102609776Y-173548702D01*
X102428702Y-173729776D01*
X102215781Y-173872045D01*
X101979196Y-173970042D01*
X101853617Y-173995021D01*
X101728040Y-174020000D01*
X101471960Y-174020000D01*
X101346383Y-173995021D01*
X101220804Y-173970042D01*
X100984219Y-173872045D01*
X100771298Y-173729776D01*
X100590224Y-173548702D01*
X100447955Y-173335781D01*
X100349958Y-173099196D01*
X100300000Y-172848039D01*
X100300000Y-172591961D01*
X100349958Y-172340804D01*
X100447955Y-172104219D01*
X100590224Y-171891298D01*
X100771298Y-171710224D01*
X100984219Y-171567955D01*
X101220804Y-171469958D01*
X101421476Y-171430042D01*
X101471960Y-171420000D01*
X101728040Y-171420000D01*
X101778524Y-171430042D01*
X101778524Y-171430042D01*
G37*
G36*
X67689196Y-168929958D02*
G01*
X67925781Y-169027955D01*
X68138702Y-169170224D01*
X68319776Y-169351298D01*
X68462045Y-169564219D01*
X68462046Y-169564221D01*
X68472565Y-169589616D01*
X68560042Y-169800804D01*
X68610000Y-170051961D01*
X68610000Y-170308039D01*
X68560042Y-170559196D01*
X68462045Y-170795781D01*
X68319776Y-171008702D01*
X68138702Y-171189776D01*
X67925781Y-171332045D01*
X67689196Y-171430042D01*
X67438040Y-171480000D01*
X67181960Y-171480000D01*
X66930804Y-171430042D01*
X66694219Y-171332045D01*
X66481298Y-171189776D01*
X66300224Y-171008702D01*
X66157955Y-170795781D01*
X66059958Y-170559196D01*
X66010000Y-170308039D01*
X66010000Y-170051961D01*
X66059958Y-169800804D01*
X66147435Y-169589616D01*
X66157954Y-169564221D01*
X66157955Y-169564219D01*
X66300224Y-169351298D01*
X66481298Y-169170224D01*
X66694219Y-169027955D01*
X66930804Y-168929958D01*
X67181960Y-168880000D01*
X67438040Y-168880000D01*
X67689196Y-168929958D01*
X67689196Y-168929958D01*
G37*
G36*
X88009196Y-168929958D02*
G01*
X88245781Y-169027955D01*
X88458702Y-169170224D01*
X88639776Y-169351298D01*
X88782045Y-169564219D01*
X88782046Y-169564221D01*
X88792565Y-169589616D01*
X88880042Y-169800804D01*
X88930000Y-170051961D01*
X88930000Y-170308039D01*
X88880042Y-170559196D01*
X88782045Y-170795781D01*
X88639776Y-171008702D01*
X88458702Y-171189776D01*
X88245781Y-171332045D01*
X88009196Y-171430042D01*
X87758040Y-171480000D01*
X87501960Y-171480000D01*
X87250804Y-171430042D01*
X87014219Y-171332045D01*
X86801298Y-171189776D01*
X86620224Y-171008702D01*
X86477955Y-170795781D01*
X86379958Y-170559196D01*
X86330000Y-170308039D01*
X86330000Y-170051961D01*
X86379958Y-169800804D01*
X86467435Y-169589616D01*
X86477954Y-169564221D01*
X86477955Y-169564219D01*
X86620224Y-169351298D01*
X86801298Y-169170224D01*
X87014219Y-169027955D01*
X87250804Y-168929958D01*
X87501960Y-168880000D01*
X87758040Y-168880000D01*
X88009196Y-168929958D01*
X88009196Y-168929958D01*
G37*
G36*
X108329196Y-168929958D02*
G01*
X108565781Y-169027955D01*
X108778702Y-169170224D01*
X108959776Y-169351298D01*
X109102045Y-169564219D01*
X109102046Y-169564221D01*
X109112565Y-169589616D01*
X109200042Y-169800804D01*
X109250000Y-170051961D01*
X109250000Y-170308039D01*
X109200042Y-170559196D01*
X109102045Y-170795781D01*
X108959776Y-171008702D01*
X108778702Y-171189776D01*
X108565781Y-171332045D01*
X108329196Y-171430042D01*
X108078040Y-171480000D01*
X107821960Y-171480000D01*
X107570804Y-171430042D01*
X107334219Y-171332045D01*
X107121298Y-171189776D01*
X106940224Y-171008702D01*
X106797955Y-170795781D01*
X106699958Y-170559196D01*
X106650000Y-170308039D01*
X106650000Y-170051961D01*
X106699958Y-169800804D01*
X106787435Y-169589616D01*
X106797954Y-169564221D01*
X106797955Y-169564219D01*
X106940224Y-169351298D01*
X107121298Y-169170224D01*
X107334219Y-169027955D01*
X107570804Y-168929958D01*
X107821960Y-168880000D01*
X108078040Y-168880000D01*
X108329196Y-168929958D01*
X108329196Y-168929958D01*
G37*
G36*
X128649196Y-168929958D02*
G01*
X128885781Y-169027955D01*
X129098702Y-169170224D01*
X129279776Y-169351298D01*
X129422045Y-169564219D01*
X129422046Y-169564221D01*
X129432565Y-169589616D01*
X129520042Y-169800804D01*
X129570000Y-170051961D01*
X129570000Y-170308039D01*
X129520042Y-170559196D01*
X129422045Y-170795781D01*
X129279776Y-171008702D01*
X129098702Y-171189776D01*
X128885781Y-171332045D01*
X128649196Y-171430042D01*
X128398040Y-171480000D01*
X128141960Y-171480000D01*
X127890804Y-171430042D01*
X127654219Y-171332045D01*
X127441298Y-171189776D01*
X127260224Y-171008702D01*
X127117955Y-170795781D01*
X127019958Y-170559196D01*
X126970000Y-170308039D01*
X126970000Y-170051961D01*
X127019958Y-169800804D01*
X127107435Y-169589616D01*
X127117954Y-169564221D01*
X127117955Y-169564219D01*
X127260224Y-169351298D01*
X127441298Y-169170224D01*
X127654219Y-169027955D01*
X127890804Y-168929958D01*
X128141960Y-168880000D01*
X128398040Y-168880000D01*
X128649196Y-168929958D01*
X128649196Y-168929958D01*
G37*
G36*
X64141715Y-165524544D02*
G01*
X64542089Y-165690384D01*
X64542091Y-165690385D01*
X64902418Y-165931148D01*
X65208852Y-166237582D01*
X65449616Y-166597911D01*
X65615456Y-166998285D01*
X65700000Y-167423318D01*
X65700000Y-167856682D01*
X65615456Y-168281715D01*
X65449616Y-168682089D01*
X65449615Y-168682091D01*
X65208852Y-169042418D01*
X64902418Y-169348852D01*
X64542091Y-169589615D01*
X64542090Y-169589616D01*
X64542089Y-169589616D01*
X64141715Y-169755456D01*
X63716682Y-169840000D01*
X63283318Y-169840000D01*
X62858285Y-169755456D01*
X62457911Y-169589616D01*
X62457910Y-169589616D01*
X62457909Y-169589615D01*
X62097582Y-169348852D01*
X61791148Y-169042418D01*
X61550385Y-168682091D01*
X61550384Y-168682089D01*
X61384544Y-168281715D01*
X61300000Y-167856682D01*
X61300000Y-167423318D01*
X61384544Y-166998285D01*
X61550384Y-166597911D01*
X61791148Y-166237582D01*
X62097582Y-165931148D01*
X62457909Y-165690385D01*
X62457911Y-165690384D01*
X62858285Y-165524544D01*
X63283318Y-165440000D01*
X63716682Y-165440000D01*
X64141715Y-165524544D01*
X64141715Y-165524544D01*
G37*
G36*
X84461715Y-165524544D02*
G01*
X84862089Y-165690384D01*
X84862091Y-165690385D01*
X85222418Y-165931148D01*
X85528852Y-166237582D01*
X85769616Y-166597911D01*
X85935456Y-166998285D01*
X86020000Y-167423318D01*
X86020000Y-167856682D01*
X85935456Y-168281715D01*
X85769616Y-168682089D01*
X85769615Y-168682091D01*
X85528852Y-169042418D01*
X85222418Y-169348852D01*
X84862091Y-169589615D01*
X84862090Y-169589616D01*
X84862089Y-169589616D01*
X84461715Y-169755456D01*
X84036682Y-169840000D01*
X83603318Y-169840000D01*
X83178285Y-169755456D01*
X82777911Y-169589616D01*
X82777910Y-169589616D01*
X82777909Y-169589615D01*
X82417582Y-169348852D01*
X82111148Y-169042418D01*
X81870385Y-168682091D01*
X81870384Y-168682089D01*
X81704544Y-168281715D01*
X81620000Y-167856682D01*
X81620000Y-167423318D01*
X81704544Y-166998285D01*
X81870384Y-166597911D01*
X82111148Y-166237582D01*
X82417582Y-165931148D01*
X82777909Y-165690385D01*
X82777911Y-165690384D01*
X83178285Y-165524544D01*
X83603318Y-165440000D01*
X84036682Y-165440000D01*
X84461715Y-165524544D01*
X84461715Y-165524544D01*
G37*
G36*
X104781715Y-165524544D02*
G01*
X105182089Y-165690384D01*
X105182091Y-165690385D01*
X105542418Y-165931148D01*
X105848852Y-166237582D01*
X106089616Y-166597911D01*
X106255456Y-166998285D01*
X106340000Y-167423318D01*
X106340000Y-167856682D01*
X106255456Y-168281715D01*
X106089616Y-168682089D01*
X106089615Y-168682091D01*
X105848852Y-169042418D01*
X105542418Y-169348852D01*
X105182091Y-169589615D01*
X105182090Y-169589616D01*
X105182089Y-169589616D01*
X104781715Y-169755456D01*
X104356682Y-169840000D01*
X103923318Y-169840000D01*
X103498285Y-169755456D01*
X103097911Y-169589616D01*
X103097910Y-169589616D01*
X103097909Y-169589615D01*
X102737582Y-169348852D01*
X102431148Y-169042418D01*
X102190385Y-168682091D01*
X102190384Y-168682089D01*
X102024544Y-168281715D01*
X101940000Y-167856682D01*
X101940000Y-167423318D01*
X102024544Y-166998285D01*
X102190384Y-166597911D01*
X102431148Y-166237582D01*
X102737582Y-165931148D01*
X103097909Y-165690385D01*
X103097911Y-165690384D01*
X103498285Y-165524544D01*
X103923318Y-165440000D01*
X104356682Y-165440000D01*
X104781715Y-165524544D01*
X104781715Y-165524544D01*
G37*
G36*
X125101715Y-165524544D02*
G01*
X125502089Y-165690384D01*
X125502091Y-165690385D01*
X125862418Y-165931148D01*
X126168852Y-166237582D01*
X126409616Y-166597911D01*
X126575456Y-166998285D01*
X126660000Y-167423318D01*
X126660000Y-167856682D01*
X126575456Y-168281715D01*
X126409616Y-168682089D01*
X126409615Y-168682091D01*
X126168852Y-169042418D01*
X125862418Y-169348852D01*
X125502091Y-169589615D01*
X125502090Y-169589616D01*
X125502089Y-169589616D01*
X125101715Y-169755456D01*
X124676682Y-169840000D01*
X124243318Y-169840000D01*
X123818285Y-169755456D01*
X123417911Y-169589616D01*
X123417910Y-169589616D01*
X123417909Y-169589615D01*
X123057582Y-169348852D01*
X122751148Y-169042418D01*
X122510385Y-168682091D01*
X122510384Y-168682089D01*
X122344544Y-168281715D01*
X122260000Y-167856682D01*
X122260000Y-167423318D01*
X122344544Y-166998285D01*
X122510384Y-166597911D01*
X122751148Y-166237582D01*
X123057582Y-165931148D01*
X123417909Y-165690385D01*
X123417911Y-165690384D01*
X123818285Y-165524544D01*
X124243318Y-165440000D01*
X124676682Y-165440000D01*
X125101715Y-165524544D01*
X125101715Y-165524544D01*
G37*
G36*
X58548687Y-166595027D02*
G01*
X58726274Y-166630350D01*
X58917362Y-166709502D01*
X59089336Y-166824411D01*
X59235589Y-166970664D01*
X59350498Y-167142638D01*
X59429650Y-167333726D01*
X59470000Y-167536584D01*
X59470000Y-167743416D01*
X59429650Y-167946274D01*
X59350498Y-168137362D01*
X59235589Y-168309336D01*
X59089336Y-168455589D01*
X58917362Y-168570498D01*
X58726274Y-168649650D01*
X58563188Y-168682089D01*
X58523417Y-168690000D01*
X58316583Y-168690000D01*
X58276812Y-168682089D01*
X58113726Y-168649650D01*
X57922638Y-168570498D01*
X57750664Y-168455589D01*
X57604411Y-168309336D01*
X57489502Y-168137362D01*
X57410350Y-167946274D01*
X57370000Y-167743416D01*
X57370000Y-167536584D01*
X57410350Y-167333726D01*
X57489502Y-167142638D01*
X57604411Y-166970664D01*
X57750664Y-166824411D01*
X57922638Y-166709502D01*
X58113726Y-166630350D01*
X58291313Y-166595027D01*
X58316583Y-166590000D01*
X58523417Y-166590000D01*
X58548687Y-166595027D01*
X58548687Y-166595027D01*
G37*
G36*
X78868687Y-166595027D02*
G01*
X79046274Y-166630350D01*
X79237362Y-166709502D01*
X79409336Y-166824411D01*
X79555589Y-166970664D01*
X79670498Y-167142638D01*
X79749650Y-167333726D01*
X79790000Y-167536584D01*
X79790000Y-167743416D01*
X79749650Y-167946274D01*
X79670498Y-168137362D01*
X79555589Y-168309336D01*
X79409336Y-168455589D01*
X79237362Y-168570498D01*
X79046274Y-168649650D01*
X78883188Y-168682089D01*
X78843417Y-168690000D01*
X78636583Y-168690000D01*
X78596812Y-168682089D01*
X78433726Y-168649650D01*
X78242638Y-168570498D01*
X78070664Y-168455589D01*
X77924411Y-168309336D01*
X77809502Y-168137362D01*
X77730350Y-167946274D01*
X77690000Y-167743416D01*
X77690000Y-167536584D01*
X77730350Y-167333726D01*
X77809502Y-167142638D01*
X77924411Y-166970664D01*
X78070664Y-166824411D01*
X78242638Y-166709502D01*
X78433726Y-166630350D01*
X78611313Y-166595027D01*
X78636583Y-166590000D01*
X78843417Y-166590000D01*
X78868687Y-166595027D01*
X78868687Y-166595027D01*
G37*
G36*
X89028687Y-166595027D02*
G01*
X89206274Y-166630350D01*
X89397362Y-166709502D01*
X89569336Y-166824411D01*
X89715589Y-166970664D01*
X89830498Y-167142638D01*
X89909650Y-167333726D01*
X89950000Y-167536584D01*
X89950000Y-167743416D01*
X89909650Y-167946274D01*
X89830498Y-168137362D01*
X89715589Y-168309336D01*
X89569336Y-168455589D01*
X89397362Y-168570498D01*
X89206274Y-168649650D01*
X89043188Y-168682089D01*
X89003417Y-168690000D01*
X88796583Y-168690000D01*
X88756812Y-168682089D01*
X88593726Y-168649650D01*
X88402638Y-168570498D01*
X88230664Y-168455589D01*
X88084411Y-168309336D01*
X87969502Y-168137362D01*
X87890350Y-167946274D01*
X87850000Y-167743416D01*
X87850000Y-167536584D01*
X87890350Y-167333726D01*
X87969502Y-167142638D01*
X88084411Y-166970664D01*
X88230664Y-166824411D01*
X88402638Y-166709502D01*
X88593726Y-166630350D01*
X88771313Y-166595027D01*
X88796583Y-166590000D01*
X89003417Y-166590000D01*
X89028687Y-166595027D01*
X89028687Y-166595027D01*
G37*
G36*
X99188687Y-166595027D02*
G01*
X99366274Y-166630350D01*
X99557362Y-166709502D01*
X99729336Y-166824411D01*
X99875589Y-166970664D01*
X99990498Y-167142638D01*
X100069650Y-167333726D01*
X100110000Y-167536584D01*
X100110000Y-167743416D01*
X100069650Y-167946274D01*
X99990498Y-168137362D01*
X99875589Y-168309336D01*
X99729336Y-168455589D01*
X99557362Y-168570498D01*
X99366274Y-168649650D01*
X99203188Y-168682089D01*
X99163417Y-168690000D01*
X98956583Y-168690000D01*
X98916812Y-168682089D01*
X98753726Y-168649650D01*
X98562638Y-168570498D01*
X98390664Y-168455589D01*
X98244411Y-168309336D01*
X98129502Y-168137362D01*
X98050350Y-167946274D01*
X98010000Y-167743416D01*
X98010000Y-167536584D01*
X98050350Y-167333726D01*
X98129502Y-167142638D01*
X98244411Y-166970664D01*
X98390664Y-166824411D01*
X98562638Y-166709502D01*
X98753726Y-166630350D01*
X98931313Y-166595027D01*
X98956583Y-166590000D01*
X99163417Y-166590000D01*
X99188687Y-166595027D01*
X99188687Y-166595027D01*
G37*
G36*
X109348687Y-166595027D02*
G01*
X109526274Y-166630350D01*
X109717362Y-166709502D01*
X109889336Y-166824411D01*
X110035589Y-166970664D01*
X110150498Y-167142638D01*
X110229650Y-167333726D01*
X110270000Y-167536584D01*
X110270000Y-167743416D01*
X110229650Y-167946274D01*
X110150498Y-168137362D01*
X110035589Y-168309336D01*
X109889336Y-168455589D01*
X109717362Y-168570498D01*
X109526274Y-168649650D01*
X109363188Y-168682089D01*
X109323417Y-168690000D01*
X109116583Y-168690000D01*
X109076812Y-168682089D01*
X108913726Y-168649650D01*
X108722638Y-168570498D01*
X108550664Y-168455589D01*
X108404411Y-168309336D01*
X108289502Y-168137362D01*
X108210350Y-167946274D01*
X108170000Y-167743416D01*
X108170000Y-167536584D01*
X108210350Y-167333726D01*
X108289502Y-167142638D01*
X108404411Y-166970664D01*
X108550664Y-166824411D01*
X108722638Y-166709502D01*
X108913726Y-166630350D01*
X109091313Y-166595027D01*
X109116583Y-166590000D01*
X109323417Y-166590000D01*
X109348687Y-166595027D01*
X109348687Y-166595027D01*
G37*
G36*
X119508687Y-166595027D02*
G01*
X119686274Y-166630350D01*
X119877362Y-166709502D01*
X120049336Y-166824411D01*
X120195589Y-166970664D01*
X120310498Y-167142638D01*
X120389650Y-167333726D01*
X120430000Y-167536584D01*
X120430000Y-167743416D01*
X120389650Y-167946274D01*
X120310498Y-168137362D01*
X120195589Y-168309336D01*
X120049336Y-168455589D01*
X119877362Y-168570498D01*
X119686274Y-168649650D01*
X119523188Y-168682089D01*
X119483417Y-168690000D01*
X119276583Y-168690000D01*
X119236812Y-168682089D01*
X119073726Y-168649650D01*
X118882638Y-168570498D01*
X118710664Y-168455589D01*
X118564411Y-168309336D01*
X118449502Y-168137362D01*
X118370350Y-167946274D01*
X118330000Y-167743416D01*
X118330000Y-167536584D01*
X118370350Y-167333726D01*
X118449502Y-167142638D01*
X118564411Y-166970664D01*
X118710664Y-166824411D01*
X118882638Y-166709502D01*
X119073726Y-166630350D01*
X119251313Y-166595027D01*
X119276583Y-166590000D01*
X119483417Y-166590000D01*
X119508687Y-166595027D01*
X119508687Y-166595027D01*
G37*
G36*
X68708687Y-166595027D02*
G01*
X68886274Y-166630350D01*
X69077362Y-166709502D01*
X69249336Y-166824411D01*
X69395589Y-166970664D01*
X69510498Y-167142638D01*
X69589650Y-167333726D01*
X69630000Y-167536584D01*
X69630000Y-167743416D01*
X69589650Y-167946274D01*
X69510498Y-168137362D01*
X69395589Y-168309336D01*
X69249336Y-168455589D01*
X69077362Y-168570498D01*
X68886274Y-168649650D01*
X68723188Y-168682089D01*
X68683417Y-168690000D01*
X68476583Y-168690000D01*
X68436812Y-168682089D01*
X68273726Y-168649650D01*
X68082638Y-168570498D01*
X67910664Y-168455589D01*
X67764411Y-168309336D01*
X67649502Y-168137362D01*
X67570350Y-167946274D01*
X67530000Y-167743416D01*
X67530000Y-167536584D01*
X67570350Y-167333726D01*
X67649502Y-167142638D01*
X67764411Y-166970664D01*
X67910664Y-166824411D01*
X68082638Y-166709502D01*
X68273726Y-166630350D01*
X68451313Y-166595027D01*
X68476583Y-166590000D01*
X68683417Y-166590000D01*
X68708687Y-166595027D01*
X68708687Y-166595027D01*
G37*
G36*
X129668687Y-166595027D02*
G01*
X129846274Y-166630350D01*
X130037362Y-166709502D01*
X130209336Y-166824411D01*
X130355589Y-166970664D01*
X130470498Y-167142638D01*
X130549650Y-167333726D01*
X130590000Y-167536584D01*
X130590000Y-167743416D01*
X130549650Y-167946274D01*
X130470498Y-168137362D01*
X130355589Y-168309336D01*
X130209336Y-168455589D01*
X130037362Y-168570498D01*
X129846274Y-168649650D01*
X129683188Y-168682089D01*
X129643417Y-168690000D01*
X129436583Y-168690000D01*
X129396812Y-168682089D01*
X129233726Y-168649650D01*
X129042638Y-168570498D01*
X128870664Y-168455589D01*
X128724411Y-168309336D01*
X128609502Y-168137362D01*
X128530350Y-167946274D01*
X128490000Y-167743416D01*
X128490000Y-167536584D01*
X128530350Y-167333726D01*
X128609502Y-167142638D01*
X128724411Y-166970664D01*
X128870664Y-166824411D01*
X129042638Y-166709502D01*
X129233726Y-166630350D01*
X129411313Y-166595027D01*
X129436583Y-166590000D01*
X129643417Y-166590000D01*
X129668687Y-166595027D01*
X129668687Y-166595027D01*
G37*
G36*
X61138524Y-147300042D02*
G01*
X61339196Y-147339958D01*
X61575781Y-147437955D01*
X61788702Y-147580224D01*
X61969776Y-147761298D01*
X62112045Y-147974219D01*
X62210042Y-148210804D01*
X62260000Y-148461961D01*
X62260000Y-148718039D01*
X62210042Y-148969196D01*
X62112045Y-149205781D01*
X61969776Y-149418702D01*
X61788702Y-149599776D01*
X61575781Y-149742045D01*
X61339196Y-149840042D01*
X61213617Y-149865021D01*
X61088040Y-149890000D01*
X60831960Y-149890000D01*
X60706383Y-149865021D01*
X60580804Y-149840042D01*
X60344219Y-149742045D01*
X60131298Y-149599776D01*
X59950224Y-149418702D01*
X59807955Y-149205781D01*
X59709958Y-148969196D01*
X59660000Y-148718039D01*
X59660000Y-148461961D01*
X59709958Y-148210804D01*
X59807955Y-147974219D01*
X59950224Y-147761298D01*
X60131298Y-147580224D01*
X60344219Y-147437955D01*
X60580804Y-147339958D01*
X60781476Y-147300042D01*
X60831960Y-147290000D01*
X61088040Y-147290000D01*
X61138524Y-147300042D01*
X61138524Y-147300042D01*
G37*
G36*
X81458524Y-147300042D02*
G01*
X81659196Y-147339958D01*
X81895781Y-147437955D01*
X82108702Y-147580224D01*
X82289776Y-147761298D01*
X82432045Y-147974219D01*
X82530042Y-148210804D01*
X82580000Y-148461961D01*
X82580000Y-148718039D01*
X82530042Y-148969196D01*
X82432045Y-149205781D01*
X82289776Y-149418702D01*
X82108702Y-149599776D01*
X81895781Y-149742045D01*
X81659196Y-149840042D01*
X81533617Y-149865021D01*
X81408040Y-149890000D01*
X81151960Y-149890000D01*
X81026383Y-149865021D01*
X80900804Y-149840042D01*
X80664219Y-149742045D01*
X80451298Y-149599776D01*
X80270224Y-149418702D01*
X80127955Y-149205781D01*
X80029958Y-148969196D01*
X79980000Y-148718039D01*
X79980000Y-148461961D01*
X80029958Y-148210804D01*
X80127955Y-147974219D01*
X80270224Y-147761298D01*
X80451298Y-147580224D01*
X80664219Y-147437955D01*
X80900804Y-147339958D01*
X81101476Y-147300042D01*
X81151960Y-147290000D01*
X81408040Y-147290000D01*
X81458524Y-147300042D01*
X81458524Y-147300042D01*
G37*
G36*
X101778524Y-147300042D02*
G01*
X101979196Y-147339958D01*
X102215781Y-147437955D01*
X102428702Y-147580224D01*
X102609776Y-147761298D01*
X102752045Y-147974219D01*
X102850042Y-148210804D01*
X102900000Y-148461961D01*
X102900000Y-148718039D01*
X102850042Y-148969196D01*
X102752045Y-149205781D01*
X102609776Y-149418702D01*
X102428702Y-149599776D01*
X102215781Y-149742045D01*
X101979196Y-149840042D01*
X101853617Y-149865021D01*
X101728040Y-149890000D01*
X101471960Y-149890000D01*
X101346383Y-149865021D01*
X101220804Y-149840042D01*
X100984219Y-149742045D01*
X100771298Y-149599776D01*
X100590224Y-149418702D01*
X100447955Y-149205781D01*
X100349958Y-148969196D01*
X100300000Y-148718039D01*
X100300000Y-148461961D01*
X100349958Y-148210804D01*
X100447955Y-147974219D01*
X100590224Y-147761298D01*
X100771298Y-147580224D01*
X100984219Y-147437955D01*
X101220804Y-147339958D01*
X101421476Y-147300042D01*
X101471960Y-147290000D01*
X101728040Y-147290000D01*
X101778524Y-147300042D01*
X101778524Y-147300042D01*
G37*
G36*
X122098524Y-147300042D02*
G01*
X122299196Y-147339958D01*
X122535781Y-147437955D01*
X122748702Y-147580224D01*
X122929776Y-147761298D01*
X123072045Y-147974219D01*
X123170042Y-148210804D01*
X123220000Y-148461961D01*
X123220000Y-148718039D01*
X123170042Y-148969196D01*
X123072045Y-149205781D01*
X122929776Y-149418702D01*
X122748702Y-149599776D01*
X122535781Y-149742045D01*
X122299196Y-149840042D01*
X122173617Y-149865021D01*
X122048040Y-149890000D01*
X121791960Y-149890000D01*
X121666383Y-149865021D01*
X121540804Y-149840042D01*
X121304219Y-149742045D01*
X121091298Y-149599776D01*
X120910224Y-149418702D01*
X120767955Y-149205781D01*
X120669958Y-148969196D01*
X120620000Y-148718039D01*
X120620000Y-148461961D01*
X120669958Y-148210804D01*
X120767955Y-147974219D01*
X120910224Y-147761298D01*
X121091298Y-147580224D01*
X121304219Y-147437955D01*
X121540804Y-147339958D01*
X121741476Y-147300042D01*
X121791960Y-147290000D01*
X122048040Y-147290000D01*
X122098524Y-147300042D01*
X122098524Y-147300042D01*
G37*
G36*
X108203617Y-144774979D02*
G01*
X108329196Y-144799958D01*
X108565781Y-144897955D01*
X108778702Y-145040224D01*
X108959776Y-145221298D01*
X109102045Y-145434219D01*
X109102046Y-145434221D01*
X109112565Y-145459616D01*
X109200042Y-145670804D01*
X109250000Y-145921961D01*
X109250000Y-146178039D01*
X109200042Y-146429196D01*
X109102045Y-146665781D01*
X108959776Y-146878702D01*
X108778702Y-147059776D01*
X108565781Y-147202045D01*
X108329196Y-147300042D01*
X108203617Y-147325021D01*
X108078040Y-147350000D01*
X107821960Y-147350000D01*
X107696383Y-147325021D01*
X107570804Y-147300042D01*
X107334219Y-147202045D01*
X107121298Y-147059776D01*
X106940224Y-146878702D01*
X106797955Y-146665781D01*
X106699958Y-146429196D01*
X106650000Y-146178039D01*
X106650000Y-145921961D01*
X106699958Y-145670804D01*
X106787435Y-145459616D01*
X106797954Y-145434221D01*
X106797955Y-145434219D01*
X106940224Y-145221298D01*
X107121298Y-145040224D01*
X107334219Y-144897955D01*
X107570804Y-144799958D01*
X107696383Y-144774979D01*
X107821960Y-144750000D01*
X108078040Y-144750000D01*
X108203617Y-144774979D01*
X108203617Y-144774979D01*
G37*
G36*
X87883617Y-144774979D02*
G01*
X88009196Y-144799958D01*
X88245781Y-144897955D01*
X88458702Y-145040224D01*
X88639776Y-145221298D01*
X88782045Y-145434219D01*
X88782046Y-145434221D01*
X88792565Y-145459616D01*
X88880042Y-145670804D01*
X88930000Y-145921961D01*
X88930000Y-146178039D01*
X88880042Y-146429196D01*
X88782045Y-146665781D01*
X88639776Y-146878702D01*
X88458702Y-147059776D01*
X88245781Y-147202045D01*
X88009196Y-147300042D01*
X87883617Y-147325021D01*
X87758040Y-147350000D01*
X87501960Y-147350000D01*
X87376383Y-147325021D01*
X87250804Y-147300042D01*
X87014219Y-147202045D01*
X86801298Y-147059776D01*
X86620224Y-146878702D01*
X86477955Y-146665781D01*
X86379958Y-146429196D01*
X86330000Y-146178039D01*
X86330000Y-145921961D01*
X86379958Y-145670804D01*
X86467435Y-145459616D01*
X86477954Y-145434221D01*
X86477955Y-145434219D01*
X86620224Y-145221298D01*
X86801298Y-145040224D01*
X87014219Y-144897955D01*
X87250804Y-144799958D01*
X87376383Y-144774979D01*
X87501960Y-144750000D01*
X87758040Y-144750000D01*
X87883617Y-144774979D01*
X87883617Y-144774979D01*
G37*
G36*
X67563617Y-144774979D02*
G01*
X67689196Y-144799958D01*
X67925781Y-144897955D01*
X68138702Y-145040224D01*
X68319776Y-145221298D01*
X68462045Y-145434219D01*
X68462046Y-145434221D01*
X68472565Y-145459616D01*
X68560042Y-145670804D01*
X68610000Y-145921961D01*
X68610000Y-146178039D01*
X68560042Y-146429196D01*
X68462045Y-146665781D01*
X68319776Y-146878702D01*
X68138702Y-147059776D01*
X67925781Y-147202045D01*
X67689196Y-147300042D01*
X67563617Y-147325021D01*
X67438040Y-147350000D01*
X67181960Y-147350000D01*
X67056383Y-147325021D01*
X66930804Y-147300042D01*
X66694219Y-147202045D01*
X66481298Y-147059776D01*
X66300224Y-146878702D01*
X66157955Y-146665781D01*
X66059958Y-146429196D01*
X66010000Y-146178039D01*
X66010000Y-145921961D01*
X66059958Y-145670804D01*
X66147435Y-145459616D01*
X66157954Y-145434221D01*
X66157955Y-145434219D01*
X66300224Y-145221298D01*
X66481298Y-145040224D01*
X66694219Y-144897955D01*
X66930804Y-144799958D01*
X67056383Y-144774979D01*
X67181960Y-144750000D01*
X67438040Y-144750000D01*
X67563617Y-144774979D01*
X67563617Y-144774979D01*
G37*
G36*
X128523617Y-144774979D02*
G01*
X128649196Y-144799958D01*
X128885781Y-144897955D01*
X129098702Y-145040224D01*
X129279776Y-145221298D01*
X129422045Y-145434219D01*
X129422046Y-145434221D01*
X129432565Y-145459616D01*
X129520042Y-145670804D01*
X129570000Y-145921961D01*
X129570000Y-146178039D01*
X129520042Y-146429196D01*
X129422045Y-146665781D01*
X129279776Y-146878702D01*
X129098702Y-147059776D01*
X128885781Y-147202045D01*
X128649196Y-147300042D01*
X128523617Y-147325021D01*
X128398040Y-147350000D01*
X128141960Y-147350000D01*
X128016383Y-147325021D01*
X127890804Y-147300042D01*
X127654219Y-147202045D01*
X127441298Y-147059776D01*
X127260224Y-146878702D01*
X127117955Y-146665781D01*
X127019958Y-146429196D01*
X126970000Y-146178039D01*
X126970000Y-145921961D01*
X127019958Y-145670804D01*
X127107435Y-145459616D01*
X127117954Y-145434221D01*
X127117955Y-145434219D01*
X127260224Y-145221298D01*
X127441298Y-145040224D01*
X127654219Y-144897955D01*
X127890804Y-144799958D01*
X128016383Y-144774979D01*
X128141960Y-144750000D01*
X128398040Y-144750000D01*
X128523617Y-144774979D01*
X128523617Y-144774979D01*
G37*
G36*
X51153471Y-144903859D02*
G01*
X51231827Y-144911576D01*
X51382628Y-144957321D01*
X51382630Y-144957322D01*
X51521605Y-145031606D01*
X51521607Y-145031607D01*
X51521606Y-145031607D01*
X51643422Y-145131578D01*
X51743393Y-145253394D01*
X51817679Y-145392372D01*
X51863424Y-145543173D01*
X51878870Y-145700000D01*
X51863424Y-145856827D01*
X51817679Y-146007628D01*
X51817678Y-146007630D01*
X51743394Y-146146605D01*
X51643422Y-146268422D01*
X51521605Y-146368394D01*
X51407855Y-146429195D01*
X51382628Y-146442679D01*
X51231827Y-146488424D01*
X51153471Y-146496141D01*
X51114294Y-146500000D01*
X50485706Y-146500000D01*
X50446529Y-146496141D01*
X50368173Y-146488424D01*
X50217372Y-146442679D01*
X50192145Y-146429195D01*
X50078395Y-146368394D01*
X49956578Y-146268422D01*
X49856606Y-146146605D01*
X49782322Y-146007630D01*
X49782321Y-146007628D01*
X49736576Y-145856827D01*
X49721130Y-145700000D01*
X49736576Y-145543173D01*
X49782321Y-145392372D01*
X49856607Y-145253394D01*
X49956578Y-145131578D01*
X50078394Y-145031607D01*
X50078393Y-145031607D01*
X50078395Y-145031606D01*
X50217370Y-144957322D01*
X50217372Y-144957321D01*
X50368173Y-144911576D01*
X50446529Y-144903859D01*
X50485706Y-144900000D01*
X51114294Y-144900000D01*
X51153471Y-144903859D01*
X51153471Y-144903859D01*
G37*
G36*
X84461715Y-141394544D02*
G01*
X84862089Y-141560384D01*
X84862091Y-141560385D01*
X85071039Y-141700000D01*
X85222418Y-141801148D01*
X85528852Y-142107582D01*
X85769616Y-142467911D01*
X85935456Y-142868285D01*
X86020000Y-143293318D01*
X86020000Y-143726682D01*
X85935456Y-144151715D01*
X85769616Y-144552089D01*
X85769615Y-144552091D01*
X85528852Y-144912418D01*
X85222418Y-145218852D01*
X84862091Y-145459615D01*
X84862090Y-145459616D01*
X84862089Y-145459616D01*
X84461715Y-145625456D01*
X84036682Y-145710000D01*
X83603318Y-145710000D01*
X83178285Y-145625456D01*
X82777911Y-145459616D01*
X82777910Y-145459616D01*
X82777909Y-145459615D01*
X82417582Y-145218852D01*
X82111148Y-144912418D01*
X81870385Y-144552091D01*
X81870384Y-144552089D01*
X81704544Y-144151715D01*
X81620000Y-143726682D01*
X81620000Y-143293318D01*
X81704544Y-142868285D01*
X81870384Y-142467911D01*
X82111148Y-142107582D01*
X82417582Y-141801148D01*
X82568961Y-141700000D01*
X82777909Y-141560385D01*
X82777911Y-141560384D01*
X83178285Y-141394544D01*
X83603318Y-141310000D01*
X84036682Y-141310000D01*
X84461715Y-141394544D01*
X84461715Y-141394544D01*
G37*
G36*
X125101715Y-141394544D02*
G01*
X125502089Y-141560384D01*
X125502091Y-141560385D01*
X125711039Y-141700000D01*
X125862418Y-141801148D01*
X126168852Y-142107582D01*
X126409616Y-142467911D01*
X126575456Y-142868285D01*
X126660000Y-143293318D01*
X126660000Y-143726682D01*
X126575456Y-144151715D01*
X126409616Y-144552089D01*
X126409615Y-144552091D01*
X126168852Y-144912418D01*
X125862418Y-145218852D01*
X125502091Y-145459615D01*
X125502090Y-145459616D01*
X125502089Y-145459616D01*
X125101715Y-145625456D01*
X124676682Y-145710000D01*
X124243318Y-145710000D01*
X123818285Y-145625456D01*
X123417911Y-145459616D01*
X123417910Y-145459616D01*
X123417909Y-145459615D01*
X123057582Y-145218852D01*
X122751148Y-144912418D01*
X122510385Y-144552091D01*
X122510384Y-144552089D01*
X122344544Y-144151715D01*
X122260000Y-143726682D01*
X122260000Y-143293318D01*
X122344544Y-142868285D01*
X122510384Y-142467911D01*
X122751148Y-142107582D01*
X123057582Y-141801148D01*
X123208961Y-141700000D01*
X123417909Y-141560385D01*
X123417911Y-141560384D01*
X123818285Y-141394544D01*
X124243318Y-141310000D01*
X124676682Y-141310000D01*
X125101715Y-141394544D01*
X125101715Y-141394544D01*
G37*
G36*
X104781715Y-141394544D02*
G01*
X105182089Y-141560384D01*
X105182091Y-141560385D01*
X105391039Y-141700000D01*
X105542418Y-141801148D01*
X105848852Y-142107582D01*
X106089616Y-142467911D01*
X106255456Y-142868285D01*
X106340000Y-143293318D01*
X106340000Y-143726682D01*
X106255456Y-144151715D01*
X106089616Y-144552089D01*
X106089615Y-144552091D01*
X105848852Y-144912418D01*
X105542418Y-145218852D01*
X105182091Y-145459615D01*
X105182090Y-145459616D01*
X105182089Y-145459616D01*
X104781715Y-145625456D01*
X104356682Y-145710000D01*
X103923318Y-145710000D01*
X103498285Y-145625456D01*
X103097911Y-145459616D01*
X103097910Y-145459616D01*
X103097909Y-145459615D01*
X102737582Y-145218852D01*
X102431148Y-144912418D01*
X102190385Y-144552091D01*
X102190384Y-144552089D01*
X102024544Y-144151715D01*
X101940000Y-143726682D01*
X101940000Y-143293318D01*
X102024544Y-142868285D01*
X102190384Y-142467911D01*
X102431148Y-142107582D01*
X102737582Y-141801148D01*
X102888961Y-141700000D01*
X103097909Y-141560385D01*
X103097911Y-141560384D01*
X103498285Y-141394544D01*
X103923318Y-141310000D01*
X104356682Y-141310000D01*
X104781715Y-141394544D01*
X104781715Y-141394544D01*
G37*
G36*
X64141715Y-141394544D02*
G01*
X64542089Y-141560384D01*
X64542091Y-141560385D01*
X64751039Y-141700000D01*
X64902418Y-141801148D01*
X65208852Y-142107582D01*
X65449616Y-142467911D01*
X65615456Y-142868285D01*
X65700000Y-143293318D01*
X65700000Y-143726682D01*
X65615456Y-144151715D01*
X65449616Y-144552089D01*
X65449615Y-144552091D01*
X65208852Y-144912418D01*
X64902418Y-145218852D01*
X64542091Y-145459615D01*
X64542090Y-145459616D01*
X64542089Y-145459616D01*
X64141715Y-145625456D01*
X63716682Y-145710000D01*
X63283318Y-145710000D01*
X62858285Y-145625456D01*
X62457911Y-145459616D01*
X62457910Y-145459616D01*
X62457909Y-145459615D01*
X62097582Y-145218852D01*
X61791148Y-144912418D01*
X61550385Y-144552091D01*
X61550384Y-144552089D01*
X61384544Y-144151715D01*
X61300000Y-143726682D01*
X61300000Y-143293318D01*
X61384544Y-142868285D01*
X61550384Y-142467911D01*
X61791148Y-142107582D01*
X62097582Y-141801148D01*
X62248961Y-141700000D01*
X62457909Y-141560385D01*
X62457911Y-141560384D01*
X62858285Y-141394544D01*
X63283318Y-141310000D01*
X63716682Y-141310000D01*
X64141715Y-141394544D01*
X64141715Y-141394544D01*
G37*
G36*
X129668687Y-142465027D02*
G01*
X129846274Y-142500350D01*
X130037362Y-142579502D01*
X130209336Y-142694411D01*
X130355589Y-142840664D01*
X130470498Y-143012638D01*
X130549650Y-143203726D01*
X130590000Y-143406584D01*
X130590000Y-143613416D01*
X130549650Y-143816274D01*
X130470498Y-144007362D01*
X130355589Y-144179336D01*
X130209336Y-144325589D01*
X130037362Y-144440498D01*
X129846274Y-144519650D01*
X129683188Y-144552089D01*
X129643417Y-144560000D01*
X129436583Y-144560000D01*
X129396812Y-144552089D01*
X129233726Y-144519650D01*
X129042638Y-144440498D01*
X128870664Y-144325589D01*
X128724411Y-144179336D01*
X128609502Y-144007362D01*
X128530350Y-143816274D01*
X128490000Y-143613416D01*
X128490000Y-143406584D01*
X128530350Y-143203726D01*
X128609502Y-143012638D01*
X128724411Y-142840664D01*
X128870664Y-142694411D01*
X129042638Y-142579502D01*
X129233726Y-142500350D01*
X129411313Y-142465027D01*
X129436583Y-142460000D01*
X129643417Y-142460000D01*
X129668687Y-142465027D01*
X129668687Y-142465027D01*
G37*
G36*
X68708687Y-142465027D02*
G01*
X68886274Y-142500350D01*
X69077362Y-142579502D01*
X69249336Y-142694411D01*
X69395589Y-142840664D01*
X69510498Y-143012638D01*
X69589650Y-143203726D01*
X69630000Y-143406584D01*
X69630000Y-143613416D01*
X69589650Y-143816274D01*
X69510498Y-144007362D01*
X69395589Y-144179336D01*
X69249336Y-144325589D01*
X69077362Y-144440498D01*
X68886274Y-144519650D01*
X68723188Y-144552089D01*
X68683417Y-144560000D01*
X68476583Y-144560000D01*
X68436812Y-144552089D01*
X68273726Y-144519650D01*
X68082638Y-144440498D01*
X67910664Y-144325589D01*
X67764411Y-144179336D01*
X67649502Y-144007362D01*
X67570350Y-143816274D01*
X67530000Y-143613416D01*
X67530000Y-143406584D01*
X67570350Y-143203726D01*
X67649502Y-143012638D01*
X67764411Y-142840664D01*
X67910664Y-142694411D01*
X68082638Y-142579502D01*
X68273726Y-142500350D01*
X68451313Y-142465027D01*
X68476583Y-142460000D01*
X68683417Y-142460000D01*
X68708687Y-142465027D01*
X68708687Y-142465027D01*
G37*
G36*
X119508687Y-142465027D02*
G01*
X119686274Y-142500350D01*
X119877362Y-142579502D01*
X120049336Y-142694411D01*
X120195589Y-142840664D01*
X120310498Y-143012638D01*
X120389650Y-143203726D01*
X120430000Y-143406584D01*
X120430000Y-143613416D01*
X120389650Y-143816274D01*
X120310498Y-144007362D01*
X120195589Y-144179336D01*
X120049336Y-144325589D01*
X119877362Y-144440498D01*
X119686274Y-144519650D01*
X119523188Y-144552089D01*
X119483417Y-144560000D01*
X119276583Y-144560000D01*
X119236812Y-144552089D01*
X119073726Y-144519650D01*
X118882638Y-144440498D01*
X118710664Y-144325589D01*
X118564411Y-144179336D01*
X118449502Y-144007362D01*
X118370350Y-143816274D01*
X118330000Y-143613416D01*
X118330000Y-143406584D01*
X118370350Y-143203726D01*
X118449502Y-143012638D01*
X118564411Y-142840664D01*
X118710664Y-142694411D01*
X118882638Y-142579502D01*
X119073726Y-142500350D01*
X119251313Y-142465027D01*
X119276583Y-142460000D01*
X119483417Y-142460000D01*
X119508687Y-142465027D01*
X119508687Y-142465027D01*
G37*
G36*
X109348687Y-142465027D02*
G01*
X109526274Y-142500350D01*
X109717362Y-142579502D01*
X109889336Y-142694411D01*
X110035589Y-142840664D01*
X110150498Y-143012638D01*
X110229650Y-143203726D01*
X110270000Y-143406584D01*
X110270000Y-143613416D01*
X110229650Y-143816274D01*
X110150498Y-144007362D01*
X110035589Y-144179336D01*
X109889336Y-144325589D01*
X109717362Y-144440498D01*
X109526274Y-144519650D01*
X109363188Y-144552089D01*
X109323417Y-144560000D01*
X109116583Y-144560000D01*
X109076812Y-144552089D01*
X108913726Y-144519650D01*
X108722638Y-144440498D01*
X108550664Y-144325589D01*
X108404411Y-144179336D01*
X108289502Y-144007362D01*
X108210350Y-143816274D01*
X108170000Y-143613416D01*
X108170000Y-143406584D01*
X108210350Y-143203726D01*
X108289502Y-143012638D01*
X108404411Y-142840664D01*
X108550664Y-142694411D01*
X108722638Y-142579502D01*
X108913726Y-142500350D01*
X109091313Y-142465027D01*
X109116583Y-142460000D01*
X109323417Y-142460000D01*
X109348687Y-142465027D01*
X109348687Y-142465027D01*
G37*
G36*
X99188687Y-142465027D02*
G01*
X99366274Y-142500350D01*
X99557362Y-142579502D01*
X99729336Y-142694411D01*
X99875589Y-142840664D01*
X99990498Y-143012638D01*
X100069650Y-143203726D01*
X100110000Y-143406584D01*
X100110000Y-143613416D01*
X100069650Y-143816274D01*
X99990498Y-144007362D01*
X99875589Y-144179336D01*
X99729336Y-144325589D01*
X99557362Y-144440498D01*
X99366274Y-144519650D01*
X99203188Y-144552089D01*
X99163417Y-144560000D01*
X98956583Y-144560000D01*
X98916812Y-144552089D01*
X98753726Y-144519650D01*
X98562638Y-144440498D01*
X98390664Y-144325589D01*
X98244411Y-144179336D01*
X98129502Y-144007362D01*
X98050350Y-143816274D01*
X98010000Y-143613416D01*
X98010000Y-143406584D01*
X98050350Y-143203726D01*
X98129502Y-143012638D01*
X98244411Y-142840664D01*
X98390664Y-142694411D01*
X98562638Y-142579502D01*
X98753726Y-142500350D01*
X98931313Y-142465027D01*
X98956583Y-142460000D01*
X99163417Y-142460000D01*
X99188687Y-142465027D01*
X99188687Y-142465027D01*
G37*
G36*
X78868687Y-142465027D02*
G01*
X79046274Y-142500350D01*
X79237362Y-142579502D01*
X79409336Y-142694411D01*
X79555589Y-142840664D01*
X79670498Y-143012638D01*
X79749650Y-143203726D01*
X79790000Y-143406584D01*
X79790000Y-143613416D01*
X79749650Y-143816274D01*
X79670498Y-144007362D01*
X79555589Y-144179336D01*
X79409336Y-144325589D01*
X79237362Y-144440498D01*
X79046274Y-144519650D01*
X78883188Y-144552089D01*
X78843417Y-144560000D01*
X78636583Y-144560000D01*
X78596812Y-144552089D01*
X78433726Y-144519650D01*
X78242638Y-144440498D01*
X78070664Y-144325589D01*
X77924411Y-144179336D01*
X77809502Y-144007362D01*
X77730350Y-143816274D01*
X77690000Y-143613416D01*
X77690000Y-143406584D01*
X77730350Y-143203726D01*
X77809502Y-143012638D01*
X77924411Y-142840664D01*
X78070664Y-142694411D01*
X78242638Y-142579502D01*
X78433726Y-142500350D01*
X78611313Y-142465027D01*
X78636583Y-142460000D01*
X78843417Y-142460000D01*
X78868687Y-142465027D01*
X78868687Y-142465027D01*
G37*
G36*
X89028687Y-142465027D02*
G01*
X89206274Y-142500350D01*
X89397362Y-142579502D01*
X89569336Y-142694411D01*
X89715589Y-142840664D01*
X89830498Y-143012638D01*
X89909650Y-143203726D01*
X89950000Y-143406584D01*
X89950000Y-143613416D01*
X89909650Y-143816274D01*
X89830498Y-144007362D01*
X89715589Y-144179336D01*
X89569336Y-144325589D01*
X89397362Y-144440498D01*
X89206274Y-144519650D01*
X89043188Y-144552089D01*
X89003417Y-144560000D01*
X88796583Y-144560000D01*
X88756812Y-144552089D01*
X88593726Y-144519650D01*
X88402638Y-144440498D01*
X88230664Y-144325589D01*
X88084411Y-144179336D01*
X87969502Y-144007362D01*
X87890350Y-143816274D01*
X87850000Y-143613416D01*
X87850000Y-143406584D01*
X87890350Y-143203726D01*
X87969502Y-143012638D01*
X88084411Y-142840664D01*
X88230664Y-142694411D01*
X88402638Y-142579502D01*
X88593726Y-142500350D01*
X88771313Y-142465027D01*
X88796583Y-142460000D01*
X89003417Y-142460000D01*
X89028687Y-142465027D01*
X89028687Y-142465027D01*
G37*
G36*
X58548687Y-142465027D02*
G01*
X58726274Y-142500350D01*
X58917362Y-142579502D01*
X59089336Y-142694411D01*
X59235589Y-142840664D01*
X59350498Y-143012638D01*
X59429650Y-143203726D01*
X59470000Y-143406584D01*
X59470000Y-143613416D01*
X59429650Y-143816274D01*
X59350498Y-144007362D01*
X59235589Y-144179336D01*
X59089336Y-144325589D01*
X58917362Y-144440498D01*
X58726274Y-144519650D01*
X58563188Y-144552089D01*
X58523417Y-144560000D01*
X58316583Y-144560000D01*
X58276812Y-144552089D01*
X58113726Y-144519650D01*
X57922638Y-144440498D01*
X57750664Y-144325589D01*
X57604411Y-144179336D01*
X57489502Y-144007362D01*
X57410350Y-143816274D01*
X57370000Y-143613416D01*
X57370000Y-143406584D01*
X57410350Y-143203726D01*
X57489502Y-143012638D01*
X57604411Y-142840664D01*
X57750664Y-142694411D01*
X57922638Y-142579502D01*
X58113726Y-142500350D01*
X58291313Y-142465027D01*
X58316583Y-142460000D01*
X58523417Y-142460000D01*
X58548687Y-142465027D01*
X58548687Y-142465027D01*
G37*
G36*
X51153471Y-142903859D02*
G01*
X51231827Y-142911576D01*
X51382628Y-142957321D01*
X51382630Y-142957322D01*
X51521605Y-143031606D01*
X51643422Y-143131578D01*
X51702634Y-143203728D01*
X51743393Y-143253394D01*
X51817679Y-143392372D01*
X51863424Y-143543173D01*
X51878870Y-143700000D01*
X51863424Y-143856827D01*
X51817679Y-144007628D01*
X51817678Y-144007630D01*
X51743394Y-144146605D01*
X51643422Y-144268422D01*
X51521605Y-144368394D01*
X51386708Y-144440498D01*
X51382628Y-144442679D01*
X51231827Y-144488424D01*
X51153471Y-144496141D01*
X51114294Y-144500000D01*
X50485706Y-144500000D01*
X50446529Y-144496141D01*
X50368173Y-144488424D01*
X50217372Y-144442679D01*
X50213292Y-144440498D01*
X50078395Y-144368394D01*
X49956578Y-144268422D01*
X49856606Y-144146605D01*
X49782322Y-144007630D01*
X49782321Y-144007628D01*
X49736576Y-143856827D01*
X49721130Y-143700000D01*
X49736576Y-143543173D01*
X49782321Y-143392372D01*
X49856607Y-143253394D01*
X49897367Y-143203728D01*
X49956578Y-143131578D01*
X50078395Y-143031606D01*
X50217370Y-142957322D01*
X50217372Y-142957321D01*
X50368173Y-142911576D01*
X50446529Y-142903859D01*
X50485706Y-142900000D01*
X51114294Y-142900000D01*
X51153471Y-142903859D01*
X51153471Y-142903859D01*
G37*
G36*
X51153471Y-140903859D02*
G01*
X51231827Y-140911576D01*
X51382628Y-140957321D01*
X51382630Y-140957322D01*
X51521605Y-141031606D01*
X51521607Y-141031607D01*
X51521606Y-141031607D01*
X51643422Y-141131578D01*
X51743393Y-141253394D01*
X51817679Y-141392372D01*
X51863424Y-141543173D01*
X51878870Y-141700000D01*
X51863424Y-141856827D01*
X51817679Y-142007628D01*
X51817678Y-142007630D01*
X51743394Y-142146605D01*
X51643422Y-142268422D01*
X51521605Y-142368394D01*
X51382630Y-142442678D01*
X51382628Y-142442679D01*
X51231827Y-142488424D01*
X51153471Y-142496141D01*
X51114294Y-142500000D01*
X50485706Y-142500000D01*
X50446529Y-142496141D01*
X50368173Y-142488424D01*
X50217372Y-142442679D01*
X50217370Y-142442678D01*
X50078395Y-142368394D01*
X49956578Y-142268422D01*
X49856606Y-142146605D01*
X49782322Y-142007630D01*
X49782321Y-142007628D01*
X49736576Y-141856827D01*
X49721130Y-141700000D01*
X49736576Y-141543173D01*
X49782321Y-141392372D01*
X49856607Y-141253394D01*
X49956578Y-141131578D01*
X50078394Y-141031607D01*
X50078393Y-141031607D01*
X50078395Y-141031606D01*
X50217370Y-140957322D01*
X50217372Y-140957321D01*
X50368173Y-140911576D01*
X50446529Y-140903859D01*
X50485706Y-140900000D01*
X51114294Y-140900000D01*
X51153471Y-140903859D01*
X51153471Y-140903859D01*
G37*
G36*
X51665269Y-138905597D02*
G01*
X51714013Y-138920383D01*
X51758926Y-138944390D01*
X51798299Y-138976701D01*
X51830610Y-139016074D01*
X51854617Y-139060987D01*
X51869403Y-139109731D01*
X51875000Y-139166557D01*
X51875000Y-140233443D01*
X51869403Y-140290269D01*
X51854617Y-140339013D01*
X51830610Y-140383926D01*
X51798299Y-140423299D01*
X51758926Y-140455610D01*
X51714013Y-140479617D01*
X51665269Y-140494403D01*
X51608443Y-140500000D01*
X49991557Y-140500000D01*
X49934731Y-140494403D01*
X49885987Y-140479617D01*
X49841074Y-140455610D01*
X49801701Y-140423299D01*
X49769390Y-140383926D01*
X49745383Y-140339013D01*
X49730597Y-140290269D01*
X49725000Y-140233443D01*
X49725000Y-139166557D01*
X49730597Y-139109731D01*
X49745383Y-139060987D01*
X49769390Y-139016074D01*
X49801701Y-138976701D01*
X49841074Y-138944390D01*
X49885987Y-138920383D01*
X49934731Y-138905597D01*
X49991557Y-138900000D01*
X51608443Y-138900000D01*
X51665269Y-138905597D01*
X51665269Y-138905597D01*
G37*
G36*
X122098524Y-123170042D02*
G01*
X122299196Y-123209958D01*
X122535781Y-123307955D01*
X122748702Y-123450224D01*
X122929776Y-123631298D01*
X123072045Y-123844219D01*
X123170042Y-124080804D01*
X123220000Y-124331961D01*
X123220000Y-124588039D01*
X123170042Y-124839196D01*
X123072045Y-125075781D01*
X122929776Y-125288702D01*
X122748702Y-125469776D01*
X122535781Y-125612045D01*
X122299196Y-125710042D01*
X122048040Y-125760000D01*
X121791960Y-125760000D01*
X121540804Y-125710042D01*
X121304219Y-125612045D01*
X121091298Y-125469776D01*
X120910224Y-125288702D01*
X120767955Y-125075781D01*
X120669958Y-124839196D01*
X120620000Y-124588039D01*
X120620000Y-124331961D01*
X120669958Y-124080804D01*
X120767955Y-123844219D01*
X120910224Y-123631298D01*
X121091298Y-123450224D01*
X121304219Y-123307955D01*
X121540804Y-123209958D01*
X121741476Y-123170042D01*
X121791960Y-123160000D01*
X122048040Y-123160000D01*
X122098524Y-123170042D01*
X122098524Y-123170042D01*
G37*
G36*
X101778524Y-123170042D02*
G01*
X101979196Y-123209958D01*
X102215781Y-123307955D01*
X102428702Y-123450224D01*
X102609776Y-123631298D01*
X102752045Y-123844219D01*
X102850042Y-124080804D01*
X102900000Y-124331961D01*
X102900000Y-124588039D01*
X102850042Y-124839196D01*
X102752045Y-125075781D01*
X102609776Y-125288702D01*
X102428702Y-125469776D01*
X102215781Y-125612045D01*
X101979196Y-125710042D01*
X101728040Y-125760000D01*
X101471960Y-125760000D01*
X101220804Y-125710042D01*
X100984219Y-125612045D01*
X100771298Y-125469776D01*
X100590224Y-125288702D01*
X100447955Y-125075781D01*
X100349958Y-124839196D01*
X100300000Y-124588039D01*
X100300000Y-124331961D01*
X100349958Y-124080804D01*
X100447955Y-123844219D01*
X100590224Y-123631298D01*
X100771298Y-123450224D01*
X100984219Y-123307955D01*
X101220804Y-123209958D01*
X101421476Y-123170042D01*
X101471960Y-123160000D01*
X101728040Y-123160000D01*
X101778524Y-123170042D01*
X101778524Y-123170042D01*
G37*
G36*
X61138524Y-123170042D02*
G01*
X61339196Y-123209958D01*
X61575781Y-123307955D01*
X61788702Y-123450224D01*
X61969776Y-123631298D01*
X62112045Y-123844219D01*
X62210042Y-124080804D01*
X62260000Y-124331961D01*
X62260000Y-124588039D01*
X62210042Y-124839196D01*
X62112045Y-125075781D01*
X61969776Y-125288702D01*
X61788702Y-125469776D01*
X61575781Y-125612045D01*
X61339196Y-125710042D01*
X61088040Y-125760000D01*
X60831960Y-125760000D01*
X60580804Y-125710042D01*
X60344219Y-125612045D01*
X60131298Y-125469776D01*
X59950224Y-125288702D01*
X59807955Y-125075781D01*
X59709958Y-124839196D01*
X59660000Y-124588039D01*
X59660000Y-124331961D01*
X59709958Y-124080804D01*
X59807955Y-123844219D01*
X59950224Y-123631298D01*
X60131298Y-123450224D01*
X60344219Y-123307955D01*
X60580804Y-123209958D01*
X60781476Y-123170042D01*
X60831960Y-123160000D01*
X61088040Y-123160000D01*
X61138524Y-123170042D01*
X61138524Y-123170042D01*
G37*
G36*
X81458524Y-123170042D02*
G01*
X81659196Y-123209958D01*
X81895781Y-123307955D01*
X82108702Y-123450224D01*
X82289776Y-123631298D01*
X82432045Y-123844219D01*
X82530042Y-124080804D01*
X82580000Y-124331961D01*
X82580000Y-124588039D01*
X82530042Y-124839196D01*
X82432045Y-125075781D01*
X82289776Y-125288702D01*
X82108702Y-125469776D01*
X81895781Y-125612045D01*
X81659196Y-125710042D01*
X81408040Y-125760000D01*
X81151960Y-125760000D01*
X80900804Y-125710042D01*
X80664219Y-125612045D01*
X80451298Y-125469776D01*
X80270224Y-125288702D01*
X80127955Y-125075781D01*
X80029958Y-124839196D01*
X79980000Y-124588039D01*
X79980000Y-124331961D01*
X80029958Y-124080804D01*
X80127955Y-123844219D01*
X80270224Y-123631298D01*
X80451298Y-123450224D01*
X80664219Y-123307955D01*
X80900804Y-123209958D01*
X81101476Y-123170042D01*
X81151960Y-123160000D01*
X81408040Y-123160000D01*
X81458524Y-123170042D01*
X81458524Y-123170042D01*
G37*
G36*
X51153471Y-122043859D02*
G01*
X51231827Y-122051576D01*
X51382628Y-122097321D01*
X51382630Y-122097322D01*
X51521605Y-122171606D01*
X51521607Y-122171607D01*
X51521606Y-122171607D01*
X51643422Y-122271578D01*
X51743393Y-122393394D01*
X51817679Y-122532372D01*
X51863424Y-122683173D01*
X51878870Y-122840000D01*
X51863424Y-122996827D01*
X51817679Y-123147628D01*
X51817678Y-123147630D01*
X51743394Y-123286605D01*
X51643422Y-123408422D01*
X51521605Y-123508394D01*
X51382630Y-123582678D01*
X51382628Y-123582679D01*
X51231827Y-123628424D01*
X51153471Y-123636141D01*
X51114294Y-123640000D01*
X50485706Y-123640000D01*
X50446529Y-123636141D01*
X50368173Y-123628424D01*
X50217372Y-123582679D01*
X50217370Y-123582678D01*
X50078395Y-123508394D01*
X49956578Y-123408422D01*
X49856606Y-123286605D01*
X49782322Y-123147630D01*
X49782321Y-123147628D01*
X49736576Y-122996827D01*
X49721130Y-122840000D01*
X49736576Y-122683173D01*
X49782321Y-122532372D01*
X49856607Y-122393394D01*
X49956578Y-122271578D01*
X50078394Y-122171607D01*
X50078393Y-122171607D01*
X50078395Y-122171606D01*
X50217370Y-122097322D01*
X50217372Y-122097321D01*
X50368173Y-122051576D01*
X50446529Y-122043859D01*
X50485706Y-122040000D01*
X51114294Y-122040000D01*
X51153471Y-122043859D01*
X51153471Y-122043859D01*
G37*
G36*
X128523617Y-120644979D02*
G01*
X128649196Y-120669958D01*
X128885781Y-120767955D01*
X129098702Y-120910224D01*
X129279776Y-121091298D01*
X129410276Y-121286606D01*
X129422046Y-121304221D01*
X129432565Y-121329616D01*
X129520042Y-121540804D01*
X129528371Y-121582678D01*
X129570000Y-121791960D01*
X129570000Y-122048040D01*
X129560197Y-122097321D01*
X129520042Y-122299196D01*
X129422045Y-122535781D01*
X129279776Y-122748702D01*
X129098702Y-122929776D01*
X128885781Y-123072045D01*
X128649196Y-123170042D01*
X128523617Y-123195021D01*
X128398040Y-123220000D01*
X128141960Y-123220000D01*
X128016383Y-123195021D01*
X127890804Y-123170042D01*
X127654219Y-123072045D01*
X127441298Y-122929776D01*
X127260224Y-122748702D01*
X127117955Y-122535781D01*
X127019958Y-122299196D01*
X126979803Y-122097321D01*
X126970000Y-122048040D01*
X126970000Y-121791960D01*
X127011629Y-121582678D01*
X127019958Y-121540804D01*
X127107435Y-121329616D01*
X127117954Y-121304221D01*
X127129724Y-121286606D01*
X127260224Y-121091298D01*
X127441298Y-120910224D01*
X127654219Y-120767955D01*
X127890804Y-120669958D01*
X128016383Y-120644979D01*
X128141960Y-120620000D01*
X128398040Y-120620000D01*
X128523617Y-120644979D01*
X128523617Y-120644979D01*
G37*
G36*
X87883617Y-120644979D02*
G01*
X88009196Y-120669958D01*
X88245781Y-120767955D01*
X88458702Y-120910224D01*
X88639776Y-121091298D01*
X88770276Y-121286606D01*
X88782046Y-121304221D01*
X88792565Y-121329616D01*
X88880042Y-121540804D01*
X88888371Y-121582678D01*
X88930000Y-121791960D01*
X88930000Y-122048040D01*
X88920197Y-122097321D01*
X88880042Y-122299196D01*
X88782045Y-122535781D01*
X88639776Y-122748702D01*
X88458702Y-122929776D01*
X88245781Y-123072045D01*
X88009196Y-123170042D01*
X87883617Y-123195021D01*
X87758040Y-123220000D01*
X87501960Y-123220000D01*
X87376383Y-123195021D01*
X87250804Y-123170042D01*
X87014219Y-123072045D01*
X86801298Y-122929776D01*
X86620224Y-122748702D01*
X86477955Y-122535781D01*
X86379958Y-122299196D01*
X86339803Y-122097321D01*
X86330000Y-122048040D01*
X86330000Y-121791960D01*
X86371629Y-121582678D01*
X86379958Y-121540804D01*
X86467435Y-121329616D01*
X86477954Y-121304221D01*
X86489724Y-121286606D01*
X86620224Y-121091298D01*
X86801298Y-120910224D01*
X87014219Y-120767955D01*
X87250804Y-120669958D01*
X87376383Y-120644979D01*
X87501960Y-120620000D01*
X87758040Y-120620000D01*
X87883617Y-120644979D01*
X87883617Y-120644979D01*
G37*
G36*
X67563617Y-120644979D02*
G01*
X67689196Y-120669958D01*
X67925781Y-120767955D01*
X68138702Y-120910224D01*
X68319776Y-121091298D01*
X68450276Y-121286606D01*
X68462046Y-121304221D01*
X68472565Y-121329616D01*
X68560042Y-121540804D01*
X68568371Y-121582678D01*
X68610000Y-121791960D01*
X68610000Y-122048040D01*
X68600197Y-122097321D01*
X68560042Y-122299196D01*
X68462045Y-122535781D01*
X68319776Y-122748702D01*
X68138702Y-122929776D01*
X67925781Y-123072045D01*
X67689196Y-123170042D01*
X67563617Y-123195021D01*
X67438040Y-123220000D01*
X67181960Y-123220000D01*
X67056383Y-123195021D01*
X66930804Y-123170042D01*
X66694219Y-123072045D01*
X66481298Y-122929776D01*
X66300224Y-122748702D01*
X66157955Y-122535781D01*
X66059958Y-122299196D01*
X66019803Y-122097321D01*
X66010000Y-122048040D01*
X66010000Y-121791960D01*
X66051629Y-121582678D01*
X66059958Y-121540804D01*
X66147435Y-121329616D01*
X66157954Y-121304221D01*
X66169724Y-121286606D01*
X66300224Y-121091298D01*
X66481298Y-120910224D01*
X66694219Y-120767955D01*
X66930804Y-120669958D01*
X67056383Y-120644979D01*
X67181960Y-120620000D01*
X67438040Y-120620000D01*
X67563617Y-120644979D01*
X67563617Y-120644979D01*
G37*
G36*
X108203617Y-120644979D02*
G01*
X108329196Y-120669958D01*
X108565781Y-120767955D01*
X108778702Y-120910224D01*
X108959776Y-121091298D01*
X109090276Y-121286606D01*
X109102046Y-121304221D01*
X109112565Y-121329616D01*
X109200042Y-121540804D01*
X109208371Y-121582678D01*
X109250000Y-121791960D01*
X109250000Y-122048040D01*
X109240197Y-122097321D01*
X109200042Y-122299196D01*
X109102045Y-122535781D01*
X108959776Y-122748702D01*
X108778702Y-122929776D01*
X108565781Y-123072045D01*
X108329196Y-123170042D01*
X108203617Y-123195021D01*
X108078040Y-123220000D01*
X107821960Y-123220000D01*
X107696383Y-123195021D01*
X107570804Y-123170042D01*
X107334219Y-123072045D01*
X107121298Y-122929776D01*
X106940224Y-122748702D01*
X106797955Y-122535781D01*
X106699958Y-122299196D01*
X106659803Y-122097321D01*
X106650000Y-122048040D01*
X106650000Y-121791960D01*
X106691629Y-121582678D01*
X106699958Y-121540804D01*
X106787435Y-121329616D01*
X106797954Y-121304221D01*
X106809724Y-121286606D01*
X106940224Y-121091298D01*
X107121298Y-120910224D01*
X107334219Y-120767955D01*
X107570804Y-120669958D01*
X107696383Y-120644979D01*
X107821960Y-120620000D01*
X108078040Y-120620000D01*
X108203617Y-120644979D01*
X108203617Y-120644979D01*
G37*
G36*
X51153471Y-120043859D02*
G01*
X51231827Y-120051576D01*
X51382628Y-120097321D01*
X51382630Y-120097322D01*
X51521605Y-120171606D01*
X51643422Y-120271578D01*
X51740321Y-120389650D01*
X51743393Y-120393394D01*
X51817679Y-120532372D01*
X51863424Y-120683173D01*
X51878870Y-120840000D01*
X51863424Y-120996827D01*
X51834766Y-121091299D01*
X51817678Y-121147630D01*
X51743394Y-121286605D01*
X51643422Y-121408422D01*
X51521605Y-121508394D01*
X51387640Y-121580000D01*
X51382628Y-121582679D01*
X51231827Y-121628424D01*
X51153471Y-121636141D01*
X51114294Y-121640000D01*
X50485706Y-121640000D01*
X50446529Y-121636141D01*
X50368173Y-121628424D01*
X50217372Y-121582679D01*
X50212360Y-121580000D01*
X50078395Y-121508394D01*
X49956578Y-121408422D01*
X49856606Y-121286605D01*
X49782322Y-121147630D01*
X49765234Y-121091299D01*
X49736576Y-120996827D01*
X49721130Y-120840000D01*
X49736576Y-120683173D01*
X49782321Y-120532372D01*
X49856607Y-120393394D01*
X49859680Y-120389650D01*
X49956578Y-120271578D01*
X50078395Y-120171606D01*
X50217370Y-120097322D01*
X50217372Y-120097321D01*
X50368173Y-120051576D01*
X50446529Y-120043859D01*
X50485706Y-120040000D01*
X51114294Y-120040000D01*
X51153471Y-120043859D01*
X51153471Y-120043859D01*
G37*
G36*
X84461715Y-117264544D02*
G01*
X84861811Y-117430269D01*
X84862091Y-117430385D01*
X85091727Y-117583823D01*
X85222418Y-117671148D01*
X85528852Y-117977582D01*
X85769616Y-118337911D01*
X85935456Y-118738285D01*
X86020000Y-119163318D01*
X86020000Y-119596682D01*
X85935456Y-120021715D01*
X85781502Y-120393394D01*
X85769615Y-120422091D01*
X85528852Y-120782418D01*
X85222418Y-121088852D01*
X84862091Y-121329615D01*
X84862090Y-121329616D01*
X84862089Y-121329616D01*
X84461715Y-121495456D01*
X84036682Y-121580000D01*
X83603318Y-121580000D01*
X83178285Y-121495456D01*
X82777911Y-121329616D01*
X82777910Y-121329616D01*
X82777909Y-121329615D01*
X82417582Y-121088852D01*
X82111148Y-120782418D01*
X81870385Y-120422091D01*
X81858498Y-120393394D01*
X81704544Y-120021715D01*
X81620000Y-119596682D01*
X81620000Y-119163318D01*
X81704544Y-118738285D01*
X81870384Y-118337911D01*
X82111148Y-117977582D01*
X82417582Y-117671148D01*
X82548273Y-117583823D01*
X82777909Y-117430385D01*
X82778189Y-117430269D01*
X83178285Y-117264544D01*
X83603318Y-117180000D01*
X84036682Y-117180000D01*
X84461715Y-117264544D01*
X84461715Y-117264544D01*
G37*
G36*
X104781715Y-117264544D02*
G01*
X105181811Y-117430269D01*
X105182091Y-117430385D01*
X105411727Y-117583823D01*
X105542418Y-117671148D01*
X105848852Y-117977582D01*
X106089616Y-118337911D01*
X106255456Y-118738285D01*
X106340000Y-119163318D01*
X106340000Y-119596682D01*
X106255456Y-120021715D01*
X106101502Y-120393394D01*
X106089615Y-120422091D01*
X105848852Y-120782418D01*
X105542418Y-121088852D01*
X105182091Y-121329615D01*
X105182090Y-121329616D01*
X105182089Y-121329616D01*
X104781715Y-121495456D01*
X104356682Y-121580000D01*
X103923318Y-121580000D01*
X103498285Y-121495456D01*
X103097911Y-121329616D01*
X103097910Y-121329616D01*
X103097909Y-121329615D01*
X102737582Y-121088852D01*
X102431148Y-120782418D01*
X102190385Y-120422091D01*
X102178498Y-120393394D01*
X102024544Y-120021715D01*
X101940000Y-119596682D01*
X101940000Y-119163318D01*
X102024544Y-118738285D01*
X102190384Y-118337911D01*
X102431148Y-117977582D01*
X102737582Y-117671148D01*
X102868273Y-117583823D01*
X103097909Y-117430385D01*
X103098189Y-117430269D01*
X103498285Y-117264544D01*
X103923318Y-117180000D01*
X104356682Y-117180000D01*
X104781715Y-117264544D01*
X104781715Y-117264544D01*
G37*
G36*
X64141715Y-117264544D02*
G01*
X64541811Y-117430269D01*
X64542091Y-117430385D01*
X64771727Y-117583823D01*
X64902418Y-117671148D01*
X65208852Y-117977582D01*
X65449616Y-118337911D01*
X65615456Y-118738285D01*
X65700000Y-119163318D01*
X65700000Y-119596682D01*
X65615456Y-120021715D01*
X65461502Y-120393394D01*
X65449615Y-120422091D01*
X65208852Y-120782418D01*
X64902418Y-121088852D01*
X64542091Y-121329615D01*
X64542090Y-121329616D01*
X64542089Y-121329616D01*
X64141715Y-121495456D01*
X63716682Y-121580000D01*
X63283318Y-121580000D01*
X62858285Y-121495456D01*
X62457911Y-121329616D01*
X62457910Y-121329616D01*
X62457909Y-121329615D01*
X62097582Y-121088852D01*
X61791148Y-120782418D01*
X61550385Y-120422091D01*
X61538498Y-120393394D01*
X61384544Y-120021715D01*
X61300000Y-119596682D01*
X61300000Y-119163318D01*
X61384544Y-118738285D01*
X61550384Y-118337911D01*
X61791148Y-117977582D01*
X62097582Y-117671148D01*
X62228273Y-117583823D01*
X62457909Y-117430385D01*
X62458189Y-117430269D01*
X62858285Y-117264544D01*
X63283318Y-117180000D01*
X63716682Y-117180000D01*
X64141715Y-117264544D01*
X64141715Y-117264544D01*
G37*
G36*
X125101715Y-117264544D02*
G01*
X125501811Y-117430269D01*
X125502091Y-117430385D01*
X125731727Y-117583823D01*
X125862418Y-117671148D01*
X126168852Y-117977582D01*
X126409616Y-118337911D01*
X126575456Y-118738285D01*
X126660000Y-119163318D01*
X126660000Y-119596682D01*
X126575456Y-120021715D01*
X126421502Y-120393394D01*
X126409615Y-120422091D01*
X126168852Y-120782418D01*
X125862418Y-121088852D01*
X125502091Y-121329615D01*
X125502090Y-121329616D01*
X125502089Y-121329616D01*
X125101715Y-121495456D01*
X124676682Y-121580000D01*
X124243318Y-121580000D01*
X123818285Y-121495456D01*
X123417911Y-121329616D01*
X123417910Y-121329616D01*
X123417909Y-121329615D01*
X123057582Y-121088852D01*
X122751148Y-120782418D01*
X122510385Y-120422091D01*
X122498498Y-120393394D01*
X122344544Y-120021715D01*
X122260000Y-119596682D01*
X122260000Y-119163318D01*
X122344544Y-118738285D01*
X122510384Y-118337911D01*
X122751148Y-117977582D01*
X123057582Y-117671148D01*
X123188273Y-117583823D01*
X123417909Y-117430385D01*
X123418189Y-117430269D01*
X123818285Y-117264544D01*
X124243318Y-117180000D01*
X124676682Y-117180000D01*
X125101715Y-117264544D01*
X125101715Y-117264544D01*
G37*
G36*
X58548687Y-118335027D02*
G01*
X58726274Y-118370350D01*
X58917362Y-118449502D01*
X59089336Y-118564411D01*
X59235589Y-118710664D01*
X59350498Y-118882638D01*
X59429650Y-119073726D01*
X59470000Y-119276584D01*
X59470000Y-119483416D01*
X59429650Y-119686274D01*
X59350498Y-119877362D01*
X59235589Y-120049336D01*
X59089336Y-120195589D01*
X58917362Y-120310498D01*
X58726274Y-120389650D01*
X58563188Y-120422089D01*
X58523417Y-120430000D01*
X58316583Y-120430000D01*
X58276812Y-120422089D01*
X58113726Y-120389650D01*
X57922638Y-120310498D01*
X57750664Y-120195589D01*
X57604411Y-120049336D01*
X57489502Y-119877362D01*
X57410350Y-119686274D01*
X57370000Y-119483416D01*
X57370000Y-119276584D01*
X57410350Y-119073726D01*
X57489502Y-118882638D01*
X57604411Y-118710664D01*
X57750664Y-118564411D01*
X57922638Y-118449502D01*
X58113726Y-118370350D01*
X58291313Y-118335027D01*
X58316583Y-118330000D01*
X58523417Y-118330000D01*
X58548687Y-118335027D01*
X58548687Y-118335027D01*
G37*
G36*
X68708687Y-118335027D02*
G01*
X68886274Y-118370350D01*
X69077362Y-118449502D01*
X69249336Y-118564411D01*
X69395589Y-118710664D01*
X69510498Y-118882638D01*
X69589650Y-119073726D01*
X69630000Y-119276584D01*
X69630000Y-119483416D01*
X69589650Y-119686274D01*
X69510498Y-119877362D01*
X69395589Y-120049336D01*
X69249336Y-120195589D01*
X69077362Y-120310498D01*
X68886274Y-120389650D01*
X68723188Y-120422089D01*
X68683417Y-120430000D01*
X68476583Y-120430000D01*
X68436812Y-120422089D01*
X68273726Y-120389650D01*
X68082638Y-120310498D01*
X67910664Y-120195589D01*
X67764411Y-120049336D01*
X67649502Y-119877362D01*
X67570350Y-119686274D01*
X67530000Y-119483416D01*
X67530000Y-119276584D01*
X67570350Y-119073726D01*
X67649502Y-118882638D01*
X67764411Y-118710664D01*
X67910664Y-118564411D01*
X68082638Y-118449502D01*
X68273726Y-118370350D01*
X68451313Y-118335027D01*
X68476583Y-118330000D01*
X68683417Y-118330000D01*
X68708687Y-118335027D01*
X68708687Y-118335027D01*
G37*
G36*
X129668687Y-118335027D02*
G01*
X129846274Y-118370350D01*
X130037362Y-118449502D01*
X130209336Y-118564411D01*
X130355589Y-118710664D01*
X130470498Y-118882638D01*
X130549650Y-119073726D01*
X130590000Y-119276584D01*
X130590000Y-119483416D01*
X130549650Y-119686274D01*
X130470498Y-119877362D01*
X130355589Y-120049336D01*
X130209336Y-120195589D01*
X130037362Y-120310498D01*
X129846274Y-120389650D01*
X129683188Y-120422089D01*
X129643417Y-120430000D01*
X129436583Y-120430000D01*
X129396812Y-120422089D01*
X129233726Y-120389650D01*
X129042638Y-120310498D01*
X128870664Y-120195589D01*
X128724411Y-120049336D01*
X128609502Y-119877362D01*
X128530350Y-119686274D01*
X128490000Y-119483416D01*
X128490000Y-119276584D01*
X128530350Y-119073726D01*
X128609502Y-118882638D01*
X128724411Y-118710664D01*
X128870664Y-118564411D01*
X129042638Y-118449502D01*
X129233726Y-118370350D01*
X129411313Y-118335027D01*
X129436583Y-118330000D01*
X129643417Y-118330000D01*
X129668687Y-118335027D01*
X129668687Y-118335027D01*
G37*
G36*
X119508687Y-118335027D02*
G01*
X119686274Y-118370350D01*
X119877362Y-118449502D01*
X120049336Y-118564411D01*
X120195589Y-118710664D01*
X120310498Y-118882638D01*
X120389650Y-119073726D01*
X120430000Y-119276584D01*
X120430000Y-119483416D01*
X120389650Y-119686274D01*
X120310498Y-119877362D01*
X120195589Y-120049336D01*
X120049336Y-120195589D01*
X119877362Y-120310498D01*
X119686274Y-120389650D01*
X119523188Y-120422089D01*
X119483417Y-120430000D01*
X119276583Y-120430000D01*
X119236812Y-120422089D01*
X119073726Y-120389650D01*
X118882638Y-120310498D01*
X118710664Y-120195589D01*
X118564411Y-120049336D01*
X118449502Y-119877362D01*
X118370350Y-119686274D01*
X118330000Y-119483416D01*
X118330000Y-119276584D01*
X118370350Y-119073726D01*
X118449502Y-118882638D01*
X118564411Y-118710664D01*
X118710664Y-118564411D01*
X118882638Y-118449502D01*
X119073726Y-118370350D01*
X119251313Y-118335027D01*
X119276583Y-118330000D01*
X119483417Y-118330000D01*
X119508687Y-118335027D01*
X119508687Y-118335027D01*
G37*
G36*
X89028687Y-118335027D02*
G01*
X89206274Y-118370350D01*
X89397362Y-118449502D01*
X89569336Y-118564411D01*
X89715589Y-118710664D01*
X89830498Y-118882638D01*
X89909650Y-119073726D01*
X89950000Y-119276584D01*
X89950000Y-119483416D01*
X89909650Y-119686274D01*
X89830498Y-119877362D01*
X89715589Y-120049336D01*
X89569336Y-120195589D01*
X89397362Y-120310498D01*
X89206274Y-120389650D01*
X89043188Y-120422089D01*
X89003417Y-120430000D01*
X88796583Y-120430000D01*
X88756812Y-120422089D01*
X88593726Y-120389650D01*
X88402638Y-120310498D01*
X88230664Y-120195589D01*
X88084411Y-120049336D01*
X87969502Y-119877362D01*
X87890350Y-119686274D01*
X87850000Y-119483416D01*
X87850000Y-119276584D01*
X87890350Y-119073726D01*
X87969502Y-118882638D01*
X88084411Y-118710664D01*
X88230664Y-118564411D01*
X88402638Y-118449502D01*
X88593726Y-118370350D01*
X88771313Y-118335027D01*
X88796583Y-118330000D01*
X89003417Y-118330000D01*
X89028687Y-118335027D01*
X89028687Y-118335027D01*
G37*
G36*
X99188687Y-118335027D02*
G01*
X99366274Y-118370350D01*
X99557362Y-118449502D01*
X99729336Y-118564411D01*
X99875589Y-118710664D01*
X99990498Y-118882638D01*
X100069650Y-119073726D01*
X100110000Y-119276584D01*
X100110000Y-119483416D01*
X100069650Y-119686274D01*
X99990498Y-119877362D01*
X99875589Y-120049336D01*
X99729336Y-120195589D01*
X99557362Y-120310498D01*
X99366274Y-120389650D01*
X99203188Y-120422089D01*
X99163417Y-120430000D01*
X98956583Y-120430000D01*
X98916812Y-120422089D01*
X98753726Y-120389650D01*
X98562638Y-120310498D01*
X98390664Y-120195589D01*
X98244411Y-120049336D01*
X98129502Y-119877362D01*
X98050350Y-119686274D01*
X98010000Y-119483416D01*
X98010000Y-119276584D01*
X98050350Y-119073726D01*
X98129502Y-118882638D01*
X98244411Y-118710664D01*
X98390664Y-118564411D01*
X98562638Y-118449502D01*
X98753726Y-118370350D01*
X98931313Y-118335027D01*
X98956583Y-118330000D01*
X99163417Y-118330000D01*
X99188687Y-118335027D01*
X99188687Y-118335027D01*
G37*
G36*
X78868687Y-118335027D02*
G01*
X79046274Y-118370350D01*
X79237362Y-118449502D01*
X79409336Y-118564411D01*
X79555589Y-118710664D01*
X79670498Y-118882638D01*
X79749650Y-119073726D01*
X79790000Y-119276584D01*
X79790000Y-119483416D01*
X79749650Y-119686274D01*
X79670498Y-119877362D01*
X79555589Y-120049336D01*
X79409336Y-120195589D01*
X79237362Y-120310498D01*
X79046274Y-120389650D01*
X78883188Y-120422089D01*
X78843417Y-120430000D01*
X78636583Y-120430000D01*
X78596812Y-120422089D01*
X78433726Y-120389650D01*
X78242638Y-120310498D01*
X78070664Y-120195589D01*
X77924411Y-120049336D01*
X77809502Y-119877362D01*
X77730350Y-119686274D01*
X77690000Y-119483416D01*
X77690000Y-119276584D01*
X77730350Y-119073726D01*
X77809502Y-118882638D01*
X77924411Y-118710664D01*
X78070664Y-118564411D01*
X78242638Y-118449502D01*
X78433726Y-118370350D01*
X78611313Y-118335027D01*
X78636583Y-118330000D01*
X78843417Y-118330000D01*
X78868687Y-118335027D01*
X78868687Y-118335027D01*
G37*
G36*
X109348687Y-118335027D02*
G01*
X109526274Y-118370350D01*
X109717362Y-118449502D01*
X109889336Y-118564411D01*
X110035589Y-118710664D01*
X110150498Y-118882638D01*
X110229650Y-119073726D01*
X110270000Y-119276584D01*
X110270000Y-119483416D01*
X110229650Y-119686274D01*
X110150498Y-119877362D01*
X110035589Y-120049336D01*
X109889336Y-120195589D01*
X109717362Y-120310498D01*
X109526274Y-120389650D01*
X109363188Y-120422089D01*
X109323417Y-120430000D01*
X109116583Y-120430000D01*
X109076812Y-120422089D01*
X108913726Y-120389650D01*
X108722638Y-120310498D01*
X108550664Y-120195589D01*
X108404411Y-120049336D01*
X108289502Y-119877362D01*
X108210350Y-119686274D01*
X108170000Y-119483416D01*
X108170000Y-119276584D01*
X108210350Y-119073726D01*
X108289502Y-118882638D01*
X108404411Y-118710664D01*
X108550664Y-118564411D01*
X108722638Y-118449502D01*
X108913726Y-118370350D01*
X109091313Y-118335027D01*
X109116583Y-118330000D01*
X109323417Y-118330000D01*
X109348687Y-118335027D01*
X109348687Y-118335027D01*
G37*
G36*
X51153471Y-118043859D02*
G01*
X51231827Y-118051576D01*
X51382628Y-118097321D01*
X51382630Y-118097322D01*
X51521605Y-118171606D01*
X51643422Y-118271578D01*
X51724482Y-118370350D01*
X51743393Y-118393394D01*
X51817679Y-118532372D01*
X51863424Y-118683173D01*
X51878870Y-118840000D01*
X51863424Y-118996827D01*
X51840096Y-119073728D01*
X51817678Y-119147630D01*
X51743394Y-119286605D01*
X51643422Y-119408422D01*
X51521605Y-119508394D01*
X51382630Y-119582678D01*
X51382628Y-119582679D01*
X51231827Y-119628424D01*
X51153471Y-119636141D01*
X51114294Y-119640000D01*
X50485706Y-119640000D01*
X50446529Y-119636141D01*
X50368173Y-119628424D01*
X50217372Y-119582679D01*
X50217370Y-119582678D01*
X50078395Y-119508394D01*
X49956578Y-119408422D01*
X49856606Y-119286605D01*
X49782322Y-119147630D01*
X49759904Y-119073728D01*
X49736576Y-118996827D01*
X49721130Y-118840000D01*
X49736576Y-118683173D01*
X49782321Y-118532372D01*
X49856607Y-118393394D01*
X49875519Y-118370350D01*
X49956578Y-118271578D01*
X50078395Y-118171606D01*
X50217370Y-118097322D01*
X50217372Y-118097321D01*
X50368173Y-118051576D01*
X50446529Y-118043859D01*
X50485706Y-118040000D01*
X51114294Y-118040000D01*
X51153471Y-118043859D01*
X51153471Y-118043859D01*
G37*
G36*
X51665269Y-116045597D02*
G01*
X51714013Y-116060383D01*
X51758926Y-116084390D01*
X51798299Y-116116701D01*
X51830610Y-116156074D01*
X51854617Y-116200987D01*
X51869403Y-116249731D01*
X51875000Y-116306557D01*
X51875000Y-117373443D01*
X51869403Y-117430269D01*
X51854617Y-117479013D01*
X51830610Y-117523926D01*
X51798299Y-117563299D01*
X51758926Y-117595610D01*
X51714013Y-117619617D01*
X51665269Y-117634403D01*
X51608443Y-117640000D01*
X49991557Y-117640000D01*
X49934731Y-117634403D01*
X49885987Y-117619617D01*
X49841074Y-117595610D01*
X49801701Y-117563299D01*
X49769390Y-117523926D01*
X49745383Y-117479013D01*
X49730597Y-117430269D01*
X49725000Y-117373443D01*
X49725000Y-116306557D01*
X49730597Y-116249731D01*
X49745383Y-116200987D01*
X49769390Y-116156074D01*
X49801701Y-116116701D01*
X49841074Y-116084390D01*
X49885987Y-116060383D01*
X49934731Y-116045597D01*
X49991557Y-116040000D01*
X51608443Y-116040000D01*
X51665269Y-116045597D01*
X51665269Y-116045597D01*
G37*
G36*
X122098524Y-99040042D02*
G01*
X122299196Y-99079958D01*
X122535781Y-99177955D01*
X122748702Y-99320224D01*
X122929776Y-99501298D01*
X123072045Y-99714219D01*
X123170042Y-99950804D01*
X123220000Y-100201961D01*
X123220000Y-100458039D01*
X123170042Y-100709196D01*
X123072045Y-100945781D01*
X122929776Y-101158702D01*
X122748702Y-101339776D01*
X122535781Y-101482045D01*
X122299196Y-101580042D01*
X122048040Y-101630000D01*
X121791960Y-101630000D01*
X121540804Y-101580042D01*
X121304219Y-101482045D01*
X121091298Y-101339776D01*
X120910224Y-101158702D01*
X120767955Y-100945781D01*
X120669958Y-100709196D01*
X120620000Y-100458039D01*
X120620000Y-100201961D01*
X120669958Y-99950804D01*
X120767955Y-99714219D01*
X120910224Y-99501298D01*
X121091298Y-99320224D01*
X121304219Y-99177955D01*
X121540804Y-99079958D01*
X121741476Y-99040042D01*
X121791960Y-99030000D01*
X122048040Y-99030000D01*
X122098524Y-99040042D01*
X122098524Y-99040042D01*
G37*
G36*
X61138524Y-99040042D02*
G01*
X61339196Y-99079958D01*
X61575781Y-99177955D01*
X61788702Y-99320224D01*
X61969776Y-99501298D01*
X62112045Y-99714219D01*
X62210042Y-99950804D01*
X62260000Y-100201961D01*
X62260000Y-100458039D01*
X62210042Y-100709196D01*
X62112045Y-100945781D01*
X61969776Y-101158702D01*
X61788702Y-101339776D01*
X61575781Y-101482045D01*
X61339196Y-101580042D01*
X61088040Y-101630000D01*
X60831960Y-101630000D01*
X60580804Y-101580042D01*
X60344219Y-101482045D01*
X60131298Y-101339776D01*
X59950224Y-101158702D01*
X59807955Y-100945781D01*
X59709958Y-100709196D01*
X59660000Y-100458039D01*
X59660000Y-100201961D01*
X59709958Y-99950804D01*
X59807955Y-99714219D01*
X59950224Y-99501298D01*
X60131298Y-99320224D01*
X60344219Y-99177955D01*
X60580804Y-99079958D01*
X60781476Y-99040042D01*
X60831960Y-99030000D01*
X61088040Y-99030000D01*
X61138524Y-99040042D01*
X61138524Y-99040042D01*
G37*
G36*
X81458524Y-99040042D02*
G01*
X81659196Y-99079958D01*
X81895781Y-99177955D01*
X82108702Y-99320224D01*
X82289776Y-99501298D01*
X82432045Y-99714219D01*
X82530042Y-99950804D01*
X82580000Y-100201961D01*
X82580000Y-100458039D01*
X82530042Y-100709196D01*
X82432045Y-100945781D01*
X82289776Y-101158702D01*
X82108702Y-101339776D01*
X81895781Y-101482045D01*
X81659196Y-101580042D01*
X81408040Y-101630000D01*
X81151960Y-101630000D01*
X80900804Y-101580042D01*
X80664219Y-101482045D01*
X80451298Y-101339776D01*
X80270224Y-101158702D01*
X80127955Y-100945781D01*
X80029958Y-100709196D01*
X79980000Y-100458039D01*
X79980000Y-100201961D01*
X80029958Y-99950804D01*
X80127955Y-99714219D01*
X80270224Y-99501298D01*
X80451298Y-99320224D01*
X80664219Y-99177955D01*
X80900804Y-99079958D01*
X81101476Y-99040042D01*
X81151960Y-99030000D01*
X81408040Y-99030000D01*
X81458524Y-99040042D01*
X81458524Y-99040042D01*
G37*
G36*
X101778524Y-99040042D02*
G01*
X101979196Y-99079958D01*
X102215781Y-99177955D01*
X102428702Y-99320224D01*
X102609776Y-99501298D01*
X102752045Y-99714219D01*
X102850042Y-99950804D01*
X102900000Y-100201961D01*
X102900000Y-100458039D01*
X102850042Y-100709196D01*
X102752045Y-100945781D01*
X102609776Y-101158702D01*
X102428702Y-101339776D01*
X102215781Y-101482045D01*
X101979196Y-101580042D01*
X101728040Y-101630000D01*
X101471960Y-101630000D01*
X101220804Y-101580042D01*
X100984219Y-101482045D01*
X100771298Y-101339776D01*
X100590224Y-101158702D01*
X100447955Y-100945781D01*
X100349958Y-100709196D01*
X100300000Y-100458039D01*
X100300000Y-100201961D01*
X100349958Y-99950804D01*
X100447955Y-99714219D01*
X100590224Y-99501298D01*
X100771298Y-99320224D01*
X100984219Y-99177955D01*
X101220804Y-99079958D01*
X101421476Y-99040042D01*
X101471960Y-99030000D01*
X101728040Y-99030000D01*
X101778524Y-99040042D01*
X101778524Y-99040042D01*
G37*
G36*
X128523617Y-96514979D02*
G01*
X128649196Y-96539958D01*
X128885781Y-96637955D01*
X129098702Y-96780224D01*
X129279776Y-96961298D01*
X129422045Y-97174219D01*
X129422046Y-97174221D01*
X129432565Y-97199616D01*
X129520042Y-97410804D01*
X129570000Y-97661961D01*
X129570000Y-97918039D01*
X129520042Y-98169196D01*
X129422045Y-98405781D01*
X129279776Y-98618702D01*
X129098702Y-98799776D01*
X128885781Y-98942045D01*
X128649196Y-99040042D01*
X128398040Y-99090000D01*
X128141960Y-99090000D01*
X127890804Y-99040042D01*
X127654219Y-98942045D01*
X127441298Y-98799776D01*
X127260224Y-98618702D01*
X127117955Y-98405781D01*
X127019958Y-98169196D01*
X126970000Y-97918039D01*
X126970000Y-97661961D01*
X127019958Y-97410804D01*
X127107435Y-97199616D01*
X127117954Y-97174221D01*
X127117955Y-97174219D01*
X127260224Y-96961298D01*
X127441298Y-96780224D01*
X127654219Y-96637955D01*
X127890804Y-96539958D01*
X128016383Y-96514979D01*
X128141960Y-96490000D01*
X128398040Y-96490000D01*
X128523617Y-96514979D01*
X128523617Y-96514979D01*
G37*
G36*
X87883617Y-96514979D02*
G01*
X88009196Y-96539958D01*
X88245781Y-96637955D01*
X88458702Y-96780224D01*
X88639776Y-96961298D01*
X88782045Y-97174219D01*
X88782046Y-97174221D01*
X88792565Y-97199616D01*
X88880042Y-97410804D01*
X88930000Y-97661961D01*
X88930000Y-97918039D01*
X88880042Y-98169196D01*
X88782045Y-98405781D01*
X88639776Y-98618702D01*
X88458702Y-98799776D01*
X88245781Y-98942045D01*
X88009196Y-99040042D01*
X87758040Y-99090000D01*
X87501960Y-99090000D01*
X87250804Y-99040042D01*
X87014219Y-98942045D01*
X86801298Y-98799776D01*
X86620224Y-98618702D01*
X86477955Y-98405781D01*
X86379958Y-98169196D01*
X86330000Y-97918039D01*
X86330000Y-97661961D01*
X86379958Y-97410804D01*
X86467435Y-97199616D01*
X86477954Y-97174221D01*
X86477955Y-97174219D01*
X86620224Y-96961298D01*
X86801298Y-96780224D01*
X87014219Y-96637955D01*
X87250804Y-96539958D01*
X87376383Y-96514979D01*
X87501960Y-96490000D01*
X87758040Y-96490000D01*
X87883617Y-96514979D01*
X87883617Y-96514979D01*
G37*
G36*
X108203617Y-96514979D02*
G01*
X108329196Y-96539958D01*
X108565781Y-96637955D01*
X108778702Y-96780224D01*
X108959776Y-96961298D01*
X109102045Y-97174219D01*
X109102046Y-97174221D01*
X109112565Y-97199616D01*
X109200042Y-97410804D01*
X109250000Y-97661961D01*
X109250000Y-97918039D01*
X109200042Y-98169196D01*
X109102045Y-98405781D01*
X108959776Y-98618702D01*
X108778702Y-98799776D01*
X108565781Y-98942045D01*
X108329196Y-99040042D01*
X108078040Y-99090000D01*
X107821960Y-99090000D01*
X107570804Y-99040042D01*
X107334219Y-98942045D01*
X107121298Y-98799776D01*
X106940224Y-98618702D01*
X106797955Y-98405781D01*
X106699958Y-98169196D01*
X106650000Y-97918039D01*
X106650000Y-97661961D01*
X106699958Y-97410804D01*
X106787435Y-97199616D01*
X106797954Y-97174221D01*
X106797955Y-97174219D01*
X106940224Y-96961298D01*
X107121298Y-96780224D01*
X107334219Y-96637955D01*
X107570804Y-96539958D01*
X107696383Y-96514979D01*
X107821960Y-96490000D01*
X108078040Y-96490000D01*
X108203617Y-96514979D01*
X108203617Y-96514979D01*
G37*
G36*
X67563617Y-96514979D02*
G01*
X67689196Y-96539958D01*
X67925781Y-96637955D01*
X68138702Y-96780224D01*
X68319776Y-96961298D01*
X68462045Y-97174219D01*
X68462046Y-97174221D01*
X68472565Y-97199616D01*
X68560042Y-97410804D01*
X68610000Y-97661961D01*
X68610000Y-97918039D01*
X68560042Y-98169196D01*
X68462045Y-98405781D01*
X68319776Y-98618702D01*
X68138702Y-98799776D01*
X67925781Y-98942045D01*
X67689196Y-99040042D01*
X67438040Y-99090000D01*
X67181960Y-99090000D01*
X66930804Y-99040042D01*
X66694219Y-98942045D01*
X66481298Y-98799776D01*
X66300224Y-98618702D01*
X66157955Y-98405781D01*
X66059958Y-98169196D01*
X66010000Y-97918039D01*
X66010000Y-97661961D01*
X66059958Y-97410804D01*
X66147435Y-97199616D01*
X66157954Y-97174221D01*
X66157955Y-97174219D01*
X66300224Y-96961298D01*
X66481298Y-96780224D01*
X66694219Y-96637955D01*
X66930804Y-96539958D01*
X67056383Y-96514979D01*
X67181960Y-96490000D01*
X67438040Y-96490000D01*
X67563617Y-96514979D01*
X67563617Y-96514979D01*
G37*
G36*
X64141715Y-93134544D02*
G01*
X64542089Y-93300384D01*
X64542091Y-93300385D01*
X64902418Y-93541148D01*
X65208852Y-93847582D01*
X65449616Y-94207911D01*
X65615456Y-94608285D01*
X65700000Y-95033318D01*
X65700000Y-95466682D01*
X65615456Y-95891715D01*
X65449616Y-96292089D01*
X65449615Y-96292091D01*
X65208852Y-96652418D01*
X64902418Y-96958852D01*
X64542091Y-97199615D01*
X64542090Y-97199616D01*
X64542089Y-97199616D01*
X64141715Y-97365456D01*
X63716682Y-97450000D01*
X63283318Y-97450000D01*
X62858285Y-97365456D01*
X62457911Y-97199616D01*
X62457910Y-97199616D01*
X62457909Y-97199615D01*
X62097582Y-96958852D01*
X61791148Y-96652418D01*
X61550385Y-96292091D01*
X61550384Y-96292089D01*
X61384544Y-95891715D01*
X61300000Y-95466682D01*
X61300000Y-95033318D01*
X61384544Y-94608285D01*
X61550384Y-94207911D01*
X61791148Y-93847582D01*
X62097582Y-93541148D01*
X62457909Y-93300385D01*
X62457911Y-93300384D01*
X62858285Y-93134544D01*
X63283318Y-93050000D01*
X63716682Y-93050000D01*
X64141715Y-93134544D01*
X64141715Y-93134544D01*
G37*
G36*
X125101715Y-93134544D02*
G01*
X125502089Y-93300384D01*
X125502091Y-93300385D01*
X125862418Y-93541148D01*
X126168852Y-93847582D01*
X126409616Y-94207911D01*
X126575456Y-94608285D01*
X126660000Y-95033318D01*
X126660000Y-95466682D01*
X126575456Y-95891715D01*
X126409616Y-96292089D01*
X126409615Y-96292091D01*
X126168852Y-96652418D01*
X125862418Y-96958852D01*
X125502091Y-97199615D01*
X125502090Y-97199616D01*
X125502089Y-97199616D01*
X125101715Y-97365456D01*
X124676682Y-97450000D01*
X124243318Y-97450000D01*
X123818285Y-97365456D01*
X123417911Y-97199616D01*
X123417910Y-97199616D01*
X123417909Y-97199615D01*
X123057582Y-96958852D01*
X122751148Y-96652418D01*
X122510385Y-96292091D01*
X122510384Y-96292089D01*
X122344544Y-95891715D01*
X122260000Y-95466682D01*
X122260000Y-95033318D01*
X122344544Y-94608285D01*
X122510384Y-94207911D01*
X122751148Y-93847582D01*
X123057582Y-93541148D01*
X123417909Y-93300385D01*
X123417911Y-93300384D01*
X123818285Y-93134544D01*
X124243318Y-93050000D01*
X124676682Y-93050000D01*
X125101715Y-93134544D01*
X125101715Y-93134544D01*
G37*
G36*
X84461715Y-93134544D02*
G01*
X84862089Y-93300384D01*
X84862091Y-93300385D01*
X85222418Y-93541148D01*
X85528852Y-93847582D01*
X85769616Y-94207911D01*
X85935456Y-94608285D01*
X86020000Y-95033318D01*
X86020000Y-95466682D01*
X85935456Y-95891715D01*
X85769616Y-96292089D01*
X85769615Y-96292091D01*
X85528852Y-96652418D01*
X85222418Y-96958852D01*
X84862091Y-97199615D01*
X84862090Y-97199616D01*
X84862089Y-97199616D01*
X84461715Y-97365456D01*
X84036682Y-97450000D01*
X83603318Y-97450000D01*
X83178285Y-97365456D01*
X82777911Y-97199616D01*
X82777910Y-97199616D01*
X82777909Y-97199615D01*
X82417582Y-96958852D01*
X82111148Y-96652418D01*
X81870385Y-96292091D01*
X81870384Y-96292089D01*
X81704544Y-95891715D01*
X81620000Y-95466682D01*
X81620000Y-95033318D01*
X81704544Y-94608285D01*
X81870384Y-94207911D01*
X82111148Y-93847582D01*
X82417582Y-93541148D01*
X82777909Y-93300385D01*
X82777911Y-93300384D01*
X83178285Y-93134544D01*
X83603318Y-93050000D01*
X84036682Y-93050000D01*
X84461715Y-93134544D01*
X84461715Y-93134544D01*
G37*
G36*
X104781715Y-93134544D02*
G01*
X105182089Y-93300384D01*
X105182091Y-93300385D01*
X105542418Y-93541148D01*
X105848852Y-93847582D01*
X106089616Y-94207911D01*
X106255456Y-94608285D01*
X106340000Y-95033318D01*
X106340000Y-95466682D01*
X106255456Y-95891715D01*
X106089616Y-96292089D01*
X106089615Y-96292091D01*
X105848852Y-96652418D01*
X105542418Y-96958852D01*
X105182091Y-97199615D01*
X105182090Y-97199616D01*
X105182089Y-97199616D01*
X104781715Y-97365456D01*
X104356682Y-97450000D01*
X103923318Y-97450000D01*
X103498285Y-97365456D01*
X103097911Y-97199616D01*
X103097910Y-97199616D01*
X103097909Y-97199615D01*
X102737582Y-96958852D01*
X102431148Y-96652418D01*
X102190385Y-96292091D01*
X102190384Y-96292089D01*
X102024544Y-95891715D01*
X101940000Y-95466682D01*
X101940000Y-95033318D01*
X102024544Y-94608285D01*
X102190384Y-94207911D01*
X102431148Y-93847582D01*
X102737582Y-93541148D01*
X103097909Y-93300385D01*
X103097911Y-93300384D01*
X103498285Y-93134544D01*
X103923318Y-93050000D01*
X104356682Y-93050000D01*
X104781715Y-93134544D01*
X104781715Y-93134544D01*
G37*
G36*
X119508687Y-94205027D02*
G01*
X119686274Y-94240350D01*
X119877362Y-94319502D01*
X120049336Y-94434411D01*
X120195589Y-94580664D01*
X120310498Y-94752638D01*
X120389650Y-94943726D01*
X120430000Y-95146584D01*
X120430000Y-95353416D01*
X120389650Y-95556274D01*
X120310498Y-95747362D01*
X120195589Y-95919336D01*
X120049336Y-96065589D01*
X119877362Y-96180498D01*
X119686274Y-96259650D01*
X119523188Y-96292089D01*
X119483417Y-96300000D01*
X119276583Y-96300000D01*
X119236812Y-96292089D01*
X119073726Y-96259650D01*
X118882638Y-96180498D01*
X118710664Y-96065589D01*
X118564411Y-95919336D01*
X118449502Y-95747362D01*
X118370350Y-95556274D01*
X118330000Y-95353416D01*
X118330000Y-95146584D01*
X118370350Y-94943726D01*
X118449502Y-94752638D01*
X118564411Y-94580664D01*
X118710664Y-94434411D01*
X118882638Y-94319502D01*
X119073726Y-94240350D01*
X119251313Y-94205027D01*
X119276583Y-94200000D01*
X119483417Y-94200000D01*
X119508687Y-94205027D01*
X119508687Y-94205027D01*
G37*
G36*
X58548687Y-94205027D02*
G01*
X58726274Y-94240350D01*
X58917362Y-94319502D01*
X59089336Y-94434411D01*
X59235589Y-94580664D01*
X59350498Y-94752638D01*
X59429650Y-94943726D01*
X59470000Y-95146584D01*
X59470000Y-95353416D01*
X59429650Y-95556274D01*
X59350498Y-95747362D01*
X59235589Y-95919336D01*
X59089336Y-96065589D01*
X58917362Y-96180498D01*
X58726274Y-96259650D01*
X58563188Y-96292089D01*
X58523417Y-96300000D01*
X58316583Y-96300000D01*
X58276812Y-96292089D01*
X58113726Y-96259650D01*
X57922638Y-96180498D01*
X57750664Y-96065589D01*
X57604411Y-95919336D01*
X57489502Y-95747362D01*
X57410350Y-95556274D01*
X57370000Y-95353416D01*
X57370000Y-95146584D01*
X57410350Y-94943726D01*
X57489502Y-94752638D01*
X57604411Y-94580664D01*
X57750664Y-94434411D01*
X57922638Y-94319502D01*
X58113726Y-94240350D01*
X58291313Y-94205027D01*
X58316583Y-94200000D01*
X58523417Y-94200000D01*
X58548687Y-94205027D01*
X58548687Y-94205027D01*
G37*
G36*
X68708687Y-94205027D02*
G01*
X68886274Y-94240350D01*
X69077362Y-94319502D01*
X69249336Y-94434411D01*
X69395589Y-94580664D01*
X69510498Y-94752638D01*
X69589650Y-94943726D01*
X69630000Y-95146584D01*
X69630000Y-95353416D01*
X69589650Y-95556274D01*
X69510498Y-95747362D01*
X69395589Y-95919336D01*
X69249336Y-96065589D01*
X69077362Y-96180498D01*
X68886274Y-96259650D01*
X68723188Y-96292089D01*
X68683417Y-96300000D01*
X68476583Y-96300000D01*
X68436812Y-96292089D01*
X68273726Y-96259650D01*
X68082638Y-96180498D01*
X67910664Y-96065589D01*
X67764411Y-95919336D01*
X67649502Y-95747362D01*
X67570350Y-95556274D01*
X67530000Y-95353416D01*
X67530000Y-95146584D01*
X67570350Y-94943726D01*
X67649502Y-94752638D01*
X67764411Y-94580664D01*
X67910664Y-94434411D01*
X68082638Y-94319502D01*
X68273726Y-94240350D01*
X68451313Y-94205027D01*
X68476583Y-94200000D01*
X68683417Y-94200000D01*
X68708687Y-94205027D01*
X68708687Y-94205027D01*
G37*
G36*
X89028687Y-94205027D02*
G01*
X89206274Y-94240350D01*
X89397362Y-94319502D01*
X89569336Y-94434411D01*
X89715589Y-94580664D01*
X89830498Y-94752638D01*
X89909650Y-94943726D01*
X89950000Y-95146584D01*
X89950000Y-95353416D01*
X89909650Y-95556274D01*
X89830498Y-95747362D01*
X89715589Y-95919336D01*
X89569336Y-96065589D01*
X89397362Y-96180498D01*
X89206274Y-96259650D01*
X89043188Y-96292089D01*
X89003417Y-96300000D01*
X88796583Y-96300000D01*
X88756812Y-96292089D01*
X88593726Y-96259650D01*
X88402638Y-96180498D01*
X88230664Y-96065589D01*
X88084411Y-95919336D01*
X87969502Y-95747362D01*
X87890350Y-95556274D01*
X87850000Y-95353416D01*
X87850000Y-95146584D01*
X87890350Y-94943726D01*
X87969502Y-94752638D01*
X88084411Y-94580664D01*
X88230664Y-94434411D01*
X88402638Y-94319502D01*
X88593726Y-94240350D01*
X88771313Y-94205027D01*
X88796583Y-94200000D01*
X89003417Y-94200000D01*
X89028687Y-94205027D01*
X89028687Y-94205027D01*
G37*
G36*
X78868687Y-94205027D02*
G01*
X79046274Y-94240350D01*
X79237362Y-94319502D01*
X79409336Y-94434411D01*
X79555589Y-94580664D01*
X79670498Y-94752638D01*
X79749650Y-94943726D01*
X79790000Y-95146584D01*
X79790000Y-95353416D01*
X79749650Y-95556274D01*
X79670498Y-95747362D01*
X79555589Y-95919336D01*
X79409336Y-96065589D01*
X79237362Y-96180498D01*
X79046274Y-96259650D01*
X78883188Y-96292089D01*
X78843417Y-96300000D01*
X78636583Y-96300000D01*
X78596812Y-96292089D01*
X78433726Y-96259650D01*
X78242638Y-96180498D01*
X78070664Y-96065589D01*
X77924411Y-95919336D01*
X77809502Y-95747362D01*
X77730350Y-95556274D01*
X77690000Y-95353416D01*
X77690000Y-95146584D01*
X77730350Y-94943726D01*
X77809502Y-94752638D01*
X77924411Y-94580664D01*
X78070664Y-94434411D01*
X78242638Y-94319502D01*
X78433726Y-94240350D01*
X78611313Y-94205027D01*
X78636583Y-94200000D01*
X78843417Y-94200000D01*
X78868687Y-94205027D01*
X78868687Y-94205027D01*
G37*
G36*
X99188687Y-94205027D02*
G01*
X99366274Y-94240350D01*
X99557362Y-94319502D01*
X99729336Y-94434411D01*
X99875589Y-94580664D01*
X99990498Y-94752638D01*
X100069650Y-94943726D01*
X100110000Y-95146584D01*
X100110000Y-95353416D01*
X100069650Y-95556274D01*
X99990498Y-95747362D01*
X99875589Y-95919336D01*
X99729336Y-96065589D01*
X99557362Y-96180498D01*
X99366274Y-96259650D01*
X99203188Y-96292089D01*
X99163417Y-96300000D01*
X98956583Y-96300000D01*
X98916812Y-96292089D01*
X98753726Y-96259650D01*
X98562638Y-96180498D01*
X98390664Y-96065589D01*
X98244411Y-95919336D01*
X98129502Y-95747362D01*
X98050350Y-95556274D01*
X98010000Y-95353416D01*
X98010000Y-95146584D01*
X98050350Y-94943726D01*
X98129502Y-94752638D01*
X98244411Y-94580664D01*
X98390664Y-94434411D01*
X98562638Y-94319502D01*
X98753726Y-94240350D01*
X98931313Y-94205027D01*
X98956583Y-94200000D01*
X99163417Y-94200000D01*
X99188687Y-94205027D01*
X99188687Y-94205027D01*
G37*
G36*
X109348687Y-94205027D02*
G01*
X109526274Y-94240350D01*
X109717362Y-94319502D01*
X109889336Y-94434411D01*
X110035589Y-94580664D01*
X110150498Y-94752638D01*
X110229650Y-94943726D01*
X110270000Y-95146584D01*
X110270000Y-95353416D01*
X110229650Y-95556274D01*
X110150498Y-95747362D01*
X110035589Y-95919336D01*
X109889336Y-96065589D01*
X109717362Y-96180498D01*
X109526274Y-96259650D01*
X109363188Y-96292089D01*
X109323417Y-96300000D01*
X109116583Y-96300000D01*
X109076812Y-96292089D01*
X108913726Y-96259650D01*
X108722638Y-96180498D01*
X108550664Y-96065589D01*
X108404411Y-95919336D01*
X108289502Y-95747362D01*
X108210350Y-95556274D01*
X108170000Y-95353416D01*
X108170000Y-95146584D01*
X108210350Y-94943726D01*
X108289502Y-94752638D01*
X108404411Y-94580664D01*
X108550664Y-94434411D01*
X108722638Y-94319502D01*
X108913726Y-94240350D01*
X109091313Y-94205027D01*
X109116583Y-94200000D01*
X109323417Y-94200000D01*
X109348687Y-94205027D01*
X109348687Y-94205027D01*
G37*
G36*
X129668687Y-94205027D02*
G01*
X129846274Y-94240350D01*
X130037362Y-94319502D01*
X130209336Y-94434411D01*
X130355589Y-94580664D01*
X130470498Y-94752638D01*
X130549650Y-94943726D01*
X130590000Y-95146584D01*
X130590000Y-95353416D01*
X130549650Y-95556274D01*
X130470498Y-95747362D01*
X130355589Y-95919336D01*
X130209336Y-96065589D01*
X130037362Y-96180498D01*
X129846274Y-96259650D01*
X129683188Y-96292089D01*
X129643417Y-96300000D01*
X129436583Y-96300000D01*
X129396812Y-96292089D01*
X129233726Y-96259650D01*
X129042638Y-96180498D01*
X128870664Y-96065589D01*
X128724411Y-95919336D01*
X128609502Y-95747362D01*
X128530350Y-95556274D01*
X128490000Y-95353416D01*
X128490000Y-95146584D01*
X128530350Y-94943726D01*
X128609502Y-94752638D01*
X128724411Y-94580664D01*
X128870664Y-94434411D01*
X129042638Y-94319502D01*
X129233726Y-94240350D01*
X129411313Y-94205027D01*
X129436583Y-94200000D01*
X129643417Y-94200000D01*
X129668687Y-94205027D01*
X129668687Y-94205027D01*
G37*
G36*
X64966032Y-75214469D02*
G01*
X65060284Y-75243060D01*
X65154535Y-75271651D01*
X65154537Y-75271652D01*
X65328258Y-75364507D01*
X65480528Y-75489472D01*
X65605493Y-75641742D01*
X65698348Y-75815463D01*
X65755531Y-76003968D01*
X65774838Y-76200000D01*
X65755531Y-76396032D01*
X65698348Y-76584537D01*
X65605493Y-76758258D01*
X65480528Y-76910528D01*
X65328258Y-77035493D01*
X65154537Y-77128348D01*
X65154535Y-77128349D01*
X65060284Y-77156940D01*
X64966032Y-77185531D01*
X64819124Y-77200000D01*
X64720876Y-77200000D01*
X64573968Y-77185531D01*
X64479716Y-77156940D01*
X64385465Y-77128349D01*
X64385463Y-77128348D01*
X64211742Y-77035493D01*
X64059472Y-76910528D01*
X63934507Y-76758258D01*
X63841652Y-76584537D01*
X63784469Y-76396032D01*
X63765162Y-76200000D01*
X63784469Y-76003968D01*
X63841652Y-75815463D01*
X63934507Y-75641742D01*
X64059472Y-75489472D01*
X64211742Y-75364507D01*
X64385463Y-75271652D01*
X64385465Y-75271651D01*
X64479716Y-75243060D01*
X64573968Y-75214469D01*
X64720876Y-75200000D01*
X64819124Y-75200000D01*
X64966032Y-75214469D01*
X64966032Y-75214469D01*
G37*
G36*
X131006032Y-75214469D02*
G01*
X131100284Y-75243060D01*
X131194535Y-75271651D01*
X131194537Y-75271652D01*
X131368258Y-75364507D01*
X131520528Y-75489472D01*
X131645493Y-75641742D01*
X131738348Y-75815463D01*
X131795531Y-76003968D01*
X131814838Y-76200000D01*
X131795531Y-76396032D01*
X131738348Y-76584537D01*
X131645493Y-76758258D01*
X131520528Y-76910528D01*
X131368258Y-77035493D01*
X131194537Y-77128348D01*
X131194535Y-77128349D01*
X131100284Y-77156940D01*
X131006032Y-77185531D01*
X130859124Y-77200000D01*
X130760876Y-77200000D01*
X130613968Y-77185531D01*
X130519716Y-77156940D01*
X130425465Y-77128349D01*
X130425463Y-77128348D01*
X130251742Y-77035493D01*
X130099472Y-76910528D01*
X129974507Y-76758258D01*
X129881652Y-76584537D01*
X129824469Y-76396032D01*
X129805162Y-76200000D01*
X129824469Y-76003968D01*
X129881652Y-75815463D01*
X129974507Y-75641742D01*
X130099472Y-75489472D01*
X130251742Y-75364507D01*
X130425463Y-75271652D01*
X130425465Y-75271651D01*
X130519716Y-75243060D01*
X130613968Y-75214469D01*
X130760876Y-75200000D01*
X130859124Y-75200000D01*
X131006032Y-75214469D01*
X131006032Y-75214469D01*
G37*
G36*
X123386032Y-75214469D02*
G01*
X123480284Y-75243060D01*
X123574535Y-75271651D01*
X123574537Y-75271652D01*
X123748258Y-75364507D01*
X123900528Y-75489472D01*
X124025493Y-75641742D01*
X124118348Y-75815463D01*
X124175531Y-76003968D01*
X124194838Y-76200000D01*
X124175531Y-76396032D01*
X124118348Y-76584537D01*
X124025493Y-76758258D01*
X123900528Y-76910528D01*
X123748258Y-77035493D01*
X123574537Y-77128348D01*
X123574535Y-77128349D01*
X123480284Y-77156940D01*
X123386032Y-77185531D01*
X123239124Y-77200000D01*
X123140876Y-77200000D01*
X122993968Y-77185531D01*
X122899716Y-77156940D01*
X122805465Y-77128349D01*
X122805463Y-77128348D01*
X122631742Y-77035493D01*
X122479472Y-76910528D01*
X122354507Y-76758258D01*
X122261652Y-76584537D01*
X122204469Y-76396032D01*
X122185162Y-76200000D01*
X122204469Y-76003968D01*
X122261652Y-75815463D01*
X122354507Y-75641742D01*
X122479472Y-75489472D01*
X122631742Y-75364507D01*
X122805463Y-75271652D01*
X122805465Y-75271651D01*
X122899716Y-75243060D01*
X122993968Y-75214469D01*
X123140876Y-75200000D01*
X123239124Y-75200000D01*
X123386032Y-75214469D01*
X123386032Y-75214469D01*
G37*
G36*
X57346032Y-75214469D02*
G01*
X57440284Y-75243060D01*
X57534535Y-75271651D01*
X57534537Y-75271652D01*
X57708258Y-75364507D01*
X57860528Y-75489472D01*
X57985493Y-75641742D01*
X58078348Y-75815463D01*
X58135531Y-76003968D01*
X58154838Y-76200000D01*
X58135531Y-76396032D01*
X58078348Y-76584537D01*
X57985493Y-76758258D01*
X57860528Y-76910528D01*
X57708258Y-77035493D01*
X57534537Y-77128348D01*
X57534535Y-77128349D01*
X57440284Y-77156940D01*
X57346032Y-77185531D01*
X57199124Y-77200000D01*
X57100876Y-77200000D01*
X56953968Y-77185531D01*
X56859716Y-77156940D01*
X56765465Y-77128349D01*
X56765463Y-77128348D01*
X56591742Y-77035493D01*
X56439472Y-76910528D01*
X56314507Y-76758258D01*
X56221652Y-76584537D01*
X56164469Y-76396032D01*
X56145162Y-76200000D01*
X56164469Y-76003968D01*
X56221652Y-75815463D01*
X56314507Y-75641742D01*
X56439472Y-75489472D01*
X56591742Y-75364507D01*
X56765463Y-75271652D01*
X56765465Y-75271651D01*
X56859716Y-75243060D01*
X56953968Y-75214469D01*
X57100876Y-75200000D01*
X57199124Y-75200000D01*
X57346032Y-75214469D01*
X57346032Y-75214469D01*
G37*
G36*
X131006032Y-72674469D02*
G01*
X131100284Y-72703060D01*
X131194535Y-72731651D01*
X131194537Y-72731652D01*
X131368258Y-72824507D01*
X131520528Y-72949472D01*
X131645493Y-73101742D01*
X131738348Y-73275463D01*
X131795531Y-73463968D01*
X131814838Y-73660000D01*
X131795531Y-73856032D01*
X131738348Y-74044537D01*
X131645493Y-74218258D01*
X131520528Y-74370528D01*
X131368258Y-74495493D01*
X131194537Y-74588348D01*
X131194535Y-74588349D01*
X131100285Y-74616939D01*
X131006032Y-74645531D01*
X130859124Y-74660000D01*
X130760876Y-74660000D01*
X130613968Y-74645531D01*
X130519715Y-74616939D01*
X130425465Y-74588349D01*
X130425463Y-74588348D01*
X130251742Y-74495493D01*
X130099472Y-74370528D01*
X129974507Y-74218258D01*
X129881652Y-74044537D01*
X129824469Y-73856032D01*
X129805162Y-73660000D01*
X129824469Y-73463968D01*
X129881652Y-73275463D01*
X129974507Y-73101742D01*
X130099472Y-72949472D01*
X130251742Y-72824507D01*
X130425463Y-72731652D01*
X130425465Y-72731651D01*
X130519715Y-72703061D01*
X130613968Y-72674469D01*
X130760876Y-72660000D01*
X130859124Y-72660000D01*
X131006032Y-72674469D01*
X131006032Y-72674469D01*
G37*
G36*
X123386032Y-72674469D02*
G01*
X123480284Y-72703060D01*
X123574535Y-72731651D01*
X123574537Y-72731652D01*
X123748258Y-72824507D01*
X123900528Y-72949472D01*
X124025493Y-73101742D01*
X124118348Y-73275463D01*
X124175531Y-73463968D01*
X124194838Y-73660000D01*
X124175531Y-73856032D01*
X124118348Y-74044537D01*
X124025493Y-74218258D01*
X123900528Y-74370528D01*
X123748258Y-74495493D01*
X123574537Y-74588348D01*
X123574535Y-74588349D01*
X123480285Y-74616939D01*
X123386032Y-74645531D01*
X123239124Y-74660000D01*
X123140876Y-74660000D01*
X122993968Y-74645531D01*
X122899715Y-74616939D01*
X122805465Y-74588349D01*
X122805463Y-74588348D01*
X122631742Y-74495493D01*
X122479472Y-74370528D01*
X122354507Y-74218258D01*
X122261652Y-74044537D01*
X122204469Y-73856032D01*
X122185162Y-73660000D01*
X122204469Y-73463968D01*
X122261652Y-73275463D01*
X122354507Y-73101742D01*
X122479472Y-72949472D01*
X122631742Y-72824507D01*
X122805463Y-72731652D01*
X122805465Y-72731651D01*
X122899715Y-72703061D01*
X122993968Y-72674469D01*
X123140876Y-72660000D01*
X123239124Y-72660000D01*
X123386032Y-72674469D01*
X123386032Y-72674469D01*
G37*
G36*
X64966032Y-72674469D02*
G01*
X65060284Y-72703060D01*
X65154535Y-72731651D01*
X65154537Y-72731652D01*
X65328258Y-72824507D01*
X65480528Y-72949472D01*
X65605493Y-73101742D01*
X65698348Y-73275463D01*
X65755531Y-73463968D01*
X65774838Y-73660000D01*
X65755531Y-73856032D01*
X65698348Y-74044537D01*
X65605493Y-74218258D01*
X65480528Y-74370528D01*
X65328258Y-74495493D01*
X65154537Y-74588348D01*
X65154535Y-74588349D01*
X65060285Y-74616939D01*
X64966032Y-74645531D01*
X64819124Y-74660000D01*
X64720876Y-74660000D01*
X64573968Y-74645531D01*
X64479715Y-74616939D01*
X64385465Y-74588349D01*
X64385463Y-74588348D01*
X64211742Y-74495493D01*
X64059472Y-74370528D01*
X63934507Y-74218258D01*
X63841652Y-74044537D01*
X63784469Y-73856032D01*
X63765162Y-73660000D01*
X63784469Y-73463968D01*
X63841652Y-73275463D01*
X63934507Y-73101742D01*
X64059472Y-72949472D01*
X64211742Y-72824507D01*
X64385463Y-72731652D01*
X64385465Y-72731651D01*
X64479715Y-72703061D01*
X64573968Y-72674469D01*
X64720876Y-72660000D01*
X64819124Y-72660000D01*
X64966032Y-72674469D01*
X64966032Y-72674469D01*
G37*
G36*
X57346032Y-72674469D02*
G01*
X57440284Y-72703060D01*
X57534535Y-72731651D01*
X57534537Y-72731652D01*
X57708258Y-72824507D01*
X57860528Y-72949472D01*
X57985493Y-73101742D01*
X58078348Y-73275463D01*
X58135531Y-73463968D01*
X58154838Y-73660000D01*
X58135531Y-73856032D01*
X58078348Y-74044537D01*
X57985493Y-74218258D01*
X57860528Y-74370528D01*
X57708258Y-74495493D01*
X57534537Y-74588348D01*
X57534535Y-74588349D01*
X57440285Y-74616939D01*
X57346032Y-74645531D01*
X57199124Y-74660000D01*
X57100876Y-74660000D01*
X56953968Y-74645531D01*
X56859715Y-74616939D01*
X56765465Y-74588349D01*
X56765463Y-74588348D01*
X56591742Y-74495493D01*
X56439472Y-74370528D01*
X56314507Y-74218258D01*
X56221652Y-74044537D01*
X56164469Y-73856032D01*
X56145162Y-73660000D01*
X56164469Y-73463968D01*
X56221652Y-73275463D01*
X56314507Y-73101742D01*
X56439472Y-72949472D01*
X56591742Y-72824507D01*
X56765463Y-72731652D01*
X56765465Y-72731651D01*
X56859715Y-72703061D01*
X56953968Y-72674469D01*
X57100876Y-72660000D01*
X57199124Y-72660000D01*
X57346032Y-72674469D01*
X57346032Y-72674469D01*
G37*
G36*
X65770000Y-72120000D02*
G01*
X63770000Y-72120000D01*
X63770000Y-70120000D01*
X65770000Y-70120000D01*
X65770000Y-72120000D01*
X65770000Y-72120000D01*
G37*
G36*
X131810000Y-72120000D02*
G01*
X129810000Y-72120000D01*
X129810000Y-70120000D01*
X131810000Y-70120000D01*
X131810000Y-72120000D01*
X131810000Y-72120000D01*
G37*
G36*
X123386032Y-70134469D02*
G01*
X123480284Y-70163060D01*
X123574535Y-70191651D01*
X123574537Y-70191652D01*
X123748258Y-70284507D01*
X123900528Y-70409472D01*
X124025493Y-70561742D01*
X124118348Y-70735463D01*
X124175531Y-70923968D01*
X124194838Y-71120000D01*
X124175531Y-71316032D01*
X124118348Y-71504537D01*
X124025493Y-71678258D01*
X123900528Y-71830528D01*
X123748258Y-71955493D01*
X123574537Y-72048348D01*
X123574535Y-72048349D01*
X123480284Y-72076940D01*
X123386032Y-72105531D01*
X123239124Y-72120000D01*
X123140876Y-72120000D01*
X122993968Y-72105531D01*
X122899715Y-72076939D01*
X122805465Y-72048349D01*
X122805463Y-72048348D01*
X122631742Y-71955493D01*
X122479472Y-71830528D01*
X122354507Y-71678258D01*
X122261652Y-71504537D01*
X122204469Y-71316032D01*
X122185162Y-71120000D01*
X122204469Y-70923968D01*
X122261652Y-70735463D01*
X122354507Y-70561742D01*
X122479472Y-70409472D01*
X122631742Y-70284507D01*
X122805463Y-70191652D01*
X122805465Y-70191651D01*
X122899716Y-70163060D01*
X122993968Y-70134469D01*
X123140876Y-70120000D01*
X123239124Y-70120000D01*
X123386032Y-70134469D01*
X123386032Y-70134469D01*
G37*
G36*
X57346032Y-70134469D02*
G01*
X57440284Y-70163060D01*
X57534535Y-70191651D01*
X57534537Y-70191652D01*
X57708258Y-70284507D01*
X57860528Y-70409472D01*
X57985493Y-70561742D01*
X58078348Y-70735463D01*
X58135531Y-70923968D01*
X58154838Y-71120000D01*
X58135531Y-71316032D01*
X58078348Y-71504537D01*
X57985493Y-71678258D01*
X57860528Y-71830528D01*
X57708258Y-71955493D01*
X57534537Y-72048348D01*
X57534535Y-72048349D01*
X57440284Y-72076940D01*
X57346032Y-72105531D01*
X57199124Y-72120000D01*
X57100876Y-72120000D01*
X56953968Y-72105531D01*
X56859715Y-72076939D01*
X56765465Y-72048349D01*
X56765463Y-72048348D01*
X56591742Y-71955493D01*
X56439472Y-71830528D01*
X56314507Y-71678258D01*
X56221652Y-71504537D01*
X56164469Y-71316032D01*
X56145162Y-71120000D01*
X56164469Y-70923968D01*
X56221652Y-70735463D01*
X56314507Y-70561742D01*
X56439472Y-70409472D01*
X56591742Y-70284507D01*
X56765463Y-70191652D01*
X56765465Y-70191651D01*
X56859716Y-70163060D01*
X56953968Y-70134469D01*
X57100876Y-70120000D01*
X57199124Y-70120000D01*
X57346032Y-70134469D01*
X57346032Y-70134469D01*
G37*
G36*
X51151904Y-63662979D02*
G01*
X51500054Y-63732230D01*
X51936826Y-63913147D01*
X52329911Y-64175798D01*
X52664202Y-64510089D01*
X52926853Y-64903174D01*
X53107770Y-65339946D01*
X53162041Y-65612787D01*
X53200000Y-65803619D01*
X53200000Y-66276381D01*
X53177279Y-66390604D01*
X53107770Y-66740054D01*
X52926853Y-67176826D01*
X52664202Y-67569911D01*
X52329911Y-67904202D01*
X51936826Y-68166853D01*
X51500054Y-68347770D01*
X51151904Y-68417021D01*
X51036381Y-68440000D01*
X50563619Y-68440000D01*
X50448096Y-68417021D01*
X50099946Y-68347770D01*
X49663174Y-68166853D01*
X49270089Y-67904202D01*
X48935798Y-67569911D01*
X48673147Y-67176826D01*
X48492230Y-66740054D01*
X48422721Y-66390604D01*
X48400000Y-66276381D01*
X48400000Y-65803619D01*
X48437959Y-65612787D01*
X48492230Y-65339946D01*
X48673147Y-64903174D01*
X48935798Y-64510089D01*
X49270089Y-64175798D01*
X49663174Y-63913147D01*
X50099946Y-63732230D01*
X50448096Y-63662979D01*
X50563619Y-63640000D01*
X51036381Y-63640000D01*
X51151904Y-63662979D01*
X51151904Y-63662979D01*
G37*
G36*
X137511904Y-63662979D02*
G01*
X137860054Y-63732230D01*
X138296826Y-63913147D01*
X138689911Y-64175798D01*
X139024202Y-64510089D01*
X139286853Y-64903174D01*
X139467770Y-65339946D01*
X139522041Y-65612787D01*
X139560000Y-65803619D01*
X139560000Y-66276381D01*
X139537279Y-66390604D01*
X139467770Y-66740054D01*
X139286853Y-67176826D01*
X139024202Y-67569911D01*
X138689911Y-67904202D01*
X138296826Y-68166853D01*
X137860054Y-68347770D01*
X137511904Y-68417021D01*
X137396381Y-68440000D01*
X136923619Y-68440000D01*
X136808096Y-68417021D01*
X136459946Y-68347770D01*
X136023174Y-68166853D01*
X135630089Y-67904202D01*
X135295798Y-67569911D01*
X135033147Y-67176826D01*
X134852230Y-66740054D01*
X134782721Y-66390604D01*
X134760000Y-66276381D01*
X134760000Y-65803619D01*
X134797959Y-65612787D01*
X134852230Y-65339946D01*
X135033147Y-64903174D01*
X135295798Y-64510089D01*
X135630089Y-64175798D01*
X136023174Y-63913147D01*
X136459946Y-63732230D01*
X136808096Y-63662979D01*
X136923619Y-63640000D01*
X137396381Y-63640000D01*
X137511904Y-63662979D01*
X137511904Y-63662979D01*
G37*
M02*
