G04 #@! TF.GenerationSoftware,KiCad,Pcbnew,5.1.4+dfsg1-1*
G04 #@! TF.CreationDate,2020-01-15T10:00:44+00:00*
G04 #@! TF.ProjectId,chordboard,63686f72-6462-46f6-9172-642e6b696361,rev?*
G04 #@! TF.SameCoordinates,Original*
G04 #@! TF.FileFunction,Other,Fab,Bot*
%FSLAX46Y46*%
G04 Gerber Fmt 4.6, Leading zero omitted, Abs format (unit mm)*
G04 Created by KiCad (PCBNEW 5.1.4+dfsg1-1) date 2020-01-15 10:00:44*
%MOMM*%
%LPD*%
G04 APERTURE LIST*
%ADD10C,0.100000*%
%ADD11C,0.150000*%
G04 APERTURE END LIST*
D10*
X49100000Y-124790000D02*
X49100000Y-114890000D01*
X53600000Y-124790000D02*
X49100000Y-124790000D01*
X53600000Y-114890000D02*
X53600000Y-124790000D01*
X49100000Y-114890000D02*
X53600000Y-114890000D01*
X48690000Y-114480000D02*
X49940000Y-114480000D01*
X48690000Y-115730000D02*
X48690000Y-114480000D01*
X48690000Y-138590000D02*
X48690000Y-137340000D01*
X48690000Y-137340000D02*
X49940000Y-137340000D01*
X49100000Y-137750000D02*
X53600000Y-137750000D01*
X53600000Y-137750000D02*
X53600000Y-147650000D01*
X53600000Y-147650000D02*
X49100000Y-147650000D01*
X49100000Y-147650000D02*
X49100000Y-137750000D01*
X127676667Y-75565000D02*
X127676667Y-76835000D01*
X129030000Y-76765000D02*
X127676667Y-76765000D01*
X129030000Y-76665000D02*
X127676667Y-76665000D01*
X129030000Y-76565000D02*
X127676667Y-76565000D01*
X129030000Y-76465000D02*
X127676667Y-76465000D01*
X129030000Y-76365000D02*
X127676667Y-76365000D01*
X129030000Y-76265000D02*
X127676667Y-76265000D01*
X129030000Y-76165000D02*
X127676667Y-76165000D01*
X129030000Y-76065000D02*
X127676667Y-76065000D01*
X129030000Y-75965000D02*
X127676667Y-75965000D01*
X129030000Y-75865000D02*
X127676667Y-75865000D01*
X129030000Y-75765000D02*
X127676667Y-75765000D01*
X129030000Y-75665000D02*
X127676667Y-75665000D01*
X124970000Y-75565000D02*
X129030000Y-75565000D01*
X124970000Y-76835000D02*
X124970000Y-75565000D01*
X129030000Y-76835000D02*
X124970000Y-76835000D01*
X129030000Y-75565000D02*
X129030000Y-76835000D01*
X127676667Y-73025000D02*
X127676667Y-74295000D01*
X129030000Y-74225000D02*
X127676667Y-74225000D01*
X129030000Y-74125000D02*
X127676667Y-74125000D01*
X129030000Y-74025000D02*
X127676667Y-74025000D01*
X129030000Y-73925000D02*
X127676667Y-73925000D01*
X129030000Y-73825000D02*
X127676667Y-73825000D01*
X129030000Y-73725000D02*
X127676667Y-73725000D01*
X129030000Y-73625000D02*
X127676667Y-73625000D01*
X129030000Y-73525000D02*
X127676667Y-73525000D01*
X129030000Y-73425000D02*
X127676667Y-73425000D01*
X129030000Y-73325000D02*
X127676667Y-73325000D01*
X129030000Y-73225000D02*
X127676667Y-73225000D01*
X129030000Y-73125000D02*
X127676667Y-73125000D01*
X124970000Y-73025000D02*
X129030000Y-73025000D01*
X124970000Y-74295000D02*
X124970000Y-73025000D01*
X129030000Y-74295000D02*
X124970000Y-74295000D01*
X129030000Y-73025000D02*
X129030000Y-74295000D01*
X127676667Y-70485000D02*
X127676667Y-71755000D01*
X129030000Y-71685000D02*
X127676667Y-71685000D01*
X129030000Y-71585000D02*
X127676667Y-71585000D01*
X129030000Y-71485000D02*
X127676667Y-71485000D01*
X129030000Y-71385000D02*
X127676667Y-71385000D01*
X129030000Y-71285000D02*
X127676667Y-71285000D01*
X129030000Y-71185000D02*
X127676667Y-71185000D01*
X129030000Y-71085000D02*
X127676667Y-71085000D01*
X129030000Y-70985000D02*
X127676667Y-70985000D01*
X129030000Y-70885000D02*
X127676667Y-70885000D01*
X129030000Y-70785000D02*
X127676667Y-70785000D01*
X129030000Y-70685000D02*
X127676667Y-70685000D01*
X129030000Y-70585000D02*
X127676667Y-70585000D01*
X124970000Y-70485000D02*
X129030000Y-70485000D01*
X124970000Y-71755000D02*
X124970000Y-70485000D01*
X129030000Y-71755000D02*
X124970000Y-71755000D01*
X129030000Y-70485000D02*
X129030000Y-71755000D01*
X131890000Y-69760000D02*
X130890000Y-68760000D01*
X131890000Y-78560000D02*
X131890000Y-69760000D01*
X122110000Y-78560000D02*
X131890000Y-78560000D01*
X122110000Y-68760000D02*
X122110000Y-78560000D01*
X130890000Y-68760000D02*
X122110000Y-68760000D01*
X64850000Y-68760000D02*
X56070000Y-68760000D01*
X56070000Y-68760000D02*
X56070000Y-78560000D01*
X56070000Y-78560000D02*
X65850000Y-78560000D01*
X65850000Y-78560000D02*
X65850000Y-69760000D01*
X65850000Y-69760000D02*
X64850000Y-68760000D01*
X62990000Y-70485000D02*
X62990000Y-71755000D01*
X62990000Y-71755000D02*
X58930000Y-71755000D01*
X58930000Y-71755000D02*
X58930000Y-70485000D01*
X58930000Y-70485000D02*
X62990000Y-70485000D01*
X62990000Y-70585000D02*
X61636667Y-70585000D01*
X62990000Y-70685000D02*
X61636667Y-70685000D01*
X62990000Y-70785000D02*
X61636667Y-70785000D01*
X62990000Y-70885000D02*
X61636667Y-70885000D01*
X62990000Y-70985000D02*
X61636667Y-70985000D01*
X62990000Y-71085000D02*
X61636667Y-71085000D01*
X62990000Y-71185000D02*
X61636667Y-71185000D01*
X62990000Y-71285000D02*
X61636667Y-71285000D01*
X62990000Y-71385000D02*
X61636667Y-71385000D01*
X62990000Y-71485000D02*
X61636667Y-71485000D01*
X62990000Y-71585000D02*
X61636667Y-71585000D01*
X62990000Y-71685000D02*
X61636667Y-71685000D01*
X61636667Y-70485000D02*
X61636667Y-71755000D01*
X62990000Y-73025000D02*
X62990000Y-74295000D01*
X62990000Y-74295000D02*
X58930000Y-74295000D01*
X58930000Y-74295000D02*
X58930000Y-73025000D01*
X58930000Y-73025000D02*
X62990000Y-73025000D01*
X62990000Y-73125000D02*
X61636667Y-73125000D01*
X62990000Y-73225000D02*
X61636667Y-73225000D01*
X62990000Y-73325000D02*
X61636667Y-73325000D01*
X62990000Y-73425000D02*
X61636667Y-73425000D01*
X62990000Y-73525000D02*
X61636667Y-73525000D01*
X62990000Y-73625000D02*
X61636667Y-73625000D01*
X62990000Y-73725000D02*
X61636667Y-73725000D01*
X62990000Y-73825000D02*
X61636667Y-73825000D01*
X62990000Y-73925000D02*
X61636667Y-73925000D01*
X62990000Y-74025000D02*
X61636667Y-74025000D01*
X62990000Y-74125000D02*
X61636667Y-74125000D01*
X62990000Y-74225000D02*
X61636667Y-74225000D01*
X61636667Y-73025000D02*
X61636667Y-74295000D01*
X62990000Y-75565000D02*
X62990000Y-76835000D01*
X62990000Y-76835000D02*
X58930000Y-76835000D01*
X58930000Y-76835000D02*
X58930000Y-75565000D01*
X58930000Y-75565000D02*
X62990000Y-75565000D01*
X62990000Y-75665000D02*
X61636667Y-75665000D01*
X62990000Y-75765000D02*
X61636667Y-75765000D01*
X62990000Y-75865000D02*
X61636667Y-75865000D01*
X62990000Y-75965000D02*
X61636667Y-75965000D01*
X62990000Y-76065000D02*
X61636667Y-76065000D01*
X62990000Y-76165000D02*
X61636667Y-76165000D01*
X62990000Y-76265000D02*
X61636667Y-76265000D01*
X62990000Y-76365000D02*
X61636667Y-76365000D01*
X62990000Y-76465000D02*
X61636667Y-76465000D01*
X62990000Y-76565000D02*
X61636667Y-76565000D01*
X62990000Y-76665000D02*
X61636667Y-76665000D01*
X62990000Y-76765000D02*
X61636667Y-76765000D01*
X61636667Y-75565000D02*
X61636667Y-76835000D01*
D11*
X53038333Y-123912380D02*
X53038333Y-124626666D01*
X53085952Y-124769523D01*
X53181190Y-124864761D01*
X53324047Y-124912380D01*
X53419285Y-124912380D01*
X52609761Y-124007619D02*
X52562142Y-123960000D01*
X52466904Y-123912380D01*
X52228809Y-123912380D01*
X52133571Y-123960000D01*
X52085952Y-124007619D01*
X52038333Y-124102857D01*
X52038333Y-124198095D01*
X52085952Y-124340952D01*
X52657380Y-124912380D01*
X52038333Y-124912380D01*
X53038333Y-146772380D02*
X53038333Y-147486666D01*
X53085952Y-147629523D01*
X53181190Y-147724761D01*
X53324047Y-147772380D01*
X53419285Y-147772380D01*
X52657380Y-146772380D02*
X52038333Y-146772380D01*
X52371666Y-147153333D01*
X52228809Y-147153333D01*
X52133571Y-147200952D01*
X52085952Y-147248571D01*
X52038333Y-147343809D01*
X52038333Y-147581904D01*
X52085952Y-147677142D01*
X52133571Y-147724761D01*
X52228809Y-147772380D01*
X52514523Y-147772380D01*
X52609761Y-147724761D01*
X52657380Y-147677142D01*
M02*
