G04 #@! TF.GenerationSoftware,KiCad,Pcbnew,5.1.4+dfsg1-1*
G04 #@! TF.CreationDate,2020-01-15T10:00:44+00:00*
G04 #@! TF.ProjectId,chordboard,63686f72-6462-46f6-9172-642e6b696361,rev?*
G04 #@! TF.SameCoordinates,Original*
G04 #@! TF.FileFunction,Copper,L2,Bot*
G04 #@! TF.FilePolarity,Positive*
%FSLAX46Y46*%
G04 Gerber Fmt 4.6, Leading zero omitted, Abs format (unit mm)*
G04 Created by KiCad (PCBNEW 5.1.4+dfsg1-1) date 2020-01-15 10:00:44*
%MOMM*%
%LPD*%
G04 APERTURE LIST*
%ADD10O,1.750000X1.200000*%
%ADD11C,0.100000*%
%ADD12C,1.200000*%
%ADD13C,2.200000*%
%ADD14O,1.600000X1.600000*%
%ADD15R,1.600000X1.600000*%
%ADD16C,0.700000*%
%ADD17C,4.400000*%
%ADD18C,0.800000*%
%ADD19C,0.400000*%
%ADD20C,1.000000*%
G04 APERTURE END LIST*
D10*
X50800000Y-122840000D03*
X50800000Y-120840000D03*
X50800000Y-118840000D03*
D11*
G36*
X51449505Y-116241204D02*
G01*
X51473773Y-116244804D01*
X51497572Y-116250765D01*
X51520671Y-116259030D01*
X51542850Y-116269520D01*
X51563893Y-116282132D01*
X51583599Y-116296747D01*
X51601777Y-116313223D01*
X51618253Y-116331401D01*
X51632868Y-116351107D01*
X51645480Y-116372150D01*
X51655970Y-116394329D01*
X51664235Y-116417428D01*
X51670196Y-116441227D01*
X51673796Y-116465495D01*
X51675000Y-116489999D01*
X51675000Y-117190001D01*
X51673796Y-117214505D01*
X51670196Y-117238773D01*
X51664235Y-117262572D01*
X51655970Y-117285671D01*
X51645480Y-117307850D01*
X51632868Y-117328893D01*
X51618253Y-117348599D01*
X51601777Y-117366777D01*
X51583599Y-117383253D01*
X51563893Y-117397868D01*
X51542850Y-117410480D01*
X51520671Y-117420970D01*
X51497572Y-117429235D01*
X51473773Y-117435196D01*
X51449505Y-117438796D01*
X51425001Y-117440000D01*
X50174999Y-117440000D01*
X50150495Y-117438796D01*
X50126227Y-117435196D01*
X50102428Y-117429235D01*
X50079329Y-117420970D01*
X50057150Y-117410480D01*
X50036107Y-117397868D01*
X50016401Y-117383253D01*
X49998223Y-117366777D01*
X49981747Y-117348599D01*
X49967132Y-117328893D01*
X49954520Y-117307850D01*
X49944030Y-117285671D01*
X49935765Y-117262572D01*
X49929804Y-117238773D01*
X49926204Y-117214505D01*
X49925000Y-117190001D01*
X49925000Y-116489999D01*
X49926204Y-116465495D01*
X49929804Y-116441227D01*
X49935765Y-116417428D01*
X49944030Y-116394329D01*
X49954520Y-116372150D01*
X49967132Y-116351107D01*
X49981747Y-116331401D01*
X49998223Y-116313223D01*
X50016401Y-116296747D01*
X50036107Y-116282132D01*
X50057150Y-116269520D01*
X50079329Y-116259030D01*
X50102428Y-116250765D01*
X50126227Y-116244804D01*
X50150495Y-116241204D01*
X50174999Y-116240000D01*
X51425001Y-116240000D01*
X51449505Y-116241204D01*
X51449505Y-116241204D01*
G37*
D12*
X50800000Y-116840000D03*
D11*
G36*
X51449505Y-139101204D02*
G01*
X51473773Y-139104804D01*
X51497572Y-139110765D01*
X51520671Y-139119030D01*
X51542850Y-139129520D01*
X51563893Y-139142132D01*
X51583599Y-139156747D01*
X51601777Y-139173223D01*
X51618253Y-139191401D01*
X51632868Y-139211107D01*
X51645480Y-139232150D01*
X51655970Y-139254329D01*
X51664235Y-139277428D01*
X51670196Y-139301227D01*
X51673796Y-139325495D01*
X51675000Y-139349999D01*
X51675000Y-140050001D01*
X51673796Y-140074505D01*
X51670196Y-140098773D01*
X51664235Y-140122572D01*
X51655970Y-140145671D01*
X51645480Y-140167850D01*
X51632868Y-140188893D01*
X51618253Y-140208599D01*
X51601777Y-140226777D01*
X51583599Y-140243253D01*
X51563893Y-140257868D01*
X51542850Y-140270480D01*
X51520671Y-140280970D01*
X51497572Y-140289235D01*
X51473773Y-140295196D01*
X51449505Y-140298796D01*
X51425001Y-140300000D01*
X50174999Y-140300000D01*
X50150495Y-140298796D01*
X50126227Y-140295196D01*
X50102428Y-140289235D01*
X50079329Y-140280970D01*
X50057150Y-140270480D01*
X50036107Y-140257868D01*
X50016401Y-140243253D01*
X49998223Y-140226777D01*
X49981747Y-140208599D01*
X49967132Y-140188893D01*
X49954520Y-140167850D01*
X49944030Y-140145671D01*
X49935765Y-140122572D01*
X49929804Y-140098773D01*
X49926204Y-140074505D01*
X49925000Y-140050001D01*
X49925000Y-139349999D01*
X49926204Y-139325495D01*
X49929804Y-139301227D01*
X49935765Y-139277428D01*
X49944030Y-139254329D01*
X49954520Y-139232150D01*
X49967132Y-139211107D01*
X49981747Y-139191401D01*
X49998223Y-139173223D01*
X50016401Y-139156747D01*
X50036107Y-139142132D01*
X50057150Y-139129520D01*
X50079329Y-139119030D01*
X50102428Y-139110765D01*
X50126227Y-139104804D01*
X50150495Y-139101204D01*
X50174999Y-139100000D01*
X51425001Y-139100000D01*
X51449505Y-139101204D01*
X51449505Y-139101204D01*
G37*
D12*
X50800000Y-139700000D03*
D10*
X50800000Y-141700000D03*
X50800000Y-143700000D03*
X50800000Y-145700000D03*
D13*
X67310000Y-170180000D03*
X60960000Y-172720000D03*
D14*
X123190000Y-71120000D03*
X130810000Y-76200000D03*
X123190000Y-73660000D03*
X130810000Y-73660000D03*
X123190000Y-76200000D03*
D15*
X130810000Y-71120000D03*
X64770000Y-71120000D03*
D14*
X57150000Y-76200000D03*
X64770000Y-73660000D03*
X57150000Y-73660000D03*
X64770000Y-76200000D03*
X57150000Y-71120000D03*
D16*
X138326726Y-64873274D03*
X137160000Y-64390000D03*
X135993274Y-64873274D03*
X135510000Y-66040000D03*
X135993274Y-67206726D03*
X137160000Y-67690000D03*
X138326726Y-67206726D03*
X138810000Y-66040000D03*
D17*
X137160000Y-66040000D03*
X137160000Y-175260000D03*
D16*
X138810000Y-175260000D03*
X138326726Y-176426726D03*
X137160000Y-176910000D03*
X135993274Y-176426726D03*
X135510000Y-175260000D03*
X135993274Y-174093274D03*
X137160000Y-173610000D03*
X138326726Y-174093274D03*
X51966726Y-64873274D03*
X50800000Y-64390000D03*
X49633274Y-64873274D03*
X49150000Y-66040000D03*
X49633274Y-67206726D03*
X50800000Y-67690000D03*
X51966726Y-67206726D03*
X52450000Y-66040000D03*
D17*
X50800000Y-66040000D03*
X50800000Y-175260000D03*
D16*
X52450000Y-175260000D03*
X51966726Y-176426726D03*
X50800000Y-176910000D03*
X49633274Y-176426726D03*
X49150000Y-175260000D03*
X49633274Y-174093274D03*
X50800000Y-173610000D03*
X51966726Y-174093274D03*
D13*
X81280000Y-172720000D03*
X87630000Y-170180000D03*
X107950000Y-170180000D03*
X101600000Y-172720000D03*
X121920000Y-172720000D03*
X128270000Y-170180000D03*
X67310000Y-146050000D03*
X60960000Y-148590000D03*
X81280000Y-148590000D03*
X87630000Y-146050000D03*
X107950000Y-146050000D03*
X101600000Y-148590000D03*
X121920000Y-148590000D03*
X128270000Y-146050000D03*
X67310000Y-121920000D03*
X60960000Y-124460000D03*
X81280000Y-124460000D03*
X87630000Y-121920000D03*
X107950000Y-121920000D03*
X101600000Y-124460000D03*
X121920000Y-124460000D03*
X128270000Y-121920000D03*
X67310000Y-97790000D03*
X60960000Y-100330000D03*
X81280000Y-100330000D03*
X87630000Y-97790000D03*
X107950000Y-97790000D03*
X101600000Y-100330000D03*
X121920000Y-100330000D03*
X128270000Y-97790000D03*
D18*
X76835000Y-74273900D03*
X71525500Y-73704200D03*
X53120200Y-125616000D03*
X92710000Y-152400000D03*
X90170000Y-152400000D03*
X87630000Y-152400000D03*
X85090000Y-152400000D03*
X82550000Y-152400000D03*
X80010000Y-152400000D03*
X77470000Y-152400000D03*
X74930000Y-152400000D03*
X72390000Y-152400000D03*
X69850000Y-152400000D03*
X67310000Y-152400000D03*
X64770000Y-152400000D03*
X62230000Y-152400000D03*
X59690000Y-152400000D03*
X57150000Y-152400000D03*
X54610000Y-152400000D03*
X77419900Y-101854900D03*
X111376300Y-112042300D03*
X133350000Y-152400000D03*
X130810000Y-152400000D03*
X128270000Y-152400000D03*
X125730000Y-152400000D03*
X123190000Y-152400000D03*
X120650000Y-152400000D03*
X118110000Y-152400000D03*
X115570000Y-152400000D03*
X113030000Y-152400000D03*
X110490000Y-152400000D03*
X107950000Y-152400000D03*
X105410000Y-152400000D03*
X102870000Y-152400000D03*
X100330000Y-152400000D03*
X97790000Y-152400000D03*
X95250000Y-152400000D03*
X54832600Y-116701300D03*
X92870700Y-116430300D03*
X79024100Y-64821900D03*
X96742600Y-156020500D03*
X58036500Y-157274500D03*
X80645000Y-65422200D03*
X58865000Y-129601000D03*
X99060000Y-129601000D03*
X81915000Y-65425900D03*
X60525900Y-76200000D03*
X102068600Y-153524600D03*
X68453500Y-156276800D03*
X82629500Y-69150200D03*
X66732243Y-75369143D03*
X83709400Y-69237700D03*
X66254300Y-77496300D03*
X65909900Y-133042200D03*
X102553300Y-135114700D03*
X85810600Y-70724300D03*
X73576000Y-73381200D03*
X106865100Y-131821500D03*
X68394600Y-132845500D03*
X87157200Y-70235900D03*
X71777200Y-77664400D03*
X69850000Y-136442800D03*
X109663200Y-136442800D03*
X112205000Y-89063200D03*
X72763200Y-90284300D03*
X88265000Y-68771600D03*
X74584800Y-72551800D03*
X74930000Y-93232000D03*
X115570000Y-92265300D03*
X76412400Y-78343900D03*
X89535000Y-69956100D03*
X90824900Y-64757100D03*
X132830400Y-71255500D03*
X76645000Y-113353600D03*
X117285000Y-113691400D03*
X80010000Y-133509300D03*
X119160200Y-132823500D03*
X88850200Y-84610600D03*
X81515600Y-84610600D03*
X86360000Y-83810300D03*
X122298400Y-87429100D03*
X123101500Y-88380400D03*
X87630000Y-85457400D03*
X98161700Y-85457400D03*
X88265000Y-74841600D03*
X130810000Y-116683200D03*
X90170000Y-115854400D03*
X133350000Y-89063200D03*
X93106700Y-114140400D03*
X99563400Y-74568000D03*
X79123800Y-84898600D03*
X73213200Y-99521600D03*
X92710000Y-128270000D03*
X90170000Y-128270000D03*
X87630000Y-128270000D03*
X85090000Y-128270000D03*
X82550000Y-128270000D03*
X80010000Y-128270000D03*
X77470000Y-128270000D03*
X74930000Y-128270000D03*
X72390000Y-128270000D03*
X69850000Y-128270000D03*
X67310000Y-128270000D03*
X64770000Y-128270000D03*
X62230000Y-128270000D03*
X59690000Y-128270000D03*
X57150000Y-128270000D03*
X54610000Y-128270000D03*
X97762100Y-72343700D03*
X133350000Y-128270000D03*
X130810000Y-128270000D03*
X128270000Y-128270000D03*
X125730000Y-128270000D03*
X123190000Y-128270000D03*
X120650000Y-128270000D03*
X118110000Y-128270000D03*
X115570000Y-128270000D03*
X113030000Y-128270000D03*
X110490000Y-128270000D03*
X107950000Y-128270000D03*
X105410000Y-128270000D03*
X102870000Y-128270000D03*
X100330000Y-128270000D03*
X97790000Y-128270000D03*
X95250000Y-128270000D03*
X81219800Y-78592200D03*
X92710000Y-104140000D03*
X90170000Y-104140000D03*
X87630000Y-104140000D03*
X85090000Y-104140000D03*
X82550000Y-104140000D03*
X80010000Y-104140000D03*
X77470000Y-104140000D03*
X74930000Y-104140000D03*
X72390000Y-104140000D03*
X69850000Y-104140000D03*
X67310000Y-104140000D03*
X64770000Y-104140000D03*
X62230000Y-104140000D03*
X59690000Y-104140000D03*
X54610000Y-104140000D03*
X57150000Y-104140000D03*
X81317100Y-82142900D03*
X123190000Y-104140000D03*
X120650000Y-104140000D03*
X133350000Y-104140000D03*
X130810000Y-104140000D03*
X128270000Y-104140000D03*
X125730000Y-104140000D03*
X118110000Y-104140000D03*
X115570000Y-104140000D03*
X113030000Y-104140000D03*
X110490000Y-104140000D03*
X107950000Y-104140000D03*
X105410000Y-104140000D03*
X102870000Y-104140000D03*
X100330000Y-104140000D03*
X97790000Y-104140000D03*
X95250000Y-104140000D03*
X92710000Y-80645000D03*
X90170000Y-80645000D03*
X87630000Y-80645000D03*
X85090000Y-80645000D03*
X82550000Y-80645000D03*
X80010000Y-80645000D03*
X77470000Y-80645000D03*
X74930000Y-80645000D03*
X72390000Y-80645000D03*
X69850000Y-80645000D03*
X67310000Y-80645000D03*
X64770000Y-80645000D03*
X62230000Y-80645000D03*
X59690000Y-80645000D03*
X57150000Y-80645000D03*
X54610000Y-80645000D03*
X99056100Y-73517800D03*
X133350000Y-80645000D03*
X130810000Y-80645000D03*
X128270000Y-80645000D03*
X125730000Y-80645000D03*
X123190000Y-80645000D03*
X120650000Y-80645000D03*
X118110000Y-80645000D03*
X115570000Y-80645000D03*
X113030000Y-80645000D03*
X110490000Y-80645000D03*
X107950000Y-80645000D03*
X105410000Y-80645000D03*
X102870000Y-80645000D03*
X100330000Y-80645000D03*
X97790000Y-80645000D03*
X95250000Y-80645000D03*
X116612400Y-97790000D03*
X73660000Y-97790000D03*
X112395000Y-72585700D03*
X79786700Y-64116600D03*
X113832600Y-73386100D03*
X94173900Y-67052500D03*
X74651500Y-67534400D03*
X113779400Y-70691800D03*
X93181600Y-74549000D03*
X72638400Y-78507700D03*
X108740200Y-65333000D03*
X110005500Y-69236800D03*
X102478000Y-78345800D03*
X97100000Y-79272300D03*
X96188600Y-148220200D03*
X111020400Y-70309500D03*
X98561100Y-117180000D03*
X93155000Y-120047700D03*
X113856200Y-112340700D03*
X109220000Y-82142900D03*
X107143800Y-68746600D03*
X105075900Y-72717500D03*
X95247400Y-78905400D03*
X91027500Y-124402900D03*
X105224000Y-70850200D03*
X104423300Y-71683200D03*
X102235000Y-68765200D03*
X72696200Y-72516500D03*
X66077100Y-82142900D03*
X100724300Y-69365600D03*
X99410500Y-69954800D03*
X94744500Y-77132400D03*
X94090400Y-100330000D03*
X98613800Y-70759900D03*
X98995100Y-78137800D03*
X112776600Y-79507000D03*
X114300000Y-82105000D03*
X134331200Y-95991200D03*
D19*
X76835000Y-74273900D02*
X72095200Y-74273900D01*
X72095200Y-74273900D02*
X71525500Y-73704200D01*
X53120200Y-125616000D02*
X49471200Y-129265000D01*
X49471200Y-129265000D02*
X49471200Y-147261200D01*
X49471200Y-147261200D02*
X54610000Y-152400000D01*
D20*
X57150000Y-152400000D02*
X59690000Y-152400000D01*
X54610000Y-152400000D02*
X57150000Y-152400000D01*
X59690000Y-152400000D02*
X62230000Y-152400000D01*
X62230000Y-152400000D02*
X64770000Y-152400000D01*
X64770000Y-152400000D02*
X67310000Y-152400000D01*
X67310000Y-152400000D02*
X69850000Y-152400000D01*
X69850000Y-152400000D02*
X72390000Y-152400000D01*
X72390000Y-152400000D02*
X74930000Y-152400000D01*
X74930000Y-152400000D02*
X77470000Y-152400000D01*
X77470000Y-152400000D02*
X80010000Y-152400000D01*
X80010000Y-152400000D02*
X82550000Y-152400000D01*
X82550000Y-152400000D02*
X85090000Y-152400000D01*
X85090000Y-152400000D02*
X87630000Y-152400000D01*
X87630000Y-152400000D02*
X90170000Y-152400000D01*
X90170000Y-152400000D02*
X92710000Y-152400000D01*
D19*
X77419900Y-101854900D02*
X78770800Y-103205800D01*
X78770800Y-103205800D02*
X93153800Y-103205800D01*
X93153800Y-103205800D02*
X93733800Y-103785800D01*
X93733800Y-103785800D02*
X93733800Y-103899100D01*
X93733800Y-103899100D02*
X101877000Y-112042300D01*
X101877000Y-112042300D02*
X111376300Y-112042300D01*
D20*
X97790000Y-152400000D02*
X100330000Y-152400000D01*
X95250000Y-152400000D02*
X97790000Y-152400000D01*
X100330000Y-152400000D02*
X102870000Y-152400000D01*
X102870000Y-152400000D02*
X105410000Y-152400000D01*
X105410000Y-152400000D02*
X107950000Y-152400000D01*
X107950000Y-152400000D02*
X110490000Y-152400000D01*
X110490000Y-152400000D02*
X113030000Y-152400000D01*
X113030000Y-152400000D02*
X115570000Y-152400000D01*
X115570000Y-152400000D02*
X118110000Y-152400000D01*
X118110000Y-152400000D02*
X120650000Y-152400000D01*
X120650000Y-152400000D02*
X123190000Y-152400000D01*
X123190000Y-152400000D02*
X125730000Y-152400000D01*
X125730000Y-152400000D02*
X128270000Y-152400000D01*
X128270000Y-152400000D02*
X130810000Y-152400000D01*
X130810000Y-152400000D02*
X133350000Y-152400000D01*
D19*
X92870700Y-116430300D02*
X92599700Y-116701300D01*
X92599700Y-116701300D02*
X54832600Y-116701300D01*
X79024100Y-64821900D02*
X64648400Y-64821900D01*
X64648400Y-64821900D02*
X58350300Y-71120000D01*
X57150000Y-71120000D02*
X58350300Y-71120000D01*
X96742600Y-156020500D02*
X95488600Y-157274500D01*
X95488600Y-157274500D02*
X58036500Y-157274500D01*
X80645000Y-65422200D02*
X80444900Y-65622300D01*
X80444900Y-65622300D02*
X76417900Y-65622300D01*
X76417900Y-65622300D02*
X76245600Y-65450000D01*
X76245600Y-65450000D02*
X66560300Y-65450000D01*
X66560300Y-65450000D02*
X58350300Y-73660000D01*
X57150000Y-73660000D02*
X58350300Y-73660000D01*
X60525900Y-76200000D02*
X64405500Y-72320400D01*
X64405500Y-72320400D02*
X65761300Y-72320400D01*
X65761300Y-72320400D02*
X72019600Y-66062100D01*
X72019600Y-66062100D02*
X75885800Y-66062100D01*
X75885800Y-66062100D02*
X76046400Y-66222700D01*
X76046400Y-66222700D02*
X81118200Y-66222700D01*
X81118200Y-66222700D02*
X81915000Y-65425900D01*
X99060000Y-129601000D02*
X58865000Y-129601000D01*
X58350300Y-76200000D02*
X60525900Y-76200000D01*
X57150000Y-76200000D02*
X58350300Y-76200000D01*
X68453500Y-156276800D02*
X71205700Y-153524600D01*
X71205700Y-153524600D02*
X102068600Y-153524600D01*
X82629500Y-69150200D02*
X72951186Y-69150200D01*
X67132242Y-74969144D02*
X66732243Y-75369143D01*
X72951186Y-69150200D02*
X67132242Y-74969144D01*
X102553300Y-135114700D02*
X101983900Y-134545300D01*
X101983900Y-134545300D02*
X67413000Y-134545300D01*
X67413000Y-134545300D02*
X65909900Y-133042200D01*
X66254300Y-77496300D02*
X73678400Y-70072200D01*
X73678400Y-70072200D02*
X82874900Y-70072200D01*
X82874900Y-70072200D02*
X83709400Y-69237700D01*
X85810600Y-70724300D02*
X83153700Y-73381200D01*
X83153700Y-73381200D02*
X73576000Y-73381200D01*
X106865100Y-131821500D02*
X69418600Y-131821500D01*
X69418600Y-131821500D02*
X68394600Y-132845500D01*
X71777200Y-77664400D02*
X73737300Y-75704300D01*
X73737300Y-75704300D02*
X88584500Y-75704300D01*
X88584500Y-75704300D02*
X89098900Y-75189900D01*
X89098900Y-75189900D02*
X89098900Y-72177600D01*
X89098900Y-72177600D02*
X87157200Y-70235900D01*
X109663200Y-136442800D02*
X69850000Y-136442800D01*
X88265000Y-68771600D02*
X86631600Y-68771600D01*
X86631600Y-68771600D02*
X82851400Y-72551800D01*
X82851400Y-72551800D02*
X74584800Y-72551800D01*
X72763200Y-90284300D02*
X110983900Y-90284300D01*
X110983900Y-90284300D02*
X112205000Y-89063200D01*
X89535000Y-69956100D02*
X89800000Y-69956100D01*
X89800000Y-69956100D02*
X94035900Y-74192000D01*
X94035900Y-74192000D02*
X94035900Y-74826700D01*
X94035900Y-74826700D02*
X91070800Y-77791800D01*
X91070800Y-77791800D02*
X91070800Y-77791900D01*
X91070800Y-77791900D02*
X76964400Y-77791900D01*
X76964400Y-77791900D02*
X76412400Y-78343900D01*
X74930000Y-93232000D02*
X75896700Y-92265300D01*
X75896700Y-92265300D02*
X115570000Y-92265300D01*
X90824900Y-64757100D02*
X106198300Y-64757100D01*
X106198300Y-64757100D02*
X109492600Y-68051400D01*
X109492600Y-68051400D02*
X129940300Y-68051400D01*
X129940300Y-68051400D02*
X132830400Y-70941500D01*
X132830400Y-70941500D02*
X132830400Y-71255500D01*
X117285000Y-113691400D02*
X116933700Y-113340100D01*
X116933700Y-113340100D02*
X76658500Y-113340100D01*
X76658500Y-113340100D02*
X76645000Y-113353600D01*
X119160200Y-132823500D02*
X80695800Y-132823500D01*
X80695800Y-132823500D02*
X80010000Y-133509300D01*
X81515600Y-84610600D02*
X88850200Y-84610600D01*
X86360000Y-83810300D02*
X94265700Y-83810300D01*
X94265700Y-83810300D02*
X95096200Y-84640800D01*
X95096200Y-84640800D02*
X119510100Y-84640800D01*
X119510100Y-84640800D02*
X122298400Y-87429100D01*
X98161700Y-85457400D02*
X119046800Y-85457400D01*
X119046800Y-85457400D02*
X121969800Y-88380400D01*
X121969800Y-88380400D02*
X123101500Y-88380400D01*
X98161700Y-85457400D02*
X87630000Y-85457400D01*
X130810000Y-116683200D02*
X129756800Y-115630000D01*
X129756800Y-115630000D02*
X90394400Y-115630000D01*
X90394400Y-115630000D02*
X90170000Y-115854400D01*
X90170000Y-115854400D02*
X65048700Y-115854400D01*
X65048700Y-115854400D02*
X53043900Y-103849600D01*
X53043900Y-103849600D02*
X53043900Y-79989700D01*
X53043900Y-79989700D02*
X54144700Y-78888900D01*
X54144700Y-78888900D02*
X67054700Y-78888900D01*
X67054700Y-78888900D02*
X70839700Y-75103900D01*
X70839700Y-75103900D02*
X88002700Y-75103900D01*
X88002700Y-75103900D02*
X88265000Y-74841600D01*
X93106700Y-114140400D02*
X93471000Y-114504700D01*
X93471000Y-114504700D02*
X125183000Y-114504700D01*
X125183000Y-114504700D02*
X135131500Y-104556200D01*
X135131500Y-104556200D02*
X135131500Y-89885200D01*
X135131500Y-89885200D02*
X134309500Y-89063200D01*
X134309500Y-89063200D02*
X133350000Y-89063200D01*
X134309500Y-89063200D02*
X134309500Y-80281700D01*
X134309500Y-80281700D02*
X133635000Y-79607200D01*
X133635000Y-79607200D02*
X114325900Y-79607200D01*
X114325900Y-79607200D02*
X112228300Y-77509600D01*
X112228300Y-77509600D02*
X110106300Y-77509600D01*
X110106300Y-77509600D02*
X107164700Y-74568000D01*
X107164700Y-74568000D02*
X99563400Y-74568000D01*
X73213200Y-99521600D02*
X66912900Y-99521600D01*
X66912900Y-99521600D02*
X65804300Y-98413000D01*
X65804300Y-98413000D02*
X65804300Y-96633000D01*
X65804300Y-96633000D02*
X67011300Y-95426000D01*
X67011300Y-95426000D02*
X67011300Y-94877300D01*
X67011300Y-94877300D02*
X76990000Y-84898600D01*
X76990000Y-84898600D02*
X79123800Y-84898600D01*
D20*
X90170000Y-128270000D02*
X92710000Y-128270000D01*
X57150000Y-128270000D02*
X59690000Y-128270000D01*
X54610000Y-128270000D02*
X57150000Y-128270000D01*
X59690000Y-128270000D02*
X62230000Y-128270000D01*
X62230000Y-128270000D02*
X64770000Y-128270000D01*
X64770000Y-128270000D02*
X67310000Y-128270000D01*
X67310000Y-128270000D02*
X69850000Y-128270000D01*
X69850000Y-128270000D02*
X72390000Y-128270000D01*
X72390000Y-128270000D02*
X74930000Y-128270000D01*
X74930000Y-128270000D02*
X77470000Y-128270000D01*
X77470000Y-128270000D02*
X80010000Y-128270000D01*
X80010000Y-128270000D02*
X82550000Y-128270000D01*
X82550000Y-128270000D02*
X85090000Y-128270000D01*
X85090000Y-128270000D02*
X87630000Y-128270000D01*
X87630000Y-128270000D02*
X90170000Y-128270000D01*
D19*
X132080000Y-128270000D02*
X137003700Y-123346300D01*
X137003700Y-123346300D02*
X137003700Y-80352800D01*
X137003700Y-80352800D02*
X134269500Y-77618600D01*
X134269500Y-77618600D02*
X115733000Y-77618600D01*
X115733000Y-77618600D02*
X112701100Y-74586700D01*
X112701100Y-74586700D02*
X110154400Y-74586700D01*
X110154400Y-74586700D02*
X105617600Y-70049900D01*
X105617600Y-70049900D02*
X104892600Y-70049900D01*
X104892600Y-70049900D02*
X102825300Y-72117200D01*
X102825300Y-72117200D02*
X97988600Y-72117200D01*
X97988600Y-72117200D02*
X97762100Y-72343700D01*
D20*
X132080000Y-128270000D02*
X133350000Y-128270000D01*
X130810000Y-128270000D02*
X132080000Y-128270000D01*
X97790000Y-128270000D02*
X100330000Y-128270000D01*
X95250000Y-128270000D02*
X97790000Y-128270000D01*
X100330000Y-128270000D02*
X102870000Y-128270000D01*
X102870000Y-128270000D02*
X105410000Y-128270000D01*
X105410000Y-128270000D02*
X107950000Y-128270000D01*
X107950000Y-128270000D02*
X110490000Y-128270000D01*
X110490000Y-128270000D02*
X113030000Y-128270000D01*
X113030000Y-128270000D02*
X115570000Y-128270000D01*
X115570000Y-128270000D02*
X118110000Y-128270000D01*
X118110000Y-128270000D02*
X120650000Y-128270000D01*
X120650000Y-128270000D02*
X123190000Y-128270000D01*
X123190000Y-128270000D02*
X125730000Y-128270000D01*
X125730000Y-128270000D02*
X128270000Y-128270000D01*
X128270000Y-128270000D02*
X130810000Y-128270000D01*
D19*
X54610000Y-104140000D02*
X53677000Y-103207000D01*
X53677000Y-103207000D02*
X53677000Y-80295500D01*
X53677000Y-80295500D02*
X54315800Y-79656700D01*
X54315800Y-79656700D02*
X80155300Y-79656700D01*
X80155300Y-79656700D02*
X81219800Y-78592200D01*
D20*
X59690000Y-104140000D02*
X62230000Y-104140000D01*
X57150000Y-104140000D02*
X59690000Y-104140000D01*
X62230000Y-104140000D02*
X64770000Y-104140000D01*
X64770000Y-104140000D02*
X67310000Y-104140000D01*
X67310000Y-104140000D02*
X69850000Y-104140000D01*
X69850000Y-104140000D02*
X72390000Y-104140000D01*
X72390000Y-104140000D02*
X74930000Y-104140000D01*
X74930000Y-104140000D02*
X77470000Y-104140000D01*
X77470000Y-104140000D02*
X80010000Y-104140000D01*
X80010000Y-104140000D02*
X82550000Y-104140000D01*
X82550000Y-104140000D02*
X85090000Y-104140000D01*
X85090000Y-104140000D02*
X87630000Y-104140000D01*
X87630000Y-104140000D02*
X90170000Y-104140000D01*
X90170000Y-104140000D02*
X92710000Y-104140000D01*
X54610000Y-104140000D02*
X57150000Y-104140000D01*
D19*
X81317100Y-82142900D02*
X72319700Y-82142900D01*
X72319700Y-82142900D02*
X60468700Y-93993900D01*
X60468700Y-93993900D02*
X60468700Y-96514700D01*
X60468700Y-96514700D02*
X64876200Y-100922200D01*
X64876200Y-100922200D02*
X78817100Y-100922200D01*
X78817100Y-100922200D02*
X80041800Y-102146900D01*
X80041800Y-102146900D02*
X94526900Y-102146900D01*
X94526900Y-102146900D02*
X96520000Y-104140000D01*
D20*
X96520000Y-104140000D02*
X97790000Y-104140000D01*
X95250000Y-104140000D02*
X96520000Y-104140000D01*
X115570000Y-104140000D02*
X118110000Y-104140000D01*
X97790000Y-104140000D02*
X100330000Y-104140000D01*
X100330000Y-104140000D02*
X102870000Y-104140000D01*
X102870000Y-104140000D02*
X105410000Y-104140000D01*
X105410000Y-104140000D02*
X107950000Y-104140000D01*
X107950000Y-104140000D02*
X110490000Y-104140000D01*
X110490000Y-104140000D02*
X113030000Y-104140000D01*
X113030000Y-104140000D02*
X115570000Y-104140000D01*
X125730000Y-104140000D02*
X128270000Y-104140000D01*
X123190000Y-104140000D02*
X125730000Y-104140000D01*
X128270000Y-104140000D02*
X130810000Y-104140000D01*
X118110000Y-104140000D02*
X120650000Y-104140000D01*
X120650000Y-104140000D02*
X123190000Y-104140000D01*
X130810000Y-104140000D02*
X133350000Y-104140000D01*
X57150000Y-80645000D02*
X59690000Y-80645000D01*
X54610000Y-80645000D02*
X57150000Y-80645000D01*
X59690000Y-80645000D02*
X62230000Y-80645000D01*
X62230000Y-80645000D02*
X64770000Y-80645000D01*
X64770000Y-80645000D02*
X67310000Y-80645000D01*
X67310000Y-80645000D02*
X69850000Y-80645000D01*
X69850000Y-80645000D02*
X72390000Y-80645000D01*
X72390000Y-80645000D02*
X74930000Y-80645000D01*
X74930000Y-80645000D02*
X77470000Y-80645000D01*
X77470000Y-80645000D02*
X80010000Y-80645000D01*
X80010000Y-80645000D02*
X82550000Y-80645000D01*
X82550000Y-80645000D02*
X85090000Y-80645000D01*
X85090000Y-80645000D02*
X87630000Y-80645000D01*
X87630000Y-80645000D02*
X90170000Y-80645000D01*
X90170000Y-80645000D02*
X92710000Y-80645000D01*
D19*
X99056100Y-73517800D02*
X97805800Y-74768100D01*
X97805800Y-74768100D02*
X97805800Y-77434800D01*
X97805800Y-77434800D02*
X96299700Y-78940900D01*
X96299700Y-78940900D02*
X96299700Y-80345700D01*
X96299700Y-80345700D02*
X96000400Y-80645000D01*
D20*
X96000400Y-80645000D02*
X97790000Y-80645000D01*
X95250000Y-80645000D02*
X96000400Y-80645000D01*
X97790000Y-80645000D02*
X100330000Y-80645000D01*
X100330000Y-80645000D02*
X102870000Y-80645000D01*
X102870000Y-80645000D02*
X105410000Y-80645000D01*
X105410000Y-80645000D02*
X107950000Y-80645000D01*
X107950000Y-80645000D02*
X110490000Y-80645000D01*
X110490000Y-80645000D02*
X113030000Y-80645000D01*
X113030000Y-80645000D02*
X115570000Y-80645000D01*
X115570000Y-80645000D02*
X118110000Y-80645000D01*
X118110000Y-80645000D02*
X120650000Y-80645000D01*
X120650000Y-80645000D02*
X123190000Y-80645000D01*
X123190000Y-80645000D02*
X125730000Y-80645000D01*
X125730000Y-80645000D02*
X128270000Y-80645000D01*
X128270000Y-80645000D02*
X130810000Y-80645000D01*
X130810000Y-80645000D02*
X133350000Y-80645000D01*
X116612400Y-97790000D02*
X123004000Y-97790000D01*
X123004000Y-97790000D02*
X123164000Y-97950000D01*
X123164000Y-97950000D02*
X126554000Y-97950000D01*
X126554000Y-97950000D02*
X126714000Y-97790000D01*
X126714000Y-97790000D02*
X128270000Y-97790000D01*
X107950000Y-97790000D02*
X116612400Y-97790000D01*
X73660000Y-97790000D02*
X82364000Y-97790000D01*
X82364000Y-97790000D02*
X82524000Y-97950000D01*
X82524000Y-97950000D02*
X85914400Y-97950000D01*
X85914400Y-97950000D02*
X86074400Y-97790000D01*
X86074400Y-97790000D02*
X87630000Y-97790000D01*
X67310000Y-97790000D02*
X73660000Y-97790000D01*
D19*
X50800000Y-145700000D02*
X52075300Y-145700000D01*
X52075300Y-145700000D02*
X52425300Y-146050000D01*
X52425300Y-146050000D02*
X67310000Y-146050000D01*
X67310000Y-121920000D02*
X51720000Y-121920000D01*
X51720000Y-121920000D02*
X50800000Y-122840000D01*
D20*
X67310000Y-121920000D02*
X82364000Y-121920000D01*
X82364000Y-121920000D02*
X82524000Y-122080000D01*
X82524000Y-122080000D02*
X85914400Y-122080000D01*
X85914400Y-122080000D02*
X86074400Y-121920000D01*
X86074400Y-121920000D02*
X87630000Y-121920000D01*
X87630000Y-97790000D02*
X102684000Y-97790000D01*
X102684000Y-97790000D02*
X102844000Y-97950000D01*
X102844000Y-97950000D02*
X106234000Y-97950000D01*
X106234000Y-97950000D02*
X106394000Y-97790000D01*
X106394000Y-97790000D02*
X107950000Y-97790000D01*
X107950000Y-121920000D02*
X123004000Y-121920000D01*
X123004000Y-121920000D02*
X123164000Y-122080000D01*
X123164000Y-122080000D02*
X126554000Y-122080000D01*
X126554000Y-122080000D02*
X126714000Y-121920000D01*
X126714000Y-121920000D02*
X128270000Y-121920000D01*
X87630000Y-121920000D02*
X102684000Y-121920000D01*
X102684000Y-121920000D02*
X102844000Y-122080000D01*
X102844000Y-122080000D02*
X106234000Y-122080000D01*
X106234000Y-122080000D02*
X106394000Y-121920000D01*
X106394000Y-121920000D02*
X107950000Y-121920000D01*
X107950000Y-170180000D02*
X123004000Y-170180000D01*
X123004000Y-170180000D02*
X123164000Y-170340000D01*
X123164000Y-170340000D02*
X126554000Y-170340000D01*
X126554000Y-170340000D02*
X126714000Y-170180000D01*
X126714000Y-170180000D02*
X128270000Y-170180000D01*
X87630000Y-170180000D02*
X102684000Y-170180000D01*
X102684000Y-170180000D02*
X102844000Y-170340000D01*
X102844000Y-170340000D02*
X106234000Y-170340000D01*
X106234000Y-170340000D02*
X106394000Y-170180000D01*
X106394000Y-170180000D02*
X107950000Y-170180000D01*
X67310000Y-170180000D02*
X82364000Y-170180000D01*
X82364000Y-170180000D02*
X82524000Y-170340000D01*
X82524000Y-170340000D02*
X85914400Y-170340000D01*
X85914400Y-170340000D02*
X86074400Y-170180000D01*
X86074400Y-170180000D02*
X87630000Y-170180000D01*
X107950000Y-146050000D02*
X123004000Y-146050000D01*
X123004000Y-146050000D02*
X123164000Y-146210000D01*
X123164000Y-146210000D02*
X126554000Y-146210000D01*
X126554000Y-146210000D02*
X126714000Y-146050000D01*
X126714000Y-146050000D02*
X128270000Y-146050000D01*
X87630000Y-146050000D02*
X102684000Y-146050000D01*
X102684000Y-146050000D02*
X102844000Y-146210000D01*
X102844000Y-146210000D02*
X106234000Y-146210000D01*
X106234000Y-146210000D02*
X106394000Y-146050000D01*
X106394000Y-146050000D02*
X107950000Y-146050000D01*
X67310000Y-146050000D02*
X82364000Y-146050000D01*
X82364000Y-146050000D02*
X82524000Y-146210000D01*
X82524000Y-146210000D02*
X85914400Y-146210000D01*
X85914400Y-146210000D02*
X86074400Y-146050000D01*
X86074400Y-146050000D02*
X87630000Y-146050000D01*
D19*
X112395000Y-72585700D02*
X112132800Y-72585700D01*
X112132800Y-72585700D02*
X105199000Y-65651900D01*
X105199000Y-65651900D02*
X90587800Y-65651900D01*
X90587800Y-65651900D02*
X89052500Y-64116600D01*
X89052500Y-64116600D02*
X79786700Y-64116600D01*
X50800000Y-139700000D02*
X50800000Y-130763300D01*
X50800000Y-130763300D02*
X54686000Y-126877300D01*
X54686000Y-126877300D02*
X60736500Y-126877300D01*
X60736500Y-126877300D02*
X62462600Y-125151200D01*
X62462600Y-125151200D02*
X62462600Y-123836000D01*
X62462600Y-123836000D02*
X61570400Y-122943800D01*
X61570400Y-122943800D02*
X56511900Y-122943800D01*
X56511900Y-122943800D02*
X55596100Y-123859600D01*
X55596100Y-123859600D02*
X50099200Y-123859600D01*
X50099200Y-123859600D02*
X49508600Y-123269000D01*
X49508600Y-123269000D02*
X49508600Y-118131400D01*
X49508600Y-118131400D02*
X50800000Y-116840000D01*
X94173900Y-67052500D02*
X104318000Y-67052500D01*
X104318000Y-67052500D02*
X110651600Y-73386100D01*
X110651600Y-73386100D02*
X113832600Y-73386100D01*
X129609700Y-76200000D02*
X128305900Y-74896200D01*
X128305900Y-74896200D02*
X114150400Y-74896200D01*
X114150400Y-74896200D02*
X113240600Y-73986400D01*
X113240600Y-73986400D02*
X110403000Y-73986400D01*
X110403000Y-73986400D02*
X104370500Y-67953900D01*
X104370500Y-67953900D02*
X93914300Y-67953900D01*
X93914300Y-67953900D02*
X93325000Y-67364600D01*
X93325000Y-67364600D02*
X84556200Y-67364600D01*
X84556200Y-67364600D02*
X84386400Y-67534400D01*
X84386400Y-67534400D02*
X74651500Y-67534400D01*
X130810000Y-76200000D02*
X129609700Y-76200000D01*
X123190000Y-73660000D02*
X121989700Y-73660000D01*
X121989700Y-73660000D02*
X119021500Y-70691800D01*
X119021500Y-70691800D02*
X113779400Y-70691800D01*
X93181600Y-74549000D02*
X90632200Y-77098400D01*
X90632200Y-77098400D02*
X74047700Y-77098400D01*
X74047700Y-77098400D02*
X72638400Y-78507700D01*
X101600000Y-172720000D02*
X103113300Y-174233300D01*
X103113300Y-174233300D02*
X127238900Y-174233300D01*
X127238900Y-174233300D02*
X138901700Y-162570500D01*
X138901700Y-162570500D02*
X138901700Y-76154500D01*
X138901700Y-76154500D02*
X128080200Y-65333000D01*
X128080200Y-65333000D02*
X108740200Y-65333000D01*
X121920000Y-172720000D02*
X127876100Y-172720000D01*
X127876100Y-172720000D02*
X138274300Y-162321800D01*
X138274300Y-162321800D02*
X138274300Y-79395100D01*
X138274300Y-79395100D02*
X131199600Y-72320400D01*
X131199600Y-72320400D02*
X129801600Y-72320400D01*
X129801600Y-72320400D02*
X126718000Y-69236800D01*
X126718000Y-69236800D02*
X110005500Y-69236800D01*
X60960000Y-148590000D02*
X72724700Y-148590000D01*
X72724700Y-148590000D02*
X74271000Y-147043700D01*
X74271000Y-147043700D02*
X81855700Y-147043700D01*
X81855700Y-147043700D02*
X83032200Y-148220200D01*
X83032200Y-148220200D02*
X96188600Y-148220200D01*
X97100000Y-79272300D02*
X101551500Y-79272300D01*
X101551500Y-79272300D02*
X102478000Y-78345800D01*
X81280000Y-148590000D02*
X82780400Y-150090400D01*
X82780400Y-150090400D02*
X111864300Y-150090400D01*
X111864300Y-150090400D02*
X114914300Y-147040400D01*
X114914300Y-147040400D02*
X122492400Y-147040400D01*
X122492400Y-147040400D02*
X123017900Y-147565900D01*
X123017900Y-147565900D02*
X128934900Y-147565900D01*
X128934900Y-147565900D02*
X137618900Y-138881900D01*
X137618900Y-138881900D02*
X137618900Y-80119100D01*
X137618900Y-80119100D02*
X132429800Y-74930000D01*
X132429800Y-74930000D02*
X129619600Y-74930000D01*
X129619600Y-74930000D02*
X124577300Y-69887700D01*
X124577300Y-69887700D02*
X111442200Y-69887700D01*
X111442200Y-69887700D02*
X111020400Y-70309500D01*
X93155000Y-120047700D02*
X96022700Y-117180000D01*
X96022700Y-117180000D02*
X98561100Y-117180000D01*
X109220000Y-82142900D02*
X110342100Y-83265000D01*
X110342100Y-83265000D02*
X120218000Y-83265000D01*
X120218000Y-83265000D02*
X134259900Y-97306900D01*
X134259900Y-97306900D02*
X134259900Y-104578900D01*
X134259900Y-104578900D02*
X126498100Y-112340700D01*
X126498100Y-112340700D02*
X113856200Y-112340700D01*
X49850500Y-124460000D02*
X60960000Y-124460000D01*
X48908200Y-123517700D02*
X49850500Y-124460000D01*
X60904500Y-77943700D02*
X54141500Y-77943700D01*
X66109700Y-74860300D02*
X63987900Y-74860300D01*
X75688800Y-66714000D02*
X74256000Y-66714000D01*
X75801600Y-66826800D02*
X75688800Y-66714000D01*
X63987900Y-74860300D02*
X60904500Y-77943700D01*
X54141500Y-77943700D02*
X48908200Y-83177000D01*
X93842500Y-66252200D02*
X93354300Y-66740400D01*
X48908200Y-83177000D02*
X48908200Y-123517700D01*
X107143800Y-68746600D02*
X104649400Y-66252200D01*
X74256000Y-66714000D02*
X66109700Y-74860300D01*
X104649400Y-66252200D02*
X93842500Y-66252200D01*
X93354300Y-66740400D02*
X93354300Y-66740500D01*
X93354300Y-66740500D02*
X84331300Y-66740500D01*
X84331300Y-66740500D02*
X84245000Y-66826800D01*
X84245000Y-66826800D02*
X75801600Y-66826800D01*
X95247400Y-78905400D02*
X97205500Y-76947300D01*
X97205500Y-76947300D02*
X97205500Y-74236700D01*
X97205500Y-74236700D02*
X98724700Y-72717500D01*
X98724700Y-72717500D02*
X105075900Y-72717500D01*
X81280000Y-124460000D02*
X90970400Y-124460000D01*
X90970400Y-124460000D02*
X91027500Y-124402900D01*
X101600000Y-124460000D02*
X103137000Y-125997000D01*
X103137000Y-125997000D02*
X127229400Y-125997000D01*
X127229400Y-125997000D02*
X136362800Y-116863600D01*
X136362800Y-116863600D02*
X136362800Y-80560800D01*
X136362800Y-80560800D02*
X134208400Y-78406400D01*
X134208400Y-78406400D02*
X115538600Y-78406400D01*
X115538600Y-78406400D02*
X112319200Y-75187000D01*
X112319200Y-75187000D02*
X109560800Y-75187000D01*
X109560800Y-75187000D02*
X105224000Y-70850200D01*
X121920000Y-124460000D02*
X127917300Y-124460000D01*
X127917300Y-124460000D02*
X135731800Y-116645500D01*
X135731800Y-116645500D02*
X135731800Y-80850200D01*
X135731800Y-80850200D02*
X133888400Y-79006800D01*
X133888400Y-79006800D02*
X115232600Y-79006800D01*
X115232600Y-79006800D02*
X112013100Y-75787300D01*
X112013100Y-75787300D02*
X109312100Y-75787300D01*
X109312100Y-75787300D02*
X105208000Y-71683200D01*
X105208000Y-71683200D02*
X104423300Y-71683200D01*
X102235000Y-68765200D02*
X102024000Y-68554200D01*
X102024000Y-68554200D02*
X93665700Y-68554200D01*
X93665700Y-68554200D02*
X93080000Y-67968500D01*
X93080000Y-67968500D02*
X86144600Y-67968500D01*
X86144600Y-67968500D02*
X83172900Y-70940200D01*
X83172900Y-70940200D02*
X74272500Y-70940200D01*
X74272500Y-70940200D02*
X72696200Y-72516500D01*
X60960000Y-100330000D02*
X59868300Y-99238300D01*
X59868300Y-99238300D02*
X59868300Y-88351700D01*
X59868300Y-88351700D02*
X66077100Y-82142900D01*
X100724300Y-69365600D02*
X100513200Y-69154500D01*
X100513200Y-69154500D02*
X98022000Y-69154500D01*
X98022000Y-69154500D02*
X94804300Y-72372200D01*
X94804300Y-72372200D02*
X94804300Y-74907200D01*
X94804300Y-74907200D02*
X93643400Y-76068100D01*
X93643400Y-76068100D02*
X93643400Y-81027100D01*
X93643400Y-81027100D02*
X91660500Y-83010000D01*
X91660500Y-83010000D02*
X72301700Y-83010000D01*
X72301700Y-83010000D02*
X61069100Y-94242600D01*
X61069100Y-94242600D02*
X61069100Y-96266000D01*
X61069100Y-96266000D02*
X65125000Y-100321900D01*
X65125000Y-100321900D02*
X81271900Y-100321900D01*
X81271900Y-100321900D02*
X81280000Y-100330000D01*
X94744500Y-77132400D02*
X95917100Y-75959800D01*
X95917100Y-75959800D02*
X95917100Y-72177400D01*
X95917100Y-72177400D02*
X98139700Y-69954800D01*
X98139700Y-69954800D02*
X99410500Y-69954800D01*
X101600000Y-100330000D02*
X94090400Y-100330000D01*
X98613800Y-70759900D02*
X98214100Y-70759900D01*
X98214100Y-70759900D02*
X96605200Y-72368800D01*
X96605200Y-72368800D02*
X96605200Y-76403500D01*
X96605200Y-76403500D02*
X94341200Y-78667500D01*
X94341200Y-78667500D02*
X94341200Y-81015100D01*
X94341200Y-81015100D02*
X97366500Y-84040400D01*
X97366500Y-84040400D02*
X120128900Y-84040400D01*
X120128900Y-84040400D02*
X130798000Y-94709500D01*
X130798000Y-94709500D02*
X130798000Y-97442900D01*
X130798000Y-97442900D02*
X127910900Y-100330000D01*
X127910900Y-100330000D02*
X121920000Y-100330000D01*
X112776600Y-79507000D02*
X104846700Y-79507000D01*
X104846700Y-79507000D02*
X102876400Y-77536700D01*
X102876400Y-77536700D02*
X99596200Y-77536700D01*
X99596200Y-77536700D02*
X98995100Y-78137800D01*
X134331200Y-95991200D02*
X120445000Y-82105000D01*
X120445000Y-82105000D02*
X114300000Y-82105000D01*
M02*
