M48
; DRILL file {KiCad 5.1.4+dfsg1-1} date Wed 15 Jan 2020 10:00:47 AM GMT
; FORMAT={-:-/ absolute / inch / decimal}
; #@! TF.CreationDate,2020-01-15T10:00:47+00:00
; #@! TF.GenerationSoftware,Kicad,Pcbnew,5.1.4+dfsg1-1
; #@! TF.FileFunction,Plated,1,2,PTH
FMAT,2
INCH
T1C0.0157
T2C0.0295
T3C0.0315
T4C0.0591
T5C0.0866
%
G90
G05
T1
X2.0913Y-4.9455
X2.15Y-3.175
X2.15Y-4.1
X2.15Y-5.05
X2.15Y-6.0
X2.1588Y-4.5945
X2.25Y-3.175
X2.25Y-4.1
X2.25Y-5.05
X2.25Y-6.0
X2.2849Y-6.1919
X2.3175Y-5.1024
X2.35Y-3.175
X2.35Y-4.1
X2.35Y-5.05
X2.35Y-6.0
X2.3829Y-3.0
X2.45Y-3.175
X2.45Y-4.1
X2.45Y-5.05
X2.45Y-6.0
X2.55Y-3.175
X2.55Y-4.1
X2.55Y-5.05
X2.55Y-6.0
X2.5949Y-5.2379
X2.6015Y-3.234
X2.6084Y-3.051
X2.6273Y-2.9673
X2.65Y-3.175
X2.65Y-4.1
X2.65Y-5.05
X2.65Y-6.0
X2.6927Y-5.2301
X2.695Y-6.1526
X2.75Y-3.175
X2.75Y-4.1
X2.75Y-5.05
X2.75Y-5.3718
X2.75Y-6.0
X2.816Y-2.9017
X2.8259Y-3.0577
X2.85Y-3.175
X2.85Y-4.1
X2.85Y-5.05
X2.85Y-6.0
X2.8598Y-3.0909
X2.8621Y-2.855
X2.8647Y-3.5545
X2.8824Y-3.9182
X2.8967Y-2.889
X2.9Y-3.85
X2.9364Y-2.8564
X2.939Y-2.6588
X2.95Y-3.175
X2.95Y-3.6706
X2.95Y-4.1
X2.95Y-5.05
X2.95Y-6.0
X3.0084Y-3.0844
X3.0175Y-4.4627
X3.025Y-2.9242
X3.048Y-4.01
X3.05Y-3.175
X3.05Y-4.1
X3.05Y-5.05
X3.05Y-6.0
X3.1112Y-2.552
X3.1151Y-3.3425
X3.1412Y-2.5243
X3.15Y-3.175
X3.15Y-4.1
X3.15Y-5.05
X3.15Y-5.2563
X3.15Y-6.0
X3.175Y-2.5757
X3.1976Y-3.0942
X3.2015Y-3.234
X3.2093Y-3.3311
X3.225Y-2.5758
X3.25Y-3.175
X3.25Y-4.1
X3.25Y-5.05
X3.25Y-6.0
X3.2531Y-2.7224
X3.2956Y-2.7259
X3.35Y-3.175
X3.35Y-4.1
X3.35Y-5.05
X3.35Y-6.0
X3.3784Y-2.7844
X3.4Y-3.2996
X3.4314Y-2.7652
X3.45Y-3.175
X3.45Y-3.3645
X3.45Y-4.1
X3.45Y-5.05
X3.45Y-6.0
X3.475Y-2.7075
X3.475Y-2.9465
X3.498Y-3.3311
X3.525Y-2.7542
X3.55Y-3.175
X3.55Y-4.1
X3.55Y-4.5612
X3.55Y-5.05
X3.55Y-6.0
X3.5758Y-2.5495
X3.5838Y-4.8978
X3.65Y-3.175
X3.65Y-4.1
X3.65Y-5.05
X3.65Y-6.0
X3.6563Y-4.5839
X3.6656Y-4.4937
X3.6675Y-4.7263
X3.6686Y-2.935
X3.7043Y-3.95
X3.7076Y-2.6399
X3.7301Y-3.0367
X3.7499Y-3.1065
X3.75Y-3.175
X3.75Y-4.1
X3.75Y-5.05
X3.75Y-6.0
X3.787Y-5.8354
X3.8088Y-6.1425
X3.8228Y-3.121
X3.8489Y-2.8482
X3.85Y-3.175
X3.85Y-4.1
X3.85Y-5.05
X3.85Y-6.0
X3.8646Y-3.3645
X3.8804Y-4.6134
X3.8824Y-2.7858
X3.8974Y-3.0763
X3.8998Y-2.8944
X3.9Y-5.1024
X3.9138Y-2.7541
X3.9198Y-2.9357
X3.95Y-3.175
X3.95Y-4.1
X3.95Y-5.05
X3.95Y-6.0
X3.9655Y-2.7309
X4.0184Y-6.0443
X4.025Y-2.7073
X4.0346Y-3.0845
X4.0375Y-5.3195
X4.05Y-3.175
X4.05Y-4.1
X4.05Y-5.05
X4.05Y-6.0
X4.1112Y-2.8222
X4.1368Y-2.8629
X4.1427Y-2.7894
X4.15Y-3.175
X4.15Y-4.1
X4.15Y-5.05
X4.15Y-6.0
X4.2073Y-5.1898
X4.2183Y-2.7066
X4.25Y-3.175
X4.25Y-4.1
X4.25Y-5.05
X4.25Y-6.0
X4.2811Y-2.5722
X4.3Y-3.234
X4.3174Y-5.3718
X4.3309Y-2.7259
X4.35Y-3.175
X4.35Y-4.1
X4.35Y-5.05
X4.35Y-6.0
X4.3709Y-2.7681
X4.3849Y-4.4111
X4.4175Y-3.5064
X4.425Y-2.8577
X4.44Y-3.1302
X4.45Y-3.175
X4.45Y-4.1
X4.45Y-5.05
X4.45Y-6.0
X4.4795Y-2.7831
X4.4816Y-2.8892
X4.4825Y-4.4229
X4.5Y-3.2325
X4.55Y-3.175
X4.55Y-3.6325
X4.55Y-4.1
X4.55Y-5.05
X4.55Y-6.0
X4.591Y-3.85
X4.6175Y-4.476
X4.65Y-3.175
X4.65Y-4.1
X4.65Y-5.05
X4.65Y-6.0
X4.6913Y-5.2293
X4.75Y-3.175
X4.75Y-4.1
X4.75Y-5.05
X4.75Y-6.0
X4.8149Y-3.4421
X4.8465Y-3.4795
X4.85Y-3.175
X4.85Y-4.1
X4.85Y-5.05
X4.85Y-6.0
X4.95Y-3.175
X4.95Y-4.1
X4.95Y-5.05
X4.95Y-6.0
X5.05Y-3.175
X5.05Y-4.1
X5.05Y-5.05
X5.05Y-6.0
X5.15Y-3.175
X5.15Y-4.1
X5.15Y-4.5938
X5.15Y-5.05
X5.15Y-6.0
X5.2295Y-2.8053
X5.25Y-3.175
X5.25Y-3.5064
X5.25Y-4.1
X5.25Y-5.05
X5.25Y-6.0
X5.2886Y-3.7792
X5.335Y-2.6
X5.3541Y-2.5541
X5.3541Y-2.6459
X5.4Y-2.535
X5.4Y-2.665
X5.4459Y-2.5541
X5.4459Y-2.6459
X5.465Y-2.6
X5.335Y-6.9
X5.3541Y-6.8541
X5.3541Y-6.9459
X5.4Y-6.835
X5.4Y-6.965
X5.4459Y-6.8541
X5.4459Y-6.9459
X5.465Y-6.9
X1.935Y-2.6
X1.9541Y-2.5541
X1.9541Y-2.6459
X2.0Y-2.535
X2.0Y-2.665
X2.0459Y-2.5541
X2.0459Y-2.6459
X2.065Y-2.6
X1.935Y-6.9
X1.9541Y-6.8541
X1.9541Y-6.9459
X2.0Y-6.835
X2.0Y-6.965
X2.0459Y-6.8541
X2.0459Y-6.9459
X2.065Y-6.9
T2
X2.0Y-5.5
X2.0Y-5.5787
X2.0Y-5.6575
X2.0Y-5.7362
X2.0Y-4.6
X2.0Y-4.6787
X2.0Y-4.7575
X2.0Y-4.8362
T3
X2.25Y-2.8
X2.25Y-2.9
X2.25Y-3.0
X2.55Y-2.8
X2.55Y-2.9
X2.55Y-3.0
X4.85Y-2.8
X4.85Y-2.9
X4.85Y-3.0
X5.15Y-2.8
X5.15Y-2.9
X5.15Y-3.0
T4
X2.4Y-4.9
X2.65Y-4.8
X3.2Y-6.8
X3.45Y-6.7
X4.0Y-5.85
X4.25Y-5.75
X4.8Y-6.8
X5.05Y-6.7
X3.2Y-3.95
X3.45Y-3.85
X2.4Y-5.85
X2.65Y-5.75
X2.4Y-6.8
X2.65Y-6.7
X4.0Y-6.8
X4.25Y-6.7
X3.2Y-4.9
X3.45Y-4.8
X4.8Y-3.95
X5.05Y-3.85
X3.2Y-5.85
X3.45Y-5.75
X4.0Y-3.95
X4.25Y-3.85
X4.8Y-4.9
X5.05Y-4.8
X2.4Y-3.95
X2.65Y-3.85
X4.0Y-4.9
X4.25Y-4.8
X4.8Y-5.85
X5.05Y-5.75
T5
X5.4Y-6.9
X2.0Y-2.6
X2.0Y-6.9
X5.4Y-2.6
T0
M30
