M48
; DRILL file {KiCad 5.1.4+dfsg1-1} date Wed 15 Jan 2020 10:00:47 AM GMT
; FORMAT={-:-/ absolute / inch / decimal}
; #@! TF.CreationDate,2020-01-15T10:00:47+00:00
; #@! TF.GenerationSoftware,Kicad,Pcbnew,5.1.4+dfsg1-1
; #@! TF.FileFunction,NonPlated,1,2,NPTH
FMAT,2
INCH
T1C0.0669
T2C0.1575
%
G90
G05
T1
X4.7Y-5.65
X5.1Y-5.65
X2.3Y-4.7
X2.7Y-4.7
X3.1Y-6.6
X3.5Y-6.6
X3.9Y-5.65
X4.3Y-5.65
X4.7Y-6.6
X5.1Y-6.6
X3.1Y-3.75
X3.5Y-3.75
X2.3Y-5.65
X2.7Y-5.65
X2.3Y-6.6
X2.7Y-6.6
X3.9Y-6.6
X4.3Y-6.6
X3.1Y-4.7
X3.5Y-4.7
X4.7Y-3.75
X5.1Y-3.75
X3.1Y-5.65
X3.5Y-5.65
X3.9Y-3.75
X4.3Y-3.75
X4.7Y-4.7
X5.1Y-4.7
X2.3Y-3.75
X2.7Y-3.75
X3.9Y-4.7
X4.3Y-4.7
T2
X4.1Y-3.75
X4.9Y-4.7
X2.5Y-3.75
X4.1Y-4.7
X4.9Y-5.65
X2.5Y-4.7
X3.3Y-6.6
X4.1Y-5.65
X4.9Y-6.6
X3.3Y-3.75
X2.5Y-5.65
X2.5Y-6.6
X4.1Y-6.6
X3.3Y-4.7
X4.9Y-3.75
X3.3Y-5.65
T0
M30
